M48
; DRILL file {KiCad (6.0.1)} date Tue Apr  5 18:46:54 2022
; FORMAT={-:-/ absolute / inch / decimal}
; #@! TF.CreationDate,2022-04-05T18:46:54+02:00
; #@! TF.GenerationSoftware,Kicad,Pcbnew,(6.0.1)
; #@! TF.FileFunction,NonPlated,1,2,NPTH
FMAT,2
INCH
; #@! TA.AperFunction,NonPlated,NPTH,ComponentDrill
T1C0.0689
; #@! TA.AperFunction,NonPlated,NPTH,ComponentDrill
T2C0.0866
; #@! TA.AperFunction,NonPlated,NPTH,ComponentDrill
T3C0.1200
; #@! TA.AperFunction,NonPlated,NPTH,ComponentDrill
T4C0.1570
%
G90
G05
T1
X4.3239Y-2.1253
X4.3239Y-2.8753
X4.3239Y-3.6253
X4.3239Y-4.3753
X4.3239Y-5.1253
X4.7239Y-2.1253
X4.7239Y-2.8753
X4.7239Y-3.6253
X4.7239Y-4.3753
X4.7239Y-5.1253
X5.0739Y-2.1253
X5.0739Y-2.8753
X5.0739Y-3.6253
X5.0739Y-4.3753
X5.0739Y-5.1253
X5.4739Y-2.1253
X5.4739Y-2.8753
X5.4739Y-3.6253
X5.4739Y-4.3753
X5.4739Y-5.1253
X5.8239Y-2.1253
X5.8239Y-2.8753
X5.8239Y-3.6253
X5.8239Y-4.3753
X5.8239Y-5.1253
X6.2239Y-2.1253
X6.2239Y-2.8753
X6.2239Y-3.6253
X6.2239Y-4.3753
X6.2239Y-5.1253
X6.5739Y-2.1253
X6.5739Y-2.8753
X6.5739Y-3.6253
X6.5739Y-4.3753
X6.5739Y-5.1253
X6.9739Y-2.1253
X6.9739Y-2.8753
X6.9739Y-3.6253
X6.9739Y-4.3753
X6.9739Y-5.1253
X7.3239Y-2.1253
X7.3239Y-2.8753
X7.3239Y-3.6253
X7.3239Y-4.3753
X7.3239Y-5.1253
X7.7239Y-2.1253
X7.7239Y-2.8753
X7.7239Y-3.6253
X7.7239Y-4.3753
X7.7239Y-5.1253
X8.0739Y-2.1253
X8.0739Y-2.8753
X8.0739Y-3.6253
X8.0739Y-4.3753
X8.0739Y-5.1253
X8.4739Y-2.1253
X8.4739Y-2.8753
X8.4739Y-3.6253
X8.4739Y-4.3753
X8.4739Y-5.1253
X8.8239Y-2.1253
X8.8239Y-2.8753
X8.8239Y-3.6253
X8.8239Y-4.3753
X8.8239Y-5.1253
X9.2239Y-2.1253
X9.2239Y-2.8753
X9.2239Y-3.6253
X9.2239Y-4.3753
X9.2239Y-5.1253
X9.5721Y-3.6253
X9.5733Y-4.3753
X9.5739Y-2.8753
X9.5739Y-5.1253
X9.5745Y-4.0001
X9.9721Y-3.6253
X9.9733Y-4.3753
X9.9739Y-2.8753
X9.9739Y-5.1253
X9.9745Y-4.0001
T2
X3.225Y-1.675
X3.225Y-5.575
X5.65Y-3.25
X5.65Y-4.0
X8.65Y-3.25
X8.65Y-4.0
X10.225Y-1.675
X10.225Y-5.575
T3
X4.5239Y-4.8503
X6.0239Y-4.8503
X10.0495Y-3.5301
X10.0495Y-4.4701
T4
X4.5239Y-2.1253
X4.5239Y-2.8753
X4.5239Y-3.6253
X4.5239Y-4.3753
X4.5239Y-5.1253
X4.5239Y-5.4503
X5.2739Y-2.1253
X5.2739Y-2.8753
X5.2739Y-3.6253
X5.2739Y-4.3753
X5.2739Y-5.1253
X6.0239Y-2.1253
X6.0239Y-2.8753
X6.0239Y-3.6253
X6.0239Y-4.3753
X6.0239Y-5.1253
X6.0239Y-5.4503
X6.7739Y-2.1253
X6.7739Y-2.8753
X6.7739Y-3.6253
X6.7739Y-4.3753
X6.7739Y-5.1253
X7.5239Y-2.1253
X7.5239Y-2.8753
X7.5239Y-3.6253
X7.5239Y-4.3753
X7.5239Y-5.1253
X8.2739Y-2.1253
X8.2739Y-2.8753
X8.2739Y-3.6253
X8.2739Y-4.3753
X8.2739Y-5.1253
X9.0239Y-2.1253
X9.0239Y-2.8753
X9.0239Y-3.6253
X9.0239Y-4.3753
X9.0239Y-5.1253
X9.4495Y-3.5301
X9.4495Y-4.4701
X9.7721Y-3.6253
X9.7733Y-4.3753
X9.7739Y-2.8753
X9.7739Y-5.1253
X9.7745Y-4.0001
T0
M30
