M48
; DRILL file {KiCad (6.0.1)} date Tue Apr  5 18:46:54 2022
; FORMAT={-:-/ absolute / inch / decimal}
; #@! TF.CreationDate,2022-04-05T18:46:54+02:00
; #@! TF.GenerationSoftware,Kicad,Pcbnew,(6.0.1)
; #@! TF.FileFunction,Plated,1,2,PTH
FMAT,2
INCH
; #@! TA.AperFunction,Plated,PTH,ViaDrill
T1C0.0157
; #@! TA.AperFunction,Plated,PTH,ViaDrill
T2C0.0315
; #@! TA.AperFunction,Plated,PTH,ComponentDrill
T3C0.0320
; #@! TA.AperFunction,Plated,PTH,ViaDrill
T4C0.0394
; #@! TA.AperFunction,Plated,PTH,ComponentDrill
T5C0.0394
; #@! TA.AperFunction,Plated,PTH,ComponentDrill
T6C0.0430
; #@! TA.AperFunction,Plated,PTH,ComponentDrill
T7C0.0433
; #@! TA.AperFunction,Plated,PTH,ComponentDrill
T8C0.0551
; #@! TA.AperFunction,Plated,PTH,ComponentDrill
T9C0.0579
; #@! TA.AperFunction,Plated,PTH,ComponentDrill
T10C0.0591
%
G90
G05
T1
X3.475Y-3.0
X3.8Y-2.325
X4.0Y-2.225
X4.0Y-2.275
X4.125Y-2.375
X4.125Y-2.7
X4.2Y-4.925
X4.2035Y-4.5535
X4.3Y-2.65
X4.45Y-4.6
X4.675Y-2.225
X4.675Y-2.35
X4.725Y-2.25
X4.725Y-2.375
X6.7Y-2.625
X6.7809Y-2.563
X9.088Y-2.563
X9.238Y-2.563
X9.325Y-2.35
X9.4Y-2.7
X9.45Y-2.325
X9.5Y-2.3
X9.75Y-2.1
X9.75Y-2.275
X10.15Y-1.9
X10.15Y-2.325
X10.166Y-2.091
X10.166Y-2.159
T2
X3.89Y-3.15
X3.97Y-2.64
X4.05Y-2.6
X4.275Y-4.725
X4.425Y-4.75
T3
X3.4246Y-3.4
X3.5246Y-3.4
X3.6246Y-3.4
X3.7246Y-3.4
T4
X3.25Y-3.525
X3.375Y-3.2
X3.525Y-2.7
X3.55Y-3.225
X3.575Y-2.975
X3.625Y-2.075
X3.625Y-2.225
X3.625Y-2.525
T5
X9.499Y-2.0264
X9.499Y-2.2232
X10.0699Y-2.0264
X10.0699Y-2.1248
X10.0699Y-2.2232
T6
X3.2739Y-1.899
X3.2739Y-1.999
X3.2739Y-2.099
X3.2739Y-2.199
X3.2739Y-2.299
X3.2739Y-2.399
X3.2739Y-2.499
X3.2739Y-2.599
X3.2739Y-2.699
X3.2739Y-2.799
X3.2739Y-2.899
X3.2739Y-2.999
X3.3739Y-2.799
X3.4739Y-2.799
X3.5739Y-2.799
X3.8739Y-1.899
X3.8739Y-1.999
X3.8739Y-2.099
X3.8739Y-2.199
X3.8739Y-2.299
X3.8739Y-2.399
X3.8739Y-2.499
X3.8739Y-2.599
X3.8739Y-2.699
X3.8739Y-2.799
X3.8739Y-2.899
X3.8739Y-2.999
T7
X3.45Y-3.6114
X3.45Y-3.7886
X3.7059Y-3.6114
X3.7059Y-3.7886
T8
X3.575Y-3.9368
X3.575Y-5.4132
T9
X4.3739Y-2.0253
X4.3739Y-2.7753
X4.3739Y-3.5253
X4.3739Y-4.2753
X4.3739Y-5.0253
X4.4255Y-1.9678
X4.4255Y-2.7178
X4.4255Y-3.4678
X4.4255Y-4.2178
X4.4255Y-4.9678
X4.6223Y-1.9481
X4.6223Y-2.6981
X4.6223Y-3.4481
X4.6223Y-4.1981
X4.6223Y-4.9481
X4.6239Y-1.9253
X4.6239Y-2.6753
X4.6239Y-3.4253
X4.6239Y-4.1753
X4.6239Y-4.9253
X5.1239Y-2.0253
X5.1239Y-2.7753
X5.1239Y-3.5253
X5.1239Y-4.2753
X5.1239Y-5.0253
X5.1755Y-1.9678
X5.1755Y-2.7178
X5.1755Y-3.4678
X5.1755Y-4.2178
X5.1755Y-4.9678
X5.3723Y-1.9481
X5.3723Y-2.6981
X5.3723Y-3.4481
X5.3723Y-4.1981
X5.3723Y-4.9481
X5.3739Y-1.9253
X5.3739Y-2.6753
X5.3739Y-3.4253
X5.3739Y-4.1753
X5.3739Y-4.9253
X5.8739Y-2.0253
X5.8739Y-2.7753
X5.8739Y-3.5253
X5.8739Y-4.2753
X5.8739Y-5.0253
X5.9255Y-1.9678
X5.9255Y-2.7178
X5.9255Y-3.4678
X5.9255Y-4.2178
X5.9255Y-4.9678
X6.1223Y-1.9481
X6.1223Y-2.6981
X6.1223Y-3.4481
X6.1223Y-4.1981
X6.1223Y-4.9481
X6.1239Y-1.9253
X6.1239Y-2.6753
X6.1239Y-3.4253
X6.1239Y-4.1753
X6.1239Y-4.9253
X6.6239Y-2.0253
X6.6239Y-2.7753
X6.6239Y-3.5253
X6.6239Y-4.2753
X6.6239Y-5.0253
X6.6755Y-1.9678
X6.6755Y-2.7178
X6.6755Y-3.4678
X6.6755Y-4.2178
X6.6755Y-4.9678
X6.8723Y-1.9481
X6.8723Y-2.6981
X6.8723Y-3.4481
X6.8723Y-4.1981
X6.8723Y-4.9481
X6.8739Y-1.9253
X6.8739Y-2.6753
X6.8739Y-3.4253
X6.8739Y-4.1753
X6.8739Y-4.9253
X7.3739Y-2.0253
X7.3739Y-2.7753
X7.3739Y-3.5253
X7.3739Y-4.2753
X7.3739Y-5.0253
X7.4255Y-1.9678
X7.4255Y-2.7178
X7.4255Y-3.4678
X7.4255Y-4.2178
X7.4255Y-4.9678
X7.6223Y-1.9481
X7.6223Y-2.6981
X7.6223Y-3.4481
X7.6223Y-4.1981
X7.6223Y-4.9481
X7.6239Y-1.9253
X7.6239Y-2.6753
X7.6239Y-3.4253
X7.6239Y-4.1753
X7.6239Y-4.9253
X8.1239Y-2.0253
X8.1239Y-2.7753
X8.1239Y-3.5253
X8.1239Y-4.2753
X8.1239Y-5.0253
X8.1755Y-1.9678
X8.1755Y-2.7178
X8.1755Y-3.4678
X8.1755Y-4.2178
X8.1755Y-4.9678
X8.3723Y-1.9481
X8.3723Y-2.6981
X8.3723Y-3.4481
X8.3723Y-4.1981
X8.3723Y-4.9481
X8.3739Y-1.9253
X8.3739Y-2.6753
X8.3739Y-3.4253
X8.3739Y-4.1753
X8.3739Y-4.9253
X8.8739Y-2.0253
X8.8739Y-2.7753
X8.8739Y-3.5253
X8.8739Y-4.2753
X8.8739Y-5.0253
X8.9255Y-1.9678
X8.9255Y-2.7178
X8.9255Y-3.4678
X8.9255Y-4.2178
X8.9255Y-4.9678
X9.1223Y-1.9481
X9.1223Y-2.6981
X9.1223Y-3.4481
X9.1223Y-4.1981
X9.1223Y-4.9481
X9.1239Y-1.9253
X9.1239Y-2.6753
X9.1239Y-3.4253
X9.1239Y-4.1753
X9.1239Y-4.9253
X9.6221Y-3.5253
X9.6233Y-4.2753
X9.6239Y-2.7753
X9.6239Y-5.0253
X9.6245Y-3.9001
X9.6737Y-3.4678
X9.6749Y-4.2178
X9.6755Y-2.7178
X9.6755Y-4.9678
X9.6761Y-3.8426
X9.8706Y-3.4481
X9.8717Y-4.1981
X9.8721Y-3.4253
X9.8723Y-2.6981
X9.8723Y-4.9481
X9.8729Y-3.823
X9.8733Y-4.1753
X9.8739Y-2.6753
X9.8739Y-4.9253
X9.8745Y-3.8001
T10
X9.8002Y-1.9043G85X9.749Y-1.9043
G05
X9.8002Y-2.3453G85X9.749Y-2.3453
G05
T0
M30
