%FSLAX45Y45*%
G04 Gerber Fmt 4.5, Leading zero omitted, Abs format (unit mm)*
G04 Created by KiCad (PCBNEW (6.0.1)) date 2022-04-05 18:46:55*
%MOMM*%
%LPD*%
G01*
G04 APERTURE LIST*
%TA.AperFunction,Profile*%
%ADD10C,0.200000*%
%TD*%
%ADD11C,0.200000*%
%ADD12C,0.040000*%
%ADD13C,0.080000*%
%ADD14C,0.081280*%
%ADD15C,0.100000*%
%ADD16C,0.109220*%
%ADD17C,0.110000*%
%ADD18C,0.140000*%
%ADD19C,0.147000*%
%ADD20C,0.150000*%
G04 APERTURE END LIST*
D10*
X26479332Y-4127668D02*
G75*
G03*
X26098332Y-3746668I-381000J0D01*
G01*
X26098332Y-14668332D02*
G75*
G03*
X26479332Y-14287332I0J381000D01*
G01*
X8064668Y-3746668D02*
X26098332Y-3746668D01*
X7683668Y-14287332D02*
X7683668Y-4127668D01*
X26098332Y-14668332D02*
X8064668Y-14668332D01*
X8064668Y-3746668D02*
G75*
G03*
X7683668Y-4127668I0J-381000D01*
G01*
X7683668Y-14287332D02*
G75*
G03*
X8064668Y-14668332I381000J0D01*
G01*
X26479332Y-4127668D02*
X26479332Y-14287332D01*
D11*
D12*
X8806500Y-7600000D02*
X8846500Y-7640000D01*
X8846500Y-7600000D02*
X8806500Y-7640000D01*
X9632000Y-5885500D02*
X9672000Y-5925500D01*
X9672000Y-5885500D02*
X9632000Y-5925500D01*
X10140000Y-5631500D02*
X10180000Y-5671500D01*
X10180000Y-5631500D02*
X10140000Y-5671500D01*
X10140000Y-5758500D02*
X10180000Y-5798500D01*
X10180000Y-5758500D02*
X10140000Y-5798500D01*
X10457500Y-6012500D02*
X10497500Y-6052500D01*
X10497500Y-6012500D02*
X10457500Y-6052500D01*
X10457500Y-6838000D02*
X10497500Y-6878000D01*
X10497500Y-6838000D02*
X10457500Y-6878000D01*
X10648000Y-12489500D02*
X10688000Y-12529500D01*
X10688000Y-12489500D02*
X10648000Y-12529500D01*
X10657000Y-11546000D02*
X10697000Y-11586000D01*
X10697000Y-11546000D02*
X10657000Y-11586000D01*
X10902000Y-6711000D02*
X10942000Y-6751000D01*
X10942000Y-6711000D02*
X10902000Y-6751000D01*
X11283000Y-11664000D02*
X11323000Y-11704000D01*
X11323000Y-11664000D02*
X11283000Y-11704000D01*
X11854500Y-5631500D02*
X11894500Y-5671500D01*
X11894500Y-5631500D02*
X11854500Y-5671500D01*
X11854500Y-5949000D02*
X11894500Y-5989000D01*
X11894500Y-5949000D02*
X11854500Y-5989000D01*
X11981500Y-5695000D02*
X12021500Y-5735000D01*
X12021500Y-5695000D02*
X11981500Y-5735000D01*
X11981500Y-6012500D02*
X12021500Y-6052500D01*
X12021500Y-6012500D02*
X11981500Y-6052500D01*
X16998000Y-6647500D02*
X17038000Y-6687500D01*
X17038000Y-6647500D02*
X16998000Y-6687500D01*
X17203602Y-6490000D02*
X17243602Y-6530000D01*
X17243602Y-6490000D02*
X17203602Y-6530000D01*
X23063500Y-6490000D02*
X23103500Y-6530000D01*
X23103500Y-6490000D02*
X23063500Y-6530000D01*
X23444500Y-6490000D02*
X23484500Y-6530000D01*
X23484500Y-6490000D02*
X23444500Y-6530000D01*
X23665500Y-5949000D02*
X23705500Y-5989000D01*
X23705500Y-5949000D02*
X23665500Y-5989000D01*
X23856000Y-6838000D02*
X23896000Y-6878000D01*
X23896000Y-6838000D02*
X23856000Y-6878000D01*
X23983000Y-5885500D02*
X24023000Y-5925500D01*
X24023000Y-5885500D02*
X23983000Y-5925500D01*
X24110000Y-5822000D02*
X24150000Y-5862000D01*
X24150000Y-5822000D02*
X24110000Y-5862000D01*
X24745000Y-5314000D02*
X24785000Y-5354000D01*
X24785000Y-5314000D02*
X24745000Y-5354000D01*
X24745000Y-5758500D02*
X24785000Y-5798500D01*
X24785000Y-5758500D02*
X24745000Y-5798500D01*
X25761000Y-4806000D02*
X25801000Y-4846000D01*
X25801000Y-4806000D02*
X25761000Y-4846000D01*
X25761000Y-5885500D02*
X25801000Y-5925500D01*
X25801000Y-5885500D02*
X25761000Y-5925500D01*
X25801750Y-5291250D02*
X25841750Y-5331250D01*
X25841750Y-5291250D02*
X25801750Y-5331250D01*
X25801750Y-5463750D02*
X25841750Y-5503750D01*
X25841750Y-5463750D02*
X25801750Y-5503750D01*
D13*
X9920600Y-8001000D02*
G75*
G03*
X9920600Y-8001000I-40000J0D01*
G01*
X10123800Y-6705600D02*
G75*
G03*
X10123800Y-6705600I-40000J0D01*
G01*
X10327000Y-6604000D02*
G75*
G03*
X10327000Y-6604000I-40000J0D01*
G01*
X10898500Y-12001500D02*
G75*
G03*
X10898500Y-12001500I-40000J0D01*
G01*
X11279500Y-12065000D02*
G75*
G03*
X11279500Y-12065000I-40000J0D01*
G01*
D14*
X8698500Y-8595360D02*
X8698500Y-8676640D01*
X8657860Y-8636000D02*
X8739140Y-8636000D01*
X8952500Y-8595360D02*
X8952500Y-8676640D01*
X8911860Y-8636000D02*
X8993140Y-8636000D01*
X9206500Y-8595360D02*
X9206500Y-8676640D01*
X9165860Y-8636000D02*
X9247140Y-8636000D01*
X9460500Y-8595360D02*
X9460500Y-8676640D01*
X9419860Y-8636000D02*
X9501140Y-8636000D01*
D15*
X8290356Y-8988856D02*
X8290356Y-8918144D01*
X8219644Y-8918144D01*
X8219644Y-8988856D01*
X8290356Y-8988856D01*
X8607856Y-8163356D02*
X8607856Y-8092644D01*
X8537144Y-8092644D01*
X8537144Y-8163356D01*
X8607856Y-8163356D01*
X8988856Y-6893356D02*
X8988856Y-6822644D01*
X8918144Y-6822644D01*
X8918144Y-6893356D01*
X8988856Y-6893356D01*
X9052356Y-8226856D02*
X9052356Y-8156144D01*
X8981644Y-8156144D01*
X8981644Y-8226856D01*
X9052356Y-8226856D01*
X9115856Y-7591856D02*
X9115856Y-7521144D01*
X9045144Y-7521144D01*
X9045144Y-7591856D01*
X9115856Y-7591856D01*
X9242856Y-5305856D02*
X9242856Y-5235144D01*
X9172144Y-5235144D01*
X9172144Y-5305856D01*
X9242856Y-5305856D01*
X9242856Y-5686856D02*
X9242856Y-5616144D01*
X9172144Y-5616144D01*
X9172144Y-5686856D01*
X9242856Y-5686856D01*
X9242856Y-6448856D02*
X9242856Y-6378144D01*
X9172144Y-6378144D01*
X9172144Y-6448856D01*
X9242856Y-6448856D01*
X24127500Y-5197000D02*
X24177500Y-5147000D01*
X24127500Y-5097000D01*
X24077500Y-5147000D01*
X24127500Y-5197000D01*
X24127500Y-5697000D02*
X24177500Y-5647000D01*
X24127500Y-5597000D01*
X24077500Y-5647000D01*
X24127500Y-5697000D01*
X25577500Y-5197000D02*
X25627500Y-5147000D01*
X25577500Y-5097000D01*
X25527500Y-5147000D01*
X25577500Y-5197000D01*
X25577500Y-5447000D02*
X25627500Y-5397000D01*
X25577500Y-5347000D01*
X25527500Y-5397000D01*
X25577500Y-5447000D01*
X25577500Y-5697000D02*
X25627500Y-5647000D01*
X25577500Y-5597000D01*
X25527500Y-5647000D01*
X25577500Y-5697000D01*
D16*
X8261120Y-4768865D02*
X8370340Y-4878085D01*
X8370340Y-4768865D02*
X8261120Y-4878085D01*
X8370340Y-4823475D02*
G75*
G03*
X8370340Y-4823475I-54610J0D01*
G01*
X8261120Y-5022865D02*
X8370340Y-5132085D01*
X8370340Y-5022865D02*
X8261120Y-5132085D01*
X8370340Y-5077475D02*
G75*
G03*
X8370340Y-5077475I-54610J0D01*
G01*
X8261120Y-5276865D02*
X8370340Y-5386085D01*
X8370340Y-5276865D02*
X8261120Y-5386085D01*
X8370340Y-5331475D02*
G75*
G03*
X8370340Y-5331475I-54610J0D01*
G01*
X8261120Y-5530865D02*
X8370340Y-5640085D01*
X8370340Y-5530865D02*
X8261120Y-5640085D01*
X8370340Y-5585475D02*
G75*
G03*
X8370340Y-5585475I-54610J0D01*
G01*
X8261120Y-5784865D02*
X8370340Y-5894085D01*
X8370340Y-5784865D02*
X8261120Y-5894085D01*
X8370340Y-5839475D02*
G75*
G03*
X8370340Y-5839475I-54610J0D01*
G01*
X8261120Y-6038865D02*
X8370340Y-6148085D01*
X8370340Y-6038865D02*
X8261120Y-6148085D01*
X8370340Y-6093475D02*
G75*
G03*
X8370340Y-6093475I-54610J0D01*
G01*
X8261120Y-6292865D02*
X8370340Y-6402085D01*
X8370340Y-6292865D02*
X8261120Y-6402085D01*
X8370340Y-6347475D02*
G75*
G03*
X8370340Y-6347475I-54610J0D01*
G01*
X8261120Y-6546865D02*
X8370340Y-6656085D01*
X8370340Y-6546865D02*
X8261120Y-6656085D01*
X8370340Y-6601475D02*
G75*
G03*
X8370340Y-6601475I-54610J0D01*
G01*
X8261120Y-6800865D02*
X8370340Y-6910085D01*
X8370340Y-6800865D02*
X8261120Y-6910085D01*
X8370340Y-6855475D02*
G75*
G03*
X8370340Y-6855475I-54610J0D01*
G01*
X8261120Y-7054865D02*
X8370340Y-7164085D01*
X8370340Y-7054865D02*
X8261120Y-7164085D01*
X8370340Y-7109475D02*
G75*
G03*
X8370340Y-7109475I-54610J0D01*
G01*
X8261120Y-7308865D02*
X8370340Y-7418085D01*
X8370340Y-7308865D02*
X8261120Y-7418085D01*
X8370340Y-7363475D02*
G75*
G03*
X8370340Y-7363475I-54610J0D01*
G01*
X8261120Y-7562865D02*
X8370340Y-7672085D01*
X8370340Y-7562865D02*
X8261120Y-7672085D01*
X8370340Y-7617475D02*
G75*
G03*
X8370340Y-7617475I-54610J0D01*
G01*
X8515120Y-7054865D02*
X8624340Y-7164085D01*
X8624340Y-7054865D02*
X8515120Y-7164085D01*
X8624340Y-7109475D02*
G75*
G03*
X8624340Y-7109475I-54610J0D01*
G01*
X8769120Y-7054865D02*
X8878340Y-7164085D01*
X8878340Y-7054865D02*
X8769120Y-7164085D01*
X8878340Y-7109475D02*
G75*
G03*
X8878340Y-7109475I-54610J0D01*
G01*
X9023120Y-7054865D02*
X9132340Y-7164085D01*
X9132340Y-7054865D02*
X9023120Y-7164085D01*
X9132340Y-7109475D02*
G75*
G03*
X9132340Y-7109475I-54610J0D01*
G01*
X9785120Y-4768865D02*
X9894340Y-4878085D01*
X9894340Y-4768865D02*
X9785120Y-4878085D01*
X9894340Y-4823475D02*
G75*
G03*
X9894340Y-4823475I-54610J0D01*
G01*
X9785120Y-5022865D02*
X9894340Y-5132085D01*
X9894340Y-5022865D02*
X9785120Y-5132085D01*
X9894340Y-5077475D02*
G75*
G03*
X9894340Y-5077475I-54610J0D01*
G01*
X9785120Y-5276865D02*
X9894340Y-5386085D01*
X9894340Y-5276865D02*
X9785120Y-5386085D01*
X9894340Y-5331475D02*
G75*
G03*
X9894340Y-5331475I-54610J0D01*
G01*
X9785120Y-5530865D02*
X9894340Y-5640085D01*
X9894340Y-5530865D02*
X9785120Y-5640085D01*
X9894340Y-5585475D02*
G75*
G03*
X9894340Y-5585475I-54610J0D01*
G01*
X9785120Y-5784865D02*
X9894340Y-5894085D01*
X9894340Y-5784865D02*
X9785120Y-5894085D01*
X9894340Y-5839475D02*
G75*
G03*
X9894340Y-5839475I-54610J0D01*
G01*
X9785120Y-6038865D02*
X9894340Y-6148085D01*
X9894340Y-6038865D02*
X9785120Y-6148085D01*
X9894340Y-6093475D02*
G75*
G03*
X9894340Y-6093475I-54610J0D01*
G01*
X9785120Y-6292865D02*
X9894340Y-6402085D01*
X9894340Y-6292865D02*
X9785120Y-6402085D01*
X9894340Y-6347475D02*
G75*
G03*
X9894340Y-6347475I-54610J0D01*
G01*
X9785120Y-6546865D02*
X9894340Y-6656085D01*
X9894340Y-6546865D02*
X9785120Y-6656085D01*
X9894340Y-6601475D02*
G75*
G03*
X9894340Y-6601475I-54610J0D01*
G01*
X9785120Y-6800865D02*
X9894340Y-6910085D01*
X9894340Y-6800865D02*
X9785120Y-6910085D01*
X9894340Y-6855475D02*
G75*
G03*
X9894340Y-6855475I-54610J0D01*
G01*
X9785120Y-7054865D02*
X9894340Y-7164085D01*
X9894340Y-7054865D02*
X9785120Y-7164085D01*
X9894340Y-7109475D02*
G75*
G03*
X9894340Y-7109475I-54610J0D01*
G01*
X9785120Y-7308865D02*
X9894340Y-7418085D01*
X9894340Y-7308865D02*
X9785120Y-7418085D01*
X9894340Y-7363475D02*
G75*
G03*
X9894340Y-7363475I-54610J0D01*
G01*
X9785120Y-7562865D02*
X9894340Y-7672085D01*
X9894340Y-7562865D02*
X9785120Y-7672085D01*
X9894340Y-7617475D02*
G75*
G03*
X9894340Y-7617475I-54610J0D01*
G01*
D17*
X8708000Y-9118000D02*
X8818000Y-9228000D01*
X8818000Y-9118000D02*
X8708000Y-9228000D01*
X8763000Y-9118000D02*
X8763000Y-9228000D01*
X8708000Y-9173000D02*
X8818000Y-9173000D01*
X8708000Y-9568000D02*
X8818000Y-9678000D01*
X8818000Y-9568000D02*
X8708000Y-9678000D01*
X8763000Y-9568000D02*
X8763000Y-9678000D01*
X8708000Y-9623000D02*
X8818000Y-9623000D01*
X9358000Y-9118000D02*
X9468000Y-9228000D01*
X9468000Y-9118000D02*
X9358000Y-9228000D01*
X9413000Y-9118000D02*
X9413000Y-9228000D01*
X9358000Y-9173000D02*
X9468000Y-9173000D01*
X9358000Y-9568000D02*
X9468000Y-9678000D01*
X9468000Y-9568000D02*
X9358000Y-9678000D01*
X9413000Y-9568000D02*
X9413000Y-9678000D01*
X9358000Y-9623000D02*
X9468000Y-9623000D01*
D18*
X9010500Y-9929500D02*
X9150500Y-10069500D01*
X9150500Y-9929500D02*
X9010500Y-10069500D01*
X9129998Y-10048998D02*
X9129998Y-9950002D01*
X9031002Y-9950002D01*
X9031002Y-10048998D01*
X9129998Y-10048998D01*
X9010500Y-13679500D02*
X9150500Y-13819500D01*
X9150500Y-13679500D02*
X9010500Y-13819500D01*
X9129998Y-13798998D02*
X9129998Y-13700002D01*
X9031002Y-13700002D01*
X9031002Y-13798998D01*
X9129998Y-13798998D01*
D19*
X11036230Y-5070800D02*
X11183230Y-5217800D01*
X11183230Y-5070800D02*
X11036230Y-5217800D01*
X11109730Y-5217800D02*
X11183230Y-5144300D01*
X11109730Y-5070800D01*
X11036230Y-5144300D01*
X11109730Y-5217800D01*
X11036230Y-6975800D02*
X11183230Y-7122800D01*
X11183230Y-6975800D02*
X11036230Y-7122800D01*
X11109730Y-7122800D02*
X11183230Y-7049300D01*
X11109730Y-6975800D01*
X11036230Y-7049300D01*
X11109730Y-7122800D01*
X11036230Y-8880800D02*
X11183230Y-9027800D01*
X11183230Y-8880800D02*
X11036230Y-9027800D01*
X11109730Y-9027800D02*
X11183230Y-8954300D01*
X11109730Y-8880800D01*
X11036230Y-8954300D01*
X11109730Y-9027800D01*
X11036230Y-10785800D02*
X11183230Y-10932800D01*
X11183230Y-10785800D02*
X11036230Y-10932800D01*
X11109730Y-10932800D02*
X11183230Y-10859300D01*
X11109730Y-10785800D01*
X11036230Y-10859300D01*
X11109730Y-10932800D01*
X11036230Y-12690800D02*
X11183230Y-12837800D01*
X11183230Y-12690800D02*
X11036230Y-12837800D01*
X11109730Y-12837800D02*
X11183230Y-12764300D01*
X11109730Y-12690800D01*
X11036230Y-12764300D01*
X11109730Y-12837800D01*
X11167230Y-4924800D02*
X11314230Y-5071800D01*
X11314230Y-4924800D02*
X11167230Y-5071800D01*
X11240730Y-5071800D02*
X11314230Y-4998300D01*
X11240730Y-4924800D01*
X11167230Y-4998300D01*
X11240730Y-5071800D01*
X11167230Y-6829800D02*
X11314230Y-6976800D01*
X11314230Y-6829800D02*
X11167230Y-6976800D01*
X11240730Y-6976800D02*
X11314230Y-6903300D01*
X11240730Y-6829800D01*
X11167230Y-6903300D01*
X11240730Y-6976800D01*
X11167230Y-8734800D02*
X11314230Y-8881800D01*
X11314230Y-8734800D02*
X11167230Y-8881800D01*
X11240730Y-8881800D02*
X11314230Y-8808300D01*
X11240730Y-8734800D01*
X11167230Y-8808300D01*
X11240730Y-8881800D01*
X11167230Y-10639800D02*
X11314230Y-10786800D01*
X11314230Y-10639800D02*
X11167230Y-10786800D01*
X11240730Y-10786800D02*
X11314230Y-10713300D01*
X11240730Y-10639800D01*
X11167230Y-10713300D01*
X11240730Y-10786800D01*
X11167230Y-12544800D02*
X11314230Y-12691800D01*
X11314230Y-12544800D02*
X11167230Y-12691800D01*
X11240730Y-12691800D02*
X11314230Y-12618300D01*
X11240730Y-12544800D01*
X11167230Y-12618300D01*
X11240730Y-12691800D01*
X11667230Y-4874800D02*
X11814230Y-5021800D01*
X11814230Y-4874800D02*
X11667230Y-5021800D01*
X11740730Y-5021800D02*
X11814230Y-4948300D01*
X11740730Y-4874800D01*
X11667230Y-4948300D01*
X11740730Y-5021800D01*
X11667230Y-6779800D02*
X11814230Y-6926800D01*
X11814230Y-6779800D02*
X11667230Y-6926800D01*
X11740730Y-6926800D02*
X11814230Y-6853300D01*
X11740730Y-6779800D01*
X11667230Y-6853300D01*
X11740730Y-6926800D01*
X11667230Y-8684800D02*
X11814230Y-8831800D01*
X11814230Y-8684800D02*
X11667230Y-8831800D01*
X11740730Y-8831800D02*
X11814230Y-8758300D01*
X11740730Y-8684800D01*
X11667230Y-8758300D01*
X11740730Y-8831800D01*
X11667230Y-10589800D02*
X11814230Y-10736800D01*
X11814230Y-10589800D02*
X11667230Y-10736800D01*
X11740730Y-10736800D02*
X11814230Y-10663300D01*
X11740730Y-10589800D01*
X11667230Y-10663300D01*
X11740730Y-10736800D01*
X11667230Y-12494800D02*
X11814230Y-12641800D01*
X11814230Y-12494800D02*
X11667230Y-12641800D01*
X11740730Y-12641800D02*
X11814230Y-12568300D01*
X11740730Y-12494800D01*
X11667230Y-12568300D01*
X11740730Y-12641800D01*
X11671230Y-4816800D02*
X11818230Y-4963800D01*
X11818230Y-4816800D02*
X11671230Y-4963800D01*
X11744730Y-4963800D02*
X11818230Y-4890300D01*
X11744730Y-4816800D01*
X11671230Y-4890300D01*
X11744730Y-4963800D01*
X11671230Y-6721800D02*
X11818230Y-6868800D01*
X11818230Y-6721800D02*
X11671230Y-6868800D01*
X11744730Y-6868800D02*
X11818230Y-6795300D01*
X11744730Y-6721800D01*
X11671230Y-6795300D01*
X11744730Y-6868800D01*
X11671230Y-8626800D02*
X11818230Y-8773800D01*
X11818230Y-8626800D02*
X11671230Y-8773800D01*
X11744730Y-8773800D02*
X11818230Y-8700300D01*
X11744730Y-8626800D01*
X11671230Y-8700300D01*
X11744730Y-8773800D01*
X11671230Y-10531800D02*
X11818230Y-10678800D01*
X11818230Y-10531800D02*
X11671230Y-10678800D01*
X11744730Y-10678800D02*
X11818230Y-10605300D01*
X11744730Y-10531800D01*
X11671230Y-10605300D01*
X11744730Y-10678800D01*
X11671230Y-12436800D02*
X11818230Y-12583800D01*
X11818230Y-12436800D02*
X11671230Y-12583800D01*
X11744730Y-12583800D02*
X11818230Y-12510300D01*
X11744730Y-12436800D01*
X11671230Y-12510300D01*
X11744730Y-12583800D01*
X12941230Y-5070800D02*
X13088230Y-5217800D01*
X13088230Y-5070800D02*
X12941230Y-5217800D01*
X13014730Y-5217800D02*
X13088230Y-5144300D01*
X13014730Y-5070800D01*
X12941230Y-5144300D01*
X13014730Y-5217800D01*
X12941230Y-6975800D02*
X13088230Y-7122800D01*
X13088230Y-6975800D02*
X12941230Y-7122800D01*
X13014730Y-7122800D02*
X13088230Y-7049300D01*
X13014730Y-6975800D01*
X12941230Y-7049300D01*
X13014730Y-7122800D01*
X12941230Y-8880800D02*
X13088230Y-9027800D01*
X13088230Y-8880800D02*
X12941230Y-9027800D01*
X13014730Y-9027800D02*
X13088230Y-8954300D01*
X13014730Y-8880800D01*
X12941230Y-8954300D01*
X13014730Y-9027800D01*
X12941230Y-10785800D02*
X13088230Y-10932800D01*
X13088230Y-10785800D02*
X12941230Y-10932800D01*
X13014730Y-10932800D02*
X13088230Y-10859300D01*
X13014730Y-10785800D01*
X12941230Y-10859300D01*
X13014730Y-10932800D01*
X12941230Y-12690800D02*
X13088230Y-12837800D01*
X13088230Y-12690800D02*
X12941230Y-12837800D01*
X13014730Y-12837800D02*
X13088230Y-12764300D01*
X13014730Y-12690800D01*
X12941230Y-12764300D01*
X13014730Y-12837800D01*
X13072230Y-4924800D02*
X13219230Y-5071800D01*
X13219230Y-4924800D02*
X13072230Y-5071800D01*
X13145730Y-5071800D02*
X13219230Y-4998300D01*
X13145730Y-4924800D01*
X13072230Y-4998300D01*
X13145730Y-5071800D01*
X13072230Y-6829800D02*
X13219230Y-6976800D01*
X13219230Y-6829800D02*
X13072230Y-6976800D01*
X13145730Y-6976800D02*
X13219230Y-6903300D01*
X13145730Y-6829800D01*
X13072230Y-6903300D01*
X13145730Y-6976800D01*
X13072230Y-8734800D02*
X13219230Y-8881800D01*
X13219230Y-8734800D02*
X13072230Y-8881800D01*
X13145730Y-8881800D02*
X13219230Y-8808300D01*
X13145730Y-8734800D01*
X13072230Y-8808300D01*
X13145730Y-8881800D01*
X13072230Y-10639800D02*
X13219230Y-10786800D01*
X13219230Y-10639800D02*
X13072230Y-10786800D01*
X13145730Y-10786800D02*
X13219230Y-10713300D01*
X13145730Y-10639800D01*
X13072230Y-10713300D01*
X13145730Y-10786800D01*
X13072230Y-12544800D02*
X13219230Y-12691800D01*
X13219230Y-12544800D02*
X13072230Y-12691800D01*
X13145730Y-12691800D02*
X13219230Y-12618300D01*
X13145730Y-12544800D01*
X13072230Y-12618300D01*
X13145730Y-12691800D01*
X13572230Y-4874800D02*
X13719230Y-5021800D01*
X13719230Y-4874800D02*
X13572230Y-5021800D01*
X13645730Y-5021800D02*
X13719230Y-4948300D01*
X13645730Y-4874800D01*
X13572230Y-4948300D01*
X13645730Y-5021800D01*
X13572230Y-6779800D02*
X13719230Y-6926800D01*
X13719230Y-6779800D02*
X13572230Y-6926800D01*
X13645730Y-6926800D02*
X13719230Y-6853300D01*
X13645730Y-6779800D01*
X13572230Y-6853300D01*
X13645730Y-6926800D01*
X13572230Y-8684800D02*
X13719230Y-8831800D01*
X13719230Y-8684800D02*
X13572230Y-8831800D01*
X13645730Y-8831800D02*
X13719230Y-8758300D01*
X13645730Y-8684800D01*
X13572230Y-8758300D01*
X13645730Y-8831800D01*
X13572230Y-10589800D02*
X13719230Y-10736800D01*
X13719230Y-10589800D02*
X13572230Y-10736800D01*
X13645730Y-10736800D02*
X13719230Y-10663300D01*
X13645730Y-10589800D01*
X13572230Y-10663300D01*
X13645730Y-10736800D01*
X13572230Y-12494800D02*
X13719230Y-12641800D01*
X13719230Y-12494800D02*
X13572230Y-12641800D01*
X13645730Y-12641800D02*
X13719230Y-12568300D01*
X13645730Y-12494800D01*
X13572230Y-12568300D01*
X13645730Y-12641800D01*
X13576230Y-4816800D02*
X13723230Y-4963800D01*
X13723230Y-4816800D02*
X13576230Y-4963800D01*
X13649730Y-4963800D02*
X13723230Y-4890300D01*
X13649730Y-4816800D01*
X13576230Y-4890300D01*
X13649730Y-4963800D01*
X13576230Y-6721800D02*
X13723230Y-6868800D01*
X13723230Y-6721800D02*
X13576230Y-6868800D01*
X13649730Y-6868800D02*
X13723230Y-6795300D01*
X13649730Y-6721800D01*
X13576230Y-6795300D01*
X13649730Y-6868800D01*
X13576230Y-8626800D02*
X13723230Y-8773800D01*
X13723230Y-8626800D02*
X13576230Y-8773800D01*
X13649730Y-8773800D02*
X13723230Y-8700300D01*
X13649730Y-8626800D01*
X13576230Y-8700300D01*
X13649730Y-8773800D01*
X13576230Y-10531800D02*
X13723230Y-10678800D01*
X13723230Y-10531800D02*
X13576230Y-10678800D01*
X13649730Y-10678800D02*
X13723230Y-10605300D01*
X13649730Y-10531800D01*
X13576230Y-10605300D01*
X13649730Y-10678800D01*
X13576230Y-12436800D02*
X13723230Y-12583800D01*
X13723230Y-12436800D02*
X13576230Y-12583800D01*
X13649730Y-12583800D02*
X13723230Y-12510300D01*
X13649730Y-12436800D01*
X13576230Y-12510300D01*
X13649730Y-12583800D01*
X14846230Y-5070800D02*
X14993230Y-5217800D01*
X14993230Y-5070800D02*
X14846230Y-5217800D01*
X14919730Y-5217800D02*
X14993230Y-5144300D01*
X14919730Y-5070800D01*
X14846230Y-5144300D01*
X14919730Y-5217800D01*
X14846230Y-6975800D02*
X14993230Y-7122800D01*
X14993230Y-6975800D02*
X14846230Y-7122800D01*
X14919730Y-7122800D02*
X14993230Y-7049300D01*
X14919730Y-6975800D01*
X14846230Y-7049300D01*
X14919730Y-7122800D01*
X14846230Y-8880800D02*
X14993230Y-9027800D01*
X14993230Y-8880800D02*
X14846230Y-9027800D01*
X14919730Y-9027800D02*
X14993230Y-8954300D01*
X14919730Y-8880800D01*
X14846230Y-8954300D01*
X14919730Y-9027800D01*
X14846230Y-10785800D02*
X14993230Y-10932800D01*
X14993230Y-10785800D02*
X14846230Y-10932800D01*
X14919730Y-10932800D02*
X14993230Y-10859300D01*
X14919730Y-10785800D01*
X14846230Y-10859300D01*
X14919730Y-10932800D01*
X14846230Y-12690800D02*
X14993230Y-12837800D01*
X14993230Y-12690800D02*
X14846230Y-12837800D01*
X14919730Y-12837800D02*
X14993230Y-12764300D01*
X14919730Y-12690800D01*
X14846230Y-12764300D01*
X14919730Y-12837800D01*
X14977230Y-4924800D02*
X15124230Y-5071800D01*
X15124230Y-4924800D02*
X14977230Y-5071800D01*
X15050730Y-5071800D02*
X15124230Y-4998300D01*
X15050730Y-4924800D01*
X14977230Y-4998300D01*
X15050730Y-5071800D01*
X14977230Y-6829800D02*
X15124230Y-6976800D01*
X15124230Y-6829800D02*
X14977230Y-6976800D01*
X15050730Y-6976800D02*
X15124230Y-6903300D01*
X15050730Y-6829800D01*
X14977230Y-6903300D01*
X15050730Y-6976800D01*
X14977230Y-8734800D02*
X15124230Y-8881800D01*
X15124230Y-8734800D02*
X14977230Y-8881800D01*
X15050730Y-8881800D02*
X15124230Y-8808300D01*
X15050730Y-8734800D01*
X14977230Y-8808300D01*
X15050730Y-8881800D01*
X14977230Y-10639800D02*
X15124230Y-10786800D01*
X15124230Y-10639800D02*
X14977230Y-10786800D01*
X15050730Y-10786800D02*
X15124230Y-10713300D01*
X15050730Y-10639800D01*
X14977230Y-10713300D01*
X15050730Y-10786800D01*
X14977230Y-12544800D02*
X15124230Y-12691800D01*
X15124230Y-12544800D02*
X14977230Y-12691800D01*
X15050730Y-12691800D02*
X15124230Y-12618300D01*
X15050730Y-12544800D01*
X14977230Y-12618300D01*
X15050730Y-12691800D01*
X15477230Y-4874800D02*
X15624230Y-5021800D01*
X15624230Y-4874800D02*
X15477230Y-5021800D01*
X15550730Y-5021800D02*
X15624230Y-4948300D01*
X15550730Y-4874800D01*
X15477230Y-4948300D01*
X15550730Y-5021800D01*
X15477230Y-6779800D02*
X15624230Y-6926800D01*
X15624230Y-6779800D02*
X15477230Y-6926800D01*
X15550730Y-6926800D02*
X15624230Y-6853300D01*
X15550730Y-6779800D01*
X15477230Y-6853300D01*
X15550730Y-6926800D01*
X15477230Y-8684800D02*
X15624230Y-8831800D01*
X15624230Y-8684800D02*
X15477230Y-8831800D01*
X15550730Y-8831800D02*
X15624230Y-8758300D01*
X15550730Y-8684800D01*
X15477230Y-8758300D01*
X15550730Y-8831800D01*
X15477230Y-10589800D02*
X15624230Y-10736800D01*
X15624230Y-10589800D02*
X15477230Y-10736800D01*
X15550730Y-10736800D02*
X15624230Y-10663300D01*
X15550730Y-10589800D01*
X15477230Y-10663300D01*
X15550730Y-10736800D01*
X15477230Y-12494800D02*
X15624230Y-12641800D01*
X15624230Y-12494800D02*
X15477230Y-12641800D01*
X15550730Y-12641800D02*
X15624230Y-12568300D01*
X15550730Y-12494800D01*
X15477230Y-12568300D01*
X15550730Y-12641800D01*
X15481230Y-4816800D02*
X15628230Y-4963800D01*
X15628230Y-4816800D02*
X15481230Y-4963800D01*
X15554730Y-4963800D02*
X15628230Y-4890300D01*
X15554730Y-4816800D01*
X15481230Y-4890300D01*
X15554730Y-4963800D01*
X15481230Y-6721800D02*
X15628230Y-6868800D01*
X15628230Y-6721800D02*
X15481230Y-6868800D01*
X15554730Y-6868800D02*
X15628230Y-6795300D01*
X15554730Y-6721800D01*
X15481230Y-6795300D01*
X15554730Y-6868800D01*
X15481230Y-8626800D02*
X15628230Y-8773800D01*
X15628230Y-8626800D02*
X15481230Y-8773800D01*
X15554730Y-8773800D02*
X15628230Y-8700300D01*
X15554730Y-8626800D01*
X15481230Y-8700300D01*
X15554730Y-8773800D01*
X15481230Y-10531800D02*
X15628230Y-10678800D01*
X15628230Y-10531800D02*
X15481230Y-10678800D01*
X15554730Y-10678800D02*
X15628230Y-10605300D01*
X15554730Y-10531800D01*
X15481230Y-10605300D01*
X15554730Y-10678800D01*
X15481230Y-12436800D02*
X15628230Y-12583800D01*
X15628230Y-12436800D02*
X15481230Y-12583800D01*
X15554730Y-12583800D02*
X15628230Y-12510300D01*
X15554730Y-12436800D01*
X15481230Y-12510300D01*
X15554730Y-12583800D01*
X16751230Y-5070800D02*
X16898230Y-5217800D01*
X16898230Y-5070800D02*
X16751230Y-5217800D01*
X16824730Y-5217800D02*
X16898230Y-5144300D01*
X16824730Y-5070800D01*
X16751230Y-5144300D01*
X16824730Y-5217800D01*
X16751230Y-6975800D02*
X16898230Y-7122800D01*
X16898230Y-6975800D02*
X16751230Y-7122800D01*
X16824730Y-7122800D02*
X16898230Y-7049300D01*
X16824730Y-6975800D01*
X16751230Y-7049300D01*
X16824730Y-7122800D01*
X16751230Y-8880800D02*
X16898230Y-9027800D01*
X16898230Y-8880800D02*
X16751230Y-9027800D01*
X16824730Y-9027800D02*
X16898230Y-8954300D01*
X16824730Y-8880800D01*
X16751230Y-8954300D01*
X16824730Y-9027800D01*
X16751230Y-10785800D02*
X16898230Y-10932800D01*
X16898230Y-10785800D02*
X16751230Y-10932800D01*
X16824730Y-10932800D02*
X16898230Y-10859300D01*
X16824730Y-10785800D01*
X16751230Y-10859300D01*
X16824730Y-10932800D01*
X16751230Y-12690800D02*
X16898230Y-12837800D01*
X16898230Y-12690800D02*
X16751230Y-12837800D01*
X16824730Y-12837800D02*
X16898230Y-12764300D01*
X16824730Y-12690800D01*
X16751230Y-12764300D01*
X16824730Y-12837800D01*
X16882230Y-4924800D02*
X17029230Y-5071800D01*
X17029230Y-4924800D02*
X16882230Y-5071800D01*
X16955730Y-5071800D02*
X17029230Y-4998300D01*
X16955730Y-4924800D01*
X16882230Y-4998300D01*
X16955730Y-5071800D01*
X16882230Y-6829800D02*
X17029230Y-6976800D01*
X17029230Y-6829800D02*
X16882230Y-6976800D01*
X16955730Y-6976800D02*
X17029230Y-6903300D01*
X16955730Y-6829800D01*
X16882230Y-6903300D01*
X16955730Y-6976800D01*
X16882230Y-8734800D02*
X17029230Y-8881800D01*
X17029230Y-8734800D02*
X16882230Y-8881800D01*
X16955730Y-8881800D02*
X17029230Y-8808300D01*
X16955730Y-8734800D01*
X16882230Y-8808300D01*
X16955730Y-8881800D01*
X16882230Y-10639800D02*
X17029230Y-10786800D01*
X17029230Y-10639800D02*
X16882230Y-10786800D01*
X16955730Y-10786800D02*
X17029230Y-10713300D01*
X16955730Y-10639800D01*
X16882230Y-10713300D01*
X16955730Y-10786800D01*
X16882230Y-12544800D02*
X17029230Y-12691800D01*
X17029230Y-12544800D02*
X16882230Y-12691800D01*
X16955730Y-12691800D02*
X17029230Y-12618300D01*
X16955730Y-12544800D01*
X16882230Y-12618300D01*
X16955730Y-12691800D01*
X17382230Y-4874800D02*
X17529230Y-5021800D01*
X17529230Y-4874800D02*
X17382230Y-5021800D01*
X17455730Y-5021800D02*
X17529230Y-4948300D01*
X17455730Y-4874800D01*
X17382230Y-4948300D01*
X17455730Y-5021800D01*
X17382230Y-6779800D02*
X17529230Y-6926800D01*
X17529230Y-6779800D02*
X17382230Y-6926800D01*
X17455730Y-6926800D02*
X17529230Y-6853300D01*
X17455730Y-6779800D01*
X17382230Y-6853300D01*
X17455730Y-6926800D01*
X17382230Y-8684800D02*
X17529230Y-8831800D01*
X17529230Y-8684800D02*
X17382230Y-8831800D01*
X17455730Y-8831800D02*
X17529230Y-8758300D01*
X17455730Y-8684800D01*
X17382230Y-8758300D01*
X17455730Y-8831800D01*
X17382230Y-10589800D02*
X17529230Y-10736800D01*
X17529230Y-10589800D02*
X17382230Y-10736800D01*
X17455730Y-10736800D02*
X17529230Y-10663300D01*
X17455730Y-10589800D01*
X17382230Y-10663300D01*
X17455730Y-10736800D01*
X17382230Y-12494800D02*
X17529230Y-12641800D01*
X17529230Y-12494800D02*
X17382230Y-12641800D01*
X17455730Y-12641800D02*
X17529230Y-12568300D01*
X17455730Y-12494800D01*
X17382230Y-12568300D01*
X17455730Y-12641800D01*
X17386230Y-4816800D02*
X17533230Y-4963800D01*
X17533230Y-4816800D02*
X17386230Y-4963800D01*
X17459730Y-4963800D02*
X17533230Y-4890300D01*
X17459730Y-4816800D01*
X17386230Y-4890300D01*
X17459730Y-4963800D01*
X17386230Y-6721800D02*
X17533230Y-6868800D01*
X17533230Y-6721800D02*
X17386230Y-6868800D01*
X17459730Y-6868800D02*
X17533230Y-6795300D01*
X17459730Y-6721800D01*
X17386230Y-6795300D01*
X17459730Y-6868800D01*
X17386230Y-8626800D02*
X17533230Y-8773800D01*
X17533230Y-8626800D02*
X17386230Y-8773800D01*
X17459730Y-8773800D02*
X17533230Y-8700300D01*
X17459730Y-8626800D01*
X17386230Y-8700300D01*
X17459730Y-8773800D01*
X17386230Y-10531800D02*
X17533230Y-10678800D01*
X17533230Y-10531800D02*
X17386230Y-10678800D01*
X17459730Y-10678800D02*
X17533230Y-10605300D01*
X17459730Y-10531800D01*
X17386230Y-10605300D01*
X17459730Y-10678800D01*
X17386230Y-12436800D02*
X17533230Y-12583800D01*
X17533230Y-12436800D02*
X17386230Y-12583800D01*
X17459730Y-12583800D02*
X17533230Y-12510300D01*
X17459730Y-12436800D01*
X17386230Y-12510300D01*
X17459730Y-12583800D01*
X18656230Y-5070800D02*
X18803230Y-5217800D01*
X18803230Y-5070800D02*
X18656230Y-5217800D01*
X18729730Y-5217800D02*
X18803230Y-5144300D01*
X18729730Y-5070800D01*
X18656230Y-5144300D01*
X18729730Y-5217800D01*
X18656230Y-6975800D02*
X18803230Y-7122800D01*
X18803230Y-6975800D02*
X18656230Y-7122800D01*
X18729730Y-7122800D02*
X18803230Y-7049300D01*
X18729730Y-6975800D01*
X18656230Y-7049300D01*
X18729730Y-7122800D01*
X18656230Y-8880800D02*
X18803230Y-9027800D01*
X18803230Y-8880800D02*
X18656230Y-9027800D01*
X18729730Y-9027800D02*
X18803230Y-8954300D01*
X18729730Y-8880800D01*
X18656230Y-8954300D01*
X18729730Y-9027800D01*
X18656230Y-10785800D02*
X18803230Y-10932800D01*
X18803230Y-10785800D02*
X18656230Y-10932800D01*
X18729730Y-10932800D02*
X18803230Y-10859300D01*
X18729730Y-10785800D01*
X18656230Y-10859300D01*
X18729730Y-10932800D01*
X18656230Y-12690800D02*
X18803230Y-12837800D01*
X18803230Y-12690800D02*
X18656230Y-12837800D01*
X18729730Y-12837800D02*
X18803230Y-12764300D01*
X18729730Y-12690800D01*
X18656230Y-12764300D01*
X18729730Y-12837800D01*
X18787230Y-4924800D02*
X18934230Y-5071800D01*
X18934230Y-4924800D02*
X18787230Y-5071800D01*
X18860730Y-5071800D02*
X18934230Y-4998300D01*
X18860730Y-4924800D01*
X18787230Y-4998300D01*
X18860730Y-5071800D01*
X18787230Y-6829800D02*
X18934230Y-6976800D01*
X18934230Y-6829800D02*
X18787230Y-6976800D01*
X18860730Y-6976800D02*
X18934230Y-6903300D01*
X18860730Y-6829800D01*
X18787230Y-6903300D01*
X18860730Y-6976800D01*
X18787230Y-8734800D02*
X18934230Y-8881800D01*
X18934230Y-8734800D02*
X18787230Y-8881800D01*
X18860730Y-8881800D02*
X18934230Y-8808300D01*
X18860730Y-8734800D01*
X18787230Y-8808300D01*
X18860730Y-8881800D01*
X18787230Y-10639800D02*
X18934230Y-10786800D01*
X18934230Y-10639800D02*
X18787230Y-10786800D01*
X18860730Y-10786800D02*
X18934230Y-10713300D01*
X18860730Y-10639800D01*
X18787230Y-10713300D01*
X18860730Y-10786800D01*
X18787230Y-12544800D02*
X18934230Y-12691800D01*
X18934230Y-12544800D02*
X18787230Y-12691800D01*
X18860730Y-12691800D02*
X18934230Y-12618300D01*
X18860730Y-12544800D01*
X18787230Y-12618300D01*
X18860730Y-12691800D01*
X19287230Y-4874800D02*
X19434230Y-5021800D01*
X19434230Y-4874800D02*
X19287230Y-5021800D01*
X19360730Y-5021800D02*
X19434230Y-4948300D01*
X19360730Y-4874800D01*
X19287230Y-4948300D01*
X19360730Y-5021800D01*
X19287230Y-6779800D02*
X19434230Y-6926800D01*
X19434230Y-6779800D02*
X19287230Y-6926800D01*
X19360730Y-6926800D02*
X19434230Y-6853300D01*
X19360730Y-6779800D01*
X19287230Y-6853300D01*
X19360730Y-6926800D01*
X19287230Y-8684800D02*
X19434230Y-8831800D01*
X19434230Y-8684800D02*
X19287230Y-8831800D01*
X19360730Y-8831800D02*
X19434230Y-8758300D01*
X19360730Y-8684800D01*
X19287230Y-8758300D01*
X19360730Y-8831800D01*
X19287230Y-10589800D02*
X19434230Y-10736800D01*
X19434230Y-10589800D02*
X19287230Y-10736800D01*
X19360730Y-10736800D02*
X19434230Y-10663300D01*
X19360730Y-10589800D01*
X19287230Y-10663300D01*
X19360730Y-10736800D01*
X19287230Y-12494800D02*
X19434230Y-12641800D01*
X19434230Y-12494800D02*
X19287230Y-12641800D01*
X19360730Y-12641800D02*
X19434230Y-12568300D01*
X19360730Y-12494800D01*
X19287230Y-12568300D01*
X19360730Y-12641800D01*
X19291230Y-4816800D02*
X19438230Y-4963800D01*
X19438230Y-4816800D02*
X19291230Y-4963800D01*
X19364730Y-4963800D02*
X19438230Y-4890300D01*
X19364730Y-4816800D01*
X19291230Y-4890300D01*
X19364730Y-4963800D01*
X19291230Y-6721800D02*
X19438230Y-6868800D01*
X19438230Y-6721800D02*
X19291230Y-6868800D01*
X19364730Y-6868800D02*
X19438230Y-6795300D01*
X19364730Y-6721800D01*
X19291230Y-6795300D01*
X19364730Y-6868800D01*
X19291230Y-8626800D02*
X19438230Y-8773800D01*
X19438230Y-8626800D02*
X19291230Y-8773800D01*
X19364730Y-8773800D02*
X19438230Y-8700300D01*
X19364730Y-8626800D01*
X19291230Y-8700300D01*
X19364730Y-8773800D01*
X19291230Y-10531800D02*
X19438230Y-10678800D01*
X19438230Y-10531800D02*
X19291230Y-10678800D01*
X19364730Y-10678800D02*
X19438230Y-10605300D01*
X19364730Y-10531800D01*
X19291230Y-10605300D01*
X19364730Y-10678800D01*
X19291230Y-12436800D02*
X19438230Y-12583800D01*
X19438230Y-12436800D02*
X19291230Y-12583800D01*
X19364730Y-12583800D02*
X19438230Y-12510300D01*
X19364730Y-12436800D01*
X19291230Y-12510300D01*
X19364730Y-12583800D01*
X20561230Y-5070800D02*
X20708230Y-5217800D01*
X20708230Y-5070800D02*
X20561230Y-5217800D01*
X20634730Y-5217800D02*
X20708230Y-5144300D01*
X20634730Y-5070800D01*
X20561230Y-5144300D01*
X20634730Y-5217800D01*
X20561230Y-6975800D02*
X20708230Y-7122800D01*
X20708230Y-6975800D02*
X20561230Y-7122800D01*
X20634730Y-7122800D02*
X20708230Y-7049300D01*
X20634730Y-6975800D01*
X20561230Y-7049300D01*
X20634730Y-7122800D01*
X20561230Y-8880800D02*
X20708230Y-9027800D01*
X20708230Y-8880800D02*
X20561230Y-9027800D01*
X20634730Y-9027800D02*
X20708230Y-8954300D01*
X20634730Y-8880800D01*
X20561230Y-8954300D01*
X20634730Y-9027800D01*
X20561230Y-10785800D02*
X20708230Y-10932800D01*
X20708230Y-10785800D02*
X20561230Y-10932800D01*
X20634730Y-10932800D02*
X20708230Y-10859300D01*
X20634730Y-10785800D01*
X20561230Y-10859300D01*
X20634730Y-10932800D01*
X20561230Y-12690800D02*
X20708230Y-12837800D01*
X20708230Y-12690800D02*
X20561230Y-12837800D01*
X20634730Y-12837800D02*
X20708230Y-12764300D01*
X20634730Y-12690800D01*
X20561230Y-12764300D01*
X20634730Y-12837800D01*
X20692230Y-4924800D02*
X20839230Y-5071800D01*
X20839230Y-4924800D02*
X20692230Y-5071800D01*
X20765730Y-5071800D02*
X20839230Y-4998300D01*
X20765730Y-4924800D01*
X20692230Y-4998300D01*
X20765730Y-5071800D01*
X20692230Y-6829800D02*
X20839230Y-6976800D01*
X20839230Y-6829800D02*
X20692230Y-6976800D01*
X20765730Y-6976800D02*
X20839230Y-6903300D01*
X20765730Y-6829800D01*
X20692230Y-6903300D01*
X20765730Y-6976800D01*
X20692230Y-8734800D02*
X20839230Y-8881800D01*
X20839230Y-8734800D02*
X20692230Y-8881800D01*
X20765730Y-8881800D02*
X20839230Y-8808300D01*
X20765730Y-8734800D01*
X20692230Y-8808300D01*
X20765730Y-8881800D01*
X20692230Y-10639800D02*
X20839230Y-10786800D01*
X20839230Y-10639800D02*
X20692230Y-10786800D01*
X20765730Y-10786800D02*
X20839230Y-10713300D01*
X20765730Y-10639800D01*
X20692230Y-10713300D01*
X20765730Y-10786800D01*
X20692230Y-12544800D02*
X20839230Y-12691800D01*
X20839230Y-12544800D02*
X20692230Y-12691800D01*
X20765730Y-12691800D02*
X20839230Y-12618300D01*
X20765730Y-12544800D01*
X20692230Y-12618300D01*
X20765730Y-12691800D01*
X21192230Y-4874800D02*
X21339230Y-5021800D01*
X21339230Y-4874800D02*
X21192230Y-5021800D01*
X21265730Y-5021800D02*
X21339230Y-4948300D01*
X21265730Y-4874800D01*
X21192230Y-4948300D01*
X21265730Y-5021800D01*
X21192230Y-6779800D02*
X21339230Y-6926800D01*
X21339230Y-6779800D02*
X21192230Y-6926800D01*
X21265730Y-6926800D02*
X21339230Y-6853300D01*
X21265730Y-6779800D01*
X21192230Y-6853300D01*
X21265730Y-6926800D01*
X21192230Y-8684800D02*
X21339230Y-8831800D01*
X21339230Y-8684800D02*
X21192230Y-8831800D01*
X21265730Y-8831800D02*
X21339230Y-8758300D01*
X21265730Y-8684800D01*
X21192230Y-8758300D01*
X21265730Y-8831800D01*
X21192230Y-10589800D02*
X21339230Y-10736800D01*
X21339230Y-10589800D02*
X21192230Y-10736800D01*
X21265730Y-10736800D02*
X21339230Y-10663300D01*
X21265730Y-10589800D01*
X21192230Y-10663300D01*
X21265730Y-10736800D01*
X21192230Y-12494800D02*
X21339230Y-12641800D01*
X21339230Y-12494800D02*
X21192230Y-12641800D01*
X21265730Y-12641800D02*
X21339230Y-12568300D01*
X21265730Y-12494800D01*
X21192230Y-12568300D01*
X21265730Y-12641800D01*
X21196230Y-4816800D02*
X21343230Y-4963800D01*
X21343230Y-4816800D02*
X21196230Y-4963800D01*
X21269730Y-4963800D02*
X21343230Y-4890300D01*
X21269730Y-4816800D01*
X21196230Y-4890300D01*
X21269730Y-4963800D01*
X21196230Y-6721800D02*
X21343230Y-6868800D01*
X21343230Y-6721800D02*
X21196230Y-6868800D01*
X21269730Y-6868800D02*
X21343230Y-6795300D01*
X21269730Y-6721800D01*
X21196230Y-6795300D01*
X21269730Y-6868800D01*
X21196230Y-8626800D02*
X21343230Y-8773800D01*
X21343230Y-8626800D02*
X21196230Y-8773800D01*
X21269730Y-8773800D02*
X21343230Y-8700300D01*
X21269730Y-8626800D01*
X21196230Y-8700300D01*
X21269730Y-8773800D01*
X21196230Y-10531800D02*
X21343230Y-10678800D01*
X21343230Y-10531800D02*
X21196230Y-10678800D01*
X21269730Y-10678800D02*
X21343230Y-10605300D01*
X21269730Y-10531800D01*
X21196230Y-10605300D01*
X21269730Y-10678800D01*
X21196230Y-12436800D02*
X21343230Y-12583800D01*
X21343230Y-12436800D02*
X21196230Y-12583800D01*
X21269730Y-12583800D02*
X21343230Y-12510300D01*
X21269730Y-12436800D01*
X21196230Y-12510300D01*
X21269730Y-12583800D01*
X22466230Y-5070800D02*
X22613230Y-5217800D01*
X22613230Y-5070800D02*
X22466230Y-5217800D01*
X22539730Y-5217800D02*
X22613230Y-5144300D01*
X22539730Y-5070800D01*
X22466230Y-5144300D01*
X22539730Y-5217800D01*
X22466230Y-6975800D02*
X22613230Y-7122800D01*
X22613230Y-6975800D02*
X22466230Y-7122800D01*
X22539730Y-7122800D02*
X22613230Y-7049300D01*
X22539730Y-6975800D01*
X22466230Y-7049300D01*
X22539730Y-7122800D01*
X22466230Y-8880800D02*
X22613230Y-9027800D01*
X22613230Y-8880800D02*
X22466230Y-9027800D01*
X22539730Y-9027800D02*
X22613230Y-8954300D01*
X22539730Y-8880800D01*
X22466230Y-8954300D01*
X22539730Y-9027800D01*
X22466230Y-10785800D02*
X22613230Y-10932800D01*
X22613230Y-10785800D02*
X22466230Y-10932800D01*
X22539730Y-10932800D02*
X22613230Y-10859300D01*
X22539730Y-10785800D01*
X22466230Y-10859300D01*
X22539730Y-10932800D01*
X22466230Y-12690800D02*
X22613230Y-12837800D01*
X22613230Y-12690800D02*
X22466230Y-12837800D01*
X22539730Y-12837800D02*
X22613230Y-12764300D01*
X22539730Y-12690800D01*
X22466230Y-12764300D01*
X22539730Y-12837800D01*
X22597230Y-4924800D02*
X22744230Y-5071800D01*
X22744230Y-4924800D02*
X22597230Y-5071800D01*
X22670730Y-5071800D02*
X22744230Y-4998300D01*
X22670730Y-4924800D01*
X22597230Y-4998300D01*
X22670730Y-5071800D01*
X22597230Y-6829800D02*
X22744230Y-6976800D01*
X22744230Y-6829800D02*
X22597230Y-6976800D01*
X22670730Y-6976800D02*
X22744230Y-6903300D01*
X22670730Y-6829800D01*
X22597230Y-6903300D01*
X22670730Y-6976800D01*
X22597230Y-8734800D02*
X22744230Y-8881800D01*
X22744230Y-8734800D02*
X22597230Y-8881800D01*
X22670730Y-8881800D02*
X22744230Y-8808300D01*
X22670730Y-8734800D01*
X22597230Y-8808300D01*
X22670730Y-8881800D01*
X22597230Y-10639800D02*
X22744230Y-10786800D01*
X22744230Y-10639800D02*
X22597230Y-10786800D01*
X22670730Y-10786800D02*
X22744230Y-10713300D01*
X22670730Y-10639800D01*
X22597230Y-10713300D01*
X22670730Y-10786800D01*
X22597230Y-12544800D02*
X22744230Y-12691800D01*
X22744230Y-12544800D02*
X22597230Y-12691800D01*
X22670730Y-12691800D02*
X22744230Y-12618300D01*
X22670730Y-12544800D01*
X22597230Y-12618300D01*
X22670730Y-12691800D01*
X23097230Y-4874800D02*
X23244230Y-5021800D01*
X23244230Y-4874800D02*
X23097230Y-5021800D01*
X23170730Y-5021800D02*
X23244230Y-4948300D01*
X23170730Y-4874800D01*
X23097230Y-4948300D01*
X23170730Y-5021800D01*
X23097230Y-6779800D02*
X23244230Y-6926800D01*
X23244230Y-6779800D02*
X23097230Y-6926800D01*
X23170730Y-6926800D02*
X23244230Y-6853300D01*
X23170730Y-6779800D01*
X23097230Y-6853300D01*
X23170730Y-6926800D01*
X23097230Y-8684800D02*
X23244230Y-8831800D01*
X23244230Y-8684800D02*
X23097230Y-8831800D01*
X23170730Y-8831800D02*
X23244230Y-8758300D01*
X23170730Y-8684800D01*
X23097230Y-8758300D01*
X23170730Y-8831800D01*
X23097230Y-10589800D02*
X23244230Y-10736800D01*
X23244230Y-10589800D02*
X23097230Y-10736800D01*
X23170730Y-10736800D02*
X23244230Y-10663300D01*
X23170730Y-10589800D01*
X23097230Y-10663300D01*
X23170730Y-10736800D01*
X23097230Y-12494800D02*
X23244230Y-12641800D01*
X23244230Y-12494800D02*
X23097230Y-12641800D01*
X23170730Y-12641800D02*
X23244230Y-12568300D01*
X23170730Y-12494800D01*
X23097230Y-12568300D01*
X23170730Y-12641800D01*
X23101230Y-4816800D02*
X23248230Y-4963800D01*
X23248230Y-4816800D02*
X23101230Y-4963800D01*
X23174730Y-4963800D02*
X23248230Y-4890300D01*
X23174730Y-4816800D01*
X23101230Y-4890300D01*
X23174730Y-4963800D01*
X23101230Y-6721800D02*
X23248230Y-6868800D01*
X23248230Y-6721800D02*
X23101230Y-6868800D01*
X23174730Y-6868800D02*
X23248230Y-6795300D01*
X23174730Y-6721800D01*
X23101230Y-6795300D01*
X23174730Y-6868800D01*
X23101230Y-8626800D02*
X23248230Y-8773800D01*
X23248230Y-8626800D02*
X23101230Y-8773800D01*
X23174730Y-8773800D02*
X23248230Y-8700300D01*
X23174730Y-8626800D01*
X23101230Y-8700300D01*
X23174730Y-8773800D01*
X23101230Y-10531800D02*
X23248230Y-10678800D01*
X23248230Y-10531800D02*
X23101230Y-10678800D01*
X23174730Y-10678800D02*
X23248230Y-10605300D01*
X23174730Y-10531800D01*
X23101230Y-10605300D01*
X23174730Y-10678800D01*
X23101230Y-12436800D02*
X23248230Y-12583800D01*
X23248230Y-12436800D02*
X23101230Y-12583800D01*
X23174730Y-12583800D02*
X23248230Y-12510300D01*
X23174730Y-12436800D01*
X23101230Y-12510300D01*
X23174730Y-12583800D01*
X24366730Y-8880800D02*
X24513730Y-9027800D01*
X24513730Y-8880800D02*
X24366730Y-9027800D01*
X24440230Y-9027800D02*
X24513730Y-8954300D01*
X24440230Y-8880800D01*
X24366730Y-8954300D01*
X24440230Y-9027800D01*
X24369730Y-10785800D02*
X24516730Y-10932800D01*
X24516730Y-10785800D02*
X24369730Y-10932800D01*
X24443230Y-10932800D02*
X24516730Y-10859300D01*
X24443230Y-10785800D01*
X24369730Y-10859300D01*
X24443230Y-10932800D01*
X24371230Y-6975800D02*
X24518230Y-7122800D01*
X24518230Y-6975800D02*
X24371230Y-7122800D01*
X24444730Y-7122800D02*
X24518230Y-7049300D01*
X24444730Y-6975800D01*
X24371230Y-7049300D01*
X24444730Y-7122800D01*
X24371230Y-12690800D02*
X24518230Y-12837800D01*
X24518230Y-12690800D02*
X24371230Y-12837800D01*
X24444730Y-12837800D02*
X24518230Y-12764300D01*
X24444730Y-12690800D01*
X24371230Y-12764300D01*
X24444730Y-12837800D01*
X24372730Y-9832800D02*
X24519730Y-9979800D01*
X24519730Y-9832800D02*
X24372730Y-9979800D01*
X24446230Y-9979800D02*
X24519730Y-9906300D01*
X24446230Y-9832800D01*
X24372730Y-9906300D01*
X24446230Y-9979800D01*
X24497730Y-8734800D02*
X24644730Y-8881800D01*
X24644730Y-8734800D02*
X24497730Y-8881800D01*
X24571230Y-8881800D02*
X24644730Y-8808300D01*
X24571230Y-8734800D01*
X24497730Y-8808300D01*
X24571230Y-8881800D01*
X24500730Y-10639800D02*
X24647730Y-10786800D01*
X24647730Y-10639800D02*
X24500730Y-10786800D01*
X24574230Y-10786800D02*
X24647730Y-10713300D01*
X24574230Y-10639800D01*
X24500730Y-10713300D01*
X24574230Y-10786800D01*
X24502230Y-6829800D02*
X24649230Y-6976800D01*
X24649230Y-6829800D02*
X24502230Y-6976800D01*
X24575730Y-6976800D02*
X24649230Y-6903300D01*
X24575730Y-6829800D01*
X24502230Y-6903300D01*
X24575730Y-6976800D01*
X24502230Y-12544800D02*
X24649230Y-12691800D01*
X24649230Y-12544800D02*
X24502230Y-12691800D01*
X24575730Y-12691800D02*
X24649230Y-12618300D01*
X24575730Y-12544800D01*
X24502230Y-12618300D01*
X24575730Y-12691800D01*
X24503730Y-9686800D02*
X24650730Y-9833800D01*
X24650730Y-9686800D02*
X24503730Y-9833800D01*
X24577230Y-9833800D02*
X24650730Y-9760300D01*
X24577230Y-9686800D01*
X24503730Y-9760300D01*
X24577230Y-9833800D01*
X24997730Y-8684800D02*
X25144730Y-8831800D01*
X25144730Y-8684800D02*
X24997730Y-8831800D01*
X25071230Y-8831800D02*
X25144730Y-8758300D01*
X25071230Y-8684800D01*
X24997730Y-8758300D01*
X25071230Y-8831800D01*
X25000730Y-10589800D02*
X25147730Y-10736800D01*
X25147730Y-10589800D02*
X25000730Y-10736800D01*
X25074230Y-10736800D02*
X25147730Y-10663300D01*
X25074230Y-10589800D01*
X25000730Y-10663300D01*
X25074230Y-10736800D01*
X25001730Y-8626800D02*
X25148730Y-8773800D01*
X25148730Y-8626800D02*
X25001730Y-8773800D01*
X25075230Y-8773800D02*
X25148730Y-8700300D01*
X25075230Y-8626800D01*
X25001730Y-8700300D01*
X25075230Y-8773800D01*
X25002230Y-6779800D02*
X25149230Y-6926800D01*
X25149230Y-6779800D02*
X25002230Y-6926800D01*
X25075730Y-6926800D02*
X25149230Y-6853300D01*
X25075730Y-6779800D01*
X25002230Y-6853300D01*
X25075730Y-6926800D01*
X25002230Y-12494800D02*
X25149230Y-12641800D01*
X25149230Y-12494800D02*
X25002230Y-12641800D01*
X25075730Y-12641800D02*
X25149230Y-12568300D01*
X25075730Y-12494800D01*
X25002230Y-12568300D01*
X25075730Y-12641800D01*
X25003730Y-9636800D02*
X25150730Y-9783800D01*
X25150730Y-9636800D02*
X25003730Y-9783800D01*
X25077230Y-9783800D02*
X25150730Y-9710300D01*
X25077230Y-9636800D01*
X25003730Y-9710300D01*
X25077230Y-9783800D01*
X25004730Y-10531800D02*
X25151730Y-10678800D01*
X25151730Y-10531800D02*
X25004730Y-10678800D01*
X25078230Y-10678800D02*
X25151730Y-10605300D01*
X25078230Y-10531800D01*
X25004730Y-10605300D01*
X25078230Y-10678800D01*
X25006230Y-6721800D02*
X25153230Y-6868800D01*
X25153230Y-6721800D02*
X25006230Y-6868800D01*
X25079730Y-6868800D02*
X25153230Y-6795300D01*
X25079730Y-6721800D01*
X25006230Y-6795300D01*
X25079730Y-6868800D01*
X25006230Y-12436800D02*
X25153230Y-12583800D01*
X25153230Y-12436800D02*
X25006230Y-12583800D01*
X25079730Y-12583800D02*
X25153230Y-12510300D01*
X25079730Y-12436800D01*
X25006230Y-12510300D01*
X25079730Y-12583800D01*
X25007730Y-9578800D02*
X25154730Y-9725800D01*
X25154730Y-9578800D02*
X25007730Y-9725800D01*
X25081230Y-9725800D02*
X25154730Y-9652300D01*
X25081230Y-9578800D01*
X25007730Y-9652300D01*
X25081230Y-9725800D01*
D20*
X24827500Y-4762000D02*
X24827500Y-4912000D01*
X24752500Y-4837000D02*
X24902500Y-4837000D01*
X24902500Y-4837000D02*
G75*
G03*
X24902500Y-4837000I-75000J0D01*
G01*
D11*
X24892500Y-4772000D02*
X24762500Y-4772000D01*
X24892500Y-4902000D02*
X24762500Y-4902000D01*
X24762500Y-4772000D02*
G75*
G03*
X24762500Y-4902000I0J-65000D01*
G01*
X24892500Y-4902000D02*
G75*
G03*
X24892500Y-4772000I0J65000D01*
G01*
D20*
X24827500Y-5882000D02*
X24827500Y-6032000D01*
X24752500Y-5957000D02*
X24902500Y-5957000D01*
X24902500Y-5957000D02*
G75*
G03*
X24902500Y-5957000I-75000J0D01*
G01*
D11*
X24892500Y-5892000D02*
X24762500Y-5892000D01*
X24892500Y-6022000D02*
X24762500Y-6022000D01*
X24762500Y-5892000D02*
G75*
G03*
X24762500Y-6022000I0J-65000D01*
G01*
X24892500Y-6022000D02*
G75*
G03*
X24892500Y-5892000I0J65000D01*
G01*
X7931287Y-14988808D02*
X7931287Y-14788808D01*
X7978906Y-14788808D01*
X8007477Y-14798332D01*
X8026525Y-14817380D01*
X8036049Y-14836427D01*
X8045572Y-14874523D01*
X8045572Y-14903094D01*
X8036049Y-14941189D01*
X8026525Y-14960237D01*
X8007477Y-14979285D01*
X7978906Y-14988808D01*
X7931287Y-14988808D01*
X8131287Y-14988808D02*
X8131287Y-14855475D01*
X8131287Y-14893570D02*
X8140810Y-14874523D01*
X8150334Y-14864999D01*
X8169382Y-14855475D01*
X8188430Y-14855475D01*
X8255096Y-14988808D02*
X8255096Y-14855475D01*
X8255096Y-14788808D02*
X8245572Y-14798332D01*
X8255096Y-14807856D01*
X8264620Y-14798332D01*
X8255096Y-14788808D01*
X8255096Y-14807856D01*
X8378906Y-14988808D02*
X8359858Y-14979285D01*
X8350334Y-14960237D01*
X8350334Y-14788808D01*
X8483668Y-14988808D02*
X8464620Y-14979285D01*
X8455096Y-14960237D01*
X8455096Y-14788808D01*
X8712239Y-14988808D02*
X8712239Y-14788808D01*
X8778906Y-14931666D01*
X8845572Y-14788808D01*
X8845572Y-14988808D01*
X9026525Y-14988808D02*
X9026525Y-14884046D01*
X9017001Y-14864999D01*
X8997953Y-14855475D01*
X8959858Y-14855475D01*
X8940811Y-14864999D01*
X9026525Y-14979285D02*
X9007477Y-14988808D01*
X8959858Y-14988808D01*
X8940811Y-14979285D01*
X8931287Y-14960237D01*
X8931287Y-14941189D01*
X8940811Y-14922142D01*
X8959858Y-14912618D01*
X9007477Y-14912618D01*
X9026525Y-14903094D01*
X9121763Y-14855475D02*
X9121763Y-15055475D01*
X9121763Y-14864999D02*
X9140811Y-14855475D01*
X9178906Y-14855475D01*
X9197953Y-14864999D01*
X9207477Y-14874523D01*
X9217001Y-14893570D01*
X9217001Y-14950713D01*
X9207477Y-14969761D01*
X9197953Y-14979285D01*
X9178906Y-14988808D01*
X9140811Y-14988808D01*
X9121763Y-14979285D01*
X9302715Y-14969761D02*
X9312239Y-14979285D01*
X9302715Y-14988808D01*
X9293192Y-14979285D01*
X9302715Y-14969761D01*
X9302715Y-14988808D01*
X9302715Y-14864999D02*
X9312239Y-14874523D01*
X9302715Y-14884046D01*
X9293192Y-14874523D01*
X9302715Y-14864999D01*
X9302715Y-14884046D01*
D12*
X7633668Y-15298332D02*
X7673668Y-15338332D01*
X7673668Y-15298332D02*
X7633668Y-15338332D01*
D11*
X7969382Y-15208808D02*
X7988430Y-15208808D01*
X8007477Y-15218332D01*
X8017001Y-15227856D01*
X8026525Y-15246904D01*
X8036049Y-15284999D01*
X8036049Y-15332618D01*
X8026525Y-15370713D01*
X8017001Y-15389761D01*
X8007477Y-15399285D01*
X7988430Y-15408808D01*
X7969382Y-15408808D01*
X7950334Y-15399285D01*
X7940810Y-15389761D01*
X7931287Y-15370713D01*
X7921763Y-15332618D01*
X7921763Y-15284999D01*
X7931287Y-15246904D01*
X7940810Y-15227856D01*
X7950334Y-15218332D01*
X7969382Y-15208808D01*
X8121763Y-15389761D02*
X8131287Y-15399285D01*
X8121763Y-15408808D01*
X8112239Y-15399285D01*
X8121763Y-15389761D01*
X8121763Y-15408808D01*
X8302715Y-15275475D02*
X8302715Y-15408808D01*
X8255096Y-15199285D02*
X8207477Y-15342142D01*
X8331287Y-15342142D01*
X8445572Y-15208808D02*
X8464620Y-15208808D01*
X8483668Y-15218332D01*
X8493192Y-15227856D01*
X8502715Y-15246904D01*
X8512239Y-15284999D01*
X8512239Y-15332618D01*
X8502715Y-15370713D01*
X8493192Y-15389761D01*
X8483668Y-15399285D01*
X8464620Y-15408808D01*
X8445572Y-15408808D01*
X8426525Y-15399285D01*
X8417001Y-15389761D01*
X8407477Y-15370713D01*
X8397953Y-15332618D01*
X8397953Y-15284999D01*
X8407477Y-15246904D01*
X8417001Y-15227856D01*
X8426525Y-15218332D01*
X8445572Y-15208808D01*
X8636049Y-15208808D02*
X8655096Y-15208808D01*
X8674144Y-15218332D01*
X8683668Y-15227856D01*
X8693192Y-15246904D01*
X8702715Y-15284999D01*
X8702715Y-15332618D01*
X8693192Y-15370713D01*
X8683668Y-15389761D01*
X8674144Y-15399285D01*
X8655096Y-15408808D01*
X8636049Y-15408808D01*
X8617001Y-15399285D01*
X8607477Y-15389761D01*
X8597953Y-15370713D01*
X8588430Y-15332618D01*
X8588430Y-15284999D01*
X8597953Y-15246904D01*
X8607477Y-15227856D01*
X8617001Y-15218332D01*
X8636049Y-15208808D01*
X8788430Y-15408808D02*
X8788430Y-15275475D01*
X8788430Y-15294523D02*
X8797953Y-15284999D01*
X8817001Y-15275475D01*
X8845572Y-15275475D01*
X8864620Y-15284999D01*
X8874144Y-15304046D01*
X8874144Y-15408808D01*
X8874144Y-15304046D02*
X8883668Y-15284999D01*
X8902715Y-15275475D01*
X8931287Y-15275475D01*
X8950334Y-15284999D01*
X8959858Y-15304046D01*
X8959858Y-15408808D01*
X9055096Y-15408808D02*
X9055096Y-15275475D01*
X9055096Y-15294523D02*
X9064620Y-15284999D01*
X9083668Y-15275475D01*
X9112239Y-15275475D01*
X9131287Y-15284999D01*
X9140811Y-15304046D01*
X9140811Y-15408808D01*
X9140811Y-15304046D02*
X9150334Y-15284999D01*
X9169382Y-15275475D01*
X9197953Y-15275475D01*
X9217001Y-15284999D01*
X9226525Y-15304046D01*
X9226525Y-15408808D01*
X9617001Y-15199285D02*
X9445572Y-15456427D01*
X9874144Y-15208808D02*
X9893192Y-15208808D01*
X9912239Y-15218332D01*
X9921763Y-15227856D01*
X9931287Y-15246904D01*
X9940811Y-15284999D01*
X9940811Y-15332618D01*
X9931287Y-15370713D01*
X9921763Y-15389761D01*
X9912239Y-15399285D01*
X9893192Y-15408808D01*
X9874144Y-15408808D01*
X9855096Y-15399285D01*
X9845572Y-15389761D01*
X9836049Y-15370713D01*
X9826525Y-15332618D01*
X9826525Y-15284999D01*
X9836049Y-15246904D01*
X9845572Y-15227856D01*
X9855096Y-15218332D01*
X9874144Y-15208808D01*
X10026525Y-15389761D02*
X10036049Y-15399285D01*
X10026525Y-15408808D01*
X10017001Y-15399285D01*
X10026525Y-15389761D01*
X10026525Y-15408808D01*
X10159858Y-15208808D02*
X10178906Y-15208808D01*
X10197953Y-15218332D01*
X10207477Y-15227856D01*
X10217001Y-15246904D01*
X10226525Y-15284999D01*
X10226525Y-15332618D01*
X10217001Y-15370713D01*
X10207477Y-15389761D01*
X10197953Y-15399285D01*
X10178906Y-15408808D01*
X10159858Y-15408808D01*
X10140811Y-15399285D01*
X10131287Y-15389761D01*
X10121763Y-15370713D01*
X10112239Y-15332618D01*
X10112239Y-15284999D01*
X10121763Y-15246904D01*
X10131287Y-15227856D01*
X10140811Y-15218332D01*
X10159858Y-15208808D01*
X10417001Y-15408808D02*
X10302715Y-15408808D01*
X10359858Y-15408808D02*
X10359858Y-15208808D01*
X10340811Y-15237380D01*
X10321763Y-15256427D01*
X10302715Y-15265951D01*
X10597953Y-15208808D02*
X10502715Y-15208808D01*
X10493192Y-15304046D01*
X10502715Y-15294523D01*
X10521763Y-15284999D01*
X10569382Y-15284999D01*
X10588430Y-15294523D01*
X10597953Y-15304046D01*
X10607477Y-15323094D01*
X10607477Y-15370713D01*
X10597953Y-15389761D01*
X10588430Y-15399285D01*
X10569382Y-15408808D01*
X10521763Y-15408808D01*
X10502715Y-15399285D01*
X10493192Y-15389761D01*
X10674144Y-15208808D02*
X10807477Y-15208808D01*
X10721763Y-15408808D01*
X10874144Y-15208808D02*
X10874144Y-15246904D01*
X10950334Y-15208808D02*
X10950334Y-15246904D01*
X11245572Y-15484999D02*
X11236049Y-15475475D01*
X11217001Y-15446904D01*
X11207477Y-15427856D01*
X11197953Y-15399285D01*
X11188430Y-15351666D01*
X11188430Y-15313570D01*
X11197953Y-15265951D01*
X11207477Y-15237380D01*
X11217001Y-15218332D01*
X11236049Y-15189761D01*
X11245572Y-15180237D01*
X11312239Y-15227856D02*
X11321763Y-15218332D01*
X11340810Y-15208808D01*
X11388430Y-15208808D01*
X11407477Y-15218332D01*
X11417001Y-15227856D01*
X11426525Y-15246904D01*
X11426525Y-15265951D01*
X11417001Y-15294523D01*
X11302715Y-15408808D01*
X11426525Y-15408808D01*
X11540810Y-15294523D02*
X11521763Y-15284999D01*
X11512239Y-15275475D01*
X11502715Y-15256427D01*
X11502715Y-15246904D01*
X11512239Y-15227856D01*
X11521763Y-15218332D01*
X11540810Y-15208808D01*
X11578906Y-15208808D01*
X11597953Y-15218332D01*
X11607477Y-15227856D01*
X11617001Y-15246904D01*
X11617001Y-15256427D01*
X11607477Y-15275475D01*
X11597953Y-15284999D01*
X11578906Y-15294523D01*
X11540810Y-15294523D01*
X11521763Y-15304046D01*
X11512239Y-15313570D01*
X11502715Y-15332618D01*
X11502715Y-15370713D01*
X11512239Y-15389761D01*
X11521763Y-15399285D01*
X11540810Y-15408808D01*
X11578906Y-15408808D01*
X11597953Y-15399285D01*
X11607477Y-15389761D01*
X11617001Y-15370713D01*
X11617001Y-15332618D01*
X11607477Y-15313570D01*
X11597953Y-15304046D01*
X11578906Y-15294523D01*
X11855096Y-15408808D02*
X11855096Y-15208808D01*
X11940810Y-15408808D02*
X11940810Y-15304046D01*
X11931287Y-15284999D01*
X11912239Y-15275475D01*
X11883668Y-15275475D01*
X11864620Y-15284999D01*
X11855096Y-15294523D01*
X12064620Y-15408808D02*
X12045572Y-15399285D01*
X12036049Y-15389761D01*
X12026525Y-15370713D01*
X12026525Y-15313570D01*
X12036049Y-15294523D01*
X12045572Y-15284999D01*
X12064620Y-15275475D01*
X12093191Y-15275475D01*
X12112239Y-15284999D01*
X12121763Y-15294523D01*
X12131287Y-15313570D01*
X12131287Y-15370713D01*
X12121763Y-15389761D01*
X12112239Y-15399285D01*
X12093191Y-15408808D01*
X12064620Y-15408808D01*
X12245572Y-15408808D02*
X12226525Y-15399285D01*
X12217001Y-15380237D01*
X12217001Y-15208808D01*
X12397953Y-15399285D02*
X12378906Y-15408808D01*
X12340810Y-15408808D01*
X12321763Y-15399285D01*
X12312239Y-15380237D01*
X12312239Y-15304046D01*
X12321763Y-15284999D01*
X12340810Y-15275475D01*
X12378906Y-15275475D01*
X12397953Y-15284999D01*
X12407477Y-15304046D01*
X12407477Y-15323094D01*
X12312239Y-15342142D01*
X12483668Y-15399285D02*
X12502715Y-15408808D01*
X12540810Y-15408808D01*
X12559858Y-15399285D01*
X12569382Y-15380237D01*
X12569382Y-15370713D01*
X12559858Y-15351666D01*
X12540810Y-15342142D01*
X12512239Y-15342142D01*
X12493191Y-15332618D01*
X12483668Y-15313570D01*
X12483668Y-15304046D01*
X12493191Y-15284999D01*
X12512239Y-15275475D01*
X12540810Y-15275475D01*
X12559858Y-15284999D01*
X12636049Y-15484999D02*
X12645572Y-15475475D01*
X12664620Y-15446904D01*
X12674144Y-15427856D01*
X12683668Y-15399285D01*
X12693191Y-15351666D01*
X12693191Y-15313570D01*
X12683668Y-15265951D01*
X12674144Y-15237380D01*
X12664620Y-15218332D01*
X12645572Y-15189761D01*
X12636049Y-15180237D01*
D13*
X7673668Y-15582332D02*
G75*
G03*
X7673668Y-15582332I-40000J0D01*
G01*
D11*
X7969382Y-15472808D02*
X7988430Y-15472808D01*
X8007477Y-15482332D01*
X8017001Y-15491856D01*
X8026525Y-15510904D01*
X8036049Y-15548999D01*
X8036049Y-15596618D01*
X8026525Y-15634713D01*
X8017001Y-15653761D01*
X8007477Y-15663285D01*
X7988430Y-15672808D01*
X7969382Y-15672808D01*
X7950334Y-15663285D01*
X7940810Y-15653761D01*
X7931287Y-15634713D01*
X7921763Y-15596618D01*
X7921763Y-15548999D01*
X7931287Y-15510904D01*
X7940810Y-15491856D01*
X7950334Y-15482332D01*
X7969382Y-15472808D01*
X8121763Y-15653761D02*
X8131287Y-15663285D01*
X8121763Y-15672808D01*
X8112239Y-15663285D01*
X8121763Y-15653761D01*
X8121763Y-15672808D01*
X8245572Y-15558523D02*
X8226525Y-15548999D01*
X8217001Y-15539475D01*
X8207477Y-15520427D01*
X8207477Y-15510904D01*
X8217001Y-15491856D01*
X8226525Y-15482332D01*
X8245572Y-15472808D01*
X8283668Y-15472808D01*
X8302715Y-15482332D01*
X8312239Y-15491856D01*
X8321763Y-15510904D01*
X8321763Y-15520427D01*
X8312239Y-15539475D01*
X8302715Y-15548999D01*
X8283668Y-15558523D01*
X8245572Y-15558523D01*
X8226525Y-15568046D01*
X8217001Y-15577570D01*
X8207477Y-15596618D01*
X8207477Y-15634713D01*
X8217001Y-15653761D01*
X8226525Y-15663285D01*
X8245572Y-15672808D01*
X8283668Y-15672808D01*
X8302715Y-15663285D01*
X8312239Y-15653761D01*
X8321763Y-15634713D01*
X8321763Y-15596618D01*
X8312239Y-15577570D01*
X8302715Y-15568046D01*
X8283668Y-15558523D01*
X8445572Y-15472808D02*
X8464620Y-15472808D01*
X8483668Y-15482332D01*
X8493192Y-15491856D01*
X8502715Y-15510904D01*
X8512239Y-15548999D01*
X8512239Y-15596618D01*
X8502715Y-15634713D01*
X8493192Y-15653761D01*
X8483668Y-15663285D01*
X8464620Y-15672808D01*
X8445572Y-15672808D01*
X8426525Y-15663285D01*
X8417001Y-15653761D01*
X8407477Y-15634713D01*
X8397953Y-15596618D01*
X8397953Y-15548999D01*
X8407477Y-15510904D01*
X8417001Y-15491856D01*
X8426525Y-15482332D01*
X8445572Y-15472808D01*
X8636049Y-15472808D02*
X8655096Y-15472808D01*
X8674144Y-15482332D01*
X8683668Y-15491856D01*
X8693192Y-15510904D01*
X8702715Y-15548999D01*
X8702715Y-15596618D01*
X8693192Y-15634713D01*
X8683668Y-15653761D01*
X8674144Y-15663285D01*
X8655096Y-15672808D01*
X8636049Y-15672808D01*
X8617001Y-15663285D01*
X8607477Y-15653761D01*
X8597953Y-15634713D01*
X8588430Y-15596618D01*
X8588430Y-15548999D01*
X8597953Y-15510904D01*
X8607477Y-15491856D01*
X8617001Y-15482332D01*
X8636049Y-15472808D01*
X8788430Y-15672808D02*
X8788430Y-15539475D01*
X8788430Y-15558523D02*
X8797953Y-15548999D01*
X8817001Y-15539475D01*
X8845572Y-15539475D01*
X8864620Y-15548999D01*
X8874144Y-15568046D01*
X8874144Y-15672808D01*
X8874144Y-15568046D02*
X8883668Y-15548999D01*
X8902715Y-15539475D01*
X8931287Y-15539475D01*
X8950334Y-15548999D01*
X8959858Y-15568046D01*
X8959858Y-15672808D01*
X9055096Y-15672808D02*
X9055096Y-15539475D01*
X9055096Y-15558523D02*
X9064620Y-15548999D01*
X9083668Y-15539475D01*
X9112239Y-15539475D01*
X9131287Y-15548999D01*
X9140811Y-15568046D01*
X9140811Y-15672808D01*
X9140811Y-15568046D02*
X9150334Y-15548999D01*
X9169382Y-15539475D01*
X9197953Y-15539475D01*
X9217001Y-15548999D01*
X9226525Y-15568046D01*
X9226525Y-15672808D01*
X9617001Y-15463285D02*
X9445572Y-15720427D01*
X9874144Y-15472808D02*
X9893192Y-15472808D01*
X9912239Y-15482332D01*
X9921763Y-15491856D01*
X9931287Y-15510904D01*
X9940811Y-15548999D01*
X9940811Y-15596618D01*
X9931287Y-15634713D01*
X9921763Y-15653761D01*
X9912239Y-15663285D01*
X9893192Y-15672808D01*
X9874144Y-15672808D01*
X9855096Y-15663285D01*
X9845572Y-15653761D01*
X9836049Y-15634713D01*
X9826525Y-15596618D01*
X9826525Y-15548999D01*
X9836049Y-15510904D01*
X9845572Y-15491856D01*
X9855096Y-15482332D01*
X9874144Y-15472808D01*
X10026525Y-15653761D02*
X10036049Y-15663285D01*
X10026525Y-15672808D01*
X10017001Y-15663285D01*
X10026525Y-15653761D01*
X10026525Y-15672808D01*
X10159858Y-15472808D02*
X10178906Y-15472808D01*
X10197953Y-15482332D01*
X10207477Y-15491856D01*
X10217001Y-15510904D01*
X10226525Y-15548999D01*
X10226525Y-15596618D01*
X10217001Y-15634713D01*
X10207477Y-15653761D01*
X10197953Y-15663285D01*
X10178906Y-15672808D01*
X10159858Y-15672808D01*
X10140811Y-15663285D01*
X10131287Y-15653761D01*
X10121763Y-15634713D01*
X10112239Y-15596618D01*
X10112239Y-15548999D01*
X10121763Y-15510904D01*
X10131287Y-15491856D01*
X10140811Y-15482332D01*
X10159858Y-15472808D01*
X10293192Y-15472808D02*
X10417001Y-15472808D01*
X10350334Y-15548999D01*
X10378906Y-15548999D01*
X10397953Y-15558523D01*
X10407477Y-15568046D01*
X10417001Y-15587094D01*
X10417001Y-15634713D01*
X10407477Y-15653761D01*
X10397953Y-15663285D01*
X10378906Y-15672808D01*
X10321763Y-15672808D01*
X10302715Y-15663285D01*
X10293192Y-15653761D01*
X10607477Y-15672808D02*
X10493192Y-15672808D01*
X10550334Y-15672808D02*
X10550334Y-15472808D01*
X10531287Y-15501380D01*
X10512239Y-15520427D01*
X10493192Y-15529951D01*
X10788430Y-15472808D02*
X10693192Y-15472808D01*
X10683668Y-15568046D01*
X10693192Y-15558523D01*
X10712239Y-15548999D01*
X10759858Y-15548999D01*
X10778906Y-15558523D01*
X10788430Y-15568046D01*
X10797953Y-15587094D01*
X10797953Y-15634713D01*
X10788430Y-15653761D01*
X10778906Y-15663285D01*
X10759858Y-15672808D01*
X10712239Y-15672808D01*
X10693192Y-15663285D01*
X10683668Y-15653761D01*
X10874144Y-15472808D02*
X10874144Y-15510904D01*
X10950334Y-15472808D02*
X10950334Y-15510904D01*
X11245572Y-15748999D02*
X11236049Y-15739475D01*
X11217001Y-15710904D01*
X11207477Y-15691856D01*
X11197953Y-15663285D01*
X11188430Y-15615666D01*
X11188430Y-15577570D01*
X11197953Y-15529951D01*
X11207477Y-15501380D01*
X11217001Y-15482332D01*
X11236049Y-15453761D01*
X11245572Y-15444237D01*
X11417001Y-15472808D02*
X11321763Y-15472808D01*
X11312239Y-15568046D01*
X11321763Y-15558523D01*
X11340810Y-15548999D01*
X11388430Y-15548999D01*
X11407477Y-15558523D01*
X11417001Y-15568046D01*
X11426525Y-15587094D01*
X11426525Y-15634713D01*
X11417001Y-15653761D01*
X11407477Y-15663285D01*
X11388430Y-15672808D01*
X11340810Y-15672808D01*
X11321763Y-15663285D01*
X11312239Y-15653761D01*
X11664620Y-15672808D02*
X11664620Y-15472808D01*
X11750334Y-15672808D02*
X11750334Y-15568046D01*
X11740810Y-15548999D01*
X11721763Y-15539475D01*
X11693191Y-15539475D01*
X11674144Y-15548999D01*
X11664620Y-15558523D01*
X11874144Y-15672808D02*
X11855096Y-15663285D01*
X11845572Y-15653761D01*
X11836049Y-15634713D01*
X11836049Y-15577570D01*
X11845572Y-15558523D01*
X11855096Y-15548999D01*
X11874144Y-15539475D01*
X11902715Y-15539475D01*
X11921763Y-15548999D01*
X11931287Y-15558523D01*
X11940810Y-15577570D01*
X11940810Y-15634713D01*
X11931287Y-15653761D01*
X11921763Y-15663285D01*
X11902715Y-15672808D01*
X11874144Y-15672808D01*
X12055096Y-15672808D02*
X12036049Y-15663285D01*
X12026525Y-15644237D01*
X12026525Y-15472808D01*
X12207477Y-15663285D02*
X12188430Y-15672808D01*
X12150334Y-15672808D01*
X12131287Y-15663285D01*
X12121763Y-15644237D01*
X12121763Y-15568046D01*
X12131287Y-15548999D01*
X12150334Y-15539475D01*
X12188430Y-15539475D01*
X12207477Y-15548999D01*
X12217001Y-15568046D01*
X12217001Y-15587094D01*
X12121763Y-15606142D01*
X12293191Y-15663285D02*
X12312239Y-15672808D01*
X12350334Y-15672808D01*
X12369382Y-15663285D01*
X12378906Y-15644237D01*
X12378906Y-15634713D01*
X12369382Y-15615666D01*
X12350334Y-15606142D01*
X12321763Y-15606142D01*
X12302715Y-15596618D01*
X12293191Y-15577570D01*
X12293191Y-15568046D01*
X12302715Y-15548999D01*
X12321763Y-15539475D01*
X12350334Y-15539475D01*
X12369382Y-15548999D01*
X12445572Y-15748999D02*
X12455096Y-15739475D01*
X12474144Y-15710904D01*
X12483668Y-15691856D01*
X12493191Y-15663285D01*
X12502715Y-15615666D01*
X12502715Y-15577570D01*
X12493191Y-15529951D01*
X12483668Y-15501380D01*
X12474144Y-15482332D01*
X12455096Y-15453761D01*
X12445572Y-15444237D01*
D14*
X7633028Y-15805692D02*
X7633028Y-15886972D01*
X7592388Y-15846332D02*
X7673668Y-15846332D01*
D11*
X7969382Y-15736808D02*
X7988430Y-15736808D01*
X8007477Y-15746332D01*
X8017001Y-15755856D01*
X8026525Y-15774904D01*
X8036049Y-15812999D01*
X8036049Y-15860618D01*
X8026525Y-15898713D01*
X8017001Y-15917761D01*
X8007477Y-15927285D01*
X7988430Y-15936808D01*
X7969382Y-15936808D01*
X7950334Y-15927285D01*
X7940810Y-15917761D01*
X7931287Y-15898713D01*
X7921763Y-15860618D01*
X7921763Y-15812999D01*
X7931287Y-15774904D01*
X7940810Y-15755856D01*
X7950334Y-15746332D01*
X7969382Y-15736808D01*
X8121763Y-15917761D02*
X8131287Y-15927285D01*
X8121763Y-15936808D01*
X8112239Y-15927285D01*
X8121763Y-15917761D01*
X8121763Y-15936808D01*
X8245572Y-15822523D02*
X8226525Y-15812999D01*
X8217001Y-15803475D01*
X8207477Y-15784427D01*
X8207477Y-15774904D01*
X8217001Y-15755856D01*
X8226525Y-15746332D01*
X8245572Y-15736808D01*
X8283668Y-15736808D01*
X8302715Y-15746332D01*
X8312239Y-15755856D01*
X8321763Y-15774904D01*
X8321763Y-15784427D01*
X8312239Y-15803475D01*
X8302715Y-15812999D01*
X8283668Y-15822523D01*
X8245572Y-15822523D01*
X8226525Y-15832046D01*
X8217001Y-15841570D01*
X8207477Y-15860618D01*
X8207477Y-15898713D01*
X8217001Y-15917761D01*
X8226525Y-15927285D01*
X8245572Y-15936808D01*
X8283668Y-15936808D01*
X8302715Y-15927285D01*
X8312239Y-15917761D01*
X8321763Y-15898713D01*
X8321763Y-15860618D01*
X8312239Y-15841570D01*
X8302715Y-15832046D01*
X8283668Y-15822523D01*
X8512239Y-15936808D02*
X8397953Y-15936808D01*
X8455096Y-15936808D02*
X8455096Y-15736808D01*
X8436049Y-15765380D01*
X8417001Y-15784427D01*
X8397953Y-15793951D01*
X8578906Y-15736808D02*
X8702715Y-15736808D01*
X8636049Y-15812999D01*
X8664620Y-15812999D01*
X8683668Y-15822523D01*
X8693192Y-15832046D01*
X8702715Y-15851094D01*
X8702715Y-15898713D01*
X8693192Y-15917761D01*
X8683668Y-15927285D01*
X8664620Y-15936808D01*
X8607477Y-15936808D01*
X8588430Y-15927285D01*
X8578906Y-15917761D01*
X8788430Y-15936808D02*
X8788430Y-15803475D01*
X8788430Y-15822523D02*
X8797953Y-15812999D01*
X8817001Y-15803475D01*
X8845572Y-15803475D01*
X8864620Y-15812999D01*
X8874144Y-15832046D01*
X8874144Y-15936808D01*
X8874144Y-15832046D02*
X8883668Y-15812999D01*
X8902715Y-15803475D01*
X8931287Y-15803475D01*
X8950334Y-15812999D01*
X8959858Y-15832046D01*
X8959858Y-15936808D01*
X9055096Y-15936808D02*
X9055096Y-15803475D01*
X9055096Y-15822523D02*
X9064620Y-15812999D01*
X9083668Y-15803475D01*
X9112239Y-15803475D01*
X9131287Y-15812999D01*
X9140811Y-15832046D01*
X9140811Y-15936808D01*
X9140811Y-15832046D02*
X9150334Y-15812999D01*
X9169382Y-15803475D01*
X9197953Y-15803475D01*
X9217001Y-15812999D01*
X9226525Y-15832046D01*
X9226525Y-15936808D01*
X9617001Y-15727285D02*
X9445572Y-15984427D01*
X9874144Y-15736808D02*
X9893192Y-15736808D01*
X9912239Y-15746332D01*
X9921763Y-15755856D01*
X9931287Y-15774904D01*
X9940811Y-15812999D01*
X9940811Y-15860618D01*
X9931287Y-15898713D01*
X9921763Y-15917761D01*
X9912239Y-15927285D01*
X9893192Y-15936808D01*
X9874144Y-15936808D01*
X9855096Y-15927285D01*
X9845572Y-15917761D01*
X9836049Y-15898713D01*
X9826525Y-15860618D01*
X9826525Y-15812999D01*
X9836049Y-15774904D01*
X9845572Y-15755856D01*
X9855096Y-15746332D01*
X9874144Y-15736808D01*
X10026525Y-15917761D02*
X10036049Y-15927285D01*
X10026525Y-15936808D01*
X10017001Y-15927285D01*
X10026525Y-15917761D01*
X10026525Y-15936808D01*
X10159858Y-15736808D02*
X10178906Y-15736808D01*
X10197953Y-15746332D01*
X10207477Y-15755856D01*
X10217001Y-15774904D01*
X10226525Y-15812999D01*
X10226525Y-15860618D01*
X10217001Y-15898713D01*
X10207477Y-15917761D01*
X10197953Y-15927285D01*
X10178906Y-15936808D01*
X10159858Y-15936808D01*
X10140811Y-15927285D01*
X10131287Y-15917761D01*
X10121763Y-15898713D01*
X10112239Y-15860618D01*
X10112239Y-15812999D01*
X10121763Y-15774904D01*
X10131287Y-15755856D01*
X10140811Y-15746332D01*
X10159858Y-15736808D01*
X10293192Y-15736808D02*
X10417001Y-15736808D01*
X10350334Y-15812999D01*
X10378906Y-15812999D01*
X10397953Y-15822523D01*
X10407477Y-15832046D01*
X10417001Y-15851094D01*
X10417001Y-15898713D01*
X10407477Y-15917761D01*
X10397953Y-15927285D01*
X10378906Y-15936808D01*
X10321763Y-15936808D01*
X10302715Y-15927285D01*
X10293192Y-15917761D01*
X10493192Y-15755856D02*
X10502715Y-15746332D01*
X10521763Y-15736808D01*
X10569382Y-15736808D01*
X10588430Y-15746332D01*
X10597953Y-15755856D01*
X10607477Y-15774904D01*
X10607477Y-15793951D01*
X10597953Y-15822523D01*
X10483668Y-15936808D01*
X10607477Y-15936808D01*
X10731287Y-15736808D02*
X10750334Y-15736808D01*
X10769382Y-15746332D01*
X10778906Y-15755856D01*
X10788430Y-15774904D01*
X10797953Y-15812999D01*
X10797953Y-15860618D01*
X10788430Y-15898713D01*
X10778906Y-15917761D01*
X10769382Y-15927285D01*
X10750334Y-15936808D01*
X10731287Y-15936808D01*
X10712239Y-15927285D01*
X10702715Y-15917761D01*
X10693192Y-15898713D01*
X10683668Y-15860618D01*
X10683668Y-15812999D01*
X10693192Y-15774904D01*
X10702715Y-15755856D01*
X10712239Y-15746332D01*
X10731287Y-15736808D01*
X10874144Y-15736808D02*
X10874144Y-15774904D01*
X10950334Y-15736808D02*
X10950334Y-15774904D01*
X11245572Y-16012999D02*
X11236049Y-16003475D01*
X11217001Y-15974904D01*
X11207477Y-15955856D01*
X11197953Y-15927285D01*
X11188430Y-15879666D01*
X11188430Y-15841570D01*
X11197953Y-15793951D01*
X11207477Y-15765380D01*
X11217001Y-15746332D01*
X11236049Y-15717761D01*
X11245572Y-15708237D01*
X11407477Y-15803475D02*
X11407477Y-15936808D01*
X11359858Y-15727285D02*
X11312239Y-15870142D01*
X11436049Y-15870142D01*
X11664620Y-15936808D02*
X11664620Y-15736808D01*
X11750334Y-15936808D02*
X11750334Y-15832046D01*
X11740810Y-15812999D01*
X11721763Y-15803475D01*
X11693191Y-15803475D01*
X11674144Y-15812999D01*
X11664620Y-15822523D01*
X11874144Y-15936808D02*
X11855096Y-15927285D01*
X11845572Y-15917761D01*
X11836049Y-15898713D01*
X11836049Y-15841570D01*
X11845572Y-15822523D01*
X11855096Y-15812999D01*
X11874144Y-15803475D01*
X11902715Y-15803475D01*
X11921763Y-15812999D01*
X11931287Y-15822523D01*
X11940810Y-15841570D01*
X11940810Y-15898713D01*
X11931287Y-15917761D01*
X11921763Y-15927285D01*
X11902715Y-15936808D01*
X11874144Y-15936808D01*
X12055096Y-15936808D02*
X12036049Y-15927285D01*
X12026525Y-15908237D01*
X12026525Y-15736808D01*
X12207477Y-15927285D02*
X12188430Y-15936808D01*
X12150334Y-15936808D01*
X12131287Y-15927285D01*
X12121763Y-15908237D01*
X12121763Y-15832046D01*
X12131287Y-15812999D01*
X12150334Y-15803475D01*
X12188430Y-15803475D01*
X12207477Y-15812999D01*
X12217001Y-15832046D01*
X12217001Y-15851094D01*
X12121763Y-15870142D01*
X12293191Y-15927285D02*
X12312239Y-15936808D01*
X12350334Y-15936808D01*
X12369382Y-15927285D01*
X12378906Y-15908237D01*
X12378906Y-15898713D01*
X12369382Y-15879666D01*
X12350334Y-15870142D01*
X12321763Y-15870142D01*
X12302715Y-15860618D01*
X12293191Y-15841570D01*
X12293191Y-15832046D01*
X12302715Y-15812999D01*
X12321763Y-15803475D01*
X12350334Y-15803475D01*
X12369382Y-15812999D01*
X12445572Y-16012999D02*
X12455096Y-16003475D01*
X12474144Y-15974904D01*
X12483668Y-15955856D01*
X12493191Y-15927285D01*
X12502715Y-15879666D01*
X12502715Y-15841570D01*
X12493191Y-15793951D01*
X12483668Y-15765380D01*
X12474144Y-15746332D01*
X12455096Y-15717761D01*
X12445572Y-15708237D01*
D15*
X7659023Y-16145688D02*
X7659023Y-16074977D01*
X7588312Y-16074977D01*
X7588312Y-16145688D01*
X7659023Y-16145688D01*
D11*
X8036049Y-16200808D02*
X7921763Y-16200808D01*
X7978906Y-16200808D02*
X7978906Y-16000808D01*
X7959858Y-16029380D01*
X7940810Y-16048427D01*
X7921763Y-16057951D01*
X8121763Y-16181761D02*
X8131287Y-16191285D01*
X8121763Y-16200808D01*
X8112239Y-16191285D01*
X8121763Y-16181761D01*
X8121763Y-16200808D01*
X8255096Y-16000808D02*
X8274144Y-16000808D01*
X8293191Y-16010332D01*
X8302715Y-16019856D01*
X8312239Y-16038904D01*
X8321763Y-16076999D01*
X8321763Y-16124618D01*
X8312239Y-16162713D01*
X8302715Y-16181761D01*
X8293191Y-16191285D01*
X8274144Y-16200808D01*
X8255096Y-16200808D01*
X8236049Y-16191285D01*
X8226525Y-16181761D01*
X8217001Y-16162713D01*
X8207477Y-16124618D01*
X8207477Y-16076999D01*
X8217001Y-16038904D01*
X8226525Y-16019856D01*
X8236049Y-16010332D01*
X8255096Y-16000808D01*
X8445572Y-16000808D02*
X8464620Y-16000808D01*
X8483668Y-16010332D01*
X8493192Y-16019856D01*
X8502715Y-16038904D01*
X8512239Y-16076999D01*
X8512239Y-16124618D01*
X8502715Y-16162713D01*
X8493192Y-16181761D01*
X8483668Y-16191285D01*
X8464620Y-16200808D01*
X8445572Y-16200808D01*
X8426525Y-16191285D01*
X8417001Y-16181761D01*
X8407477Y-16162713D01*
X8397953Y-16124618D01*
X8397953Y-16076999D01*
X8407477Y-16038904D01*
X8417001Y-16019856D01*
X8426525Y-16010332D01*
X8445572Y-16000808D01*
X8636049Y-16000808D02*
X8655096Y-16000808D01*
X8674144Y-16010332D01*
X8683668Y-16019856D01*
X8693192Y-16038904D01*
X8702715Y-16076999D01*
X8702715Y-16124618D01*
X8693192Y-16162713D01*
X8683668Y-16181761D01*
X8674144Y-16191285D01*
X8655096Y-16200808D01*
X8636049Y-16200808D01*
X8617001Y-16191285D01*
X8607477Y-16181761D01*
X8597953Y-16162713D01*
X8588430Y-16124618D01*
X8588430Y-16076999D01*
X8597953Y-16038904D01*
X8607477Y-16019856D01*
X8617001Y-16010332D01*
X8636049Y-16000808D01*
X8788430Y-16200808D02*
X8788430Y-16067475D01*
X8788430Y-16086523D02*
X8797953Y-16076999D01*
X8817001Y-16067475D01*
X8845572Y-16067475D01*
X8864620Y-16076999D01*
X8874144Y-16096046D01*
X8874144Y-16200808D01*
X8874144Y-16096046D02*
X8883668Y-16076999D01*
X8902715Y-16067475D01*
X8931287Y-16067475D01*
X8950334Y-16076999D01*
X8959858Y-16096046D01*
X8959858Y-16200808D01*
X9055096Y-16200808D02*
X9055096Y-16067475D01*
X9055096Y-16086523D02*
X9064620Y-16076999D01*
X9083668Y-16067475D01*
X9112239Y-16067475D01*
X9131287Y-16076999D01*
X9140811Y-16096046D01*
X9140811Y-16200808D01*
X9140811Y-16096046D02*
X9150334Y-16076999D01*
X9169382Y-16067475D01*
X9197953Y-16067475D01*
X9217001Y-16076999D01*
X9226525Y-16096046D01*
X9226525Y-16200808D01*
X9617001Y-15991285D02*
X9445572Y-16248427D01*
X9874144Y-16000808D02*
X9893192Y-16000808D01*
X9912239Y-16010332D01*
X9921763Y-16019856D01*
X9931287Y-16038904D01*
X9940811Y-16076999D01*
X9940811Y-16124618D01*
X9931287Y-16162713D01*
X9921763Y-16181761D01*
X9912239Y-16191285D01*
X9893192Y-16200808D01*
X9874144Y-16200808D01*
X9855096Y-16191285D01*
X9845572Y-16181761D01*
X9836049Y-16162713D01*
X9826525Y-16124618D01*
X9826525Y-16076999D01*
X9836049Y-16038904D01*
X9845572Y-16019856D01*
X9855096Y-16010332D01*
X9874144Y-16000808D01*
X10026525Y-16181761D02*
X10036049Y-16191285D01*
X10026525Y-16200808D01*
X10017001Y-16191285D01*
X10026525Y-16181761D01*
X10026525Y-16200808D01*
X10159858Y-16000808D02*
X10178906Y-16000808D01*
X10197953Y-16010332D01*
X10207477Y-16019856D01*
X10217001Y-16038904D01*
X10226525Y-16076999D01*
X10226525Y-16124618D01*
X10217001Y-16162713D01*
X10207477Y-16181761D01*
X10197953Y-16191285D01*
X10178906Y-16200808D01*
X10159858Y-16200808D01*
X10140811Y-16191285D01*
X10131287Y-16181761D01*
X10121763Y-16162713D01*
X10112239Y-16124618D01*
X10112239Y-16076999D01*
X10121763Y-16038904D01*
X10131287Y-16019856D01*
X10140811Y-16010332D01*
X10159858Y-16000808D01*
X10293192Y-16000808D02*
X10417001Y-16000808D01*
X10350334Y-16076999D01*
X10378906Y-16076999D01*
X10397953Y-16086523D01*
X10407477Y-16096046D01*
X10417001Y-16115094D01*
X10417001Y-16162713D01*
X10407477Y-16181761D01*
X10397953Y-16191285D01*
X10378906Y-16200808D01*
X10321763Y-16200808D01*
X10302715Y-16191285D01*
X10293192Y-16181761D01*
X10512239Y-16200808D02*
X10550334Y-16200808D01*
X10569382Y-16191285D01*
X10578906Y-16181761D01*
X10597953Y-16153189D01*
X10607477Y-16115094D01*
X10607477Y-16038904D01*
X10597953Y-16019856D01*
X10588430Y-16010332D01*
X10569382Y-16000808D01*
X10531287Y-16000808D01*
X10512239Y-16010332D01*
X10502715Y-16019856D01*
X10493192Y-16038904D01*
X10493192Y-16086523D01*
X10502715Y-16105570D01*
X10512239Y-16115094D01*
X10531287Y-16124618D01*
X10569382Y-16124618D01*
X10588430Y-16115094D01*
X10597953Y-16105570D01*
X10607477Y-16086523D01*
X10778906Y-16067475D02*
X10778906Y-16200808D01*
X10731287Y-15991285D02*
X10683668Y-16134142D01*
X10807477Y-16134142D01*
X10874144Y-16000808D02*
X10874144Y-16038904D01*
X10950334Y-16000808D02*
X10950334Y-16038904D01*
X11245572Y-16276999D02*
X11236049Y-16267475D01*
X11217001Y-16238904D01*
X11207477Y-16219856D01*
X11197953Y-16191285D01*
X11188430Y-16143666D01*
X11188430Y-16105570D01*
X11197953Y-16057951D01*
X11207477Y-16029380D01*
X11217001Y-16010332D01*
X11236049Y-15981761D01*
X11245572Y-15972237D01*
X11350334Y-16086523D02*
X11331287Y-16076999D01*
X11321763Y-16067475D01*
X11312239Y-16048427D01*
X11312239Y-16038904D01*
X11321763Y-16019856D01*
X11331287Y-16010332D01*
X11350334Y-16000808D01*
X11388430Y-16000808D01*
X11407477Y-16010332D01*
X11417001Y-16019856D01*
X11426525Y-16038904D01*
X11426525Y-16048427D01*
X11417001Y-16067475D01*
X11407477Y-16076999D01*
X11388430Y-16086523D01*
X11350334Y-16086523D01*
X11331287Y-16096046D01*
X11321763Y-16105570D01*
X11312239Y-16124618D01*
X11312239Y-16162713D01*
X11321763Y-16181761D01*
X11331287Y-16191285D01*
X11350334Y-16200808D01*
X11388430Y-16200808D01*
X11407477Y-16191285D01*
X11417001Y-16181761D01*
X11426525Y-16162713D01*
X11426525Y-16124618D01*
X11417001Y-16105570D01*
X11407477Y-16096046D01*
X11388430Y-16086523D01*
X11664620Y-16200808D02*
X11664620Y-16000808D01*
X11750334Y-16200808D02*
X11750334Y-16096046D01*
X11740810Y-16076999D01*
X11721763Y-16067475D01*
X11693191Y-16067475D01*
X11674144Y-16076999D01*
X11664620Y-16086523D01*
X11874144Y-16200808D02*
X11855096Y-16191285D01*
X11845572Y-16181761D01*
X11836049Y-16162713D01*
X11836049Y-16105570D01*
X11845572Y-16086523D01*
X11855096Y-16076999D01*
X11874144Y-16067475D01*
X11902715Y-16067475D01*
X11921763Y-16076999D01*
X11931287Y-16086523D01*
X11940810Y-16105570D01*
X11940810Y-16162713D01*
X11931287Y-16181761D01*
X11921763Y-16191285D01*
X11902715Y-16200808D01*
X11874144Y-16200808D01*
X12055096Y-16200808D02*
X12036049Y-16191285D01*
X12026525Y-16172237D01*
X12026525Y-16000808D01*
X12207477Y-16191285D02*
X12188430Y-16200808D01*
X12150334Y-16200808D01*
X12131287Y-16191285D01*
X12121763Y-16172237D01*
X12121763Y-16096046D01*
X12131287Y-16076999D01*
X12150334Y-16067475D01*
X12188430Y-16067475D01*
X12207477Y-16076999D01*
X12217001Y-16096046D01*
X12217001Y-16115094D01*
X12121763Y-16134142D01*
X12293191Y-16191285D02*
X12312239Y-16200808D01*
X12350334Y-16200808D01*
X12369382Y-16191285D01*
X12378906Y-16172237D01*
X12378906Y-16162713D01*
X12369382Y-16143666D01*
X12350334Y-16134142D01*
X12321763Y-16134142D01*
X12302715Y-16124618D01*
X12293191Y-16105570D01*
X12293191Y-16096046D01*
X12302715Y-16076999D01*
X12321763Y-16067475D01*
X12350334Y-16067475D01*
X12369382Y-16076999D01*
X12445572Y-16276999D02*
X12455096Y-16267475D01*
X12474144Y-16238904D01*
X12483668Y-16219856D01*
X12493191Y-16191285D01*
X12502715Y-16143666D01*
X12502715Y-16105570D01*
X12493191Y-16057951D01*
X12483668Y-16029380D01*
X12474144Y-16010332D01*
X12455096Y-15981761D01*
X12445572Y-15972237D01*
D15*
X7623668Y-16424332D02*
X7673668Y-16374332D01*
X7623668Y-16324332D01*
X7573668Y-16374332D01*
X7623668Y-16424332D01*
D11*
X8036049Y-16464808D02*
X7921763Y-16464808D01*
X7978906Y-16464808D02*
X7978906Y-16264808D01*
X7959858Y-16293380D01*
X7940810Y-16312427D01*
X7921763Y-16321951D01*
X8121763Y-16445761D02*
X8131287Y-16455285D01*
X8121763Y-16464808D01*
X8112239Y-16455285D01*
X8121763Y-16445761D01*
X8121763Y-16464808D01*
X8255096Y-16264808D02*
X8274144Y-16264808D01*
X8293191Y-16274332D01*
X8302715Y-16283856D01*
X8312239Y-16302904D01*
X8321763Y-16340999D01*
X8321763Y-16388618D01*
X8312239Y-16426713D01*
X8302715Y-16445761D01*
X8293191Y-16455285D01*
X8274144Y-16464808D01*
X8255096Y-16464808D01*
X8236049Y-16455285D01*
X8226525Y-16445761D01*
X8217001Y-16426713D01*
X8207477Y-16388618D01*
X8207477Y-16340999D01*
X8217001Y-16302904D01*
X8226525Y-16283856D01*
X8236049Y-16274332D01*
X8255096Y-16264808D01*
X8445572Y-16264808D02*
X8464620Y-16264808D01*
X8483668Y-16274332D01*
X8493192Y-16283856D01*
X8502715Y-16302904D01*
X8512239Y-16340999D01*
X8512239Y-16388618D01*
X8502715Y-16426713D01*
X8493192Y-16445761D01*
X8483668Y-16455285D01*
X8464620Y-16464808D01*
X8445572Y-16464808D01*
X8426525Y-16455285D01*
X8417001Y-16445761D01*
X8407477Y-16426713D01*
X8397953Y-16388618D01*
X8397953Y-16340999D01*
X8407477Y-16302904D01*
X8417001Y-16283856D01*
X8426525Y-16274332D01*
X8445572Y-16264808D01*
X8636049Y-16264808D02*
X8655096Y-16264808D01*
X8674144Y-16274332D01*
X8683668Y-16283856D01*
X8693192Y-16302904D01*
X8702715Y-16340999D01*
X8702715Y-16388618D01*
X8693192Y-16426713D01*
X8683668Y-16445761D01*
X8674144Y-16455285D01*
X8655096Y-16464808D01*
X8636049Y-16464808D01*
X8617001Y-16455285D01*
X8607477Y-16445761D01*
X8597953Y-16426713D01*
X8588430Y-16388618D01*
X8588430Y-16340999D01*
X8597953Y-16302904D01*
X8607477Y-16283856D01*
X8617001Y-16274332D01*
X8636049Y-16264808D01*
X8788430Y-16464808D02*
X8788430Y-16331475D01*
X8788430Y-16350523D02*
X8797953Y-16340999D01*
X8817001Y-16331475D01*
X8845572Y-16331475D01*
X8864620Y-16340999D01*
X8874144Y-16360046D01*
X8874144Y-16464808D01*
X8874144Y-16360046D02*
X8883668Y-16340999D01*
X8902715Y-16331475D01*
X8931287Y-16331475D01*
X8950334Y-16340999D01*
X8959858Y-16360046D01*
X8959858Y-16464808D01*
X9055096Y-16464808D02*
X9055096Y-16331475D01*
X9055096Y-16350523D02*
X9064620Y-16340999D01*
X9083668Y-16331475D01*
X9112239Y-16331475D01*
X9131287Y-16340999D01*
X9140811Y-16360046D01*
X9140811Y-16464808D01*
X9140811Y-16360046D02*
X9150334Y-16340999D01*
X9169382Y-16331475D01*
X9197953Y-16331475D01*
X9217001Y-16340999D01*
X9226525Y-16360046D01*
X9226525Y-16464808D01*
X9617001Y-16255285D02*
X9445572Y-16512427D01*
X9874144Y-16264808D02*
X9893192Y-16264808D01*
X9912239Y-16274332D01*
X9921763Y-16283856D01*
X9931287Y-16302904D01*
X9940811Y-16340999D01*
X9940811Y-16388618D01*
X9931287Y-16426713D01*
X9921763Y-16445761D01*
X9912239Y-16455285D01*
X9893192Y-16464808D01*
X9874144Y-16464808D01*
X9855096Y-16455285D01*
X9845572Y-16445761D01*
X9836049Y-16426713D01*
X9826525Y-16388618D01*
X9826525Y-16340999D01*
X9836049Y-16302904D01*
X9845572Y-16283856D01*
X9855096Y-16274332D01*
X9874144Y-16264808D01*
X10026525Y-16445761D02*
X10036049Y-16455285D01*
X10026525Y-16464808D01*
X10017001Y-16455285D01*
X10026525Y-16445761D01*
X10026525Y-16464808D01*
X10159858Y-16264808D02*
X10178906Y-16264808D01*
X10197953Y-16274332D01*
X10207477Y-16283856D01*
X10217001Y-16302904D01*
X10226525Y-16340999D01*
X10226525Y-16388618D01*
X10217001Y-16426713D01*
X10207477Y-16445761D01*
X10197953Y-16455285D01*
X10178906Y-16464808D01*
X10159858Y-16464808D01*
X10140811Y-16455285D01*
X10131287Y-16445761D01*
X10121763Y-16426713D01*
X10112239Y-16388618D01*
X10112239Y-16340999D01*
X10121763Y-16302904D01*
X10131287Y-16283856D01*
X10140811Y-16274332D01*
X10159858Y-16264808D01*
X10293192Y-16264808D02*
X10417001Y-16264808D01*
X10350334Y-16340999D01*
X10378906Y-16340999D01*
X10397953Y-16350523D01*
X10407477Y-16360046D01*
X10417001Y-16379094D01*
X10417001Y-16426713D01*
X10407477Y-16445761D01*
X10397953Y-16455285D01*
X10378906Y-16464808D01*
X10321763Y-16464808D01*
X10302715Y-16455285D01*
X10293192Y-16445761D01*
X10512239Y-16464808D02*
X10550334Y-16464808D01*
X10569382Y-16455285D01*
X10578906Y-16445761D01*
X10597953Y-16417189D01*
X10607477Y-16379094D01*
X10607477Y-16302904D01*
X10597953Y-16283856D01*
X10588430Y-16274332D01*
X10569382Y-16264808D01*
X10531287Y-16264808D01*
X10512239Y-16274332D01*
X10502715Y-16283856D01*
X10493192Y-16302904D01*
X10493192Y-16350523D01*
X10502715Y-16369570D01*
X10512239Y-16379094D01*
X10531287Y-16388618D01*
X10569382Y-16388618D01*
X10588430Y-16379094D01*
X10597953Y-16369570D01*
X10607477Y-16350523D01*
X10778906Y-16331475D02*
X10778906Y-16464808D01*
X10731287Y-16255285D02*
X10683668Y-16398142D01*
X10807477Y-16398142D01*
X10874144Y-16264808D02*
X10874144Y-16302904D01*
X10950334Y-16264808D02*
X10950334Y-16302904D01*
X11245572Y-16540999D02*
X11236049Y-16531475D01*
X11217001Y-16502904D01*
X11207477Y-16483856D01*
X11197953Y-16455285D01*
X11188430Y-16407666D01*
X11188430Y-16369570D01*
X11197953Y-16321951D01*
X11207477Y-16293380D01*
X11217001Y-16274332D01*
X11236049Y-16245761D01*
X11245572Y-16236237D01*
X11417001Y-16264808D02*
X11321763Y-16264808D01*
X11312239Y-16360046D01*
X11321763Y-16350523D01*
X11340810Y-16340999D01*
X11388430Y-16340999D01*
X11407477Y-16350523D01*
X11417001Y-16360046D01*
X11426525Y-16379094D01*
X11426525Y-16426713D01*
X11417001Y-16445761D01*
X11407477Y-16455285D01*
X11388430Y-16464808D01*
X11340810Y-16464808D01*
X11321763Y-16455285D01*
X11312239Y-16445761D01*
X11664620Y-16464808D02*
X11664620Y-16264808D01*
X11750334Y-16464808D02*
X11750334Y-16360046D01*
X11740810Y-16340999D01*
X11721763Y-16331475D01*
X11693191Y-16331475D01*
X11674144Y-16340999D01*
X11664620Y-16350523D01*
X11874144Y-16464808D02*
X11855096Y-16455285D01*
X11845572Y-16445761D01*
X11836049Y-16426713D01*
X11836049Y-16369570D01*
X11845572Y-16350523D01*
X11855096Y-16340999D01*
X11874144Y-16331475D01*
X11902715Y-16331475D01*
X11921763Y-16340999D01*
X11931287Y-16350523D01*
X11940810Y-16369570D01*
X11940810Y-16426713D01*
X11931287Y-16445761D01*
X11921763Y-16455285D01*
X11902715Y-16464808D01*
X11874144Y-16464808D01*
X12055096Y-16464808D02*
X12036049Y-16455285D01*
X12026525Y-16436237D01*
X12026525Y-16264808D01*
X12207477Y-16455285D02*
X12188430Y-16464808D01*
X12150334Y-16464808D01*
X12131287Y-16455285D01*
X12121763Y-16436237D01*
X12121763Y-16360046D01*
X12131287Y-16340999D01*
X12150334Y-16331475D01*
X12188430Y-16331475D01*
X12207477Y-16340999D01*
X12217001Y-16360046D01*
X12217001Y-16379094D01*
X12121763Y-16398142D01*
X12293191Y-16455285D02*
X12312239Y-16464808D01*
X12350334Y-16464808D01*
X12369382Y-16455285D01*
X12378906Y-16436237D01*
X12378906Y-16426713D01*
X12369382Y-16407666D01*
X12350334Y-16398142D01*
X12321763Y-16398142D01*
X12302715Y-16388618D01*
X12293191Y-16369570D01*
X12293191Y-16360046D01*
X12302715Y-16340999D01*
X12321763Y-16331475D01*
X12350334Y-16331475D01*
X12369382Y-16340999D01*
X12445572Y-16540999D02*
X12455096Y-16531475D01*
X12474144Y-16502904D01*
X12483668Y-16483856D01*
X12493191Y-16455285D01*
X12502715Y-16407666D01*
X12502715Y-16369570D01*
X12493191Y-16321951D01*
X12483668Y-16293380D01*
X12474144Y-16274332D01*
X12455096Y-16245761D01*
X12445572Y-16236237D01*
D16*
X7564448Y-16583722D02*
X7673668Y-16692942D01*
X7673668Y-16583722D02*
X7564448Y-16692942D01*
X7673668Y-16638332D02*
G75*
G03*
X7673668Y-16638332I-54610J0D01*
G01*
D11*
X8036049Y-16728808D02*
X7921763Y-16728808D01*
X7978906Y-16728808D02*
X7978906Y-16528808D01*
X7959858Y-16557380D01*
X7940810Y-16576427D01*
X7921763Y-16585951D01*
X8121763Y-16709761D02*
X8131287Y-16719285D01*
X8121763Y-16728808D01*
X8112239Y-16719285D01*
X8121763Y-16709761D01*
X8121763Y-16728808D01*
X8255096Y-16528808D02*
X8274144Y-16528808D01*
X8293191Y-16538332D01*
X8302715Y-16547856D01*
X8312239Y-16566904D01*
X8321763Y-16604999D01*
X8321763Y-16652618D01*
X8312239Y-16690713D01*
X8302715Y-16709761D01*
X8293191Y-16719285D01*
X8274144Y-16728808D01*
X8255096Y-16728808D01*
X8236049Y-16719285D01*
X8226525Y-16709761D01*
X8217001Y-16690713D01*
X8207477Y-16652618D01*
X8207477Y-16604999D01*
X8217001Y-16566904D01*
X8226525Y-16547856D01*
X8236049Y-16538332D01*
X8255096Y-16528808D01*
X8417001Y-16728808D02*
X8455096Y-16728808D01*
X8474144Y-16719285D01*
X8483668Y-16709761D01*
X8502715Y-16681189D01*
X8512239Y-16643094D01*
X8512239Y-16566904D01*
X8502715Y-16547856D01*
X8493192Y-16538332D01*
X8474144Y-16528808D01*
X8436049Y-16528808D01*
X8417001Y-16538332D01*
X8407477Y-16547856D01*
X8397953Y-16566904D01*
X8397953Y-16614523D01*
X8407477Y-16633570D01*
X8417001Y-16643094D01*
X8436049Y-16652618D01*
X8474144Y-16652618D01*
X8493192Y-16643094D01*
X8502715Y-16633570D01*
X8512239Y-16614523D01*
X8588430Y-16547856D02*
X8597953Y-16538332D01*
X8617001Y-16528808D01*
X8664620Y-16528808D01*
X8683668Y-16538332D01*
X8693192Y-16547856D01*
X8702715Y-16566904D01*
X8702715Y-16585951D01*
X8693192Y-16614523D01*
X8578906Y-16728808D01*
X8702715Y-16728808D01*
X8788430Y-16728808D02*
X8788430Y-16595475D01*
X8788430Y-16614523D02*
X8797953Y-16604999D01*
X8817001Y-16595475D01*
X8845572Y-16595475D01*
X8864620Y-16604999D01*
X8874144Y-16624046D01*
X8874144Y-16728808D01*
X8874144Y-16624046D02*
X8883668Y-16604999D01*
X8902715Y-16595475D01*
X8931287Y-16595475D01*
X8950334Y-16604999D01*
X8959858Y-16624046D01*
X8959858Y-16728808D01*
X9055096Y-16728808D02*
X9055096Y-16595475D01*
X9055096Y-16614523D02*
X9064620Y-16604999D01*
X9083668Y-16595475D01*
X9112239Y-16595475D01*
X9131287Y-16604999D01*
X9140811Y-16624046D01*
X9140811Y-16728808D01*
X9140811Y-16624046D02*
X9150334Y-16604999D01*
X9169382Y-16595475D01*
X9197953Y-16595475D01*
X9217001Y-16604999D01*
X9226525Y-16624046D01*
X9226525Y-16728808D01*
X9617001Y-16519285D02*
X9445572Y-16776427D01*
X9874144Y-16528808D02*
X9893192Y-16528808D01*
X9912239Y-16538332D01*
X9921763Y-16547856D01*
X9931287Y-16566904D01*
X9940811Y-16604999D01*
X9940811Y-16652618D01*
X9931287Y-16690713D01*
X9921763Y-16709761D01*
X9912239Y-16719285D01*
X9893192Y-16728808D01*
X9874144Y-16728808D01*
X9855096Y-16719285D01*
X9845572Y-16709761D01*
X9836049Y-16690713D01*
X9826525Y-16652618D01*
X9826525Y-16604999D01*
X9836049Y-16566904D01*
X9845572Y-16547856D01*
X9855096Y-16538332D01*
X9874144Y-16528808D01*
X10026525Y-16709761D02*
X10036049Y-16719285D01*
X10026525Y-16728808D01*
X10017001Y-16719285D01*
X10026525Y-16709761D01*
X10026525Y-16728808D01*
X10159858Y-16528808D02*
X10178906Y-16528808D01*
X10197953Y-16538332D01*
X10207477Y-16547856D01*
X10217001Y-16566904D01*
X10226525Y-16604999D01*
X10226525Y-16652618D01*
X10217001Y-16690713D01*
X10207477Y-16709761D01*
X10197953Y-16719285D01*
X10178906Y-16728808D01*
X10159858Y-16728808D01*
X10140811Y-16719285D01*
X10131287Y-16709761D01*
X10121763Y-16690713D01*
X10112239Y-16652618D01*
X10112239Y-16604999D01*
X10121763Y-16566904D01*
X10131287Y-16547856D01*
X10140811Y-16538332D01*
X10159858Y-16528808D01*
X10397953Y-16595475D02*
X10397953Y-16728808D01*
X10350334Y-16519285D02*
X10302715Y-16662142D01*
X10426525Y-16662142D01*
X10483668Y-16528808D02*
X10607477Y-16528808D01*
X10540811Y-16604999D01*
X10569382Y-16604999D01*
X10588430Y-16614523D01*
X10597953Y-16624046D01*
X10607477Y-16643094D01*
X10607477Y-16690713D01*
X10597953Y-16709761D01*
X10588430Y-16719285D01*
X10569382Y-16728808D01*
X10512239Y-16728808D01*
X10493192Y-16719285D01*
X10483668Y-16709761D01*
X10731287Y-16528808D02*
X10750334Y-16528808D01*
X10769382Y-16538332D01*
X10778906Y-16547856D01*
X10788430Y-16566904D01*
X10797953Y-16604999D01*
X10797953Y-16652618D01*
X10788430Y-16690713D01*
X10778906Y-16709761D01*
X10769382Y-16719285D01*
X10750334Y-16728808D01*
X10731287Y-16728808D01*
X10712239Y-16719285D01*
X10702715Y-16709761D01*
X10693192Y-16690713D01*
X10683668Y-16652618D01*
X10683668Y-16604999D01*
X10693192Y-16566904D01*
X10702715Y-16547856D01*
X10712239Y-16538332D01*
X10731287Y-16528808D01*
X10874144Y-16528808D02*
X10874144Y-16566904D01*
X10950334Y-16528808D02*
X10950334Y-16566904D01*
X11245572Y-16804999D02*
X11236049Y-16795475D01*
X11217001Y-16766904D01*
X11207477Y-16747856D01*
X11197953Y-16719285D01*
X11188430Y-16671666D01*
X11188430Y-16633570D01*
X11197953Y-16585951D01*
X11207477Y-16557380D01*
X11217001Y-16538332D01*
X11236049Y-16509761D01*
X11245572Y-16500237D01*
X11312239Y-16547856D02*
X11321763Y-16538332D01*
X11340810Y-16528808D01*
X11388430Y-16528808D01*
X11407477Y-16538332D01*
X11417001Y-16547856D01*
X11426525Y-16566904D01*
X11426525Y-16585951D01*
X11417001Y-16614523D01*
X11302715Y-16728808D01*
X11426525Y-16728808D01*
X11493191Y-16528808D02*
X11626525Y-16528808D01*
X11540810Y-16728808D01*
X11855096Y-16728808D02*
X11855096Y-16528808D01*
X11940810Y-16728808D02*
X11940810Y-16624046D01*
X11931287Y-16604999D01*
X11912239Y-16595475D01*
X11883668Y-16595475D01*
X11864620Y-16604999D01*
X11855096Y-16614523D01*
X12064620Y-16728808D02*
X12045572Y-16719285D01*
X12036049Y-16709761D01*
X12026525Y-16690713D01*
X12026525Y-16633570D01*
X12036049Y-16614523D01*
X12045572Y-16604999D01*
X12064620Y-16595475D01*
X12093191Y-16595475D01*
X12112239Y-16604999D01*
X12121763Y-16614523D01*
X12131287Y-16633570D01*
X12131287Y-16690713D01*
X12121763Y-16709761D01*
X12112239Y-16719285D01*
X12093191Y-16728808D01*
X12064620Y-16728808D01*
X12245572Y-16728808D02*
X12226525Y-16719285D01*
X12217001Y-16700237D01*
X12217001Y-16528808D01*
X12397953Y-16719285D02*
X12378906Y-16728808D01*
X12340810Y-16728808D01*
X12321763Y-16719285D01*
X12312239Y-16700237D01*
X12312239Y-16624046D01*
X12321763Y-16604999D01*
X12340810Y-16595475D01*
X12378906Y-16595475D01*
X12397953Y-16604999D01*
X12407477Y-16624046D01*
X12407477Y-16643094D01*
X12312239Y-16662142D01*
X12483668Y-16719285D02*
X12502715Y-16728808D01*
X12540810Y-16728808D01*
X12559858Y-16719285D01*
X12569382Y-16700237D01*
X12569382Y-16690713D01*
X12559858Y-16671666D01*
X12540810Y-16662142D01*
X12512239Y-16662142D01*
X12493191Y-16652618D01*
X12483668Y-16633570D01*
X12483668Y-16624046D01*
X12493191Y-16604999D01*
X12512239Y-16595475D01*
X12540810Y-16595475D01*
X12559858Y-16604999D01*
X12636049Y-16804999D02*
X12645572Y-16795475D01*
X12664620Y-16766904D01*
X12674144Y-16747856D01*
X12683668Y-16719285D01*
X12693191Y-16671666D01*
X12693191Y-16633570D01*
X12683668Y-16585951D01*
X12674144Y-16557380D01*
X12664620Y-16538332D01*
X12645572Y-16509761D01*
X12636049Y-16500237D01*
D17*
X7563668Y-16847332D02*
X7673668Y-16957332D01*
X7673668Y-16847332D02*
X7563668Y-16957332D01*
X7618668Y-16847332D02*
X7618668Y-16957332D01*
X7563668Y-16902332D02*
X7673668Y-16902332D01*
D11*
X8036049Y-16992808D02*
X7921763Y-16992808D01*
X7978906Y-16992808D02*
X7978906Y-16792808D01*
X7959858Y-16821380D01*
X7940810Y-16840428D01*
X7921763Y-16849951D01*
X8121763Y-16973761D02*
X8131287Y-16983285D01*
X8121763Y-16992808D01*
X8112239Y-16983285D01*
X8121763Y-16973761D01*
X8121763Y-16992808D01*
X8321763Y-16992808D02*
X8207477Y-16992808D01*
X8264620Y-16992808D02*
X8264620Y-16792808D01*
X8245572Y-16821380D01*
X8226525Y-16840428D01*
X8207477Y-16849951D01*
X8445572Y-16792808D02*
X8464620Y-16792808D01*
X8483668Y-16802332D01*
X8493192Y-16811856D01*
X8502715Y-16830904D01*
X8512239Y-16868999D01*
X8512239Y-16916618D01*
X8502715Y-16954713D01*
X8493192Y-16973761D01*
X8483668Y-16983285D01*
X8464620Y-16992808D01*
X8445572Y-16992808D01*
X8426525Y-16983285D01*
X8417001Y-16973761D01*
X8407477Y-16954713D01*
X8397953Y-16916618D01*
X8397953Y-16868999D01*
X8407477Y-16830904D01*
X8417001Y-16811856D01*
X8426525Y-16802332D01*
X8445572Y-16792808D01*
X8636049Y-16792808D02*
X8655096Y-16792808D01*
X8674144Y-16802332D01*
X8683668Y-16811856D01*
X8693192Y-16830904D01*
X8702715Y-16868999D01*
X8702715Y-16916618D01*
X8693192Y-16954713D01*
X8683668Y-16973761D01*
X8674144Y-16983285D01*
X8655096Y-16992808D01*
X8636049Y-16992808D01*
X8617001Y-16983285D01*
X8607477Y-16973761D01*
X8597953Y-16954713D01*
X8588430Y-16916618D01*
X8588430Y-16868999D01*
X8597953Y-16830904D01*
X8607477Y-16811856D01*
X8617001Y-16802332D01*
X8636049Y-16792808D01*
X8788430Y-16992808D02*
X8788430Y-16859475D01*
X8788430Y-16878523D02*
X8797953Y-16868999D01*
X8817001Y-16859475D01*
X8845572Y-16859475D01*
X8864620Y-16868999D01*
X8874144Y-16888047D01*
X8874144Y-16992808D01*
X8874144Y-16888047D02*
X8883668Y-16868999D01*
X8902715Y-16859475D01*
X8931287Y-16859475D01*
X8950334Y-16868999D01*
X8959858Y-16888047D01*
X8959858Y-16992808D01*
X9055096Y-16992808D02*
X9055096Y-16859475D01*
X9055096Y-16878523D02*
X9064620Y-16868999D01*
X9083668Y-16859475D01*
X9112239Y-16859475D01*
X9131287Y-16868999D01*
X9140811Y-16888047D01*
X9140811Y-16992808D01*
X9140811Y-16888047D02*
X9150334Y-16868999D01*
X9169382Y-16859475D01*
X9197953Y-16859475D01*
X9217001Y-16868999D01*
X9226525Y-16888047D01*
X9226525Y-16992808D01*
X9617001Y-16783285D02*
X9445572Y-17040428D01*
X9874144Y-16792808D02*
X9893192Y-16792808D01*
X9912239Y-16802332D01*
X9921763Y-16811856D01*
X9931287Y-16830904D01*
X9940811Y-16868999D01*
X9940811Y-16916618D01*
X9931287Y-16954713D01*
X9921763Y-16973761D01*
X9912239Y-16983285D01*
X9893192Y-16992808D01*
X9874144Y-16992808D01*
X9855096Y-16983285D01*
X9845572Y-16973761D01*
X9836049Y-16954713D01*
X9826525Y-16916618D01*
X9826525Y-16868999D01*
X9836049Y-16830904D01*
X9845572Y-16811856D01*
X9855096Y-16802332D01*
X9874144Y-16792808D01*
X10026525Y-16973761D02*
X10036049Y-16983285D01*
X10026525Y-16992808D01*
X10017001Y-16983285D01*
X10026525Y-16973761D01*
X10026525Y-16992808D01*
X10159858Y-16792808D02*
X10178906Y-16792808D01*
X10197953Y-16802332D01*
X10207477Y-16811856D01*
X10217001Y-16830904D01*
X10226525Y-16868999D01*
X10226525Y-16916618D01*
X10217001Y-16954713D01*
X10207477Y-16973761D01*
X10197953Y-16983285D01*
X10178906Y-16992808D01*
X10159858Y-16992808D01*
X10140811Y-16983285D01*
X10131287Y-16973761D01*
X10121763Y-16954713D01*
X10112239Y-16916618D01*
X10112239Y-16868999D01*
X10121763Y-16830904D01*
X10131287Y-16811856D01*
X10140811Y-16802332D01*
X10159858Y-16792808D01*
X10397953Y-16859475D02*
X10397953Y-16992808D01*
X10350334Y-16783285D02*
X10302715Y-16926142D01*
X10426525Y-16926142D01*
X10483668Y-16792808D02*
X10607477Y-16792808D01*
X10540811Y-16868999D01*
X10569382Y-16868999D01*
X10588430Y-16878523D01*
X10597953Y-16888047D01*
X10607477Y-16907094D01*
X10607477Y-16954713D01*
X10597953Y-16973761D01*
X10588430Y-16983285D01*
X10569382Y-16992808D01*
X10512239Y-16992808D01*
X10493192Y-16983285D01*
X10483668Y-16973761D01*
X10674144Y-16792808D02*
X10797953Y-16792808D01*
X10731287Y-16868999D01*
X10759858Y-16868999D01*
X10778906Y-16878523D01*
X10788430Y-16888047D01*
X10797953Y-16907094D01*
X10797953Y-16954713D01*
X10788430Y-16973761D01*
X10778906Y-16983285D01*
X10759858Y-16992808D01*
X10702715Y-16992808D01*
X10683668Y-16983285D01*
X10674144Y-16973761D01*
X10874144Y-16792808D02*
X10874144Y-16830904D01*
X10950334Y-16792808D02*
X10950334Y-16830904D01*
X11245572Y-17068999D02*
X11236049Y-17059475D01*
X11217001Y-17030904D01*
X11207477Y-17011856D01*
X11197953Y-16983285D01*
X11188430Y-16935666D01*
X11188430Y-16897570D01*
X11197953Y-16849951D01*
X11207477Y-16821380D01*
X11217001Y-16802332D01*
X11236049Y-16773761D01*
X11245572Y-16764237D01*
X11407477Y-16859475D02*
X11407477Y-16992808D01*
X11359858Y-16783285D02*
X11312239Y-16926142D01*
X11436049Y-16926142D01*
X11664620Y-16992808D02*
X11664620Y-16792808D01*
X11750334Y-16992808D02*
X11750334Y-16888047D01*
X11740810Y-16868999D01*
X11721763Y-16859475D01*
X11693191Y-16859475D01*
X11674144Y-16868999D01*
X11664620Y-16878523D01*
X11874144Y-16992808D02*
X11855096Y-16983285D01*
X11845572Y-16973761D01*
X11836049Y-16954713D01*
X11836049Y-16897570D01*
X11845572Y-16878523D01*
X11855096Y-16868999D01*
X11874144Y-16859475D01*
X11902715Y-16859475D01*
X11921763Y-16868999D01*
X11931287Y-16878523D01*
X11940810Y-16897570D01*
X11940810Y-16954713D01*
X11931287Y-16973761D01*
X11921763Y-16983285D01*
X11902715Y-16992808D01*
X11874144Y-16992808D01*
X12055096Y-16992808D02*
X12036049Y-16983285D01*
X12026525Y-16964237D01*
X12026525Y-16792808D01*
X12207477Y-16983285D02*
X12188430Y-16992808D01*
X12150334Y-16992808D01*
X12131287Y-16983285D01*
X12121763Y-16964237D01*
X12121763Y-16888047D01*
X12131287Y-16868999D01*
X12150334Y-16859475D01*
X12188430Y-16859475D01*
X12207477Y-16868999D01*
X12217001Y-16888047D01*
X12217001Y-16907094D01*
X12121763Y-16926142D01*
X12293191Y-16983285D02*
X12312239Y-16992808D01*
X12350334Y-16992808D01*
X12369382Y-16983285D01*
X12378906Y-16964237D01*
X12378906Y-16954713D01*
X12369382Y-16935666D01*
X12350334Y-16926142D01*
X12321763Y-16926142D01*
X12302715Y-16916618D01*
X12293191Y-16897570D01*
X12293191Y-16888047D01*
X12302715Y-16868999D01*
X12321763Y-16859475D01*
X12350334Y-16859475D01*
X12369382Y-16868999D01*
X12445572Y-17068999D02*
X12455096Y-17059475D01*
X12474144Y-17030904D01*
X12483668Y-17011856D01*
X12493191Y-16983285D01*
X12502715Y-16935666D01*
X12502715Y-16897570D01*
X12493191Y-16849951D01*
X12483668Y-16821380D01*
X12474144Y-16802332D01*
X12455096Y-16773761D01*
X12445572Y-16764237D01*
D18*
X7533668Y-17096332D02*
X7673668Y-17236332D01*
X7673668Y-17096332D02*
X7533668Y-17236332D01*
X7653166Y-17215830D02*
X7653166Y-17116834D01*
X7554170Y-17116834D01*
X7554170Y-17215830D01*
X7653166Y-17215830D01*
D11*
X8036049Y-17256808D02*
X7921763Y-17256808D01*
X7978906Y-17256808D02*
X7978906Y-17056808D01*
X7959858Y-17085380D01*
X7940810Y-17104428D01*
X7921763Y-17113951D01*
X8121763Y-17237761D02*
X8131287Y-17247285D01*
X8121763Y-17256808D01*
X8112239Y-17247285D01*
X8121763Y-17237761D01*
X8121763Y-17256808D01*
X8302715Y-17123475D02*
X8302715Y-17256808D01*
X8255096Y-17047285D02*
X8207477Y-17190142D01*
X8331287Y-17190142D01*
X8445572Y-17056808D02*
X8464620Y-17056808D01*
X8483668Y-17066332D01*
X8493192Y-17075856D01*
X8502715Y-17094904D01*
X8512239Y-17132999D01*
X8512239Y-17180618D01*
X8502715Y-17218713D01*
X8493192Y-17237761D01*
X8483668Y-17247285D01*
X8464620Y-17256808D01*
X8445572Y-17256808D01*
X8426525Y-17247285D01*
X8417001Y-17237761D01*
X8407477Y-17218713D01*
X8397953Y-17180618D01*
X8397953Y-17132999D01*
X8407477Y-17094904D01*
X8417001Y-17075856D01*
X8426525Y-17066332D01*
X8445572Y-17056808D01*
X8636049Y-17056808D02*
X8655096Y-17056808D01*
X8674144Y-17066332D01*
X8683668Y-17075856D01*
X8693192Y-17094904D01*
X8702715Y-17132999D01*
X8702715Y-17180618D01*
X8693192Y-17218713D01*
X8683668Y-17237761D01*
X8674144Y-17247285D01*
X8655096Y-17256808D01*
X8636049Y-17256808D01*
X8617001Y-17247285D01*
X8607477Y-17237761D01*
X8597953Y-17218713D01*
X8588430Y-17180618D01*
X8588430Y-17132999D01*
X8597953Y-17094904D01*
X8607477Y-17075856D01*
X8617001Y-17066332D01*
X8636049Y-17056808D01*
X8788430Y-17256808D02*
X8788430Y-17123475D01*
X8788430Y-17142523D02*
X8797953Y-17132999D01*
X8817001Y-17123475D01*
X8845572Y-17123475D01*
X8864620Y-17132999D01*
X8874144Y-17152047D01*
X8874144Y-17256808D01*
X8874144Y-17152047D02*
X8883668Y-17132999D01*
X8902715Y-17123475D01*
X8931287Y-17123475D01*
X8950334Y-17132999D01*
X8959858Y-17152047D01*
X8959858Y-17256808D01*
X9055096Y-17256808D02*
X9055096Y-17123475D01*
X9055096Y-17142523D02*
X9064620Y-17132999D01*
X9083668Y-17123475D01*
X9112239Y-17123475D01*
X9131287Y-17132999D01*
X9140811Y-17152047D01*
X9140811Y-17256808D01*
X9140811Y-17152047D02*
X9150334Y-17132999D01*
X9169382Y-17123475D01*
X9197953Y-17123475D01*
X9217001Y-17132999D01*
X9226525Y-17152047D01*
X9226525Y-17256808D01*
X9617001Y-17047285D02*
X9445572Y-17304428D01*
X9874144Y-17056808D02*
X9893192Y-17056808D01*
X9912239Y-17066332D01*
X9921763Y-17075856D01*
X9931287Y-17094904D01*
X9940811Y-17132999D01*
X9940811Y-17180618D01*
X9931287Y-17218713D01*
X9921763Y-17237761D01*
X9912239Y-17247285D01*
X9893192Y-17256808D01*
X9874144Y-17256808D01*
X9855096Y-17247285D01*
X9845572Y-17237761D01*
X9836049Y-17218713D01*
X9826525Y-17180618D01*
X9826525Y-17132999D01*
X9836049Y-17094904D01*
X9845572Y-17075856D01*
X9855096Y-17066332D01*
X9874144Y-17056808D01*
X10026525Y-17237761D02*
X10036049Y-17247285D01*
X10026525Y-17256808D01*
X10017001Y-17247285D01*
X10026525Y-17237761D01*
X10026525Y-17256808D01*
X10159858Y-17056808D02*
X10178906Y-17056808D01*
X10197953Y-17066332D01*
X10207477Y-17075856D01*
X10217001Y-17094904D01*
X10226525Y-17132999D01*
X10226525Y-17180618D01*
X10217001Y-17218713D01*
X10207477Y-17237761D01*
X10197953Y-17247285D01*
X10178906Y-17256808D01*
X10159858Y-17256808D01*
X10140811Y-17247285D01*
X10131287Y-17237761D01*
X10121763Y-17218713D01*
X10112239Y-17180618D01*
X10112239Y-17132999D01*
X10121763Y-17094904D01*
X10131287Y-17075856D01*
X10140811Y-17066332D01*
X10159858Y-17056808D01*
X10407477Y-17056808D02*
X10312239Y-17056808D01*
X10302715Y-17152047D01*
X10312239Y-17142523D01*
X10331287Y-17132999D01*
X10378906Y-17132999D01*
X10397953Y-17142523D01*
X10407477Y-17152047D01*
X10417001Y-17171094D01*
X10417001Y-17218713D01*
X10407477Y-17237761D01*
X10397953Y-17247285D01*
X10378906Y-17256808D01*
X10331287Y-17256808D01*
X10312239Y-17247285D01*
X10302715Y-17237761D01*
X10597953Y-17056808D02*
X10502715Y-17056808D01*
X10493192Y-17152047D01*
X10502715Y-17142523D01*
X10521763Y-17132999D01*
X10569382Y-17132999D01*
X10588430Y-17142523D01*
X10597953Y-17152047D01*
X10607477Y-17171094D01*
X10607477Y-17218713D01*
X10597953Y-17237761D01*
X10588430Y-17247285D01*
X10569382Y-17256808D01*
X10521763Y-17256808D01*
X10502715Y-17247285D01*
X10493192Y-17237761D01*
X10797953Y-17256808D02*
X10683668Y-17256808D01*
X10740811Y-17256808D02*
X10740811Y-17056808D01*
X10721763Y-17085380D01*
X10702715Y-17104428D01*
X10683668Y-17113951D01*
X10874144Y-17056808D02*
X10874144Y-17094904D01*
X10950334Y-17056808D02*
X10950334Y-17094904D01*
X11245572Y-17332999D02*
X11236049Y-17323475D01*
X11217001Y-17294904D01*
X11207477Y-17275856D01*
X11197953Y-17247285D01*
X11188430Y-17199666D01*
X11188430Y-17161570D01*
X11197953Y-17113951D01*
X11207477Y-17085380D01*
X11217001Y-17066332D01*
X11236049Y-17037761D01*
X11245572Y-17028237D01*
X11312239Y-17075856D02*
X11321763Y-17066332D01*
X11340810Y-17056808D01*
X11388430Y-17056808D01*
X11407477Y-17066332D01*
X11417001Y-17075856D01*
X11426525Y-17094904D01*
X11426525Y-17113951D01*
X11417001Y-17142523D01*
X11302715Y-17256808D01*
X11426525Y-17256808D01*
X11664620Y-17256808D02*
X11664620Y-17056808D01*
X11750334Y-17256808D02*
X11750334Y-17152047D01*
X11740810Y-17132999D01*
X11721763Y-17123475D01*
X11693191Y-17123475D01*
X11674144Y-17132999D01*
X11664620Y-17142523D01*
X11874144Y-17256808D02*
X11855096Y-17247285D01*
X11845572Y-17237761D01*
X11836049Y-17218713D01*
X11836049Y-17161570D01*
X11845572Y-17142523D01*
X11855096Y-17132999D01*
X11874144Y-17123475D01*
X11902715Y-17123475D01*
X11921763Y-17132999D01*
X11931287Y-17142523D01*
X11940810Y-17161570D01*
X11940810Y-17218713D01*
X11931287Y-17237761D01*
X11921763Y-17247285D01*
X11902715Y-17256808D01*
X11874144Y-17256808D01*
X12055096Y-17256808D02*
X12036049Y-17247285D01*
X12026525Y-17228237D01*
X12026525Y-17056808D01*
X12207477Y-17247285D02*
X12188430Y-17256808D01*
X12150334Y-17256808D01*
X12131287Y-17247285D01*
X12121763Y-17228237D01*
X12121763Y-17152047D01*
X12131287Y-17132999D01*
X12150334Y-17123475D01*
X12188430Y-17123475D01*
X12207477Y-17132999D01*
X12217001Y-17152047D01*
X12217001Y-17171094D01*
X12121763Y-17190142D01*
X12293191Y-17247285D02*
X12312239Y-17256808D01*
X12350334Y-17256808D01*
X12369382Y-17247285D01*
X12378906Y-17228237D01*
X12378906Y-17218713D01*
X12369382Y-17199666D01*
X12350334Y-17190142D01*
X12321763Y-17190142D01*
X12302715Y-17180618D01*
X12293191Y-17161570D01*
X12293191Y-17152047D01*
X12302715Y-17132999D01*
X12321763Y-17123475D01*
X12350334Y-17123475D01*
X12369382Y-17132999D01*
X12445572Y-17332999D02*
X12455096Y-17323475D01*
X12474144Y-17294904D01*
X12483668Y-17275856D01*
X12493191Y-17247285D01*
X12502715Y-17199666D01*
X12502715Y-17161570D01*
X12493191Y-17113951D01*
X12483668Y-17085380D01*
X12474144Y-17066332D01*
X12455096Y-17037761D01*
X12445572Y-17028237D01*
D19*
X7526668Y-17356832D02*
X7673668Y-17503832D01*
X7673668Y-17356832D02*
X7526668Y-17503832D01*
X7600168Y-17503832D02*
X7673668Y-17430332D01*
X7600168Y-17356832D01*
X7526668Y-17430332D01*
X7600168Y-17503832D01*
D11*
X8036049Y-17520808D02*
X7921763Y-17520808D01*
X7978906Y-17520808D02*
X7978906Y-17320808D01*
X7959858Y-17349380D01*
X7940810Y-17368428D01*
X7921763Y-17377951D01*
X8121763Y-17501761D02*
X8131287Y-17511285D01*
X8121763Y-17520808D01*
X8112239Y-17511285D01*
X8121763Y-17501761D01*
X8121763Y-17520808D01*
X8302715Y-17387475D02*
X8302715Y-17520808D01*
X8255096Y-17311285D02*
X8207477Y-17454142D01*
X8331287Y-17454142D01*
X8388430Y-17320808D02*
X8521763Y-17320808D01*
X8436049Y-17520808D01*
X8636049Y-17320808D02*
X8655096Y-17320808D01*
X8674144Y-17330332D01*
X8683668Y-17339856D01*
X8693192Y-17358904D01*
X8702715Y-17396999D01*
X8702715Y-17444618D01*
X8693192Y-17482713D01*
X8683668Y-17501761D01*
X8674144Y-17511285D01*
X8655096Y-17520808D01*
X8636049Y-17520808D01*
X8617001Y-17511285D01*
X8607477Y-17501761D01*
X8597953Y-17482713D01*
X8588430Y-17444618D01*
X8588430Y-17396999D01*
X8597953Y-17358904D01*
X8607477Y-17339856D01*
X8617001Y-17330332D01*
X8636049Y-17320808D01*
X8788430Y-17520808D02*
X8788430Y-17387475D01*
X8788430Y-17406523D02*
X8797953Y-17396999D01*
X8817001Y-17387475D01*
X8845572Y-17387475D01*
X8864620Y-17396999D01*
X8874144Y-17416047D01*
X8874144Y-17520808D01*
X8874144Y-17416047D02*
X8883668Y-17396999D01*
X8902715Y-17387475D01*
X8931287Y-17387475D01*
X8950334Y-17396999D01*
X8959858Y-17416047D01*
X8959858Y-17520808D01*
X9055096Y-17520808D02*
X9055096Y-17387475D01*
X9055096Y-17406523D02*
X9064620Y-17396999D01*
X9083668Y-17387475D01*
X9112239Y-17387475D01*
X9131287Y-17396999D01*
X9140811Y-17416047D01*
X9140811Y-17520808D01*
X9140811Y-17416047D02*
X9150334Y-17396999D01*
X9169382Y-17387475D01*
X9197953Y-17387475D01*
X9217001Y-17396999D01*
X9226525Y-17416047D01*
X9226525Y-17520808D01*
X9617001Y-17311285D02*
X9445572Y-17568428D01*
X9874144Y-17320808D02*
X9893192Y-17320808D01*
X9912239Y-17330332D01*
X9921763Y-17339856D01*
X9931287Y-17358904D01*
X9940811Y-17396999D01*
X9940811Y-17444618D01*
X9931287Y-17482713D01*
X9921763Y-17501761D01*
X9912239Y-17511285D01*
X9893192Y-17520808D01*
X9874144Y-17520808D01*
X9855096Y-17511285D01*
X9845572Y-17501761D01*
X9836049Y-17482713D01*
X9826525Y-17444618D01*
X9826525Y-17396999D01*
X9836049Y-17358904D01*
X9845572Y-17339856D01*
X9855096Y-17330332D01*
X9874144Y-17320808D01*
X10026525Y-17501761D02*
X10036049Y-17511285D01*
X10026525Y-17520808D01*
X10017001Y-17511285D01*
X10026525Y-17501761D01*
X10026525Y-17520808D01*
X10159858Y-17320808D02*
X10178906Y-17320808D01*
X10197953Y-17330332D01*
X10207477Y-17339856D01*
X10217001Y-17358904D01*
X10226525Y-17396999D01*
X10226525Y-17444618D01*
X10217001Y-17482713D01*
X10207477Y-17501761D01*
X10197953Y-17511285D01*
X10178906Y-17520808D01*
X10159858Y-17520808D01*
X10140811Y-17511285D01*
X10131287Y-17501761D01*
X10121763Y-17482713D01*
X10112239Y-17444618D01*
X10112239Y-17396999D01*
X10121763Y-17358904D01*
X10131287Y-17339856D01*
X10140811Y-17330332D01*
X10159858Y-17320808D01*
X10407477Y-17320808D02*
X10312239Y-17320808D01*
X10302715Y-17416047D01*
X10312239Y-17406523D01*
X10331287Y-17396999D01*
X10378906Y-17396999D01*
X10397953Y-17406523D01*
X10407477Y-17416047D01*
X10417001Y-17435094D01*
X10417001Y-17482713D01*
X10407477Y-17501761D01*
X10397953Y-17511285D01*
X10378906Y-17520808D01*
X10331287Y-17520808D01*
X10312239Y-17511285D01*
X10302715Y-17501761D01*
X10483668Y-17320808D02*
X10617001Y-17320808D01*
X10531287Y-17520808D01*
X10702715Y-17520808D02*
X10740811Y-17520808D01*
X10759858Y-17511285D01*
X10769382Y-17501761D01*
X10788430Y-17473189D01*
X10797953Y-17435094D01*
X10797953Y-17358904D01*
X10788430Y-17339856D01*
X10778906Y-17330332D01*
X10759858Y-17320808D01*
X10721763Y-17320808D01*
X10702715Y-17330332D01*
X10693192Y-17339856D01*
X10683668Y-17358904D01*
X10683668Y-17406523D01*
X10693192Y-17425570D01*
X10702715Y-17435094D01*
X10721763Y-17444618D01*
X10759858Y-17444618D01*
X10778906Y-17435094D01*
X10788430Y-17425570D01*
X10797953Y-17406523D01*
X10874144Y-17320808D02*
X10874144Y-17358904D01*
X10950334Y-17320808D02*
X10950334Y-17358904D01*
X11245572Y-17596999D02*
X11236049Y-17587475D01*
X11217001Y-17558904D01*
X11207477Y-17539856D01*
X11197953Y-17511285D01*
X11188430Y-17463666D01*
X11188430Y-17425570D01*
X11197953Y-17377951D01*
X11207477Y-17349380D01*
X11217001Y-17330332D01*
X11236049Y-17301761D01*
X11245572Y-17292237D01*
X11426525Y-17520808D02*
X11312239Y-17520808D01*
X11369382Y-17520808D02*
X11369382Y-17320808D01*
X11350334Y-17349380D01*
X11331287Y-17368428D01*
X11312239Y-17377951D01*
X11597953Y-17320808D02*
X11559858Y-17320808D01*
X11540810Y-17330332D01*
X11531287Y-17339856D01*
X11512239Y-17368428D01*
X11502715Y-17406523D01*
X11502715Y-17482713D01*
X11512239Y-17501761D01*
X11521763Y-17511285D01*
X11540810Y-17520808D01*
X11578906Y-17520808D01*
X11597953Y-17511285D01*
X11607477Y-17501761D01*
X11617001Y-17482713D01*
X11617001Y-17435094D01*
X11607477Y-17416047D01*
X11597953Y-17406523D01*
X11578906Y-17396999D01*
X11540810Y-17396999D01*
X11521763Y-17406523D01*
X11512239Y-17416047D01*
X11502715Y-17435094D01*
X11740810Y-17320808D02*
X11759858Y-17320808D01*
X11778906Y-17330332D01*
X11788430Y-17339856D01*
X11797953Y-17358904D01*
X11807477Y-17396999D01*
X11807477Y-17444618D01*
X11797953Y-17482713D01*
X11788430Y-17501761D01*
X11778906Y-17511285D01*
X11759858Y-17520808D01*
X11740810Y-17520808D01*
X11721763Y-17511285D01*
X11712239Y-17501761D01*
X11702715Y-17482713D01*
X11693191Y-17444618D01*
X11693191Y-17396999D01*
X11702715Y-17358904D01*
X11712239Y-17339856D01*
X11721763Y-17330332D01*
X11740810Y-17320808D01*
X12045572Y-17520808D02*
X12045572Y-17320808D01*
X12131287Y-17520808D02*
X12131287Y-17416047D01*
X12121763Y-17396999D01*
X12102715Y-17387475D01*
X12074144Y-17387475D01*
X12055096Y-17396999D01*
X12045572Y-17406523D01*
X12255096Y-17520808D02*
X12236049Y-17511285D01*
X12226525Y-17501761D01*
X12217001Y-17482713D01*
X12217001Y-17425570D01*
X12226525Y-17406523D01*
X12236049Y-17396999D01*
X12255096Y-17387475D01*
X12283668Y-17387475D01*
X12302715Y-17396999D01*
X12312239Y-17406523D01*
X12321763Y-17425570D01*
X12321763Y-17482713D01*
X12312239Y-17501761D01*
X12302715Y-17511285D01*
X12283668Y-17520808D01*
X12255096Y-17520808D01*
X12436049Y-17520808D02*
X12417001Y-17511285D01*
X12407477Y-17492237D01*
X12407477Y-17320808D01*
X12588430Y-17511285D02*
X12569382Y-17520808D01*
X12531287Y-17520808D01*
X12512239Y-17511285D01*
X12502715Y-17492237D01*
X12502715Y-17416047D01*
X12512239Y-17396999D01*
X12531287Y-17387475D01*
X12569382Y-17387475D01*
X12588430Y-17396999D01*
X12597953Y-17416047D01*
X12597953Y-17435094D01*
X12502715Y-17454142D01*
X12674144Y-17511285D02*
X12693191Y-17520808D01*
X12731287Y-17520808D01*
X12750334Y-17511285D01*
X12759858Y-17492237D01*
X12759858Y-17482713D01*
X12750334Y-17463666D01*
X12731287Y-17454142D01*
X12702715Y-17454142D01*
X12683668Y-17444618D01*
X12674144Y-17425570D01*
X12674144Y-17416047D01*
X12683668Y-17396999D01*
X12702715Y-17387475D01*
X12731287Y-17387475D01*
X12750334Y-17396999D01*
X12826525Y-17596999D02*
X12836049Y-17587475D01*
X12855096Y-17558904D01*
X12864620Y-17539856D01*
X12874144Y-17511285D01*
X12883668Y-17463666D01*
X12883668Y-17425570D01*
X12874144Y-17377951D01*
X12864620Y-17349380D01*
X12855096Y-17330332D01*
X12836049Y-17301761D01*
X12826525Y-17292237D01*
D20*
X7598668Y-17622332D02*
X7598668Y-17772332D01*
X7523668Y-17697332D02*
X7673668Y-17697332D01*
X7673668Y-17697332D02*
G75*
G03*
X7673668Y-17697332I-75000J0D01*
G01*
D11*
X8036049Y-17787808D02*
X7921763Y-17787808D01*
X7978906Y-17787808D02*
X7978906Y-17587808D01*
X7959858Y-17616380D01*
X7940810Y-17635428D01*
X7921763Y-17644951D01*
X8121763Y-17768761D02*
X8131287Y-17778285D01*
X8121763Y-17787808D01*
X8112239Y-17778285D01*
X8121763Y-17768761D01*
X8121763Y-17787808D01*
X8312239Y-17587808D02*
X8217001Y-17587808D01*
X8207477Y-17683047D01*
X8217001Y-17673523D01*
X8236049Y-17663999D01*
X8283668Y-17663999D01*
X8302715Y-17673523D01*
X8312239Y-17683047D01*
X8321763Y-17702094D01*
X8321763Y-17749713D01*
X8312239Y-17768761D01*
X8302715Y-17778285D01*
X8283668Y-17787808D01*
X8236049Y-17787808D01*
X8217001Y-17778285D01*
X8207477Y-17768761D01*
X8445572Y-17587808D02*
X8464620Y-17587808D01*
X8483668Y-17597332D01*
X8493192Y-17606856D01*
X8502715Y-17625904D01*
X8512239Y-17663999D01*
X8512239Y-17711618D01*
X8502715Y-17749713D01*
X8493192Y-17768761D01*
X8483668Y-17778285D01*
X8464620Y-17787808D01*
X8445572Y-17787808D01*
X8426525Y-17778285D01*
X8417001Y-17768761D01*
X8407477Y-17749713D01*
X8397953Y-17711618D01*
X8397953Y-17663999D01*
X8407477Y-17625904D01*
X8417001Y-17606856D01*
X8426525Y-17597332D01*
X8445572Y-17587808D01*
X8636049Y-17587808D02*
X8655096Y-17587808D01*
X8674144Y-17597332D01*
X8683668Y-17606856D01*
X8693192Y-17625904D01*
X8702715Y-17663999D01*
X8702715Y-17711618D01*
X8693192Y-17749713D01*
X8683668Y-17768761D01*
X8674144Y-17778285D01*
X8655096Y-17787808D01*
X8636049Y-17787808D01*
X8617001Y-17778285D01*
X8607477Y-17768761D01*
X8597953Y-17749713D01*
X8588430Y-17711618D01*
X8588430Y-17663999D01*
X8597953Y-17625904D01*
X8607477Y-17606856D01*
X8617001Y-17597332D01*
X8636049Y-17587808D01*
X8788430Y-17787808D02*
X8788430Y-17654475D01*
X8788430Y-17673523D02*
X8797953Y-17663999D01*
X8817001Y-17654475D01*
X8845572Y-17654475D01*
X8864620Y-17663999D01*
X8874144Y-17683047D01*
X8874144Y-17787808D01*
X8874144Y-17683047D02*
X8883668Y-17663999D01*
X8902715Y-17654475D01*
X8931287Y-17654475D01*
X8950334Y-17663999D01*
X8959858Y-17683047D01*
X8959858Y-17787808D01*
X9055096Y-17787808D02*
X9055096Y-17654475D01*
X9055096Y-17673523D02*
X9064620Y-17663999D01*
X9083668Y-17654475D01*
X9112239Y-17654475D01*
X9131287Y-17663999D01*
X9140811Y-17683047D01*
X9140811Y-17787808D01*
X9140811Y-17683047D02*
X9150334Y-17663999D01*
X9169382Y-17654475D01*
X9197953Y-17654475D01*
X9217001Y-17663999D01*
X9226525Y-17683047D01*
X9226525Y-17787808D01*
X9617001Y-17578285D02*
X9445572Y-17835428D01*
X9874144Y-17587808D02*
X9893192Y-17587808D01*
X9912239Y-17597332D01*
X9921763Y-17606856D01*
X9931287Y-17625904D01*
X9940811Y-17663999D01*
X9940811Y-17711618D01*
X9931287Y-17749713D01*
X9921763Y-17768761D01*
X9912239Y-17778285D01*
X9893192Y-17787808D01*
X9874144Y-17787808D01*
X9855096Y-17778285D01*
X9845572Y-17768761D01*
X9836049Y-17749713D01*
X9826525Y-17711618D01*
X9826525Y-17663999D01*
X9836049Y-17625904D01*
X9845572Y-17606856D01*
X9855096Y-17597332D01*
X9874144Y-17587808D01*
X10026525Y-17768761D02*
X10036049Y-17778285D01*
X10026525Y-17787808D01*
X10017001Y-17778285D01*
X10026525Y-17768761D01*
X10026525Y-17787808D01*
X10159858Y-17587808D02*
X10178906Y-17587808D01*
X10197953Y-17597332D01*
X10207477Y-17606856D01*
X10217001Y-17625904D01*
X10226525Y-17663999D01*
X10226525Y-17711618D01*
X10217001Y-17749713D01*
X10207477Y-17768761D01*
X10197953Y-17778285D01*
X10178906Y-17787808D01*
X10159858Y-17787808D01*
X10140811Y-17778285D01*
X10131287Y-17768761D01*
X10121763Y-17749713D01*
X10112239Y-17711618D01*
X10112239Y-17663999D01*
X10121763Y-17625904D01*
X10131287Y-17606856D01*
X10140811Y-17597332D01*
X10159858Y-17587808D01*
X10407477Y-17587808D02*
X10312239Y-17587808D01*
X10302715Y-17683047D01*
X10312239Y-17673523D01*
X10331287Y-17663999D01*
X10378906Y-17663999D01*
X10397953Y-17673523D01*
X10407477Y-17683047D01*
X10417001Y-17702094D01*
X10417001Y-17749713D01*
X10407477Y-17768761D01*
X10397953Y-17778285D01*
X10378906Y-17787808D01*
X10331287Y-17787808D01*
X10312239Y-17778285D01*
X10302715Y-17768761D01*
X10512239Y-17787808D02*
X10550334Y-17787808D01*
X10569382Y-17778285D01*
X10578906Y-17768761D01*
X10597953Y-17740189D01*
X10607477Y-17702094D01*
X10607477Y-17625904D01*
X10597953Y-17606856D01*
X10588430Y-17597332D01*
X10569382Y-17587808D01*
X10531287Y-17587808D01*
X10512239Y-17597332D01*
X10502715Y-17606856D01*
X10493192Y-17625904D01*
X10493192Y-17673523D01*
X10502715Y-17692570D01*
X10512239Y-17702094D01*
X10531287Y-17711618D01*
X10569382Y-17711618D01*
X10588430Y-17702094D01*
X10597953Y-17692570D01*
X10607477Y-17673523D01*
X10797953Y-17787808D02*
X10683668Y-17787808D01*
X10740811Y-17787808D02*
X10740811Y-17587808D01*
X10721763Y-17616380D01*
X10702715Y-17635428D01*
X10683668Y-17644951D01*
X10874144Y-17587808D02*
X10874144Y-17625904D01*
X10950334Y-17587808D02*
X10950334Y-17625904D01*
X11245572Y-17863999D02*
X11236049Y-17854475D01*
X11217001Y-17825904D01*
X11207477Y-17806856D01*
X11197953Y-17778285D01*
X11188430Y-17730666D01*
X11188430Y-17692570D01*
X11197953Y-17644951D01*
X11207477Y-17616380D01*
X11217001Y-17597332D01*
X11236049Y-17568761D01*
X11245572Y-17559237D01*
X11359858Y-17587808D02*
X11378906Y-17587808D01*
X11397953Y-17597332D01*
X11407477Y-17606856D01*
X11417001Y-17625904D01*
X11426525Y-17663999D01*
X11426525Y-17711618D01*
X11417001Y-17749713D01*
X11407477Y-17768761D01*
X11397953Y-17778285D01*
X11378906Y-17787808D01*
X11359858Y-17787808D01*
X11340810Y-17778285D01*
X11331287Y-17768761D01*
X11321763Y-17749713D01*
X11312239Y-17711618D01*
X11312239Y-17663999D01*
X11321763Y-17625904D01*
X11331287Y-17606856D01*
X11340810Y-17597332D01*
X11359858Y-17587808D01*
X11664620Y-17787808D02*
X11664620Y-17587808D01*
X11750334Y-17787808D02*
X11750334Y-17683047D01*
X11740810Y-17663999D01*
X11721763Y-17654475D01*
X11693191Y-17654475D01*
X11674144Y-17663999D01*
X11664620Y-17673523D01*
X11874144Y-17787808D02*
X11855096Y-17778285D01*
X11845572Y-17768761D01*
X11836049Y-17749713D01*
X11836049Y-17692570D01*
X11845572Y-17673523D01*
X11855096Y-17663999D01*
X11874144Y-17654475D01*
X11902715Y-17654475D01*
X11921763Y-17663999D01*
X11931287Y-17673523D01*
X11940810Y-17692570D01*
X11940810Y-17749713D01*
X11931287Y-17768761D01*
X11921763Y-17778285D01*
X11902715Y-17787808D01*
X11874144Y-17787808D01*
X12055096Y-17787808D02*
X12036049Y-17778285D01*
X12026525Y-17759237D01*
X12026525Y-17587808D01*
X12207477Y-17778285D02*
X12188430Y-17787808D01*
X12150334Y-17787808D01*
X12131287Y-17778285D01*
X12121763Y-17759237D01*
X12121763Y-17683047D01*
X12131287Y-17663999D01*
X12150334Y-17654475D01*
X12188430Y-17654475D01*
X12207477Y-17663999D01*
X12217001Y-17683047D01*
X12217001Y-17702094D01*
X12121763Y-17721142D01*
X12293191Y-17778285D02*
X12312239Y-17787808D01*
X12350334Y-17787808D01*
X12369382Y-17778285D01*
X12378906Y-17759237D01*
X12378906Y-17749713D01*
X12369382Y-17730666D01*
X12350334Y-17721142D01*
X12321763Y-17721142D01*
X12302715Y-17711618D01*
X12293191Y-17692570D01*
X12293191Y-17683047D01*
X12302715Y-17663999D01*
X12321763Y-17654475D01*
X12350334Y-17654475D01*
X12369382Y-17663999D01*
X12617001Y-17711618D02*
X12769382Y-17711618D01*
X12693191Y-17787808D02*
X12693191Y-17635428D01*
X13007477Y-17606856D02*
X13017001Y-17597332D01*
X13036049Y-17587808D01*
X13083668Y-17587808D01*
X13102715Y-17597332D01*
X13112239Y-17606856D01*
X13121763Y-17625904D01*
X13121763Y-17644951D01*
X13112239Y-17673523D01*
X12997953Y-17787808D01*
X13121763Y-17787808D01*
X13350334Y-17778285D02*
X13369382Y-17787808D01*
X13407477Y-17787808D01*
X13426525Y-17778285D01*
X13436049Y-17759237D01*
X13436049Y-17749713D01*
X13426525Y-17730666D01*
X13407477Y-17721142D01*
X13378906Y-17721142D01*
X13359858Y-17711618D01*
X13350334Y-17692570D01*
X13350334Y-17683047D01*
X13359858Y-17663999D01*
X13378906Y-17654475D01*
X13407477Y-17654475D01*
X13426525Y-17663999D01*
X13550334Y-17787808D02*
X13531287Y-17778285D01*
X13521763Y-17759237D01*
X13521763Y-17587808D01*
X13655096Y-17787808D02*
X13636049Y-17778285D01*
X13626525Y-17768761D01*
X13617001Y-17749713D01*
X13617001Y-17692570D01*
X13626525Y-17673523D01*
X13636049Y-17663999D01*
X13655096Y-17654475D01*
X13683668Y-17654475D01*
X13702715Y-17663999D01*
X13712239Y-17673523D01*
X13721763Y-17692570D01*
X13721763Y-17749713D01*
X13712239Y-17768761D01*
X13702715Y-17778285D01*
X13683668Y-17787808D01*
X13655096Y-17787808D01*
X13778906Y-17654475D02*
X13855096Y-17654475D01*
X13807477Y-17587808D02*
X13807477Y-17759237D01*
X13817001Y-17778285D01*
X13836049Y-17787808D01*
X13855096Y-17787808D01*
X13912239Y-17778285D02*
X13931287Y-17787808D01*
X13969382Y-17787808D01*
X13988430Y-17778285D01*
X13997953Y-17759237D01*
X13997953Y-17749713D01*
X13988430Y-17730666D01*
X13969382Y-17721142D01*
X13940810Y-17721142D01*
X13921763Y-17711618D01*
X13912239Y-17692570D01*
X13912239Y-17683047D01*
X13921763Y-17663999D01*
X13940810Y-17654475D01*
X13969382Y-17654475D01*
X13988430Y-17663999D01*
X14064620Y-17863999D02*
X14074144Y-17854475D01*
X14093191Y-17825904D01*
X14102715Y-17806856D01*
X14112239Y-17778285D01*
X14121763Y-17730666D01*
X14121763Y-17692570D01*
X14112239Y-17644951D01*
X14102715Y-17616380D01*
X14093191Y-17597332D01*
X14074144Y-17568761D01*
X14064620Y-17559237D01*
M02*
