G04 #@! TF.GenerationSoftware,KiCad,Pcbnew,(6.0.1)*
G04 #@! TF.CreationDate,2022-02-23T16:18:42+00:00*
G04 #@! TF.ProjectId,Keyboard Right Hand Side,4b657962-6f61-4726-9420-526967687420,rev?*
G04 #@! TF.SameCoordinates,Original*
G04 #@! TF.FileFunction,Copper,L2,Bot*
G04 #@! TF.FilePolarity,Positive*
%FSLAX46Y46*%
G04 Gerber Fmt 4.6, Leading zero omitted, Abs format (unit mm)*
G04 Created by KiCad (PCBNEW (6.0.1)) date 2022-02-23 16:18:42*
%MOMM*%
%LPD*%
G01*
G04 APERTURE LIST*
G04 Aperture macros list*
%AMRoundRect*
0 Rectangle with rounded corners*
0 $1 Rounding radius*
0 $2 $3 $4 $5 $6 $7 $8 $9 X,Y pos of 4 corners*
0 Add a 4 corners polygon primitive as box body*
4,1,4,$2,$3,$4,$5,$6,$7,$8,$9,$2,$3,0*
0 Add four circle primitives for the rounded corners*
1,1,$1+$1,$2,$3*
1,1,$1+$1,$4,$5*
1,1,$1+$1,$6,$7*
1,1,$1+$1,$8,$9*
0 Add four rect primitives between the rounded corners*
20,1,$1+$1,$2,$3,$4,$5,0*
20,1,$1+$1,$4,$5,$6,$7,0*
20,1,$1+$1,$6,$7,$8,$9,0*
20,1,$1+$1,$8,$9,$2,$3,0*%
%AMHorizOval*
0 Thick line with rounded ends*
0 $1 width*
0 $2 $3 position (X,Y) of the first rounded end (center of the circle)*
0 $4 $5 position (X,Y) of the second rounded end (center of the circle)*
0 Add line between two ends*
20,1,$1,$2,$3,$4,$5,0*
0 Add two circle primitives to create the rounded ends*
1,1,$1,$2,$3*
1,1,$1,$4,$5*%
G04 Aperture macros list end*
G04 #@! TA.AperFunction,Profile*
%ADD10C,0.200000*%
G04 #@! TD*
G04 #@! TA.AperFunction,ComponentPad*
%ADD11C,2.250000*%
G04 #@! TD*
G04 #@! TA.AperFunction,ComponentPad*
%ADD12HorizOval,2.250000X0.655001X0.730000X-0.655001X-0.730000X0*%
G04 #@! TD*
G04 #@! TA.AperFunction,ComponentPad*
%ADD13HorizOval,2.250000X0.020000X0.290000X-0.020000X-0.290000X0*%
G04 #@! TD*
G04 #@! TA.AperFunction,ComponentPad*
%ADD14C,2.000000*%
G04 #@! TD*
G04 #@! TA.AperFunction,ComponentPad*
%ADD15C,1.500000*%
G04 #@! TD*
G04 #@! TA.AperFunction,ComponentPad*
%ADD16R,2.000000X2.000000*%
G04 #@! TD*
G04 #@! TA.AperFunction,ComponentPad*
%ADD17R,3.200000X2.000000*%
G04 #@! TD*
G04 #@! TA.AperFunction,ComponentPad*
%ADD18C,1.397000*%
G04 #@! TD*
G04 #@! TA.AperFunction,ComponentPad*
%ADD19C,1.752600*%
G04 #@! TD*
G04 #@! TA.AperFunction,ComponentPad*
%ADD20C,2.800000*%
G04 #@! TD*
G04 #@! TA.AperFunction,SMDPad,CuDef*
%ADD21R,1.200000X0.900000*%
G04 #@! TD*
G04 #@! TA.AperFunction,SMDPad,CuDef*
%ADD22RoundRect,0.140000X-0.140000X-0.170000X0.140000X-0.170000X0.140000X0.170000X-0.140000X0.170000X0*%
G04 #@! TD*
G04 #@! TA.AperFunction,SMDPad,CuDef*
%ADD23R,1.500000X1.000000*%
G04 #@! TD*
G04 #@! TA.AperFunction,SMDPad,CuDef*
%ADD24RoundRect,0.140000X0.170000X-0.140000X0.170000X0.140000X-0.170000X0.140000X-0.170000X-0.140000X0*%
G04 #@! TD*
G04 #@! TA.AperFunction,ViaPad*
%ADD25C,0.800000*%
G04 #@! TD*
G04 #@! TA.AperFunction,Conductor*
%ADD26C,0.250000*%
G04 #@! TD*
G04 APERTURE END LIST*
D10*
X264793323Y-41276677D02*
G75*
G03*
X260983323Y-37466677I-3809999J1D01*
G01*
X260983323Y-146683323D02*
G75*
G03*
X264793323Y-142873323I1J3809999D01*
G01*
X80646677Y-37466677D02*
X260983323Y-37466677D01*
X76836677Y-142873323D02*
X76836677Y-41276677D01*
X260983323Y-146683323D02*
X80646677Y-146683323D01*
X80646677Y-37466677D02*
G75*
G03*
X76836677Y-41276677I-1J-3809999D01*
G01*
X76836677Y-142873323D02*
G75*
G03*
X80646677Y-146683323I3809999J-1D01*
G01*
X264793323Y-41276677D02*
X264793323Y-142873323D01*
D11*
X169557300Y-88083000D03*
D12*
X168902301Y-88813000D03*
D13*
X174577300Y-87293000D03*
D11*
X174597300Y-87003000D03*
D12*
X187952301Y-126913000D03*
D11*
X188607300Y-126183000D03*
D13*
X193627300Y-125393000D03*
D11*
X193647300Y-125103000D03*
D12*
X187952301Y-69763000D03*
D11*
X188607300Y-69033000D03*
D13*
X193627300Y-68243000D03*
D11*
X193647300Y-67953000D03*
X131457300Y-107133000D03*
D12*
X130802301Y-107863000D03*
D11*
X136497300Y-106053000D03*
D13*
X136477300Y-106343000D03*
D12*
X130802301Y-88813000D03*
D11*
X131457300Y-88083000D03*
D13*
X136477300Y-87293000D03*
D11*
X136497300Y-87003000D03*
X207657300Y-88083000D03*
D12*
X207002301Y-88813000D03*
D13*
X212677300Y-87293000D03*
D11*
X212697300Y-87003000D03*
D12*
X111752301Y-50713000D03*
D11*
X112407300Y-49983000D03*
D13*
X117427300Y-49193000D03*
D11*
X117447300Y-48903000D03*
X226707300Y-107133000D03*
D12*
X226052301Y-107863000D03*
D11*
X231747300Y-106053000D03*
D13*
X231727300Y-106343000D03*
D12*
X168902301Y-50713000D03*
D11*
X169557300Y-49983000D03*
D13*
X174577300Y-49193000D03*
D11*
X174597300Y-48903000D03*
D12*
X226052301Y-88813000D03*
D11*
X226707300Y-88083000D03*
D13*
X231727300Y-87293000D03*
D11*
X231747300Y-87003000D03*
X150507300Y-69033000D03*
D12*
X149852301Y-69763000D03*
D13*
X155527300Y-68243000D03*
D11*
X155547300Y-67953000D03*
D12*
X168902301Y-69763000D03*
D11*
X169557300Y-69033000D03*
X174597300Y-67953000D03*
D13*
X174577300Y-68243000D03*
D11*
X112407300Y-126183000D03*
D12*
X111752301Y-126913000D03*
D13*
X117427300Y-125393000D03*
D11*
X117447300Y-125103000D03*
D12*
X130802301Y-126913000D03*
D11*
X131457300Y-126183000D03*
D13*
X136477300Y-125393000D03*
D11*
X136497300Y-125103000D03*
X245757300Y-126183000D03*
D12*
X245102301Y-126913000D03*
D13*
X250777300Y-125393000D03*
D11*
X250797300Y-125103000D03*
D14*
X87630000Y-91730000D03*
X94130000Y-91730000D03*
X87630000Y-96230000D03*
X94130000Y-96230000D03*
D11*
X188607300Y-107133000D03*
D12*
X187952301Y-107863000D03*
D13*
X193627300Y-106343000D03*
D11*
X193647300Y-106053000D03*
X150507300Y-49983000D03*
D12*
X149852301Y-50713000D03*
D13*
X155527300Y-49193000D03*
D11*
X155547300Y-48903000D03*
X131457300Y-69033000D03*
D12*
X130802301Y-69763000D03*
D13*
X136477300Y-68243000D03*
D11*
X136497300Y-67953000D03*
D12*
X187952301Y-88813000D03*
D11*
X188607300Y-88083000D03*
D13*
X193627300Y-87293000D03*
D11*
X193647300Y-87003000D03*
X226707300Y-69033000D03*
D12*
X226052301Y-69763000D03*
D11*
X231747300Y-67953000D03*
D13*
X231727300Y-68243000D03*
D12*
X245102301Y-69763000D03*
D11*
X245757300Y-69033000D03*
D13*
X250777300Y-68243000D03*
D11*
X250797300Y-67953000D03*
D12*
X168902301Y-107863000D03*
D11*
X169557300Y-107133000D03*
D13*
X174577300Y-106343000D03*
D11*
X174597300Y-106053000D03*
X207657300Y-69033000D03*
D12*
X207002301Y-69763000D03*
D13*
X212677300Y-68243000D03*
D11*
X212697300Y-67953000D03*
D12*
X168902301Y-126913000D03*
D11*
X169557300Y-126183000D03*
X174597300Y-125103000D03*
D13*
X174577300Y-125393000D03*
D12*
X149852301Y-126913000D03*
D11*
X150507300Y-126183000D03*
D13*
X155527300Y-125393000D03*
D11*
X155547300Y-125103000D03*
X131457300Y-49983000D03*
D12*
X130802301Y-50713000D03*
D11*
X136497300Y-48903000D03*
D13*
X136477300Y-49193000D03*
D15*
X241275000Y-51470000D03*
X241275000Y-56470000D03*
D16*
X255775000Y-56470000D03*
D14*
X255775000Y-51470000D03*
X255775000Y-53970000D03*
D17*
X248275000Y-48370000D03*
X248275000Y-59570000D03*
D11*
X245772300Y-97603000D03*
D12*
X245117301Y-98333000D03*
D13*
X250792300Y-96813000D03*
D11*
X250812300Y-96523000D03*
X226707300Y-49983000D03*
D12*
X226052301Y-50713000D03*
D11*
X231747300Y-48903000D03*
D13*
X231727300Y-49193000D03*
D12*
X245087301Y-107863000D03*
D11*
X245742300Y-107133000D03*
D13*
X250762300Y-106343000D03*
D11*
X250782300Y-106053000D03*
D12*
X111752301Y-69763000D03*
D11*
X112407300Y-69033000D03*
X117447300Y-67953000D03*
D13*
X117427300Y-68243000D03*
D11*
X207657300Y-49983000D03*
D12*
X207002301Y-50713000D03*
D11*
X212697300Y-48903000D03*
D13*
X212677300Y-49193000D03*
D12*
X149852301Y-107863000D03*
D11*
X150507300Y-107133000D03*
X155547300Y-106053000D03*
D13*
X155527300Y-106343000D03*
D11*
X226707300Y-126183000D03*
D12*
X226052301Y-126913000D03*
D11*
X231747300Y-125103000D03*
D13*
X231727300Y-125393000D03*
D18*
X94605000Y-86360000D03*
X92065000Y-86360000D03*
X89525000Y-86360000D03*
X86985000Y-86360000D03*
D11*
X207657300Y-126183000D03*
D12*
X207002301Y-126913000D03*
D13*
X212677300Y-125393000D03*
D11*
X212697300Y-125103000D03*
X207657300Y-107133000D03*
D12*
X207002301Y-107863000D03*
D11*
X212697300Y-106053000D03*
D13*
X212677300Y-106343000D03*
D19*
X83157300Y-48234750D03*
X83157300Y-50774750D03*
X83157300Y-53314750D03*
X83157300Y-55854750D03*
X83157300Y-58394750D03*
X83157300Y-60934750D03*
X83157300Y-63474750D03*
X83157300Y-66014750D03*
X83157300Y-68554750D03*
X83157300Y-71094750D03*
X83157300Y-73634750D03*
X83157300Y-76174750D03*
X98397300Y-76174750D03*
X98397300Y-73634750D03*
X98397300Y-71094750D03*
X98397300Y-68554750D03*
X98397300Y-66014750D03*
X98397300Y-63474750D03*
X98397300Y-60934750D03*
X98397300Y-58394750D03*
X98397300Y-55854750D03*
X98397300Y-53314750D03*
X98397300Y-50774750D03*
X98397300Y-48234750D03*
X85697300Y-71094750D03*
X88237300Y-71094750D03*
X90777300Y-71094750D03*
D12*
X111752301Y-107863000D03*
D11*
X112407300Y-107133000D03*
D13*
X117427300Y-106343000D03*
D11*
X117447300Y-106053000D03*
D20*
X90805000Y-137495000D03*
X90805000Y-99995000D03*
D12*
X149852301Y-88813000D03*
D11*
X150507300Y-88083000D03*
X155547300Y-87003000D03*
D13*
X155527300Y-87293000D03*
D11*
X112407300Y-88083000D03*
D12*
X111752301Y-88813000D03*
D13*
X117427300Y-87293000D03*
D11*
X117447300Y-87003000D03*
X188607300Y-49983000D03*
D12*
X187952301Y-50713000D03*
D13*
X193627300Y-49193000D03*
D11*
X193647300Y-48903000D03*
D12*
X245057301Y-88813000D03*
D11*
X245712300Y-88083000D03*
D13*
X250732300Y-87293000D03*
D11*
X250752300Y-87003000D03*
D21*
X237732300Y-74724800D03*
X237732300Y-71424800D03*
X199632300Y-55674800D03*
X199632300Y-52374800D03*
X199632300Y-112648000D03*
X199632300Y-109348000D03*
D22*
X113820000Y-120015000D03*
X114780000Y-120015000D03*
D23*
X174535000Y-61900000D03*
X174535000Y-65100000D03*
X169635000Y-65100000D03*
X169635000Y-61900000D03*
D21*
X180582300Y-55674800D03*
X180582300Y-52374800D03*
X256782300Y-96138000D03*
X256782300Y-92838000D03*
X161532300Y-112648000D03*
X161532300Y-109348000D03*
D23*
X241210000Y-119050000D03*
X241210000Y-122250000D03*
X236310000Y-122250000D03*
X236310000Y-119050000D03*
D21*
X161532300Y-55674800D03*
X161532300Y-52374800D03*
D24*
X166370000Y-63980000D03*
X166370000Y-63020000D03*
D21*
X237732300Y-55674800D03*
X237732300Y-52374800D03*
D24*
X233200000Y-63980000D03*
X233200000Y-63020000D03*
D23*
X174535000Y-119050000D03*
X174535000Y-122250000D03*
X169635000Y-122250000D03*
X169635000Y-119050000D03*
D21*
X180582300Y-131698000D03*
X180582300Y-128398000D03*
X123432300Y-55674800D03*
X123432300Y-52374800D03*
X256782300Y-103250000D03*
X256782300Y-99950000D03*
X161532300Y-131698000D03*
X161532300Y-128398000D03*
X256782300Y-110108000D03*
X256782300Y-106808000D03*
X199632300Y-74724800D03*
X199632300Y-71424800D03*
X161532300Y-74724800D03*
X161532300Y-71424800D03*
X218682300Y-112648000D03*
X218682300Y-109348000D03*
X180582300Y-112648000D03*
X180582300Y-109348000D03*
X142482300Y-131698000D03*
X142482300Y-128398000D03*
X142482300Y-93774800D03*
X142482300Y-90474800D03*
X256782300Y-131698000D03*
X256782300Y-128398000D03*
X199632300Y-131698000D03*
X199632300Y-128398000D03*
X123432300Y-112648000D03*
X123432300Y-109348000D03*
X199632300Y-93774800D03*
X199632300Y-90474800D03*
X180582300Y-74724800D03*
X180582300Y-71424800D03*
X237732300Y-131698000D03*
X237732300Y-128398000D03*
X237732300Y-110108000D03*
X237732300Y-106808000D03*
X123432300Y-74724800D03*
X123432300Y-71424800D03*
X218682300Y-131698000D03*
X218682300Y-128398000D03*
D24*
X103505000Y-63980000D03*
X103505000Y-63020000D03*
D21*
X142482300Y-112648000D03*
X142482300Y-109348000D03*
X142482300Y-55674800D03*
X142482300Y-52374800D03*
X218682300Y-93774800D03*
X218682300Y-90474800D03*
X123432300Y-93774800D03*
X123432300Y-90474800D03*
X218682300Y-74724800D03*
X218682300Y-71424800D03*
D23*
X111670000Y-61900000D03*
X111670000Y-65100000D03*
X106770000Y-65100000D03*
X106770000Y-61900000D03*
X241210000Y-61900000D03*
X241210000Y-65100000D03*
X236310000Y-65100000D03*
X236310000Y-61900000D03*
D21*
X180582300Y-93774800D03*
X180582300Y-90474800D03*
X161532300Y-93774800D03*
X161532300Y-90474800D03*
X256782300Y-74724800D03*
X256782300Y-71424800D03*
X237732300Y-96138000D03*
X237732300Y-92838000D03*
D23*
X111670000Y-119050000D03*
X111670000Y-122250000D03*
X106770000Y-122250000D03*
X106770000Y-119050000D03*
D21*
X123432300Y-131698000D03*
X123432300Y-128398000D03*
D24*
X167005000Y-121130000D03*
X167005000Y-120170000D03*
D21*
X142482300Y-74724800D03*
X142482300Y-71424800D03*
X218682300Y-55674800D03*
X218682300Y-52374800D03*
D24*
X233045000Y-121130000D03*
X233045000Y-120170000D03*
D25*
X88265000Y-76200000D03*
X258217500Y-54837500D03*
X113030000Y-116840000D03*
X102870000Y-66040000D03*
X258217500Y-53112500D03*
X112395000Y-120650000D03*
X108585000Y-120015000D03*
X92710000Y-54610000D03*
X92710000Y-68580000D03*
X90805000Y-68580000D03*
X92075000Y-52705000D03*
X102235000Y-122555000D03*
X106680000Y-125095000D03*
X236855000Y-59690000D03*
X238760000Y-68580000D03*
X247650000Y-57785000D03*
X120015000Y-60325000D03*
X120015000Y-57150000D03*
X240030000Y-59055000D03*
X101600000Y-57785000D03*
X257810000Y-59055000D03*
X101600000Y-56515000D03*
X247650000Y-53340000D03*
X118745000Y-59690000D03*
X241300000Y-58420000D03*
X257810000Y-48260000D03*
X118745000Y-56515000D03*
X104775000Y-60325000D03*
X104775000Y-64770000D03*
X106770000Y-115660000D03*
X109220000Y-67310000D03*
X96520000Y-59055000D03*
D26*
X108697300Y-77264799D02*
G75*
G02*
X107071280Y-76591280I3J2299546D01*
G01*
X119728218Y-77264800D02*
G75*
G03*
X121652096Y-76467903I-2J2720777D01*
G01*
X123413750Y-74724801D02*
G75*
G02*
X123445415Y-74737917I3J-44776D01*
G01*
X106718519Y-76238519D02*
G75*
G02*
X106045000Y-74612500I1626010J1626015D01*
G01*
X123382083Y-74737916D02*
G75*
G02*
X123413750Y-74724800I31662J-31657D01*
G01*
X127595059Y-77264800D02*
X127264540Y-77264800D01*
X110602300Y-77264800D02*
X108697300Y-77264800D01*
X106045000Y-73342500D02*
X106045000Y-73977500D01*
X106816467Y-65053528D02*
X106696041Y-65173954D01*
X106267939Y-65602056D02*
X106107916Y-65762079D01*
X107199197Y-64670802D02*
X107171152Y-64698846D01*
X105947893Y-65922102D02*
X105835714Y-66034281D01*
X106039866Y-65830130D02*
X106015944Y-65854052D01*
X106644697Y-65225299D02*
X106626960Y-65243036D01*
X96440623Y-77470000D02*
X96400936Y-77470000D01*
X105780655Y-66089340D02*
X105778594Y-66091402D01*
X96361249Y-77470000D02*
X96321562Y-77470000D01*
X96202500Y-77470000D02*
X96043750Y-77470000D01*
X96043750Y-77470000D02*
X95885000Y-77470000D01*
X107114030Y-64755966D02*
X107083921Y-64786073D01*
X96599374Y-77470000D02*
X96480311Y-77470000D01*
X96400936Y-77470000D02*
X96361249Y-77470000D01*
X97264140Y-77470000D02*
X97045859Y-77470000D01*
X97035938Y-77470000D02*
X96837500Y-77470000D01*
X95597264Y-77470000D02*
X95577421Y-77470000D01*
X107044948Y-64825047D02*
X106936893Y-64933102D01*
X106540141Y-65329854D02*
X106384241Y-65485754D01*
X105492370Y-66377626D02*
X105465013Y-66404985D01*
X105575474Y-66294522D02*
X105547429Y-66322567D01*
X95686562Y-77470000D02*
X95646873Y-77470000D01*
X105778594Y-66091402D02*
X105776533Y-66093463D01*
X106626960Y-65243036D02*
X106609223Y-65260773D01*
X96311640Y-77470000D02*
X96252109Y-77470000D01*
X95726250Y-77470000D02*
X95686562Y-77470000D01*
X96837500Y-77470000D02*
X96639062Y-77470000D01*
X95646873Y-77470000D02*
X95607186Y-77470000D01*
X106885958Y-64984037D02*
X106879773Y-64990223D01*
X98107500Y-77470000D02*
X97472500Y-77470000D01*
X105723536Y-66146461D02*
X105615480Y-66254517D01*
X106879773Y-64990223D02*
X106873588Y-64996408D01*
X95765938Y-77470000D02*
X95726250Y-77470000D01*
X107144139Y-64725859D02*
X107114030Y-64755966D01*
X95835390Y-77470000D02*
X95775859Y-77470000D01*
X106015944Y-65854052D02*
X105992022Y-65877974D01*
X105547429Y-66322567D02*
X105519384Y-66350612D01*
X169288189Y-120170000D02*
X169168279Y-120170000D01*
X171702835Y-120170000D02*
X171439920Y-120170000D01*
X167928644Y-120170000D02*
X167312881Y-120170000D01*
X172491582Y-120170000D02*
X172228666Y-120170000D01*
X169528009Y-120170000D02*
X169408099Y-120170000D01*
X168980307Y-120170000D02*
X168484453Y-120170000D01*
X165833428Y-120170000D02*
X163490284Y-120170000D01*
X171965750Y-120170000D02*
X171702835Y-120170000D01*
X169408099Y-120170000D02*
X169288189Y-120170000D01*
X167312881Y-120170000D02*
X166697118Y-120170000D01*
X170985592Y-120170000D02*
X170053840Y-120170000D01*
X163490284Y-120170000D02*
X161147140Y-120170000D01*
X161147140Y-120170000D02*
X158803996Y-120170000D01*
X169647919Y-120170000D02*
X169528009Y-120170000D01*
X166388750Y-63038750D02*
X166392500Y-63042500D01*
X166325000Y-62975000D02*
X166328750Y-62978750D01*
X111992500Y-61900000D02*
X111925312Y-61900000D01*
X166321250Y-62971250D02*
X166325000Y-62975000D01*
X112059688Y-61900000D02*
X111992500Y-61900000D01*
X111831249Y-61900000D02*
X111817812Y-61900000D01*
X166317500Y-62967500D02*
X166321250Y-62971250D01*
X111844686Y-61900000D02*
X111831249Y-61900000D01*
X166261250Y-62911250D02*
X166280000Y-62930000D01*
X166280000Y-62930000D02*
X166298750Y-62948750D01*
X166302500Y-62952500D02*
X166313750Y-62963750D01*
X111602812Y-61900000D02*
X111589373Y-61900000D01*
X111858123Y-61900000D02*
X111844686Y-61900000D01*
X111653203Y-61900000D02*
X111633047Y-61900000D01*
X166374687Y-63024687D02*
X166380312Y-63030312D01*
X111572577Y-61900000D02*
X111565859Y-61900000D01*
X166329687Y-62979687D02*
X166335312Y-62985312D01*
X166340000Y-62990000D02*
X166355000Y-63005000D01*
X166355000Y-63005000D02*
X166370000Y-63020000D01*
X111777500Y-61900000D02*
X111723750Y-61900000D01*
X111589373Y-61900000D02*
X111575936Y-61900000D01*
X111629688Y-61900000D02*
X111616250Y-61900000D01*
X112136953Y-61900000D02*
X112063047Y-61900000D01*
X166239687Y-62889687D02*
X166260312Y-62910312D01*
X166160000Y-62810000D02*
X166220000Y-62870000D01*
X111911874Y-61900000D02*
X111871561Y-61900000D01*
X111616250Y-61900000D02*
X111602812Y-61900000D01*
X166392500Y-63042500D02*
X166396250Y-63046250D01*
X166397187Y-63047187D02*
X166399062Y-63049062D01*
X112422500Y-61900000D02*
X112207500Y-61900000D01*
X111723750Y-61900000D02*
X111670000Y-61900000D01*
X166381250Y-63031250D02*
X166385000Y-63035000D01*
X166385000Y-63035000D02*
X166388750Y-63038750D01*
X111814453Y-61900000D02*
X111794297Y-61900000D01*
X233084674Y-63980000D02*
X233061609Y-63980000D01*
X167650348Y-121130000D02*
X167611395Y-121130000D01*
X166977204Y-121130000D02*
X166963307Y-121130000D01*
X167548808Y-121130000D02*
X167462586Y-121130000D01*
X166557016Y-121130000D02*
X166555279Y-121130000D01*
X166857734Y-63980000D02*
X166851110Y-63980000D01*
X167202498Y-121130000D02*
X167188601Y-121130000D01*
X166668326Y-121130000D02*
X166648215Y-121130000D01*
X233476779Y-63980000D02*
X233453714Y-63980000D01*
X166627369Y-121130000D02*
X166623894Y-121130000D01*
X233292260Y-63980000D02*
X233200000Y-63980000D01*
X166851110Y-63980000D02*
X166844486Y-63980000D01*
X166869326Y-63980000D02*
X166866014Y-63980000D01*
X233615169Y-63980000D02*
X233545974Y-63980000D01*
X166768547Y-121130000D02*
X166718437Y-121130000D01*
X166571781Y-121130000D02*
X166568307Y-121130000D01*
X166864358Y-63980000D02*
X166857734Y-63980000D01*
X233130804Y-63980000D02*
X233107739Y-63980000D01*
X233061609Y-63980000D02*
X233038544Y-63980000D01*
X234491640Y-63980000D02*
X234122600Y-63980000D01*
X168719913Y-121130000D02*
X168450087Y-121130000D01*
X167886801Y-121130000D02*
X167742150Y-121130000D01*
X234001509Y-63980000D02*
X233874651Y-63980000D01*
X233032778Y-63980000D02*
X233021246Y-63980000D01*
X166794286Y-121130000D02*
X166792917Y-121130000D01*
X166568307Y-121130000D02*
X166564833Y-121130000D01*
X233107739Y-63980000D02*
X233084674Y-63980000D01*
X166659017Y-63980000D02*
X166625898Y-63980000D01*
X166817988Y-63980000D02*
X166791493Y-63980000D01*
X166836205Y-63980000D02*
X166826267Y-63980000D01*
X233868884Y-63980000D02*
X233753559Y-63980000D01*
X233522909Y-63980000D02*
X233499844Y-63980000D01*
X166642686Y-121130000D02*
X166633633Y-121130000D01*
X166596100Y-121130000D02*
X166582203Y-121130000D01*
X166685882Y-121130000D02*
X166670882Y-121130000D01*
X166624242Y-63980000D02*
X166587811Y-63980000D01*
X166731880Y-63980000D02*
X166725256Y-63980000D01*
X166844486Y-63980000D02*
X166837862Y-63980000D01*
X166564833Y-121130000D02*
X166561359Y-121130000D01*
X233171169Y-63980000D02*
X233136571Y-63980000D01*
X166692136Y-63980000D02*
X166659017Y-63980000D01*
X233384520Y-63980000D02*
X233292260Y-63980000D01*
X167188601Y-121130000D02*
X167174704Y-121130000D01*
X168189999Y-121130000D02*
X167939650Y-121130000D01*
X169770000Y-121130000D02*
X168980000Y-121130000D01*
X166745128Y-63980000D02*
X166738504Y-63980000D01*
X167611395Y-121130000D02*
X167572442Y-121130000D01*
X167689301Y-121130000D02*
X167650348Y-121130000D01*
X167004998Y-121130000D02*
X166991101Y-121130000D01*
X166630844Y-121130000D02*
X166627369Y-121130000D01*
X166553036Y-63980000D02*
X166447054Y-63980000D01*
X166577860Y-121130000D02*
X166572649Y-121130000D01*
X166738504Y-63980000D02*
X166731880Y-63980000D01*
X166561359Y-121130000D02*
X166557885Y-121130000D01*
X166874244Y-121130000D02*
X166821395Y-121130000D01*
X167343675Y-121130000D02*
X167244925Y-121130000D01*
X166609997Y-121130000D02*
X166596100Y-121130000D01*
X166619551Y-121130000D02*
X166614340Y-121130000D01*
X233447948Y-63980000D02*
X233413351Y-63980000D01*
X166718632Y-63980000D02*
X166698760Y-63980000D01*
X233499844Y-63980000D02*
X233476779Y-63980000D01*
X167174704Y-121130000D02*
X167160807Y-121130000D01*
X233753559Y-63980000D02*
X233638234Y-63980000D01*
X166991101Y-121130000D02*
X166977204Y-121130000D01*
X166700882Y-121130000D02*
X166685882Y-121130000D01*
X166756718Y-63980000D02*
X166746783Y-63980000D01*
X166791493Y-63980000D02*
X166764998Y-63980000D01*
X166795655Y-121130000D02*
X166794286Y-121130000D01*
X168440348Y-121130000D02*
X168189999Y-121130000D01*
X166623894Y-121130000D02*
X166620419Y-121130000D01*
X106045000Y-73342500D02*
X106045000Y-73025000D01*
X106045000Y-74612500D02*
X106045000Y-73977500D01*
X107071280Y-76591280D02*
X106718519Y-76238519D01*
X119728218Y-77264800D02*
X110602300Y-77264800D01*
X121652096Y-76467903D02*
X123382083Y-74737916D01*
X127264540Y-77264800D02*
X127099281Y-77264800D01*
X127595059Y-77264800D02*
X138815318Y-77264800D01*
X123445416Y-74737916D02*
X125175403Y-76467903D01*
X143189406Y-75431906D02*
X144225403Y-76467903D01*
X161504652Y-74752447D02*
X159789196Y-76467903D01*
X161559947Y-74830647D02*
X163275403Y-76546103D01*
X176837118Y-77343000D02*
X165199281Y-77343000D01*
X180554652Y-74752447D02*
X178760996Y-76546103D01*
X195887118Y-77343000D02*
X184249281Y-77343000D01*
X180609947Y-74830647D02*
X182325403Y-76546103D01*
X199604652Y-74752447D02*
X197810996Y-76546103D01*
X220425403Y-76546103D02*
X218709947Y-74830647D01*
X222349281Y-77343000D02*
X233987118Y-77343000D01*
X237704652Y-74752447D02*
X235910996Y-76546103D01*
X239475403Y-76546103D02*
X237759947Y-74830647D01*
X254960996Y-76546103D02*
X256782300Y-74724800D01*
X201375403Y-76546103D02*
X199659947Y-74830647D01*
X125175403Y-76467903D02*
G75*
G03*
X127099281Y-77264800I1923880J1923880D01*
G01*
X141775193Y-75431906D02*
X140739196Y-76467903D01*
X140739196Y-76467903D02*
G75*
G02*
X138815318Y-77264800I-1923880J1923880D01*
G01*
X143189406Y-75431906D02*
G75*
G03*
X141775193Y-75431906I-707106J-707107D01*
G01*
X203299281Y-77343000D02*
X214937118Y-77343000D01*
X144225403Y-76467903D02*
G75*
G03*
X146149281Y-77264800I1923880J1923880D01*
G01*
X161504652Y-74752447D02*
G75*
G02*
X161532300Y-74763900I11452J-11452D01*
G01*
X161532301Y-74763900D02*
G75*
G03*
X161559948Y-74830646I94393J-1D01*
G01*
X178760996Y-76546103D02*
G75*
G02*
X176837118Y-77343000I-1923880J1923880D01*
G01*
X165199281Y-77343000D02*
G75*
G02*
X163275403Y-76546103I2J2720777D01*
G01*
X180582299Y-74763900D02*
G75*
G03*
X180554652Y-74752447I-16195J1D01*
G01*
X180582301Y-74763900D02*
G75*
G03*
X180609948Y-74830646I94393J-1D01*
G01*
X182325403Y-76546103D02*
G75*
G03*
X184249281Y-77343000I1923880J1923880D01*
G01*
X197810996Y-76546103D02*
G75*
G02*
X195887118Y-77343000I-1923880J1923880D01*
G01*
X199632299Y-74763900D02*
G75*
G03*
X199604652Y-74752447I-16195J1D01*
G01*
X199659947Y-74830647D02*
G75*
G02*
X199632300Y-74763900I66747J66746D01*
G01*
X241399281Y-77343000D02*
X253037118Y-77343000D01*
X201375403Y-76546103D02*
G75*
G03*
X203299281Y-77343000I1923880J1923880D01*
G01*
X159789196Y-76467903D02*
G75*
G02*
X157865318Y-77264800I-1923880J1923880D01*
G01*
X218654652Y-74752447D02*
X216860996Y-76546103D01*
X214937118Y-77343000D02*
G75*
G03*
X216860996Y-76546103I-2J2720777D01*
G01*
X218709947Y-74830647D02*
G75*
G02*
X218682300Y-74763900I66747J66746D01*
G01*
X220425403Y-76546103D02*
G75*
G03*
X222349281Y-77343000I1923880J1923880D01*
G01*
X237732299Y-74763900D02*
G75*
G03*
X237704652Y-74752447I-16195J1D01*
G01*
X233987118Y-77343000D02*
G75*
G03*
X235910996Y-76546103I-2J2720777D01*
G01*
X237759947Y-74830647D02*
G75*
G02*
X237732300Y-74763900I66747J66746D01*
G01*
X239475403Y-76546103D02*
G75*
G03*
X241399281Y-77343000I1923880J1923880D01*
G01*
X253037118Y-77343000D02*
G75*
G03*
X254960996Y-76546103I-2J2720777D01*
G01*
X218682299Y-74763900D02*
G75*
G03*
X218654652Y-74752447I-16195J1D01*
G01*
X157865318Y-77264800D02*
X146149281Y-77264800D01*
X105492370Y-66377626D02*
X105519384Y-66350612D01*
X107083921Y-64786073D02*
X107044948Y-64825047D01*
X105575474Y-66294522D02*
X105615480Y-66254517D01*
X107171152Y-64698846D02*
X107144139Y-64725859D01*
X95885000Y-77470000D02*
X95835390Y-77470000D01*
X106936893Y-64933102D02*
X106885958Y-64984037D01*
X106540141Y-65329854D02*
X106609223Y-65260773D01*
X106696041Y-65173954D02*
X106644697Y-65225299D01*
X96202500Y-77470000D02*
X96252109Y-77470000D01*
X95597264Y-77470000D02*
X95607186Y-77470000D01*
X105947893Y-65922102D02*
X105992022Y-65877974D01*
X97264140Y-77470000D02*
X97472500Y-77470000D01*
X106107916Y-65762079D02*
X106039866Y-65830130D01*
X105835714Y-66034281D02*
X105780655Y-66089340D01*
X96599374Y-77470000D02*
X96639062Y-77470000D01*
X106816467Y-65053528D02*
X106873588Y-64996408D01*
X105776533Y-66093463D02*
X105723536Y-66146461D01*
X171439920Y-120170000D02*
X170985592Y-120170000D01*
X167928644Y-120170000D02*
X168484453Y-120170000D01*
X165833428Y-120170000D02*
X166697118Y-120170000D01*
X172228666Y-120170000D02*
X171965750Y-120170000D01*
X111572577Y-61900000D02*
X111575936Y-61900000D01*
X111653203Y-61900000D02*
X111670000Y-61900000D01*
X111925312Y-61900000D02*
X111911874Y-61900000D01*
X111777500Y-61900000D02*
X111794297Y-61900000D01*
X166396250Y-63046250D02*
X166397187Y-63047187D01*
X166374687Y-63024687D02*
X166370000Y-63020000D01*
X166335312Y-62985312D02*
X166340000Y-62990000D01*
X166298750Y-62948750D02*
X166302500Y-62952500D01*
X166239687Y-62889687D02*
X166220000Y-62870000D01*
X112136953Y-61900000D02*
X112207500Y-61900000D01*
X245584538Y-66836896D02*
G75*
G02*
X247508416Y-66040000I1923876J-1923874D01*
G01*
X166718437Y-121130000D02*
X166700882Y-121130000D01*
X166821395Y-121130000D02*
X166795655Y-121130000D01*
X166609997Y-121130000D02*
X166614340Y-121130000D01*
X166648215Y-121130000D02*
X166642686Y-121130000D01*
X233384520Y-63980000D02*
X233413351Y-63980000D01*
X166866014Y-63980000D02*
X166864358Y-63980000D01*
X166587811Y-63980000D02*
X166553036Y-63980000D01*
X233200000Y-63980000D02*
X233171169Y-63980000D01*
X166557016Y-121130000D02*
X166557885Y-121130000D01*
X233038544Y-63980000D02*
X233032778Y-63980000D01*
X166768547Y-121130000D02*
X166792917Y-121130000D01*
X167886801Y-121130000D02*
X167939650Y-121130000D01*
X166668326Y-121130000D02*
X166670882Y-121130000D01*
X168719913Y-121130000D02*
X168980000Y-121130000D01*
X166692136Y-63980000D02*
X166698760Y-63980000D01*
X166756718Y-63980000D02*
X166764998Y-63980000D01*
X234122600Y-63980000D02*
X234001509Y-63980000D01*
X166582203Y-121130000D02*
X166577860Y-121130000D01*
X233615169Y-63980000D02*
X233638234Y-63980000D01*
X167462586Y-121130000D02*
X167343675Y-121130000D01*
X166817988Y-63980000D02*
X166826267Y-63980000D01*
X259900987Y-66040000D02*
X247508416Y-66040000D01*
X243913821Y-68507614D02*
X245584538Y-66836896D01*
X96440623Y-77470000D02*
X96480311Y-77470000D01*
X97045859Y-77470000D02*
X97035938Y-77470000D01*
X106267939Y-65602056D02*
X106384241Y-65485754D01*
X95765938Y-77470000D02*
X95775859Y-77470000D01*
X96321562Y-77470000D02*
X96311640Y-77470000D01*
X111858123Y-61900000D02*
X111871561Y-61900000D01*
X111633047Y-61900000D02*
X111629688Y-61900000D01*
X166380312Y-63030312D02*
X166381250Y-63031250D01*
X166328750Y-62978750D02*
X166329687Y-62979687D01*
X112059688Y-61900000D02*
X112063047Y-61900000D01*
X166317500Y-62967500D02*
X166313750Y-62963750D01*
X166261250Y-62911250D02*
X166260312Y-62910312D01*
X111817812Y-61900000D02*
X111814453Y-61900000D01*
X233130804Y-63980000D02*
X233136571Y-63980000D01*
X166633633Y-121130000D02*
X166630844Y-121130000D01*
X166571781Y-121130000D02*
X166572649Y-121130000D01*
X167004998Y-121130000D02*
X167160807Y-121130000D01*
X166619551Y-121130000D02*
X166620419Y-121130000D01*
X166745128Y-63980000D02*
X166746783Y-63980000D01*
X167742150Y-121130000D02*
X167689301Y-121130000D01*
X167202498Y-121130000D02*
X167244925Y-121130000D01*
X168450087Y-121130000D02*
X168440348Y-121130000D01*
X166725256Y-63980000D02*
X166718632Y-63980000D01*
X233874651Y-63980000D02*
X233868884Y-63980000D01*
X166963307Y-121130000D02*
X166874244Y-121130000D01*
X166625898Y-63980000D02*
X166624242Y-63980000D01*
X166836205Y-63980000D02*
X166837862Y-63980000D01*
X233453714Y-63980000D02*
X233447948Y-63980000D01*
X233545974Y-63980000D02*
X233522909Y-63980000D01*
X167548808Y-121130000D02*
X167572442Y-121130000D01*
X255272500Y-54472500D02*
G75*
G02*
X254059357Y-54975000I-1213146J1213151D01*
G01*
X255272500Y-54472500D02*
X255775000Y-53970000D01*
X254059357Y-54975000D02*
X247266626Y-54975000D01*
X245559520Y-53267893D02*
X245559520Y-47886800D01*
X82364013Y-45270480D02*
X242943199Y-45270480D01*
X80830480Y-46804013D02*
X80830480Y-58922621D01*
X83370987Y-59690000D02*
X81597858Y-59690000D01*
X246059520Y-54475000D02*
G75*
G03*
X247266626Y-54975000I1207107J1207108D01*
G01*
X242943199Y-45270480D02*
G75*
G02*
X244793217Y-46036782I1J-2616319D01*
G01*
X246059520Y-54475000D02*
G75*
G02*
X245559520Y-53267893I1207101J1207105D01*
G01*
X81279641Y-45719641D02*
G75*
G03*
X80830480Y-46804013I1084372J-1084371D01*
G01*
X81279641Y-45719641D02*
G75*
G02*
X82364013Y-45270480I1084371J-1084372D01*
G01*
X245559520Y-47886800D02*
G75*
G03*
X244793217Y-46036782I-2616321J-1D01*
G01*
X81597858Y-59689999D02*
G75*
G02*
X81055241Y-59465239I3J767384D01*
G01*
X81055240Y-59465240D02*
G75*
G02*
X80830480Y-58922621I542618J542618D01*
G01*
X83370987Y-59690000D02*
G75*
G03*
X84137500Y-59372500I-4J1084022D01*
G01*
X80645001Y-85275987D02*
G75*
G03*
X80962501Y-86042499I1084010J-1D01*
G01*
X81729012Y-86360000D02*
G75*
G02*
X80962500Y-86042500I1J1084013D01*
G01*
X87356974Y-85090000D02*
G75*
G02*
X88890000Y-85725000I-1J-2168028D01*
G01*
X81597500Y-84772500D02*
G75*
G02*
X81280000Y-84005987I766511J766512D01*
G01*
X81597500Y-84772500D02*
G75*
G03*
X82364012Y-85090000I766513J766513D01*
G01*
X169168279Y-120170000D02*
X168980307Y-120170000D01*
X170053840Y-120170000D02*
X169647919Y-120170000D01*
X80645000Y-62061867D02*
X80645000Y-85275987D01*
X81772117Y-60934750D02*
X83157300Y-60934750D01*
X80975125Y-61264875D02*
G75*
G03*
X80645000Y-62061867I796984J-796989D01*
G01*
X81772117Y-60934750D02*
G75*
G03*
X80975125Y-61264875I-3J-1127109D01*
G01*
X81729012Y-86360000D02*
X86985000Y-86360000D01*
X88890000Y-85725000D02*
X89525000Y-86360000D01*
X81280000Y-64601867D02*
G75*
G02*
X81610125Y-63804875I1127109J3D01*
G01*
X81280000Y-84005987D02*
X81280000Y-64601867D01*
X82364012Y-85090000D02*
X87356974Y-85090000D01*
X82407117Y-63474750D02*
G75*
G03*
X81610125Y-63804875I-3J-1127109D01*
G01*
X82407117Y-63474750D02*
X83157300Y-63474750D01*
X94605000Y-78571083D02*
X94605000Y-86360000D01*
X86360000Y-62086981D02*
X86360000Y-66929498D01*
X86898111Y-73866574D02*
X86898111Y-68228612D01*
X88265000Y-76200000D02*
X87581555Y-75516555D01*
X84455000Y-58234012D02*
X84455000Y-58605987D01*
X83370987Y-57150000D02*
X83130166Y-57150000D01*
X81729520Y-55749353D02*
X81729520Y-55536025D01*
X85563103Y-60163103D02*
X84772500Y-59372500D01*
X82290605Y-54181444D02*
X83157300Y-53314750D01*
X84137500Y-57467500D02*
G75*
G02*
X84455000Y-58234012I-766513J-766513D01*
G01*
X84455001Y-58605987D02*
G75*
G03*
X84772501Y-59372499I1084010J-1D01*
G01*
X84772500Y-59372500D02*
G75*
G03*
X84137500Y-59372500I-317500J-317499D01*
G01*
X86360000Y-62086981D02*
G75*
G03*
X85563103Y-60163103I-2720777J-2D01*
G01*
X82139760Y-56739760D02*
G75*
G03*
X83130166Y-57150000I990406J990405D01*
G01*
X86629055Y-67579055D02*
G75*
G02*
X86898111Y-68228612I-649561J-649560D01*
G01*
X87581555Y-75516555D02*
G75*
G02*
X86898111Y-73866574I1649980J1649980D01*
G01*
X84455000Y-58605987D02*
G75*
G02*
X84137500Y-59372500I-1084022J4D01*
G01*
X86360000Y-66929498D02*
G75*
G03*
X86629055Y-67579055I918615J1D01*
G01*
X81729520Y-55749353D02*
G75*
G03*
X82139760Y-56739760I1400639J-3D01*
G01*
X84137500Y-57467500D02*
G75*
G03*
X83370987Y-57150000I-766512J-766511D01*
G01*
X81729520Y-55536025D02*
G75*
G02*
X82290605Y-54181444I1915665J1D01*
G01*
X201375403Y-95596103D02*
X199659947Y-93880647D01*
X181289406Y-94481906D02*
X182403603Y-95596103D01*
X142454652Y-93802447D02*
X140660996Y-95596103D01*
X218654652Y-93802447D02*
X216860996Y-95596103D01*
X162239406Y-94481906D02*
X163353603Y-95596103D01*
X222094281Y-96138000D02*
X236979577Y-96138000D01*
X195887118Y-96393000D02*
X184327481Y-96393000D01*
X109711981Y-96520000D02*
X119560118Y-96520000D01*
X256010022Y-96138000D02*
X256782300Y-96138000D01*
X214937118Y-96393000D02*
X203299281Y-96393000D01*
X103641646Y-71891646D02*
X104613103Y-72863103D01*
X160825193Y-94481906D02*
X159710996Y-95596103D01*
X144225403Y-95596103D02*
X142509947Y-93880647D01*
X107788103Y-95723103D02*
X106206896Y-94141896D01*
X121483996Y-95723103D02*
X123404652Y-93802447D01*
X218709947Y-93880647D02*
X220170403Y-95341103D01*
X179875193Y-94481906D02*
X178760996Y-95596103D01*
X105410000Y-92218018D02*
X105410000Y-74786981D01*
X176837118Y-96393000D02*
X165277481Y-96393000D01*
X125175403Y-95596103D02*
X123459947Y-93880647D01*
X253440066Y-95073489D02*
X239549533Y-95073489D01*
X146149281Y-96393000D02*
X157787118Y-96393000D01*
X101717768Y-71094750D02*
X98397300Y-71094750D01*
X127099281Y-96393000D02*
X138737118Y-96393000D01*
X199604652Y-93802447D02*
X197810996Y-95596103D01*
X254725044Y-95605744D02*
G75*
G03*
X256010022Y-96138000I1284979J1284978D01*
G01*
X184327481Y-96393000D02*
G75*
G02*
X182403603Y-95596103I2J2720777D01*
G01*
X104613103Y-72863103D02*
G75*
G02*
X105410000Y-74786981I-1923880J-1923880D01*
G01*
X163353603Y-95596103D02*
G75*
G03*
X165277481Y-96393000I1923880J1923880D01*
G01*
X218682301Y-93813900D02*
G75*
G03*
X218709948Y-93880646I94393J-1D01*
G01*
X107788103Y-95723103D02*
G75*
G03*
X109711981Y-96520000I1923880J1923880D01*
G01*
X159710996Y-95596103D02*
G75*
G02*
X157787118Y-96393000I-1923880J1923880D01*
G01*
X162239406Y-94481906D02*
G75*
G03*
X160825193Y-94481906I-707106J-707107D01*
G01*
X121483996Y-95723103D02*
G75*
G02*
X119560118Y-96520000I-1923880J1923880D01*
G01*
X199632301Y-93813900D02*
G75*
G03*
X199659948Y-93880646I94393J-1D01*
G01*
X254725044Y-95605744D02*
G75*
G03*
X253440066Y-95073489I-1284975J-1284973D01*
G01*
X216860996Y-95596103D02*
G75*
G02*
X214937118Y-96393000I-1923880J1923880D01*
G01*
X142482301Y-93813900D02*
G75*
G03*
X142509948Y-93880646I94393J-1D01*
G01*
X203299281Y-96393000D02*
G75*
G02*
X201375403Y-95596103I2J2720777D01*
G01*
X181289406Y-94481906D02*
G75*
G03*
X179875193Y-94481906I-707106J-707107D01*
G01*
X199632299Y-93813900D02*
G75*
G03*
X199604652Y-93802447I-16195J1D01*
G01*
X125175403Y-95596103D02*
G75*
G03*
X127099281Y-96393000I1923880J1923880D01*
G01*
X101717768Y-71094750D02*
G75*
G02*
X103641646Y-71891646I2J-2720770D01*
G01*
X220170403Y-95341103D02*
G75*
G03*
X222094281Y-96138000I1923880J1923880D01*
G01*
X238264555Y-95605744D02*
G75*
G02*
X236979577Y-96138000I-1284979J1284978D01*
G01*
X123432301Y-93813900D02*
G75*
G03*
X123459948Y-93880646I94393J-1D01*
G01*
X197810996Y-95596103D02*
G75*
G02*
X195887118Y-96393000I-1923880J1923880D01*
G01*
X178760996Y-95596103D02*
G75*
G02*
X176837118Y-96393000I-1923880J1923880D01*
G01*
X140660996Y-95596103D02*
G75*
G02*
X138737118Y-96393000I-1923880J1923880D01*
G01*
X218682299Y-93813900D02*
G75*
G03*
X218654652Y-93802447I-16195J1D01*
G01*
X123432299Y-93813900D02*
G75*
G03*
X123404652Y-93802447I-16195J1D01*
G01*
X142482299Y-93813900D02*
G75*
G03*
X142454652Y-93802447I-16195J1D01*
G01*
X238264555Y-95605744D02*
G75*
G02*
X239549533Y-95073489I1284975J-1284973D01*
G01*
X144225403Y-95596103D02*
G75*
G03*
X146149281Y-96393000I1923880J1923880D01*
G01*
X106206896Y-94141896D02*
G75*
G02*
X105410000Y-92218018I1923874J1923876D01*
G01*
X142292300Y-112648000D02*
X142354800Y-112648000D01*
X234065318Y-115443000D02*
X222604281Y-115443000D01*
X257384777Y-103250000D02*
X256782300Y-103250000D01*
X182580403Y-114646103D02*
X181289406Y-113355106D01*
X161659800Y-112648000D02*
X161912300Y-112648000D01*
X216684196Y-114646103D02*
X217975193Y-113355106D01*
X246479281Y-115443000D02*
X250618287Y-115443000D01*
X159534196Y-114646103D02*
X161442143Y-112738156D01*
X199632300Y-112775500D02*
X199632300Y-112903000D01*
X107788103Y-114773103D02*
X105571896Y-112556896D01*
X141967949Y-112782350D02*
X140104196Y-114646103D01*
X219389406Y-113355106D02*
X220680403Y-114646103D01*
X178584196Y-114646103D02*
X179875193Y-113355106D01*
X103641646Y-74431646D02*
X103978103Y-74768103D01*
X197634196Y-114646103D02*
X199542143Y-112738156D01*
X104775000Y-76691981D02*
X104775000Y-110633018D01*
X244555403Y-114646103D02*
X240814196Y-110904896D01*
X258038599Y-110108000D02*
X257051000Y-110108000D01*
X184504281Y-115443000D02*
X195710318Y-115443000D01*
X161532300Y-112775500D02*
X161532300Y-112903000D01*
X101717768Y-73634750D02*
X98397300Y-73634750D01*
X125430403Y-114646103D02*
X124139406Y-113355106D01*
X236935403Y-113699896D02*
X235989196Y-114646103D01*
X157610318Y-115443000D02*
X146404281Y-115443000D01*
X238890318Y-110108000D02*
X238732299Y-110108000D01*
X256133599Y-109728000D02*
X252786312Y-109728000D01*
X109711981Y-115570000D02*
X119383318Y-115570000D01*
X142482300Y-112775500D02*
X142482300Y-112903000D01*
X163530403Y-114646103D02*
X161622456Y-112738156D01*
X199722456Y-112738156D02*
X201630403Y-114646103D01*
X258687300Y-109459299D02*
X258687300Y-104552522D01*
X122725193Y-113355106D02*
X121307196Y-114773103D01*
X144480403Y-114646103D02*
X142572456Y-112738156D01*
X251702300Y-114358987D02*
X251702300Y-110812012D01*
X237732300Y-111107999D02*
X237732300Y-111776018D01*
X176660318Y-115443000D02*
X165454281Y-115443000D01*
X203554281Y-115443000D02*
X214760318Y-115443000D01*
X138180318Y-115443000D02*
X127354281Y-115443000D01*
X258305800Y-103631500D02*
G75*
G02*
X258687300Y-104552522I-921023J-921023D01*
G01*
X214760318Y-115443000D02*
G75*
G03*
X216684196Y-114646103I-2J2720777D01*
G01*
X101717768Y-73634750D02*
G75*
G02*
X103641646Y-74431646I2J-2720770D01*
G01*
X104775000Y-110633018D02*
G75*
G03*
X105571896Y-112556896I2720770J-2D01*
G01*
X235989196Y-114646103D02*
G75*
G02*
X234065318Y-115443000I-1923880J1923880D01*
G01*
X195710318Y-115443000D02*
G75*
G03*
X197634196Y-114646103I-2J2720777D01*
G01*
X199542143Y-112738156D02*
G75*
G02*
X199632300Y-112775500I37344J-37344D01*
G01*
X146404281Y-115443000D02*
G75*
G02*
X144480403Y-114646103I2J2720777D01*
G01*
X165454281Y-115443000D02*
G75*
G02*
X163530403Y-114646103I2J2720777D01*
G01*
X217975193Y-113355106D02*
G75*
G02*
X219389406Y-113355106I707106J-707107D01*
G01*
X161442143Y-112738156D02*
G75*
G02*
X161659800Y-112648000I217653J-217650D01*
G01*
X220680403Y-114646103D02*
G75*
G03*
X222604281Y-115443000I1923880J1923880D01*
G01*
X142292300Y-112648000D02*
G75*
G03*
X141967949Y-112782350I-3J-458695D01*
G01*
X161442143Y-112738156D02*
G75*
G02*
X161532300Y-112775500I37344J-37344D01*
G01*
X238732299Y-110108000D02*
G75*
G03*
X237732300Y-111107999I-3J-999996D01*
G01*
X258038599Y-110107999D02*
G75*
G03*
X258497299Y-109917999I-3J648708D01*
G01*
X252786312Y-109728001D02*
G75*
G03*
X252019801Y-110045501I-4J-1084001D01*
G01*
X121307196Y-114773103D02*
G75*
G02*
X119383318Y-115570000I-1923880J1923880D01*
G01*
X251702301Y-110812012D02*
G75*
G02*
X252019801Y-110045501I1084001J4D01*
G01*
X142354800Y-112648001D02*
G75*
G02*
X142572456Y-112738156I3J-307805D01*
G01*
X142354800Y-112648000D02*
G75*
G02*
X142482300Y-112775500I1J-127499D01*
G01*
X104775000Y-76691981D02*
G75*
G03*
X103978103Y-74768103I-2720777J-2D01*
G01*
X250618287Y-115443000D02*
G75*
G03*
X251384800Y-115125500I-4J1084022D01*
G01*
X125430403Y-114646103D02*
G75*
G03*
X127354281Y-115443000I1923880J1923880D01*
G01*
X257051000Y-110107999D02*
G75*
G02*
X256592301Y-109917999I2J648704D01*
G01*
X159534196Y-114646103D02*
G75*
G02*
X157610318Y-115443000I-1923880J1923880D01*
G01*
X201630403Y-114646103D02*
G75*
G03*
X203554281Y-115443000I1923880J1923880D01*
G01*
X182580403Y-114646103D02*
G75*
G03*
X184504281Y-115443000I1923880J1923880D01*
G01*
X107788103Y-114773103D02*
G75*
G03*
X109711981Y-115570000I1923880J1923880D01*
G01*
X237732300Y-111776018D02*
G75*
G02*
X236935403Y-113699896I-2720777J2D01*
G01*
X140104196Y-114646103D02*
G75*
G02*
X138180318Y-115443000I-1923880J1923880D01*
G01*
X124139406Y-113355106D02*
G75*
G03*
X122725193Y-113355106I-707106J-707107D01*
G01*
X161622457Y-112738155D02*
G75*
G03*
X161532300Y-112775500I-37345J-37343D01*
G01*
X161622455Y-112738157D02*
G75*
G02*
X161659800Y-112648000I37343J37345D01*
G01*
X181289406Y-113355106D02*
G75*
G03*
X179875193Y-113355106I-707106J-707107D01*
G01*
X258497300Y-109918000D02*
G75*
G03*
X258687300Y-109459299I-458709J458704D01*
G01*
X178584196Y-114646103D02*
G75*
G02*
X176660318Y-115443000I-1923880J1923880D01*
G01*
X246479281Y-115443000D02*
G75*
G02*
X244555403Y-114646103I2J2720777D01*
G01*
X256592300Y-109918000D02*
G75*
G03*
X256133599Y-109728000I-458700J-458698D01*
G01*
X257384777Y-103250001D02*
G75*
G02*
X258305799Y-103631501I3J-1302516D01*
G01*
X238890318Y-110108000D02*
G75*
G02*
X240814196Y-110904896I2J-2720770D01*
G01*
X251702300Y-114358987D02*
G75*
G02*
X251384800Y-115125500I-1084022J4D01*
G01*
X199542144Y-112738157D02*
G75*
G02*
X199722456Y-112738156I90156J-90156D01*
G01*
X142572457Y-112738155D02*
G75*
G03*
X142482300Y-112775500I-37345J-37343D01*
G01*
X199722457Y-112738155D02*
G75*
G03*
X199632300Y-112775500I-37345J-37343D01*
G01*
X142482300Y-131825500D02*
X142482300Y-131953000D01*
X142572456Y-131788156D02*
X144480403Y-133696103D01*
X127354281Y-134493000D02*
X138560318Y-134493000D01*
X142392143Y-131788156D02*
X140484196Y-133696103D01*
X201630403Y-133696103D02*
X200339406Y-132405106D01*
X182580403Y-133696103D02*
X181289406Y-132405106D01*
X216684196Y-133696103D02*
X217975193Y-132405106D01*
X197634196Y-133696103D02*
X198925193Y-132405106D01*
X104936896Y-130971896D02*
X107788103Y-133823103D01*
X119383318Y-134620000D02*
X109711981Y-134620000D01*
X214760318Y-134493000D02*
X203554281Y-134493000D01*
X146404281Y-134493000D02*
X157610318Y-134493000D01*
X179875193Y-132405106D02*
X178584196Y-133696103D01*
X122725193Y-132405106D02*
X121307196Y-133823103D01*
X163530403Y-133696103D02*
X162239406Y-132405106D01*
X165454281Y-134493000D02*
X176660318Y-134493000D01*
X103343103Y-77308103D02*
X103006646Y-76971646D01*
X237866650Y-131832350D02*
X239730403Y-133696103D01*
X219389406Y-132405106D02*
X220680403Y-133696103D01*
X235734196Y-133696103D02*
X237597949Y-131832350D01*
X184504281Y-134493000D02*
X195710318Y-134493000D01*
X104140000Y-129048018D02*
X104140000Y-79231981D01*
X252860318Y-134493000D02*
X241654281Y-134493000D01*
X125430403Y-133696103D02*
X124139406Y-132405106D01*
X160825193Y-132405106D02*
X159534196Y-133696103D01*
X237922300Y-131698000D02*
X238112300Y-131698000D01*
X233810318Y-134493000D02*
X222604281Y-134493000D01*
X254784196Y-133696103D02*
X256782300Y-131698000D01*
X101082768Y-76174750D02*
X98397300Y-76174750D01*
X142392143Y-131788156D02*
G75*
G02*
X142482300Y-131825500I37344J-37344D01*
G01*
X203554281Y-134493000D02*
G75*
G02*
X201630403Y-133696103I2J2720777D01*
G01*
X237866651Y-131832349D02*
G75*
G02*
X237922300Y-131698000I55649J55649D01*
G01*
X107788103Y-133823103D02*
G75*
G03*
X109711981Y-134620000I1923880J1923880D01*
G01*
X237597950Y-131832351D02*
G75*
G02*
X237866650Y-131832350I134350J-134349D01*
G01*
X254784196Y-133696103D02*
G75*
G02*
X252860318Y-134493000I-1923880J1923880D01*
G01*
X121307196Y-133823103D02*
G75*
G02*
X119383318Y-134620000I-1923880J1923880D01*
G01*
X159534196Y-133696103D02*
G75*
G02*
X157610318Y-134493000I-1923880J1923880D01*
G01*
X142572456Y-131788156D02*
G75*
G03*
X142392143Y-131788156I-90156J-90157D01*
G01*
X235734196Y-133696103D02*
G75*
G02*
X233810318Y-134493000I-1923880J1923880D01*
G01*
X237597949Y-131832350D02*
G75*
G02*
X237922300Y-131698000I324348J-324345D01*
G01*
X239730403Y-133696103D02*
G75*
G03*
X241654281Y-134493000I1923880J1923880D01*
G01*
X127354281Y-134493000D02*
G75*
G02*
X125430403Y-133696103I2J2720777D01*
G01*
X163530403Y-133696103D02*
G75*
G03*
X165454281Y-134493000I1923880J1923880D01*
G01*
X216684196Y-133696103D02*
G75*
G02*
X214760318Y-134493000I-1923880J1923880D01*
G01*
X181289406Y-132405106D02*
G75*
G03*
X179875193Y-132405106I-707106J-707107D01*
G01*
X217975193Y-132405106D02*
G75*
G02*
X219389406Y-132405106I707106J-707107D01*
G01*
X140484196Y-133696103D02*
G75*
G02*
X138560318Y-134493000I-1923880J1923880D01*
G01*
X220680403Y-133696103D02*
G75*
G03*
X222604281Y-134493000I1923880J1923880D01*
G01*
X104936896Y-130971896D02*
G75*
G02*
X104140000Y-129048018I1923874J1923876D01*
G01*
X104140000Y-79231981D02*
G75*
G03*
X103343103Y-77308103I-2720777J-2D01*
G01*
X122725194Y-132405107D02*
G75*
G02*
X124139406Y-132405106I707106J-707106D01*
G01*
X200339406Y-132405106D02*
G75*
G03*
X198925193Y-132405106I-707106J-707107D01*
G01*
X182580403Y-133696103D02*
G75*
G03*
X184504281Y-134493000I1923880J1923880D01*
G01*
X197634196Y-133696103D02*
G75*
G02*
X195710318Y-134493000I-1923880J1923880D01*
G01*
X178584196Y-133696103D02*
G75*
G02*
X176660318Y-134493000I-1923880J1923880D01*
G01*
X144480403Y-133696103D02*
G75*
G03*
X146404281Y-134493000I1923880J1923880D01*
G01*
X162239406Y-132405106D02*
G75*
G03*
X160825193Y-132405106I-707106J-707107D01*
G01*
X101082768Y-76174750D02*
G75*
G02*
X103006646Y-76971646I2J-2720770D01*
G01*
X142572457Y-131788155D02*
G75*
G03*
X142482300Y-131825500I-37345J-37343D01*
G01*
X232700484Y-63849524D02*
X232605720Y-63754760D01*
X102870000Y-66040000D02*
X103187500Y-65722500D01*
X238442499Y-66992499D02*
X238397744Y-67037255D01*
X109220000Y-118930987D02*
X109220000Y-117924012D01*
X233021246Y-63980000D02*
X233015480Y-63980000D01*
X113030000Y-116840000D02*
X110304012Y-116840000D01*
X260985000Y-64955987D02*
X260985000Y-55059012D01*
X167958537Y-63529520D02*
X232061942Y-63529520D01*
X108585000Y-120015000D02*
X108902500Y-119697500D01*
X105431045Y-63314520D02*
X164443954Y-63314520D01*
X165975000Y-63980000D02*
X166447054Y-63980000D01*
X165247260Y-63647260D02*
X165300692Y-63700692D01*
X166555279Y-121130000D02*
X166554411Y-121130000D01*
X103505000Y-64375000D02*
X103505000Y-64955987D01*
X241989943Y-69304511D02*
X238438096Y-69304511D01*
X238760000Y-66225987D02*
X238760000Y-65328614D01*
X104574307Y-63700692D02*
X104627739Y-63647259D01*
X100965000Y-47439012D02*
X100965000Y-54813841D01*
X114892182Y-120650000D02*
X165395588Y-120650000D01*
X166870982Y-63980000D02*
X166869326Y-63980000D01*
X113464306Y-120370692D02*
X113817549Y-120017450D01*
X169770000Y-121130000D02*
X233045000Y-121130000D01*
X258217500Y-54041633D02*
X258217500Y-54363366D01*
X99924091Y-55854750D02*
X98397300Y-55854750D01*
X258605866Y-53975000D02*
X259900987Y-53975000D01*
X244475000Y-47439012D02*
X244475000Y-66225987D01*
X112395000Y-120650000D02*
X112790000Y-120650000D01*
X237411385Y-63980000D02*
X234491640Y-63980000D01*
X238035489Y-68901903D02*
X238035489Y-67911817D01*
X243390987Y-46355000D02*
X102049012Y-46355000D01*
X258217500Y-53112500D02*
X258217500Y-54041633D01*
X113822450Y-120024380D02*
X114134035Y-120335965D01*
X243390987Y-67310000D02*
X239844012Y-67310000D01*
X258217500Y-54837500D02*
X258217500Y-54363366D01*
X238153410Y-69186590D02*
G75*
G03*
X238438096Y-69304511I284688J284689D01*
G01*
X260985000Y-55059012D02*
G75*
G03*
X260667500Y-54292500I-1084013J-1D01*
G01*
X244157500Y-46672500D02*
G75*
G03*
X243390987Y-46355000I-766512J-766511D01*
G01*
X108902500Y-119697500D02*
G75*
G03*
X109220000Y-118930987I-766522J766517D01*
G01*
X167414760Y-63754760D02*
G75*
G02*
X166870982Y-63980000I-543779J543781D01*
G01*
X258331250Y-54088750D02*
G75*
G02*
X258217500Y-54041633I-47117J47117D01*
G01*
X238035489Y-68901903D02*
G75*
G03*
X238153410Y-69186590I402603J-2D01*
G01*
X244157500Y-46672500D02*
G75*
G02*
X244475000Y-47439012I-766513J-766513D01*
G01*
X109537500Y-117157500D02*
G75*
G03*
X109220000Y-117924012I766502J-766508D01*
G01*
X100965000Y-54813841D02*
G75*
G02*
X100660125Y-55549875I-1040919J4D01*
G01*
X238760001Y-66225987D02*
G75*
G03*
X239077501Y-66992499I1084010J-1D01*
G01*
X113822450Y-120024380D02*
G75*
G02*
X113820000Y-120018465I5908J5912D01*
G01*
X259900987Y-53975001D02*
G75*
G02*
X260667499Y-54292501I1J-1084010D01*
G01*
X238035489Y-67911817D02*
G75*
G02*
X238397744Y-67037255I1236816J1D01*
G01*
X102049012Y-46355001D02*
G75*
G03*
X101282501Y-46672501I-4J-1084001D01*
G01*
X244157500Y-66992500D02*
G75*
G02*
X243390987Y-67310000I-766517J766522D01*
G01*
X113817550Y-120017451D02*
G75*
G02*
X113820000Y-120018465I1015J-1014D01*
G01*
X238442499Y-66992499D02*
G75*
G03*
X238760000Y-66225987I-766512J766514D01*
G01*
X103900000Y-63980000D02*
G75*
G03*
X104574307Y-63700692I-2J953616D01*
G01*
X165975000Y-120890000D02*
G75*
G03*
X166554411Y-121130000I579411J579411D01*
G01*
X238442499Y-66992499D02*
G75*
G02*
X239077500Y-66992500I317500J-317499D01*
G01*
X238365000Y-64375000D02*
G75*
G03*
X237411385Y-63980000I-953616J-953617D01*
G01*
X260667500Y-65722500D02*
G75*
G02*
X259900987Y-66040000I-766517J766522D01*
G01*
X258331250Y-54088750D02*
G75*
G03*
X258217500Y-54363366I274608J-274613D01*
G01*
X260667500Y-65722500D02*
G75*
G03*
X260985000Y-64955987I-766522J766517D01*
G01*
X243913821Y-68507614D02*
G75*
G02*
X241989943Y-69304511I-1923880J1923880D01*
G01*
X114134035Y-120335965D02*
G75*
G03*
X114892182Y-120650000I758150J758153D01*
G01*
X244475000Y-66225987D02*
G75*
G02*
X244157500Y-66992500I-1084022J4D01*
G01*
X103900000Y-63980000D02*
G75*
G03*
X103505000Y-64375000I-3J-394997D01*
G01*
X232061942Y-63529521D02*
G75*
G02*
X232605719Y-63754761I4J-769009D01*
G01*
X164443954Y-63314520D02*
G75*
G02*
X165247260Y-63647260I1J-1136044D01*
G01*
X233015480Y-63979999D02*
G75*
G02*
X232700485Y-63849523I1J445473D01*
G01*
X113464306Y-120370692D02*
G75*
G02*
X112790000Y-120650000I-674307J674304D01*
G01*
X167414760Y-63754760D02*
G75*
G02*
X167958537Y-63529520I543773J-543766D01*
G01*
X165300692Y-63700692D02*
G75*
G03*
X165975000Y-63980000I674309J674308D01*
G01*
X258331250Y-54088750D02*
G75*
G02*
X258605866Y-53975000I274613J-274608D01*
G01*
X239844012Y-67310000D02*
G75*
G02*
X239077500Y-66992500I1J1084013D01*
G01*
X165975000Y-120890000D02*
G75*
G03*
X165395588Y-120650000I-579408J-579404D01*
G01*
X100965001Y-47439012D02*
G75*
G02*
X101282501Y-46672501I1084001J4D01*
G01*
X109537500Y-117157500D02*
G75*
G02*
X110304012Y-116840000I766508J-766502D01*
G01*
X103187500Y-65722500D02*
G75*
G03*
X103505000Y-64955987I-766522J766517D01*
G01*
X238759999Y-65328614D02*
G75*
G03*
X238364999Y-64375001I-1348618J-2D01*
G01*
X104627739Y-63647259D02*
G75*
G02*
X105431045Y-63314520I803306J-803309D01*
G01*
X100660125Y-55549875D02*
G75*
G02*
X99924091Y-55854750I-736038J736044D01*
G01*
X233197549Y-63017549D02*
X233202450Y-63022450D01*
X166400000Y-63050000D02*
X166399062Y-63049062D01*
X172520613Y-63080000D02*
X166472426Y-63080000D01*
X174535000Y-62020000D02*
X174535000Y-62140000D01*
X232640000Y-62460000D02*
X233197549Y-63017549D01*
X231288040Y-61900000D02*
X174655000Y-61900000D01*
X164458040Y-61900000D02*
X112422500Y-61900000D01*
X103769601Y-62865000D02*
X109807641Y-62865000D01*
X233347260Y-63167260D02*
X233202450Y-63022450D01*
X110972499Y-62382499D02*
X111378986Y-61976013D01*
X238795263Y-63314520D02*
X233702777Y-63314520D01*
X174450147Y-61984852D02*
X173945000Y-62490000D01*
X240502740Y-62607260D02*
X241210000Y-61900000D01*
X165810000Y-62460000D02*
X166160000Y-62810000D01*
X111562500Y-61900000D02*
X111565859Y-61900000D01*
X103582500Y-62942500D02*
X103505000Y-63020000D01*
X233203465Y-63020000D02*
X233206930Y-63020000D01*
X233702777Y-63314520D02*
G75*
G02*
X233347260Y-63167260I1J502778D01*
G01*
X109807641Y-62865000D02*
G75*
G03*
X110972499Y-62382499I0J1647355D01*
G01*
X164458040Y-61900000D02*
G75*
G02*
X165810000Y-62460000I0J-1911960D01*
G01*
X111378986Y-61976013D02*
G75*
G02*
X111562500Y-61900000I183511J-183511D01*
G01*
X174535000Y-62020000D02*
G75*
G03*
X174450147Y-61984852I-49706J0D01*
G01*
X172520613Y-63080000D02*
G75*
G03*
X173945000Y-62490000I-6J2014402D01*
G01*
X166472426Y-63080000D02*
G75*
G02*
X166400000Y-63050000I1J102427D01*
G01*
X174655000Y-61900000D02*
G75*
G03*
X174450147Y-61984852I-2J-289702D01*
G01*
X103582500Y-62942500D02*
G75*
G02*
X103769601Y-62865000I187097J-187091D01*
G01*
X174655000Y-61900000D02*
G75*
G03*
X174535000Y-62020000I-1J-119999D01*
G01*
X233197549Y-63017549D02*
G75*
G03*
X233203465Y-63020000I5916J5913D01*
G01*
X232640000Y-62460000D02*
G75*
G03*
X231288040Y-61900000I-1351960J-1351960D01*
G01*
X233202451Y-63022449D02*
G75*
G02*
X233203465Y-63020000I1012J1015D01*
G01*
X240502740Y-62607260D02*
G75*
G02*
X238795263Y-63314520I-1707479J1707483D01*
G01*
X113396017Y-119050000D02*
X111670000Y-119050000D01*
X175326959Y-119050000D02*
X231133040Y-119050000D01*
X115044601Y-120170000D02*
X158803996Y-120170000D01*
X233400692Y-119814307D02*
X233362500Y-119852500D01*
X233997500Y-118427500D02*
X233959307Y-118465692D01*
X114834546Y-120069546D02*
X114857500Y-120092500D01*
X172491582Y-120170000D02*
X172623040Y-120170000D01*
X232727500Y-119852500D02*
X232485000Y-119610000D01*
X239605319Y-118110000D02*
X234764012Y-118110000D01*
X240740000Y-118580000D02*
X241210000Y-119050000D01*
X114374641Y-119455359D02*
X114725453Y-119806171D01*
X114725453Y-119806171D02*
G75*
G02*
X114780000Y-119937859I-131691J-131689D01*
G01*
X114857500Y-120092500D02*
G75*
G03*
X115044601Y-120170000I187102J187102D01*
G01*
X240740000Y-118580000D02*
G75*
G03*
X239605319Y-118110000I-1134681J-1134681D01*
G01*
X114834546Y-120069546D02*
G75*
G02*
X114780000Y-119937859I131690J131688D01*
G01*
X113396017Y-119050001D02*
G75*
G02*
X114374640Y-119455360I1J-1383981D01*
G01*
X173975000Y-119610000D02*
G75*
G02*
X175326959Y-119050000I1351958J-1351955D01*
G01*
X173975000Y-119610000D02*
G75*
G02*
X172623040Y-120170000I-1351964J1351971D01*
G01*
X233680000Y-119140000D02*
G75*
G02*
X233400692Y-119814307I-953616J2D01*
G01*
X233680001Y-119140000D02*
G75*
G02*
X233959308Y-118465693I953609J3D01*
G01*
X233362499Y-119852499D02*
G75*
G02*
X232727501Y-119852499I-317499J317502D01*
G01*
X234764012Y-118110001D02*
G75*
G03*
X233997501Y-118427501I-4J-1084001D01*
G01*
X232485000Y-119610000D02*
G75*
G03*
X231133040Y-119050000I-1351960J-1351960D01*
G01*
X97471275Y-50774750D02*
X98397300Y-50774750D01*
X92805489Y-83661980D02*
X92805489Y-134367529D01*
X93027500Y-68897500D02*
X92710000Y-68580000D01*
X95890451Y-51429548D02*
X92710000Y-54610000D01*
X93345000Y-82359486D02*
X93345000Y-69664012D01*
X92008592Y-136291407D02*
X90805000Y-137495000D01*
X93345000Y-69664012D02*
G75*
G03*
X93027500Y-68897500I-1084013J-1D01*
G01*
X97471275Y-50774751D02*
G75*
G03*
X95890452Y-51429549I-3J-2235617D01*
G01*
X92805490Y-83661980D02*
G75*
G02*
X93075245Y-83010734I920998J2D01*
G01*
X93075244Y-83010733D02*
G75*
G03*
X93345000Y-82359486I-651255J651251D01*
G01*
X92805489Y-134367529D02*
G75*
G02*
X92008592Y-136291407I-2720777J2D01*
G01*
X92075000Y-73396974D02*
X92075000Y-70748025D01*
X90805000Y-68580000D02*
X91440000Y-69215000D01*
X92075000Y-52705000D02*
X95890451Y-48889548D01*
X97471275Y-48234750D02*
X98397300Y-48234750D01*
X90805000Y-76463025D02*
X90805000Y-99995000D01*
X91440000Y-74930000D02*
G75*
G03*
X90805000Y-76463025I1533019J-1533023D01*
G01*
X91440000Y-74930000D02*
G75*
G03*
X92075000Y-73396974I-1533039J1533031D01*
G01*
X95890451Y-48889548D02*
G75*
G02*
X97471275Y-48234750I1580821J-1580820D01*
G01*
X91440000Y-69215000D02*
G75*
G02*
X92075000Y-70748025I-1533030J-1533028D01*
G01*
X123432300Y-50430444D02*
X123432300Y-52374800D01*
X122484855Y-49483000D02*
X117407300Y-49483000D01*
X123154800Y-49760500D02*
G75*
G03*
X122484855Y-49483000I-669942J-669939D01*
G01*
X123432300Y-50430444D02*
G75*
G03*
X123154800Y-49760500I-947441J1D01*
G01*
X113572082Y-121848303D02*
X113515991Y-121904393D01*
X94168878Y-67215561D02*
X93980000Y-67215561D01*
X95025493Y-77245493D02*
X94932500Y-77152500D01*
X163915316Y-64213560D02*
X108283247Y-64213560D01*
X107764012Y-124460000D02*
X111960992Y-124460000D01*
X94168878Y-67215561D02*
X94520561Y-67215561D01*
X95577421Y-77470000D02*
X95567500Y-77470000D01*
X106725000Y-125050000D02*
X106680000Y-125095000D01*
X85867882Y-55854750D02*
X83157300Y-55854750D01*
X94250280Y-67580280D02*
X93952339Y-67282339D01*
X100066974Y-77470000D02*
X98107500Y-77470000D01*
X155426573Y-122250000D02*
X169051982Y-122250000D01*
X113008779Y-123128913D02*
X113008779Y-123412213D01*
X94168878Y-67215561D02*
X93980000Y-67215561D01*
X171042528Y-123074511D02*
X234902471Y-123074511D01*
X94927499Y-77792499D02*
X95025493Y-77694506D01*
X106997500Y-124777500D02*
X106680000Y-125095000D01*
X175230319Y-66040000D02*
X171239680Y-66040000D01*
X102235000Y-79638025D02*
X102235000Y-122555000D01*
X235897744Y-122662255D02*
X236310000Y-122250000D01*
X94615000Y-68460791D02*
X94615000Y-76385987D01*
X93791122Y-67215561D02*
X87917795Y-67215561D01*
X93791122Y-67215561D02*
X93980000Y-67215561D01*
X153096856Y-121285000D02*
X114932015Y-121285000D01*
X106770000Y-124941360D02*
X106770000Y-122250000D01*
X105451335Y-66418664D02*
X105465013Y-66404985D01*
X107199197Y-64670802D02*
X107213220Y-64656780D01*
X168970319Y-65100000D02*
X166055371Y-65100000D01*
X177499680Y-65100000D02*
X236310000Y-65100000D01*
X86995000Y-66292765D02*
X86995000Y-56981867D01*
X103527457Y-67215561D02*
X94168878Y-67215561D01*
X171042528Y-123074511D02*
G75*
G02*
X170047255Y-122662255I1J1407529D01*
G01*
X106997500Y-124777500D02*
G75*
G02*
X107764012Y-124460000I766508J-766502D01*
G01*
X176365000Y-65570000D02*
G75*
G02*
X175230319Y-66040000I-1134685J1134692D01*
G01*
X86664875Y-56184875D02*
G75*
G03*
X85867882Y-55854750I-796991J-796988D01*
G01*
X95567500Y-77470001D02*
G75*
G03*
X95025494Y-77694507I-1J-766512D01*
G01*
X168970319Y-65100000D02*
G75*
G02*
X170105000Y-65570000I0J-1604681D01*
G01*
X234902471Y-123074511D02*
G75*
G03*
X235897744Y-122662255I-1J1407529D01*
G01*
X164985344Y-64656780D02*
G75*
G03*
X163915316Y-64213560I-1070027J-1070027D01*
G01*
X93952339Y-67282339D02*
G75*
G03*
X93791122Y-67215561I-161217J-161217D01*
G01*
X94615001Y-76385987D02*
G75*
G03*
X94932501Y-77152499I1084010J-1D01*
G01*
X153096856Y-121285000D02*
G75*
G02*
X154261715Y-121767500I3J-1647353D01*
G01*
X171239680Y-66039999D02*
G75*
G02*
X170105000Y-65570000I3J1604687D01*
G01*
X86994999Y-56981867D02*
G75*
G03*
X86664874Y-56184876I-1127119J-1D01*
G01*
X95567500Y-77470000D02*
G75*
G02*
X95025493Y-77245493I3J766519D01*
G01*
X155426573Y-122250000D02*
G75*
G02*
X154261715Y-121767500I1J1647360D01*
G01*
X164985344Y-64656780D02*
G75*
G03*
X166055371Y-65100000I1070030J1070033D01*
G01*
X101600000Y-78105000D02*
G75*
G02*
X102235000Y-79638025I-1533030J-1533028D01*
G01*
X94605001Y-78571083D02*
G75*
G02*
X94927499Y-77792499I1101075J5D01*
G01*
X105451335Y-66418664D02*
G75*
G02*
X103527457Y-67215561I-1923880J1923880D01*
G01*
X87265280Y-66945280D02*
G75*
G02*
X86995000Y-66292765I652514J652514D01*
G01*
X93980000Y-67215561D02*
G75*
G03*
X93952339Y-67282339I-2J-39117D01*
G01*
X108283247Y-64213561D02*
G75*
G03*
X107213221Y-64656781I-2J-1513241D01*
G01*
X113008778Y-123412213D02*
G75*
G02*
X112701888Y-124153109I-1047797J5D01*
G01*
X113515991Y-121904393D02*
G75*
G03*
X113008779Y-123128913I1224518J-1224518D01*
G01*
X111960992Y-124459999D02*
G75*
G03*
X112701888Y-124153109I-5J1047797D01*
G01*
X94168878Y-67215561D02*
G75*
G02*
X94168878Y-67215561I0J0D01*
G01*
X100066974Y-77470000D02*
G75*
G02*
X101600000Y-78105000I-1J-2168028D01*
G01*
X106769999Y-124941360D02*
G75*
G02*
X106724999Y-125049999I-153652J5D01*
G01*
X169051982Y-122250000D02*
G75*
G02*
X170047255Y-122662255I3J-1407522D01*
G01*
X94250280Y-67580280D02*
G75*
G02*
X94615000Y-68460791I-880514J-880513D01*
G01*
X87917795Y-67215560D02*
G75*
G02*
X87265280Y-66945280I0J922795D01*
G01*
X176365000Y-65570000D02*
G75*
G02*
X177499680Y-65100000I1134679J-1134677D01*
G01*
X114932015Y-121285000D02*
G75*
G03*
X113572082Y-121848303I-4J-1923225D01*
G01*
X95025493Y-77694506D02*
G75*
G03*
X95025493Y-77245493I-224509J224506D01*
G01*
X239077500Y-68262500D02*
X238760000Y-68580000D01*
X245110000Y-65778200D02*
X245110000Y-47886799D01*
X82364012Y-45720000D02*
X242943200Y-45720000D01*
X236855000Y-60969626D02*
X236855000Y-59690000D01*
X239844012Y-67945000D02*
X242943200Y-67945000D01*
X236430000Y-61900000D02*
X236550000Y-61900000D01*
X236394852Y-61815147D02*
X236582499Y-61627499D01*
X81280000Y-57353841D02*
X81280000Y-46804012D01*
X82320908Y-58394750D02*
X83157300Y-58394750D01*
X242943200Y-45720001D02*
G75*
G02*
X244475358Y-46354642I3J-2166792D01*
G01*
X82364012Y-45720001D02*
G75*
G03*
X81597501Y-46037501I-4J-1084001D01*
G01*
X242943200Y-67945000D02*
G75*
G03*
X244475359Y-67310359I-2J2166804D01*
G01*
X244475359Y-67310359D02*
G75*
G03*
X245110000Y-65778200I-1532163J1532161D01*
G01*
X81280001Y-46804012D02*
G75*
G02*
X81597501Y-46037501I1084001J4D01*
G01*
X239844012Y-67945001D02*
G75*
G03*
X239077501Y-68262501I-4J-1084001D01*
G01*
X81584875Y-58089875D02*
G75*
G03*
X82320908Y-58394750I736034J736035D01*
G01*
X236430000Y-61900000D02*
G75*
G02*
X236394852Y-61815147I0J49706D01*
G01*
X81584875Y-58089875D02*
G75*
G02*
X81280000Y-57353841I736033J736033D01*
G01*
X245110000Y-47886799D02*
G75*
G03*
X244475359Y-46354641I-2166800J-1D01*
G01*
X236582499Y-61627499D02*
G75*
G03*
X236855000Y-60969626I-657875J657875D01*
G01*
X142482300Y-50430444D02*
X142482300Y-52374800D01*
X141534855Y-49483000D02*
X136457300Y-49483000D01*
X142204800Y-49760500D02*
G75*
G03*
X141534855Y-49483000I-669942J-669939D01*
G01*
X142204800Y-49760500D02*
G75*
G02*
X142482300Y-50430444I-669941J-669943D01*
G01*
X160584855Y-49483000D02*
X155507300Y-49483000D01*
X161532300Y-50430444D02*
X161532300Y-52374800D01*
X161254800Y-49760500D02*
G75*
G02*
X161532300Y-50430444I-669941J-669943D01*
G01*
X161254800Y-49760500D02*
G75*
G03*
X160584855Y-49483000I-669942J-669939D01*
G01*
X222349281Y-58293000D02*
X233987118Y-58293000D01*
X144303603Y-57496103D02*
X143189406Y-56381906D01*
X218654652Y-55702447D02*
X216860996Y-57496103D01*
X235910996Y-57496103D02*
X237732300Y-55674800D01*
X163353603Y-57496103D02*
X162239406Y-56381906D01*
X101600000Y-63008018D02*
X101600000Y-60588025D01*
X99058775Y-66014750D02*
X98397300Y-66014750D01*
X100187983Y-65547016D02*
X100803103Y-64931896D01*
X182325403Y-57496103D02*
X180609947Y-55780647D01*
X176837118Y-58293000D02*
X165277481Y-58293000D01*
X214937118Y-58293000D02*
X203377481Y-58293000D01*
X220425403Y-57496103D02*
X218709947Y-55780647D01*
X184249281Y-58293000D02*
X195887118Y-58293000D01*
X157787118Y-58293000D02*
X146227481Y-58293000D01*
X140660996Y-57496103D02*
X141775193Y-56381906D01*
X159710996Y-57496103D02*
X160825193Y-56381906D01*
X200339406Y-56381906D02*
X201453603Y-57496103D01*
X103768025Y-58420000D02*
X119560118Y-58420000D01*
X127177481Y-58293000D02*
X138737118Y-58293000D01*
X198925193Y-56381906D02*
X197810996Y-57496103D01*
X125253603Y-57496103D02*
X124139406Y-56381906D01*
X178760996Y-57496103D02*
X180554652Y-55702447D01*
X122725193Y-56381906D02*
X121483996Y-57623103D01*
X100187983Y-65547016D02*
G75*
G02*
X99058775Y-66014750I-1129212J1129216D01*
G01*
X182325403Y-57496103D02*
G75*
G03*
X184249281Y-58293000I1923880J1923880D01*
G01*
X121483996Y-57623103D02*
G75*
G02*
X119560118Y-58420000I-1923880J1923880D01*
G01*
X165277481Y-58293000D02*
G75*
G02*
X163353603Y-57496103I2J2720777D01*
G01*
X235910996Y-57496103D02*
G75*
G02*
X233987118Y-58293000I-1923880J1923880D01*
G01*
X216860996Y-57496103D02*
G75*
G02*
X214937118Y-58293000I-1923880J1923880D01*
G01*
X100803103Y-64931896D02*
G75*
G03*
X101600000Y-63008018I-1923880J1923880D01*
G01*
X218682299Y-55713900D02*
G75*
G03*
X218654652Y-55702447I-16195J1D01*
G01*
X143189406Y-56381906D02*
G75*
G03*
X141775193Y-56381906I-707106J-707107D01*
G01*
X102235000Y-59055000D02*
G75*
G02*
X103768025Y-58420000I1533023J-1533019D01*
G01*
X220425403Y-57496103D02*
G75*
G03*
X222349281Y-58293000I1923880J1923880D01*
G01*
X162239406Y-56381906D02*
G75*
G03*
X160825193Y-56381906I-707106J-707107D01*
G01*
X197810996Y-57496103D02*
G75*
G02*
X195887118Y-58293000I-1923880J1923880D01*
G01*
X102235000Y-59055000D02*
G75*
G03*
X101600000Y-60588025I1533019J-1533023D01*
G01*
X218682301Y-55713900D02*
G75*
G03*
X218709948Y-55780646I94393J-1D01*
G01*
X176837118Y-58293000D02*
G75*
G03*
X178760996Y-57496103I-2J2720777D01*
G01*
X124139406Y-56381906D02*
G75*
G03*
X122725193Y-56381906I-707106J-707107D01*
G01*
X138737118Y-58293000D02*
G75*
G03*
X140660996Y-57496103I-2J2720777D01*
G01*
X203377481Y-58293000D02*
G75*
G02*
X201453603Y-57496103I2J2720777D01*
G01*
X127177481Y-58293000D02*
G75*
G02*
X125253603Y-57496103I2J2720777D01*
G01*
X180582301Y-55713900D02*
G75*
G03*
X180609948Y-55780646I94393J-1D01*
G01*
X157787118Y-58293000D02*
G75*
G03*
X159710996Y-57496103I-2J2720777D01*
G01*
X200339406Y-56381906D02*
G75*
G03*
X198925193Y-56381906I-707106J-707107D01*
G01*
X146227481Y-58293000D02*
G75*
G02*
X144303603Y-57496103I2J2720777D01*
G01*
X180582299Y-55713900D02*
G75*
G03*
X180554652Y-55702447I-16195J1D01*
G01*
X105248103Y-70323103D02*
X104276646Y-69351646D01*
X106045000Y-72246981D02*
X106045000Y-73803018D01*
X102352768Y-68554750D02*
X98397300Y-68554750D01*
X106045000Y-72246981D02*
G75*
G03*
X105248103Y-70323103I-2720777J-2D01*
G01*
X104276646Y-69351646D02*
G75*
G03*
X102352768Y-68554750I-1923876J-1923874D01*
G01*
X179634855Y-49483000D02*
X174557300Y-49483000D01*
X180582300Y-50430444D02*
X180582300Y-52374800D01*
X180304800Y-49760500D02*
G75*
G02*
X180582300Y-50430444I-669941J-669943D01*
G01*
X180304800Y-49760500D02*
G75*
G03*
X179634855Y-49483000I-669942J-669939D01*
G01*
X118930987Y-57785000D02*
X101600000Y-57785000D01*
X257810000Y-59055000D02*
X255533025Y-59055000D01*
X120015000Y-60325000D02*
X120517980Y-59822020D01*
X238945987Y-58420000D02*
X236894253Y-58420000D01*
X119697500Y-57467500D02*
X120015000Y-57150000D01*
X252466974Y-57785000D02*
X247650000Y-57785000D01*
X239712500Y-58737500D02*
X240030000Y-59055000D01*
X121732281Y-59319040D02*
X234723778Y-59319040D01*
X118930987Y-57785000D02*
G75*
G03*
X119697500Y-57467500I-4J1084022D01*
G01*
X120517980Y-59822020D02*
G75*
G02*
X121732281Y-59319040I1214300J-1214298D01*
G01*
X238945987Y-58420001D02*
G75*
G02*
X239712499Y-58737501I1J-1084010D01*
G01*
X254000000Y-58420000D02*
G75*
G03*
X252466974Y-57785000I-1533027J-1533028D01*
G01*
X234723778Y-59319040D02*
G75*
G03*
X235809016Y-58869520I-4J1534768D01*
G01*
X255533025Y-59055000D02*
G75*
G02*
X254000000Y-58420000I3J2168030D01*
G01*
X236894253Y-58420001D02*
G75*
G03*
X235809017Y-58869521I-2J-1534751D01*
G01*
X251933103Y-49056896D02*
X247650000Y-53340000D01*
X118745000Y-56515000D02*
X101600000Y-56515000D01*
X240215987Y-57785000D02*
X237024689Y-57785000D01*
X120145646Y-58869520D02*
X234406426Y-58869520D01*
X240982500Y-58102500D02*
X241300000Y-58420000D01*
X118745000Y-59690000D02*
X119155240Y-59279760D01*
X257810000Y-48260000D02*
X253856981Y-48260000D01*
X119155240Y-59279760D02*
G75*
G02*
X120145646Y-58869520I990402J-990394D01*
G01*
X234406426Y-58869519D02*
G75*
G03*
X235715557Y-58327259I-1J1851395D01*
G01*
X253856981Y-48260000D02*
G75*
G03*
X251933103Y-49056896I-2J-2720770D01*
G01*
X237024689Y-57785000D02*
G75*
G03*
X235715558Y-58327260I-4J-1851380D01*
G01*
X240982500Y-58102500D02*
G75*
G03*
X240215987Y-57785000I-766512J-766511D01*
G01*
X241791981Y-60325000D02*
X242755987Y-60325000D01*
X233518103Y-62068103D02*
X233206896Y-61756896D01*
X243276654Y-65100000D02*
X241210000Y-65100000D01*
X170105000Y-61430000D02*
X169635000Y-61900000D01*
X243840000Y-64536654D02*
X243840000Y-61409012D01*
X239868103Y-61121896D02*
X238921896Y-62068103D01*
X231283018Y-60960000D02*
X171239680Y-60960000D01*
X236998018Y-62865000D02*
X235441981Y-62865000D01*
X243675000Y-64935000D02*
G75*
G03*
X243840000Y-64536654I-398358J398351D01*
G01*
X243675000Y-64935000D02*
G75*
G02*
X243276654Y-65100000I-398351J398358D01*
G01*
X242755987Y-60325001D02*
G75*
G02*
X243522499Y-60642501I1J-1084010D01*
G01*
X235441981Y-62865000D02*
G75*
G02*
X233518103Y-62068103I2J2720777D01*
G01*
X238921896Y-62068103D02*
G75*
G02*
X236998018Y-62865000I-1923880J1923880D01*
G01*
X239868103Y-61121896D02*
G75*
G02*
X241791981Y-60325000I1923876J-1923874D01*
G01*
X233206896Y-61756896D02*
G75*
G03*
X231283018Y-60960000I-1923876J-1923874D01*
G01*
X170105000Y-61430000D02*
G75*
G02*
X171239680Y-60960000I1134679J-1134677D01*
G01*
X243522500Y-60642500D02*
G75*
G02*
X243840000Y-61409012I-766513J-766513D01*
G01*
X199632300Y-50430444D02*
X199632300Y-52374800D01*
X198684855Y-49483000D02*
X193607300Y-49483000D01*
X198684855Y-49483001D02*
G75*
G02*
X199354799Y-49760501I3J-947438D01*
G01*
X199632300Y-50430444D02*
G75*
G03*
X199354800Y-49760500I-947441J1D01*
G01*
X174052500Y-64617500D02*
X174535000Y-65100000D01*
X172887641Y-64135000D02*
X167988096Y-64135000D01*
X104775000Y-64770000D02*
X105277980Y-64267020D01*
X104775000Y-60325000D02*
X104985000Y-60325000D01*
X105343492Y-60473492D02*
X106770000Y-61900000D01*
X164148155Y-63764040D02*
X106492281Y-63764040D01*
X166902859Y-64584520D02*
X166128968Y-64584520D01*
X106492281Y-63764040D02*
G75*
G03*
X105277980Y-64267020I-1J-1717278D01*
G01*
X104985000Y-60325001D02*
G75*
G02*
X105343491Y-60473493I3J-506977D01*
G01*
X174052500Y-64617500D02*
G75*
G03*
X172887641Y-64135000I-1164856J-1164853D01*
G01*
X166128968Y-64584519D02*
G75*
G02*
X165138563Y-64174279I0J1400644D01*
G01*
X167445478Y-64359760D02*
G75*
G02*
X167988096Y-64135000I542617J-542614D01*
G01*
X166902859Y-64584520D02*
G75*
G03*
X167445478Y-64359760I-4J767389D01*
G01*
X164148155Y-63764040D02*
G75*
G02*
X165138562Y-64174280I3J-1400639D01*
G01*
X111345147Y-65184852D02*
X109220000Y-67310000D01*
X111550000Y-65100000D02*
X111670000Y-65100000D01*
X106770000Y-115660000D02*
X106770000Y-119050000D01*
X111345147Y-65184852D02*
G75*
G02*
X111550000Y-65100000I204851J-204850D01*
G01*
X111080000Y-121660000D02*
X111670000Y-122250000D01*
X110490000Y-118487233D02*
X110490000Y-120235613D01*
X113000319Y-118110000D02*
X110867233Y-118110000D01*
X115269680Y-119050000D02*
X169635000Y-119050000D01*
X114135000Y-118580000D02*
G75*
G03*
X115269680Y-119050000I1134683J1134688D01*
G01*
X110600489Y-118220489D02*
G75*
G03*
X110490000Y-118487233I266741J-266743D01*
G01*
X114135000Y-118580000D02*
G75*
G03*
X113000319Y-118110000I-1134681J-1134681D01*
G01*
X111080000Y-121660000D02*
G75*
G02*
X110490000Y-120235613I1424391J1424388D01*
G01*
X110867233Y-118110000D02*
G75*
G03*
X110600489Y-118220489I-1J-377230D01*
G01*
X232858018Y-122250000D02*
X174535000Y-122250000D01*
X236000640Y-120234359D02*
X234781896Y-121453103D01*
X236310000Y-119487500D02*
X236310000Y-119050000D01*
X234781896Y-121453103D02*
G75*
G02*
X232858018Y-122250000I-1923880J1923880D01*
G01*
X236310000Y-119487500D02*
G75*
G02*
X236000640Y-120234359I-1056228J5D01*
G01*
X218682300Y-50430444D02*
X218682300Y-52374800D01*
X217734855Y-49483000D02*
X212657300Y-49483000D01*
X218404800Y-49760500D02*
G75*
G03*
X217734855Y-49483000I-669942J-669939D01*
G01*
X218682300Y-50430444D02*
G75*
G03*
X218404800Y-49760500I-947441J1D01*
G01*
X236784855Y-49483000D02*
X231707300Y-49483000D01*
X237732300Y-50430444D02*
X237732300Y-52374800D01*
X237454800Y-49760500D02*
G75*
G02*
X237732300Y-50430444I-669941J-669943D01*
G01*
X237454800Y-49760500D02*
G75*
G03*
X236784855Y-49483000I-669942J-669939D01*
G01*
X123432300Y-69480444D02*
X123432300Y-71424800D01*
X122484855Y-68533000D02*
X117407300Y-68533000D01*
X123154800Y-68810500D02*
G75*
G02*
X123432300Y-69480444I-669941J-669943D01*
G01*
X123154800Y-68810500D02*
G75*
G03*
X122484855Y-68533000I-669942J-669939D01*
G01*
X142482300Y-69480444D02*
X142482300Y-71424800D01*
X141534855Y-68533000D02*
X136457300Y-68533000D01*
X142204800Y-68810500D02*
G75*
G02*
X142482300Y-69480444I-669941J-669943D01*
G01*
X142204800Y-68810500D02*
G75*
G03*
X141534855Y-68533000I-669942J-669939D01*
G01*
X160584855Y-68533000D02*
X155507300Y-68533000D01*
X161532300Y-69480444D02*
X161532300Y-71424800D01*
X161254800Y-68810500D02*
G75*
G02*
X161532300Y-69480444I-669941J-669943D01*
G01*
X161254800Y-68810500D02*
G75*
G03*
X160584855Y-68533000I-669942J-669939D01*
G01*
X179634855Y-68533000D02*
X174557300Y-68533000D01*
X180582300Y-69480444D02*
X180582300Y-71424800D01*
X180304800Y-68810500D02*
G75*
G03*
X179634855Y-68533000I-669942J-669939D01*
G01*
X180304800Y-68810500D02*
G75*
G02*
X180582300Y-69480444I-669941J-669943D01*
G01*
X199632300Y-69480444D02*
X199632300Y-71424800D01*
X198684855Y-68533000D02*
X193607300Y-68533000D01*
X199632300Y-69480444D02*
G75*
G03*
X199354800Y-68810500I-947441J1D01*
G01*
X199354800Y-68810500D02*
G75*
G03*
X198684855Y-68533000I-669942J-669939D01*
G01*
X217734855Y-68533000D02*
X212657300Y-68533000D01*
X218682300Y-69480444D02*
X218682300Y-71424800D01*
X218404800Y-68810500D02*
G75*
G03*
X217734855Y-68533000I-669942J-669939D01*
G01*
X218682300Y-69480444D02*
G75*
G03*
X218404800Y-68810500I-947441J1D01*
G01*
X235690753Y-68533000D02*
X231707300Y-68533000D01*
X236855000Y-69697246D02*
X236855000Y-69927155D01*
X237293650Y-70986150D02*
X237732300Y-71424800D01*
X236514000Y-68874000D02*
G75*
G02*
X236855000Y-69697246I-823254J-823250D01*
G01*
X235690753Y-68533000D02*
G75*
G02*
X236514000Y-68874000I0J-1164247D01*
G01*
X236855000Y-69927155D02*
G75*
G03*
X237293650Y-70986150I1497640J-2D01*
G01*
X256782300Y-69480444D02*
X256782300Y-71424800D01*
X255834855Y-68533000D02*
X250757300Y-68533000D01*
X256504800Y-68810500D02*
G75*
G03*
X255834855Y-68533000I-669942J-669939D01*
G01*
X256504800Y-68810500D02*
G75*
G02*
X256782300Y-69480444I-669941J-669943D01*
G01*
X122484855Y-87583000D02*
X117407300Y-87583000D01*
X123432300Y-88530444D02*
X123432300Y-90474800D01*
X123154800Y-87860500D02*
G75*
G03*
X122484855Y-87583000I-669942J-669939D01*
G01*
X123154800Y-87860500D02*
G75*
G02*
X123432300Y-88530444I-669941J-669943D01*
G01*
X142482300Y-88530444D02*
X142482300Y-90474800D01*
X141534855Y-87583000D02*
X136457300Y-87583000D01*
X142482300Y-88530444D02*
G75*
G03*
X142204800Y-87860500I-947441J1D01*
G01*
X141534855Y-87583001D02*
G75*
G02*
X142204799Y-87860501I3J-947438D01*
G01*
X161532300Y-88530444D02*
X161532300Y-90474800D01*
X160584855Y-87583000D02*
X155507300Y-87583000D01*
X160584855Y-87583001D02*
G75*
G02*
X161254799Y-87860501I3J-947438D01*
G01*
X161254800Y-87860500D02*
G75*
G02*
X161532300Y-88530444I-669941J-669943D01*
G01*
X180582300Y-88530444D02*
X180582300Y-90474800D01*
X179634855Y-87583000D02*
X174557300Y-87583000D01*
X180304800Y-87860500D02*
G75*
G03*
X179634855Y-87583000I-669942J-669939D01*
G01*
X180304800Y-87860500D02*
G75*
G02*
X180582300Y-88530444I-669941J-669943D01*
G01*
X199632300Y-88530444D02*
X199632300Y-90474800D01*
X198684855Y-87583000D02*
X193607300Y-87583000D01*
X199354800Y-87860500D02*
G75*
G03*
X198684855Y-87583000I-669942J-669939D01*
G01*
X199354800Y-87860500D02*
G75*
G02*
X199632300Y-88530444I-669941J-669943D01*
G01*
X217734855Y-87583000D02*
X212657300Y-87583000D01*
X218682300Y-88530444D02*
X218682300Y-90474800D01*
X218682300Y-88530444D02*
G75*
G03*
X218404800Y-87860500I-947441J1D01*
G01*
X217734855Y-87583001D02*
G75*
G02*
X218404799Y-87860501I3J-947438D01*
G01*
X237690589Y-92796289D02*
X237732300Y-92838000D01*
X237648879Y-88388035D02*
X237648879Y-92695591D01*
X236843843Y-87583000D02*
X231707300Y-87583000D01*
X237413089Y-87818789D02*
G75*
G03*
X236843843Y-87583000I-569245J-569244D01*
G01*
X237413089Y-87818789D02*
G75*
G02*
X237648879Y-88388035I-569245J-569246D01*
G01*
X237690589Y-92796289D02*
G75*
G02*
X237648879Y-92695591I100700J100698D01*
G01*
X122484855Y-106633000D02*
X117407300Y-106633000D01*
X123432300Y-107580444D02*
X123432300Y-109348000D01*
X123154800Y-106910500D02*
G75*
G02*
X123432300Y-107580444I-669941J-669943D01*
G01*
X123154800Y-106910500D02*
G75*
G03*
X122484855Y-106633000I-669942J-669939D01*
G01*
X142482300Y-107580444D02*
X142482300Y-109348000D01*
X141534855Y-106633000D02*
X136457300Y-106633000D01*
X142204800Y-106910500D02*
G75*
G03*
X141534855Y-106633000I-669942J-669939D01*
G01*
X142204800Y-106910500D02*
G75*
G02*
X142482300Y-107580444I-669941J-669943D01*
G01*
X160584855Y-106633000D02*
X155507300Y-106633000D01*
X161532300Y-107580444D02*
X161532300Y-109348000D01*
X161254800Y-106910500D02*
G75*
G02*
X161532300Y-107580444I-669941J-669943D01*
G01*
X161254800Y-106910500D02*
G75*
G03*
X160584855Y-106633000I-669942J-669939D01*
G01*
X180582300Y-107580444D02*
X180582300Y-109348000D01*
X179634855Y-106633000D02*
X174557300Y-106633000D01*
X179634855Y-106633001D02*
G75*
G02*
X180304799Y-106910501I3J-947438D01*
G01*
X180304800Y-106910500D02*
G75*
G02*
X180582300Y-107580444I-669941J-669943D01*
G01*
X198684855Y-106633000D02*
X193607300Y-106633000D01*
X199632300Y-107580444D02*
X199632300Y-109348000D01*
X199354800Y-106910500D02*
G75*
G02*
X199632300Y-107580444I-669941J-669943D01*
G01*
X199354800Y-106910500D02*
G75*
G03*
X198684855Y-106633000I-669942J-669939D01*
G01*
X218682300Y-107580444D02*
X218682300Y-109348000D01*
X217734855Y-106633000D02*
X212657300Y-106633000D01*
X217734855Y-106633001D02*
G75*
G02*
X218404799Y-106910501I3J-947438D01*
G01*
X218682300Y-107580444D02*
G75*
G03*
X218404800Y-106910500I-947441J1D01*
G01*
X232006043Y-106808000D02*
X237732300Y-106808000D01*
X231794800Y-106720500D02*
X231707300Y-106633000D01*
X232006043Y-106807999D02*
G75*
G02*
X231794801Y-106720499I2J298746D01*
G01*
X255698287Y-97663000D02*
X251728279Y-97663000D01*
X251052300Y-97383000D02*
X250772300Y-97103000D01*
X256782300Y-98747012D02*
X256782300Y-99950000D01*
X256464800Y-97980500D02*
G75*
G03*
X255698287Y-97663000I-766512J-766511D01*
G01*
X256782300Y-98747012D02*
G75*
G03*
X256464800Y-97980500I-1084013J-1D01*
G01*
X251728279Y-97662999D02*
G75*
G02*
X251052300Y-97383000I0J955978D01*
G01*
X257099800Y-91630500D02*
X257096962Y-91633337D01*
X257417300Y-90863987D02*
X257417300Y-88530444D01*
X256782300Y-92393000D02*
X256782300Y-92838000D01*
X256469855Y-87583000D02*
X250712300Y-87583000D01*
X257139800Y-87860500D02*
G75*
G02*
X257417300Y-88530444I-669941J-669943D01*
G01*
X257099800Y-91630500D02*
G75*
G03*
X257417300Y-90863987I-766522J766517D01*
G01*
X257139800Y-87860500D02*
G75*
G03*
X256469855Y-87583000I-669942J-669939D01*
G01*
X257096962Y-91633337D02*
G75*
G03*
X256782300Y-92393000I759652J-759658D01*
G01*
X251041043Y-106808000D02*
X256782300Y-106808000D01*
X250829800Y-106720500D02*
X250742300Y-106633000D01*
X250829800Y-106720500D02*
G75*
G03*
X251041043Y-106808000I211245J211247D01*
G01*
X142482300Y-126630444D02*
X142482300Y-128398000D01*
X141534855Y-125683000D02*
X136457300Y-125683000D01*
X142204800Y-125960500D02*
G75*
G02*
X142482300Y-126630444I-669941J-669943D01*
G01*
X142204800Y-125960500D02*
G75*
G03*
X141534855Y-125683000I-669942J-669939D01*
G01*
X122484855Y-125683000D02*
X117407300Y-125683000D01*
X123432300Y-126630444D02*
X123432300Y-128398000D01*
X123154800Y-125960500D02*
G75*
G02*
X123432300Y-126630444I-669941J-669943D01*
G01*
X123154800Y-125960500D02*
G75*
G03*
X122484855Y-125683000I-669942J-669939D01*
G01*
X161532300Y-126630444D02*
X161532300Y-128398000D01*
X160584855Y-125683000D02*
X155507300Y-125683000D01*
X161254800Y-125960500D02*
G75*
G02*
X161532300Y-126630444I-669941J-669943D01*
G01*
X160584855Y-125683001D02*
G75*
G02*
X161254799Y-125960501I3J-947438D01*
G01*
X179634855Y-125683000D02*
X174557300Y-125683000D01*
X180582300Y-126630444D02*
X180582300Y-128398000D01*
X180304800Y-125960500D02*
G75*
G02*
X180582300Y-126630444I-669941J-669943D01*
G01*
X180304800Y-125960500D02*
G75*
G03*
X179634855Y-125683000I-669942J-669939D01*
G01*
X198684855Y-125683000D02*
X193607300Y-125683000D01*
X199632300Y-126630444D02*
X199632300Y-128398000D01*
X199354800Y-125960500D02*
G75*
G03*
X198684855Y-125683000I-669942J-669939D01*
G01*
X199354800Y-125960500D02*
G75*
G02*
X199632300Y-126630444I-669941J-669943D01*
G01*
X218682300Y-126630444D02*
X218682300Y-128398000D01*
X217734855Y-125683000D02*
X212657300Y-125683000D01*
X218404800Y-125960500D02*
G75*
G02*
X218682300Y-126630444I-669941J-669943D01*
G01*
X218404800Y-125960500D02*
G75*
G03*
X217734855Y-125683000I-669942J-669939D01*
G01*
X236784855Y-125683000D02*
X231707300Y-125683000D01*
X237732300Y-126630444D02*
X237732300Y-128398000D01*
X237732300Y-126630444D02*
G75*
G03*
X237454800Y-125960500I-947441J1D01*
G01*
X237454800Y-125960500D02*
G75*
G03*
X236784855Y-125683000I-669942J-669939D01*
G01*
X256782300Y-126630444D02*
X256782300Y-128398000D01*
X255834855Y-125683000D02*
X250757300Y-125683000D01*
X256782300Y-126630444D02*
G75*
G03*
X256504800Y-125960500I-947441J1D01*
G01*
X255834855Y-125683001D02*
G75*
G02*
X256504799Y-125960501I3J-947438D01*
G01*
X97647117Y-53314750D02*
X98397300Y-53314750D01*
X96520000Y-54441867D02*
X96520000Y-59055000D01*
X97647117Y-53314750D02*
G75*
G03*
X96850125Y-53644875I-3J-1127109D01*
G01*
X96520000Y-54441867D02*
G75*
G02*
X96850125Y-53644875I1127109J3D01*
G01*
M02*
