%TF.GenerationSoftware,KiCad,Pcbnew,(6.0.1)*%
%TF.CreationDate,2022-04-03T20:03:39+01:00*%
%TF.ProjectId,Keyboard Left Hand Side,4b657962-6f61-4726-9420-4c6566742048,rev?*%
%TF.SameCoordinates,Original*%
%TF.FileFunction,Soldermask,Top*%
%TF.FilePolarity,Negative*%
%FSLAX46Y46*%
G04 Gerber Fmt 4.6, Leading zero omitted, Abs format (unit mm)*
G04 Created by KiCad (PCBNEW (6.0.1)) date 2022-04-03 20:03:39*
%MOMM*%
%LPD*%
G01*
G04 APERTURE LIST*
G04 Aperture macros list*
%AMRoundRect*
0 Rectangle with rounded corners*
0 $1 Rounding radius*
0 $2 $3 $4 $5 $6 $7 $8 $9 X,Y pos of 4 corners*
0 Add a 4 corners polygon primitive as box body*
4,1,4,$2,$3,$4,$5,$6,$7,$8,$9,$2,$3,0*
0 Add four circle primitives for the rounded corners*
1,1,$1+$1,$2,$3*
1,1,$1+$1,$4,$5*
1,1,$1+$1,$6,$7*
1,1,$1+$1,$8,$9*
0 Add four rect primitives between the rounded corners*
20,1,$1+$1,$2,$3,$4,$5,0*
20,1,$1+$1,$4,$5,$6,$7,0*
20,1,$1+$1,$6,$7,$8,$9,0*
20,1,$1+$1,$8,$9,$2,$3,0*%
G04 Aperture macros list end*
%TA.AperFunction,Profile*%
%ADD10C,0.200000*%
%TD*%
%ADD11C,1.750000*%
%ADD12C,3.987800*%
%ADD13RoundRect,0.100000X-0.217500X-0.100000X0.217500X-0.100000X0.217500X0.100000X-0.217500X0.100000X0*%
%ADD14C,2.200000*%
%ADD15C,1.397000*%
%ADD16RoundRect,0.155000X0.155000X-0.212500X0.155000X0.212500X-0.155000X0.212500X-0.155000X-0.212500X0*%
%ADD17C,3.048000*%
%ADD18R,2.000000X2.000000*%
%ADD19C,2.000000*%
%ADD20R,3.000000X2.500000*%
%ADD21RoundRect,0.100000X0.217500X0.100000X-0.217500X0.100000X-0.217500X-0.100000X0.217500X-0.100000X0*%
%ADD22C,1.752600*%
%ADD23C,2.800000*%
G04 APERTURE END LIST*
D10*
X34925003Y-140335000D02*
G75*
G03*
X38735000Y-144145000I3809997J-3D01*
G01*
X200025000Y-144144997D02*
G75*
G03*
X203835000Y-140335000I3J3809997D01*
G01*
X203834997Y-38735000D02*
G75*
G03*
X200025000Y-34925000I-3809997J3D01*
G01*
X38735000Y-34925003D02*
G75*
G03*
X34925000Y-38735000I-3J-3809997D01*
G01*
X34925000Y-140335000D02*
X34925000Y-38735000D01*
X200025000Y-144145000D02*
X38735000Y-144145000D01*
X203835000Y-38735000D02*
X203835000Y-140335000D01*
X38735000Y-34925000D02*
X200025000Y-34925000D01*
D11*
X84455000Y-51435000D03*
D12*
X89535000Y-51435000D03*
D11*
X94615000Y-51435000D03*
X46355000Y-70485000D03*
D12*
X51435000Y-70485000D03*
D11*
X56515000Y-70485000D03*
D12*
X89535000Y-89535000D03*
D11*
X94615000Y-89535000D03*
X84455000Y-89535000D03*
X103505000Y-51435000D03*
D12*
X108585000Y-51435000D03*
D11*
X113665000Y-51435000D03*
X75565000Y-127635000D03*
D12*
X70485000Y-127635000D03*
D11*
X65405000Y-127635000D03*
D12*
X108585000Y-108585000D03*
D11*
X113665000Y-108585000D03*
X103505000Y-108585000D03*
X141605000Y-70485000D03*
X151765000Y-70485000D03*
D12*
X146685000Y-70485000D03*
D11*
X132715000Y-70485000D03*
X122555000Y-70485000D03*
D12*
X127635000Y-70485000D03*
D11*
X141605000Y-51435000D03*
X151765000Y-51435000D03*
D12*
X146685000Y-51435000D03*
X51435000Y-108585000D03*
D11*
X46355000Y-108585000D03*
X56515000Y-108585000D03*
X103505000Y-89535000D03*
X113665000Y-89535000D03*
D12*
X108585000Y-89535000D03*
D11*
X46355000Y-127635000D03*
D12*
X51435000Y-127635000D03*
D11*
X56515000Y-127635000D03*
X113665000Y-127635000D03*
X103505000Y-127635000D03*
D12*
X108585000Y-127635000D03*
D13*
X38327500Y-54610000D03*
X39142500Y-54610000D03*
D12*
X165735000Y-89535000D03*
D11*
X170815000Y-89535000D03*
X160655000Y-89535000D03*
D14*
X137160000Y-99060000D03*
X40005000Y-139065000D03*
D15*
X193665000Y-83820000D03*
X191125000Y-83820000D03*
X188585000Y-83820000D03*
X186045000Y-83820000D03*
D12*
X70485000Y-108585000D03*
D11*
X75565000Y-108585000D03*
X65405000Y-108585000D03*
D12*
X70485000Y-70485000D03*
D11*
X75565000Y-70485000D03*
X65405000Y-70485000D03*
D12*
X70485000Y-51435000D03*
D11*
X65405000Y-51435000D03*
X75565000Y-51435000D03*
X122555000Y-51435000D03*
D12*
X127635000Y-51435000D03*
D11*
X132715000Y-51435000D03*
D14*
X80010000Y-80010000D03*
D11*
X132715000Y-89535000D03*
D12*
X127635000Y-89535000D03*
D11*
X122555000Y-89535000D03*
X132715000Y-108585000D03*
X122555000Y-108585000D03*
D12*
X127635000Y-108585000D03*
X70485000Y-89535000D03*
D11*
X75565000Y-89535000D03*
X65405000Y-89535000D03*
D14*
X137160000Y-80010000D03*
D12*
X108585000Y-70485000D03*
D11*
X103505000Y-70485000D03*
X113665000Y-70485000D03*
D14*
X198755000Y-139065000D03*
X40005000Y-40005000D03*
D11*
X170815000Y-51435000D03*
D12*
X165735000Y-51435000D03*
D11*
X160655000Y-51435000D03*
X151765000Y-108585000D03*
X141605000Y-108585000D03*
D12*
X146685000Y-108585000D03*
D16*
X40005000Y-49462500D03*
X40005000Y-48327500D03*
X40005000Y-52637500D03*
X40005000Y-51502500D03*
D11*
X141609400Y-127627200D03*
D12*
X127639400Y-135882200D03*
D11*
X151769400Y-127627200D03*
D12*
X165739400Y-135882200D03*
D17*
X127639400Y-120642200D03*
D12*
X146689400Y-127627200D03*
D17*
X165739400Y-120642200D03*
D13*
X38327500Y-46355000D03*
X39142500Y-46355000D03*
D12*
X89535000Y-70485000D03*
D11*
X84455000Y-70485000D03*
X94615000Y-70485000D03*
D18*
X43919800Y-48935000D03*
D19*
X43919800Y-53935000D03*
X43919800Y-51435000D03*
D20*
X51419800Y-45835000D03*
X51419800Y-57035000D03*
D14*
X198755000Y-40005000D03*
D21*
X41682500Y-46355000D03*
X40867500Y-46355000D03*
D12*
X89535000Y-127635000D03*
D11*
X94615000Y-127635000D03*
X84455000Y-127635000D03*
D12*
X165735000Y-127635000D03*
D11*
X160655000Y-127635000D03*
X170815000Y-127635000D03*
D21*
X41682500Y-54610000D03*
X40867500Y-54610000D03*
D19*
X186615000Y-89190000D03*
X193115000Y-89190000D03*
X186615000Y-93690000D03*
X193115000Y-93690000D03*
D12*
X127635000Y-127635000D03*
D11*
X132715000Y-127635000D03*
X122555000Y-127635000D03*
X160655000Y-70485000D03*
X170815000Y-70485000D03*
D12*
X165735000Y-70485000D03*
D14*
X80010000Y-99060000D03*
D22*
X182245000Y-45801750D03*
X182245000Y-48341750D03*
X182245000Y-50881750D03*
X182245000Y-53421750D03*
X182245000Y-55961750D03*
X182245000Y-58501750D03*
X182245000Y-61041750D03*
X182245000Y-63581750D03*
X182245000Y-66121750D03*
X182245000Y-68661750D03*
X182245000Y-71201750D03*
X182245000Y-73741750D03*
X197485000Y-73741750D03*
X197485000Y-71201750D03*
X197485000Y-68661750D03*
X197485000Y-66121750D03*
X197485000Y-63581750D03*
X197485000Y-61041750D03*
X197485000Y-58501750D03*
X197485000Y-55961750D03*
X197485000Y-53421750D03*
X197485000Y-50881750D03*
X197485000Y-48341750D03*
X197485000Y-45801750D03*
X184785000Y-68661750D03*
X187325000Y-68661750D03*
X189865000Y-68661750D03*
D11*
X46355000Y-89535000D03*
X56515000Y-89535000D03*
D12*
X51435000Y-89535000D03*
X89535000Y-108585000D03*
D11*
X84455000Y-108585000D03*
X94615000Y-108585000D03*
D12*
X146685000Y-89535000D03*
D11*
X151765000Y-89535000D03*
X141605000Y-89535000D03*
X160655000Y-108585000D03*
X170815000Y-108585000D03*
D12*
X165735000Y-108585000D03*
D23*
X189865000Y-134955000D03*
X189865000Y-97455000D03*
M02*
