%TF.GenerationSoftware,KiCad,Pcbnew,(6.0.1)*%
%TF.CreationDate,2022-04-03T20:03:39+01:00*%
%TF.ProjectId,Keyboard Left Hand Side,4b657962-6f61-4726-9420-4c6566742048,rev?*%
%TF.SameCoordinates,Original*%
%TF.FileFunction,Soldermask,Bot*%
%TF.FilePolarity,Negative*%
%FSLAX46Y46*%
G04 Gerber Fmt 4.6, Leading zero omitted, Abs format (unit mm)*
G04 Created by KiCad (PCBNEW (6.0.1)) date 2022-04-03 20:03:39*
%MOMM*%
%LPD*%
G01*
G04 APERTURE LIST*
G04 Aperture macros list*
%AMRoundRect*
0 Rectangle with rounded corners*
0 $1 Rounding radius*
0 $2 $3 $4 $5 $6 $7 $8 $9 X,Y pos of 4 corners*
0 Add a 4 corners polygon primitive as box body*
4,1,4,$2,$3,$4,$5,$6,$7,$8,$9,$2,$3,0*
0 Add four circle primitives for the rounded corners*
1,1,$1+$1,$2,$3*
1,1,$1+$1,$4,$5*
1,1,$1+$1,$6,$7*
1,1,$1+$1,$8,$9*
0 Add four rect primitives between the rounded corners*
20,1,$1+$1,$2,$3,$4,$5,0*
20,1,$1+$1,$4,$5,$6,$7,0*
20,1,$1+$1,$6,$7,$8,$9,0*
20,1,$1+$1,$8,$9,$2,$3,0*%
%AMHorizOval*
0 Thick line with rounded ends*
0 $1 width*
0 $2 $3 position (X,Y) of the first rounded end (center of the circle)*
0 $4 $5 position (X,Y) of the second rounded end (center of the circle)*
0 Add line between two ends*
20,1,$1,$2,$3,$4,$5,0*
0 Add two circle primitives to create the rounded ends*
1,1,$1,$2,$3*
1,1,$1,$4,$5*%
G04 Aperture macros list end*
%TA.AperFunction,Profile*%
%ADD10C,0.200000*%
%TD*%
%ADD11C,1.750000*%
%ADD12C,3.987800*%
%ADD13C,2.250000*%
%ADD14HorizOval,2.250000X0.655001X0.730000X-0.655001X-0.730000X0*%
%ADD15HorizOval,2.250000X0.020000X0.290000X-0.020000X-0.290000X0*%
%ADD16C,2.200000*%
%ADD17C,1.397000*%
%ADD18C,3.048000*%
%ADD19R,2.000000X2.000000*%
%ADD20C,2.000000*%
%ADD21R,3.000000X2.500000*%
%ADD22C,1.752600*%
%ADD23RoundRect,0.140000X-0.170000X0.140000X-0.170000X-0.140000X0.170000X-0.140000X0.170000X0.140000X0*%
%ADD24R,1.200000X0.900000*%
%ADD25C,2.800000*%
%ADD26R,1.500000X1.000000*%
G04 APERTURE END LIST*
D10*
X34925003Y-140335000D02*
G75*
G03*
X38735000Y-144145000I3809997J-3D01*
G01*
X200025000Y-144144997D02*
G75*
G03*
X203835000Y-140335000I3J3809997D01*
G01*
X203834997Y-38735000D02*
G75*
G03*
X200025000Y-34925000I-3809997J3D01*
G01*
X38735000Y-34925003D02*
G75*
G03*
X34925000Y-38735000I-3J-3809997D01*
G01*
X34925000Y-140335000D02*
X34925000Y-38735000D01*
X200025000Y-144145000D02*
X38735000Y-144145000D01*
X203835000Y-38735000D02*
X203835000Y-140335000D01*
X38735000Y-34925000D02*
X200025000Y-34925000D01*
D11*
X84455000Y-51435000D03*
D12*
X89535000Y-51435000D03*
D11*
X94615000Y-51435000D03*
D13*
X87035000Y-47435000D03*
D14*
X86380001Y-48165000D03*
D13*
X92075000Y-46355000D03*
D15*
X92055000Y-46645000D03*
D11*
X46355000Y-70485000D03*
D12*
X51435000Y-70485000D03*
D11*
X56515000Y-70485000D03*
D14*
X48280001Y-67215000D03*
D13*
X48935000Y-66485000D03*
D15*
X53955000Y-65695000D03*
D13*
X53975000Y-65405000D03*
D12*
X89535000Y-89535000D03*
D11*
X94615000Y-89535000D03*
X84455000Y-89535000D03*
D14*
X86380001Y-86265000D03*
D13*
X87035000Y-85535000D03*
X92075000Y-84455000D03*
D15*
X92055000Y-84745000D03*
D11*
X103505000Y-51435000D03*
D12*
X108585000Y-51435000D03*
D11*
X113665000Y-51435000D03*
D14*
X105430001Y-48165000D03*
D13*
X106085000Y-47435000D03*
D15*
X111105000Y-46645000D03*
D13*
X111125000Y-46355000D03*
D11*
X75565000Y-127635000D03*
D12*
X70485000Y-127635000D03*
D11*
X65405000Y-127635000D03*
D13*
X67985000Y-123635000D03*
D14*
X67330001Y-124365000D03*
D13*
X73025000Y-122555000D03*
D15*
X73005000Y-122845000D03*
D12*
X108585000Y-108585000D03*
D11*
X113665000Y-108585000D03*
X103505000Y-108585000D03*
D14*
X105430001Y-105315000D03*
D13*
X106085000Y-104585000D03*
D15*
X111105000Y-103795000D03*
D13*
X111125000Y-103505000D03*
D11*
X141605000Y-70485000D03*
X151765000Y-70485000D03*
D12*
X146685000Y-70485000D03*
D14*
X143530001Y-67215000D03*
D13*
X144185000Y-66485000D03*
D15*
X149205000Y-65695000D03*
D13*
X149225000Y-65405000D03*
D11*
X132715000Y-70485000D03*
X122555000Y-70485000D03*
D12*
X127635000Y-70485000D03*
D13*
X125135000Y-66485000D03*
D14*
X124480001Y-67215000D03*
D15*
X130155000Y-65695000D03*
D13*
X130175000Y-65405000D03*
D11*
X141605000Y-51435000D03*
X151765000Y-51435000D03*
D12*
X146685000Y-51435000D03*
D13*
X144185000Y-47435000D03*
D14*
X143530001Y-48165000D03*
D13*
X149225000Y-46355000D03*
D15*
X149205000Y-46645000D03*
D12*
X51435000Y-108585000D03*
D11*
X46355000Y-108585000D03*
X56515000Y-108585000D03*
D13*
X48935000Y-104585000D03*
D14*
X48280001Y-105315000D03*
D13*
X53975000Y-103505000D03*
D15*
X53955000Y-103795000D03*
D11*
X103505000Y-89535000D03*
X113665000Y-89535000D03*
D12*
X108585000Y-89535000D03*
D13*
X106085000Y-85535000D03*
D14*
X105430001Y-86265000D03*
D13*
X111125000Y-84455000D03*
D15*
X111105000Y-84745000D03*
D11*
X46355000Y-127635000D03*
D12*
X51435000Y-127635000D03*
D11*
X56515000Y-127635000D03*
D14*
X48280001Y-124365000D03*
D13*
X48935000Y-123635000D03*
D15*
X53955000Y-122845000D03*
D13*
X53975000Y-122555000D03*
D11*
X113665000Y-127635000D03*
X103505000Y-127635000D03*
D12*
X108585000Y-127635000D03*
D14*
X105430001Y-124365000D03*
D13*
X106085000Y-123635000D03*
X111125000Y-122555000D03*
D15*
X111105000Y-122845000D03*
D12*
X165735000Y-89535000D03*
D11*
X170815000Y-89535000D03*
X160655000Y-89535000D03*
D13*
X163235000Y-85535000D03*
D14*
X162580001Y-86265000D03*
D13*
X168275000Y-84455000D03*
D15*
X168255000Y-84745000D03*
D16*
X137160000Y-99060000D03*
X40005000Y-139065000D03*
D17*
X193665000Y-83820000D03*
X191125000Y-83820000D03*
X188585000Y-83820000D03*
X186045000Y-83820000D03*
D12*
X70485000Y-108585000D03*
D11*
X75565000Y-108585000D03*
X65405000Y-108585000D03*
D13*
X67985000Y-104585000D03*
D14*
X67330001Y-105315000D03*
D15*
X73005000Y-103795000D03*
D13*
X73025000Y-103505000D03*
D12*
X70485000Y-70485000D03*
D11*
X75565000Y-70485000D03*
X65405000Y-70485000D03*
D14*
X67330001Y-67215000D03*
D13*
X67985000Y-66485000D03*
D15*
X73005000Y-65695000D03*
D13*
X73025000Y-65405000D03*
D12*
X70485000Y-51435000D03*
D11*
X65405000Y-51435000D03*
X75565000Y-51435000D03*
D14*
X67330001Y-48165000D03*
D13*
X67985000Y-47435000D03*
X73025000Y-46355000D03*
D15*
X73005000Y-46645000D03*
D11*
X122555000Y-51435000D03*
D12*
X127635000Y-51435000D03*
D11*
X132715000Y-51435000D03*
D13*
X125135000Y-47435000D03*
D14*
X124480001Y-48165000D03*
D13*
X130175000Y-46355000D03*
D15*
X130155000Y-46645000D03*
D16*
X80010000Y-80010000D03*
D11*
X132715000Y-89535000D03*
D12*
X127635000Y-89535000D03*
D11*
X122555000Y-89535000D03*
D13*
X125135000Y-85535000D03*
D14*
X124480001Y-86265000D03*
D15*
X130155000Y-84745000D03*
D13*
X130175000Y-84455000D03*
D11*
X132715000Y-108585000D03*
X122555000Y-108585000D03*
D12*
X127635000Y-108585000D03*
D14*
X124480001Y-105315000D03*
D13*
X125135000Y-104585000D03*
D15*
X130155000Y-103795000D03*
D13*
X130175000Y-103505000D03*
D12*
X70485000Y-89535000D03*
D11*
X75565000Y-89535000D03*
X65405000Y-89535000D03*
D14*
X67330001Y-86265000D03*
D13*
X67985000Y-85535000D03*
X73025000Y-84455000D03*
D15*
X73005000Y-84745000D03*
D16*
X137160000Y-80010000D03*
D12*
X108585000Y-70485000D03*
D11*
X103505000Y-70485000D03*
X113665000Y-70485000D03*
D14*
X105430001Y-67215000D03*
D13*
X106085000Y-66485000D03*
X111125000Y-65405000D03*
D15*
X111105000Y-65695000D03*
D16*
X198755000Y-139065000D03*
X40005000Y-40005000D03*
D11*
X170815000Y-51435000D03*
D12*
X165735000Y-51435000D03*
D11*
X160655000Y-51435000D03*
D13*
X163235000Y-47435000D03*
D14*
X162580001Y-48165000D03*
D15*
X168255000Y-46645000D03*
D13*
X168275000Y-46355000D03*
D11*
X151765000Y-108585000D03*
X141605000Y-108585000D03*
D12*
X146685000Y-108585000D03*
D13*
X144185000Y-104585000D03*
D14*
X143530001Y-105315000D03*
D15*
X149205000Y-103795000D03*
D13*
X149225000Y-103505000D03*
D11*
X141609400Y-127627200D03*
D12*
X127639400Y-135882200D03*
D11*
X151769400Y-127627200D03*
D12*
X165739400Y-135882200D03*
D18*
X127639400Y-120642200D03*
D12*
X146689400Y-127627200D03*
D18*
X165739400Y-120642200D03*
D14*
X143534401Y-124357200D03*
D13*
X144189400Y-123627200D03*
X149229400Y-122547200D03*
D15*
X149209400Y-122837200D03*
D12*
X89535000Y-70485000D03*
D11*
X84455000Y-70485000D03*
X94615000Y-70485000D03*
D13*
X87035000Y-66485000D03*
D14*
X86380001Y-67215000D03*
D15*
X92055000Y-65695000D03*
D13*
X92075000Y-65405000D03*
D19*
X43919800Y-48935000D03*
D20*
X43919800Y-53935000D03*
X43919800Y-51435000D03*
D21*
X51419800Y-45835000D03*
X51419800Y-57035000D03*
D16*
X198755000Y-40005000D03*
D12*
X89535000Y-127635000D03*
D11*
X94615000Y-127635000D03*
X84455000Y-127635000D03*
D14*
X86380001Y-124365000D03*
D13*
X87035000Y-123635000D03*
D15*
X92055000Y-122845000D03*
D13*
X92075000Y-122555000D03*
D12*
X165735000Y-127635000D03*
D11*
X160655000Y-127635000D03*
X170815000Y-127635000D03*
D14*
X162580001Y-124365000D03*
D13*
X163235000Y-123635000D03*
D15*
X168255000Y-122845000D03*
D13*
X168275000Y-122555000D03*
D20*
X186615000Y-89190000D03*
X193115000Y-89190000D03*
X186615000Y-93690000D03*
X193115000Y-93690000D03*
D12*
X127635000Y-127635000D03*
D11*
X132715000Y-127635000D03*
X122555000Y-127635000D03*
D14*
X124480001Y-124365000D03*
D13*
X125135000Y-123635000D03*
X130175000Y-122555000D03*
D15*
X130155000Y-122845000D03*
D11*
X160655000Y-70485000D03*
X170815000Y-70485000D03*
D12*
X165735000Y-70485000D03*
D13*
X163235000Y-66485000D03*
D14*
X162580001Y-67215000D03*
D13*
X168275000Y-65405000D03*
D15*
X168255000Y-65695000D03*
D16*
X80010000Y-99060000D03*
D22*
X182245000Y-45801750D03*
X182245000Y-48341750D03*
X182245000Y-50881750D03*
X182245000Y-53421750D03*
X182245000Y-55961750D03*
X182245000Y-58501750D03*
X182245000Y-61041750D03*
X182245000Y-63581750D03*
X182245000Y-66121750D03*
X182245000Y-68661750D03*
X182245000Y-71201750D03*
X182245000Y-73741750D03*
X197485000Y-73741750D03*
X197485000Y-71201750D03*
X197485000Y-68661750D03*
X197485000Y-66121750D03*
X197485000Y-63581750D03*
X197485000Y-61041750D03*
X197485000Y-58501750D03*
X197485000Y-55961750D03*
X197485000Y-53421750D03*
X197485000Y-50881750D03*
X197485000Y-48341750D03*
X197485000Y-45801750D03*
X184785000Y-68661750D03*
X187325000Y-68661750D03*
X189865000Y-68661750D03*
D11*
X46355000Y-89535000D03*
X56515000Y-89535000D03*
D12*
X51435000Y-89535000D03*
D13*
X48935000Y-85535000D03*
D14*
X48280001Y-86265000D03*
D13*
X53975000Y-84455000D03*
D15*
X53955000Y-84745000D03*
D12*
X89535000Y-108585000D03*
D11*
X84455000Y-108585000D03*
X94615000Y-108585000D03*
D13*
X87035000Y-104585000D03*
D14*
X86380001Y-105315000D03*
D13*
X92075000Y-103505000D03*
D15*
X92055000Y-103795000D03*
D12*
X146685000Y-89535000D03*
D11*
X151765000Y-89535000D03*
X141605000Y-89535000D03*
D14*
X143530001Y-86265000D03*
D13*
X144185000Y-85535000D03*
D15*
X149205000Y-84745000D03*
D13*
X149225000Y-84455000D03*
D11*
X160655000Y-108585000D03*
X170815000Y-108585000D03*
D12*
X165735000Y-108585000D03*
D14*
X162580001Y-105315000D03*
D13*
X163235000Y-104585000D03*
X168275000Y-103505000D03*
D15*
X168255000Y-103795000D03*
D23*
X149860000Y-58575000D03*
X149860000Y-59535000D03*
X53340000Y-59210000D03*
X53340000Y-60170000D03*
X101600000Y-59210000D03*
X101600000Y-60170000D03*
D24*
X174260000Y-129800000D03*
X174260000Y-126500000D03*
X59960000Y-91685000D03*
X59960000Y-88385000D03*
D25*
X189865000Y-134955000D03*
X189865000Y-97455000D03*
D26*
X106135000Y-61290000D03*
X106135000Y-58090000D03*
X111035000Y-58090000D03*
X111035000Y-61290000D03*
D24*
X155210000Y-53585000D03*
X155210000Y-50285000D03*
X174250000Y-91670000D03*
X174250000Y-88370000D03*
X98060000Y-110735000D03*
X98060000Y-107435000D03*
X117110000Y-53585000D03*
X117110000Y-50285000D03*
X155210000Y-110735000D03*
X155210000Y-107435000D03*
X59960000Y-72640000D03*
X59960000Y-69340000D03*
X117110000Y-91685000D03*
X117110000Y-88385000D03*
X98080000Y-72640000D03*
X98080000Y-69340000D03*
D26*
X153760000Y-60655000D03*
X153760000Y-57455000D03*
X158660000Y-57455000D03*
X158660000Y-60655000D03*
D24*
X59960000Y-129785000D03*
X59960000Y-126485000D03*
X117110000Y-72635000D03*
X117110000Y-69335000D03*
D26*
X111035000Y-116510000D03*
X111035000Y-119710000D03*
X106135000Y-119710000D03*
X106135000Y-116510000D03*
D24*
X155220000Y-129790000D03*
X155220000Y-126490000D03*
X136160000Y-72635000D03*
X136160000Y-69335000D03*
X79010000Y-91685000D03*
X79010000Y-88385000D03*
X136160000Y-129790000D03*
X136160000Y-126490000D03*
X136160000Y-91685000D03*
X136160000Y-88385000D03*
X59960000Y-110735000D03*
X59960000Y-107435000D03*
X98050000Y-53590000D03*
X98050000Y-50290000D03*
X79010000Y-129785000D03*
X79010000Y-126485000D03*
X79010000Y-53585000D03*
X79010000Y-50285000D03*
D23*
X149225000Y-117630000D03*
X149225000Y-118590000D03*
D26*
X63410000Y-116510000D03*
X63410000Y-119710000D03*
X58510000Y-119710000D03*
X58510000Y-116510000D03*
D24*
X79010000Y-72635000D03*
X79010000Y-69335000D03*
X136160000Y-110735000D03*
X136160000Y-107435000D03*
X98060000Y-91670000D03*
X98060000Y-88370000D03*
X155210000Y-91690000D03*
X155210000Y-88390000D03*
X174250000Y-110740000D03*
X174250000Y-107440000D03*
X136160000Y-53585000D03*
X136160000Y-50285000D03*
D26*
X158660000Y-116510000D03*
X158660000Y-119710000D03*
X153760000Y-119710000D03*
X153760000Y-116510000D03*
D24*
X174270000Y-72640000D03*
X174270000Y-69340000D03*
D23*
X100965000Y-117630000D03*
X100965000Y-118590000D03*
D26*
X58510000Y-61290000D03*
X58510000Y-58090000D03*
X63410000Y-58090000D03*
X63410000Y-61290000D03*
D24*
X117110000Y-110735000D03*
X117110000Y-107435000D03*
X174260000Y-53585000D03*
X174260000Y-50285000D03*
X155210000Y-72635000D03*
X155210000Y-69335000D03*
D23*
X53340000Y-117630000D03*
X53340000Y-118590000D03*
D24*
X79010000Y-110735000D03*
X79010000Y-107435000D03*
X98060000Y-129785000D03*
X98060000Y-126485000D03*
X117110000Y-129785000D03*
X117110000Y-126485000D03*
M02*
