%TF.GenerationSoftware,KiCad,Pcbnew,(6.0.1)*%
%TF.CreationDate,2022-04-03T20:03:39+01:00*%
%TF.ProjectId,Keyboard Left Hand Side,4b657962-6f61-4726-9420-4c6566742048,rev?*%
%TF.SameCoordinates,Original*%
%TF.FileFunction,Copper,L2,Bot*%
%TF.FilePolarity,Positive*%
%FSLAX46Y46*%
G04 Gerber Fmt 4.6, Leading zero omitted, Abs format (unit mm)*
G04 Created by KiCad (PCBNEW (6.0.1)) date 2022-04-03 20:03:39*
%MOMM*%
%LPD*%
G01*
G04 APERTURE LIST*
G04 Aperture macros list*
%AMRoundRect*
0 Rectangle with rounded corners*
0 $1 Rounding radius*
0 $2 $3 $4 $5 $6 $7 $8 $9 X,Y pos of 4 corners*
0 Add a 4 corners polygon primitive as box body*
4,1,4,$2,$3,$4,$5,$6,$7,$8,$9,$2,$3,0*
0 Add four circle primitives for the rounded corners*
1,1,$1+$1,$2,$3*
1,1,$1+$1,$4,$5*
1,1,$1+$1,$6,$7*
1,1,$1+$1,$8,$9*
0 Add four rect primitives between the rounded corners*
20,1,$1+$1,$2,$3,$4,$5,0*
20,1,$1+$1,$4,$5,$6,$7,0*
20,1,$1+$1,$6,$7,$8,$9,0*
20,1,$1+$1,$8,$9,$2,$3,0*%
%AMHorizOval*
0 Thick line with rounded ends*
0 $1 width*
0 $2 $3 position (X,Y) of the first rounded end (center of the circle)*
0 $4 $5 position (X,Y) of the second rounded end (center of the circle)*
0 Add line between two ends*
20,1,$1,$2,$3,$4,$5,0*
0 Add two circle primitives to create the rounded ends*
1,1,$1,$2,$3*
1,1,$1,$4,$5*%
G04 Aperture macros list end*
%TA.AperFunction,Profile*%
%ADD10C,0.200000*%
%TD*%
%TA.AperFunction,ComponentPad*%
%ADD11C,2.250000*%
%TD*%
%TA.AperFunction,ComponentPad*%
%ADD12HorizOval,2.250000X0.655001X0.730000X-0.655001X-0.730000X0*%
%TD*%
%TA.AperFunction,ComponentPad*%
%ADD13HorizOval,2.250000X0.020000X0.290000X-0.020000X-0.290000X0*%
%TD*%
%TA.AperFunction,ComponentPad*%
%ADD14C,1.397000*%
%TD*%
%TA.AperFunction,ComponentPad*%
%ADD15R,2.000000X2.000000*%
%TD*%
%TA.AperFunction,ComponentPad*%
%ADD16C,2.000000*%
%TD*%
%TA.AperFunction,ComponentPad*%
%ADD17R,3.000000X2.500000*%
%TD*%
%TA.AperFunction,ComponentPad*%
%ADD18C,1.752600*%
%TD*%
%TA.AperFunction,SMDPad,CuDef*%
%ADD19RoundRect,0.140000X-0.170000X0.140000X-0.170000X-0.140000X0.170000X-0.140000X0.170000X0.140000X0*%
%TD*%
%TA.AperFunction,SMDPad,CuDef*%
%ADD20R,1.200000X0.900000*%
%TD*%
%TA.AperFunction,ComponentPad*%
%ADD21C,2.800000*%
%TD*%
%TA.AperFunction,SMDPad,CuDef*%
%ADD22R,1.500000X1.000000*%
%TD*%
%TA.AperFunction,ViaPad*%
%ADD23C,1.200000*%
%TD*%
%TA.AperFunction,ViaPad*%
%ADD24C,0.800000*%
%TD*%
%TA.AperFunction,Conductor*%
%ADD25C,0.250000*%
%TD*%
%TA.AperFunction,Conductor*%
%ADD26C,0.600000*%
%TD*%
%TA.AperFunction,Conductor*%
%ADD27C,1.000000*%
%TD*%
G04 APERTURE END LIST*
D10*
X34925003Y-140335000D02*
G75*
G03*
X38735000Y-144145000I3809997J-3D01*
G01*
X200025000Y-144144997D02*
G75*
G03*
X203835000Y-140335000I3J3809997D01*
G01*
X203834997Y-38735000D02*
G75*
G03*
X200025000Y-34925000I-3809997J3D01*
G01*
X38735000Y-34925003D02*
G75*
G03*
X34925000Y-38735000I-3J-3809997D01*
G01*
X34925000Y-140335000D02*
X34925000Y-38735000D01*
X200025000Y-144145000D02*
X38735000Y-144145000D01*
X203835000Y-38735000D02*
X203835000Y-140335000D01*
X38735000Y-34925000D02*
X200025000Y-34925000D01*
D11*
X87035000Y-47435000D03*
D12*
X86380001Y-48165000D03*
D11*
X92075000Y-46355000D03*
D13*
X92055000Y-46645000D03*
D12*
X48280001Y-67215000D03*
D11*
X48935000Y-66485000D03*
D13*
X53955000Y-65695000D03*
D11*
X53975000Y-65405000D03*
D12*
X86380001Y-86265000D03*
D11*
X87035000Y-85535000D03*
X92075000Y-84455000D03*
D13*
X92055000Y-84745000D03*
D12*
X105430001Y-48165000D03*
D11*
X106085000Y-47435000D03*
D13*
X111105000Y-46645000D03*
D11*
X111125000Y-46355000D03*
X67985000Y-123635000D03*
D12*
X67330001Y-124365000D03*
D11*
X73025000Y-122555000D03*
D13*
X73005000Y-122845000D03*
D12*
X105430001Y-105315000D03*
D11*
X106085000Y-104585000D03*
D13*
X111105000Y-103795000D03*
D11*
X111125000Y-103505000D03*
D12*
X143530001Y-67215000D03*
D11*
X144185000Y-66485000D03*
D13*
X149205000Y-65695000D03*
D11*
X149225000Y-65405000D03*
X125135000Y-66485000D03*
D12*
X124480001Y-67215000D03*
D13*
X130155000Y-65695000D03*
D11*
X130175000Y-65405000D03*
X144185000Y-47435000D03*
D12*
X143530001Y-48165000D03*
D11*
X149225000Y-46355000D03*
D13*
X149205000Y-46645000D03*
D11*
X48935000Y-104585000D03*
D12*
X48280001Y-105315000D03*
D11*
X53975000Y-103505000D03*
D13*
X53955000Y-103795000D03*
D11*
X106085000Y-85535000D03*
D12*
X105430001Y-86265000D03*
D11*
X111125000Y-84455000D03*
D13*
X111105000Y-84745000D03*
D12*
X48280001Y-124365000D03*
D11*
X48935000Y-123635000D03*
D13*
X53955000Y-122845000D03*
D11*
X53975000Y-122555000D03*
D12*
X105430001Y-124365000D03*
D11*
X106085000Y-123635000D03*
X111125000Y-122555000D03*
D13*
X111105000Y-122845000D03*
D11*
X163235000Y-85535000D03*
D12*
X162580001Y-86265000D03*
D11*
X168275000Y-84455000D03*
D13*
X168255000Y-84745000D03*
D14*
X193665000Y-83820000D03*
X191125000Y-83820000D03*
X188585000Y-83820000D03*
X186045000Y-83820000D03*
D11*
X67985000Y-104585000D03*
D12*
X67330001Y-105315000D03*
D13*
X73005000Y-103795000D03*
D11*
X73025000Y-103505000D03*
D12*
X67330001Y-67215000D03*
D11*
X67985000Y-66485000D03*
D13*
X73005000Y-65695000D03*
D11*
X73025000Y-65405000D03*
D12*
X67330001Y-48165000D03*
D11*
X67985000Y-47435000D03*
X73025000Y-46355000D03*
D13*
X73005000Y-46645000D03*
D11*
X125135000Y-47435000D03*
D12*
X124480001Y-48165000D03*
D11*
X130175000Y-46355000D03*
D13*
X130155000Y-46645000D03*
D11*
X125135000Y-85535000D03*
D12*
X124480001Y-86265000D03*
D13*
X130155000Y-84745000D03*
D11*
X130175000Y-84455000D03*
D12*
X124480001Y-105315000D03*
D11*
X125135000Y-104585000D03*
D13*
X130155000Y-103795000D03*
D11*
X130175000Y-103505000D03*
D12*
X67330001Y-86265000D03*
D11*
X67985000Y-85535000D03*
X73025000Y-84455000D03*
D13*
X73005000Y-84745000D03*
D12*
X105430001Y-67215000D03*
D11*
X106085000Y-66485000D03*
X111125000Y-65405000D03*
D13*
X111105000Y-65695000D03*
D11*
X163235000Y-47435000D03*
D12*
X162580001Y-48165000D03*
D13*
X168255000Y-46645000D03*
D11*
X168275000Y-46355000D03*
X144185000Y-104585000D03*
D12*
X143530001Y-105315000D03*
D13*
X149205000Y-103795000D03*
D11*
X149225000Y-103505000D03*
D12*
X143534401Y-124357200D03*
D11*
X144189400Y-123627200D03*
X149229400Y-122547200D03*
D13*
X149209400Y-122837200D03*
D11*
X87035000Y-66485000D03*
D12*
X86380001Y-67215000D03*
D13*
X92055000Y-65695000D03*
D11*
X92075000Y-65405000D03*
D15*
X43919800Y-48935000D03*
D16*
X43919800Y-53935000D03*
X43919800Y-51435000D03*
D17*
X51419800Y-45835000D03*
X51419800Y-57035000D03*
D12*
X86380001Y-124365000D03*
D11*
X87035000Y-123635000D03*
D13*
X92055000Y-122845000D03*
D11*
X92075000Y-122555000D03*
D12*
X162580001Y-124365000D03*
D11*
X163235000Y-123635000D03*
D13*
X168255000Y-122845000D03*
D11*
X168275000Y-122555000D03*
D16*
X186615000Y-89190000D03*
X193115000Y-89190000D03*
X186615000Y-93690000D03*
X193115000Y-93690000D03*
D12*
X124480001Y-124365000D03*
D11*
X125135000Y-123635000D03*
X130175000Y-122555000D03*
D13*
X130155000Y-122845000D03*
D11*
X163235000Y-66485000D03*
D12*
X162580001Y-67215000D03*
D11*
X168275000Y-65405000D03*
D13*
X168255000Y-65695000D03*
D18*
X182245000Y-45801750D03*
X182245000Y-48341750D03*
X182245000Y-50881750D03*
X182245000Y-53421750D03*
X182245000Y-55961750D03*
X182245000Y-58501750D03*
X182245000Y-61041750D03*
X182245000Y-63581750D03*
X182245000Y-66121750D03*
X182245000Y-68661750D03*
X182245000Y-71201750D03*
X182245000Y-73741750D03*
X197485000Y-73741750D03*
X197485000Y-71201750D03*
X197485000Y-68661750D03*
X197485000Y-66121750D03*
X197485000Y-63581750D03*
X197485000Y-61041750D03*
X197485000Y-58501750D03*
X197485000Y-55961750D03*
X197485000Y-53421750D03*
X197485000Y-50881750D03*
X197485000Y-48341750D03*
X197485000Y-45801750D03*
X184785000Y-68661750D03*
X187325000Y-68661750D03*
X189865000Y-68661750D03*
D11*
X48935000Y-85535000D03*
D12*
X48280001Y-86265000D03*
D11*
X53975000Y-84455000D03*
D13*
X53955000Y-84745000D03*
D11*
X87035000Y-104585000D03*
D12*
X86380001Y-105315000D03*
D11*
X92075000Y-103505000D03*
D13*
X92055000Y-103795000D03*
D12*
X143530001Y-86265000D03*
D11*
X144185000Y-85535000D03*
D13*
X149205000Y-84745000D03*
D11*
X149225000Y-84455000D03*
D12*
X162580001Y-105315000D03*
D11*
X163235000Y-104585000D03*
X168275000Y-103505000D03*
D13*
X168255000Y-103795000D03*
D19*
X149860000Y-58575000D03*
X149860000Y-59535000D03*
X53340000Y-59210000D03*
X53340000Y-60170000D03*
X101600000Y-59210000D03*
X101600000Y-60170000D03*
D20*
X174260000Y-129800000D03*
X174260000Y-126500000D03*
X59960000Y-91685000D03*
X59960000Y-88385000D03*
D21*
X189865000Y-134955000D03*
X189865000Y-97455000D03*
D22*
X106135000Y-61290000D03*
X106135000Y-58090000D03*
X111035000Y-58090000D03*
X111035000Y-61290000D03*
D20*
X155210000Y-53585000D03*
X155210000Y-50285000D03*
X174250000Y-91670000D03*
X174250000Y-88370000D03*
X98060000Y-110735000D03*
X98060000Y-107435000D03*
X117110000Y-53585000D03*
X117110000Y-50285000D03*
X155210000Y-110735000D03*
X155210000Y-107435000D03*
X59960000Y-72640000D03*
X59960000Y-69340000D03*
X117110000Y-91685000D03*
X117110000Y-88385000D03*
X98080000Y-72640000D03*
X98080000Y-69340000D03*
D22*
X153760000Y-60655000D03*
X153760000Y-57455000D03*
X158660000Y-57455000D03*
X158660000Y-60655000D03*
D20*
X59960000Y-129785000D03*
X59960000Y-126485000D03*
X117110000Y-72635000D03*
X117110000Y-69335000D03*
D22*
X111035000Y-116510000D03*
X111035000Y-119710000D03*
X106135000Y-119710000D03*
X106135000Y-116510000D03*
D20*
X155220000Y-129790000D03*
X155220000Y-126490000D03*
X136160000Y-72635000D03*
X136160000Y-69335000D03*
X79010000Y-91685000D03*
X79010000Y-88385000D03*
X136160000Y-129790000D03*
X136160000Y-126490000D03*
X136160000Y-91685000D03*
X136160000Y-88385000D03*
X59960000Y-110735000D03*
X59960000Y-107435000D03*
X98050000Y-53590000D03*
X98050000Y-50290000D03*
X79010000Y-129785000D03*
X79010000Y-126485000D03*
X79010000Y-53585000D03*
X79010000Y-50285000D03*
D19*
X149225000Y-117630000D03*
X149225000Y-118590000D03*
D22*
X63410000Y-116510000D03*
X63410000Y-119710000D03*
X58510000Y-119710000D03*
X58510000Y-116510000D03*
D20*
X79010000Y-72635000D03*
X79010000Y-69335000D03*
X136160000Y-110735000D03*
X136160000Y-107435000D03*
X98060000Y-91670000D03*
X98060000Y-88370000D03*
X155210000Y-91690000D03*
X155210000Y-88390000D03*
X174250000Y-110740000D03*
X174250000Y-107440000D03*
X136160000Y-53585000D03*
X136160000Y-50285000D03*
D22*
X158660000Y-116510000D03*
X158660000Y-119710000D03*
X153760000Y-119710000D03*
X153760000Y-116510000D03*
D20*
X174270000Y-72640000D03*
X174270000Y-69340000D03*
D19*
X100965000Y-117630000D03*
X100965000Y-118590000D03*
D22*
X58510000Y-61290000D03*
X58510000Y-58090000D03*
X63410000Y-58090000D03*
X63410000Y-61290000D03*
D20*
X117110000Y-110735000D03*
X117110000Y-107435000D03*
X174260000Y-53585000D03*
X174260000Y-50285000D03*
X155210000Y-72635000D03*
X155210000Y-69335000D03*
D19*
X53340000Y-117630000D03*
X53340000Y-118590000D03*
D20*
X79010000Y-110735000D03*
X79010000Y-107435000D03*
X98060000Y-129785000D03*
X98060000Y-126485000D03*
X117110000Y-129785000D03*
X117110000Y-126485000D03*
D23*
X176276000Y-57912000D03*
X145570000Y-60805000D03*
X145570000Y-58420000D03*
D24*
X179070000Y-64770000D03*
X177800000Y-64770000D03*
X176530000Y-64770000D03*
X175260000Y-64770000D03*
X116840000Y-60325000D03*
X117475000Y-58420000D03*
X175260000Y-59690000D03*
X44450000Y-116205000D03*
X44450000Y-59055000D03*
X108585000Y-118745000D03*
X108585000Y-116840000D03*
X147320000Y-120650000D03*
X147955000Y-115570000D03*
X146685000Y-114300000D03*
X99365000Y-116510000D03*
X102870000Y-115570000D03*
X149860000Y-120650000D03*
X99365000Y-118440000D03*
X102870000Y-118745000D03*
X180185000Y-117630000D03*
X65405000Y-60960000D03*
D23*
X179705000Y-54610000D03*
X103124000Y-59182000D03*
D24*
X55245000Y-59690000D03*
D23*
X102235000Y-62865000D03*
D24*
X45085000Y-44450000D03*
X41910000Y-49530000D03*
X41910000Y-51435000D03*
X41910000Y-57150000D03*
X178345489Y-58965489D03*
X187960000Y-80645000D03*
X172085000Y-118745000D03*
D23*
X175260000Y-56515000D03*
D25*
X158228439Y-57455000D02*
G75*
G02*
X158228452Y-57455000I6J-1016286824D01*
G01*
X158288068Y-57455000D02*
G75*
G02*
X158288072Y-57455000I2J-1016286824D01*
G01*
X158235494Y-57455000D02*
G75*
G02*
X158235501Y-57455000I3J-1016286824D01*
G01*
X158238803Y-57455000D02*
G75*
G02*
X158238793Y-57455000I-5J1131196824D01*
G01*
X158288657Y-57455000D02*
G75*
G02*
X158288651Y-57455000I-3J1131196824D01*
G01*
X158238972Y-57455000D02*
G75*
G02*
X158238981Y-57455000I4J-1016286824D01*
G01*
X158222580Y-57455000D02*
G75*
G02*
X158222580Y-57455000I0J0D01*
G01*
X158222580Y-57455000D02*
G75*
G02*
X158222603Y-57455000I11J-1016286824D01*
G01*
X158222603Y-57455000D02*
G75*
G02*
X158222580Y-57455000I-12J1131196824D01*
G01*
X158280763Y-57455000D02*
G75*
G02*
X158280769Y-57455000I3J-1016286824D01*
G01*
X158282165Y-57455000D02*
G75*
G02*
X158282172Y-57455000I3J-1016286824D01*
G01*
X158223423Y-57455000D02*
G75*
G02*
X158223413Y-57455000I-5J1131196824D01*
G01*
X158272131Y-57455000D02*
G75*
G02*
X158272141Y-57455000I5J-1016286824D01*
G01*
X158222580Y-57455000D02*
G75*
G02*
X158222592Y-57455000I6J-1016286824D01*
G01*
X158238922Y-57455000D02*
G75*
G02*
X158238922Y-57455000I0J0D01*
G01*
X158237076Y-57455000D02*
G75*
G02*
X158237082Y-57455000I3J-1016286824D01*
G01*
X158223592Y-57455000D02*
G75*
G02*
X158223601Y-57455000I4J-1016286824D01*
G01*
X158238908Y-57455000D02*
G75*
G02*
X158238922Y-57455000I7J-1016286824D01*
G01*
X158226689Y-57455000D02*
G75*
G02*
X158226682Y-57455000I-4J1131196824D01*
G01*
X158223542Y-57455000D02*
G75*
G02*
X158223542Y-57455000I0J0D01*
G01*
X158239825Y-57455000D02*
G75*
G02*
X158239842Y-57455000I8J-1016286824D01*
G01*
X158226678Y-57455000D02*
G75*
G02*
X158226682Y-57455000I2J-1016286824D01*
G01*
X158253587Y-57455000D02*
G75*
G02*
X158253595Y-57455000I4J-1016286824D01*
G01*
X158226545Y-57455000D02*
G75*
G02*
X158226554Y-57455000I4J-1016286824D01*
G01*
X158475420Y-57455000D02*
G75*
G02*
X158475430Y-57455000I5J-1016286824D01*
G01*
X158288068Y-57455000D02*
G75*
G02*
X158288072Y-57455000I2J-1016286824D01*
G01*
X158235368Y-57455000D02*
G75*
G02*
X158235375Y-57455000I3J-1016286824D01*
G01*
X158273455Y-57455000D02*
G75*
G02*
X158273462Y-57455000I3J-1016286824D01*
G01*
X158226155Y-57455000D02*
G75*
G02*
X158226162Y-57455000I3J-1016286824D01*
G01*
X158475240Y-57455000D02*
G75*
G02*
X158475250Y-57455000I5J-1016286824D01*
G01*
X158238789Y-57455000D02*
G75*
G02*
X158238793Y-57455000I2J-1016286824D01*
G01*
X158223528Y-57455000D02*
G75*
G02*
X158223542Y-57455000I7J-1016286824D01*
G01*
X158223409Y-57455000D02*
G75*
G02*
X158223413Y-57455000I2J-1016286824D01*
G01*
X158247449Y-57455000D02*
G75*
G02*
X158247456Y-57455000I3J-1016286824D01*
G01*
X158281189Y-57455000D02*
G75*
G02*
X158281195Y-57455000I3J-1016286824D01*
G01*
X158259956Y-57455000D02*
X158259608Y-57455000D01*
X158272084Y-57455000D02*
X158272030Y-57455000D01*
X158290065Y-57455000D02*
X158290021Y-57455000D01*
X158281430Y-57455000D02*
X158281377Y-57455000D01*
X158380101Y-57455000D02*
X158379350Y-57455000D01*
X158272330Y-57455000D02*
X158272308Y-57455000D01*
X158244997Y-57455000D02*
X158244723Y-57455000D01*
X158273791Y-57455000D02*
X158273651Y-57455000D01*
D26*
X159274804Y-57455000D02*
X159263696Y-57455000D01*
X158742883Y-57455000D02*
X158742029Y-57455000D01*
D25*
X158487215Y-57455000D02*
X158486973Y-57455000D01*
X158230279Y-57455000D02*
X158230248Y-57455000D01*
X158486641Y-57455000D02*
X158486582Y-57455000D01*
D26*
X159068362Y-57455000D02*
X159066813Y-57455000D01*
D25*
X158239737Y-57455000D02*
X158239700Y-57455000D01*
X158288689Y-57455000D02*
X158288657Y-57455000D01*
X158278411Y-57455000D02*
X158277878Y-57455000D01*
X158310560Y-57455000D02*
X158310292Y-57455000D01*
X158377848Y-57455000D02*
X158377097Y-57455000D01*
X158222904Y-57455000D02*
X158222877Y-57455000D01*
X158629238Y-57455000D02*
X158625820Y-57455000D01*
X158279453Y-57455000D02*
X158279373Y-57455000D01*
X158288864Y-57455000D02*
X158288820Y-57455000D01*
D26*
X159089591Y-57455000D02*
X159089058Y-57455000D01*
X159524742Y-57455000D02*
X159504661Y-57455000D01*
D25*
X158227121Y-57455000D02*
X158227050Y-57455000D01*
X158469334Y-57455000D02*
X158469284Y-57455000D01*
X158478562Y-57455000D02*
X158478482Y-57455000D01*
D26*
X159082544Y-57455000D02*
X159076562Y-57455000D01*
D25*
X158363467Y-57455000D02*
X158363141Y-57455000D01*
X158287656Y-57455000D02*
X158287622Y-57455000D01*
X158299892Y-57455000D02*
X158299758Y-57455000D01*
X158274460Y-57455000D02*
X158274406Y-57455000D01*
X158230605Y-57455000D02*
X158230581Y-57455000D01*
X158468634Y-57455000D02*
X158468594Y-57455000D01*
D26*
X158737860Y-57455000D02*
X158736900Y-57455000D01*
D25*
X158316287Y-57455000D02*
X158316047Y-57455000D01*
X158483491Y-57455000D02*
X158483370Y-57455000D01*
X158243004Y-57455000D02*
X158242150Y-57455000D01*
X158280869Y-57455000D02*
X158280862Y-57455000D01*
D26*
X158767238Y-57455000D02*
X158766384Y-57455000D01*
D25*
X158500311Y-57455000D02*
X158500071Y-57455000D01*
X158500551Y-57455000D02*
X158500311Y-57455000D01*
X158362408Y-57455000D02*
X158361860Y-57455000D01*
X158225418Y-57455000D02*
X158225327Y-57455000D01*
X158253071Y-57455000D02*
X158253018Y-57455000D01*
X158282017Y-57455000D02*
X158281750Y-57455000D01*
X158247142Y-57455000D02*
X158247116Y-57455000D01*
D26*
X158875834Y-57455000D02*
X158859437Y-57455000D01*
D25*
X158253177Y-57455000D02*
X158253124Y-57455000D01*
X158298021Y-57455000D02*
X158297995Y-57455000D01*
X158306019Y-57455000D02*
X158305592Y-57455000D01*
X158288357Y-57455000D02*
X158288304Y-57455000D01*
X158362904Y-57455000D02*
X158362756Y-57455000D01*
X158359727Y-57455000D02*
X158358705Y-57455000D01*
D26*
X159088525Y-57455000D02*
X159087992Y-57455000D01*
D25*
X158540807Y-57455000D02*
X158540567Y-57455000D01*
X158224357Y-57455000D02*
X158224320Y-57455000D01*
X158254735Y-57455000D02*
X158254714Y-57455000D01*
X158291439Y-57455000D02*
X158291332Y-57455000D01*
X158372511Y-57455000D02*
X158371764Y-57455000D01*
X158303564Y-57455000D02*
X158303351Y-57455000D01*
X158279994Y-57455000D02*
X158279927Y-57455000D01*
X158224885Y-57455000D02*
X158224795Y-57455000D01*
D26*
X159883628Y-57455000D02*
X159788886Y-57455000D01*
D25*
X158223833Y-57455000D02*
X158223781Y-57455000D01*
X158226100Y-57455000D02*
X158226067Y-57455000D01*
X158289680Y-57455000D02*
X158289650Y-57455000D01*
X158300588Y-57455000D02*
X158300561Y-57455000D01*
X158354728Y-57455000D02*
X158351736Y-57455000D01*
X158254045Y-57455000D02*
X158253974Y-57455000D01*
D26*
X158726648Y-57455000D02*
X158723231Y-57455000D01*
D25*
X158369644Y-57455000D02*
X158367748Y-57455000D01*
X158298757Y-57455000D02*
X158298704Y-57455000D01*
X158236476Y-57455000D02*
X158236343Y-57455000D01*
X158298863Y-57455000D02*
X158298810Y-57455000D01*
X158299038Y-57455000D02*
X158298904Y-57455000D01*
X158238858Y-57455000D02*
X158238831Y-57455000D01*
X158475360Y-57455000D02*
X158475280Y-57455000D01*
X158316527Y-57455000D02*
X158316287Y-57455000D01*
X158271138Y-57455000D02*
X158271115Y-57455000D01*
X158288959Y-57455000D02*
X158288949Y-57455000D01*
X158287663Y-57455000D02*
X158287656Y-57455000D01*
X158259229Y-57455000D02*
X158259195Y-57455000D01*
X158291108Y-57455000D02*
X158291080Y-57455000D01*
X158238732Y-57455000D02*
X158238665Y-57455000D01*
X158297314Y-57455000D02*
X158297207Y-57455000D01*
X158290665Y-57455000D02*
X158290558Y-57455000D01*
X158228439Y-57455000D02*
X158228418Y-57455000D01*
X158439753Y-57455000D02*
X158439326Y-57455000D01*
X158500731Y-57455000D02*
X158500611Y-57455000D01*
X158497668Y-57455000D02*
X158496947Y-57455000D01*
X158534438Y-57455000D02*
X158533477Y-57455000D01*
D26*
X159028843Y-57455000D02*
X159027828Y-57455000D01*
D25*
X158239161Y-57455000D02*
X158239107Y-57455000D01*
X158224547Y-57455000D02*
X158224512Y-57455000D01*
X158362756Y-57455000D02*
X158362608Y-57455000D01*
X158257276Y-57455000D02*
X158257182Y-57455000D01*
X158253482Y-57455000D02*
X158253422Y-57455000D01*
X158245437Y-57455000D02*
X158245379Y-57455000D01*
X158234058Y-57455000D02*
X158233885Y-57455000D01*
X158284021Y-57455000D02*
X158283167Y-57455000D01*
X158371764Y-57455000D02*
X158371017Y-57455000D01*
X158297207Y-57455000D02*
X158297100Y-57455000D01*
X158222580Y-57455000D02*
X158222592Y-57455000D01*
X158222580Y-57455000D02*
X158222580Y-57455000D01*
X158471796Y-57455000D02*
X158471154Y-57455000D01*
X158229935Y-57455000D02*
X158229795Y-57455000D01*
X158250517Y-57455000D02*
X158250444Y-57455000D01*
X158474356Y-57455000D02*
X158474146Y-57455000D01*
X158298330Y-57455000D02*
X158298276Y-57455000D01*
X158305165Y-57455000D02*
X158304738Y-57455000D01*
X158267786Y-57455000D02*
X158267758Y-57455000D01*
X158226394Y-57455000D02*
X158226342Y-57455000D01*
X158261639Y-57455000D02*
X158261109Y-57455000D01*
X158227050Y-57455000D02*
X158226980Y-57455000D01*
X158290213Y-57455000D02*
X158290159Y-57455000D01*
X158309864Y-57455000D02*
X158309437Y-57455000D01*
X158290456Y-57455000D02*
X158290396Y-57455000D01*
D26*
X160457845Y-57455000D02*
X160170736Y-57455000D01*
D25*
X158477612Y-57455000D02*
X158477512Y-57455000D01*
X158477922Y-57455000D02*
X158477682Y-57455000D01*
X158587685Y-57455000D02*
X158580207Y-57455000D01*
X158280529Y-57455000D02*
X158280496Y-57455000D01*
X158234812Y-57455000D02*
X158234735Y-57455000D01*
X158237182Y-57455000D02*
X158237175Y-57455000D01*
D26*
X159401267Y-57455000D02*
X159389732Y-57455000D01*
D25*
X158252434Y-57455000D02*
X158252334Y-57455000D01*
X158615566Y-57455000D02*
X158612148Y-57455000D01*
X158348744Y-57455000D02*
X158345752Y-57455000D01*
X158246142Y-57455000D02*
X158246136Y-57455000D01*
X158229023Y-57455000D02*
X158228890Y-57455000D01*
X158293136Y-57455000D02*
X158293110Y-57455000D01*
X158502954Y-57455000D02*
X158502233Y-57455000D01*
X158274970Y-57455000D02*
X158274816Y-57455000D01*
X158235102Y-57455000D02*
X158235046Y-57455000D01*
X158236995Y-57455000D02*
X158236949Y-57455000D01*
X158470074Y-57455000D02*
X158469874Y-57455000D01*
X158246318Y-57455000D02*
X158246286Y-57455000D01*
X158225956Y-57455000D02*
X158225923Y-57455000D01*
X158232388Y-57455000D02*
X158232038Y-57455000D01*
X158222683Y-57455000D02*
X158222674Y-57455000D01*
X158259250Y-57455000D02*
X158259229Y-57455000D01*
X158291134Y-57455000D02*
X158291108Y-57455000D01*
X158234658Y-57455000D02*
X158234566Y-57455000D01*
X158229157Y-57455000D02*
X158229023Y-57455000D01*
X158272914Y-57455000D02*
X158272700Y-57455000D01*
X158313337Y-57455000D02*
X158313230Y-57455000D01*
X158281270Y-57455000D02*
X158281216Y-57455000D01*
X158591637Y-57455000D02*
X158591211Y-57455000D01*
X158228551Y-57455000D02*
X158228504Y-57455000D01*
X158326793Y-57455000D02*
X158325619Y-57455000D01*
X158270022Y-57455000D02*
X158269869Y-57455000D01*
X158469394Y-57455000D02*
X158469354Y-57455000D01*
X158282880Y-57455000D02*
X158282600Y-57455000D01*
X158275738Y-57455000D02*
X158275651Y-57455000D01*
X158228662Y-57455000D02*
X158228617Y-57455000D01*
X158490337Y-57455000D02*
X158489136Y-57455000D01*
X158240355Y-57455000D02*
X158240248Y-57455000D01*
X158247649Y-57455000D02*
X158247569Y-57455000D01*
X158287864Y-57455000D02*
X158287808Y-57455000D01*
X158505839Y-57455000D02*
X158505358Y-57455000D01*
X158230450Y-57455000D02*
X158230397Y-57455000D01*
X158293014Y-57455000D02*
X158292900Y-57455000D01*
X158225556Y-57455000D02*
X158225494Y-57455000D01*
X158273510Y-57455000D02*
X158273473Y-57455000D01*
X158230530Y-57455000D02*
X158230522Y-57455000D01*
X158300040Y-57455000D02*
X158299986Y-57455000D01*
X158288213Y-57455000D02*
X158288191Y-57455000D01*
X158274514Y-57455000D02*
X158274460Y-57455000D01*
X158225327Y-57455000D02*
X158225239Y-57455000D01*
X158240161Y-57455000D02*
X158240094Y-57455000D01*
X158239265Y-57455000D02*
X158239213Y-57455000D01*
X158239345Y-57455000D02*
X158239338Y-57455000D01*
X158253974Y-57455000D02*
X158253904Y-57455000D01*
X158252669Y-57455000D02*
X158252616Y-57455000D01*
X158288573Y-57455000D02*
X158288547Y-57455000D01*
X158235494Y-57455000D02*
X158235473Y-57455000D01*
X158290105Y-57455000D02*
X158290065Y-57455000D01*
X158468801Y-57455000D02*
X158468754Y-57455000D01*
D26*
X158889106Y-57455000D02*
X158878959Y-57455000D01*
D25*
X158282165Y-57455000D02*
X158282144Y-57455000D01*
X158606592Y-57455000D02*
X158601036Y-57455000D01*
X158542130Y-57455000D02*
X158541168Y-57455000D01*
X158272413Y-57455000D02*
X158272349Y-57455000D01*
X158239053Y-57455000D02*
X158238999Y-57455000D01*
X158479754Y-57455000D02*
X158479694Y-57455000D01*
X158234290Y-57455000D02*
X158234232Y-57455000D01*
X158226342Y-57455000D02*
X158226290Y-57455000D01*
X158277345Y-57455000D02*
X158276811Y-57455000D01*
X158271184Y-57455000D02*
X158271161Y-57455000D01*
X158247381Y-57455000D02*
X158247274Y-57455000D01*
X158258221Y-57455000D02*
X158258008Y-57455000D01*
D26*
X158753884Y-57455000D02*
X158748971Y-57455000D01*
X159310159Y-57455000D02*
X159300119Y-57455000D01*
D25*
X158290270Y-57455000D02*
X158290213Y-57455000D01*
X158280176Y-57455000D02*
X158280068Y-57455000D01*
X158223478Y-57455000D02*
X158223451Y-57455000D01*
X158473076Y-57455000D02*
X158472436Y-57455000D01*
D26*
X159174400Y-57455000D02*
X159165855Y-57455000D01*
D25*
X158275651Y-57455000D02*
X158275564Y-57455000D01*
X158300615Y-57455000D02*
X158300588Y-57455000D01*
X158238908Y-57455000D02*
X158238901Y-57455000D01*
X158237878Y-57455000D02*
X158237661Y-57455000D01*
X158226134Y-57455000D02*
X158226100Y-57455000D01*
X158468914Y-57455000D02*
X158468864Y-57455000D01*
X158238908Y-57455000D02*
X158238934Y-57455000D01*
X158238934Y-57455000D02*
X158238922Y-57455000D01*
X158246391Y-57455000D02*
X158246344Y-57455000D01*
X158547898Y-57455000D02*
X158546937Y-57455000D01*
X158258008Y-57455000D02*
X158257795Y-57455000D01*
X158246502Y-57455000D02*
X158246457Y-57455000D01*
X158247241Y-57455000D02*
X158247194Y-57455000D01*
D26*
X158822030Y-57455000D02*
X158816796Y-57455000D01*
D25*
X158241865Y-57455000D02*
X158241580Y-57455000D01*
X158365093Y-57455000D02*
X158364967Y-57455000D01*
X158379350Y-57455000D02*
X158378599Y-57455000D01*
D26*
X159117976Y-57455000D02*
X159109913Y-57455000D01*
D25*
X158273128Y-57455000D02*
X158273057Y-57455000D01*
X158291867Y-57455000D02*
X158291760Y-57455000D01*
X158254674Y-57455000D02*
X158254615Y-57455000D01*
X158255045Y-57455000D02*
X158254992Y-57455000D01*
X158223781Y-57455000D02*
X158223727Y-57455000D01*
X158293084Y-57455000D02*
X158293058Y-57455000D01*
X158237661Y-57455000D02*
X158237448Y-57455000D01*
X158236842Y-57455000D02*
X158236809Y-57455000D01*
X158226667Y-57455000D02*
X158226682Y-57455000D01*
X158226689Y-57455000D02*
X158226667Y-57455000D01*
X158351736Y-57455000D02*
X158348744Y-57455000D01*
D26*
X158851722Y-57455000D02*
X158847237Y-57455000D01*
X158730065Y-57455000D02*
X158726648Y-57455000D01*
D25*
X158257795Y-57455000D02*
X158257582Y-57455000D01*
X158246264Y-57455000D02*
X158246256Y-57455000D01*
X158290396Y-57455000D02*
X158290330Y-57455000D01*
X158269635Y-57455000D02*
X158269575Y-57455000D01*
X158477310Y-57455000D02*
X158477170Y-57455000D01*
D26*
X159069618Y-57455000D02*
X159068656Y-57455000D01*
D25*
X158227408Y-57455000D02*
X158227194Y-57455000D01*
X158289355Y-57455000D02*
X158289308Y-57455000D01*
X158309010Y-57455000D02*
X158308583Y-57455000D01*
X158234945Y-57455000D02*
X158234934Y-57455000D01*
X158252563Y-57455000D02*
X158252510Y-57455000D01*
X158228716Y-57455000D02*
X158228689Y-57455000D01*
X158528192Y-57455000D02*
X158527711Y-57455000D01*
X158235217Y-57455000D02*
X158235196Y-57455000D01*
X158287125Y-57455000D02*
X158287092Y-57455000D01*
X158469634Y-57455000D02*
X158469594Y-57455000D01*
X158224429Y-57455000D02*
X158224421Y-57455000D01*
X158279826Y-57455000D02*
X158279780Y-57455000D01*
X158250590Y-57455000D02*
X158250517Y-57455000D01*
X158225239Y-57455000D02*
X158225151Y-57455000D01*
X158225607Y-57455000D02*
X158225574Y-57455000D01*
X158267417Y-57455000D02*
X158267069Y-57455000D01*
X158257505Y-57455000D02*
X158257446Y-57455000D01*
X158246102Y-57455000D02*
X158246022Y-57455000D01*
X158263500Y-57455000D02*
X158263474Y-57455000D01*
X158286995Y-57455000D02*
X158286929Y-57455000D01*
X158488416Y-57455000D02*
X158488176Y-57455000D01*
X158289132Y-57455000D02*
X158289100Y-57455000D01*
X158297635Y-57455000D02*
X158297475Y-57455000D01*
X158272489Y-57455000D02*
X158272413Y-57455000D01*
X158228743Y-57455000D02*
X158228716Y-57455000D01*
X158223965Y-57455000D02*
X158223958Y-57455000D01*
X158478082Y-57455000D02*
X158478002Y-57455000D01*
X158229795Y-57455000D02*
X158229655Y-57455000D01*
X158280890Y-57455000D02*
X158280869Y-57455000D01*
X158292510Y-57455000D02*
X158292296Y-57455000D01*
X158231187Y-57455000D02*
X158231088Y-57455000D01*
X158226910Y-57455000D02*
X158226834Y-57455000D01*
X158310198Y-57455000D02*
X158310118Y-57455000D01*
D26*
X159378197Y-57455000D02*
X159366768Y-57455000D01*
D25*
X158222612Y-57455000D02*
X158222603Y-57455000D01*
X158254893Y-57455000D02*
X158254883Y-57455000D01*
X158291229Y-57455000D02*
X158291186Y-57455000D01*
X158329359Y-57455000D02*
X158328610Y-57455000D01*
X158286582Y-57455000D02*
X158286299Y-57455000D01*
X158255192Y-57455000D02*
X158255139Y-57455000D01*
X158298384Y-57455000D02*
X158298330Y-57455000D01*
X158287682Y-57455000D02*
X158287663Y-57455000D01*
X158292830Y-57455000D02*
X158292576Y-57455000D01*
D26*
X159568535Y-57455000D02*
X159532646Y-57455000D01*
D25*
X158225923Y-57455000D02*
X158225890Y-57455000D01*
X158274689Y-57455000D02*
X158274590Y-57455000D01*
X158293776Y-57455000D02*
X158293642Y-57455000D01*
X158270738Y-57455000D02*
X158270477Y-57455000D01*
X158245650Y-57455000D02*
X158245596Y-57455000D01*
D26*
X158904354Y-57455000D02*
X158904300Y-57455000D01*
D25*
X158228304Y-57455000D02*
X158228297Y-57455000D01*
X158365852Y-57455000D02*
X158365304Y-57455000D01*
D26*
X159051673Y-57455000D02*
X159050178Y-57455000D01*
D25*
X158280470Y-57455000D02*
X158280444Y-57455000D01*
X158609904Y-57455000D02*
X158608835Y-57455000D01*
X158373258Y-57455000D02*
X158372511Y-57455000D01*
D26*
X159664692Y-57455000D02*
X159620205Y-57455000D01*
X159765921Y-57455000D02*
X159717108Y-57455000D01*
D25*
X158269575Y-57455000D02*
X158269515Y-57455000D01*
X158468851Y-57455000D02*
X158468826Y-57455000D01*
X158255777Y-57455000D02*
X158255635Y-57455000D01*
X158251134Y-57455000D02*
X158250747Y-57455000D01*
X158226678Y-57455000D02*
X158226689Y-57455000D01*
X158226689Y-57455000D02*
X158226682Y-57455000D01*
D26*
X158825635Y-57455000D02*
X158823659Y-57455000D01*
D25*
X158239774Y-57455000D02*
X158239737Y-57455000D01*
X158271386Y-57455000D02*
X158271244Y-57455000D01*
X158501933Y-57455000D02*
X158501813Y-57455000D01*
D26*
X159065558Y-57455000D02*
X159061499Y-57455000D01*
D25*
X158265914Y-57455000D02*
X158265385Y-57455000D01*
X158260308Y-57455000D02*
X158259956Y-57455000D01*
X158304311Y-57455000D02*
X158303884Y-57455000D01*
X158269438Y-57455000D02*
X158269225Y-57455000D01*
X158223885Y-57455000D02*
X158223833Y-57455000D01*
X158238831Y-57455000D02*
X158238803Y-57455000D01*
X158243856Y-57455000D02*
X158243004Y-57455000D01*
X158236783Y-57455000D02*
X158236757Y-57455000D01*
X158270477Y-57455000D02*
X158270216Y-57455000D01*
D26*
X159109140Y-57455000D02*
X159102624Y-57455000D01*
D25*
X158639492Y-57455000D02*
X158636074Y-57455000D01*
X158271775Y-57455000D02*
X158271722Y-57455000D01*
X158271881Y-57455000D02*
X158271828Y-57455000D01*
X158491029Y-57455000D02*
X158490968Y-57455000D01*
X158225675Y-57455000D02*
X158225667Y-57455000D01*
X158256143Y-57455000D02*
X158255978Y-57455000D01*
X158223673Y-57455000D02*
X158223619Y-57455000D01*
X158339349Y-57455000D02*
X158338067Y-57455000D01*
X158281324Y-57455000D02*
X158281270Y-57455000D01*
X158300842Y-57455000D02*
X158300682Y-57455000D01*
X158230841Y-57455000D02*
X158230758Y-57455000D01*
D26*
X159383991Y-57455000D02*
X159383938Y-57455000D01*
D25*
X158238972Y-57455000D02*
X158238945Y-57455000D01*
X158285728Y-57455000D02*
X158285444Y-57455000D01*
X158279746Y-57455000D02*
X158279639Y-57455000D01*
X158255860Y-57455000D02*
X158255836Y-57455000D01*
D26*
X158816796Y-57455000D02*
X158811562Y-57455000D01*
X159074826Y-57455000D02*
X159072316Y-57455000D01*
D25*
X158300094Y-57455000D02*
X158300040Y-57455000D01*
X158279359Y-57455000D02*
X158279252Y-57455000D01*
X158288270Y-57455000D02*
X158288244Y-57455000D01*
X158274568Y-57455000D02*
X158274514Y-57455000D01*
D26*
X159021793Y-57455000D02*
X159010738Y-57455000D01*
D25*
X158253517Y-57455000D02*
X158253482Y-57455000D01*
X158440180Y-57455000D02*
X158439753Y-57455000D01*
X158366400Y-57455000D02*
X158365852Y-57455000D01*
X158235287Y-57455000D02*
X158235252Y-57455000D01*
X158504156Y-57455000D02*
X158503435Y-57455000D01*
X158224629Y-57455000D02*
X158224570Y-57455000D01*
X158236343Y-57455000D02*
X158236209Y-57455000D01*
X158230397Y-57455000D02*
X158230344Y-57455000D01*
X158236209Y-57455000D02*
X158236075Y-57455000D01*
X158468674Y-57455000D02*
X158468634Y-57455000D01*
X158226290Y-57455000D02*
X158226236Y-57455000D01*
X158239107Y-57455000D02*
X158239053Y-57455000D01*
D26*
X158788598Y-57455000D02*
X158787744Y-57455000D01*
D25*
X158288068Y-57455000D02*
X158288043Y-57455000D01*
X158295713Y-57455000D02*
X158295179Y-57455000D01*
X158288820Y-57455000D02*
X158288770Y-57455000D01*
X158234970Y-57455000D02*
X158234945Y-57455000D01*
X158228190Y-57455000D02*
X158228123Y-57455000D01*
D26*
X158931727Y-57455000D02*
X158930873Y-57455000D01*
D25*
X158234934Y-57455000D02*
X158234912Y-57455000D01*
X158267758Y-57455000D02*
X158267731Y-57455000D01*
D26*
X159070580Y-57455000D02*
X159069618Y-57455000D01*
D25*
X158280682Y-57455000D02*
X158280636Y-57455000D01*
X158273899Y-57455000D02*
X158273846Y-57455000D01*
X158269225Y-57455000D02*
X158269012Y-57455000D01*
X158239371Y-57455000D02*
X158239345Y-57455000D01*
X158288068Y-57455000D02*
X158288092Y-57455000D01*
X158288092Y-57455000D02*
X158288072Y-57455000D01*
X158288905Y-57455000D02*
X158288864Y-57455000D01*
X158223451Y-57455000D02*
X158223423Y-57455000D01*
X158260665Y-57455000D02*
X158260308Y-57455000D01*
X158246670Y-57455000D02*
X158246603Y-57455000D01*
X158486582Y-57455000D02*
X158486523Y-57455000D01*
X158261022Y-57455000D02*
X158260665Y-57455000D01*
X158505358Y-57455000D02*
X158504877Y-57455000D01*
D26*
X158904408Y-57455000D02*
X158904354Y-57455000D01*
D25*
X158224462Y-57455000D02*
X158224429Y-57455000D01*
X158269012Y-57455000D02*
X158268799Y-57455000D01*
X158269840Y-57455000D02*
X158269746Y-57455000D01*
X158266357Y-57455000D02*
X158266000Y-57455000D01*
X158274005Y-57455000D02*
X158273952Y-57455000D01*
X158469514Y-57455000D02*
X158469474Y-57455000D01*
X158297902Y-57455000D02*
X158297742Y-57455000D01*
X158266716Y-57455000D02*
X158266357Y-57455000D01*
X158610973Y-57455000D02*
X158609904Y-57455000D01*
X158273607Y-57455000D02*
X158273547Y-57455000D01*
D26*
X159133705Y-57455000D02*
X159129219Y-57455000D01*
D25*
X158360712Y-57455000D02*
X158359764Y-57455000D01*
X158286299Y-57455000D02*
X158286011Y-57455000D01*
X158385521Y-57455000D02*
X158383436Y-57455000D01*
X158291186Y-57455000D02*
X158291160Y-57455000D01*
X158524827Y-57455000D02*
X158522424Y-57455000D01*
X158486973Y-57455000D02*
X158486732Y-57455000D01*
X158291295Y-57455000D02*
X158291262Y-57455000D01*
X158238306Y-57455000D02*
X158238092Y-57455000D01*
D26*
X158733482Y-57455000D02*
X158730065Y-57455000D01*
D25*
X158482648Y-57455000D02*
X158482047Y-57455000D01*
X158223528Y-57455000D02*
X158223521Y-57455000D01*
D26*
X158919763Y-57455000D02*
X158909508Y-57455000D01*
D25*
X158474875Y-57455000D02*
X158474836Y-57455000D01*
X158287199Y-57455000D02*
X158287192Y-57455000D01*
X158257152Y-57455000D02*
X158256998Y-57455000D01*
X158474836Y-57455000D02*
X158474797Y-57455000D01*
X158288631Y-57455000D02*
X158288599Y-57455000D01*
X158228478Y-57455000D02*
X158228452Y-57455000D01*
X158223727Y-57455000D02*
X158223673Y-57455000D01*
X158291000Y-57455000D02*
X158290973Y-57455000D01*
X158279573Y-57455000D02*
X158279566Y-57455000D01*
X158290920Y-57455000D02*
X158290786Y-57455000D01*
X158517381Y-57455000D02*
X158514734Y-57455000D01*
X158394624Y-57455000D02*
X158393682Y-57455000D01*
X158277878Y-57455000D02*
X158277345Y-57455000D01*
X158238789Y-57455000D02*
X158238752Y-57455000D01*
X158302124Y-57455000D02*
X158301750Y-57455000D01*
D26*
X158927241Y-57455000D02*
X158922540Y-57455000D01*
D25*
X158238665Y-57455000D02*
X158238590Y-57455000D01*
X158226500Y-57455000D02*
X158226447Y-57455000D01*
X158296994Y-57455000D02*
X158296888Y-57455000D01*
X158223141Y-57455000D02*
X158223080Y-57455000D01*
X158336785Y-57455000D02*
X158335503Y-57455000D01*
X158297100Y-57455000D02*
X158296994Y-57455000D01*
X158473716Y-57455000D02*
X158473076Y-57455000D01*
X158280284Y-57455000D02*
X158280176Y-57455000D01*
X158288463Y-57455000D02*
X158288410Y-57455000D01*
X158259518Y-57455000D02*
X158259343Y-57455000D01*
X158234735Y-57455000D02*
X158234658Y-57455000D01*
X158245832Y-57455000D02*
X158245825Y-57455000D01*
X158280569Y-57455000D02*
X158280529Y-57455000D01*
X158253561Y-57455000D02*
X158253517Y-57455000D01*
X158468826Y-57455000D02*
X158468801Y-57455000D01*
X158272131Y-57455000D02*
X158272101Y-57455000D01*
X158311214Y-57455000D02*
X158310867Y-57455000D01*
X158501813Y-57455000D02*
X158501693Y-57455000D01*
X158281590Y-57455000D02*
X158281537Y-57455000D01*
X158257370Y-57455000D02*
X158257276Y-57455000D01*
X158264581Y-57455000D02*
X158263886Y-57455000D01*
X158500010Y-57455000D02*
X158499649Y-57455000D01*
X158235705Y-57455000D02*
X158235564Y-57455000D01*
D26*
X158787744Y-57455000D02*
X158786890Y-57455000D01*
D25*
X158254328Y-57455000D02*
X158254116Y-57455000D01*
X158247168Y-57455000D02*
X158247142Y-57455000D01*
X158226834Y-57455000D02*
X158226768Y-57455000D01*
D26*
X159044411Y-57455000D02*
X159034371Y-57455000D01*
D25*
X158228047Y-57455000D02*
X158227834Y-57455000D01*
X158267069Y-57455000D02*
X158266716Y-57455000D01*
X158486373Y-57455000D02*
X158486013Y-57455000D01*
X158479814Y-57455000D02*
X158479754Y-57455000D01*
X158469284Y-57455000D02*
X158469234Y-57455000D01*
X158235368Y-57455000D02*
X158235347Y-57455000D01*
X158281377Y-57455000D02*
X158281324Y-57455000D01*
X158233450Y-57455000D02*
X158233102Y-57455000D01*
X158263552Y-57455000D02*
X158263526Y-57455000D01*
X158236882Y-57455000D02*
X158236842Y-57455000D01*
X158320719Y-57455000D02*
X158319090Y-57455000D01*
X158246236Y-57455000D02*
X158246181Y-57455000D01*
X158290330Y-57455000D02*
X158290270Y-57455000D01*
X158227834Y-57455000D02*
X158227621Y-57455000D01*
X158253124Y-57455000D02*
X158253071Y-57455000D01*
X158224394Y-57455000D02*
X158224357Y-57455000D01*
X158234912Y-57455000D02*
X158234890Y-57455000D01*
X158367137Y-57455000D02*
X158366463Y-57455000D01*
X158287076Y-57455000D02*
X158287010Y-57455000D01*
X158305592Y-57455000D02*
X158305165Y-57455000D01*
X158222858Y-57455000D02*
X158222826Y-57455000D01*
X158236609Y-57455000D02*
X158236476Y-57455000D01*
X158223991Y-57455000D02*
X158223965Y-57455000D01*
X158256544Y-57455000D02*
X158256285Y-57455000D01*
X158469434Y-57455000D02*
X158469394Y-57455000D01*
X158300468Y-57455000D02*
X158300254Y-57455000D01*
X158469674Y-57455000D02*
X158469634Y-57455000D01*
X158227621Y-57455000D02*
X158227408Y-57455000D01*
X158240722Y-57455000D02*
X158240442Y-57455000D01*
X158298691Y-57455000D02*
X158298611Y-57455000D01*
X158223285Y-57455000D02*
X158223218Y-57455000D01*
X158286863Y-57455000D02*
X158286797Y-57455000D01*
X158334221Y-57455000D02*
X158332939Y-57455000D01*
X158474557Y-57455000D02*
X158474356Y-57455000D01*
X158234406Y-57455000D02*
X158234309Y-57455000D01*
X158239398Y-57455000D02*
X158239371Y-57455000D01*
X158290145Y-57455000D02*
X158290105Y-57455000D01*
X158245271Y-57455000D02*
X158244997Y-57455000D01*
X158238520Y-57455000D02*
X158238449Y-57455000D01*
D26*
X159050178Y-57455000D02*
X159048683Y-57455000D01*
D25*
X158558111Y-57455000D02*
X158557871Y-57455000D01*
D26*
X159420706Y-57455000D02*
X159416433Y-57455000D01*
X158827611Y-57455000D02*
X158825635Y-57455000D01*
D25*
X158228323Y-57455000D02*
X158228304Y-57455000D01*
X158625820Y-57455000D02*
X158622402Y-57455000D01*
X158273202Y-57455000D02*
X158273128Y-57455000D01*
X158298810Y-57455000D02*
X158298757Y-57455000D01*
X158292162Y-57455000D02*
X158292108Y-57455000D01*
X158475590Y-57455000D02*
X158475490Y-57455000D01*
X158291262Y-57455000D02*
X158291229Y-57455000D01*
X158294550Y-57455000D02*
X158293989Y-57455000D01*
X158364967Y-57455000D02*
X158364841Y-57455000D01*
X158289029Y-57455000D02*
X158289003Y-57455000D01*
X158239432Y-57455000D02*
X158239398Y-57455000D01*
X158289308Y-57455000D02*
X158289258Y-57455000D01*
X158232038Y-57455000D02*
X158231688Y-57455000D01*
X158571088Y-57455000D02*
X158566041Y-57455000D01*
X158432917Y-57455000D02*
X158432490Y-57455000D01*
X158483370Y-57455000D02*
X158483249Y-57455000D01*
X158253018Y-57455000D02*
X158252965Y-57455000D01*
X158287320Y-57455000D02*
X158287284Y-57455000D01*
X158255298Y-57455000D02*
X158255245Y-57455000D01*
X158222710Y-57455000D02*
X158222683Y-57455000D01*
X158256803Y-57455000D02*
X158256544Y-57455000D01*
D26*
X159978370Y-57455000D02*
X159883628Y-57455000D01*
D25*
X158338067Y-57455000D02*
X158336785Y-57455000D01*
X158293642Y-57455000D02*
X158293508Y-57455000D01*
X158225656Y-57455000D02*
X158225638Y-57455000D01*
X158224795Y-57455000D02*
X158224704Y-57455000D01*
X158263139Y-57455000D02*
X158262443Y-57455000D01*
X158226155Y-57455000D02*
X158226134Y-57455000D01*
X158234232Y-57455000D02*
X158234174Y-57455000D01*
X158273547Y-57455000D02*
X158273510Y-57455000D01*
X158304738Y-57455000D02*
X158304311Y-57455000D01*
D26*
X158735805Y-57455000D02*
X158734576Y-57455000D01*
D25*
X158297995Y-57455000D02*
X158297969Y-57455000D01*
X158237375Y-57455000D02*
X158237309Y-57455000D01*
X158288122Y-57455000D02*
X158288092Y-57455000D01*
D26*
X158847237Y-57455000D02*
X158842752Y-57455000D01*
D25*
X158226980Y-57455000D02*
X158226910Y-57455000D01*
X158235158Y-57455000D02*
X158235102Y-57455000D01*
X158251458Y-57455000D02*
X158251371Y-57455000D01*
D26*
X159165855Y-57455000D02*
X159157310Y-57455000D01*
D25*
X158291027Y-57455000D02*
X158291000Y-57455000D01*
X158533117Y-57455000D02*
X158532877Y-57455000D01*
D26*
X159245752Y-57455000D02*
X159243188Y-57455000D01*
D25*
X158636074Y-57455000D02*
X158632656Y-57455000D01*
X158293162Y-57455000D02*
X158293136Y-57455000D01*
X158286929Y-57455000D02*
X158286863Y-57455000D01*
X158279853Y-57455000D02*
X158279826Y-57455000D01*
X158253587Y-57455000D02*
X158253561Y-57455000D01*
X158287918Y-57455000D02*
X158287864Y-57455000D01*
X158469021Y-57455000D02*
X158468964Y-57455000D01*
X158237155Y-57455000D02*
X158237102Y-57455000D01*
X158255884Y-57455000D02*
X158255860Y-57455000D01*
X158246344Y-57455000D02*
X158246318Y-57455000D01*
X158363052Y-57455000D02*
X158362904Y-57455000D01*
X158238789Y-57455000D02*
X158238803Y-57455000D01*
X158238803Y-57455000D02*
X158238793Y-57455000D01*
X158526750Y-57455000D02*
X158525308Y-57455000D01*
X158272250Y-57455000D02*
X158272206Y-57455000D01*
X158240228Y-57455000D02*
X158240161Y-57455000D01*
X158224018Y-57455000D02*
X158223991Y-57455000D01*
X158470726Y-57455000D02*
X158470514Y-57455000D01*
X158230005Y-57455000D02*
X158229998Y-57455000D01*
X158235846Y-57455000D02*
X158235705Y-57455000D01*
X158226667Y-57455000D02*
X158226632Y-57455000D01*
X158288191Y-57455000D02*
X158288168Y-57455000D01*
X158296247Y-57455000D02*
X158295713Y-57455000D01*
X158469554Y-57455000D02*
X158469514Y-57455000D01*
X158272276Y-57455000D02*
X158272250Y-57455000D01*
X158228830Y-57455000D02*
X158228763Y-57455000D01*
X158247569Y-57455000D02*
X158247489Y-57455000D01*
X158223528Y-57455000D02*
X158223554Y-57455000D01*
X158223554Y-57455000D02*
X158223542Y-57455000D01*
X158280842Y-57455000D02*
X158280789Y-57455000D01*
D26*
X159157310Y-57455000D02*
X159148765Y-57455000D01*
X158786890Y-57455000D02*
X158786036Y-57455000D01*
D25*
X158287218Y-57455000D02*
X158287199Y-57455000D01*
X158251371Y-57455000D02*
X158251284Y-57455000D01*
X158226236Y-57455000D02*
X158226182Y-57455000D01*
X158335503Y-57455000D02*
X158334221Y-57455000D01*
D26*
X158930019Y-57455000D02*
X158929165Y-57455000D01*
D25*
X158513350Y-57455000D02*
X158513228Y-57455000D01*
X158253764Y-57455000D02*
X158253690Y-57455000D01*
X158468714Y-57455000D02*
X158468674Y-57455000D01*
X158271161Y-57455000D02*
X158271138Y-57455000D01*
X158245806Y-57455000D02*
X158245754Y-57455000D01*
X158288599Y-57455000D02*
X158288573Y-57455000D01*
X158236075Y-57455000D02*
X158235941Y-57455000D01*
X158286011Y-57455000D02*
X158285728Y-57455000D01*
X158535280Y-57455000D02*
X158535039Y-57455000D01*
X158279185Y-57455000D02*
X158278944Y-57455000D01*
X158506801Y-57455000D02*
X158506320Y-57455000D01*
X158532037Y-57455000D02*
X158531557Y-57455000D01*
X158239318Y-57455000D02*
X158239265Y-57455000D01*
X158252207Y-57455000D02*
X158252053Y-57455000D01*
X158301322Y-57455000D02*
X158301055Y-57455000D01*
X158291760Y-57455000D02*
X158291653Y-57455000D01*
X158223409Y-57455000D02*
X158223372Y-57455000D01*
X158430782Y-57455000D02*
X158428646Y-57455000D01*
X158298235Y-57455000D02*
X158298208Y-57455000D01*
X158273273Y-57455000D02*
X158273202Y-57455000D01*
X158331657Y-57455000D02*
X158330375Y-57455000D01*
D26*
X159412802Y-57455000D02*
X159401267Y-57455000D01*
D25*
X158230668Y-57455000D02*
X158230618Y-57455000D01*
X158488656Y-57455000D02*
X158488416Y-57455000D01*
X158475199Y-57455000D02*
X158475158Y-57455000D01*
X158253378Y-57455000D02*
X158253238Y-57455000D01*
X158543092Y-57455000D02*
X158542130Y-57455000D01*
D26*
X158899253Y-57455000D02*
X158889106Y-57455000D01*
X158953943Y-57455000D02*
X158942835Y-57455000D01*
D25*
X158278751Y-57455000D02*
X158278605Y-57455000D01*
X158271685Y-57455000D02*
X158271558Y-57455000D01*
X158239608Y-57455000D02*
X158239575Y-57455000D01*
X158298262Y-57455000D02*
X158298235Y-57455000D01*
X158253834Y-57455000D02*
X158253764Y-57455000D01*
X158483822Y-57455000D02*
X158483642Y-57455000D01*
X158223409Y-57455000D02*
X158223423Y-57455000D01*
X158223423Y-57455000D02*
X158223413Y-57455000D01*
X158230758Y-57455000D02*
X158230681Y-57455000D01*
X158558351Y-57455000D02*
X158558111Y-57455000D01*
X158291653Y-57455000D02*
X158291546Y-57455000D01*
X158495505Y-57455000D02*
X158494303Y-57455000D01*
X158325619Y-57455000D02*
X158324445Y-57455000D01*
X158224688Y-57455000D02*
X158224629Y-57455000D01*
X158222639Y-57455000D02*
X158222612Y-57455000D01*
X158249680Y-57455000D02*
X158249145Y-57455000D01*
X158224052Y-57455000D02*
X158224018Y-57455000D01*
X158226721Y-57455000D02*
X158226689Y-57455000D01*
X158288770Y-57455000D02*
X158288728Y-57455000D01*
D26*
X159060217Y-57455000D02*
X159058722Y-57455000D01*
D25*
X158288989Y-57455000D02*
X158288959Y-57455000D01*
X158246286Y-57455000D02*
X158246264Y-57455000D01*
X158279880Y-57455000D02*
X158279853Y-57455000D01*
X158291160Y-57455000D02*
X158291134Y-57455000D01*
X158522424Y-57455000D02*
X158520021Y-57455000D01*
D26*
X158769800Y-57455000D02*
X158768946Y-57455000D01*
D25*
X158269746Y-57455000D02*
X158269652Y-57455000D01*
X158230131Y-57455000D02*
X158230124Y-57455000D01*
X158279592Y-57455000D02*
X158279573Y-57455000D01*
X158287808Y-57455000D02*
X158287755Y-57455000D01*
X158475420Y-57455000D02*
X158475390Y-57455000D01*
X158555588Y-57455000D02*
X158550782Y-57455000D01*
X158501512Y-57455000D02*
X158501031Y-57455000D01*
X158263526Y-57455000D02*
X158263500Y-57455000D01*
X158252510Y-57455000D02*
X158252457Y-57455000D01*
D26*
X160075273Y-57455000D02*
X159979090Y-57455000D01*
D25*
X158289158Y-57455000D02*
X158289132Y-57455000D01*
X158245853Y-57455000D02*
X158245832Y-57455000D01*
X158230557Y-57455000D02*
X158230530Y-57455000D01*
X158228398Y-57455000D02*
X158228344Y-57455000D01*
X158241580Y-57455000D02*
X158241296Y-57455000D01*
X158292216Y-57455000D02*
X158292162Y-57455000D01*
X158474146Y-57455000D02*
X158473926Y-57455000D01*
X158287595Y-57455000D02*
X158287549Y-57455000D01*
X158288728Y-57455000D02*
X158288689Y-57455000D01*
X158406789Y-57455000D02*
X158406225Y-57455000D01*
X158539726Y-57455000D02*
X158538284Y-57455000D01*
X158480805Y-57455000D02*
X158480124Y-57455000D01*
X158255908Y-57455000D02*
X158255884Y-57455000D01*
X158239868Y-57455000D02*
X158239842Y-57455000D01*
X158545014Y-57455000D02*
X158544053Y-57455000D01*
X158297381Y-57455000D02*
X158297354Y-57455000D01*
X158476758Y-57455000D02*
X158476438Y-57455000D01*
D26*
X159243188Y-57455000D02*
X159240624Y-57455000D01*
D25*
X158508723Y-57455000D02*
X158508243Y-57455000D01*
X158290772Y-57455000D02*
X158290665Y-57455000D01*
D26*
X158746942Y-57455000D02*
X158746088Y-57455000D01*
D25*
X158224973Y-57455000D02*
X158224885Y-57455000D01*
D26*
X159148765Y-57455000D02*
X159140220Y-57455000D01*
D25*
X158280709Y-57455000D02*
X158280682Y-57455000D01*
X158231374Y-57455000D02*
X158231319Y-57455000D01*
X158438685Y-57455000D02*
X158436976Y-57455000D01*
X158287478Y-57455000D02*
X158287445Y-57455000D01*
D26*
X158840402Y-57455000D02*
X158831216Y-57455000D01*
D25*
X158476438Y-57455000D02*
X158476120Y-57455000D01*
X158239929Y-57455000D02*
X158239893Y-57455000D01*
D26*
X159089058Y-57455000D02*
X159088525Y-57455000D01*
D25*
X158622402Y-57455000D02*
X158618984Y-57455000D01*
X158477400Y-57455000D02*
X158477359Y-57455000D01*
X158247095Y-57455000D02*
X158247028Y-57455000D01*
X158229559Y-57455000D02*
X158229425Y-57455000D01*
X158280496Y-57455000D02*
X158280470Y-57455000D01*
X158299986Y-57455000D02*
X158299932Y-57455000D01*
D26*
X158738742Y-57455000D02*
X158738474Y-57455000D01*
D25*
X158498629Y-57455000D02*
X158498389Y-57455000D01*
D26*
X159086897Y-57455000D02*
X159084173Y-57455000D01*
D25*
X158255245Y-57455000D02*
X158255192Y-57455000D01*
X158487455Y-57455000D02*
X158487215Y-57455000D01*
X158487695Y-57455000D02*
X158487455Y-57455000D01*
D26*
X158758797Y-57455000D02*
X158753884Y-57455000D01*
X158786036Y-57455000D02*
X158785182Y-57455000D01*
X159102624Y-57455000D02*
X159096108Y-57455000D01*
D25*
X158469814Y-57455000D02*
X158469734Y-57455000D01*
X158475158Y-57455000D02*
X158475108Y-57455000D01*
X158302939Y-57455000D02*
X158302271Y-57455000D01*
X158226748Y-57455000D02*
X158226721Y-57455000D01*
X158293110Y-57455000D02*
X158293084Y-57455000D01*
X158299610Y-57455000D02*
X158299397Y-57455000D01*
X158279907Y-57455000D02*
X158279880Y-57455000D01*
D26*
X159237633Y-57455000D02*
X159229088Y-57455000D01*
D25*
X158232738Y-57455000D02*
X158232388Y-57455000D01*
X158287972Y-57455000D02*
X158287918Y-57455000D01*
X158470304Y-57455000D02*
X158470094Y-57455000D01*
X158289100Y-57455000D02*
X158289061Y-57455000D01*
X158225798Y-57455000D02*
X158225762Y-57455000D01*
D26*
X159138191Y-57455000D02*
X159133705Y-57455000D01*
D25*
X158332939Y-57455000D02*
X158331657Y-57455000D01*
X158469184Y-57455000D02*
X158469126Y-57455000D01*
X158246160Y-57455000D02*
X158246142Y-57455000D01*
X158484572Y-57455000D02*
X158484452Y-57455000D01*
X158303777Y-57455000D02*
X158303564Y-57455000D01*
D26*
X159094612Y-57455000D02*
X159091087Y-57455000D01*
D25*
X158492982Y-57455000D02*
X158491660Y-57455000D01*
X158254468Y-57455000D02*
X158254400Y-57455000D01*
X158299397Y-57455000D02*
X158299184Y-57455000D01*
X158310118Y-57455000D02*
X158310038Y-57455000D01*
X158475690Y-57455000D02*
X158475590Y-57455000D01*
X158273057Y-57455000D02*
X158272985Y-57455000D01*
X158230503Y-57455000D02*
X158230450Y-57455000D01*
D26*
X159029858Y-57455000D02*
X159028843Y-57455000D01*
D25*
X158223938Y-57455000D02*
X158223885Y-57455000D01*
D26*
X159263696Y-57455000D02*
X159252588Y-57455000D01*
D25*
X158361660Y-57455000D02*
X158360712Y-57455000D01*
X158632656Y-57455000D02*
X158629238Y-57455000D01*
X158252616Y-57455000D02*
X158252563Y-57455000D01*
X158289650Y-57455000D02*
X158289621Y-57455000D01*
X158532517Y-57455000D02*
X158532037Y-57455000D01*
X158469474Y-57455000D02*
X158469434Y-57455000D01*
X158238092Y-57455000D02*
X158237878Y-57455000D01*
X158513472Y-57455000D02*
X158513350Y-57455000D01*
X158301750Y-57455000D02*
X158301376Y-57455000D01*
D26*
X158746088Y-57455000D02*
X158745234Y-57455000D01*
D25*
X158271828Y-57455000D02*
X158271775Y-57455000D01*
X158222990Y-57455000D02*
X158222924Y-57455000D01*
X158548859Y-57455000D02*
X158547898Y-57455000D01*
X158235046Y-57455000D02*
X158234990Y-57455000D01*
X158424158Y-57455000D02*
X158417323Y-57455000D01*
X158504577Y-57455000D02*
X158504457Y-57455000D01*
X158529514Y-57455000D02*
X158528793Y-57455000D01*
X158228257Y-57455000D02*
X158228190Y-57455000D01*
X158287178Y-57455000D02*
X158287157Y-57455000D01*
X158287284Y-57455000D02*
X158287248Y-57455000D01*
X158238590Y-57455000D02*
X158238520Y-57455000D01*
D26*
X159694143Y-57455000D02*
X159691260Y-57455000D01*
D25*
X158313444Y-57455000D02*
X158313337Y-57455000D01*
X158245495Y-57455000D02*
X158245437Y-57455000D01*
D26*
X159383938Y-57455000D02*
X159383885Y-57455000D01*
D25*
X158245754Y-57455000D02*
X158245702Y-57455000D01*
X158224228Y-57455000D02*
X158224195Y-57455000D01*
X158280743Y-57455000D02*
X158280709Y-57455000D01*
D26*
X159229088Y-57455000D02*
X159220543Y-57455000D01*
D25*
X158403654Y-57455000D02*
X158397948Y-57455000D01*
X158239575Y-57455000D02*
X158239542Y-57455000D01*
X158276507Y-57455000D02*
X158276434Y-57455000D01*
X158271044Y-57455000D02*
X158270879Y-57455000D01*
X158378599Y-57455000D02*
X158377848Y-57455000D01*
D26*
X158976799Y-57455000D02*
X158965264Y-57455000D01*
X158719814Y-57455000D02*
X158716397Y-57455000D01*
D25*
X158249145Y-57455000D02*
X158248610Y-57455000D01*
X158484302Y-57455000D02*
X158484122Y-57455000D01*
X158267666Y-57455000D02*
X158267509Y-57455000D01*
X158475108Y-57455000D02*
X158475048Y-57455000D01*
D26*
X158940271Y-57455000D02*
X158934290Y-57455000D01*
D25*
X158482047Y-57455000D02*
X158481446Y-57455000D01*
X158478162Y-57455000D02*
X158478082Y-57455000D01*
X158228689Y-57455000D02*
X158228662Y-57455000D01*
X158490968Y-57455000D02*
X158490907Y-57455000D01*
X158223592Y-57455000D02*
X158223565Y-57455000D01*
X158254714Y-57455000D02*
X158254693Y-57455000D01*
D26*
X158740853Y-57455000D02*
X158739356Y-57455000D01*
D25*
X158254992Y-57455000D02*
X158254939Y-57455000D01*
X158296674Y-57455000D02*
X158296567Y-57455000D01*
D26*
X159355313Y-57455000D02*
X159343831Y-57455000D01*
D25*
X158387606Y-57455000D02*
X158385521Y-57455000D01*
X158237022Y-57455000D02*
X158236995Y-57455000D01*
D26*
X158742029Y-57455000D02*
X158741175Y-57455000D01*
D25*
X158310828Y-57455000D02*
X158310560Y-57455000D01*
D26*
X158768946Y-57455000D02*
X158768092Y-57455000D01*
D25*
X158592489Y-57455000D02*
X158592063Y-57455000D01*
X158233798Y-57455000D02*
X158233450Y-57455000D01*
D26*
X159424979Y-57455000D02*
X159420706Y-57455000D01*
D25*
X158225697Y-57455000D02*
X158225675Y-57455000D01*
X158301002Y-57455000D02*
X158300842Y-57455000D01*
X158254536Y-57455000D02*
X158254468Y-57455000D01*
X158247449Y-57455000D02*
X158247428Y-57455000D01*
X158364504Y-57455000D02*
X158363704Y-57455000D01*
X158330108Y-57455000D02*
X158329359Y-57455000D01*
X158309437Y-57455000D02*
X158309010Y-57455000D01*
X158241296Y-57455000D02*
X158241002Y-57455000D01*
X158236809Y-57455000D02*
X158236783Y-57455000D01*
X158237056Y-57455000D02*
X158237022Y-57455000D01*
X158224488Y-57455000D02*
X158224462Y-57455000D01*
D26*
X158930873Y-57455000D02*
X158930019Y-57455000D01*
D25*
X158474797Y-57455000D02*
X158474758Y-57455000D01*
X158289061Y-57455000D02*
X158289043Y-57455000D01*
X158276277Y-57455000D02*
X158275889Y-57455000D01*
X158470514Y-57455000D02*
X158470304Y-57455000D01*
X158512087Y-57455000D02*
X158509684Y-57455000D01*
D26*
X158806541Y-57455000D02*
X158797142Y-57455000D01*
D25*
X158223056Y-57455000D02*
X158222990Y-57455000D01*
X158226067Y-57455000D02*
X158226027Y-57455000D01*
X158287445Y-57455000D02*
X158287412Y-57455000D01*
X158255462Y-57455000D02*
X158255335Y-57455000D01*
X158470941Y-57455000D02*
X158470726Y-57455000D01*
X158469714Y-57455000D02*
X158469674Y-57455000D01*
X158592063Y-57455000D02*
X158591637Y-57455000D01*
X158468964Y-57455000D02*
X158468914Y-57455000D01*
X158281189Y-57455000D02*
X158281169Y-57455000D01*
D26*
X158736900Y-57455000D02*
X158735940Y-57455000D01*
D25*
X158532877Y-57455000D02*
X158532637Y-57455000D01*
X158531436Y-57455000D02*
X158530715Y-57455000D01*
X158234876Y-57455000D02*
X158234826Y-57455000D01*
X158246529Y-57455000D02*
X158246502Y-57455000D01*
X158272030Y-57455000D02*
X158271976Y-57455000D01*
X158241002Y-57455000D02*
X158240722Y-57455000D01*
X158297408Y-57455000D02*
X158297381Y-57455000D01*
X158233102Y-57455000D02*
X158232754Y-57455000D01*
X158240027Y-57455000D02*
X158239947Y-57455000D01*
D26*
X159058722Y-57455000D02*
X159057227Y-57455000D01*
D25*
X158527711Y-57455000D02*
X158527230Y-57455000D01*
X158275124Y-57455000D02*
X158274970Y-57455000D01*
D26*
X159484580Y-57455000D02*
X159464499Y-57455000D01*
D25*
X158281003Y-57455000D02*
X158280923Y-57455000D01*
X158544053Y-57455000D02*
X158543092Y-57455000D01*
D26*
X159691260Y-57455000D02*
X159688377Y-57455000D01*
D25*
X158286776Y-57455000D02*
X158286669Y-57455000D01*
X158230327Y-57455000D02*
X158230300Y-57455000D01*
X158247769Y-57455000D02*
X158247662Y-57455000D01*
X158287755Y-57455000D02*
X158287702Y-57455000D01*
X158228504Y-57455000D02*
X158228478Y-57455000D01*
X158282600Y-57455000D02*
X158282320Y-57455000D01*
X158272627Y-57455000D02*
X158272558Y-57455000D01*
X158240094Y-57455000D02*
X158240027Y-57455000D01*
X158234174Y-57455000D02*
X158234116Y-57455000D01*
D26*
X159366768Y-57455000D02*
X159355339Y-57455000D01*
D25*
X158245702Y-57455000D02*
X158245650Y-57455000D01*
X158288651Y-57455000D02*
X158288631Y-57455000D01*
X158496707Y-57455000D02*
X158495505Y-57455000D01*
X158248076Y-57455000D02*
X158247836Y-57455000D01*
X158279533Y-57455000D02*
X158279453Y-57455000D01*
X158485772Y-57455000D02*
X158485412Y-57455000D01*
D26*
X159452964Y-57455000D02*
X159432883Y-57455000D01*
D25*
X158483612Y-57455000D02*
X158483491Y-57455000D01*
X158484722Y-57455000D02*
X158484662Y-57455000D01*
X158230150Y-57455000D02*
X158230131Y-57455000D01*
X158280763Y-57455000D02*
X158280743Y-57455000D01*
D26*
X158768092Y-57455000D02*
X158767238Y-57455000D01*
D25*
X158226632Y-57455000D02*
X158226611Y-57455000D01*
X158298477Y-57455000D02*
X158298397Y-57455000D01*
X158239472Y-57455000D02*
X158239432Y-57455000D01*
X158417323Y-57455000D02*
X158410488Y-57455000D01*
D26*
X159220543Y-57455000D02*
X159211998Y-57455000D01*
D25*
X158239825Y-57455000D02*
X158239801Y-57455000D01*
X158273408Y-57455000D02*
X158273341Y-57455000D01*
X158285444Y-57455000D02*
X158285159Y-57455000D01*
X158485262Y-57455000D02*
X158485202Y-57455000D01*
X158469234Y-57455000D02*
X158469184Y-57455000D01*
X158274406Y-57455000D02*
X158274352Y-57455000D01*
X158475240Y-57455000D02*
X158475210Y-57455000D01*
X158246850Y-57455000D02*
X158246744Y-57455000D01*
X158226447Y-57455000D02*
X158226394Y-57455000D01*
X158246956Y-57455000D02*
X158246850Y-57455000D01*
X158296567Y-57455000D02*
X158296460Y-57455000D01*
X158289931Y-57455000D02*
X158289798Y-57455000D01*
X158508243Y-57455000D02*
X158507763Y-57455000D01*
X158441036Y-57455000D02*
X158440608Y-57455000D01*
X158272558Y-57455000D02*
X158272489Y-57455000D01*
X158230248Y-57455000D02*
X158230213Y-57455000D01*
D26*
X159071542Y-57455000D02*
X159070580Y-57455000D01*
D25*
X158435267Y-57455000D02*
X158433558Y-57455000D01*
X158237309Y-57455000D02*
X158237243Y-57455000D01*
X158273952Y-57455000D02*
X158273899Y-57455000D01*
X158231264Y-57455000D02*
X158231209Y-57455000D01*
X158245967Y-57455000D02*
X158245886Y-57455000D01*
X158250214Y-57455000D02*
X158249680Y-57455000D01*
X158484452Y-57455000D02*
X158484332Y-57455000D01*
X158274058Y-57455000D02*
X158274005Y-57455000D01*
X158288026Y-57455000D02*
X158287972Y-57455000D01*
X158407353Y-57455000D02*
X158406789Y-57455000D01*
X158244422Y-57455000D02*
X158244141Y-57455000D01*
X158288410Y-57455000D02*
X158288357Y-57455000D01*
D26*
X158965051Y-57455000D02*
X158953943Y-57455000D01*
D25*
X158289402Y-57455000D02*
X158289355Y-57455000D01*
X158224195Y-57455000D02*
X158224162Y-57455000D01*
X158288505Y-57455000D02*
X158288475Y-57455000D01*
X158230024Y-57455000D02*
X158230005Y-57455000D01*
X158371017Y-57455000D02*
X158370270Y-57455000D01*
X158237076Y-57455000D02*
X158237056Y-57455000D01*
X158247194Y-57455000D02*
X158247168Y-57455000D01*
D26*
X159211998Y-57455000D02*
X159203453Y-57455000D01*
D25*
X158248416Y-57455000D02*
X158248269Y-57455000D01*
X158290021Y-57455000D02*
X158289974Y-57455000D01*
X158225762Y-57455000D02*
X158225726Y-57455000D01*
X158498149Y-57455000D02*
X158497909Y-57455000D01*
X158506320Y-57455000D02*
X158505839Y-57455000D01*
X158479443Y-57455000D02*
X158478882Y-57455000D01*
X158498389Y-57455000D02*
X158498149Y-57455000D01*
X158295111Y-57455000D02*
X158294550Y-57455000D01*
X158229291Y-57455000D02*
X158229157Y-57455000D01*
X158223352Y-57455000D02*
X158223285Y-57455000D01*
X158357720Y-57455000D02*
X158354728Y-57455000D01*
X158474718Y-57455000D02*
X158474598Y-57455000D01*
X158477482Y-57455000D02*
X158477441Y-57455000D01*
X158478642Y-57455000D02*
X158478562Y-57455000D01*
X158254818Y-57455000D02*
X158254780Y-57455000D01*
X158230581Y-57455000D02*
X158230557Y-57455000D01*
X158432490Y-57455000D02*
X158432063Y-57455000D01*
X158276580Y-57455000D02*
X158276507Y-57455000D01*
X158236736Y-57455000D02*
X158236669Y-57455000D01*
X158300187Y-57455000D02*
X158300107Y-57455000D01*
D26*
X158738474Y-57455000D02*
X158738206Y-57455000D01*
X159010738Y-57455000D02*
X158999683Y-57455000D01*
D25*
X158395566Y-57455000D02*
X158394624Y-57455000D01*
X158284875Y-57455000D02*
X158284021Y-57455000D01*
D26*
X158723231Y-57455000D02*
X158719814Y-57455000D01*
D25*
X158254615Y-57455000D02*
X158254556Y-57455000D01*
X158273455Y-57455000D02*
X158273434Y-57455000D01*
X158281136Y-57455000D02*
X158281056Y-57455000D01*
X158273341Y-57455000D02*
X158273273Y-57455000D01*
X158292081Y-57455000D02*
X158291974Y-57455000D01*
X158244703Y-57455000D02*
X158244422Y-57455000D01*
X158287622Y-57455000D02*
X158287595Y-57455000D01*
X158315473Y-57455000D02*
X158314085Y-57455000D01*
X158288535Y-57455000D02*
X158288505Y-57455000D01*
X158381727Y-57455000D02*
X158380393Y-57455000D01*
X158499049Y-57455000D02*
X158498689Y-57455000D01*
X158308583Y-57455000D02*
X158308156Y-57455000D01*
X158468754Y-57455000D02*
X158468714Y-57455000D01*
X158477079Y-57455000D02*
X158476758Y-57455000D01*
D26*
X159320199Y-57455000D02*
X159310159Y-57455000D01*
D25*
X158252053Y-57455000D02*
X158251899Y-57455000D01*
X158477441Y-57455000D02*
X158477400Y-57455000D01*
X158540567Y-57455000D02*
X158540327Y-57455000D01*
X158253904Y-57455000D02*
X158253834Y-57455000D01*
X158280423Y-57455000D02*
X158280356Y-57455000D01*
X158291974Y-57455000D02*
X158291867Y-57455000D01*
X158485202Y-57455000D02*
X158485142Y-57455000D01*
X158537323Y-57455000D02*
X158535881Y-57455000D01*
X158230929Y-57455000D02*
X158230841Y-57455000D01*
X158231319Y-57455000D02*
X158231264Y-57455000D01*
X158257446Y-57455000D02*
X158257387Y-57455000D01*
X158226545Y-57455000D02*
X158226518Y-57455000D01*
X158500851Y-57455000D02*
X158500731Y-57455000D01*
X158239213Y-57455000D02*
X158239161Y-57455000D01*
X158474947Y-57455000D02*
X158474886Y-57455000D01*
X158253690Y-57455000D02*
X158253621Y-57455000D01*
X158484662Y-57455000D02*
X158484602Y-57455000D01*
X158235196Y-57455000D02*
X158235175Y-57455000D01*
X158618984Y-57455000D02*
X158615566Y-57455000D01*
D26*
X159504661Y-57455000D02*
X159484580Y-57455000D01*
D25*
X158254923Y-57455000D02*
X158254893Y-57455000D01*
X158528673Y-57455000D02*
X158528192Y-57455000D01*
X158298168Y-57455000D02*
X158298061Y-57455000D01*
X158436976Y-57455000D02*
X158435267Y-57455000D01*
X158535039Y-57455000D02*
X158534798Y-57455000D01*
X158289258Y-57455000D02*
X158289205Y-57455000D01*
X158237203Y-57455000D02*
X158237182Y-57455000D01*
X158566041Y-57455000D02*
X158560994Y-57455000D01*
X158246556Y-57455000D02*
X158246529Y-57455000D01*
X158229425Y-57455000D02*
X158229291Y-57455000D01*
X158476120Y-57455000D02*
X158475802Y-57455000D01*
X158278897Y-57455000D02*
X158278751Y-57455000D01*
D26*
X158794579Y-57455000D02*
X158790307Y-57455000D01*
X159688377Y-57455000D02*
X159685494Y-57455000D01*
D25*
X158222580Y-57455000D02*
X158222556Y-57455000D01*
X158293348Y-57455000D02*
X158293215Y-57455000D01*
X158222826Y-57455000D02*
X158222803Y-57455000D01*
X158248269Y-57455000D02*
X158248122Y-57455000D01*
X158485052Y-57455000D02*
X158484812Y-57455000D01*
X158472436Y-57455000D02*
X158471796Y-57455000D01*
X158281643Y-57455000D02*
X158281590Y-57455000D01*
X158504697Y-57455000D02*
X158504577Y-57455000D01*
X158312056Y-57455000D02*
X158311950Y-57455000D01*
X158231596Y-57455000D02*
X158231430Y-57455000D01*
X158224092Y-57455000D02*
X158224052Y-57455000D01*
X158225494Y-57455000D02*
X158225432Y-57455000D01*
X158291546Y-57455000D02*
X158291439Y-57455000D01*
X158223202Y-57455000D02*
X158223141Y-57455000D01*
X158238449Y-57455000D02*
X158238377Y-57455000D01*
X158312162Y-57455000D02*
X158312056Y-57455000D01*
X158428646Y-57455000D02*
X158426510Y-57455000D01*
X158319090Y-57455000D02*
X158317461Y-57455000D01*
X158289449Y-57455000D02*
X158289402Y-57455000D01*
X158483129Y-57455000D02*
X158482768Y-57455000D01*
X158288146Y-57455000D02*
X158288122Y-57455000D01*
X158246583Y-57455000D02*
X158246556Y-57455000D01*
X149865059Y-58575000D02*
X149864897Y-58575000D01*
X149855233Y-58575000D02*
X149854800Y-58575000D01*
X149866604Y-58575000D02*
X149866496Y-58575000D01*
X149864762Y-58575000D02*
X149864654Y-58575000D01*
X149866060Y-58575000D02*
X149865627Y-58575000D01*
X149843839Y-58575000D02*
X149841511Y-58575000D01*
X149856966Y-58575000D02*
X149856533Y-58575000D01*
X149861163Y-58575000D02*
X149860568Y-58575000D01*
X149854584Y-58575000D02*
X149853718Y-58575000D01*
X149863463Y-58575000D02*
X149862922Y-58575000D01*
X149866902Y-58575000D02*
X149866847Y-58575000D01*
X149858915Y-58575000D02*
X149858808Y-58575000D01*
X149866712Y-58575000D02*
X149866604Y-58575000D01*
X149864870Y-58575000D02*
X149864762Y-58575000D01*
X149850146Y-58575000D02*
X149848955Y-58575000D01*
X149864437Y-58575000D02*
X149864112Y-58575000D01*
X149865627Y-58575000D02*
X149865194Y-58575000D01*
X149855666Y-58575000D02*
X149855233Y-58575000D01*
X149859349Y-58575000D02*
X149859024Y-58575000D01*
X149860000Y-58575000D02*
X149859458Y-58575000D01*
X149866360Y-58575000D02*
X149866197Y-58575000D01*
X149846140Y-58575000D02*
X149843866Y-58575000D01*
X149857400Y-58575000D02*
X149856966Y-58575000D01*
X149866820Y-58575000D02*
X149866712Y-58575000D01*
X149858808Y-58575000D02*
X149858701Y-58575000D01*
X149857834Y-58575000D02*
X149857400Y-58575000D01*
X149862895Y-58575000D02*
X149862300Y-58575000D01*
X149856099Y-58575000D02*
X149855666Y-58575000D01*
X149858268Y-58575000D02*
X149857834Y-58575000D01*
X149864004Y-58575000D02*
X149863463Y-58575000D01*
X149850796Y-58575000D02*
X149850688Y-58575000D01*
X149850904Y-58575000D02*
X149850796Y-58575000D01*
X149858566Y-58575000D02*
X149858403Y-58575000D01*
X149852500Y-58575000D02*
X149851472Y-58575000D01*
X149864654Y-58575000D02*
X149864546Y-58575000D01*
X149866496Y-58575000D02*
X149866388Y-58575000D01*
X149860542Y-58575000D02*
X149860000Y-58575000D01*
X149848414Y-58575000D02*
X149846140Y-58575000D01*
X149839210Y-58575000D02*
X149832280Y-58575000D01*
X149851012Y-58575000D02*
X149850904Y-58575000D01*
X149858701Y-58575000D02*
X149858594Y-58575000D01*
X196850000Y-82015417D02*
X196850000Y-82015968D01*
X196850000Y-81986403D02*
X196850000Y-81987724D01*
X196850000Y-81988275D02*
X196850000Y-81988495D01*
X196850000Y-81800079D02*
X196850000Y-81828271D01*
X196850000Y-82339993D02*
X196850000Y-82340653D01*
X196850000Y-82480836D02*
X196850000Y-82481276D01*
X196850000Y-82114966D02*
X196850000Y-82117058D01*
X196850000Y-81996535D02*
X196850000Y-81998297D01*
X196850000Y-82521303D02*
X196850000Y-82521413D01*
X196850000Y-82438770D02*
X196850000Y-82439926D01*
X196850000Y-82538606D02*
X196850000Y-82538634D01*
X196850000Y-82545022D02*
X196850000Y-82545049D01*
X196850000Y-82281010D02*
X196850000Y-82281148D01*
X196850000Y-81950507D02*
X196850000Y-81955077D01*
X196850000Y-81945827D02*
X196850000Y-81945937D01*
X196850000Y-82329531D02*
X196850000Y-82333935D01*
X196850000Y-82509837D02*
X196850000Y-82510415D01*
X196850000Y-82004959D02*
X196850000Y-82005069D01*
X196850000Y-81990257D02*
X196850000Y-81990477D01*
X196850000Y-82442516D02*
X196850000Y-82442956D01*
X196850000Y-82484138D02*
X196850000Y-82485074D01*
X196850000Y-81978916D02*
X196850000Y-81980072D01*
X196850000Y-82412947D02*
X196850000Y-82413497D01*
X196850000Y-81990477D02*
X196850000Y-81990697D01*
X196850000Y-82528557D02*
X196850000Y-82529301D01*
X196850000Y-82343515D02*
X196850000Y-82343736D01*
X196850000Y-82447194D02*
X196850000Y-82449286D01*
X196850000Y-82539473D02*
X196850000Y-82539583D01*
X196850000Y-82137925D02*
X196850000Y-82138365D01*
X196850000Y-82422913D02*
X196850000Y-82424675D01*
X196850000Y-82128332D02*
X196850000Y-82128359D01*
X196850000Y-82230822D02*
X196850000Y-82233768D01*
X196850000Y-81975888D02*
X196850000Y-81976604D01*
X196850000Y-82277224D02*
X196850000Y-82277665D01*
X196850000Y-82414115D02*
X196850000Y-82414693D01*
X196850000Y-82294733D02*
X196850000Y-82295174D01*
X196850000Y-82122510D02*
X196850000Y-82122950D01*
X196850000Y-82544209D02*
X196850000Y-82544319D01*
X196850000Y-82105167D02*
X196850000Y-82108357D01*
X196850000Y-82145646D02*
X196850000Y-82145839D01*
X196850000Y-81990807D02*
X196850000Y-81991248D01*
X196850000Y-82514750D02*
X196850000Y-82515190D01*
X196850000Y-82412507D02*
X196850000Y-82412617D01*
X196850000Y-82538634D02*
X196850000Y-82538662D01*
X196850000Y-82426987D02*
X196850000Y-82427207D01*
X196850000Y-81972860D02*
X196850000Y-81973081D01*
X196850000Y-82008205D02*
X196850000Y-82008645D01*
X196850000Y-82427207D02*
X196850000Y-82427427D01*
X196850000Y-82267369D02*
X196850000Y-82270287D01*
X196850000Y-82534462D02*
X196850000Y-82534683D01*
X196850000Y-82295174D02*
X196850000Y-82295615D01*
X196850000Y-82136987D02*
X196850000Y-82137759D01*
X196850000Y-82543329D02*
X196850000Y-82543879D01*
X196850000Y-82544869D02*
X196850000Y-82544980D01*
X196850000Y-82546177D02*
X196850000Y-82546314D01*
X196850000Y-82132197D02*
X196850000Y-82133958D01*
X196850000Y-82411847D02*
X196850000Y-82411957D01*
X196850000Y-82062605D02*
X196850000Y-82063046D01*
X196850000Y-82453758D02*
X196850000Y-82453785D01*
X196850000Y-82540616D02*
X196850000Y-82540644D01*
X196850000Y-82012900D02*
X196850000Y-82013368D01*
X196850000Y-82524882D02*
X196850000Y-82527084D01*
X196850000Y-82173545D02*
X196850000Y-82173654D01*
X196850000Y-82453731D02*
X196850000Y-82453758D01*
X196850000Y-82282525D02*
X196850000Y-82283158D01*
X196850000Y-81507607D02*
X196850000Y-81514654D01*
X196850000Y-82482885D02*
X196850000Y-82483023D01*
X196850000Y-82077031D02*
X196850000Y-82077691D01*
X196850000Y-81973412D02*
X196850000Y-81973852D01*
X196850000Y-81856463D02*
X196850000Y-81884654D01*
X196850000Y-82536334D02*
X196850000Y-82536775D01*
X196850000Y-82535014D02*
X196850000Y-82535454D01*
X196850000Y-82043222D02*
X196850000Y-82050269D01*
X196850000Y-82502197D02*
X196850000Y-82503959D01*
X196850000Y-82243914D02*
X196850000Y-82244024D01*
X196850000Y-82005909D02*
X196850000Y-82005936D01*
X196850000Y-81493513D02*
X196850000Y-81500560D01*
X196850000Y-82129267D02*
X196850000Y-82129845D01*
X196850000Y-82290165D02*
X196850000Y-82290715D01*
X196850000Y-82063156D02*
X196850000Y-82063817D01*
X196850000Y-82433485D02*
X196850000Y-82434585D01*
X196850000Y-82136531D02*
X196850000Y-82136670D01*
X196850000Y-82068881D02*
X196850000Y-82069101D01*
X196850000Y-82069651D02*
X196850000Y-82070972D01*
X196850000Y-82540961D02*
X196850000Y-82541567D01*
X196850000Y-82527813D02*
X196850000Y-82528557D01*
X196850000Y-82316319D02*
X196850000Y-82320723D01*
X196850000Y-82495919D02*
X196850000Y-82496139D01*
X196850000Y-82076371D02*
X196850000Y-82077031D01*
X196850000Y-81976714D02*
X196850000Y-81977650D01*
X196850000Y-82413758D02*
X196850000Y-82413785D01*
X196850000Y-82078571D02*
X196850000Y-82080554D01*
X196850000Y-82520973D02*
X196850000Y-82521083D01*
X196850000Y-82521193D02*
X196850000Y-82521303D01*
X196850000Y-82403917D02*
X196850000Y-82404028D01*
X196850000Y-82299359D02*
X196850000Y-82299799D01*
X196850000Y-82136392D02*
X196850000Y-82136531D01*
X196850000Y-82109074D02*
X196850000Y-82113699D01*
X196850000Y-82288417D02*
X196850000Y-82288995D01*
X196850000Y-82011565D02*
X196850000Y-82012611D01*
X196850000Y-82466960D02*
X196850000Y-82469879D01*
X196850000Y-82348802D02*
X196850000Y-82349022D01*
X196850000Y-81963281D02*
X196850000Y-81965483D01*
X196850000Y-81922262D02*
X196850000Y-81931622D01*
X196850000Y-81945717D02*
X196850000Y-81945827D01*
X196850000Y-82544757D02*
X196850000Y-82544869D01*
X196850000Y-82071853D02*
X196850000Y-82073174D01*
X196850000Y-82073725D02*
X196850000Y-82073945D01*
X196850000Y-82007326D02*
X196850000Y-82007766D01*
X196850000Y-82497901D02*
X196850000Y-82498121D01*
X196850000Y-82450552D02*
X196850000Y-82450992D01*
X196850000Y-82140457D02*
X196850000Y-82140897D01*
X196850000Y-82490523D02*
X196850000Y-82491624D01*
X196850000Y-82530884D02*
X196850000Y-82530995D01*
X196850000Y-82482747D02*
X196850000Y-82482885D01*
X196850000Y-82020881D02*
X196850000Y-82020908D01*
X196850000Y-82510415D02*
X196850000Y-82510993D01*
X196850000Y-82402926D02*
X196850000Y-82403476D01*
X196850000Y-82474118D02*
X196850000Y-82474558D01*
X196850000Y-81965483D02*
X196850000Y-81967685D01*
X196850000Y-82352105D02*
X196850000Y-82352765D01*
X196850000Y-82544099D02*
X196850000Y-82544209D01*
X196850000Y-82020854D02*
X196850000Y-82020881D01*
X196850000Y-82546741D02*
X196850000Y-82546851D01*
X196850000Y-82271650D02*
X196850000Y-82271842D01*
X196850000Y-82545159D02*
X196850000Y-82545297D01*
X196850000Y-82355076D02*
X196850000Y-82355517D01*
X196850000Y-82285485D02*
X196850000Y-82287247D01*
X196850000Y-82412177D02*
X196850000Y-82412287D01*
X196850000Y-82124657D02*
X196850000Y-82125813D01*
X196850000Y-82253329D02*
X196850000Y-82255091D01*
X196850000Y-82009638D02*
X196850000Y-82009858D01*
X196850000Y-82406395D02*
X196850000Y-82407276D01*
X196850000Y-82481716D02*
X196850000Y-82482156D01*
X196850000Y-82410799D02*
X196850000Y-82411239D01*
X196850000Y-82414693D02*
X196850000Y-82415271D01*
X196850000Y-81994773D02*
X196850000Y-81996535D01*
X196850000Y-82233768D02*
X196850000Y-82236714D01*
X196850000Y-82066681D02*
X196850000Y-82066901D01*
X196850000Y-82403806D02*
X196850000Y-82403917D01*
X196850000Y-81894056D02*
X196850000Y-81903444D01*
X196850000Y-82351555D02*
X196850000Y-82351995D01*
X196850000Y-82126968D02*
X196850000Y-82127519D01*
X196850000Y-82355517D02*
X196850000Y-82355958D01*
X196850000Y-82511324D02*
X196850000Y-82511352D01*
X196850000Y-82006157D02*
X196850000Y-82006295D01*
X196850000Y-81971097D02*
X196850000Y-81971758D01*
X196850000Y-82290838D02*
X196850000Y-82291141D01*
X196850000Y-82325127D02*
X196850000Y-82329531D01*
X196850000Y-82118765D02*
X196850000Y-82119206D01*
X196850000Y-82507483D02*
X196850000Y-82509245D01*
X196850000Y-82544648D02*
X196850000Y-82544757D01*
X196850000Y-81988495D02*
X196850000Y-81988715D01*
X196850000Y-82443396D02*
X196850000Y-82443836D01*
X196850000Y-82408598D02*
X196850000Y-82409038D01*
X196850000Y-82409919D02*
X196850000Y-82410359D01*
X196850000Y-82411391D02*
X196850000Y-82411529D01*
X196850000Y-82341423D02*
X196850000Y-82342304D01*
X196850000Y-82350784D02*
X196850000Y-82351005D01*
X196850000Y-82513333D02*
X196850000Y-82513360D01*
X196850000Y-82421151D02*
X196850000Y-82422913D01*
X196850000Y-82513306D02*
X196850000Y-82513333D01*
X196850000Y-82013657D02*
X196850000Y-82013767D01*
X196850000Y-82276783D02*
X196850000Y-82277224D01*
X196850000Y-82294292D02*
X196850000Y-82294733D01*
X196850000Y-82407827D02*
X196850000Y-82408048D01*
X196850000Y-82005399D02*
X196850000Y-82005508D01*
X196850000Y-82455231D02*
X196850000Y-82458150D01*
X196850000Y-82538385D02*
X196850000Y-82538523D01*
X196850000Y-82003872D02*
X196850000Y-82003900D01*
X196850000Y-81956233D02*
X196850000Y-81959757D01*
X196850000Y-82214785D02*
X196850000Y-82226458D01*
X196850000Y-81983099D02*
X196850000Y-81984200D01*
X196850000Y-81472372D02*
X196850000Y-81479419D01*
X196850000Y-82518988D02*
X196850000Y-82520035D01*
X196850000Y-82281465D02*
X196850000Y-82281961D01*
X196850000Y-82356399D02*
X196850000Y-82357721D01*
X196850000Y-81975323D02*
X196850000Y-81975461D01*
X196850000Y-82002991D02*
X196850000Y-82003569D01*
X196850000Y-82520324D02*
X196850000Y-82520793D01*
X196850000Y-82403695D02*
X196850000Y-82403806D01*
X196850000Y-82017400D02*
X196850000Y-82019712D01*
X196850000Y-82122950D02*
X196850000Y-82123390D01*
X196850000Y-82512493D02*
X196850000Y-82512603D01*
X196850000Y-82062164D02*
X196850000Y-82062605D01*
X196850000Y-82516510D02*
X196850000Y-82516951D01*
X196850000Y-82145839D02*
X196850000Y-82146032D01*
X196850000Y-82538813D02*
X196850000Y-82538923D01*
X196850000Y-82101977D02*
X196850000Y-82105167D01*
X196850000Y-82135224D02*
X196850000Y-82135719D01*
X196850000Y-82405075D02*
X196850000Y-82406121D01*
X196850000Y-81974292D02*
X196850000Y-81974732D01*
X196850000Y-82535894D02*
X196850000Y-82536334D01*
X196850000Y-82358161D02*
X196850000Y-82360363D01*
X196850000Y-82537215D02*
X196850000Y-82537655D01*
X196850000Y-82500435D02*
X196850000Y-82502197D01*
X196850000Y-82259111D02*
X196850000Y-82259881D01*
X196850000Y-81521701D02*
X196850000Y-81528748D01*
X196850000Y-82471352D02*
X196850000Y-82471379D01*
X196850000Y-82122070D02*
X196850000Y-82122510D01*
X196850000Y-82003900D02*
X196850000Y-82003928D01*
X196850000Y-82475824D02*
X196850000Y-82477916D01*
X196850000Y-82088150D02*
X196850000Y-82092557D01*
X196850000Y-82513153D02*
X196850000Y-82513264D01*
X196850000Y-82440036D02*
X196850000Y-82440972D01*
X196850000Y-82514310D02*
X196850000Y-82514750D01*
X196850000Y-82517062D02*
X196850000Y-82517282D01*
X196850000Y-82412067D02*
X196850000Y-82412177D01*
X196850000Y-82343736D02*
X196850000Y-82343957D01*
X196850000Y-82517282D02*
X196850000Y-82517502D01*
X196850000Y-82374456D02*
X196850000Y-82381503D01*
X196850000Y-82134522D02*
X196850000Y-82135155D01*
X196850000Y-81942192D02*
X196850000Y-81944505D01*
X196850000Y-82291141D02*
X196850000Y-82291444D01*
X196850000Y-82434585D02*
X196850000Y-82435685D01*
X196850000Y-82000059D02*
X196850000Y-82001821D01*
X196850000Y-82426437D02*
X196850000Y-82426877D01*
X196850000Y-81917568D02*
X196850000Y-81917596D01*
X196850000Y-82427757D02*
X196850000Y-82428638D01*
X196850000Y-82362675D02*
X196850000Y-82365097D01*
X196850000Y-82279922D02*
X196850000Y-82280693D01*
X196850000Y-82244134D02*
X196850000Y-82244244D01*
X196850000Y-82521619D02*
X196850000Y-82522142D01*
X196850000Y-82485184D02*
X196850000Y-82486340D01*
X196850000Y-82545586D02*
X196850000Y-82546026D01*
X196850000Y-82513581D02*
X196850000Y-82513719D01*
X196850000Y-82005882D02*
X196850000Y-82005909D01*
X196850000Y-82130436D02*
X196850000Y-82132197D01*
X196850000Y-82547086D02*
X196850000Y-82547114D01*
X196850000Y-82289298D02*
X196850000Y-82289326D01*
X196850000Y-82404318D02*
X196850000Y-82404786D01*
X196850000Y-82141943D02*
X196850000Y-82144476D01*
X196850000Y-81973081D02*
X196850000Y-81973302D01*
X196850000Y-82445831D02*
X196850000Y-82446464D01*
X196850000Y-82271842D02*
X196850000Y-82272034D01*
X196850000Y-82335146D02*
X196850000Y-82337129D01*
X196850000Y-82127519D02*
X196850000Y-82128070D01*
X196850000Y-82096963D02*
X196850000Y-82101369D01*
X196850000Y-82344508D02*
X196850000Y-82345830D01*
X196850000Y-82013547D02*
X196850000Y-82013657D01*
X196850000Y-82015968D02*
X196850000Y-82016519D01*
X196850000Y-81945937D02*
X196850000Y-81946047D01*
X196850000Y-82445198D02*
X196850000Y-82445831D01*
X196850000Y-82512823D02*
X196850000Y-82512932D01*
X196850000Y-82073945D02*
X196850000Y-82074165D01*
X196850000Y-82005069D02*
X196850000Y-82005179D01*
X196850000Y-82354635D02*
X196850000Y-82355076D01*
X196850000Y-82511296D02*
X196850000Y-82511324D01*
X196850000Y-82496469D02*
X196850000Y-82497350D01*
X196850000Y-82429189D02*
X196850000Y-82429410D01*
X196850000Y-82007766D02*
X196850000Y-82008205D01*
X196850000Y-82009086D02*
X196850000Y-82009527D01*
X196850000Y-82411750D02*
X196850000Y-82411778D01*
X196850000Y-82539363D02*
X196850000Y-82539473D01*
X196850000Y-82441081D02*
X196850000Y-82441798D01*
X196850000Y-82173654D02*
X196850000Y-82173763D01*
X196850000Y-82489422D02*
X196850000Y-82490523D01*
X196850000Y-82298919D02*
X196850000Y-82299359D01*
X196850000Y-82147395D02*
X196850000Y-82150313D01*
X196850000Y-82289326D02*
X196850000Y-82289354D01*
X196850000Y-81993011D02*
X196850000Y-81994773D01*
X196850000Y-82066129D02*
X196850000Y-82066570D01*
X196850000Y-82432385D02*
X196850000Y-82433485D01*
X196850000Y-82349352D02*
X196850000Y-82350233D01*
X196850000Y-82547002D02*
X196850000Y-82547030D01*
X196850000Y-82437614D02*
X196850000Y-82438770D01*
X196850000Y-82004189D02*
X196850000Y-82004739D01*
X196850000Y-82005729D02*
X196850000Y-82005840D01*
X196850000Y-82006886D02*
X196850000Y-82007326D01*
X196850000Y-82009858D02*
X196850000Y-82010078D01*
X196850000Y-82412617D02*
X196850000Y-82412727D01*
X196850000Y-82513443D02*
X196850000Y-82513581D01*
X196850000Y-82118324D02*
X196850000Y-82118765D01*
X196850000Y-82538703D02*
X196850000Y-82538813D01*
X196850000Y-82539803D02*
X196850000Y-82540354D01*
X196850000Y-82505721D02*
X196850000Y-82507483D01*
X196850000Y-82140017D02*
X196850000Y-82140457D01*
X196850000Y-82160828D02*
X196850000Y-82162589D01*
X196850000Y-82444399D02*
X196850000Y-82444592D01*
X196850000Y-82542117D02*
X196850000Y-82542723D01*
X196850000Y-82066901D02*
X196850000Y-82067121D01*
X196850000Y-82415862D02*
X196850000Y-82417627D01*
X196850000Y-82546314D02*
X196850000Y-82546451D01*
X196850000Y-82401165D02*
X196850000Y-82401715D01*
X196850000Y-81977760D02*
X196850000Y-81978916D01*
X196850000Y-82279317D02*
X196850000Y-82279757D01*
X196850000Y-82419389D02*
X196850000Y-82421151D01*
X196850000Y-82261917D02*
X196850000Y-82265220D01*
X196850000Y-81968566D02*
X196850000Y-81969005D01*
X196850000Y-82411778D02*
X196850000Y-82411806D01*
X196850000Y-82429961D02*
X196850000Y-82431283D01*
X196850000Y-82080554D02*
X196850000Y-82082537D01*
X196850000Y-82157801D02*
X196850000Y-82158572D01*
X196850000Y-82052582D02*
X196850000Y-82055003D01*
X196850000Y-82407606D02*
X196850000Y-82407827D01*
X196850000Y-82092557D02*
X196850000Y-82096963D01*
X196850000Y-82481276D02*
X196850000Y-82481716D01*
X196850000Y-81500560D02*
X196850000Y-81507607D01*
X196850000Y-82152460D02*
X196850000Y-82155764D01*
X196850000Y-82243804D02*
X196850000Y-82243914D01*
X196850000Y-82547030D02*
X196850000Y-82547058D01*
X196850000Y-82036175D02*
X196850000Y-82043222D01*
X196850000Y-82530773D02*
X196850000Y-82530884D01*
X196850000Y-81971758D02*
X196850000Y-81972419D01*
X196850000Y-82498672D02*
X196850000Y-82499113D01*
X196850000Y-82013877D02*
X196850000Y-82013987D01*
X196850000Y-81486466D02*
X196850000Y-81493513D01*
X196850000Y-82208840D02*
X196850000Y-82209057D01*
X196850000Y-82480519D02*
X196850000Y-82480713D01*
X196850000Y-81989045D02*
X196850000Y-81989926D01*
X196850000Y-82442956D02*
X196850000Y-82443396D01*
X196850000Y-82005617D02*
X196850000Y-82005729D01*
X196850000Y-82408158D02*
X196850000Y-82408598D01*
X196850000Y-82409478D02*
X196850000Y-82409919D01*
X196850000Y-82061723D02*
X196850000Y-82062164D01*
X196850000Y-82516068D02*
X196850000Y-82516510D01*
X196850000Y-82342304D02*
X196850000Y-82343185D01*
X196850000Y-82521083D02*
X196850000Y-82521193D01*
X196850000Y-82138365D02*
X196850000Y-82138805D01*
X196850000Y-82545049D02*
X196850000Y-82545076D01*
X196850000Y-81981998D02*
X196850000Y-81983099D01*
X196850000Y-82126240D02*
X196850000Y-82126542D01*
X196850000Y-81917540D02*
X196850000Y-81917568D01*
X196850000Y-82499223D02*
X196850000Y-82499884D01*
X196850000Y-82289615D02*
X196850000Y-82290165D01*
X196850000Y-82256853D02*
X196850000Y-82258615D01*
X196850000Y-81945607D02*
X196850000Y-81945717D01*
X196850000Y-82173436D02*
X196850000Y-82173545D01*
X196850000Y-82442226D02*
X196850000Y-82442365D01*
X196850000Y-82515190D02*
X196850000Y-82515629D01*
X196850000Y-82006019D02*
X196850000Y-82006157D01*
X196850000Y-82539033D02*
X196850000Y-82539143D01*
X196850000Y-82183911D02*
X196850000Y-82186857D01*
X196850000Y-81998297D02*
X196850000Y-82000059D01*
X196850000Y-82128359D02*
X196850000Y-82128386D01*
X196850000Y-81984200D02*
X196850000Y-81985301D01*
X196850000Y-82075378D02*
X196850000Y-82076260D01*
X196850000Y-82300625D02*
X196850000Y-82302717D01*
X196850000Y-82442087D02*
X196850000Y-82442226D01*
X196850000Y-82533251D02*
X196850000Y-82534132D01*
X196850000Y-81974732D02*
X196850000Y-81975172D01*
X196850000Y-82397972D02*
X196850000Y-82400284D01*
X196850000Y-82537655D02*
X196850000Y-82538095D01*
X196850000Y-82401715D02*
X196850000Y-82402265D01*
X196850000Y-82471325D02*
X196850000Y-82471352D01*
X196850000Y-82546631D02*
X196850000Y-82546741D01*
X196850000Y-82511613D02*
X196850000Y-82512163D01*
X196850000Y-82126542D02*
X196850000Y-82126844D01*
X196850000Y-82530662D02*
X196850000Y-82530773D01*
X196850000Y-82546851D02*
X196850000Y-82546961D01*
X196850000Y-82059964D02*
X196850000Y-82061284D01*
X196850000Y-82273204D02*
X196850000Y-82275737D01*
X196850000Y-81771887D02*
X196850000Y-81800079D01*
X196850000Y-82523409D02*
X196850000Y-82524153D01*
X196850000Y-82312519D02*
X196850000Y-82315715D01*
X196850000Y-82157030D02*
X196850000Y-82157801D01*
X196850000Y-82404028D02*
X196850000Y-82404139D01*
X196850000Y-82425225D02*
X196850000Y-82425886D01*
X196850000Y-82005508D02*
X196850000Y-82005617D01*
X196850000Y-82175236D02*
X196850000Y-82178073D01*
X196850000Y-81973852D02*
X196850000Y-81974292D01*
X196850000Y-82538247D02*
X196850000Y-82538385D01*
X196850000Y-82535454D02*
X196850000Y-82535894D01*
X196850000Y-82536775D02*
X196850000Y-82537215D01*
X196850000Y-82360363D02*
X196850000Y-82362565D01*
X196850000Y-82529824D02*
X196850000Y-82530346D01*
X196850000Y-82393250D02*
X196850000Y-82395590D01*
X196850000Y-81991248D02*
X196850000Y-81991689D01*
X196850000Y-82513870D02*
X196850000Y-82514310D01*
X196850000Y-82024432D02*
X196850000Y-82026772D01*
X196850000Y-81903444D02*
X196850000Y-81912832D01*
X196850000Y-82135719D02*
X196850000Y-82136214D01*
X196850000Y-82517832D02*
X196850000Y-82518713D01*
X196850000Y-81961188D02*
X196850000Y-81961849D01*
X196850000Y-82014207D02*
X196850000Y-82014757D01*
X196850000Y-82396774D02*
X196850000Y-82396802D01*
X196850000Y-82180965D02*
X196850000Y-82183911D01*
X196850000Y-82191221D02*
X196850000Y-82202895D01*
X196850000Y-82425997D02*
X196850000Y-82426437D01*
X196850000Y-82534683D02*
X196850000Y-82534904D01*
X196850000Y-82008645D02*
X196850000Y-82009086D01*
X196850000Y-81937458D02*
X196850000Y-81939770D01*
X196850000Y-82428968D02*
X196850000Y-82429189D01*
X196850000Y-82545297D02*
X196850000Y-82545435D01*
X196850000Y-82057316D02*
X196850000Y-82059521D01*
X196850000Y-81991799D02*
X196850000Y-81992460D01*
X196850000Y-82065688D02*
X196850000Y-82066129D01*
X196850000Y-81961849D02*
X196850000Y-81962510D01*
X196850000Y-82013767D02*
X196850000Y-82013877D01*
X196850000Y-82281961D02*
X196850000Y-82282457D01*
X196850000Y-82068661D02*
X196850000Y-82068881D01*
X196850000Y-82029128D02*
X196850000Y-82036175D01*
X196850000Y-82283723D02*
X196850000Y-82285485D01*
X196850000Y-82002413D02*
X196850000Y-82002991D01*
X196850000Y-82513041D02*
X196850000Y-82513153D01*
X196850000Y-81969005D02*
X196850000Y-81969444D01*
X196850000Y-82530551D02*
X196850000Y-82530662D01*
X196850000Y-82493827D02*
X196850000Y-82495148D01*
X196850000Y-82495699D02*
X196850000Y-82495919D01*
X196850000Y-82413785D02*
X196850000Y-82413812D01*
X196850000Y-82390910D02*
X196850000Y-82393250D01*
X196850000Y-81479419D02*
X196850000Y-81486466D01*
X196850000Y-82303983D02*
X196850000Y-82308608D01*
X196850000Y-82546534D02*
X196850000Y-82546562D01*
X196850000Y-82022092D02*
X196850000Y-82024432D01*
X196850000Y-82117883D02*
X196850000Y-82118324D01*
X196850000Y-82503959D02*
X196850000Y-82505721D01*
X196850000Y-82291871D02*
X196850000Y-82293027D01*
X196850000Y-81465325D02*
X196850000Y-81472372D01*
X196850000Y-82531931D02*
X196850000Y-82532977D01*
X196850000Y-82396802D02*
X196850000Y-82396830D01*
X196850000Y-82064919D02*
X196850000Y-82065579D01*
X196850000Y-82540644D02*
X196850000Y-82540672D01*
X196850000Y-82067451D02*
X196850000Y-82068331D01*
X196850000Y-82348582D02*
X196850000Y-82348802D01*
X196850000Y-82346710D02*
X196850000Y-82348031D01*
X196850000Y-82259881D02*
X196850000Y-82260651D01*
X196850000Y-82417627D02*
X196850000Y-82419389D01*
X196850000Y-82474558D02*
X196850000Y-82474998D01*
X196850000Y-82544539D02*
X196850000Y-82544648D01*
X196850000Y-82353866D02*
X196850000Y-82354526D01*
X196850000Y-82411529D02*
X196850000Y-82411667D01*
X196850000Y-82512383D02*
X196850000Y-82512493D01*
X196850000Y-82543012D02*
X196850000Y-82543040D01*
X196850000Y-82320723D02*
X196850000Y-82325127D01*
X196850000Y-82497681D02*
X196850000Y-82497901D01*
X196850000Y-82450112D02*
X196850000Y-82450552D01*
X196850000Y-82522665D02*
X196850000Y-82523409D01*
X196850000Y-82486340D02*
X196850000Y-82487496D01*
X196850000Y-82281148D02*
X196850000Y-82281286D01*
X196850000Y-82538923D02*
X196850000Y-82539033D01*
X196850000Y-82208623D02*
X196850000Y-82208840D01*
X196850000Y-82458150D02*
X196850000Y-82461069D01*
X196850000Y-82491624D02*
X196850000Y-82492725D01*
X196850000Y-81828271D02*
X196850000Y-81856463D01*
X196850000Y-82298479D02*
X196850000Y-82298919D01*
X196850000Y-81528748D02*
X196850000Y-81535795D01*
X196850000Y-82055111D02*
X196850000Y-82057316D01*
X196850000Y-82162589D02*
X196850000Y-82164350D01*
X196850000Y-82482156D02*
X196850000Y-82482596D01*
X196850000Y-82239605D02*
X196850000Y-82242441D01*
X196850000Y-82444592D02*
X196850000Y-82444785D01*
X196850000Y-82483312D02*
X196850000Y-82484028D01*
X196850000Y-82350563D02*
X196850000Y-82350784D01*
X196850000Y-82381503D02*
X196850000Y-82388550D01*
X196850000Y-82546562D02*
X196850000Y-82546590D01*
X196850000Y-82006446D02*
X196850000Y-82006886D01*
X196850000Y-81514654D02*
X196850000Y-81521701D01*
X196850000Y-82411957D02*
X196850000Y-82412067D01*
X196850000Y-82498231D02*
X196850000Y-82498672D01*
X196850000Y-82128689D02*
X196850000Y-82129267D01*
X196850000Y-82010408D02*
X196850000Y-82011289D01*
X196850000Y-82479278D02*
X196850000Y-82479911D01*
X196850000Y-82083747D02*
X196850000Y-82088150D01*
X196850000Y-82531174D02*
X196850000Y-82531642D01*
X196850000Y-82480325D02*
X196850000Y-82480519D01*
X196850000Y-82367409D02*
X196850000Y-82374456D01*
X196850000Y-82159067D02*
X196850000Y-82160828D01*
X196850000Y-82337129D02*
X196850000Y-82339112D01*
X196850000Y-82512932D02*
X196850000Y-82513041D01*
X196850000Y-82443836D02*
X196850000Y-82444276D01*
X196850000Y-82409038D02*
X196850000Y-82409478D01*
X196850000Y-81935146D02*
X196850000Y-81937458D01*
X196850000Y-82410359D02*
X196850000Y-82410799D01*
X196850000Y-81975461D02*
X196850000Y-81975599D01*
X196850000Y-82340653D02*
X196850000Y-82341313D01*
X196850000Y-82515629D02*
X196850000Y-82516068D01*
X196850000Y-81947107D02*
X196850000Y-81949337D01*
X196850000Y-82464041D02*
X196850000Y-82466960D01*
X196850000Y-82244024D02*
X196850000Y-82244134D01*
X196850000Y-82278877D02*
X196850000Y-82279317D01*
X196850000Y-82351115D02*
X196850000Y-82351555D01*
X196850000Y-82543040D02*
X196850000Y-82543068D01*
X196850000Y-82173763D02*
X196850000Y-82173872D01*
X196850000Y-82074496D02*
X196850000Y-82075378D01*
X196850000Y-82478645D02*
X196850000Y-82479278D01*
X196850000Y-82287839D02*
X196850000Y-82288417D01*
X196850000Y-82255091D02*
X196850000Y-82256853D01*
X196850000Y-82309323D02*
X196850000Y-82312519D01*
X193885909Y-85725000D02*
G75*
G03*
X194633276Y-85415430I-2J1056940D01*
G01*
X194937238Y-85111468D02*
G75*
G03*
X194942846Y-85097930I-13542J13540D01*
G01*
X174280606Y-72680606D02*
X176368103Y-74768103D01*
X177165000Y-108135987D02*
X177165000Y-76691981D01*
X180975076Y-108135910D02*
X180975000Y-108135987D01*
X180975153Y-108135725D02*
X180975153Y-86809165D01*
X174270000Y-72655000D02*
X174270000Y-72640000D01*
X182059165Y-85725153D02*
X193412937Y-85725153D01*
X193885909Y-85725000D02*
X193413307Y-85725000D01*
X194633276Y-85415430D02*
X194937238Y-85111468D01*
X174270000Y-72655000D02*
G75*
G03*
X174280606Y-72680606I36208J-2D01*
G01*
X194942846Y-85097930D02*
X194942846Y-85090000D01*
X177165000Y-76691981D02*
G75*
G03*
X176368103Y-74768103I-2720777J-2D01*
G01*
X177165001Y-108135987D02*
G75*
G03*
X177482501Y-108902499I1084010J-1D01*
G01*
X178249012Y-109220000D02*
G75*
G02*
X177482500Y-108902500I1J1084013D01*
G01*
X180975000Y-108135987D02*
G75*
G02*
X180657500Y-108902500I-1084022J4D01*
G01*
X180657500Y-108902500D02*
G75*
G02*
X179890987Y-109220000I-766517J766522D01*
G01*
X179890987Y-109220000D02*
X178249012Y-109220000D01*
X180975152Y-108135725D02*
G75*
G02*
X180975075Y-108135909I-272J5D01*
G01*
X180975154Y-86809165D02*
G75*
G02*
X181292654Y-86042654I1084001J4D01*
G01*
X193412937Y-85725152D02*
G75*
G03*
X193413121Y-85725075I-5J272D01*
G01*
X193413307Y-85725000D02*
G75*
G03*
X193413122Y-85725076I-3J-255D01*
G01*
X181292653Y-86042653D02*
G75*
G02*
X182059165Y-85725153I766508J-766502D01*
G01*
X195580000Y-84002310D02*
G75*
G02*
X194942846Y-85090000I-1785570J315500D01*
G01*
X158272289Y-57455000D02*
G75*
G02*
X158272297Y-57455000I4J-1016286824D01*
G01*
X158222858Y-57455000D02*
G75*
G02*
X158222864Y-57455000I3J-1016286824D01*
G01*
X158254752Y-57455000D02*
G75*
G02*
X158254761Y-57455000I4J-1016286824D01*
G01*
X158222727Y-57455000D02*
G75*
G02*
X158222735Y-57455000I4J-1016286824D01*
G01*
X158230292Y-57455000D02*
G75*
G02*
X158230300Y-57455000I4J-1016286824D01*
G01*
X158288224Y-57455000D02*
G75*
G02*
X158288231Y-57455000I3J-1016286824D01*
G01*
X158235228Y-57455000D02*
G75*
G02*
X158235235Y-57455000I3J-1016286824D01*
G01*
X158226571Y-57455000D02*
G75*
G02*
X158226579Y-57455000I4J-1016286824D01*
G01*
X158271386Y-57455000D02*
X158271558Y-57455000D01*
X158223218Y-57455000D02*
X158223202Y-57455000D01*
X158383436Y-57455000D02*
X158381727Y-57455000D01*
X158238306Y-57455000D02*
X158238377Y-57455000D01*
X158513228Y-57455000D02*
X158512087Y-57455000D01*
X158239929Y-57455000D02*
X158239947Y-57455000D01*
D26*
X158742883Y-57455000D02*
X158745234Y-57455000D01*
X159240624Y-57455000D02*
X159237633Y-57455000D01*
X159096108Y-57455000D02*
X159094612Y-57455000D01*
X159140220Y-57455000D02*
X159138191Y-57455000D01*
D25*
X158245596Y-57455000D02*
X158245495Y-57455000D01*
X158239542Y-57455000D02*
X158239472Y-57455000D01*
X158482648Y-57455000D02*
X158482768Y-57455000D01*
X158296888Y-57455000D02*
X158296674Y-57455000D01*
X158470074Y-57455000D02*
X158470094Y-57455000D01*
X158234970Y-57455000D02*
X158234990Y-57455000D01*
D26*
X159044411Y-57455000D02*
X159048683Y-57455000D01*
D25*
X158250444Y-57455000D02*
X158250214Y-57455000D01*
X158281750Y-57455000D02*
X158281643Y-57455000D01*
X158228297Y-57455000D02*
X158228257Y-57455000D01*
X158483822Y-57455000D02*
X158484122Y-57455000D01*
X158290786Y-57455000D02*
X158290772Y-57455000D01*
X158240355Y-57455000D02*
X158240442Y-57455000D01*
X158245825Y-57455000D02*
X158245806Y-57455000D01*
X158477922Y-57455000D02*
X158478002Y-57455000D01*
X158290159Y-57455000D02*
X158290145Y-57455000D01*
X158485412Y-57455000D02*
X158485262Y-57455000D01*
X158286582Y-57455000D02*
X158286669Y-57455000D01*
X158276811Y-57455000D02*
X158276580Y-57455000D01*
X158432917Y-57455000D02*
X158433558Y-57455000D01*
X158248076Y-57455000D02*
X158248122Y-57455000D01*
X158259608Y-57455000D02*
X158259518Y-57455000D01*
X158236609Y-57455000D02*
X158236669Y-57455000D01*
X158265385Y-57455000D02*
X158264581Y-57455000D01*
X158228418Y-57455000D02*
X158228398Y-57455000D01*
X158290973Y-57455000D02*
X158290920Y-57455000D01*
X158292108Y-57455000D02*
X158292081Y-57455000D01*
X158361860Y-57455000D02*
X158361660Y-57455000D01*
X158303351Y-57455000D02*
X158302939Y-57455000D01*
X158535280Y-57455000D02*
X158535881Y-57455000D01*
X158225151Y-57455000D02*
X158224973Y-57455000D01*
X158558351Y-57455000D02*
X158560994Y-57455000D01*
X158238981Y-57455000D02*
X158238999Y-57455000D01*
X158222545Y-57455000D02*
X158222556Y-57455000D01*
X158238858Y-57455000D02*
X158238870Y-57455000D01*
X158279252Y-57455000D02*
X158279185Y-57455000D01*
X158223080Y-57455000D02*
X158223056Y-57455000D01*
D26*
X159424979Y-57455000D02*
X159432883Y-57455000D01*
D25*
X158298208Y-57455000D02*
X158298168Y-57455000D01*
X158288304Y-57455000D02*
X158288270Y-57455000D01*
X158468864Y-57455000D02*
X158468851Y-57455000D01*
D26*
X159245752Y-57455000D02*
X159252588Y-57455000D01*
D25*
X158278411Y-57455000D02*
X158278605Y-57455000D01*
X158272914Y-57455000D02*
X158272985Y-57455000D01*
X158316527Y-57455000D02*
X158317461Y-57455000D01*
X158246256Y-57455000D02*
X158246236Y-57455000D01*
X158237082Y-57455000D02*
X158237102Y-57455000D01*
X158281216Y-57455000D02*
X158281195Y-57455000D01*
X158239700Y-57455000D02*
X158239608Y-57455000D01*
X158469021Y-57455000D02*
X158469126Y-57455000D01*
X158506801Y-57455000D02*
X158507763Y-57455000D01*
X158257582Y-57455000D02*
X158257505Y-57455000D01*
X158439326Y-57455000D02*
X158438685Y-57455000D01*
X158300561Y-57455000D02*
X158300468Y-57455000D01*
X158424158Y-57455000D02*
X158426510Y-57455000D01*
X158257370Y-57455000D02*
X158257387Y-57455000D01*
X158225890Y-57455000D02*
X158225798Y-57455000D01*
X158287549Y-57455000D02*
X158287478Y-57455000D01*
X158279566Y-57455000D02*
X158279533Y-57455000D01*
X158228890Y-57455000D02*
X158228830Y-57455000D01*
X158280769Y-57455000D02*
X158280789Y-57455000D01*
X158223601Y-57455000D02*
X158223619Y-57455000D01*
X158281169Y-57455000D02*
X158281136Y-57455000D01*
X158275738Y-57455000D02*
X158275889Y-57455000D01*
X158301322Y-57455000D02*
X158301376Y-57455000D01*
X158475048Y-57455000D02*
X158474947Y-57455000D01*
D26*
X159082544Y-57455000D02*
X159084173Y-57455000D01*
D25*
X158469334Y-57455000D02*
X158469354Y-57455000D01*
X158293776Y-57455000D02*
X158293989Y-57455000D01*
X158508723Y-57455000D02*
X158509684Y-57455000D01*
X158256143Y-57455000D02*
X158256285Y-57455000D01*
X158475690Y-57455000D02*
X158475802Y-57455000D01*
X158289931Y-57455000D02*
X158289974Y-57455000D01*
D26*
X158919763Y-57455000D02*
X158922540Y-57455000D01*
D25*
X158246670Y-57455000D02*
X158246744Y-57455000D01*
X158235158Y-57455000D02*
X158235175Y-57455000D01*
X158272330Y-57455000D02*
X158272349Y-57455000D01*
X158235501Y-57455000D02*
X158235564Y-57455000D01*
X158237448Y-57455000D02*
X158237375Y-57455000D01*
X158243856Y-57455000D02*
X158244141Y-57455000D01*
X158475199Y-57455000D02*
X158475210Y-57455000D01*
X158251134Y-57455000D02*
X158251284Y-57455000D01*
X158279994Y-57455000D02*
X158280068Y-57455000D01*
D26*
X158740853Y-57455000D02*
X158741175Y-57455000D01*
D25*
X158238884Y-57455000D02*
X158238901Y-57455000D01*
D26*
X158942835Y-57455000D02*
X158940271Y-57455000D01*
D25*
X158299038Y-57455000D02*
X158299184Y-57455000D01*
D26*
X158904408Y-57455000D02*
X158909508Y-57455000D01*
D25*
X158297314Y-57455000D02*
X158297354Y-57455000D01*
X158223478Y-57455000D02*
X158223490Y-57455000D01*
X158311214Y-57455000D02*
X158311950Y-57455000D01*
X158250590Y-57455000D02*
X158250747Y-57455000D01*
X158500551Y-57455000D02*
X158500611Y-57455000D01*
X158489136Y-57455000D02*
X158488656Y-57455000D01*
X158224320Y-57455000D02*
X158224228Y-57455000D01*
X158272289Y-57455000D02*
X158272276Y-57455000D01*
X158533477Y-57455000D02*
X158533117Y-57455000D01*
D26*
X159568535Y-57455000D02*
X159620205Y-57455000D01*
D25*
X158529514Y-57455000D02*
X158530715Y-57455000D01*
X158224547Y-57455000D02*
X158224570Y-57455000D01*
D26*
X159034371Y-57455000D02*
X159029858Y-57455000D01*
X158904300Y-57455000D02*
X158899253Y-57455000D01*
D25*
X158364841Y-57455000D02*
X158364504Y-57455000D01*
X158285159Y-57455000D02*
X158284875Y-57455000D01*
D26*
X159061499Y-57455000D02*
X159060217Y-57455000D01*
D25*
X158393682Y-57455000D02*
X158387606Y-57455000D01*
X158225956Y-57455000D02*
X158226027Y-57455000D01*
X158303884Y-57455000D02*
X158303777Y-57455000D01*
X158310292Y-57455000D02*
X158310198Y-57455000D01*
X158261639Y-57455000D02*
X158262443Y-57455000D01*
X158499649Y-57455000D02*
X158499049Y-57455000D01*
X158488176Y-57455000D02*
X158487695Y-57455000D01*
X158479814Y-57455000D02*
X158480124Y-57455000D01*
X158475360Y-57455000D02*
X158475390Y-57455000D01*
X158246181Y-57455000D02*
X158246160Y-57455000D01*
X158267417Y-57455000D02*
X158267509Y-57455000D01*
X158288547Y-57455000D02*
X158288535Y-57455000D01*
X158247381Y-57455000D02*
X158247428Y-57455000D01*
X158320719Y-57455000D02*
X158324445Y-57455000D01*
X158280284Y-57455000D02*
X158280356Y-57455000D01*
X158287092Y-57455000D02*
X158287076Y-57455000D01*
X158313230Y-57455000D02*
X158312162Y-57455000D01*
X158225556Y-57455000D02*
X158225574Y-57455000D01*
D26*
X159389732Y-57455000D02*
X159383991Y-57455000D01*
D25*
X158474557Y-57455000D02*
X158474598Y-57455000D01*
X158228123Y-57455000D02*
X158228047Y-57455000D01*
X158272084Y-57455000D02*
X158272101Y-57455000D01*
X158501693Y-57455000D02*
X158501512Y-57455000D01*
D26*
X159274804Y-57455000D02*
X159300119Y-57455000D01*
D25*
X158224162Y-57455000D02*
X158224092Y-57455000D01*
X158254045Y-57455000D02*
X158254116Y-57455000D01*
X158298021Y-57455000D02*
X158298061Y-57455000D01*
X158471154Y-57455000D02*
X158470941Y-57455000D01*
X158229935Y-57455000D02*
X158229998Y-57455000D01*
X158514734Y-57455000D02*
X158513472Y-57455000D01*
X158473716Y-57455000D02*
X158473926Y-57455000D01*
X158287682Y-57455000D02*
X158287702Y-57455000D01*
X158532517Y-57455000D02*
X158532637Y-57455000D01*
X158239774Y-57455000D02*
X158239801Y-57455000D01*
X158272700Y-57455000D02*
X158272627Y-57455000D01*
D26*
X158859437Y-57455000D02*
X158851722Y-57455000D01*
X159117976Y-57455000D02*
X159129219Y-57455000D01*
D25*
X158226500Y-57455000D02*
X158226518Y-57455000D01*
X158254674Y-57455000D02*
X158254693Y-57455000D01*
X158557871Y-57455000D02*
X158555588Y-57455000D01*
X158226162Y-57455000D02*
X158226182Y-57455000D01*
X158313444Y-57455000D02*
X158314085Y-57455000D01*
X158245379Y-57455000D02*
X158245271Y-57455000D01*
X158254328Y-57455000D02*
X158254400Y-57455000D01*
X158496947Y-57455000D02*
X158496707Y-57455000D01*
X158299758Y-57455000D02*
X158299610Y-57455000D01*
X158279780Y-57455000D02*
X158279746Y-57455000D01*
X158253595Y-57455000D02*
X158253621Y-57455000D01*
X158486641Y-57455000D02*
X158486732Y-57455000D01*
X158246136Y-57455000D02*
X158246102Y-57455000D01*
X158291332Y-57455000D02*
X158291295Y-57455000D01*
X158274816Y-57455000D02*
X158274689Y-57455000D01*
X158255635Y-57455000D02*
X158255462Y-57455000D01*
X158280890Y-57455000D02*
X158280923Y-57455000D01*
X158225418Y-57455000D02*
X158225432Y-57455000D01*
X158300254Y-57455000D02*
X158300187Y-57455000D01*
X158289003Y-57455000D02*
X158288989Y-57455000D01*
X158298611Y-57455000D02*
X158298477Y-57455000D01*
X158234566Y-57455000D02*
X158234406Y-57455000D01*
D26*
X159343831Y-57455000D02*
X159320199Y-57455000D01*
D25*
X158539726Y-57455000D02*
X158540327Y-57455000D01*
X158283167Y-57455000D02*
X158282880Y-57455000D01*
X158550782Y-57455000D02*
X158548859Y-57455000D01*
X158251458Y-57455000D02*
X158251899Y-57455000D01*
X158237243Y-57455000D02*
X158237203Y-57455000D01*
X158270738Y-57455000D02*
X158270879Y-57455000D01*
X158222727Y-57455000D02*
X158222710Y-57455000D01*
X158288213Y-57455000D02*
X158288224Y-57455000D01*
X158475430Y-57455000D02*
X158475490Y-57455000D01*
X158270022Y-57455000D02*
X158270216Y-57455000D01*
X158254883Y-57455000D02*
X158254818Y-57455000D01*
X158363467Y-57455000D02*
X158363704Y-57455000D01*
D26*
X158797142Y-57455000D02*
X158794579Y-57455000D01*
D25*
X158478882Y-57455000D02*
X158478642Y-57455000D01*
X158358705Y-57455000D02*
X158357720Y-57455000D01*
X158326793Y-57455000D02*
X158328610Y-57455000D01*
X158478482Y-57455000D02*
X158478162Y-57455000D01*
X158486523Y-57455000D02*
X158486373Y-57455000D01*
X158236949Y-57455000D02*
X158236882Y-57455000D01*
D26*
X158748971Y-57455000D02*
X158746942Y-57455000D01*
D25*
X158287192Y-57455000D02*
X158287178Y-57455000D01*
D26*
X158822030Y-57455000D02*
X158823659Y-57455000D01*
D25*
X158245853Y-57455000D02*
X158245886Y-57455000D01*
X158226768Y-57455000D02*
X158226748Y-57455000D01*
D26*
X159027828Y-57455000D02*
X159021793Y-57455000D01*
D25*
X158282172Y-57455000D02*
X158282320Y-57455000D01*
X158227121Y-57455000D02*
X158227194Y-57455000D01*
X158228323Y-57455000D02*
X158228344Y-57455000D01*
X158228551Y-57455000D02*
X158228617Y-57455000D01*
X158280862Y-57455000D02*
X158280842Y-57455000D01*
X158256998Y-57455000D02*
X158256803Y-57455000D01*
X158238934Y-57455000D02*
X158238945Y-57455000D01*
X158222785Y-57455000D02*
X158222803Y-57455000D01*
X158231088Y-57455000D02*
X158230929Y-57455000D01*
X158223504Y-57455000D02*
X158223521Y-57455000D01*
X158580207Y-57455000D02*
X158571088Y-57455000D01*
X158440180Y-57455000D02*
X158440608Y-57455000D01*
D26*
X158842752Y-57455000D02*
X158840402Y-57455000D01*
D25*
X158230279Y-57455000D02*
X158230292Y-57455000D01*
X158248610Y-57455000D02*
X158248416Y-57455000D01*
X158230668Y-57455000D02*
X158230681Y-57455000D01*
X158410488Y-57455000D02*
X158407353Y-57455000D01*
X158238732Y-57455000D02*
X158238752Y-57455000D01*
X158231688Y-57455000D02*
X158231596Y-57455000D01*
X158316047Y-57455000D02*
X158315473Y-57455000D01*
D26*
X158976799Y-57455000D02*
X158999683Y-57455000D01*
D25*
X158230150Y-57455000D02*
X158230213Y-57455000D01*
X158292296Y-57455000D02*
X158292216Y-57455000D01*
X158288949Y-57455000D02*
X158288905Y-57455000D01*
X158501031Y-57455000D02*
X158500851Y-57455000D01*
X158247769Y-57455000D02*
X158247836Y-57455000D01*
X158484572Y-57455000D02*
X158484602Y-57455000D01*
X158330375Y-57455000D02*
X158330108Y-57455000D01*
X158477170Y-57455000D02*
X158477079Y-57455000D01*
X158365093Y-57455000D02*
X158365304Y-57455000D01*
X158235217Y-57455000D02*
X158235228Y-57455000D01*
X158247274Y-57455000D02*
X158247241Y-57455000D01*
X158273651Y-57455000D02*
X158273607Y-57455000D01*
X158504877Y-57455000D02*
X158504697Y-57455000D01*
X158606592Y-57455000D02*
X158608835Y-57455000D01*
X158246391Y-57455000D02*
X158246457Y-57455000D01*
X158237175Y-57455000D02*
X158237155Y-57455000D01*
X158235473Y-57455000D02*
X158235375Y-57455000D01*
D26*
X160170736Y-57455000D02*
X160075273Y-57455000D01*
D25*
X158225667Y-57455000D02*
X158225656Y-57455000D01*
X158297475Y-57455000D02*
X158297408Y-57455000D01*
X158296247Y-57455000D02*
X158296460Y-57455000D01*
X158273408Y-57455000D02*
X158273434Y-57455000D01*
X158222674Y-57455000D02*
X158222639Y-57455000D01*
X158223554Y-57455000D02*
X158223565Y-57455000D01*
X158287218Y-57455000D02*
X158287248Y-57455000D01*
D26*
X159416433Y-57455000D02*
X159412802Y-57455000D01*
X159051673Y-57455000D02*
X159057227Y-57455000D01*
D25*
X158484722Y-57455000D02*
X158484812Y-57455000D01*
X158223372Y-57455000D02*
X158223352Y-57455000D01*
X158309864Y-57455000D02*
X158310038Y-57455000D01*
X158485142Y-57455000D02*
X158485052Y-57455000D01*
X158254735Y-57455000D02*
X158254752Y-57455000D01*
X158230522Y-57455000D02*
X158230503Y-57455000D01*
X158224704Y-57455000D02*
X158224688Y-57455000D01*
X158475280Y-57455000D02*
X158475250Y-57455000D01*
X158239338Y-57455000D02*
X158239318Y-57455000D01*
D26*
X158827611Y-57455000D02*
X158831216Y-57455000D01*
D25*
X158247028Y-57455000D02*
X158246956Y-57455000D01*
X158430782Y-57455000D02*
X158432063Y-57455000D01*
X158278944Y-57455000D02*
X158278897Y-57455000D01*
X158406225Y-57455000D02*
X158403654Y-57455000D01*
X158242150Y-57455000D02*
X158241865Y-57455000D01*
X158298276Y-57455000D02*
X158298262Y-57455000D01*
X158367748Y-57455000D02*
X158367137Y-57455000D01*
X158540807Y-57455000D02*
X158541168Y-57455000D01*
X158612148Y-57455000D02*
X158610973Y-57455000D01*
X158300615Y-57455000D02*
X158300682Y-57455000D01*
X158273473Y-57455000D02*
X158273462Y-57455000D01*
X158490337Y-57455000D02*
X158490907Y-57455000D01*
X158272141Y-57455000D02*
X158272206Y-57455000D01*
D26*
X158733482Y-57455000D02*
X158734576Y-57455000D01*
D25*
X158289158Y-57455000D02*
X158289205Y-57455000D01*
X158234812Y-57455000D02*
X158234826Y-57455000D01*
X158254536Y-57455000D02*
X158254556Y-57455000D01*
X158224421Y-57455000D02*
X158224394Y-57455000D01*
X158291080Y-57455000D02*
X158291027Y-57455000D01*
X158279639Y-57455000D02*
X158279592Y-57455000D01*
X158276434Y-57455000D02*
X158276277Y-57455000D01*
X158223958Y-57455000D02*
X158223938Y-57455000D01*
D26*
X159076562Y-57455000D02*
X159074826Y-57455000D01*
X158737860Y-57455000D02*
X158738206Y-57455000D01*
D25*
X158504156Y-57455000D02*
X158504457Y-57455000D01*
D26*
X158738742Y-57455000D02*
X158739356Y-57455000D01*
D25*
X158282017Y-57455000D02*
X158282144Y-57455000D01*
X158252334Y-57455000D02*
X158252207Y-57455000D01*
X158233885Y-57455000D02*
X158233798Y-57455000D01*
X158244723Y-57455000D02*
X158244703Y-57455000D01*
X158253422Y-57455000D02*
X158253378Y-57455000D01*
X158397948Y-57455000D02*
X158395566Y-57455000D01*
X158479694Y-57455000D02*
X158479443Y-57455000D01*
D26*
X159788886Y-57455000D02*
X159765921Y-57455000D01*
X159378197Y-57455000D02*
X159383885Y-57455000D01*
D25*
X158222904Y-57455000D02*
X158222924Y-57455000D01*
X158230124Y-57455000D02*
X158230024Y-57455000D01*
X158275564Y-57455000D02*
X158275124Y-57455000D01*
X158225697Y-57455000D02*
X158225726Y-57455000D01*
X158281430Y-57455000D02*
X158281537Y-57455000D01*
X158534438Y-57455000D02*
X158534798Y-57455000D01*
X158292900Y-57455000D02*
X158292830Y-57455000D01*
X158293508Y-57455000D02*
X158293348Y-57455000D01*
X158288152Y-57455000D02*
X158288168Y-57455000D01*
X158288043Y-57455000D02*
X158288026Y-57455000D01*
X158491029Y-57455000D02*
X158491660Y-57455000D01*
X158235287Y-57455000D02*
X158235347Y-57455000D01*
X158502233Y-57455000D02*
X158501933Y-57455000D01*
X158230344Y-57455000D02*
X158230327Y-57455000D01*
X158280636Y-57455000D02*
X158280569Y-57455000D01*
X158469874Y-57455000D02*
X158469814Y-57455000D01*
X158269635Y-57455000D02*
X158269652Y-57455000D01*
X158290558Y-57455000D02*
X158290456Y-57455000D01*
D26*
X159066813Y-57455000D02*
X159065558Y-57455000D01*
D25*
X158546937Y-57455000D02*
X158545014Y-57455000D01*
X158269515Y-57455000D02*
X158269438Y-57455000D01*
X158247489Y-57455000D02*
X158247456Y-57455000D01*
X158477612Y-57455000D02*
X158477682Y-57455000D01*
X158226554Y-57455000D02*
X158226571Y-57455000D01*
X158524827Y-57455000D02*
X158525308Y-57455000D01*
X158254939Y-57455000D02*
X158254923Y-57455000D01*
X158287320Y-57455000D02*
X158287412Y-57455000D01*
X158297902Y-57455000D02*
X158297969Y-57455000D01*
X149848955Y-58575000D02*
X149848414Y-58575000D01*
X149861163Y-58575000D02*
X149862300Y-58575000D01*
X149841511Y-58575000D02*
X149839210Y-58575000D01*
X149864112Y-58575000D02*
X149864004Y-58575000D01*
X149859349Y-58575000D02*
X149859458Y-58575000D01*
X149866060Y-58575000D02*
X149866197Y-58575000D01*
X149858268Y-58575000D02*
X149858403Y-58575000D01*
X149866847Y-58575000D02*
X149866820Y-58575000D01*
X149853718Y-58575000D02*
X149852500Y-58575000D01*
X149865059Y-58575000D02*
X149865194Y-58575000D01*
X196850000Y-82479911D02*
X196850000Y-82480325D01*
X196850000Y-82158572D02*
X196850000Y-82159067D01*
X196850000Y-82302717D02*
X196850000Y-82303983D01*
X196850000Y-82059964D02*
X196850000Y-82059521D01*
X196850000Y-82474118D02*
X196850000Y-82471379D01*
X196850000Y-82411239D02*
X196850000Y-82411391D01*
X196850000Y-82414115D02*
X196850000Y-82413812D01*
X196850000Y-82540961D02*
X196850000Y-82540672D01*
X196850000Y-82483023D02*
X196850000Y-82483312D01*
X196850000Y-82442516D02*
X196850000Y-82442365D01*
X196850000Y-81987724D02*
X196850000Y-81988275D01*
X196850000Y-81988715D02*
X196850000Y-81989045D01*
X196850000Y-82402926D02*
X196850000Y-82402265D01*
X196850000Y-82543329D02*
X196850000Y-82543068D01*
X196850000Y-82540616D02*
X196850000Y-82540354D01*
X196850000Y-82214785D02*
X196850000Y-82209057D01*
X196850000Y-82357721D02*
X196850000Y-82358161D01*
X196850000Y-81975323D02*
X196850000Y-81975172D01*
X196850000Y-82500435D02*
X196850000Y-82499884D01*
X196850000Y-82259111D02*
X196850000Y-82258615D01*
X196850000Y-82137925D02*
X196850000Y-82137759D01*
X196850000Y-81931622D02*
X196850000Y-81935146D01*
X196850000Y-81959757D02*
X196850000Y-81961188D01*
X196850000Y-82276783D02*
X196850000Y-82275737D01*
X196850000Y-82015417D02*
X196850000Y-82014757D01*
X196850000Y-82005399D02*
X196850000Y-82005179D01*
X196850000Y-82413497D02*
X196850000Y-82413758D01*
X196850000Y-82516951D02*
X196850000Y-82517062D01*
X196850000Y-82308608D02*
X196850000Y-82309323D01*
X196850000Y-82316319D02*
X196850000Y-82315715D01*
X196850000Y-82136987D02*
X196850000Y-82136670D01*
X196850000Y-82427427D02*
X196850000Y-82427757D01*
X196850000Y-82535014D02*
X196850000Y-82534904D01*
X196850000Y-82114966D02*
X196850000Y-82113699D01*
X196850000Y-81950507D02*
X196850000Y-81949337D01*
X196850000Y-82545586D02*
X196850000Y-82545435D01*
X196850000Y-82513360D02*
X196850000Y-82513443D01*
X196850000Y-82469879D02*
X196850000Y-82471325D01*
X196850000Y-82401165D02*
X196850000Y-82400284D01*
X196850000Y-82543879D02*
X196850000Y-82544099D01*
X196850000Y-82538606D02*
X196850000Y-82538523D01*
X196850000Y-82136392D02*
X196850000Y-82136214D01*
X196850000Y-81993011D02*
X196850000Y-81992460D01*
X196850000Y-82068661D02*
X196850000Y-82068331D01*
X196850000Y-82069101D02*
X196850000Y-82069651D01*
X196850000Y-82003872D02*
X196850000Y-82003569D01*
X196850000Y-82439926D02*
X196850000Y-82440036D01*
X196850000Y-82290715D02*
X196850000Y-82290838D01*
X196850000Y-82026772D02*
X196850000Y-82029128D01*
X196850000Y-82067121D02*
X196850000Y-82067451D01*
X196850000Y-82485074D02*
X196850000Y-82485184D01*
X196850000Y-82073174D02*
X196850000Y-82073725D01*
X196850000Y-82074165D02*
X196850000Y-82074496D01*
X196850000Y-82529301D02*
X196850000Y-82529824D01*
X196850000Y-82497350D02*
X196850000Y-82497681D01*
X196850000Y-82545022D02*
X196850000Y-82544980D01*
X196850000Y-82444399D02*
X196850000Y-82444276D01*
X196850000Y-82350233D02*
X196850000Y-82350563D01*
X196850000Y-82140017D02*
X196850000Y-82138805D01*
X196850000Y-82395590D02*
X196850000Y-82396774D01*
X196850000Y-82010078D02*
X196850000Y-82010408D01*
X196850000Y-82407276D02*
X196850000Y-82407606D01*
X196850000Y-82397972D02*
X196850000Y-82396830D01*
X196850000Y-82339993D02*
X196850000Y-82339112D01*
X196850000Y-81922262D02*
X196850000Y-81917596D01*
X196850000Y-82108357D02*
X196850000Y-82109074D01*
X196850000Y-82178073D02*
X196850000Y-82180965D01*
X196850000Y-82288995D02*
X196850000Y-82289298D01*
X196850000Y-82408048D02*
X196850000Y-82408158D01*
X196850000Y-82477916D02*
X196850000Y-82478645D01*
X196850000Y-82411847D02*
X196850000Y-82411806D01*
X196850000Y-81972860D02*
X196850000Y-81972419D01*
X196850000Y-82510993D02*
X196850000Y-82511296D01*
X196850000Y-81977650D02*
X196850000Y-81977760D01*
X196850000Y-81990257D02*
X196850000Y-81989926D01*
X196850000Y-82343515D02*
X196850000Y-82343185D01*
X196850000Y-82547086D02*
X196850000Y-82547058D01*
X196850000Y-82424675D02*
X196850000Y-82425225D01*
X196850000Y-82390910D02*
X196850000Y-82388550D01*
X196850000Y-82531931D02*
X196850000Y-82531642D01*
X196850000Y-82186857D02*
X196850000Y-82191221D01*
X196850000Y-82447194D02*
X196850000Y-82446464D01*
X196850000Y-82546451D02*
X196850000Y-82546534D01*
X196850000Y-82281010D02*
X196850000Y-82280693D01*
X196850000Y-82524882D02*
X196850000Y-82524153D01*
X196850000Y-82076371D02*
X196850000Y-82076260D01*
X196850000Y-82538095D02*
X196850000Y-82538247D01*
X196850000Y-82333935D02*
X196850000Y-82335146D01*
X196850000Y-82125813D02*
X196850000Y-82126240D01*
X196850000Y-82513719D02*
X196850000Y-82513870D01*
X196850000Y-82517502D02*
X196850000Y-82517832D01*
X196850000Y-82133958D02*
X196850000Y-82134522D01*
X196850000Y-82343957D02*
X196850000Y-82344508D01*
X196850000Y-82283158D02*
X196850000Y-82283723D01*
X196850000Y-82527084D02*
X196850000Y-82527813D01*
X196850000Y-82428638D02*
X196850000Y-82428968D01*
X196850000Y-82475824D02*
X196850000Y-82474998D01*
X196850000Y-82003928D02*
X196850000Y-82004189D01*
X196850000Y-82412507D02*
X196850000Y-82412287D01*
X196850000Y-82545159D02*
X196850000Y-82545076D01*
X196850000Y-82539583D02*
X196850000Y-82539803D01*
X196850000Y-82129845D02*
X196850000Y-82130436D01*
X196850000Y-82202895D02*
X196850000Y-82208623D01*
X196850000Y-82063817D02*
X196850000Y-82064919D01*
X196850000Y-81963281D02*
X196850000Y-81962510D01*
X196850000Y-82140897D02*
X196850000Y-82141943D01*
X196850000Y-82445198D02*
X196850000Y-82444785D01*
X196850000Y-82429410D02*
X196850000Y-82429961D01*
X196850000Y-82279922D02*
X196850000Y-82279757D01*
X196850000Y-82513306D02*
X196850000Y-82513264D01*
X196850000Y-82050269D02*
X196850000Y-82052582D01*
X196850000Y-82352765D02*
X196850000Y-82353866D01*
X196850000Y-82006295D02*
X196850000Y-82006446D01*
X196850000Y-82498121D02*
X196850000Y-82498231D01*
X196850000Y-82287247D02*
X196850000Y-82287839D01*
X196850000Y-82289354D02*
X196850000Y-82289615D01*
X196850000Y-82544319D02*
X196850000Y-82544539D01*
X196850000Y-82415271D02*
X196850000Y-82415862D01*
X196850000Y-82004959D02*
X196850000Y-82004739D01*
X196850000Y-82351005D02*
X196850000Y-82351115D01*
X196850000Y-82412947D02*
X196850000Y-82412727D01*
X196850000Y-82291444D02*
X196850000Y-82291871D01*
X196850000Y-82012900D02*
X196850000Y-82012611D01*
X196850000Y-82082537D02*
X196850000Y-82083747D01*
X196850000Y-82509837D02*
X196850000Y-82509245D01*
X196850000Y-82277665D02*
X196850000Y-82278877D01*
X196850000Y-82270287D02*
X196850000Y-82271650D01*
X196850000Y-82341423D02*
X196850000Y-82341313D01*
X196850000Y-82480836D02*
X196850000Y-82480713D01*
X196850000Y-82511352D02*
X196850000Y-82511613D01*
X196850000Y-82546631D02*
X196850000Y-82546590D01*
X196850000Y-82522142D02*
X196850000Y-82522665D01*
X196850000Y-82411750D02*
X196850000Y-82411667D01*
X196850000Y-82005882D02*
X196850000Y-82005840D01*
X196850000Y-81917540D02*
X196850000Y-81912832D01*
X196850000Y-82542723D02*
X196850000Y-82543012D01*
X196850000Y-82230822D02*
X196850000Y-82226458D01*
X196850000Y-82020908D02*
X196850000Y-82022092D01*
X196850000Y-81990697D02*
X196850000Y-81990807D01*
X196850000Y-82236714D02*
X196850000Y-82239605D01*
X196850000Y-82426987D02*
X196850000Y-82426877D01*
X196850000Y-82534462D02*
X196850000Y-82534132D01*
X196850000Y-82453785D02*
X196850000Y-82455231D01*
X196850000Y-82261917D02*
X196850000Y-82260651D01*
X196850000Y-82546177D02*
X196850000Y-82546026D01*
X196850000Y-82001821D02*
X196850000Y-82002413D01*
X196850000Y-82077691D02*
X196850000Y-82078571D01*
X196850000Y-81973412D02*
X196850000Y-81973302D01*
X196850000Y-82547002D02*
X196850000Y-82546961D01*
X196850000Y-82020854D02*
X196850000Y-82019712D01*
X196850000Y-82512163D02*
X196850000Y-82512383D01*
X196850000Y-82145646D02*
X196850000Y-82144476D01*
X196850000Y-82272034D02*
X196850000Y-82273204D01*
X196850000Y-81942192D02*
X196850000Y-81939770D01*
X196850000Y-82538662D02*
X196850000Y-82538703D01*
X196850000Y-82441798D02*
X196850000Y-82442087D01*
X196850000Y-81975888D02*
X196850000Y-81975599D01*
X196850000Y-82155764D02*
X196850000Y-82157030D01*
X196850000Y-82453731D02*
X196850000Y-82450992D01*
X196850000Y-82128386D02*
X196850000Y-82128689D01*
X196850000Y-82495148D02*
X196850000Y-82495699D01*
X196850000Y-82496139D02*
X196850000Y-82496469D01*
X196850000Y-82126968D02*
X196850000Y-82126844D01*
X196850000Y-82365097D02*
X196850000Y-82367409D01*
X196850000Y-81884654D02*
X196850000Y-81894056D01*
X196850000Y-82482747D02*
X196850000Y-82482596D01*
X196850000Y-82520035D02*
X196850000Y-82520324D01*
X196850000Y-82348582D02*
X196850000Y-82348031D01*
X196850000Y-82349022D02*
X196850000Y-82349352D01*
X196850000Y-81967685D02*
X196850000Y-81968566D01*
X196850000Y-81971097D02*
X196850000Y-81969444D01*
X196850000Y-82009638D02*
X196850000Y-82009527D01*
X196850000Y-82405075D02*
X196850000Y-82404786D01*
X196850000Y-82017400D02*
X196850000Y-82016519D01*
X196850000Y-82101977D02*
X196850000Y-82101369D01*
X196850000Y-82512603D02*
X196850000Y-82512823D01*
X196850000Y-82066681D02*
X196850000Y-82066570D01*
X196850000Y-82449286D02*
X196850000Y-82450112D01*
X196850000Y-82539363D02*
X196850000Y-82539143D01*
X196850000Y-82005936D02*
X196850000Y-82006019D01*
X196850000Y-82146032D02*
X196850000Y-82147395D01*
X196850000Y-82281465D02*
X196850000Y-82281286D01*
X196850000Y-82128332D02*
X196850000Y-82128070D01*
X195741896Y-67864853D02*
X197485000Y-66121750D01*
X194942846Y-82547846D02*
X194943923Y-82546769D01*
X194945000Y-69788731D02*
G75*
G02*
X195741896Y-67864853I2720770J2D01*
G01*
X194945000Y-82544168D02*
X194945000Y-69788731D01*
X194943923Y-82546769D02*
G75*
G03*
X194945000Y-82544168I-2606J2603D01*
G01*
X195580000Y-83635535D02*
X195580000Y-84004464D01*
X194942846Y-82547846D02*
G75*
G02*
X195580000Y-83635535I-1148411J-1403187D01*
G01*
X158225638Y-57455000D02*
G75*
G02*
X158225628Y-57455000I-5J1131196824D01*
G01*
X158226601Y-57455000D02*
G75*
G02*
X158226611Y-57455000I5J-1016286824D01*
G01*
X158222532Y-57455000D02*
G75*
G02*
X158222545Y-57455000I6J-1016286824D01*
G01*
X158238874Y-57455000D02*
G75*
G02*
X158238884Y-57455000I5J-1016286824D01*
G01*
X158289033Y-57455000D02*
G75*
G02*
X158289043Y-57455000I5J-1016286824D01*
G01*
X158222767Y-57455000D02*
G75*
G02*
X158222757Y-57455000I-5J1131196824D01*
G01*
X158223494Y-57455000D02*
G75*
G02*
X158223504Y-57455000I5J-1016286824D01*
G01*
X158287157Y-57455000D02*
G75*
G02*
X158287150Y-57455000I-4J1131196824D01*
G01*
X158289680Y-57455000D02*
G75*
G02*
X158289689Y-57455000I4J-1016286824D01*
G01*
X158287146Y-57455000D02*
G75*
G02*
X158287150Y-57455000I2J-1016286824D01*
G01*
X158225624Y-57455000D02*
G75*
G02*
X158225628Y-57455000I2J-1016286824D01*
G01*
X158226597Y-57455000D02*
G75*
G02*
X158226601Y-57455000I2J-1016286824D01*
G01*
X158222532Y-57455000D02*
G75*
G02*
X158222519Y-57455000I-7J1131196824D01*
G01*
X158238870Y-57455000D02*
G75*
G02*
X158238874Y-57455000I2J-1016286824D01*
G01*
X158289029Y-57455000D02*
G75*
G02*
X158289033Y-57455000I2J-1016286824D01*
G01*
X158223490Y-57455000D02*
G75*
G02*
X158223494Y-57455000I2J-1016286824D01*
G01*
X158297635Y-57455000D02*
X158297742Y-57455000D01*
X158272308Y-57455000D02*
X158272297Y-57455000D01*
X158222877Y-57455000D02*
X158222864Y-57455000D01*
X158257182Y-57455000D02*
X158257152Y-57455000D01*
X158363141Y-57455000D02*
X158363052Y-57455000D01*
D26*
X158927241Y-57455000D02*
X158929165Y-57455000D01*
D25*
X158301055Y-57455000D02*
X158301002Y-57455000D01*
X158500071Y-57455000D02*
X158500010Y-57455000D01*
X158359727Y-57455000D02*
X158359764Y-57455000D01*
X158231374Y-57455000D02*
X158231430Y-57455000D01*
X158255045Y-57455000D02*
X158255139Y-57455000D01*
X158538284Y-57455000D02*
X158537323Y-57455000D01*
X158298863Y-57455000D02*
X158298904Y-57455000D01*
X158226597Y-57455000D02*
X158226579Y-57455000D01*
X158477512Y-57455000D02*
X158477482Y-57455000D01*
X158302124Y-57455000D02*
X158302271Y-57455000D01*
D26*
X158931727Y-57455000D02*
X158934290Y-57455000D01*
X158735805Y-57455000D02*
X158735940Y-57455000D01*
D25*
X158362408Y-57455000D02*
X158362608Y-57455000D01*
X158234058Y-57455000D02*
X158234116Y-57455000D01*
X158286995Y-57455000D02*
X158287010Y-57455000D01*
X158240248Y-57455000D02*
X158240228Y-57455000D01*
X158281003Y-57455000D02*
X158281056Y-57455000D01*
X158279373Y-57455000D02*
X158279359Y-57455000D01*
X158263474Y-57455000D02*
X158263139Y-57455000D01*
X158601036Y-57455000D02*
X158592489Y-57455000D01*
D26*
X159089591Y-57455000D02*
X159091087Y-57455000D01*
D25*
X158497668Y-57455000D02*
X158497909Y-57455000D01*
D26*
X159524742Y-57455000D02*
X159532646Y-57455000D01*
X159664692Y-57455000D02*
X159685494Y-57455000D01*
D25*
X158271722Y-57455000D02*
X158271685Y-57455000D01*
X158247116Y-57455000D02*
X158247095Y-57455000D01*
X158265914Y-57455000D02*
X158266000Y-57455000D01*
X158255978Y-57455000D02*
X158255908Y-57455000D01*
D26*
X159072316Y-57455000D02*
X159071542Y-57455000D01*
X159464499Y-57455000D02*
X159452964Y-57455000D01*
D25*
X158235252Y-57455000D02*
X158235235Y-57455000D01*
D26*
X158965264Y-57455000D02*
X158965051Y-57455000D01*
D25*
X158502954Y-57455000D02*
X158503435Y-57455000D01*
X158246603Y-57455000D02*
X158246583Y-57455000D01*
D26*
X159355313Y-57455000D02*
X159355339Y-57455000D01*
X159978370Y-57455000D02*
X159979090Y-57455000D01*
D25*
X158486013Y-57455000D02*
X158485772Y-57455000D01*
X158310867Y-57455000D02*
X158310828Y-57455000D01*
X158263886Y-57455000D02*
X158263552Y-57455000D01*
X158234890Y-57455000D02*
X158234876Y-57455000D01*
X158287150Y-57455000D02*
X158287142Y-57455000D01*
X158287142Y-57455000D02*
X158287157Y-57455000D01*
X158255298Y-57455000D02*
X158255335Y-57455000D01*
X158366400Y-57455000D02*
X158366463Y-57455000D01*
X158292510Y-57455000D02*
X158292576Y-57455000D01*
X158222519Y-57455000D02*
X158222512Y-57455000D01*
X158298704Y-57455000D02*
X158298691Y-57455000D01*
X158234290Y-57455000D02*
X158234309Y-57455000D01*
X158483249Y-57455000D02*
X158483129Y-57455000D01*
X158498629Y-57455000D02*
X158498689Y-57455000D01*
X158287146Y-57455000D02*
X158287157Y-57455000D01*
X158287150Y-57455000D02*
X158287157Y-57455000D01*
X158480805Y-57455000D02*
X158481446Y-57455000D01*
X158474758Y-57455000D02*
X158474718Y-57455000D01*
X158225624Y-57455000D02*
X158225638Y-57455000D01*
X158225628Y-57455000D02*
X158225638Y-57455000D01*
X158247649Y-57455000D02*
X158247662Y-57455000D01*
D26*
X159068362Y-57455000D02*
X159068656Y-57455000D01*
D25*
X158228743Y-57455000D02*
X158228763Y-57455000D01*
X158299892Y-57455000D02*
X158299932Y-57455000D01*
D26*
X159717108Y-57455000D02*
X159694143Y-57455000D01*
X158811562Y-57455000D02*
X158806541Y-57455000D01*
D25*
X158222757Y-57455000D02*
X158222735Y-57455000D01*
X158483642Y-57455000D02*
X158483612Y-57455000D01*
X158279927Y-57455000D02*
X158279907Y-57455000D01*
X158474875Y-57455000D02*
X158474886Y-57455000D01*
X158226611Y-57455000D02*
X158226597Y-57455000D01*
X158226611Y-57455000D02*
X158226601Y-57455000D01*
X158222542Y-57455000D02*
X158222519Y-57455000D01*
X158222542Y-57455000D02*
X158222532Y-57455000D01*
X158271881Y-57455000D02*
X158271976Y-57455000D01*
X158230605Y-57455000D02*
X158230618Y-57455000D01*
D26*
X159087992Y-57455000D02*
X159086897Y-57455000D01*
D25*
X158261109Y-57455000D02*
X158261022Y-57455000D01*
D26*
X159109913Y-57455000D02*
X159109140Y-57455000D01*
D25*
X158469734Y-57455000D02*
X158469714Y-57455000D01*
X158587685Y-57455000D02*
X158591211Y-57455000D01*
X158288463Y-57455000D02*
X158288475Y-57455000D01*
X158238884Y-57455000D02*
X158238870Y-57455000D01*
X158238884Y-57455000D02*
X158238874Y-57455000D01*
X158528793Y-57455000D02*
X158528673Y-57455000D01*
X158269869Y-57455000D02*
X158269840Y-57455000D01*
X158271115Y-57455000D02*
X158271044Y-57455000D01*
X158484302Y-57455000D02*
X158484332Y-57455000D01*
X158246022Y-57455000D02*
X158245967Y-57455000D01*
X158517381Y-57455000D02*
X158520021Y-57455000D01*
X158289043Y-57455000D02*
X158289029Y-57455000D01*
X158289043Y-57455000D02*
X158289033Y-57455000D01*
X158223504Y-57455000D02*
X158223490Y-57455000D01*
X158223504Y-57455000D02*
X158223494Y-57455000D01*
X158531557Y-57455000D02*
X158531436Y-57455000D01*
X158477310Y-57455000D02*
X158477359Y-57455000D01*
X158286797Y-57455000D02*
X158286776Y-57455000D01*
X158231187Y-57455000D02*
X158231209Y-57455000D01*
X158298384Y-57455000D02*
X158298397Y-57455000D01*
X158255777Y-57455000D02*
X158255836Y-57455000D01*
X158494303Y-57455000D02*
X158492982Y-57455000D01*
X158271184Y-57455000D02*
X158271244Y-57455000D01*
X158526750Y-57455000D02*
X158527230Y-57455000D01*
X158254761Y-57455000D02*
X158254780Y-57455000D01*
X158236757Y-57455000D02*
X158236736Y-57455000D01*
X158469594Y-57455000D02*
X158469554Y-57455000D01*
X158300094Y-57455000D02*
X158300107Y-57455000D01*
X158288244Y-57455000D02*
X158288231Y-57455000D01*
X158280444Y-57455000D02*
X158280423Y-57455000D01*
D26*
X158875834Y-57455000D02*
X158878959Y-57455000D01*
D25*
X149843839Y-58575000D02*
X149843866Y-58575000D01*
X149860568Y-58575000D02*
X149860542Y-58575000D01*
X149850146Y-58575000D02*
X149850688Y-58575000D01*
X149851472Y-58575000D02*
X149851012Y-58575000D01*
X149858915Y-58575000D02*
X149859024Y-58575000D01*
X149866360Y-58575000D02*
X149866388Y-58575000D01*
X149854800Y-58575000D02*
X149854584Y-58575000D01*
X149864437Y-58575000D02*
X149864546Y-58575000D01*
X149862922Y-58575000D02*
X149862895Y-58575000D01*
X149856533Y-58575000D02*
X149856099Y-58575000D01*
X149858566Y-58575000D02*
X149858594Y-58575000D01*
X149864897Y-58575000D02*
X149864870Y-58575000D01*
X196850000Y-82518988D02*
X196850000Y-82518713D01*
X196850000Y-82294292D02*
X196850000Y-82293027D01*
X196850000Y-82435685D02*
X196850000Y-82437614D01*
X196850000Y-82295615D02*
X196850000Y-82298479D01*
X196850000Y-82267369D02*
X196850000Y-82265220D01*
X196850000Y-82425886D02*
X196850000Y-82425997D01*
X196850000Y-82055003D02*
X196850000Y-82055111D01*
X196850000Y-81976604D02*
X196850000Y-81976714D01*
X196850000Y-82362675D02*
X196850000Y-82362565D01*
X196850000Y-82432385D02*
X196850000Y-82431283D01*
X196850000Y-82355958D02*
X196850000Y-82356399D01*
X196850000Y-81986403D02*
X196850000Y-81985301D01*
X196850000Y-82061723D02*
X196850000Y-82061284D01*
X196850000Y-82352105D02*
X196850000Y-82351995D01*
X196850000Y-81991689D02*
X196850000Y-81991799D01*
X196850000Y-82135224D02*
X196850000Y-82135155D01*
X196850000Y-82533251D02*
X196850000Y-82532977D01*
X196850000Y-81980072D02*
X196850000Y-81981998D01*
X196850000Y-82282525D02*
X196850000Y-82282457D01*
X196850000Y-82406395D02*
X196850000Y-82406121D01*
X196850000Y-82299799D02*
X196850000Y-82300625D01*
X196850000Y-82065688D02*
X196850000Y-82065579D01*
X196850000Y-82461069D02*
X196850000Y-82464041D01*
X196850000Y-82541567D02*
X196850000Y-82542117D01*
X196850000Y-82484138D02*
X196850000Y-82484028D01*
X196850000Y-82117058D02*
X196850000Y-82117883D01*
X196850000Y-82063046D02*
X196850000Y-82063156D01*
X196850000Y-82493827D02*
X196850000Y-82492725D01*
X196850000Y-82070972D02*
X196850000Y-82071853D01*
X196850000Y-82499113D02*
X196850000Y-82499223D01*
X196850000Y-82345830D02*
X196850000Y-82346710D01*
X196850000Y-81955077D02*
X196850000Y-81956233D01*
X196850000Y-82119206D02*
X196850000Y-82122070D01*
X196850000Y-82150313D02*
X196850000Y-82152460D01*
X196850000Y-82124657D02*
X196850000Y-82123390D01*
X196850000Y-82354635D02*
X196850000Y-82354526D01*
X196850000Y-82489422D02*
X196850000Y-82487496D01*
X196850000Y-82440972D02*
X196850000Y-82441081D01*
X196850000Y-82011565D02*
X196850000Y-82011289D01*
D27*
X198339103Y-49195853D02*
G75*
G02*
X199136000Y-51119731I-1923880J-1923880D01*
G01*
X198339103Y-96554895D02*
G75*
G03*
X199136000Y-94631018I-1923875J1923878D01*
G01*
X196312018Y-97455000D02*
G75*
G03*
X198235896Y-96658103I-2J2720777D01*
G01*
D25*
X158259250Y-57455000D02*
G75*
G02*
X158259256Y-57455000I3J-1016286824D01*
G01*
X158288146Y-57455000D02*
G75*
G02*
X158288152Y-57455000I3J-1016286824D01*
G01*
X158267786Y-57455000D02*
G75*
G02*
X158267792Y-57455000I3J-1016286824D01*
G01*
X158239868Y-57455000D02*
G75*
G02*
X158239875Y-57455000I3J-1016286824D01*
G01*
X158224488Y-57455000D02*
G75*
G02*
X158224495Y-57455000I3J-1016286824D01*
G01*
X158222778Y-57455000D02*
G75*
G02*
X158222785Y-57455000I3J-1016286824D01*
G01*
D26*
X158769800Y-57455000D02*
X158785182Y-57455000D01*
D25*
X158289689Y-57455000D02*
X158289798Y-57455000D01*
X158377097Y-57455000D02*
X158373258Y-57455000D01*
X158273791Y-57455000D02*
X158273846Y-57455000D01*
X158232738Y-57455000D02*
X158232754Y-57455000D01*
X158274590Y-57455000D02*
X158274568Y-57455000D01*
X158253177Y-57455000D02*
X158253238Y-57455000D01*
D26*
X158766384Y-57455000D02*
X158758797Y-57455000D01*
X158788598Y-57455000D02*
X158790307Y-57455000D01*
D25*
X158293162Y-57455000D02*
X158293215Y-57455000D01*
X158235846Y-57455000D02*
X158235941Y-57455000D01*
X158252434Y-57455000D02*
X158252457Y-57455000D01*
X158369644Y-57455000D02*
X158370270Y-57455000D01*
X158380101Y-57455000D02*
X158380393Y-57455000D01*
X158222512Y-57455000D02*
X158222500Y-57455000D01*
X158295179Y-57455000D02*
X158295111Y-57455000D01*
X158222778Y-57455000D02*
X158222767Y-57455000D01*
X158274352Y-57455000D02*
X158274058Y-57455000D01*
X158229655Y-57455000D02*
X158229559Y-57455000D01*
X158252669Y-57455000D02*
X158252965Y-57455000D01*
X158293014Y-57455000D02*
X158293058Y-57455000D01*
X158289621Y-57455000D02*
X158289449Y-57455000D01*
X196850000Y-82520973D02*
X196850000Y-82520793D01*
X196850000Y-82521413D02*
X196850000Y-82521619D01*
X196850000Y-82173436D02*
X196850000Y-82164350D01*
X196850000Y-81944505D02*
X196850000Y-81945607D01*
X196850000Y-82175236D02*
X196850000Y-82173872D01*
X196850000Y-82243804D02*
X196850000Y-82242441D01*
X196850000Y-82013987D02*
X196850000Y-82014207D01*
X196850000Y-81946047D02*
X196850000Y-81947107D01*
X196850000Y-82530346D02*
X196850000Y-82530551D01*
X196850000Y-82013368D02*
X196850000Y-82013547D01*
X196850000Y-82530995D02*
X196850000Y-82531174D01*
X196850000Y-82253329D02*
X196850000Y-82244244D01*
X196850000Y-82403476D02*
X196850000Y-82403695D01*
X196850000Y-82404318D02*
X196850000Y-82404139D01*
D27*
X200659999Y-133299106D02*
G75*
G02*
X200175000Y-134470000I-1655902J3D01*
G01*
X200175000Y-134470000D02*
G75*
G02*
X199004106Y-134955000I-1170897J1170903D01*
G01*
X200660000Y-50103731D02*
G75*
G03*
X199863103Y-48179853I-2720777J-2D01*
G01*
X199004106Y-134955000D02*
X189865000Y-134955000D01*
X200660000Y-133299106D02*
X200660000Y-50103731D01*
X199863103Y-48179853D02*
X197485000Y-45801750D01*
X196312018Y-97455000D02*
X189865000Y-97455000D01*
D26*
X198235896Y-96658103D02*
X198339103Y-96554895D01*
D27*
X199136000Y-94631018D02*
X199136000Y-51119731D01*
X198339103Y-49195853D02*
X197485000Y-48341750D01*
D25*
X158267792Y-57455000D02*
X158268799Y-57455000D01*
X158259195Y-57455000D02*
X158258221Y-57455000D01*
X158224495Y-57455000D02*
X158224512Y-57455000D01*
D26*
X159174400Y-57455000D02*
X159203453Y-57455000D01*
D25*
X158287142Y-57455000D02*
X158287125Y-57455000D01*
X158259256Y-57455000D02*
X158259343Y-57455000D01*
X158267731Y-57455000D02*
X158267666Y-57455000D01*
X158225624Y-57455000D02*
X158225607Y-57455000D01*
X158239875Y-57455000D02*
X158239893Y-57455000D01*
D26*
X43434001Y-115585407D02*
G75*
G02*
X43624501Y-115125501I650401J2D01*
G01*
X44084407Y-114935001D02*
G75*
G03*
X43624501Y-115125501I-2J-650401D01*
G01*
X43674000Y-118350000D02*
G75*
G02*
X43434000Y-117770588I579404J579408D01*
G01*
X43674000Y-118350000D02*
G75*
G03*
X44253411Y-118590000I579411J579411D01*
G01*
X44253411Y-118590000D02*
X53340000Y-118590000D01*
X60721306Y-114935000D02*
X44084407Y-114935000D01*
X43434000Y-117770588D02*
X43434000Y-115585407D01*
X62622500Y-115722500D02*
G75*
G03*
X64523693Y-116510000I1901193J1901194D01*
G01*
X62622500Y-115722500D02*
G75*
G03*
X60721306Y-114935000I-1901193J-1901192D01*
G01*
X64523693Y-116510000D02*
X99365000Y-116510000D01*
X60548285Y-120903999D02*
G75*
G02*
X59107001Y-120306999I3J2038291D01*
G01*
X132693441Y-125598863D02*
G75*
G03*
X130769563Y-124801967I-1923876J-1923874D01*
G01*
X134429772Y-127335194D02*
G75*
G03*
X136353650Y-128132091I1923880J1923880D01*
G01*
X105538000Y-120307000D02*
G75*
G02*
X104096714Y-120904000I-1441290J1441297D01*
G01*
X127815070Y-124005070D02*
G75*
G03*
X129738948Y-124801967I1923880J1923880D01*
G01*
X125537385Y-121727385D02*
G75*
G03*
X123613507Y-120930489I-1923876J-1923874D01*
G01*
X108218505Y-120930489D02*
G75*
G02*
X106745244Y-120320244I3J2083511D01*
G01*
X105538000Y-120307000D02*
G75*
G02*
X106732000Y-120307000I597000J-596998D01*
G01*
D25*
X158306019Y-57455000D02*
X158308156Y-57455000D01*
D26*
X106745244Y-120320244D02*
X106732000Y-120307000D01*
X123613507Y-120930489D02*
X108218505Y-120930489D01*
X127815070Y-124005070D02*
X125537385Y-121727385D01*
X129738948Y-124801967D02*
X130769563Y-124801967D01*
X142552602Y-129995621D02*
X151452397Y-129995621D01*
X140358987Y-128928987D02*
G75*
G03*
X138435109Y-128132091I-1923876J-1923874D01*
G01*
X140628724Y-129198724D02*
G75*
G03*
X142552602Y-129995621I1923880J1923880D01*
G01*
X138435109Y-128132091D02*
X136353650Y-128132091D01*
X153376274Y-129198724D02*
G75*
G02*
X151452397Y-129995621I-1923878J1923875D01*
G01*
X140628724Y-129198724D02*
X140358987Y-128928987D01*
X134429772Y-127335194D02*
X132693441Y-125598863D01*
X104096714Y-120904000D02*
X60548285Y-120904000D01*
X59107000Y-120307000D02*
X58510000Y-119710000D01*
D25*
X158643764Y-57455000D02*
G75*
G03*
X158648518Y-57443520I-1J6725D01*
G01*
D26*
X158676235Y-57455000D02*
G75*
G02*
X158648519Y-57443519I1J39196D01*
G01*
X158643764Y-57455000D02*
X158676235Y-57455000D01*
X113545890Y-56642001D02*
G75*
G03*
X111798000Y-57366000I-2J-2471889D01*
G01*
X158160244Y-56955244D02*
G75*
G03*
X156953727Y-56455489I-1206517J-1206519D01*
G01*
X65731665Y-56642000D02*
G75*
G03*
X64089999Y-57321999I-4J-2321659D01*
G01*
X63441112Y-57970887D02*
G75*
G03*
X63410000Y-58046000I75106J-75109D01*
G01*
X111054500Y-58089999D02*
G75*
G02*
X111021211Y-58076211I1J47080D01*
G01*
X111054500Y-58090000D02*
G75*
G02*
X111035000Y-58070500I0J19500D01*
G01*
X111034999Y-58070500D02*
G75*
G02*
X111021211Y-58076211I-8077J1D01*
G01*
X110311000Y-57366000D02*
G75*
G03*
X108563109Y-56642000I-1747890J-1747890D01*
G01*
X152192094Y-56641999D02*
G75*
G03*
X152417233Y-56548744I-3J318401D01*
G01*
X152642372Y-56455489D02*
G75*
G03*
X152417233Y-56548744I-2J-318391D01*
G01*
X111087788Y-58076211D02*
G75*
G02*
X111054500Y-58090000I-33290J33292D01*
G01*
X158716397Y-57455000D02*
X158676235Y-57455000D01*
D25*
X158345752Y-57455000D02*
X158339349Y-57455000D01*
D26*
X120176896Y-62068103D02*
G75*
G02*
X118253018Y-62865000I-1923880J1923880D01*
G01*
X145305398Y-60960000D02*
G75*
G03*
X145492500Y-60882500I-4J264611D01*
G01*
X101647798Y-59182000D02*
G75*
G03*
X101614000Y-59196000I-3J-47788D01*
G01*
X175944500Y-58243500D02*
G75*
G02*
X175144188Y-58575000I-800318J800326D01*
G01*
X55015000Y-59460000D02*
G75*
G03*
X54459730Y-59230000I-555270J-555270D01*
G01*
X145647500Y-58497500D02*
G75*
G03*
X145834601Y-58575000I187102J187102D01*
G01*
X120488103Y-61756896D02*
G75*
G02*
X122411981Y-60960000I1923876J-1923874D01*
G01*
X176276000Y-57912000D02*
X175944500Y-58243500D01*
X175144188Y-58575000D02*
X149937500Y-58575000D01*
X152642372Y-56455489D02*
X156953727Y-56455489D01*
X158648519Y-57443519D02*
X158160244Y-56955244D01*
X152192094Y-56642000D02*
X113545890Y-56642000D01*
X111797999Y-57365999D02*
X111087788Y-58076211D01*
X111035000Y-58070500D02*
X111035000Y-57875000D01*
X111021211Y-58076211D02*
X110311000Y-57366000D01*
X108563109Y-56642000D02*
X65731665Y-56642000D01*
X63441112Y-57970887D02*
X64089999Y-57321999D01*
D25*
X63410000Y-58046000D02*
X63410000Y-58090000D01*
D26*
X54459730Y-59230000D02*
X53360000Y-59230000D01*
X55245000Y-59690000D02*
X55015000Y-59460000D01*
X101614000Y-59196000D02*
X101600000Y-59210000D01*
X103124000Y-59182000D02*
X101647798Y-59182000D01*
X118253018Y-62865000D02*
X102235000Y-62865000D01*
X120176896Y-62068103D02*
X120488103Y-61756896D01*
X122411981Y-60960000D02*
X145305398Y-60960000D01*
X145570000Y-60805000D02*
X145492500Y-60882500D01*
X145570000Y-58420000D02*
X145647500Y-58497500D01*
X145834601Y-58575000D02*
X149832280Y-58575000D01*
D25*
X149866902Y-58575000D02*
X149866930Y-58575000D01*
D26*
X59297500Y-62077500D02*
G75*
G03*
X61198693Y-62865000I1901193J1901194D01*
G01*
X59297500Y-62077500D02*
G75*
G03*
X57396306Y-61290000I-1901193J-1901192D01*
G01*
X63643018Y-62865000D02*
X61198693Y-62865000D01*
X57396306Y-61290000D02*
X55251959Y-61290000D01*
X53900000Y-60730000D02*
G75*
G03*
X55251959Y-61290000I1351962J1351966D01*
G01*
X53900000Y-60730000D02*
X53340000Y-60170000D01*
X65566896Y-62068103D02*
G75*
G02*
X63643018Y-62865000I-1923880J1923880D01*
G01*
X65566896Y-62068103D02*
X66668103Y-60966896D01*
X66668103Y-60966896D02*
G75*
G02*
X68591981Y-60170000I1923876J-1923874D01*
G01*
X100808040Y-60170000D02*
X68591981Y-60170000D01*
X102160000Y-60730000D02*
G75*
G03*
X100808040Y-60170000I-1351960J-1351960D01*
G01*
D25*
X179070000Y-64770000D02*
X177062856Y-62762856D01*
X108184741Y-63500000D02*
X121470269Y-63500000D01*
X125173770Y-61965960D02*
X175138978Y-61965960D01*
X106085000Y-65599741D02*
X106085000Y-66485000D01*
X121470269Y-63499999D02*
G75*
G03*
X123322019Y-62732979I-5J2618784D01*
G01*
X125173770Y-61965960D02*
G75*
G03*
X123322020Y-62732980I0J-2618769D01*
G01*
X175138978Y-61965960D02*
G75*
G02*
X177062856Y-62762856I2J-2720770D01*
G01*
X106085000Y-65599741D02*
G75*
G02*
X106700000Y-64115000I2099738J1D01*
G01*
X108184741Y-63500000D02*
G75*
G03*
X106700000Y-64115000I-1J-2099738D01*
G01*
X125135000Y-64198587D02*
X125135000Y-66485000D01*
X177800000Y-64770000D02*
X176242376Y-63212376D01*
X126918107Y-62415480D02*
X174318498Y-62415480D01*
X125135000Y-64198587D02*
G75*
G02*
X125657260Y-62937740I1783094J5D01*
G01*
X176242376Y-63212376D02*
G75*
G03*
X174318498Y-62415480I-1923876J-1923874D01*
G01*
X126918107Y-62415480D02*
G75*
G03*
X125657260Y-62937740I-5J-1783094D01*
G01*
X175421896Y-63661896D02*
X176530000Y-64770000D01*
X144185000Y-64964741D02*
X144185000Y-66485000D01*
X173498018Y-62865000D02*
X146284741Y-62865000D01*
X146284741Y-62865000D02*
G75*
G03*
X144800000Y-63480000I-1J-2099738D01*
G01*
X144185000Y-64964741D02*
G75*
G02*
X144800000Y-63480000I2099738J1D01*
G01*
X175421896Y-63661896D02*
G75*
G03*
X173498018Y-62865000I-1923876J-1923874D01*
G01*
X163235000Y-65599741D02*
X163235000Y-66485000D01*
X175260000Y-64770000D02*
X174625000Y-64135000D01*
X165334741Y-63500000D02*
X173091974Y-63500000D01*
X163850000Y-64115000D02*
G75*
G02*
X165334741Y-63500000I1484740J-1484738D01*
G01*
X173091974Y-63500000D02*
G75*
G02*
X174625000Y-64135000I-1J-2168028D01*
G01*
X163850000Y-64115000D02*
G75*
G03*
X163235000Y-65599741I1484738J-1484740D01*
G01*
X156683103Y-55083103D02*
X155218838Y-53618838D01*
X194307846Y-82547846D02*
X194308923Y-82546769D01*
X178884012Y-108585000D02*
X179255987Y-108585000D01*
X177961896Y-61121896D02*
X179890987Y-63050987D01*
X177165000Y-57616981D02*
X177165000Y-59198018D01*
X136151161Y-53593838D02*
X134661896Y-55083103D01*
X120506981Y-55880000D02*
X132738018Y-55880000D01*
X158606981Y-55880000D02*
X170838018Y-55880000D01*
X139556981Y-55880000D02*
X151788018Y-55880000D01*
X82406981Y-55880000D02*
X94638018Y-55880000D01*
X80483103Y-55083103D02*
X79018838Y-53618838D01*
X195106896Y-65959853D02*
X197485000Y-63581750D01*
X180340000Y-107500987D02*
X180340000Y-86174012D01*
X98051161Y-53593838D02*
X96561896Y-55083103D01*
X194945000Y-83635535D02*
X194945000Y-84004464D01*
X101456981Y-55880000D02*
X113688018Y-55880000D01*
X174175549Y-53669450D02*
X172761896Y-55083103D01*
X194310000Y-82544168D02*
X194310000Y-67883731D01*
X174344450Y-53669450D02*
X176368103Y-55693103D01*
X117101161Y-53593838D02*
X115611896Y-55083103D01*
X118583103Y-55083103D02*
X117118838Y-53618838D01*
X79010000Y-53597500D02*
X79010000Y-53585000D01*
X177800000Y-107500987D02*
X177800000Y-68436981D01*
X155201161Y-53593838D02*
X153711896Y-55083103D01*
X99533103Y-55083103D02*
X98068838Y-53618838D01*
X178596896Y-66513103D02*
X179890987Y-65219012D01*
X181424012Y-85090000D02*
X194310000Y-85090000D01*
X137633103Y-55083103D02*
X136168838Y-53618838D01*
X194945000Y-83635535D02*
G75*
G03*
X194307846Y-82547846I-1785565J-315498D01*
G01*
X194308923Y-82546769D02*
G75*
G03*
X194310000Y-82544168I-2606J2603D01*
G01*
X155210000Y-53597500D02*
G75*
G03*
X155218838Y-53618838I30167J-4D01*
G01*
X180340001Y-86174012D02*
G75*
G02*
X180657501Y-85407501I1084001J4D01*
G01*
X180340000Y-107500987D02*
G75*
G02*
X180022500Y-108267500I-1084022J4D01*
G01*
X179255987Y-108585000D02*
G75*
G03*
X180022500Y-108267500I-4J1084022D01*
G01*
X156683103Y-55083103D02*
G75*
G03*
X158606981Y-55880000I1923880J1923880D01*
G01*
X181424012Y-85090001D02*
G75*
G03*
X180657501Y-85407501I-4J-1084001D01*
G01*
X117101161Y-53593838D02*
G75*
G02*
X117110000Y-53597500I3661J-3662D01*
G01*
X117101161Y-53593838D02*
G75*
G02*
X117110000Y-53597500I3661J-3662D01*
G01*
X180340000Y-64135000D02*
G75*
G03*
X179890987Y-63050987I-1533027J-1D01*
G01*
X96561896Y-55083103D02*
G75*
G02*
X94638018Y-55880000I-1923880J1923880D01*
G01*
X174175550Y-53669451D02*
G75*
G02*
X174344450Y-53669450I84450J-84448D01*
G01*
X98068838Y-53618838D02*
G75*
G02*
X98060000Y-53597500I21329J21334D01*
G01*
X180340000Y-64135000D02*
G75*
G02*
X179890987Y-65219012I-1533027J2D01*
G01*
X174175550Y-53669451D02*
G75*
G02*
X174344450Y-53669450I84450J-84448D01*
G01*
X136168838Y-53618838D02*
G75*
G02*
X136160000Y-53597500I21329J21334D01*
G01*
X98051161Y-53593838D02*
G75*
G02*
X98060000Y-53597500I3661J-3662D01*
G01*
X136151161Y-53593838D02*
G75*
G02*
X136160000Y-53597500I3661J-3662D01*
G01*
X120506981Y-55880000D02*
G75*
G02*
X118583103Y-55083103I2J2720777D01*
G01*
X178117500Y-108267500D02*
G75*
G03*
X178884012Y-108585000I766513J766513D01*
G01*
X136151161Y-53593838D02*
G75*
G02*
X136160000Y-53597500I3661J-3662D01*
G01*
X134661896Y-55083103D02*
G75*
G02*
X132738018Y-55880000I-1923880J1923880D01*
G01*
X155210000Y-53597500D02*
G75*
G03*
X155201161Y-53593838I-5178J0D01*
G01*
X194945000Y-84002310D02*
G75*
G02*
X194307846Y-85090000I-1785570J315500D01*
G01*
X194945000Y-83635535D02*
G75*
G03*
X194307846Y-82547846I-1785565J-315498D01*
G01*
X153711896Y-55083103D02*
G75*
G02*
X151788018Y-55880000I-1923880J1923880D01*
G01*
X99533103Y-55083103D02*
G75*
G03*
X101456981Y-55880000I1923880J1923880D01*
G01*
X176368103Y-55693103D02*
G75*
G02*
X177165000Y-57616981I-1923880J-1923880D01*
G01*
X80483103Y-55083103D02*
G75*
G03*
X82406981Y-55880000I1923880J1923880D01*
G01*
X172761896Y-55083103D02*
G75*
G02*
X170838018Y-55880000I-1923880J1923880D01*
G01*
X137633103Y-55083103D02*
G75*
G03*
X139556981Y-55880000I1923880J1923880D01*
G01*
X177165000Y-59198018D02*
G75*
G03*
X177961896Y-61121896I2720770J-2D01*
G01*
X117118838Y-53618838D02*
G75*
G02*
X117110000Y-53597500I21329J21334D01*
G01*
X115611896Y-55083103D02*
G75*
G02*
X113688018Y-55880000I-1923880J1923880D01*
G01*
X177800000Y-68436981D02*
G75*
G02*
X178596896Y-66513103I2720770J2D01*
G01*
X155210000Y-53597500D02*
G75*
G03*
X155201161Y-53593838I-5178J0D01*
G01*
X79018838Y-53618838D02*
G75*
G02*
X79010000Y-53597500I21329J21334D01*
G01*
X194945000Y-84002310D02*
G75*
G02*
X194307846Y-85090000I-1785570J315500D01*
G01*
X98051161Y-53593838D02*
G75*
G02*
X98060000Y-53597500I3661J-3662D01*
G01*
X194310000Y-67883731D02*
G75*
G02*
X195106896Y-65959853I2720770J2D01*
G01*
X178117500Y-108267500D02*
G75*
G02*
X177800000Y-107500987I766511J766512D01*
G01*
X139556981Y-74930000D02*
X151788018Y-74930000D01*
X158606981Y-74930000D02*
X170838018Y-74930000D01*
X134661896Y-74133103D02*
X136151161Y-72643838D01*
X98051161Y-72643838D02*
X96561896Y-74133103D01*
X137633103Y-74133103D02*
X136168838Y-72668838D01*
X172761896Y-74133103D02*
X174175549Y-72719450D01*
X75588018Y-74930000D02*
X63356981Y-74930000D01*
X101456981Y-74930000D02*
X113688018Y-74930000D01*
X117101161Y-72643838D02*
X115611896Y-74133103D01*
X120506981Y-74930000D02*
X132738018Y-74930000D01*
X94638018Y-74930000D02*
X82406981Y-74930000D01*
X153711896Y-74133103D02*
X155201161Y-72643838D01*
X156683103Y-74133103D02*
X155218838Y-72668838D01*
X79001161Y-72643838D02*
X77511896Y-74133103D01*
X59960000Y-72647500D02*
X59960000Y-72635000D01*
X98068838Y-72668838D02*
X99533103Y-74133103D01*
X79018838Y-72668838D02*
X80483103Y-74133103D01*
X117118838Y-72668838D02*
X118583103Y-74133103D01*
X59968838Y-72668838D02*
X61433103Y-74133103D01*
X136151162Y-72643839D02*
G75*
G02*
X136168838Y-72643838I8838J-8838D01*
G01*
X59960000Y-72647500D02*
G75*
G03*
X59968838Y-72668838I30167J-4D01*
G01*
X113688018Y-74930000D02*
G75*
G03*
X115611896Y-74133103I-2J2720777D01*
G01*
X77511896Y-74133103D02*
G75*
G02*
X75588018Y-74930000I-1923880J1923880D01*
G01*
X117110000Y-72647500D02*
G75*
G03*
X117118838Y-72668838I30167J-4D01*
G01*
X96561896Y-74133103D02*
G75*
G02*
X94638018Y-74930000I-1923880J1923880D01*
G01*
X132738018Y-74930000D02*
G75*
G03*
X134661896Y-74133103I-2J2720777D01*
G01*
X61433103Y-74133103D02*
G75*
G03*
X63356981Y-74930000I1923880J1923880D01*
G01*
X98060000Y-72647500D02*
G75*
G03*
X98068838Y-72668838I30167J-4D01*
G01*
X155201161Y-72643838D02*
G75*
G02*
X155210000Y-72647500I3661J-3662D01*
G01*
X79010000Y-72647500D02*
G75*
G03*
X79001161Y-72643838I-5178J0D01*
G01*
X98060000Y-72647500D02*
G75*
G03*
X98051161Y-72643838I-5178J0D01*
G01*
X99533103Y-74133103D02*
G75*
G03*
X101456981Y-74930000I1923880J1923880D01*
G01*
X158606981Y-74930000D02*
G75*
G02*
X156683103Y-74133103I2J2720777D01*
G01*
X98060000Y-72647500D02*
G75*
G03*
X98051161Y-72643838I-5178J0D01*
G01*
X79010000Y-72647500D02*
G75*
G03*
X79001161Y-72643838I-5178J0D01*
G01*
X117110000Y-72647500D02*
G75*
G03*
X117101161Y-72643838I-5178J0D01*
G01*
X151788018Y-74930000D02*
G75*
G03*
X153711896Y-74133103I-2J2720777D01*
G01*
X155201161Y-72643838D02*
G75*
G02*
X155210000Y-72647500I3661J-3662D01*
G01*
X139556981Y-74930000D02*
G75*
G02*
X137633103Y-74133103I2J2720777D01*
G01*
X120506981Y-74930000D02*
G75*
G02*
X118583103Y-74133103I2J2720777D01*
G01*
X79010000Y-72647500D02*
G75*
G03*
X79018838Y-72668838I30167J-4D01*
G01*
X136151161Y-72643838D02*
G75*
G02*
X136160000Y-72647500I3661J-3662D01*
G01*
X136168838Y-72668838D02*
G75*
G02*
X136160000Y-72647500I21329J21334D01*
G01*
X117110000Y-72647500D02*
G75*
G03*
X117101161Y-72643838I-5178J0D01*
G01*
X170838018Y-74930000D02*
G75*
G03*
X172761896Y-74133103I-2J2720777D01*
G01*
X80483103Y-74133103D02*
G75*
G03*
X82406981Y-74930000I1923880J1923880D01*
G01*
X155218838Y-72668838D02*
G75*
G02*
X155210000Y-72647500I21329J21334D01*
G01*
X136168838Y-72643838D02*
G75*
G03*
X136160000Y-72647500I-3661J-3661D01*
G01*
X195577846Y-85092154D02*
X195578923Y-85093231D01*
X134661896Y-93183103D02*
X136151161Y-91693838D01*
X196215000Y-84004464D02*
X196215000Y-83635535D01*
X174344450Y-91769450D02*
X175733103Y-93158103D01*
X180525987Y-109855000D02*
X177614012Y-109855000D01*
X195262500Y-86042500D02*
X195357016Y-85947983D01*
X195580000Y-71693731D02*
X195580000Y-82544168D01*
X115611896Y-93183103D02*
X117101161Y-91693838D01*
X139556981Y-93980000D02*
X151788018Y-93980000D01*
X195580000Y-85409654D02*
X195580000Y-85095831D01*
X98068838Y-91718838D02*
X99533103Y-93183103D01*
X153711896Y-93183103D02*
X155201161Y-91693838D01*
X181609846Y-87444779D02*
X181609846Y-107957135D01*
X158606981Y-93980000D02*
X170838018Y-93980000D01*
X195577846Y-82547846D02*
X195578923Y-82546769D01*
X155218838Y-91718838D02*
X156683103Y-93183103D01*
X132738018Y-93980000D02*
X120506981Y-93980000D01*
X118583103Y-93183103D02*
X117118838Y-91718838D01*
X176530000Y-95081981D02*
X176530000Y-108770987D01*
X196376896Y-69769853D02*
X197485000Y-68661750D01*
X94638018Y-93980000D02*
X82406981Y-93980000D01*
X137633103Y-93183103D02*
X136168838Y-91718838D01*
X75588018Y-93980000D02*
X63356981Y-93980000D01*
X172761896Y-93183103D02*
X174175549Y-91769450D01*
X182695167Y-86360000D02*
X194495987Y-86360000D01*
X80483103Y-93183103D02*
X79018838Y-91718838D01*
X61433103Y-93183103D02*
X59968838Y-91718838D01*
X182693858Y-86360767D02*
X182694241Y-86360383D01*
X77511896Y-93183103D02*
X79001161Y-91693838D01*
X96561896Y-93183103D02*
X98051161Y-91693838D01*
X101456981Y-93980000D02*
X113688018Y-93980000D01*
X181610000Y-107957506D02*
X181610000Y-108770987D01*
X98051161Y-91693838D02*
G75*
G02*
X98060000Y-91697500I3661J-3662D01*
G01*
X113688018Y-93980000D02*
G75*
G03*
X115611896Y-93183103I-2J2720777D01*
G01*
X117101162Y-91693839D02*
G75*
G02*
X117118838Y-91693838I8838J-8838D01*
G01*
X155218838Y-91718838D02*
G75*
G02*
X155210000Y-91697500I21329J21334D01*
G01*
X176530001Y-108770987D02*
G75*
G03*
X176847501Y-109537499I1084010J-1D01*
G01*
X155201161Y-91693838D02*
G75*
G02*
X155218838Y-91693838I8838J-8839D01*
G01*
X194495987Y-86360000D02*
G75*
G03*
X195262500Y-86042500I-4J1084022D01*
G01*
X136151161Y-91693838D02*
G75*
G03*
X136147500Y-91685000I-3661J3661D01*
G01*
X59968838Y-91693838D02*
G75*
G03*
X59960000Y-91697500I-3661J-3661D01*
G01*
X99533103Y-93183103D02*
G75*
G03*
X101456981Y-93980000I1923880J1923880D01*
G01*
X117101161Y-91693838D02*
G75*
G02*
X117110000Y-91697500I3661J-3662D01*
G01*
X155201161Y-91693838D02*
G75*
G02*
X155210000Y-91697500I3661J-3662D01*
G01*
X120506981Y-93980000D02*
G75*
G02*
X118583103Y-93183103I2J2720777D01*
G01*
X137633103Y-93183103D02*
G75*
G03*
X139556981Y-93980000I1923880J1923880D01*
G01*
X195580000Y-71693731D02*
G75*
G02*
X196376896Y-69769853I2720770J2D01*
G01*
X79010000Y-91697500D02*
G75*
G02*
X79018838Y-91693838I5177J1D01*
G01*
X77511896Y-93183103D02*
G75*
G02*
X75588018Y-93980000I-1923880J1923880D01*
G01*
X117118838Y-91718838D02*
G75*
G02*
X117110000Y-91697500I21329J21334D01*
G01*
X156683103Y-93183103D02*
G75*
G03*
X158606981Y-93980000I1923880J1923880D01*
G01*
X79018838Y-91718838D02*
G75*
G02*
X79010000Y-91697500I21329J21334D01*
G01*
X117110000Y-91697500D02*
G75*
G02*
X117118838Y-91693838I5177J1D01*
G01*
X59968838Y-91718838D02*
G75*
G02*
X59960000Y-91697500I21329J21334D01*
G01*
X170838018Y-93980000D02*
G75*
G03*
X172761896Y-93183103I-2J2720777D01*
G01*
X195580000Y-85095831D02*
G75*
G03*
X195578923Y-85093231I-3674J1D01*
G01*
X63356981Y-93980000D02*
G75*
G02*
X61433103Y-93183103I2J2720777D01*
G01*
X136168838Y-91718838D02*
G75*
G02*
X136160000Y-91697500I21329J21334D01*
G01*
X182693858Y-86360768D02*
G75*
G03*
X181927347Y-86678268I-4J-1084001D01*
G01*
X181927346Y-86678267D02*
G75*
G03*
X181609846Y-87444779I766502J-766508D01*
G01*
X79001161Y-91693838D02*
G75*
G02*
X79018838Y-91693838I8838J-8839D01*
G01*
X98068838Y-91718838D02*
G75*
G02*
X98060000Y-91697500I21329J21334D01*
G01*
X98051161Y-91693838D02*
G75*
G02*
X98060000Y-91697500I3661J-3662D01*
G01*
X181609847Y-107957135D02*
G75*
G03*
X181609924Y-107957320I265J1D01*
G01*
X79001161Y-91693838D02*
G75*
G02*
X79010000Y-91697500I3661J-3662D01*
G01*
X195578923Y-82546769D02*
G75*
G03*
X195580000Y-82544168I-2606J2603D01*
G01*
X181610000Y-108770987D02*
G75*
G02*
X181292500Y-109537500I-1084022J4D01*
G01*
X196215000Y-83635535D02*
G75*
G03*
X195577846Y-82547846I-1785565J-315498D01*
G01*
X96561896Y-93183103D02*
G75*
G02*
X94638018Y-93980000I-1923880J1923880D01*
G01*
X151788018Y-93980000D02*
G75*
G03*
X153711896Y-93183103I-2J2720777D01*
G01*
X174175550Y-91769451D02*
G75*
G02*
X174344450Y-91769450I84450J-84448D01*
G01*
X82406981Y-93980000D02*
G75*
G02*
X80483103Y-93183103I2J2720777D01*
G01*
X181292500Y-109537500D02*
G75*
G02*
X180525987Y-109855000I-766517J766522D01*
G01*
X177614012Y-109855000D02*
G75*
G02*
X176847500Y-109537500I1J1084013D01*
G01*
X136151161Y-91693838D02*
G75*
G02*
X136160000Y-91697500I3661J-3662D01*
G01*
X195357016Y-85947983D02*
G75*
G03*
X195580000Y-85409654I-538333J538332D01*
G01*
X155218838Y-91693838D02*
G75*
G03*
X155210000Y-91697500I-3661J-3661D01*
G01*
X136160000Y-91697500D02*
G75*
G02*
X136168838Y-91693838I5177J1D01*
G01*
X176530000Y-95081981D02*
G75*
G03*
X175733103Y-93158103I-2720777J-2D01*
G01*
X195577846Y-85092154D02*
G75*
G03*
X196215000Y-84004464I-1148416J1403190D01*
G01*
X182694241Y-86360383D02*
G75*
G02*
X182695167Y-86360000I924J-922D01*
G01*
X132738018Y-93980000D02*
G75*
G03*
X134661896Y-93183103I-2J2720777D01*
G01*
X174175550Y-91769451D02*
G75*
G02*
X174344450Y-91769450I84450J-84448D01*
G01*
X136147500Y-91685000D02*
G75*
G02*
X136168838Y-91693838I4J-30167D01*
G01*
X181609999Y-107957506D02*
G75*
G03*
X181609922Y-107957322I-272J-5D01*
G01*
X61433103Y-112233103D02*
X59968838Y-110768838D01*
X183329702Y-86995537D02*
X183329165Y-86996074D01*
X196852154Y-83635535D02*
X196852154Y-84004464D01*
X59960000Y-110747500D02*
X59960000Y-110735000D01*
X82406981Y-113030000D02*
X94638018Y-113030000D01*
X118583103Y-112233103D02*
X117118838Y-110768838D01*
X101456981Y-113030000D02*
X113688018Y-113030000D01*
X137633103Y-112233103D02*
X136168838Y-110768838D01*
X196850000Y-71836750D02*
X197485000Y-71201750D01*
X156683103Y-112233103D02*
X155218838Y-110768838D01*
X120506981Y-113030000D02*
X132738018Y-113030000D01*
X136151161Y-110743838D02*
X134661896Y-112233103D01*
X183330998Y-86995000D02*
X195130987Y-86995000D01*
X182245000Y-109232746D02*
X182245000Y-88080347D01*
X196215000Y-82547846D02*
X196215000Y-73369775D01*
X182245076Y-88080162D02*
X182245153Y-88080086D01*
X155201161Y-110743838D02*
X153711896Y-112233103D01*
X170838018Y-113030000D02*
X158606981Y-113030000D01*
X180742746Y-110735000D02*
X175386981Y-110735000D01*
X139556981Y-113030000D02*
X151788018Y-113030000D01*
X173463103Y-111531896D02*
X172761896Y-112233103D01*
X63356981Y-113030000D02*
X75588018Y-113030000D01*
X196215000Y-85092154D02*
X196215000Y-85910987D01*
X98051161Y-110743838D02*
X96561896Y-112233103D01*
X79001161Y-110743838D02*
X77511896Y-112233103D01*
X99533103Y-112233103D02*
X98068838Y-110768838D01*
X117101161Y-110743838D02*
X115611896Y-112233103D01*
X80483103Y-112233103D02*
X79018838Y-110768838D01*
X196215000Y-85910987D02*
G75*
G02*
X195897500Y-86677500I-1084022J4D01*
G01*
X80483103Y-112233103D02*
G75*
G03*
X82406981Y-113030000I1923880J1923880D01*
G01*
X183329165Y-86996075D02*
G75*
G03*
X182562654Y-87313575I-4J-1084001D01*
G01*
X61433103Y-112233103D02*
G75*
G03*
X63356981Y-113030000I1923880J1923880D01*
G01*
X181805000Y-110295000D02*
G75*
G02*
X180742746Y-110735000I-1062259J1062266D01*
G01*
X182245076Y-88080162D02*
G75*
G03*
X182245000Y-88080347I179J-182D01*
G01*
X79018838Y-110768838D02*
G75*
G02*
X79010000Y-110747500I21329J21334D01*
G01*
X137633103Y-112233103D02*
G75*
G03*
X139556981Y-113030000I1923880J1923880D01*
G01*
X183329702Y-86995537D02*
G75*
G02*
X183330998Y-86995000I1292J-1286D01*
G01*
X158606981Y-113030000D02*
G75*
G02*
X156683103Y-112233103I2J2720777D01*
G01*
X196852154Y-83635535D02*
G75*
G03*
X196215000Y-82547846I-1785565J-315498D01*
G01*
X175386981Y-110735000D02*
G75*
G03*
X173463103Y-111531896I-2J-2720770D01*
G01*
X182245154Y-88080086D02*
G75*
G02*
X182562654Y-87313575I1084001J4D01*
G01*
X59968838Y-110768838D02*
G75*
G02*
X59960000Y-110747500I21329J21334D01*
G01*
X96561896Y-112233103D02*
G75*
G02*
X94638018Y-113030000I-1923880J1923880D01*
G01*
X155218838Y-110768838D02*
G75*
G02*
X155210000Y-110747500I21329J21334D01*
G01*
X196852154Y-84004464D02*
G75*
G02*
X196215000Y-85092154I-1785570J315500D01*
G01*
X79001161Y-110743838D02*
G75*
G02*
X79010000Y-110747500I3661J-3662D01*
G01*
X99533103Y-112233103D02*
G75*
G03*
X101456981Y-113030000I1923880J1923880D01*
G01*
X195130987Y-86995000D02*
G75*
G03*
X195897500Y-86677500I-4J1084022D01*
G01*
X136151161Y-110743838D02*
G75*
G02*
X136160000Y-110747500I3661J-3662D01*
G01*
X155201161Y-110743838D02*
G75*
G02*
X155210000Y-110747500I3661J-3662D01*
G01*
X118583103Y-112233103D02*
G75*
G03*
X120506981Y-113030000I1923880J1923880D01*
G01*
X181805000Y-110295000D02*
G75*
G03*
X182245000Y-109232746I-1062266J1062259D01*
G01*
X117118838Y-110768838D02*
G75*
G02*
X117110000Y-110747500I21329J21334D01*
G01*
X134661896Y-112233103D02*
G75*
G02*
X132738018Y-113030000I-1923880J1923880D01*
G01*
X196215000Y-73369775D02*
G75*
G02*
X196850000Y-71836750I2168019J2D01*
G01*
X117101161Y-110743838D02*
G75*
G02*
X117110000Y-110747500I3661J-3662D01*
G01*
X136168838Y-110768838D02*
G75*
G02*
X136160000Y-110747500I21329J21334D01*
G01*
X172761896Y-112233103D02*
G75*
G02*
X170838018Y-113030000I-1923880J1923880D01*
G01*
X77511896Y-112233103D02*
G75*
G02*
X75588018Y-113030000I-1923880J1923880D01*
G01*
X153711896Y-112233103D02*
G75*
G02*
X151788018Y-113030000I-1923880J1923880D01*
G01*
X115611896Y-112233103D02*
G75*
G02*
X113688018Y-113030000I-1923880J1923880D01*
G01*
X98068838Y-110768838D02*
G75*
G02*
X98060000Y-110747500I21329J21334D01*
G01*
X98051161Y-110743838D02*
G75*
G02*
X98060000Y-110747500I3661J-3662D01*
G01*
X196850000Y-75379012D02*
X196850000Y-81465325D01*
X197289396Y-74490603D02*
X197167500Y-74612500D01*
X120506981Y-132080000D02*
X132738018Y-132080000D01*
X158606981Y-132080000D02*
X170838018Y-132080000D01*
X196847846Y-85092154D02*
X196848923Y-85093231D01*
X151788018Y-132080000D02*
X139556981Y-132080000D01*
X196850000Y-86545987D02*
X196850000Y-85095831D01*
X79018838Y-129818838D02*
X80483103Y-131283103D01*
X115611896Y-131283103D02*
X117101161Y-129793838D01*
X96561896Y-131283103D02*
X98051161Y-129793838D01*
X77511896Y-131283103D02*
X79001161Y-129793838D01*
X136168838Y-129818838D02*
X137633103Y-131283103D01*
X196850000Y-82547114D02*
X196850000Y-82547128D01*
X98068838Y-129818838D02*
X99533103Y-131283103D01*
X183964472Y-87631381D02*
X183965162Y-87630690D01*
X195765987Y-87630000D02*
X183966829Y-87630000D01*
X153711896Y-131283103D02*
X155201161Y-129793838D01*
X172761896Y-131283103D02*
X174260000Y-129785000D01*
X59960000Y-129797500D02*
X59960000Y-129785000D01*
X155218838Y-129818838D02*
X156683103Y-131283103D01*
X181403352Y-129770000D02*
X174260000Y-129770000D01*
X59968838Y-129818838D02*
X61433103Y-131283103D01*
X101456981Y-132080000D02*
X113688018Y-132080000D01*
X182880000Y-128293352D02*
X182880230Y-128293122D01*
X75588018Y-132080000D02*
X63356981Y-132080000D01*
X117118838Y-129818838D02*
X118583103Y-131283103D01*
X197485000Y-83635535D02*
X197485000Y-84004464D01*
X196850000Y-81771887D02*
X196850000Y-81535795D01*
X136151161Y-129793838D02*
X134661896Y-131283103D01*
X182880460Y-88715393D02*
X182880460Y-128292566D01*
X94638018Y-132080000D02*
X82406981Y-132080000D01*
X59960000Y-129797500D02*
G75*
G03*
X59968838Y-129818838I30167J-4D01*
G01*
X136168838Y-129818838D02*
G75*
G02*
X136160000Y-129797500I21329J21334D01*
G01*
X101456981Y-132080000D02*
G75*
G02*
X99533103Y-131283103I2J2720777D01*
G01*
X158606981Y-132080000D02*
G75*
G02*
X156683103Y-131283103I2J2720777D01*
G01*
X98060000Y-129797500D02*
G75*
G03*
X98051161Y-129793838I-5178J0D01*
G01*
X151788018Y-132080000D02*
G75*
G03*
X153711896Y-131283103I-2J2720777D01*
G01*
X182880000Y-128293352D02*
G75*
G02*
X182447500Y-129337500I-1476663J6D01*
G01*
X113688018Y-132080000D02*
G75*
G03*
X115611896Y-131283103I-2J2720777D01*
G01*
X196532500Y-87312500D02*
G75*
G02*
X195765987Y-87630000I-766517J766522D01*
G01*
X137633103Y-131283103D02*
G75*
G03*
X139556981Y-132080000I1923880J1923880D01*
G01*
X197485000Y-84004464D02*
G75*
G02*
X196847846Y-85092154I-1785570J315500D01*
G01*
X118583103Y-131283103D02*
G75*
G03*
X120506981Y-132080000I1923880J1923880D01*
G01*
X80483103Y-131283103D02*
G75*
G03*
X82406981Y-132080000I1923880J1923880D01*
G01*
X182880461Y-88715393D02*
G75*
G02*
X183197961Y-87948882I1084001J4D01*
G01*
X155210000Y-129797500D02*
G75*
G03*
X155201161Y-129793838I-5178J0D01*
G01*
X136160000Y-129797500D02*
G75*
G03*
X136151161Y-129793838I-5178J0D01*
G01*
X63356981Y-132080000D02*
G75*
G02*
X61433103Y-131283103I2J2720777D01*
G01*
X170838018Y-132080000D02*
G75*
G03*
X172761896Y-131283103I-2J2720777D01*
G01*
X77511896Y-131283103D02*
G75*
G02*
X75588018Y-132080000I-1923880J1923880D01*
G01*
X197167500Y-74612500D02*
G75*
G03*
X196850000Y-75379012I766502J-766508D01*
G01*
X79001161Y-129793838D02*
G75*
G02*
X79010000Y-129797500I3661J-3662D01*
G01*
X182880460Y-128292566D02*
G75*
G02*
X182880230Y-128293122I-789J1D01*
G01*
X181403352Y-129770000D02*
G75*
G03*
X182447500Y-129337500I-6J1476663D01*
G01*
X196850000Y-85095831D02*
G75*
G03*
X196848923Y-85093231I-3674J1D01*
G01*
X183965162Y-87630690D02*
G75*
G02*
X183966829Y-87630000I1666J-1666D01*
G01*
X117110000Y-129797500D02*
G75*
G03*
X117118838Y-129818838I30167J-4D01*
G01*
X197484999Y-74018375D02*
G75*
G02*
X197289395Y-74490602I-667831J1D01*
G01*
X155210000Y-129797500D02*
G75*
G03*
X155218838Y-129818838I30167J-4D01*
G01*
X98060000Y-129797500D02*
G75*
G03*
X98068838Y-129818838I30167J-4D01*
G01*
X196532500Y-87312500D02*
G75*
G03*
X196850000Y-86545987I-766522J766517D01*
G01*
X132738018Y-132080000D02*
G75*
G03*
X134661896Y-131283103I-2J2720777D01*
G01*
X79018838Y-129818838D02*
G75*
G02*
X79010000Y-129797500I21329J21334D01*
G01*
X94638018Y-132080000D02*
G75*
G03*
X96561896Y-131283103I-2J2720777D01*
G01*
X196847846Y-82547846D02*
G75*
G02*
X197485000Y-83635535I-1148411J-1403187D01*
G01*
X117110000Y-129797500D02*
G75*
G03*
X117101161Y-129793838I-5178J0D01*
G01*
X183964472Y-87631382D02*
G75*
G03*
X183197961Y-87948882I-4J-1084001D01*
G01*
X78455190Y-46935000D02*
X72985000Y-46935000D01*
X79010000Y-49892500D02*
X79010000Y-47489809D01*
X79009999Y-47489809D02*
G75*
G03*
X78847499Y-47097501I-554815J-3D01*
G01*
X78455190Y-46935001D02*
G75*
G02*
X78847499Y-47097501I1J-554808D01*
G01*
X78617500Y-50285000D02*
G75*
G03*
X79010000Y-49892500I-1J392501D01*
G01*
X98060000Y-47489809D02*
X98060000Y-50285000D01*
X97505190Y-46935000D02*
X92035000Y-46935000D01*
X97897500Y-47097500D02*
G75*
G03*
X97505190Y-46935000I-392309J-392309D01*
G01*
X97897500Y-47097500D02*
G75*
G02*
X98060000Y-47489809I-392316J-392312D01*
G01*
X116555190Y-46935000D02*
X111085000Y-46935000D01*
X117110000Y-47489809D02*
X117110000Y-50285000D01*
X116555190Y-46935001D02*
G75*
G02*
X116947499Y-47097501I1J-554808D01*
G01*
X117109999Y-47489809D02*
G75*
G03*
X116947499Y-47097501I-554815J-3D01*
G01*
X135605190Y-46935000D02*
X130135000Y-46935000D01*
X136160000Y-47489809D02*
X136160000Y-50285000D01*
X135997500Y-47097500D02*
G75*
G02*
X136160000Y-47489809I-392316J-392312D01*
G01*
X135997500Y-47097500D02*
G75*
G03*
X135605190Y-46935000I-392309J-392309D01*
G01*
X154655190Y-46935000D02*
X149185000Y-46935000D01*
X155210000Y-47489809D02*
X155210000Y-50285000D01*
X154655190Y-46935001D02*
G75*
G02*
X155047499Y-47097501I1J-554808D01*
G01*
X155209999Y-47489809D02*
G75*
G03*
X155047499Y-47097501I-554815J-3D01*
G01*
X173705190Y-46935000D02*
X168235000Y-46935000D01*
X174260000Y-47489809D02*
X174260000Y-50285000D01*
X173705190Y-46935001D02*
G75*
G02*
X174097499Y-47097501I1J-554808D01*
G01*
X174259999Y-47489809D02*
G75*
G03*
X174097499Y-47097501I-554815J-3D01*
G01*
X59405190Y-65985000D02*
X53935000Y-65985000D01*
X59960000Y-66539809D02*
X59960000Y-69335000D01*
X59959999Y-66539809D02*
G75*
G03*
X59797499Y-66147501I-554815J-3D01*
G01*
X59405190Y-65985001D02*
G75*
G02*
X59797499Y-66147501I1J-554808D01*
G01*
X79010000Y-66539809D02*
X79010000Y-69335000D01*
X78455190Y-65985000D02*
X72985000Y-65985000D01*
X78847500Y-66147500D02*
G75*
G03*
X78455190Y-65985000I-392309J-392309D01*
G01*
X78847500Y-66147500D02*
G75*
G02*
X79010000Y-66539809I-392316J-392312D01*
G01*
X98060000Y-66539809D02*
X98060000Y-69335000D01*
X97505190Y-65985000D02*
X92035000Y-65985000D01*
X98059999Y-66539809D02*
G75*
G03*
X97897499Y-66147501I-554815J-3D01*
G01*
X97505190Y-65985001D02*
G75*
G02*
X97897499Y-66147501I1J-554808D01*
G01*
X116555190Y-65985000D02*
X111085000Y-65985000D01*
X117110000Y-66539809D02*
X117110000Y-69335000D01*
X116947500Y-66147500D02*
G75*
G03*
X116555190Y-65985000I-392309J-392309D01*
G01*
X116947500Y-66147500D02*
G75*
G02*
X117110000Y-66539809I-392316J-392312D01*
G01*
X135605190Y-65985000D02*
X130135000Y-65985000D01*
X136160000Y-66539809D02*
X136160000Y-69335000D01*
X136159999Y-66539809D02*
G75*
G03*
X135997499Y-66147501I-554815J-3D01*
G01*
X135605190Y-65985001D02*
G75*
G02*
X135997499Y-66147501I1J-554808D01*
G01*
X154655190Y-65985000D02*
X149185000Y-65985000D01*
X155210000Y-66539809D02*
X155210000Y-69335000D01*
X155047500Y-66147500D02*
G75*
G03*
X154655190Y-65985000I-392309J-392309D01*
G01*
X155047500Y-66147500D02*
G75*
G02*
X155210000Y-66539809I-392316J-392312D01*
G01*
X173705190Y-65985000D02*
X168235000Y-65985000D01*
X174260000Y-66539809D02*
X174260000Y-69335000D01*
X173705190Y-65985001D02*
G75*
G02*
X174097499Y-66147501I1J-554808D01*
G01*
X174259999Y-66539809D02*
G75*
G03*
X174097499Y-66147501I-554815J-3D01*
G01*
X59405190Y-85035000D02*
X53935000Y-85035000D01*
X59960000Y-85589809D02*
X59960000Y-88385000D01*
X59797500Y-85197500D02*
G75*
G03*
X59405190Y-85035000I-392309J-392309D01*
G01*
X59797500Y-85197500D02*
G75*
G02*
X59960000Y-85589809I-392316J-392312D01*
G01*
X78455190Y-85035000D02*
X72985000Y-85035000D01*
X79010000Y-85589809D02*
X79010000Y-88385000D01*
X79009999Y-85589809D02*
G75*
G03*
X78847499Y-85197501I-554815J-3D01*
G01*
X78455190Y-85035001D02*
G75*
G02*
X78847499Y-85197501I1J-554808D01*
G01*
X97505190Y-85035000D02*
X92035000Y-85035000D01*
X98060000Y-85589809D02*
X98060000Y-88385000D01*
X97897500Y-85197500D02*
G75*
G02*
X98060000Y-85589809I-392316J-392312D01*
G01*
X97897500Y-85197500D02*
G75*
G03*
X97505190Y-85035000I-392309J-392309D01*
G01*
X117110000Y-85589809D02*
X117110000Y-88385000D01*
X116555190Y-85035000D02*
X111085000Y-85035000D01*
X116555190Y-85035001D02*
G75*
G02*
X116947499Y-85197501I1J-554808D01*
G01*
X117109999Y-85589809D02*
G75*
G03*
X116947499Y-85197501I-554815J-3D01*
G01*
X136160000Y-85589809D02*
X136160000Y-88385000D01*
X135605190Y-85035000D02*
X130135000Y-85035000D01*
X135997500Y-85197500D02*
G75*
G02*
X136160000Y-85589809I-392316J-392312D01*
G01*
X135997500Y-85197500D02*
G75*
G03*
X135605190Y-85035000I-392309J-392309D01*
G01*
X154655190Y-85035000D02*
X149185000Y-85035000D01*
X155210000Y-85589809D02*
X155210000Y-88385000D01*
X154655190Y-85035001D02*
G75*
G02*
X155047499Y-85197501I1J-554808D01*
G01*
X155209999Y-85589809D02*
G75*
G03*
X155047499Y-85197501I-554815J-3D01*
G01*
X173705190Y-85035000D02*
X168235000Y-85035000D01*
X174260000Y-85589809D02*
X174260000Y-88385000D01*
X174097500Y-85197500D02*
G75*
G02*
X174260000Y-85589809I-392316J-392312D01*
G01*
X174097500Y-85197500D02*
G75*
G03*
X173705190Y-85035000I-392309J-392309D01*
G01*
X59405190Y-104085000D02*
X53935000Y-104085000D01*
X59960000Y-104639809D02*
X59960000Y-107435000D01*
X59959999Y-104639809D02*
G75*
G03*
X59797499Y-104247501I-554815J-3D01*
G01*
X59405190Y-104085001D02*
G75*
G02*
X59797499Y-104247501I1J-554808D01*
G01*
X78455190Y-104085000D02*
X72985000Y-104085000D01*
X79010000Y-104639809D02*
X79010000Y-107435000D01*
X78847500Y-104247500D02*
G75*
G03*
X78455190Y-104085000I-392309J-392309D01*
G01*
X78847500Y-104247500D02*
G75*
G02*
X79010000Y-104639809I-392316J-392312D01*
G01*
X98060000Y-104639809D02*
X98060000Y-107435000D01*
X97505190Y-104085000D02*
X92035000Y-104085000D01*
X98059999Y-104639809D02*
G75*
G03*
X97897499Y-104247501I-554815J-3D01*
G01*
X97505190Y-104085001D02*
G75*
G02*
X97897499Y-104247501I1J-554808D01*
G01*
X117110000Y-104639809D02*
X117110000Y-107435000D01*
X116555190Y-104085000D02*
X111085000Y-104085000D01*
X116947500Y-104247500D02*
G75*
G03*
X116555190Y-104085000I-392309J-392309D01*
G01*
X116947500Y-104247500D02*
G75*
G02*
X117110000Y-104639809I-392316J-392312D01*
G01*
X136160000Y-104639809D02*
X136160000Y-107435000D01*
X135605190Y-104085000D02*
X130720786Y-104085000D01*
X135605190Y-104085001D02*
G75*
G02*
X135997499Y-104247501I1J-554808D01*
G01*
X136159999Y-104639809D02*
G75*
G03*
X135997499Y-104247501I-554815J-3D01*
G01*
X155210000Y-104639809D02*
X155210000Y-107435000D01*
X154655190Y-104085000D02*
X149185000Y-104085000D01*
X155047500Y-104247500D02*
G75*
G02*
X155210000Y-104639809I-392316J-392312D01*
G01*
X155047500Y-104247500D02*
G75*
G03*
X154655190Y-104085000I-392309J-392309D01*
G01*
X174260000Y-104639809D02*
X174260000Y-107435000D01*
X173705190Y-104085000D02*
X168235000Y-104085000D01*
X174259999Y-104639809D02*
G75*
G03*
X174097499Y-104247501I-554815J-3D01*
G01*
X173705190Y-104085001D02*
G75*
G02*
X174097499Y-104247501I1J-554808D01*
G01*
X59405190Y-123135000D02*
X53935000Y-123135000D01*
X59960000Y-123689809D02*
X59960000Y-126485000D01*
X59959999Y-123689809D02*
G75*
G03*
X59797499Y-123297501I-554815J-3D01*
G01*
X59797500Y-123297500D02*
G75*
G03*
X59405190Y-123135000I-392309J-392309D01*
G01*
X79010000Y-123650918D02*
X79010000Y-126485000D01*
X73012500Y-123162500D02*
X72985000Y-123135000D01*
X78549081Y-123190000D02*
X73078890Y-123190000D01*
X73012500Y-123162500D02*
G75*
G03*
X73078890Y-123190000I66395J66400D01*
G01*
X78875000Y-123325000D02*
G75*
G03*
X78549081Y-123190000I-325917J-325916D01*
G01*
X78875000Y-123325000D02*
G75*
G02*
X79010000Y-123650918I-325922J-325920D01*
G01*
X97505190Y-123135000D02*
X92035000Y-123135000D01*
X98060000Y-123689809D02*
X98060000Y-126485000D01*
X97897500Y-123297500D02*
G75*
G02*
X98060000Y-123689809I-392316J-392312D01*
G01*
X97897500Y-123297500D02*
G75*
G03*
X97505190Y-123135000I-392309J-392309D01*
G01*
X117110000Y-123689809D02*
X117110000Y-126485000D01*
X116555190Y-123135000D02*
X111085000Y-123135000D01*
X116555190Y-123135001D02*
G75*
G02*
X116947499Y-123297501I1J-554808D01*
G01*
X117109999Y-123689809D02*
G75*
G03*
X116947499Y-123297501I-554815J-3D01*
G01*
X155210000Y-123689809D02*
X155210000Y-126485000D01*
X154655190Y-123135000D02*
X149185000Y-123135000D01*
X155209999Y-123689809D02*
G75*
G03*
X155047499Y-123297501I-554815J-3D01*
G01*
X154655190Y-123135001D02*
G75*
G02*
X155047499Y-123297501I1J-554808D01*
G01*
X136160000Y-124123414D02*
X136160000Y-126490000D01*
X135171585Y-123135000D02*
X130135000Y-123135000D01*
X135171585Y-123135001D02*
G75*
G02*
X135870499Y-123424501I3J-988408D01*
G01*
X136160000Y-124123414D02*
G75*
G03*
X135870500Y-123424500I-988415J-1D01*
G01*
X174260000Y-124123414D02*
X174260000Y-126500000D01*
X173271585Y-123135000D02*
X168235000Y-123135000D01*
X173970500Y-123424500D02*
G75*
G02*
X174260000Y-124123414I-698915J-698915D01*
G01*
X173271585Y-123135001D02*
G75*
G02*
X173970499Y-123424501I3J-988408D01*
G01*
X117475000Y-58420000D02*
X117957500Y-57937500D01*
X119122358Y-57455000D02*
X153760000Y-57455000D01*
X111598345Y-60960000D02*
X115755987Y-60960000D01*
X116840000Y-60325000D02*
X116522500Y-60642500D01*
X111200000Y-61125000D02*
X111035000Y-61290000D01*
X116522500Y-60642500D02*
G75*
G02*
X115755987Y-60960000I-766517J766522D01*
G01*
X111200000Y-61125000D02*
G75*
G02*
X111598345Y-60960000I398344J-398342D01*
G01*
X117957500Y-57937500D02*
G75*
G02*
X119122358Y-57455000I1164854J-1164849D01*
G01*
X173612641Y-60655000D02*
X158660000Y-60655000D01*
X175260000Y-59690000D02*
X174777500Y-60172500D01*
X174777500Y-60172500D02*
G75*
G02*
X173612641Y-60655000I-1164861J1164865D01*
G01*
X67736981Y-58090000D02*
X106135000Y-58090000D01*
X65813103Y-58886896D02*
X63410000Y-61290000D01*
X65813103Y-58886896D02*
G75*
G02*
X67736981Y-58090000I1923876J-1923874D01*
G01*
X44970667Y-116510000D02*
X58510000Y-116510000D01*
X44672744Y-58832255D02*
X44450000Y-59055000D01*
X58252260Y-58347740D02*
X58510000Y-58090000D01*
X52970708Y-58609511D02*
X45210497Y-58609511D01*
X52980440Y-58605480D02*
X57630020Y-58605480D01*
X44450000Y-116205000D02*
X44602500Y-116357500D01*
X44602500Y-116357500D02*
G75*
G03*
X44970667Y-116510000I368169J368170D01*
G01*
X57630020Y-58605479D02*
G75*
G03*
X58252259Y-58347739I-4J879990D01*
G01*
X45210497Y-58609512D02*
G75*
G03*
X44672745Y-58832256I-2J-760494D01*
G01*
X52975574Y-58607495D02*
G75*
G02*
X52970708Y-58609511I-4867J4868D01*
G01*
X52975574Y-58607495D02*
G75*
G02*
X52980440Y-58605480I4862J-4857D01*
G01*
D26*
X106015000Y-61290000D02*
X103511959Y-61290000D01*
X107093103Y-60331896D02*
X106219852Y-61205147D01*
D25*
X106015000Y-61290000D02*
X106255000Y-61290000D01*
D26*
X149068040Y-59535000D02*
X109016981Y-59535000D01*
X151771959Y-60655000D02*
X153760000Y-60655000D01*
D25*
X106015000Y-61289999D02*
G75*
G03*
X106219851Y-61205146I-2J289708D01*
G01*
D26*
X103511959Y-61289999D02*
G75*
G02*
X102160001Y-60729999I3J1911965D01*
G01*
D25*
X106255000Y-61290000D02*
G75*
G02*
X106219852Y-61205147I0J49706D01*
G01*
D26*
X109016981Y-59535000D02*
G75*
G03*
X107093103Y-60331896I-2J-2720770D01*
G01*
X150420000Y-60095000D02*
G75*
G03*
X149068040Y-59535000I-1351960J-1351960D01*
G01*
X150420000Y-60095000D02*
G75*
G03*
X151771959Y-60655000I1351962J1351966D01*
G01*
D25*
X103553619Y-119710000D02*
X63410000Y-119710000D01*
X108420000Y-116675000D02*
X108585000Y-116840000D01*
X105883336Y-118745000D02*
X108585000Y-118745000D01*
X108021654Y-116510000D02*
X106135000Y-116510000D01*
X108021654Y-116510000D02*
G75*
G02*
X108420000Y-116675000I0J-563347D01*
G01*
X104718478Y-119227500D02*
G75*
G02*
X105883336Y-118745000I1164854J-1164849D01*
G01*
X104718478Y-119227500D02*
G75*
G02*
X103553619Y-119710000I-1164861J1164865D01*
G01*
X147002500Y-120332500D02*
X147320000Y-120650000D01*
X149674012Y-116019012D02*
X149695000Y-116040000D01*
X127049613Y-118743679D02*
X128004719Y-118743679D01*
X146235987Y-120015000D02*
X131073959Y-120015000D01*
X124716707Y-119710000D02*
X111035000Y-119710000D01*
X150829680Y-116510000D02*
X153760000Y-116510000D01*
X147955000Y-115570000D02*
X148590000Y-115570000D01*
X129539339Y-119379339D02*
G75*
G03*
X128004719Y-118743679I-1534618J-1534616D01*
G01*
X124716707Y-119709999D02*
G75*
G03*
X125883159Y-119226838I-2J1649617D01*
G01*
X148590000Y-115570001D02*
G75*
G02*
X149674011Y-116019013I2J-1533020D01*
G01*
X125883160Y-119226839D02*
G75*
G02*
X127049613Y-118743679I1166452J-1166452D01*
G01*
X129539339Y-119379339D02*
G75*
G03*
X131073959Y-120015000I1534619J1534616D01*
G01*
X147002500Y-120332500D02*
G75*
G03*
X146235987Y-120015000I-766512J-766511D01*
G01*
X149695000Y-116040000D02*
G75*
G03*
X150829680Y-116510000I1134683J1134688D01*
G01*
D26*
X143996306Y-116510000D02*
X111699680Y-116510000D01*
X109430319Y-115570000D02*
X102870000Y-115570000D01*
X146460493Y-115159506D02*
X146909506Y-114710493D01*
X157729626Y-114300000D02*
X147769012Y-114300000D01*
X158660000Y-115230373D02*
X158660000Y-116510000D01*
D25*
X146685000Y-114300000D02*
X146685000Y-114617500D01*
D26*
X149542500Y-120332500D02*
X149860000Y-120650000D01*
X146909506Y-114710493D02*
X147002499Y-114617499D01*
D25*
X102792500Y-118667500D02*
X102870000Y-118745000D01*
D26*
X102605398Y-118590000D02*
X101071066Y-118590000D01*
X149225000Y-119565987D02*
X149225000Y-118590000D01*
X100708933Y-118440000D02*
X99365000Y-118440000D01*
X145897500Y-115722500D02*
X146460493Y-115159506D01*
X147002499Y-114617499D02*
G75*
G02*
X147769012Y-114300000I766511J-766512D01*
G01*
D25*
X146685002Y-114617500D02*
G75*
G03*
X146909505Y-114710492I131511J0D01*
G01*
D26*
X110565000Y-116040000D02*
G75*
G03*
X109430319Y-115570000I-1134681J-1134681D01*
G01*
D25*
X102792500Y-118667500D02*
G75*
G03*
X102605398Y-118590000I-187101J-187100D01*
G01*
D26*
X158387500Y-114572500D02*
G75*
G03*
X157729626Y-114300000I-657872J-657869D01*
G01*
X101071066Y-118589999D02*
G75*
G02*
X100890001Y-118514999I-1J256063D01*
G01*
X100708933Y-118440001D02*
G75*
G02*
X100889999Y-118515001I3J-256061D01*
G01*
X143996306Y-116509999D02*
G75*
G03*
X145897499Y-115722499I-3J2688702D01*
G01*
X158659999Y-115230373D02*
G75*
G03*
X158387499Y-114572501I-930375J-1D01*
G01*
X149225001Y-119565987D02*
G75*
G03*
X149542501Y-120332499I1084010J-1D01*
G01*
X146685000Y-114617500D02*
G75*
G02*
X146460493Y-115159506I-766519J4D01*
G01*
X111699680Y-116509999D02*
G75*
G02*
X110565000Y-116040000I3J1604687D01*
G01*
X142788216Y-117630000D02*
X142198997Y-117630000D01*
X194433469Y-53421750D02*
X197485000Y-53421750D01*
X144593628Y-117630000D02*
X143980383Y-117630000D01*
X143376291Y-117630000D02*
X143971230Y-117630000D01*
X143380867Y-117630000D02*
X142788216Y-117630000D01*
D25*
X191125000Y-83507500D02*
X191125000Y-83820000D01*
D26*
X153032609Y-117630000D02*
X153764841Y-117630000D01*
X153032609Y-117630000D02*
X144575322Y-117630000D01*
X101074601Y-117630000D02*
X142198997Y-117630000D01*
X68281981Y-59210000D02*
X101490398Y-59210000D01*
X154423850Y-117630000D02*
X153691618Y-117630000D01*
X179726442Y-54622561D02*
X189843557Y-54622561D01*
D25*
X192878103Y-81441896D02*
X191345970Y-82974029D01*
X142197853Y-117630000D02*
X142785928Y-117630000D01*
X192999125Y-55204125D02*
X193040000Y-55245000D01*
X143380867Y-117630000D02*
X143980383Y-117630000D01*
X143376291Y-117630000D02*
X142785928Y-117630000D01*
X100855398Y-117630000D02*
X101074601Y-117630000D01*
D26*
X155650338Y-117630000D02*
X154387238Y-117630000D01*
X155641185Y-117630000D02*
X180185000Y-117630000D01*
D25*
X193675000Y-56778025D02*
X193675000Y-79518018D01*
X152886162Y-117630000D02*
X153691618Y-117630000D01*
D26*
X66358103Y-60006896D02*
X65405000Y-60960000D01*
X191564780Y-54610000D02*
X189873881Y-54610000D01*
D25*
X143971230Y-117630000D02*
X144575322Y-117630000D01*
D26*
X100855398Y-117630000D02*
X53340000Y-117630000D01*
D25*
X144575322Y-117630000D02*
G75*
G02*
X144593628Y-117630000I9153J-956111824D01*
G01*
X189843557Y-54622560D02*
G75*
G03*
X189858718Y-54616279I-4J21450D01*
G01*
X189873881Y-54610000D02*
G75*
G03*
X189858719Y-54616280I-1J-21440D01*
G01*
X143380867Y-117630000D02*
G75*
G02*
X143376291Y-117630000I-2288J1191371824D01*
G01*
X193675000Y-79518018D02*
G75*
G02*
X192878103Y-81441896I-2720777J2D01*
G01*
X101522501Y-59132499D02*
G75*
G03*
X101677499Y-59132499I77499J77501D01*
G01*
X153764841Y-117629999D02*
G75*
G02*
X153691618Y-117629999I-36612J1191371823D01*
G01*
X179711280Y-54616280D02*
G75*
G03*
X179726442Y-54622561I15164J15165D01*
G01*
X100887499Y-117552501D02*
G75*
G02*
X100855398Y-117630000I-32103J-32100D01*
G01*
D26*
X192999125Y-54015875D02*
G75*
G02*
X191564780Y-54610000I-1434351J1434360D01*
G01*
D25*
X142788216Y-117630000D02*
G75*
G02*
X142785928Y-117630000I-1144J1191371824D01*
G01*
X101490398Y-59210000D02*
G75*
G03*
X101677500Y-59132500I-4J264611D01*
G01*
D26*
X194433469Y-53421750D02*
G75*
G03*
X192999125Y-54015875I-1J-2028465D01*
G01*
D25*
X149914799Y-58520198D02*
G75*
G03*
X149937500Y-58575000I22700J-22700D01*
G01*
X193040000Y-55245000D02*
G75*
G02*
X193675000Y-56778025I-1533030J-1533028D01*
G01*
X154387238Y-117630000D02*
G75*
G02*
X154423850Y-117630000I18306J-956111824D01*
G01*
X191125000Y-83507500D02*
G75*
G02*
X191345970Y-82974029I754438J2D01*
G01*
X179711280Y-54616280D02*
G75*
G03*
X179726442Y-54622561I15164J15165D01*
G01*
X142198997Y-117630000D02*
G75*
G02*
X142197853Y-117630000I-572J1191371824D01*
G01*
X192999125Y-55204125D02*
G75*
G03*
X191564780Y-54610000I-1434346J-1434349D01*
G01*
X152886162Y-117630001D02*
G75*
G02*
X153032609Y-117630001I73223J-956111823D01*
G01*
X143980383Y-117630000D02*
G75*
G02*
X143971230Y-117630000I-4577J1191371824D01*
G01*
X155650338Y-117630000D02*
G75*
G02*
X155641185Y-117630000I-4577J1191371824D01*
G01*
X150069800Y-58629800D02*
G75*
G03*
X149937500Y-58575000I-132300J-132302D01*
G01*
X149914799Y-58520198D02*
G75*
G03*
X149937500Y-58575000I22700J-22700D01*
G01*
X100887500Y-117552500D02*
G75*
G03*
X101074601Y-117630000I187102J187102D01*
G01*
D26*
X66358103Y-60006896D02*
G75*
G02*
X68281981Y-59210000I1923876J-1923874D01*
G01*
D25*
X101522499Y-59132501D02*
G75*
G02*
X101490398Y-59210000I-32103J-32100D01*
G01*
X42583519Y-46951480D02*
X45085000Y-44450000D01*
X41910000Y-48577500D02*
X41910000Y-49530000D01*
X41910001Y-48577500D02*
G75*
G02*
X42583520Y-46951481I2299528J5D01*
G01*
X41910000Y-51435000D02*
X41910000Y-57150000D01*
X188907500Y-83820000D02*
X188585000Y-83820000D01*
X191608103Y-81441896D02*
X189458041Y-83591958D01*
X192405000Y-60530219D02*
X192405000Y-79518018D01*
X190376530Y-58501750D02*
X182245000Y-58501750D01*
X191810875Y-59095875D02*
G75*
G02*
X192405000Y-60530219I-1434351J-1434347D01*
G01*
X191608103Y-81441896D02*
G75*
G03*
X192405000Y-79518018I-1923880J1923880D01*
G01*
X188907500Y-83819999D02*
G75*
G03*
X189458040Y-83591957I-5J778593D01*
G01*
X190376530Y-58501751D02*
G75*
G02*
X191810875Y-59095875I-1J-2028473D01*
G01*
X44359800Y-50995000D02*
X43919800Y-51435000D01*
X45422053Y-50555000D02*
X57305215Y-50555000D01*
X177118568Y-53421750D02*
X182245000Y-53421750D01*
X59055000Y-42994012D02*
X59055000Y-48805215D01*
X174810987Y-41910000D02*
X60139012Y-41910000D01*
X175895000Y-52198181D02*
X175895000Y-42994012D01*
X44359800Y-50995000D02*
G75*
G02*
X45422053Y-50555000I1062252J-1062250D01*
G01*
X175577500Y-42227500D02*
G75*
G03*
X174810987Y-41910000I-766512J-766511D01*
G01*
X58542500Y-50042500D02*
G75*
G03*
X59055000Y-48805215I-1237296J1237289D01*
G01*
X59055001Y-42994012D02*
G75*
G02*
X59372501Y-42227501I1084001J4D01*
G01*
X176253375Y-53063375D02*
G75*
G02*
X175895000Y-52198181I865190J865192D01*
G01*
X60139012Y-41910001D02*
G75*
G03*
X59372501Y-42227501I-4J-1084001D01*
G01*
X58542500Y-50042500D02*
G75*
G02*
X57305215Y-50555000I-1237289J1237296D01*
G01*
X175577500Y-42227500D02*
G75*
G02*
X175895000Y-42994012I-766513J-766513D01*
G01*
X176253375Y-53063375D02*
G75*
G03*
X177118568Y-53421750I865195J865197D01*
G01*
X186045000Y-83507500D02*
X186045000Y-83820000D01*
X189047548Y-81915000D02*
X188230096Y-81915000D01*
X190443025Y-81336973D02*
X190973103Y-80806896D01*
X191770000Y-63070219D02*
X191770000Y-78883018D01*
X189741530Y-61041750D02*
X182245000Y-61041750D01*
X186265970Y-82974029D02*
X186684999Y-82554999D01*
X189741530Y-61041751D02*
G75*
G02*
X191175875Y-61635875I-1J-2028473D01*
G01*
X190973103Y-80806896D02*
G75*
G03*
X191770000Y-78883018I-1923880J1923880D01*
G01*
X191175875Y-61635875D02*
G75*
G02*
X191770000Y-63070219I-1434351J-1434347D01*
G01*
X189047548Y-81914999D02*
G75*
G03*
X190443024Y-81336972I-5J1973510D01*
G01*
X188230096Y-81915001D02*
G75*
G03*
X186685000Y-82555000I-3J-2185092D01*
G01*
X186045000Y-83507500D02*
G75*
G02*
X186265970Y-82974029I754438J2D01*
G01*
D26*
X153760000Y-120989626D02*
X153760000Y-119710000D01*
X156395987Y-121920000D02*
X154690373Y-121920000D01*
X157480000Y-123004012D02*
X157480000Y-127185987D01*
D25*
X178345489Y-58965489D02*
X179738182Y-58965489D01*
X182059012Y-80645000D02*
X187960000Y-80645000D01*
X158639492Y-57455000D02*
X158643764Y-57455000D01*
X172084339Y-118744339D02*
X172085000Y-118745000D01*
X158441250Y-57455000D02*
X158441036Y-57455000D01*
D26*
X160457845Y-57455000D02*
X173655319Y-57455000D01*
D25*
X180975000Y-79560987D02*
X180975000Y-60202306D01*
D26*
X157929012Y-121285000D02*
X160798018Y-121285000D01*
X162721896Y-120488103D02*
X163669424Y-119540575D01*
X156395987Y-128270000D02*
X155431981Y-128270000D01*
X174790000Y-56985000D02*
X175260000Y-56515000D01*
X172082744Y-118743679D02*
X165593302Y-118743679D01*
D25*
X153508103Y-129066896D02*
X153376274Y-129198724D01*
D26*
X157929012Y-121285001D02*
G75*
G03*
X157162501Y-121602501I-4J-1084001D01*
G01*
X157162500Y-127952500D02*
G75*
G03*
X157480000Y-127185987I-766522J766517D01*
G01*
X157162500Y-122237500D02*
G75*
G02*
X157162500Y-121602500I317499J317500D01*
G01*
X163669424Y-119540575D02*
G75*
G02*
X165593302Y-118743679I1923876J-1923874D01*
G01*
D25*
X181292500Y-80327500D02*
G75*
G02*
X180975000Y-79560987I766511J766512D01*
G01*
X181292500Y-80327500D02*
G75*
G03*
X182059012Y-80645000I766513J766513D01*
G01*
X179738182Y-58965490D02*
G75*
G02*
X180612743Y-59327745I-1J-1236820D01*
G01*
D26*
X154032500Y-121647500D02*
G75*
G03*
X154690373Y-121920000I657874J657876D01*
G01*
X160798018Y-121285000D02*
G75*
G03*
X162721896Y-120488103I-2J2720777D01*
G01*
X156395987Y-121920001D02*
G75*
G02*
X157162499Y-122237501I1J-1084010D01*
G01*
X154032500Y-121647500D02*
G75*
G02*
X153760000Y-120989626I657869J657872D01*
G01*
D25*
X158441250Y-57455000D02*
G75*
G02*
X158468594Y-57455000I13672J-1016286824D01*
G01*
D26*
X156395987Y-121920000D02*
G75*
G03*
X157162500Y-121602500I-4J1084022D01*
G01*
D25*
X158441250Y-57455000D02*
G75*
G02*
X158468594Y-57455000I13672J-1016286824D01*
G01*
X111174653Y-57950346D02*
G75*
G02*
X111035000Y-57892500I-57846J57846D01*
G01*
X180975000Y-60202306D02*
G75*
G03*
X180612744Y-59327744I-1236823J-3D01*
G01*
D26*
X157162500Y-127952500D02*
G75*
G02*
X156395987Y-128270000I-766517J766522D01*
G01*
X155431981Y-128270000D02*
G75*
G03*
X153508103Y-129066896I-2J-2720770D01*
G01*
D25*
X172084339Y-118744339D02*
G75*
G03*
X172082744Y-118743679I-1593J-1592D01*
G01*
D26*
X173655319Y-57454999D02*
G75*
G03*
X174789999Y-56984999I-4J1604691D01*
G01*
X157162500Y-122237500D02*
G75*
G02*
X157480000Y-123004012I-766513J-766513D01*
G01*
M02*
