G04 #@! TF.GenerationSoftware,KiCad,Pcbnew,(6.0.1)*
G04 #@! TF.CreationDate,2022-04-12T16:56:48+02:00*
G04 #@! TF.ProjectId,Keyboard Left Hand Side,4b657962-6f61-4726-9420-4c6566742048,rev?*
G04 #@! TF.SameCoordinates,Original*
G04 #@! TF.FileFunction,Soldermask,Bot*
G04 #@! TF.FilePolarity,Negative*
%FSLAX46Y46*%
G04 Gerber Fmt 4.6, Leading zero omitted, Abs format (unit mm)*
G04 Created by KiCad (PCBNEW (6.0.1)) date 2022-04-12 16:56:48*
%MOMM*%
%LPD*%
G01*
G04 APERTURE LIST*
G04 Aperture macros list*
%AMRoundRect*
0 Rectangle with rounded corners*
0 $1 Rounding radius*
0 $2 $3 $4 $5 $6 $7 $8 $9 X,Y pos of 4 corners*
0 Add a 4 corners polygon primitive as box body*
4,1,4,$2,$3,$4,$5,$6,$7,$8,$9,$2,$3,0*
0 Add four circle primitives for the rounded corners*
1,1,$1+$1,$2,$3*
1,1,$1+$1,$4,$5*
1,1,$1+$1,$6,$7*
1,1,$1+$1,$8,$9*
0 Add four rect primitives between the rounded corners*
20,1,$1+$1,$2,$3,$4,$5,0*
20,1,$1+$1,$4,$5,$6,$7,0*
20,1,$1+$1,$6,$7,$8,$9,0*
20,1,$1+$1,$8,$9,$2,$3,0*%
%AMHorizOval*
0 Thick line with rounded ends*
0 $1 width*
0 $2 $3 position (X,Y) of the first rounded end (center of the circle)*
0 $4 $5 position (X,Y) of the second rounded end (center of the circle)*
0 Add line between two ends*
20,1,$1,$2,$3,$4,$5,0*
0 Add two circle primitives to create the rounded ends*
1,1,$1,$2,$3*
1,1,$1,$4,$5*%
G04 Aperture macros list end*
%ADD10C,1.750000*%
%ADD11C,3.987800*%
%ADD12C,2.250000*%
%ADD13HorizOval,2.250000X0.655001X0.730000X-0.655001X-0.730000X0*%
%ADD14HorizOval,2.250000X0.020000X0.290000X-0.020000X-0.290000X0*%
%ADD15C,2.200000*%
%ADD16C,1.397000*%
%ADD17C,3.048000*%
%ADD18R,2.000000X2.000000*%
%ADD19C,2.000000*%
%ADD20R,3.000000X2.500000*%
%ADD21C,1.752600*%
%ADD22RoundRect,0.140000X-0.170000X0.140000X-0.170000X-0.140000X0.170000X-0.140000X0.170000X0.140000X0*%
%ADD23R,1.050000X1.500000*%
%ADD24O,1.050000X1.500000*%
%ADD25R,1.200000X0.900000*%
%ADD26RoundRect,0.250000X-0.450000X0.350000X-0.450000X-0.350000X0.450000X-0.350000X0.450000X0.350000X0*%
%ADD27C,2.800000*%
%ADD28R,1.500000X1.000000*%
%ADD29RoundRect,0.250000X-0.350000X0.275000X-0.350000X-0.275000X0.350000X-0.275000X0.350000X0.275000X0*%
%ADD30R,0.850000X0.300000*%
%ADD31R,1.700000X1.600000*%
%ADD32R,2.400000X1.500000*%
%ADD33RoundRect,0.250000X-0.350000X-0.450000X0.350000X-0.450000X0.350000X0.450000X-0.350000X0.450000X0*%
G04 APERTURE END LIST*
D10*
X84455000Y-51435000D03*
D11*
X89535000Y-51435000D03*
D10*
X94615000Y-51435000D03*
D12*
X87035000Y-47435000D03*
D13*
X86380001Y-48165000D03*
D12*
X92075000Y-46355000D03*
D14*
X92055000Y-46645000D03*
D10*
X46355000Y-70485000D03*
D11*
X51435000Y-70485000D03*
D10*
X56515000Y-70485000D03*
D13*
X48280001Y-67215000D03*
D12*
X48935000Y-66485000D03*
D14*
X53955000Y-65695000D03*
D12*
X53975000Y-65405000D03*
D11*
X89535000Y-89535000D03*
D10*
X94615000Y-89535000D03*
X84455000Y-89535000D03*
D13*
X86380001Y-86265000D03*
D12*
X87035000Y-85535000D03*
X92075000Y-84455000D03*
D14*
X92055000Y-84745000D03*
D10*
X103505000Y-51435000D03*
D11*
X108585000Y-51435000D03*
D10*
X113665000Y-51435000D03*
D13*
X105430001Y-48165000D03*
D12*
X106085000Y-47435000D03*
D14*
X111105000Y-46645000D03*
D12*
X111125000Y-46355000D03*
D10*
X75565000Y-127635000D03*
D11*
X70485000Y-127635000D03*
D10*
X65405000Y-127635000D03*
D12*
X67985000Y-123635000D03*
D13*
X67330001Y-124365000D03*
D12*
X73025000Y-122555000D03*
D14*
X73005000Y-122845000D03*
D11*
X108585000Y-108585000D03*
D10*
X113665000Y-108585000D03*
X103505000Y-108585000D03*
D13*
X105430001Y-105315000D03*
D12*
X106085000Y-104585000D03*
D14*
X111105000Y-103795000D03*
D12*
X111125000Y-103505000D03*
D10*
X132715000Y-70485000D03*
X122555000Y-70485000D03*
D11*
X127635000Y-70485000D03*
D12*
X125135000Y-66485000D03*
D13*
X124480001Y-67215000D03*
D14*
X130155000Y-65695000D03*
D12*
X130175000Y-65405000D03*
D10*
X141605000Y-51435000D03*
X151765000Y-51435000D03*
D11*
X146685000Y-51435000D03*
D12*
X144185000Y-47435000D03*
D13*
X143530001Y-48165000D03*
D12*
X149225000Y-46355000D03*
D14*
X149205000Y-46645000D03*
D11*
X51435000Y-108585000D03*
D10*
X46355000Y-108585000D03*
X56515000Y-108585000D03*
D12*
X48935000Y-104585000D03*
D13*
X48280001Y-105315000D03*
D12*
X53975000Y-103505000D03*
D14*
X53955000Y-103795000D03*
D10*
X103505000Y-89535000D03*
X113665000Y-89535000D03*
D11*
X108585000Y-89535000D03*
D12*
X106085000Y-85535000D03*
D13*
X105430001Y-86265000D03*
D12*
X111125000Y-84455000D03*
D14*
X111105000Y-84745000D03*
D10*
X46355000Y-127635000D03*
D11*
X51435000Y-127635000D03*
D10*
X56515000Y-127635000D03*
D13*
X48280001Y-124365000D03*
D12*
X48935000Y-123635000D03*
D14*
X53955000Y-122845000D03*
D12*
X53975000Y-122555000D03*
D10*
X113665000Y-127635000D03*
X103505000Y-127635000D03*
D11*
X108585000Y-127635000D03*
D13*
X105430001Y-124365000D03*
D12*
X106085000Y-123635000D03*
X111125000Y-122555000D03*
D14*
X111105000Y-122845000D03*
D11*
X165735000Y-89535000D03*
D10*
X170815000Y-89535000D03*
X160655000Y-89535000D03*
D12*
X163235000Y-85535000D03*
D13*
X162580001Y-86265000D03*
D12*
X168275000Y-84455000D03*
D14*
X168255000Y-84745000D03*
D15*
X137160000Y-99060000D03*
X40005000Y-139065000D03*
D11*
X146685000Y-70485000D03*
D10*
X141605000Y-70485000D03*
X151765000Y-70485000D03*
D13*
X143530001Y-67215000D03*
D12*
X144185000Y-66485000D03*
X149225000Y-65405000D03*
D14*
X149205000Y-65695000D03*
D16*
X193665000Y-83820000D03*
X191125000Y-83820000D03*
X188585000Y-83820000D03*
X186045000Y-83820000D03*
D11*
X70485000Y-108585000D03*
D10*
X75565000Y-108585000D03*
X65405000Y-108585000D03*
D12*
X67985000Y-104585000D03*
D13*
X67330001Y-105315000D03*
D14*
X73005000Y-103795000D03*
D12*
X73025000Y-103505000D03*
D11*
X70485000Y-70485000D03*
D10*
X75565000Y-70485000D03*
X65405000Y-70485000D03*
D13*
X67330001Y-67215000D03*
D12*
X67985000Y-66485000D03*
D14*
X73005000Y-65695000D03*
D12*
X73025000Y-65405000D03*
D11*
X70485000Y-51435000D03*
D10*
X65405000Y-51435000D03*
X75565000Y-51435000D03*
D13*
X67330001Y-48165000D03*
D12*
X67985000Y-47435000D03*
X73025000Y-46355000D03*
D14*
X73005000Y-46645000D03*
D10*
X122555000Y-51435000D03*
D11*
X127635000Y-51435000D03*
D10*
X132715000Y-51435000D03*
D12*
X125135000Y-47435000D03*
D13*
X124480001Y-48165000D03*
D12*
X130175000Y-46355000D03*
D14*
X130155000Y-46645000D03*
D15*
X80010000Y-80010000D03*
D10*
X151765000Y-89535000D03*
X141605000Y-89535000D03*
D11*
X146685000Y-89535000D03*
D12*
X144185000Y-85535000D03*
D13*
X143530001Y-86265000D03*
D12*
X149225000Y-84455000D03*
D14*
X149205000Y-84745000D03*
D10*
X132715000Y-89535000D03*
D11*
X127635000Y-89535000D03*
D10*
X122555000Y-89535000D03*
D12*
X125135000Y-85535000D03*
D13*
X124480001Y-86265000D03*
D14*
X130155000Y-84745000D03*
D12*
X130175000Y-84455000D03*
D10*
X170815000Y-51435000D03*
X160655000Y-51435000D03*
D11*
X165735000Y-51435000D03*
D12*
X163235000Y-47435000D03*
D13*
X162580001Y-48165000D03*
D14*
X168255000Y-46645000D03*
D12*
X168275000Y-46355000D03*
D10*
X132715000Y-108585000D03*
X122555000Y-108585000D03*
D11*
X127635000Y-108585000D03*
D13*
X124480001Y-105315000D03*
D12*
X125135000Y-104585000D03*
D14*
X130155000Y-103795000D03*
D12*
X130175000Y-103505000D03*
D11*
X70485000Y-89535000D03*
D10*
X75565000Y-89535000D03*
X65405000Y-89535000D03*
D13*
X67330001Y-86265000D03*
D12*
X67985000Y-85535000D03*
X73025000Y-84455000D03*
D14*
X73005000Y-84745000D03*
D11*
X108585000Y-70485000D03*
D10*
X103505000Y-70485000D03*
X113665000Y-70485000D03*
D13*
X105430001Y-67215000D03*
D12*
X106085000Y-66485000D03*
X111125000Y-65405000D03*
D14*
X111105000Y-65695000D03*
D15*
X198755000Y-139065000D03*
X40005000Y-40005000D03*
D10*
X151765000Y-108585000D03*
X141605000Y-108585000D03*
D11*
X146685000Y-108585000D03*
D12*
X144185000Y-104585000D03*
D13*
X143530001Y-105315000D03*
D14*
X149205000Y-103795000D03*
D12*
X149225000Y-103505000D03*
D10*
X141609400Y-127627200D03*
D11*
X127639400Y-135882200D03*
D10*
X151769400Y-127627200D03*
D11*
X165739400Y-135882200D03*
D17*
X127639400Y-120642200D03*
D11*
X146689400Y-127627200D03*
D17*
X165739400Y-120642200D03*
D13*
X143534401Y-124357200D03*
D12*
X144189400Y-123627200D03*
X149229400Y-122547200D03*
D14*
X149209400Y-122837200D03*
D11*
X89535000Y-70485000D03*
D10*
X84455000Y-70485000D03*
X94615000Y-70485000D03*
D12*
X87035000Y-66485000D03*
D13*
X86380001Y-67215000D03*
D14*
X92055000Y-65695000D03*
D12*
X92075000Y-65405000D03*
D18*
X43919800Y-48935000D03*
D19*
X43919800Y-53935000D03*
X43919800Y-51435000D03*
D20*
X51419800Y-45835000D03*
X51419800Y-57035000D03*
D15*
X198755000Y-40005000D03*
D11*
X89535000Y-127635000D03*
D10*
X94615000Y-127635000D03*
X84455000Y-127635000D03*
D13*
X86380001Y-124365000D03*
D12*
X87035000Y-123635000D03*
D14*
X92055000Y-122845000D03*
D12*
X92075000Y-122555000D03*
D11*
X165735000Y-127635000D03*
D10*
X160655000Y-127635000D03*
X170815000Y-127635000D03*
D13*
X162580001Y-124365000D03*
D12*
X163235000Y-123635000D03*
D14*
X168255000Y-122845000D03*
D12*
X168275000Y-122555000D03*
D19*
X186615000Y-89190000D03*
X193115000Y-89190000D03*
X186615000Y-93690000D03*
X193115000Y-93690000D03*
D11*
X127635000Y-127635000D03*
D10*
X132715000Y-127635000D03*
X122555000Y-127635000D03*
D13*
X124480001Y-124365000D03*
D12*
X125135000Y-123635000D03*
X130175000Y-122555000D03*
D14*
X130155000Y-122845000D03*
D10*
X160655000Y-70485000D03*
X170815000Y-70485000D03*
D11*
X165735000Y-70485000D03*
D12*
X163235000Y-66485000D03*
D13*
X162580001Y-67215000D03*
D12*
X168275000Y-65405000D03*
D14*
X168255000Y-65695000D03*
D15*
X80010000Y-99060000D03*
D21*
X182245000Y-45720000D03*
X182245000Y-48260000D03*
X182245000Y-50800000D03*
X182245000Y-53340000D03*
X182245000Y-55880000D03*
X182245000Y-58420000D03*
X182245000Y-60960000D03*
X182245000Y-63500000D03*
X182245000Y-66040000D03*
X182245000Y-68580000D03*
X182245000Y-71120000D03*
X182245000Y-73660000D03*
X197485000Y-73660000D03*
X197485000Y-71120000D03*
X197485000Y-68580000D03*
X197485000Y-66040000D03*
X197485000Y-63500000D03*
X197485000Y-60960000D03*
X197485000Y-58420000D03*
X197485000Y-55880000D03*
X197485000Y-53340000D03*
X197485000Y-50800000D03*
X197485000Y-48260000D03*
X197485000Y-45720000D03*
X184785000Y-68580000D03*
X187325000Y-68580000D03*
X189865000Y-68580000D03*
D10*
X46355000Y-89535000D03*
X56515000Y-89535000D03*
D11*
X51435000Y-89535000D03*
D12*
X48935000Y-85535000D03*
D13*
X48280001Y-86265000D03*
D12*
X53975000Y-84455000D03*
D14*
X53955000Y-84745000D03*
D11*
X89535000Y-108585000D03*
D10*
X84455000Y-108585000D03*
X94615000Y-108585000D03*
D12*
X87035000Y-104585000D03*
D13*
X86380001Y-105315000D03*
D12*
X92075000Y-103505000D03*
D14*
X92055000Y-103795000D03*
D10*
X160655000Y-108585000D03*
X170815000Y-108585000D03*
D11*
X165735000Y-108585000D03*
D13*
X162580001Y-105315000D03*
D12*
X163235000Y-104585000D03*
X168275000Y-103505000D03*
D14*
X168255000Y-103795000D03*
D22*
X149860000Y-58575000D03*
X149860000Y-59535000D03*
D23*
X188595000Y-76560000D03*
D24*
X187325000Y-76560000D03*
X186055000Y-76560000D03*
D22*
X53340000Y-59210000D03*
X53340000Y-60170000D03*
D25*
X155210000Y-72635000D03*
X155210000Y-69335000D03*
D22*
X101600000Y-59210000D03*
X101600000Y-60170000D03*
D25*
X155210000Y-110735000D03*
X155210000Y-107435000D03*
X174260000Y-53585000D03*
X174260000Y-50285000D03*
X174260000Y-129800000D03*
X174260000Y-126500000D03*
X59960000Y-91685000D03*
X59960000Y-88385000D03*
X79010000Y-129785000D03*
X79010000Y-126485000D03*
X117110000Y-53585000D03*
X117110000Y-50285000D03*
D26*
X182880000Y-77105000D03*
X182880000Y-79105000D03*
D27*
X189865000Y-134955000D03*
X189865000Y-97455000D03*
D28*
X106135000Y-61290000D03*
X106135000Y-58090000D03*
X111035000Y-58090000D03*
X111035000Y-61290000D03*
D25*
X155210000Y-53585000D03*
X155210000Y-50285000D03*
X174250000Y-91670000D03*
X174250000Y-88370000D03*
D29*
X185420000Y-105530000D03*
X185420000Y-107830000D03*
D25*
X98060000Y-110735000D03*
X98060000Y-107435000D03*
X117110000Y-53585000D03*
X117110000Y-50285000D03*
X155210000Y-110735000D03*
X155210000Y-107435000D03*
X59960000Y-72640000D03*
X59960000Y-69340000D03*
X117110000Y-91685000D03*
X117110000Y-88385000D03*
X117110000Y-110735000D03*
X117110000Y-107435000D03*
X98080000Y-72640000D03*
X98080000Y-69340000D03*
D30*
X188775000Y-101485000D03*
X188775000Y-101985000D03*
X188775000Y-102485000D03*
X188775000Y-102985000D03*
X185875000Y-102985000D03*
X185875000Y-102485000D03*
X185875000Y-101985000D03*
X185875000Y-101485000D03*
D31*
X187325000Y-102235000D03*
D28*
X153760000Y-60655000D03*
X153760000Y-57455000D03*
X158660000Y-57455000D03*
X158660000Y-60655000D03*
D25*
X59960000Y-129785000D03*
X59960000Y-126485000D03*
X117110000Y-72635000D03*
X117110000Y-69335000D03*
X79010000Y-72635000D03*
X79010000Y-69335000D03*
D28*
X111035000Y-116510000D03*
X111035000Y-119710000D03*
X106135000Y-119710000D03*
X106135000Y-116510000D03*
D25*
X155220000Y-129790000D03*
X155220000Y-126490000D03*
X136160000Y-72635000D03*
X136160000Y-69335000D03*
X79010000Y-91685000D03*
X79010000Y-88385000D03*
X136160000Y-129790000D03*
X136160000Y-126490000D03*
X136160000Y-91685000D03*
X136160000Y-88385000D03*
X59960000Y-110735000D03*
X59960000Y-107435000D03*
X98050000Y-53590000D03*
X98050000Y-50290000D03*
X79010000Y-129785000D03*
X79010000Y-126485000D03*
X79010000Y-91685000D03*
X79010000Y-88385000D03*
X79010000Y-53585000D03*
X79010000Y-50285000D03*
D29*
X189230000Y-105530000D03*
X189230000Y-107830000D03*
D22*
X149225000Y-117630000D03*
X149225000Y-118590000D03*
D25*
X136160000Y-110735000D03*
X136160000Y-107435000D03*
D32*
X194945000Y-106890000D03*
X194945000Y-101390000D03*
D28*
X63410000Y-116510000D03*
X63410000Y-119710000D03*
X58510000Y-119710000D03*
X58510000Y-116510000D03*
D25*
X117110000Y-72635000D03*
X117110000Y-69335000D03*
X79010000Y-72635000D03*
X79010000Y-69335000D03*
X136160000Y-110735000D03*
X136160000Y-107435000D03*
X155210000Y-53585000D03*
X155210000Y-50285000D03*
X98060000Y-91670000D03*
X98060000Y-88370000D03*
X117110000Y-129785000D03*
X117110000Y-126485000D03*
X155210000Y-91690000D03*
X155210000Y-88390000D03*
X79010000Y-110735000D03*
X79010000Y-107435000D03*
X59960000Y-91685000D03*
X59960000Y-88385000D03*
X174250000Y-110740000D03*
X174250000Y-107440000D03*
X136160000Y-53585000D03*
X136160000Y-50285000D03*
D33*
X185055000Y-80010000D03*
X187055000Y-80010000D03*
D28*
X158660000Y-116510000D03*
X158660000Y-119710000D03*
X153760000Y-119710000D03*
X153760000Y-116510000D03*
D25*
X174270000Y-72640000D03*
X174270000Y-69340000D03*
D22*
X100965000Y-117630000D03*
X100965000Y-118590000D03*
D28*
X58510000Y-61290000D03*
X58510000Y-58090000D03*
X63410000Y-58090000D03*
X63410000Y-61290000D03*
D25*
X117110000Y-110735000D03*
X117110000Y-107435000D03*
X174260000Y-53585000D03*
X174260000Y-50285000D03*
X155210000Y-72635000D03*
X155210000Y-69335000D03*
X136160000Y-91685000D03*
X136160000Y-88385000D03*
D22*
X53340000Y-117630000D03*
X53340000Y-118590000D03*
D25*
X59960000Y-110735000D03*
X59960000Y-107435000D03*
X79010000Y-110735000D03*
X79010000Y-107435000D03*
X98060000Y-129785000D03*
X98060000Y-126485000D03*
X117110000Y-129785000D03*
X117110000Y-126485000D03*
X98060000Y-129785000D03*
X98060000Y-126485000D03*
M02*
