G04 #@! TF.GenerationSoftware,KiCad,Pcbnew,(6.0.1)*
G04 #@! TF.CreationDate,2022-04-12T16:56:48+02:00*
G04 #@! TF.ProjectId,Keyboard Left Hand Side,4b657962-6f61-4726-9420-4c6566742048,rev?*
G04 #@! TF.SameCoordinates,Original*
G04 #@! TF.FileFunction,Paste,Bot*
G04 #@! TF.FilePolarity,Positive*
%FSLAX46Y46*%
G04 Gerber Fmt 4.6, Leading zero omitted, Abs format (unit mm)*
G04 Created by KiCad (PCBNEW (6.0.1)) date 2022-04-12 16:56:48*
%MOMM*%
%LPD*%
G01*
G04 APERTURE LIST*
G04 Aperture macros list*
%AMRoundRect*
0 Rectangle with rounded corners*
0 $1 Rounding radius*
0 $2 $3 $4 $5 $6 $7 $8 $9 X,Y pos of 4 corners*
0 Add a 4 corners polygon primitive as box body*
4,1,4,$2,$3,$4,$5,$6,$7,$8,$9,$2,$3,0*
0 Add four circle primitives for the rounded corners*
1,1,$1+$1,$2,$3*
1,1,$1+$1,$4,$5*
1,1,$1+$1,$6,$7*
1,1,$1+$1,$8,$9*
0 Add four rect primitives between the rounded corners*
20,1,$1+$1,$2,$3,$4,$5,0*
20,1,$1+$1,$4,$5,$6,$7,0*
20,1,$1+$1,$6,$7,$8,$9,0*
20,1,$1+$1,$8,$9,$2,$3,0*%
G04 Aperture macros list end*
%ADD10RoundRect,0.140000X-0.170000X0.140000X-0.170000X-0.140000X0.170000X-0.140000X0.170000X0.140000X0*%
%ADD11R,1.200000X0.900000*%
%ADD12RoundRect,0.250000X-0.450000X0.350000X-0.450000X-0.350000X0.450000X-0.350000X0.450000X0.350000X0*%
%ADD13R,1.500000X1.000000*%
%ADD14RoundRect,0.250000X-0.350000X0.275000X-0.350000X-0.275000X0.350000X-0.275000X0.350000X0.275000X0*%
%ADD15R,0.850000X0.300000*%
%ADD16R,1.700000X1.600000*%
%ADD17R,2.400000X1.500000*%
%ADD18RoundRect,0.250000X-0.350000X-0.450000X0.350000X-0.450000X0.350000X0.450000X-0.350000X0.450000X0*%
G04 APERTURE END LIST*
D10*
X149860000Y-58575000D03*
X149860000Y-59535000D03*
X53340000Y-59210000D03*
X53340000Y-60170000D03*
D11*
X155210000Y-72635000D03*
X155210000Y-69335000D03*
D10*
X101600000Y-59210000D03*
X101600000Y-60170000D03*
D11*
X155210000Y-110735000D03*
X155210000Y-107435000D03*
X174260000Y-53585000D03*
X174260000Y-50285000D03*
X174260000Y-129800000D03*
X174260000Y-126500000D03*
X59960000Y-91685000D03*
X59960000Y-88385000D03*
X79010000Y-129785000D03*
X79010000Y-126485000D03*
X117110000Y-53585000D03*
X117110000Y-50285000D03*
D12*
X182880000Y-77105000D03*
X182880000Y-79105000D03*
D13*
X106135000Y-61290000D03*
X106135000Y-58090000D03*
X111035000Y-58090000D03*
X111035000Y-61290000D03*
D11*
X155210000Y-53585000D03*
X155210000Y-50285000D03*
X174250000Y-91670000D03*
X174250000Y-88370000D03*
D14*
X185420000Y-105530000D03*
X185420000Y-107830000D03*
D11*
X98060000Y-110735000D03*
X98060000Y-107435000D03*
X117110000Y-53585000D03*
X117110000Y-50285000D03*
X155210000Y-110735000D03*
X155210000Y-107435000D03*
X59960000Y-72640000D03*
X59960000Y-69340000D03*
X117110000Y-91685000D03*
X117110000Y-88385000D03*
X117110000Y-110735000D03*
X117110000Y-107435000D03*
X98080000Y-72640000D03*
X98080000Y-69340000D03*
D15*
X188775000Y-101485000D03*
X188775000Y-101985000D03*
X188775000Y-102485000D03*
X188775000Y-102985000D03*
X185875000Y-102985000D03*
X185875000Y-102485000D03*
X185875000Y-101985000D03*
X185875000Y-101485000D03*
D16*
X187325000Y-102235000D03*
D13*
X153760000Y-60655000D03*
X153760000Y-57455000D03*
X158660000Y-57455000D03*
X158660000Y-60655000D03*
D11*
X59960000Y-129785000D03*
X59960000Y-126485000D03*
X117110000Y-72635000D03*
X117110000Y-69335000D03*
X79010000Y-72635000D03*
X79010000Y-69335000D03*
D13*
X111035000Y-116510000D03*
X111035000Y-119710000D03*
X106135000Y-119710000D03*
X106135000Y-116510000D03*
D11*
X155220000Y-129790000D03*
X155220000Y-126490000D03*
X136160000Y-72635000D03*
X136160000Y-69335000D03*
X79010000Y-91685000D03*
X79010000Y-88385000D03*
X136160000Y-129790000D03*
X136160000Y-126490000D03*
X136160000Y-91685000D03*
X136160000Y-88385000D03*
X59960000Y-110735000D03*
X59960000Y-107435000D03*
X98050000Y-53590000D03*
X98050000Y-50290000D03*
X79010000Y-129785000D03*
X79010000Y-126485000D03*
X79010000Y-91685000D03*
X79010000Y-88385000D03*
X79010000Y-53585000D03*
X79010000Y-50285000D03*
D14*
X189230000Y-105530000D03*
X189230000Y-107830000D03*
D10*
X149225000Y-117630000D03*
X149225000Y-118590000D03*
D11*
X136160000Y-110735000D03*
X136160000Y-107435000D03*
D17*
X194945000Y-106890000D03*
X194945000Y-101390000D03*
D13*
X63410000Y-116510000D03*
X63410000Y-119710000D03*
X58510000Y-119710000D03*
X58510000Y-116510000D03*
D11*
X117110000Y-72635000D03*
X117110000Y-69335000D03*
X79010000Y-72635000D03*
X79010000Y-69335000D03*
X136160000Y-110735000D03*
X136160000Y-107435000D03*
X155210000Y-53585000D03*
X155210000Y-50285000D03*
X98060000Y-91670000D03*
X98060000Y-88370000D03*
X117110000Y-129785000D03*
X117110000Y-126485000D03*
X155210000Y-91690000D03*
X155210000Y-88390000D03*
X79010000Y-110735000D03*
X79010000Y-107435000D03*
X59960000Y-91685000D03*
X59960000Y-88385000D03*
X174250000Y-110740000D03*
X174250000Y-107440000D03*
X136160000Y-53585000D03*
X136160000Y-50285000D03*
D18*
X185055000Y-80010000D03*
X187055000Y-80010000D03*
D13*
X158660000Y-116510000D03*
X158660000Y-119710000D03*
X153760000Y-119710000D03*
X153760000Y-116510000D03*
D11*
X174270000Y-72640000D03*
X174270000Y-69340000D03*
D10*
X100965000Y-117630000D03*
X100965000Y-118590000D03*
D13*
X58510000Y-61290000D03*
X58510000Y-58090000D03*
X63410000Y-58090000D03*
X63410000Y-61290000D03*
D11*
X117110000Y-110735000D03*
X117110000Y-107435000D03*
X174260000Y-53585000D03*
X174260000Y-50285000D03*
X155210000Y-72635000D03*
X155210000Y-69335000D03*
X136160000Y-91685000D03*
X136160000Y-88385000D03*
D10*
X53340000Y-117630000D03*
X53340000Y-118590000D03*
D11*
X59960000Y-110735000D03*
X59960000Y-107435000D03*
X79010000Y-110735000D03*
X79010000Y-107435000D03*
X98060000Y-129785000D03*
X98060000Y-126485000D03*
X117110000Y-129785000D03*
X117110000Y-126485000D03*
X98060000Y-129785000D03*
X98060000Y-126485000D03*
M02*
