G04 #@! TF.GenerationSoftware,KiCad,Pcbnew,(6.0.1)*
G04 #@! TF.CreationDate,2022-04-12T16:56:48+02:00*
G04 #@! TF.ProjectId,Keyboard Left Hand Side,4b657962-6f61-4726-9420-4c6566742048,rev?*
G04 #@! TF.SameCoordinates,Original*
G04 #@! TF.FileFunction,Soldermask,Top*
G04 #@! TF.FilePolarity,Negative*
%FSLAX46Y46*%
G04 Gerber Fmt 4.6, Leading zero omitted, Abs format (unit mm)*
G04 Created by KiCad (PCBNEW (6.0.1)) date 2022-04-12 16:56:48*
%MOMM*%
%LPD*%
G01*
G04 APERTURE LIST*
G04 Aperture macros list*
%AMRoundRect*
0 Rectangle with rounded corners*
0 $1 Rounding radius*
0 $2 $3 $4 $5 $6 $7 $8 $9 X,Y pos of 4 corners*
0 Add a 4 corners polygon primitive as box body*
4,1,4,$2,$3,$4,$5,$6,$7,$8,$9,$2,$3,0*
0 Add four circle primitives for the rounded corners*
1,1,$1+$1,$2,$3*
1,1,$1+$1,$4,$5*
1,1,$1+$1,$6,$7*
1,1,$1+$1,$8,$9*
0 Add four rect primitives between the rounded corners*
20,1,$1+$1,$2,$3,$4,$5,0*
20,1,$1+$1,$4,$5,$6,$7,0*
20,1,$1+$1,$6,$7,$8,$9,0*
20,1,$1+$1,$8,$9,$2,$3,0*%
G04 Aperture macros list end*
%ADD10C,1.750000*%
%ADD11C,3.987800*%
%ADD12RoundRect,0.100000X-0.217500X-0.100000X0.217500X-0.100000X0.217500X0.100000X-0.217500X0.100000X0*%
%ADD13C,2.200000*%
%ADD14C,1.397000*%
%ADD15RoundRect,0.155000X0.155000X-0.212500X0.155000X0.212500X-0.155000X0.212500X-0.155000X-0.212500X0*%
%ADD16C,3.048000*%
%ADD17R,2.000000X2.000000*%
%ADD18C,2.000000*%
%ADD19R,3.000000X2.500000*%
%ADD20RoundRect,0.100000X0.217500X0.100000X-0.217500X0.100000X-0.217500X-0.100000X0.217500X-0.100000X0*%
%ADD21C,1.752600*%
%ADD22R,1.050000X1.500000*%
%ADD23O,1.050000X1.500000*%
%ADD24C,2.800000*%
G04 APERTURE END LIST*
D10*
X84455000Y-51435000D03*
D11*
X89535000Y-51435000D03*
D10*
X94615000Y-51435000D03*
X46355000Y-70485000D03*
D11*
X51435000Y-70485000D03*
D10*
X56515000Y-70485000D03*
D11*
X89535000Y-89535000D03*
D10*
X94615000Y-89535000D03*
X84455000Y-89535000D03*
X103505000Y-51435000D03*
D11*
X108585000Y-51435000D03*
D10*
X113665000Y-51435000D03*
X75565000Y-127635000D03*
D11*
X70485000Y-127635000D03*
D10*
X65405000Y-127635000D03*
D11*
X108585000Y-108585000D03*
D10*
X113665000Y-108585000D03*
X103505000Y-108585000D03*
X132715000Y-70485000D03*
X122555000Y-70485000D03*
D11*
X127635000Y-70485000D03*
D10*
X141605000Y-51435000D03*
X151765000Y-51435000D03*
D11*
X146685000Y-51435000D03*
X51435000Y-108585000D03*
D10*
X46355000Y-108585000D03*
X56515000Y-108585000D03*
X103505000Y-89535000D03*
X113665000Y-89535000D03*
D11*
X108585000Y-89535000D03*
D10*
X46355000Y-127635000D03*
D11*
X51435000Y-127635000D03*
D10*
X56515000Y-127635000D03*
X113665000Y-127635000D03*
X103505000Y-127635000D03*
D11*
X108585000Y-127635000D03*
D12*
X38327500Y-54610000D03*
X39142500Y-54610000D03*
D11*
X165735000Y-89535000D03*
D10*
X170815000Y-89535000D03*
X160655000Y-89535000D03*
D13*
X137160000Y-99060000D03*
X40005000Y-139065000D03*
D11*
X146685000Y-70485000D03*
D10*
X141605000Y-70485000D03*
X151765000Y-70485000D03*
D14*
X193665000Y-83820000D03*
X191125000Y-83820000D03*
X188585000Y-83820000D03*
X186045000Y-83820000D03*
D11*
X70485000Y-108585000D03*
D10*
X75565000Y-108585000D03*
X65405000Y-108585000D03*
D11*
X70485000Y-70485000D03*
D10*
X75565000Y-70485000D03*
X65405000Y-70485000D03*
D11*
X70485000Y-51435000D03*
D10*
X65405000Y-51435000D03*
X75565000Y-51435000D03*
X122555000Y-51435000D03*
D11*
X127635000Y-51435000D03*
D10*
X132715000Y-51435000D03*
D13*
X80010000Y-80010000D03*
D10*
X151765000Y-89535000D03*
X141605000Y-89535000D03*
D11*
X146685000Y-89535000D03*
D10*
X132715000Y-89535000D03*
D11*
X127635000Y-89535000D03*
D10*
X122555000Y-89535000D03*
X170815000Y-51435000D03*
X160655000Y-51435000D03*
D11*
X165735000Y-51435000D03*
D10*
X132715000Y-108585000D03*
X122555000Y-108585000D03*
D11*
X127635000Y-108585000D03*
X70485000Y-89535000D03*
D10*
X75565000Y-89535000D03*
X65405000Y-89535000D03*
D11*
X108585000Y-70485000D03*
D10*
X103505000Y-70485000D03*
X113665000Y-70485000D03*
D13*
X198755000Y-139065000D03*
X40005000Y-40005000D03*
D10*
X151765000Y-108585000D03*
X141605000Y-108585000D03*
D11*
X146685000Y-108585000D03*
D15*
X40005000Y-49462500D03*
X40005000Y-48327500D03*
X40005000Y-52637500D03*
X40005000Y-51502500D03*
D10*
X141609400Y-127627200D03*
D11*
X127639400Y-135882200D03*
D10*
X151769400Y-127627200D03*
D11*
X165739400Y-135882200D03*
D16*
X127639400Y-120642200D03*
D11*
X146689400Y-127627200D03*
D16*
X165739400Y-120642200D03*
D12*
X38327500Y-46355000D03*
X39142500Y-46355000D03*
D11*
X89535000Y-70485000D03*
D10*
X84455000Y-70485000D03*
X94615000Y-70485000D03*
D17*
X43919800Y-48935000D03*
D18*
X43919800Y-53935000D03*
X43919800Y-51435000D03*
D19*
X51419800Y-45835000D03*
X51419800Y-57035000D03*
D13*
X198755000Y-40005000D03*
D20*
X41682500Y-46355000D03*
X40867500Y-46355000D03*
D11*
X89535000Y-127635000D03*
D10*
X94615000Y-127635000D03*
X84455000Y-127635000D03*
D11*
X165735000Y-127635000D03*
D10*
X160655000Y-127635000D03*
X170815000Y-127635000D03*
D20*
X41682500Y-54610000D03*
X40867500Y-54610000D03*
D18*
X186615000Y-89190000D03*
X193115000Y-89190000D03*
X186615000Y-93690000D03*
X193115000Y-93690000D03*
D11*
X127635000Y-127635000D03*
D10*
X132715000Y-127635000D03*
X122555000Y-127635000D03*
X160655000Y-70485000D03*
X170815000Y-70485000D03*
D11*
X165735000Y-70485000D03*
D13*
X80010000Y-99060000D03*
D21*
X182245000Y-45720000D03*
X182245000Y-48260000D03*
X182245000Y-50800000D03*
X182245000Y-53340000D03*
X182245000Y-55880000D03*
X182245000Y-58420000D03*
X182245000Y-60960000D03*
X182245000Y-63500000D03*
X182245000Y-66040000D03*
X182245000Y-68580000D03*
X182245000Y-71120000D03*
X182245000Y-73660000D03*
X197485000Y-73660000D03*
X197485000Y-71120000D03*
X197485000Y-68580000D03*
X197485000Y-66040000D03*
X197485000Y-63500000D03*
X197485000Y-60960000D03*
X197485000Y-58420000D03*
X197485000Y-55880000D03*
X197485000Y-53340000D03*
X197485000Y-50800000D03*
X197485000Y-48260000D03*
X197485000Y-45720000D03*
X184785000Y-68580000D03*
X187325000Y-68580000D03*
X189865000Y-68580000D03*
D10*
X46355000Y-89535000D03*
X56515000Y-89535000D03*
D11*
X51435000Y-89535000D03*
X89535000Y-108585000D03*
D10*
X84455000Y-108585000D03*
X94615000Y-108585000D03*
X160655000Y-108585000D03*
X170815000Y-108585000D03*
D11*
X165735000Y-108585000D03*
D22*
X188595000Y-76560000D03*
D23*
X187325000Y-76560000D03*
X186055000Y-76560000D03*
D24*
X189865000Y-134955000D03*
X189865000Y-97455000D03*
M02*
