M48
; DRILL file {KiCad (6.0.1)} date Tue Apr  5 18:43:47 2022
; FORMAT={-:-/ absolute / metric / decimal}
; #@! TF.CreationDate,2022-04-05T18:43:47+02:00
; #@! TF.GenerationSoftware,Kicad,Pcbnew,(6.0.1)
; #@! TF.FileFunction,NonPlated,1,2,NPTH
FMAT,2
METRIC
; #@! TA.AperFunction,NonPlated,NPTH,ComponentDrill
T1C1.750
; #@! TA.AperFunction,NonPlated,NPTH,ComponentDrill
T2C2.200
; #@! TA.AperFunction,NonPlated,NPTH,ComponentDrill
T3C3.048
; #@! TA.AperFunction,NonPlated,NPTH,ComponentDrill
T4C3.988
%
G90
G05
T1
X46.355Y-70.485
X46.355Y-89.535
X46.355Y-108.585
X46.355Y-127.635
X56.515Y-70.485
X56.515Y-89.535
X56.515Y-108.585
X56.515Y-127.635
X65.405Y-51.435
X65.405Y-70.485
X65.405Y-89.535
X65.405Y-108.585
X65.405Y-127.635
X75.565Y-51.435
X75.565Y-70.485
X75.565Y-89.535
X75.565Y-108.585
X75.565Y-127.635
X84.455Y-51.435
X84.455Y-70.485
X84.455Y-89.535
X84.455Y-108.585
X84.455Y-127.635
X94.615Y-51.435
X94.615Y-70.485
X94.615Y-89.535
X94.615Y-108.585
X94.615Y-127.635
X103.505Y-51.435
X103.505Y-70.485
X103.505Y-89.535
X103.505Y-108.585
X103.505Y-127.635
X113.665Y-51.435
X113.665Y-70.485
X113.665Y-89.535
X113.665Y-108.585
X113.665Y-127.635
X122.555Y-51.435
X122.555Y-70.485
X122.555Y-89.535
X122.555Y-108.585
X122.555Y-127.635
X132.715Y-51.435
X132.715Y-70.485
X132.715Y-89.535
X132.715Y-108.585
X132.715Y-127.635
X141.605Y-51.435
X141.605Y-70.485
X141.605Y-89.535
X141.605Y-108.585
X141.609Y-127.627
X151.765Y-51.435
X151.765Y-70.485
X151.765Y-89.535
X151.765Y-108.585
X151.769Y-127.627
X160.655Y-51.435
X160.655Y-70.485
X160.655Y-89.535
X160.655Y-108.585
X160.655Y-127.635
X170.815Y-51.435
X170.815Y-70.485
X170.815Y-89.535
X170.815Y-108.585
X170.815Y-127.635
T2
X40.005Y-40.005
X40.005Y-139.065
X80.01Y-80.01
X80.01Y-99.06
X137.16Y-99.06
X198.755Y-40.005
X198.755Y-139.065
T3
X127.639Y-120.642
X165.739Y-120.642
T4
X51.435Y-70.485
X51.435Y-89.535
X51.435Y-108.585
X51.435Y-127.635
X70.485Y-51.435
X70.485Y-70.485
X70.485Y-89.535
X70.485Y-108.585
X70.485Y-127.635
X89.535Y-51.435
X89.535Y-70.485
X89.535Y-89.535
X89.535Y-108.585
X89.535Y-127.635
X108.585Y-51.435
X108.585Y-70.485
X108.585Y-89.535
X108.585Y-108.585
X108.585Y-127.635
X127.635Y-51.435
X127.635Y-70.485
X127.635Y-89.535
X127.635Y-108.585
X127.635Y-127.635
X127.639Y-135.882
X146.685Y-51.435
X146.685Y-70.485
X146.685Y-89.535
X146.685Y-108.585
X146.689Y-127.627
X165.735Y-51.435
X165.735Y-70.485
X165.735Y-89.535
X165.735Y-108.585
X165.735Y-127.635
X165.739Y-135.882
T0
M30
