M48
; DRILL file {KiCad (6.0.1)} date Tue Apr  5 18:43:47 2022
; FORMAT={-:-/ absolute / metric / decimal}
; #@! TF.CreationDate,2022-04-05T18:43:47+02:00
; #@! TF.GenerationSoftware,Kicad,Pcbnew,(6.0.1)
; #@! TF.FileFunction,Plated,1,2,PTH
FMAT,2
METRIC
; #@! TA.AperFunction,Plated,PTH,ViaDrill
T1C0.400
; #@! TA.AperFunction,Plated,PTH,ViaDrill
T2C0.600
; #@! TA.AperFunction,Plated,PTH,ComponentDrill
T3C0.813
; #@! TA.AperFunction,Plated,PTH,ComponentDrill
T4C1.000
; #@! TA.AperFunction,Plated,PTH,ComponentDrill
T5C1.092
; #@! TA.AperFunction,Plated,PTH,ComponentDrill
T6C1.100
; #@! TA.AperFunction,Plated,PTH,ComponentDrill
T7C1.400
; #@! TA.AperFunction,Plated,PTH,ComponentDrill
T8C1.470
; #@! TA.AperFunction,Plated,PTH,ComponentDrill
T9C2.000
%
G90
G05
T1
X41.91Y-49.53
X41.91Y-52.637
X41.91Y-57.15
X43.18Y-46.355
X44.45Y-59.055
X44.45Y-116.205
X55.245Y-59.69
X65.405Y-60.96
X99.365Y-116.51
X99.365Y-118.618
X102.87Y-114.808
X102.87Y-118.745
X108.585Y-116.84
X108.585Y-118.745
X117.475Y-58.42
X117.475Y-60.96
X146.685Y-114.3
X147.32Y-120.65
X147.955Y-115.57
X149.86Y-120.65
X172.085Y-118.745
X175.26Y-59.69
X175.26Y-64.77
X176.53Y-64.77
X177.8Y-64.77
X178.345Y-58.965
X179.07Y-64.77
X180.185Y-117.63
X187.96Y-80.645
T2
X102.235Y-62.865
X103.124Y-59.182
X145.57Y-58.42
X145.57Y-60.805
X175.26Y-56.515
X176.53Y-57.15
X179.705Y-52.324
T3
X186.045Y-83.82
X188.585Y-83.82
X191.125Y-83.82
X193.665Y-83.82
T4
X43.92Y-48.935
X43.92Y-51.435
X43.92Y-53.935
T5
X182.245Y-45.802
X182.245Y-48.342
X182.245Y-50.882
X182.245Y-53.422
X182.245Y-55.962
X182.245Y-58.502
X182.245Y-61.042
X182.245Y-63.582
X182.245Y-66.122
X182.245Y-68.662
X182.245Y-71.202
X182.245Y-73.742
X184.785Y-68.662
X187.325Y-68.662
X189.865Y-68.662
X197.485Y-45.802
X197.485Y-48.342
X197.485Y-50.882
X197.485Y-53.422
X197.485Y-55.962
X197.485Y-58.502
X197.485Y-61.042
X197.485Y-63.582
X197.485Y-66.122
X197.485Y-68.662
X197.485Y-71.202
X197.485Y-73.742
T6
X186.615Y-89.19
X186.615Y-93.69
X193.115Y-89.19
X193.115Y-93.69
T7
X189.865Y-97.455
X189.865Y-134.955
T8
X47.625Y-67.945
X47.625Y-86.995
X47.625Y-106.045
X47.625Y-125.095
X48.935Y-66.485
X48.935Y-85.535
X48.935Y-104.585
X48.935Y-123.635
X53.935Y-65.985
X53.935Y-85.035
X53.935Y-104.085
X53.935Y-123.135
X53.975Y-65.405
X53.975Y-84.455
X53.975Y-103.505
X53.975Y-122.555
X66.675Y-48.895
X66.675Y-67.945
X66.675Y-86.995
X66.675Y-106.045
X66.675Y-125.095
X67.985Y-47.435
X67.985Y-66.485
X67.985Y-85.535
X67.985Y-104.585
X67.985Y-123.635
X72.985Y-46.935
X72.985Y-65.985
X72.985Y-85.035
X72.985Y-104.085
X72.985Y-123.135
X73.025Y-46.355
X73.025Y-65.405
X73.025Y-84.455
X73.025Y-103.505
X73.025Y-122.555
X85.725Y-48.895
X85.725Y-67.945
X85.725Y-86.995
X85.725Y-106.045
X85.725Y-125.095
X87.035Y-47.435
X87.035Y-66.485
X87.035Y-85.535
X87.035Y-104.585
X87.035Y-123.635
X92.035Y-46.935
X92.035Y-65.985
X92.035Y-85.035
X92.035Y-104.085
X92.035Y-123.135
X92.075Y-46.355
X92.075Y-65.405
X92.075Y-84.455
X92.075Y-103.505
X92.075Y-122.555
X104.775Y-48.895
X104.775Y-67.945
X104.775Y-86.995
X104.775Y-106.045
X104.775Y-125.095
X106.085Y-47.435
X106.085Y-66.485
X106.085Y-85.535
X106.085Y-104.585
X106.085Y-123.635
X111.085Y-46.935
X111.085Y-65.985
X111.085Y-85.035
X111.085Y-104.085
X111.085Y-123.135
X111.125Y-46.355
X111.125Y-65.405
X111.125Y-84.455
X111.125Y-103.505
X111.125Y-122.555
X123.825Y-48.895
X123.825Y-67.945
X123.825Y-86.995
X123.825Y-106.045
X123.825Y-125.095
X125.135Y-47.435
X125.135Y-66.485
X125.135Y-85.535
X125.135Y-104.585
X125.135Y-123.635
X130.135Y-46.935
X130.135Y-65.985
X130.135Y-85.035
X130.135Y-104.085
X130.135Y-123.135
X130.175Y-46.355
X130.175Y-65.405
X130.175Y-84.455
X130.175Y-103.505
X130.175Y-122.555
X142.875Y-48.895
X142.875Y-67.945
X142.875Y-86.995
X142.875Y-106.045
X142.879Y-125.087
X144.185Y-47.435
X144.185Y-66.485
X144.185Y-85.535
X144.185Y-104.585
X144.189Y-123.627
X149.185Y-46.935
X149.185Y-65.985
X149.185Y-85.035
X149.185Y-104.085
X149.189Y-123.127
X149.225Y-46.355
X149.225Y-65.405
X149.225Y-84.455
X149.225Y-103.505
X149.229Y-122.547
X161.925Y-48.895
X161.925Y-67.945
X161.925Y-86.995
X161.925Y-106.045
X161.925Y-125.095
X163.235Y-47.435
X163.235Y-66.485
X163.235Y-85.535
X163.235Y-104.585
X163.235Y-123.635
X168.235Y-46.935
X168.235Y-65.985
X168.235Y-85.035
X168.235Y-104.085
X168.235Y-123.135
X168.275Y-46.355
X168.275Y-65.405
X168.275Y-84.455
X168.275Y-103.505
X168.275Y-122.555
T9
X51.17Y-45.835G85X51.67Y-45.835
G05
X51.17Y-57.035G85X51.67Y-57.035
G05
T0
M30
