%FSLAX45Y45*%
G04 Gerber Fmt 4.5, Leading zero omitted, Abs format (unit mm)*
G04 Created by KiCad (PCBNEW (6.0.1)) date 2022-04-05 18:44:09*
%MOMM*%
%LPD*%
G01*
G04 APERTURE LIST*
%TA.AperFunction,Profile*%
%ADD10C,0.200000*%
%TD*%
%ADD11C,0.200000*%
%ADD12C,0.175000*%
%ADD13C,0.220000*%
%ADD14C,0.304800*%
%ADD15C,0.398780*%
G04 APERTURE END LIST*
D10*
X3873500Y-3492500D02*
X20002500Y-3492500D01*
X20383500Y-3873500D02*
G75*
G03*
X20002500Y-3492500I-381000J0D01*
G01*
X20383500Y-3873500D02*
X20383500Y-14033500D01*
X3492500Y-14033500D02*
X3492500Y-3873500D01*
X20002500Y-14414500D02*
X3873500Y-14414500D01*
X3873500Y-3492500D02*
G75*
G03*
X3492500Y-3873500I0J-381000D01*
G01*
X3492500Y-14033500D02*
G75*
G03*
X3873500Y-14414500I381000J0D01*
G01*
X20002500Y-14414500D02*
G75*
G03*
X20383500Y-14033500I0J381000D01*
G01*
D11*
D12*
X4548000Y-6961000D02*
X4723000Y-7136000D01*
X4723000Y-6961000D02*
X4548000Y-7136000D01*
X4548000Y-8866000D02*
X4723000Y-9041000D01*
X4723000Y-8866000D02*
X4548000Y-9041000D01*
X4548000Y-10771000D02*
X4723000Y-10946000D01*
X4723000Y-10771000D02*
X4548000Y-10946000D01*
X4548000Y-12676000D02*
X4723000Y-12851000D01*
X4723000Y-12676000D02*
X4548000Y-12851000D01*
X5564000Y-6961000D02*
X5739000Y-7136000D01*
X5739000Y-6961000D02*
X5564000Y-7136000D01*
X5564000Y-8866000D02*
X5739000Y-9041000D01*
X5739000Y-8866000D02*
X5564000Y-9041000D01*
X5564000Y-10771000D02*
X5739000Y-10946000D01*
X5739000Y-10771000D02*
X5564000Y-10946000D01*
X5564000Y-12676000D02*
X5739000Y-12851000D01*
X5739000Y-12676000D02*
X5564000Y-12851000D01*
X6453000Y-5056000D02*
X6628000Y-5231000D01*
X6628000Y-5056000D02*
X6453000Y-5231000D01*
X6453000Y-6961000D02*
X6628000Y-7136000D01*
X6628000Y-6961000D02*
X6453000Y-7136000D01*
X6453000Y-8866000D02*
X6628000Y-9041000D01*
X6628000Y-8866000D02*
X6453000Y-9041000D01*
X6453000Y-10771000D02*
X6628000Y-10946000D01*
X6628000Y-10771000D02*
X6453000Y-10946000D01*
X6453000Y-12676000D02*
X6628000Y-12851000D01*
X6628000Y-12676000D02*
X6453000Y-12851000D01*
X7469000Y-5056000D02*
X7644000Y-5231000D01*
X7644000Y-5056000D02*
X7469000Y-5231000D01*
X7469000Y-6961000D02*
X7644000Y-7136000D01*
X7644000Y-6961000D02*
X7469000Y-7136000D01*
X7469000Y-8866000D02*
X7644000Y-9041000D01*
X7644000Y-8866000D02*
X7469000Y-9041000D01*
X7469000Y-10771000D02*
X7644000Y-10946000D01*
X7644000Y-10771000D02*
X7469000Y-10946000D01*
X7469000Y-12676000D02*
X7644000Y-12851000D01*
X7644000Y-12676000D02*
X7469000Y-12851000D01*
X8358000Y-5056000D02*
X8533000Y-5231000D01*
X8533000Y-5056000D02*
X8358000Y-5231000D01*
X8358000Y-6961000D02*
X8533000Y-7136000D01*
X8533000Y-6961000D02*
X8358000Y-7136000D01*
X8358000Y-8866000D02*
X8533000Y-9041000D01*
X8533000Y-8866000D02*
X8358000Y-9041000D01*
X8358000Y-10771000D02*
X8533000Y-10946000D01*
X8533000Y-10771000D02*
X8358000Y-10946000D01*
X8358000Y-12676000D02*
X8533000Y-12851000D01*
X8533000Y-12676000D02*
X8358000Y-12851000D01*
X9374000Y-5056000D02*
X9549000Y-5231000D01*
X9549000Y-5056000D02*
X9374000Y-5231000D01*
X9374000Y-6961000D02*
X9549000Y-7136000D01*
X9549000Y-6961000D02*
X9374000Y-7136000D01*
X9374000Y-8866000D02*
X9549000Y-9041000D01*
X9549000Y-8866000D02*
X9374000Y-9041000D01*
X9374000Y-10771000D02*
X9549000Y-10946000D01*
X9549000Y-10771000D02*
X9374000Y-10946000D01*
X9374000Y-12676000D02*
X9549000Y-12851000D01*
X9549000Y-12676000D02*
X9374000Y-12851000D01*
X10263000Y-5056000D02*
X10438000Y-5231000D01*
X10438000Y-5056000D02*
X10263000Y-5231000D01*
X10263000Y-6961000D02*
X10438000Y-7136000D01*
X10438000Y-6961000D02*
X10263000Y-7136000D01*
X10263000Y-8866000D02*
X10438000Y-9041000D01*
X10438000Y-8866000D02*
X10263000Y-9041000D01*
X10263000Y-10771000D02*
X10438000Y-10946000D01*
X10438000Y-10771000D02*
X10263000Y-10946000D01*
X10263000Y-12676000D02*
X10438000Y-12851000D01*
X10438000Y-12676000D02*
X10263000Y-12851000D01*
X11279000Y-5056000D02*
X11454000Y-5231000D01*
X11454000Y-5056000D02*
X11279000Y-5231000D01*
X11279000Y-6961000D02*
X11454000Y-7136000D01*
X11454000Y-6961000D02*
X11279000Y-7136000D01*
X11279000Y-8866000D02*
X11454000Y-9041000D01*
X11454000Y-8866000D02*
X11279000Y-9041000D01*
X11279000Y-10771000D02*
X11454000Y-10946000D01*
X11454000Y-10771000D02*
X11279000Y-10946000D01*
X11279000Y-12676000D02*
X11454000Y-12851000D01*
X11454000Y-12676000D02*
X11279000Y-12851000D01*
X12168000Y-5056000D02*
X12343000Y-5231000D01*
X12343000Y-5056000D02*
X12168000Y-5231000D01*
X12168000Y-6961000D02*
X12343000Y-7136000D01*
X12343000Y-6961000D02*
X12168000Y-7136000D01*
X12168000Y-8866000D02*
X12343000Y-9041000D01*
X12343000Y-8866000D02*
X12168000Y-9041000D01*
X12168000Y-10771000D02*
X12343000Y-10946000D01*
X12343000Y-10771000D02*
X12168000Y-10946000D01*
X12168000Y-12676000D02*
X12343000Y-12851000D01*
X12343000Y-12676000D02*
X12168000Y-12851000D01*
X13184000Y-5056000D02*
X13359000Y-5231000D01*
X13359000Y-5056000D02*
X13184000Y-5231000D01*
X13184000Y-6961000D02*
X13359000Y-7136000D01*
X13359000Y-6961000D02*
X13184000Y-7136000D01*
X13184000Y-8866000D02*
X13359000Y-9041000D01*
X13359000Y-8866000D02*
X13184000Y-9041000D01*
X13184000Y-10771000D02*
X13359000Y-10946000D01*
X13359000Y-10771000D02*
X13184000Y-10946000D01*
X13184000Y-12676000D02*
X13359000Y-12851000D01*
X13359000Y-12676000D02*
X13184000Y-12851000D01*
X14073000Y-5056000D02*
X14248000Y-5231000D01*
X14248000Y-5056000D02*
X14073000Y-5231000D01*
X14073000Y-6961000D02*
X14248000Y-7136000D01*
X14248000Y-6961000D02*
X14073000Y-7136000D01*
X14073000Y-8866000D02*
X14248000Y-9041000D01*
X14248000Y-8866000D02*
X14073000Y-9041000D01*
X14073000Y-10771000D02*
X14248000Y-10946000D01*
X14248000Y-10771000D02*
X14073000Y-10946000D01*
X14073440Y-12675220D02*
X14248440Y-12850220D01*
X14248440Y-12675220D02*
X14073440Y-12850220D01*
X15089000Y-5056000D02*
X15264000Y-5231000D01*
X15264000Y-5056000D02*
X15089000Y-5231000D01*
X15089000Y-6961000D02*
X15264000Y-7136000D01*
X15264000Y-6961000D02*
X15089000Y-7136000D01*
X15089000Y-8866000D02*
X15264000Y-9041000D01*
X15264000Y-8866000D02*
X15089000Y-9041000D01*
X15089000Y-10771000D02*
X15264000Y-10946000D01*
X15264000Y-10771000D02*
X15089000Y-10946000D01*
X15089440Y-12675220D02*
X15264440Y-12850220D01*
X15264440Y-12675220D02*
X15089440Y-12850220D01*
X15978000Y-5056000D02*
X16153000Y-5231000D01*
X16153000Y-5056000D02*
X15978000Y-5231000D01*
X15978000Y-6961000D02*
X16153000Y-7136000D01*
X16153000Y-6961000D02*
X15978000Y-7136000D01*
X15978000Y-8866000D02*
X16153000Y-9041000D01*
X16153000Y-8866000D02*
X15978000Y-9041000D01*
X15978000Y-10771000D02*
X16153000Y-10946000D01*
X16153000Y-10771000D02*
X15978000Y-10946000D01*
X15978000Y-12676000D02*
X16153000Y-12851000D01*
X16153000Y-12676000D02*
X15978000Y-12851000D01*
X16994000Y-5056000D02*
X17169000Y-5231000D01*
X17169000Y-5056000D02*
X16994000Y-5231000D01*
X16994000Y-6961000D02*
X17169000Y-7136000D01*
X17169000Y-6961000D02*
X16994000Y-7136000D01*
X16994000Y-8866000D02*
X17169000Y-9041000D01*
X17169000Y-8866000D02*
X16994000Y-9041000D01*
X16994000Y-10771000D02*
X17169000Y-10946000D01*
X17169000Y-10771000D02*
X16994000Y-10946000D01*
X16994000Y-12676000D02*
X17169000Y-12851000D01*
X17169000Y-12676000D02*
X16994000Y-12851000D01*
D13*
X4110500Y-4000500D02*
G75*
G03*
X4110500Y-4000500I-110000J0D01*
G01*
X4110500Y-13906500D02*
G75*
G03*
X4110500Y-13906500I-110000J0D01*
G01*
X8111000Y-8001000D02*
G75*
G03*
X8111000Y-8001000I-110000J0D01*
G01*
X8111000Y-9906000D02*
G75*
G03*
X8111000Y-9906000I-110000J0D01*
G01*
X13826000Y-9906000D02*
G75*
G03*
X13826000Y-9906000I-110000J0D01*
G01*
X19985500Y-4000500D02*
G75*
G03*
X19985500Y-4000500I-110000J0D01*
G01*
X19985500Y-13906500D02*
G75*
G03*
X19985500Y-13906500I-110000J0D01*
G01*
D14*
X12763940Y-11911820D02*
X12763940Y-12216620D01*
X12611540Y-12064220D02*
X12916340Y-12064220D01*
X16573940Y-11911820D02*
X16573940Y-12216620D01*
X16421540Y-12064220D02*
X16726340Y-12064220D01*
D15*
X5284491Y-7189491D02*
X5284491Y-6907509D01*
X5002509Y-6907509D01*
X5002509Y-7189491D01*
X5284491Y-7189491D01*
X5284491Y-9094491D02*
X5284491Y-8812509D01*
X5002509Y-8812509D01*
X5002509Y-9094491D01*
X5284491Y-9094491D01*
X5284491Y-10999491D02*
X5284491Y-10717509D01*
X5002509Y-10717509D01*
X5002509Y-10999491D01*
X5284491Y-10999491D01*
X5284491Y-12904491D02*
X5284491Y-12622509D01*
X5002509Y-12622509D01*
X5002509Y-12904491D01*
X5284491Y-12904491D01*
X7189491Y-5284491D02*
X7189491Y-5002509D01*
X6907509Y-5002509D01*
X6907509Y-5284491D01*
X7189491Y-5284491D01*
X7189491Y-7189491D02*
X7189491Y-6907509D01*
X6907509Y-6907509D01*
X6907509Y-7189491D01*
X7189491Y-7189491D01*
X7189491Y-9094491D02*
X7189491Y-8812509D01*
X6907509Y-8812509D01*
X6907509Y-9094491D01*
X7189491Y-9094491D01*
X7189491Y-10999491D02*
X7189491Y-10717509D01*
X6907509Y-10717509D01*
X6907509Y-10999491D01*
X7189491Y-10999491D01*
X7189491Y-12904491D02*
X7189491Y-12622509D01*
X6907509Y-12622509D01*
X6907509Y-12904491D01*
X7189491Y-12904491D01*
X9094491Y-5284491D02*
X9094491Y-5002509D01*
X8812509Y-5002509D01*
X8812509Y-5284491D01*
X9094491Y-5284491D01*
X9094491Y-7189491D02*
X9094491Y-6907509D01*
X8812509Y-6907509D01*
X8812509Y-7189491D01*
X9094491Y-7189491D01*
X9094491Y-9094491D02*
X9094491Y-8812509D01*
X8812509Y-8812509D01*
X8812509Y-9094491D01*
X9094491Y-9094491D01*
X9094491Y-10999491D02*
X9094491Y-10717509D01*
X8812509Y-10717509D01*
X8812509Y-10999491D01*
X9094491Y-10999491D01*
X9094491Y-12904491D02*
X9094491Y-12622509D01*
X8812509Y-12622509D01*
X8812509Y-12904491D01*
X9094491Y-12904491D01*
X10999491Y-5284491D02*
X10999491Y-5002509D01*
X10717509Y-5002509D01*
X10717509Y-5284491D01*
X10999491Y-5284491D01*
X10999491Y-7189491D02*
X10999491Y-6907509D01*
X10717509Y-6907509D01*
X10717509Y-7189491D01*
X10999491Y-7189491D01*
X10999491Y-9094491D02*
X10999491Y-8812509D01*
X10717509Y-8812509D01*
X10717509Y-9094491D01*
X10999491Y-9094491D01*
X10999491Y-10999491D02*
X10999491Y-10717509D01*
X10717509Y-10717509D01*
X10717509Y-10999491D01*
X10999491Y-10999491D01*
X10999491Y-12904491D02*
X10999491Y-12622509D01*
X10717509Y-12622509D01*
X10717509Y-12904491D01*
X10999491Y-12904491D01*
X12904491Y-5284491D02*
X12904491Y-5002509D01*
X12622509Y-5002509D01*
X12622509Y-5284491D01*
X12904491Y-5284491D01*
X12904491Y-7189491D02*
X12904491Y-6907509D01*
X12622509Y-6907509D01*
X12622509Y-7189491D01*
X12904491Y-7189491D01*
X12904491Y-9094491D02*
X12904491Y-8812509D01*
X12622509Y-8812509D01*
X12622509Y-9094491D01*
X12904491Y-9094491D01*
X12904491Y-10999491D02*
X12904491Y-10717509D01*
X12622509Y-10717509D01*
X12622509Y-10999491D01*
X12904491Y-10999491D01*
X12904491Y-12904491D02*
X12904491Y-12622509D01*
X12622509Y-12622509D01*
X12622509Y-12904491D01*
X12904491Y-12904491D01*
X12904931Y-13729211D02*
X12904931Y-13447229D01*
X12622949Y-13447229D01*
X12622949Y-13729211D01*
X12904931Y-13729211D01*
X14809491Y-5284491D02*
X14809491Y-5002509D01*
X14527509Y-5002509D01*
X14527509Y-5284491D01*
X14809491Y-5284491D01*
X14809491Y-7189491D02*
X14809491Y-6907509D01*
X14527509Y-6907509D01*
X14527509Y-7189491D01*
X14809491Y-7189491D01*
X14809491Y-9094491D02*
X14809491Y-8812509D01*
X14527509Y-8812509D01*
X14527509Y-9094491D01*
X14809491Y-9094491D01*
X14809491Y-10999491D02*
X14809491Y-10717509D01*
X14527509Y-10717509D01*
X14527509Y-10999491D01*
X14809491Y-10999491D01*
X14809931Y-12903711D02*
X14809931Y-12621729D01*
X14527949Y-12621729D01*
X14527949Y-12903711D01*
X14809931Y-12903711D01*
X16714491Y-5284491D02*
X16714491Y-5002509D01*
X16432509Y-5002509D01*
X16432509Y-5284491D01*
X16714491Y-5284491D01*
X16714491Y-7189491D02*
X16714491Y-6907509D01*
X16432509Y-6907509D01*
X16432509Y-7189491D01*
X16714491Y-7189491D01*
X16714491Y-9094491D02*
X16714491Y-8812509D01*
X16432509Y-8812509D01*
X16432509Y-9094491D01*
X16714491Y-9094491D01*
X16714491Y-10999491D02*
X16714491Y-10717509D01*
X16432509Y-10717509D01*
X16432509Y-10999491D01*
X16714491Y-10999491D01*
X16714491Y-12904491D02*
X16714491Y-12622509D01*
X16432509Y-12622509D01*
X16432509Y-12904491D01*
X16714491Y-12904491D01*
X16714931Y-13729211D02*
X16714931Y-13447229D01*
X16432949Y-13447229D01*
X16432949Y-13729211D01*
X16714931Y-13729211D01*
D11*
X3740119Y-14734976D02*
X3740119Y-14534976D01*
X3787738Y-14534976D01*
X3816309Y-14544500D01*
X3835357Y-14563548D01*
X3844881Y-14582595D01*
X3854405Y-14620690D01*
X3854405Y-14649262D01*
X3844881Y-14687357D01*
X3835357Y-14706405D01*
X3816309Y-14725452D01*
X3787738Y-14734976D01*
X3740119Y-14734976D01*
X3940119Y-14734976D02*
X3940119Y-14601643D01*
X3940119Y-14639738D02*
X3949643Y-14620690D01*
X3959167Y-14611167D01*
X3978214Y-14601643D01*
X3997262Y-14601643D01*
X4063928Y-14734976D02*
X4063928Y-14601643D01*
X4063928Y-14534976D02*
X4054405Y-14544500D01*
X4063928Y-14554024D01*
X4073452Y-14544500D01*
X4063928Y-14534976D01*
X4063928Y-14554024D01*
X4187738Y-14734976D02*
X4168690Y-14725452D01*
X4159167Y-14706405D01*
X4159167Y-14534976D01*
X4292500Y-14734976D02*
X4273452Y-14725452D01*
X4263929Y-14706405D01*
X4263929Y-14534976D01*
X4521071Y-14734976D02*
X4521071Y-14534976D01*
X4587738Y-14677833D01*
X4654405Y-14534976D01*
X4654405Y-14734976D01*
X4835357Y-14734976D02*
X4835357Y-14630214D01*
X4825833Y-14611167D01*
X4806786Y-14601643D01*
X4768690Y-14601643D01*
X4749643Y-14611167D01*
X4835357Y-14725452D02*
X4816310Y-14734976D01*
X4768690Y-14734976D01*
X4749643Y-14725452D01*
X4740119Y-14706405D01*
X4740119Y-14687357D01*
X4749643Y-14668309D01*
X4768690Y-14658786D01*
X4816310Y-14658786D01*
X4835357Y-14649262D01*
X4930595Y-14601643D02*
X4930595Y-14801643D01*
X4930595Y-14611167D02*
X4949643Y-14601643D01*
X4987738Y-14601643D01*
X5006786Y-14611167D01*
X5016310Y-14620690D01*
X5025833Y-14639738D01*
X5025833Y-14696881D01*
X5016310Y-14715928D01*
X5006786Y-14725452D01*
X4987738Y-14734976D01*
X4949643Y-14734976D01*
X4930595Y-14725452D01*
X5111548Y-14715928D02*
X5121071Y-14725452D01*
X5111548Y-14734976D01*
X5102024Y-14725452D01*
X5111548Y-14715928D01*
X5111548Y-14734976D01*
X5111548Y-14611167D02*
X5121071Y-14620690D01*
X5111548Y-14630214D01*
X5102024Y-14620690D01*
X5111548Y-14611167D01*
X5111548Y-14630214D01*
D12*
X3307500Y-14977000D02*
X3482500Y-15152000D01*
X3482500Y-14977000D02*
X3307500Y-15152000D01*
D11*
X3844881Y-15154976D02*
X3730595Y-15154976D01*
X3787738Y-15154976D02*
X3787738Y-14954976D01*
X3768690Y-14983548D01*
X3749643Y-15002595D01*
X3730595Y-15012119D01*
X3930595Y-15135928D02*
X3940119Y-15145452D01*
X3930595Y-15154976D01*
X3921071Y-15145452D01*
X3930595Y-15135928D01*
X3930595Y-15154976D01*
X4006786Y-14954976D02*
X4140119Y-14954976D01*
X4054405Y-15154976D01*
X4311548Y-14954976D02*
X4216310Y-14954976D01*
X4206786Y-15050214D01*
X4216310Y-15040690D01*
X4235357Y-15031167D01*
X4282976Y-15031167D01*
X4302024Y-15040690D01*
X4311548Y-15050214D01*
X4321071Y-15069262D01*
X4321071Y-15116881D01*
X4311548Y-15135928D01*
X4302024Y-15145452D01*
X4282976Y-15154976D01*
X4235357Y-15154976D01*
X4216310Y-15145452D01*
X4206786Y-15135928D01*
X4444881Y-14954976D02*
X4463929Y-14954976D01*
X4482976Y-14964500D01*
X4492500Y-14974024D01*
X4502024Y-14993071D01*
X4511548Y-15031167D01*
X4511548Y-15078786D01*
X4502024Y-15116881D01*
X4492500Y-15135928D01*
X4482976Y-15145452D01*
X4463929Y-15154976D01*
X4444881Y-15154976D01*
X4425833Y-15145452D01*
X4416310Y-15135928D01*
X4406786Y-15116881D01*
X4397262Y-15078786D01*
X4397262Y-15031167D01*
X4406786Y-14993071D01*
X4416310Y-14974024D01*
X4425833Y-14964500D01*
X4444881Y-14954976D01*
X4597262Y-15154976D02*
X4597262Y-15021643D01*
X4597262Y-15040690D02*
X4606786Y-15031167D01*
X4625833Y-15021643D01*
X4654405Y-15021643D01*
X4673452Y-15031167D01*
X4682976Y-15050214D01*
X4682976Y-15154976D01*
X4682976Y-15050214D02*
X4692500Y-15031167D01*
X4711548Y-15021643D01*
X4740119Y-15021643D01*
X4759167Y-15031167D01*
X4768690Y-15050214D01*
X4768690Y-15154976D01*
X4863929Y-15154976D02*
X4863929Y-15021643D01*
X4863929Y-15040690D02*
X4873452Y-15031167D01*
X4892500Y-15021643D01*
X4921071Y-15021643D01*
X4940119Y-15031167D01*
X4949643Y-15050214D01*
X4949643Y-15154976D01*
X4949643Y-15050214D02*
X4959167Y-15031167D01*
X4978214Y-15021643D01*
X5006786Y-15021643D01*
X5025833Y-15031167D01*
X5035357Y-15050214D01*
X5035357Y-15154976D01*
X5425833Y-14945452D02*
X5254405Y-15202595D01*
X5682976Y-14954976D02*
X5702024Y-14954976D01*
X5721071Y-14964500D01*
X5730595Y-14974024D01*
X5740119Y-14993071D01*
X5749643Y-15031167D01*
X5749643Y-15078786D01*
X5740119Y-15116881D01*
X5730595Y-15135928D01*
X5721071Y-15145452D01*
X5702024Y-15154976D01*
X5682976Y-15154976D01*
X5663928Y-15145452D01*
X5654405Y-15135928D01*
X5644881Y-15116881D01*
X5635357Y-15078786D01*
X5635357Y-15031167D01*
X5644881Y-14993071D01*
X5654405Y-14974024D01*
X5663928Y-14964500D01*
X5682976Y-14954976D01*
X5835357Y-15135928D02*
X5844881Y-15145452D01*
X5835357Y-15154976D01*
X5825833Y-15145452D01*
X5835357Y-15135928D01*
X5835357Y-15154976D01*
X5968690Y-14954976D02*
X5987738Y-14954976D01*
X6006786Y-14964500D01*
X6016309Y-14974024D01*
X6025833Y-14993071D01*
X6035357Y-15031167D01*
X6035357Y-15078786D01*
X6025833Y-15116881D01*
X6016309Y-15135928D01*
X6006786Y-15145452D01*
X5987738Y-15154976D01*
X5968690Y-15154976D01*
X5949643Y-15145452D01*
X5940119Y-15135928D01*
X5930595Y-15116881D01*
X5921071Y-15078786D01*
X5921071Y-15031167D01*
X5930595Y-14993071D01*
X5940119Y-14974024D01*
X5949643Y-14964500D01*
X5968690Y-14954976D01*
X6206786Y-14954976D02*
X6168690Y-14954976D01*
X6149643Y-14964500D01*
X6140119Y-14974024D01*
X6121071Y-15002595D01*
X6111548Y-15040690D01*
X6111548Y-15116881D01*
X6121071Y-15135928D01*
X6130595Y-15145452D01*
X6149643Y-15154976D01*
X6187738Y-15154976D01*
X6206786Y-15145452D01*
X6216309Y-15135928D01*
X6225833Y-15116881D01*
X6225833Y-15069262D01*
X6216309Y-15050214D01*
X6206786Y-15040690D01*
X6187738Y-15031167D01*
X6149643Y-15031167D01*
X6130595Y-15040690D01*
X6121071Y-15050214D01*
X6111548Y-15069262D01*
X6340119Y-15040690D02*
X6321071Y-15031167D01*
X6311548Y-15021643D01*
X6302024Y-15002595D01*
X6302024Y-14993071D01*
X6311548Y-14974024D01*
X6321071Y-14964500D01*
X6340119Y-14954976D01*
X6378214Y-14954976D01*
X6397262Y-14964500D01*
X6406786Y-14974024D01*
X6416309Y-14993071D01*
X6416309Y-15002595D01*
X6406786Y-15021643D01*
X6397262Y-15031167D01*
X6378214Y-15040690D01*
X6340119Y-15040690D01*
X6321071Y-15050214D01*
X6311548Y-15059738D01*
X6302024Y-15078786D01*
X6302024Y-15116881D01*
X6311548Y-15135928D01*
X6321071Y-15145452D01*
X6340119Y-15154976D01*
X6378214Y-15154976D01*
X6397262Y-15145452D01*
X6406786Y-15135928D01*
X6416309Y-15116881D01*
X6416309Y-15078786D01*
X6406786Y-15059738D01*
X6397262Y-15050214D01*
X6378214Y-15040690D01*
X6511548Y-15154976D02*
X6549643Y-15154976D01*
X6568690Y-15145452D01*
X6578214Y-15135928D01*
X6597262Y-15107357D01*
X6606786Y-15069262D01*
X6606786Y-14993071D01*
X6597262Y-14974024D01*
X6587738Y-14964500D01*
X6568690Y-14954976D01*
X6530595Y-14954976D01*
X6511548Y-14964500D01*
X6502024Y-14974024D01*
X6492500Y-14993071D01*
X6492500Y-15040690D01*
X6502024Y-15059738D01*
X6511548Y-15069262D01*
X6530595Y-15078786D01*
X6568690Y-15078786D01*
X6587738Y-15069262D01*
X6597262Y-15059738D01*
X6606786Y-15040690D01*
X6682976Y-14954976D02*
X6682976Y-14993071D01*
X6759167Y-14954976D02*
X6759167Y-14993071D01*
X7054405Y-15231167D02*
X7044881Y-15221643D01*
X7025833Y-15193071D01*
X7016309Y-15174024D01*
X7006786Y-15145452D01*
X6997262Y-15097833D01*
X6997262Y-15059738D01*
X7006786Y-15012119D01*
X7016309Y-14983548D01*
X7025833Y-14964500D01*
X7044881Y-14935928D01*
X7054405Y-14926405D01*
X7216309Y-14954976D02*
X7178214Y-14954976D01*
X7159167Y-14964500D01*
X7149643Y-14974024D01*
X7130595Y-15002595D01*
X7121071Y-15040690D01*
X7121071Y-15116881D01*
X7130595Y-15135928D01*
X7140119Y-15145452D01*
X7159167Y-15154976D01*
X7197262Y-15154976D01*
X7216309Y-15145452D01*
X7225833Y-15135928D01*
X7235357Y-15116881D01*
X7235357Y-15069262D01*
X7225833Y-15050214D01*
X7216309Y-15040690D01*
X7197262Y-15031167D01*
X7159167Y-15031167D01*
X7140119Y-15040690D01*
X7130595Y-15050214D01*
X7121071Y-15069262D01*
X7349643Y-15040690D02*
X7330595Y-15031167D01*
X7321071Y-15021643D01*
X7311548Y-15002595D01*
X7311548Y-14993071D01*
X7321071Y-14974024D01*
X7330595Y-14964500D01*
X7349643Y-14954976D01*
X7387738Y-14954976D01*
X7406786Y-14964500D01*
X7416309Y-14974024D01*
X7425833Y-14993071D01*
X7425833Y-15002595D01*
X7416309Y-15021643D01*
X7406786Y-15031167D01*
X7387738Y-15040690D01*
X7349643Y-15040690D01*
X7330595Y-15050214D01*
X7321071Y-15059738D01*
X7311548Y-15078786D01*
X7311548Y-15116881D01*
X7321071Y-15135928D01*
X7330595Y-15145452D01*
X7349643Y-15154976D01*
X7387738Y-15154976D01*
X7406786Y-15145452D01*
X7416309Y-15135928D01*
X7425833Y-15116881D01*
X7425833Y-15078786D01*
X7416309Y-15059738D01*
X7406786Y-15050214D01*
X7387738Y-15040690D01*
X7663928Y-15154976D02*
X7663928Y-14954976D01*
X7749643Y-15154976D02*
X7749643Y-15050214D01*
X7740119Y-15031167D01*
X7721071Y-15021643D01*
X7692500Y-15021643D01*
X7673452Y-15031167D01*
X7663928Y-15040690D01*
X7873452Y-15154976D02*
X7854405Y-15145452D01*
X7844881Y-15135928D01*
X7835357Y-15116881D01*
X7835357Y-15059738D01*
X7844881Y-15040690D01*
X7854405Y-15031167D01*
X7873452Y-15021643D01*
X7902024Y-15021643D01*
X7921071Y-15031167D01*
X7930595Y-15040690D01*
X7940119Y-15059738D01*
X7940119Y-15116881D01*
X7930595Y-15135928D01*
X7921071Y-15145452D01*
X7902024Y-15154976D01*
X7873452Y-15154976D01*
X8054405Y-15154976D02*
X8035357Y-15145452D01*
X8025833Y-15126405D01*
X8025833Y-14954976D01*
X8206786Y-15145452D02*
X8187738Y-15154976D01*
X8149643Y-15154976D01*
X8130595Y-15145452D01*
X8121071Y-15126405D01*
X8121071Y-15050214D01*
X8130595Y-15031167D01*
X8149643Y-15021643D01*
X8187738Y-15021643D01*
X8206786Y-15031167D01*
X8216309Y-15050214D01*
X8216309Y-15069262D01*
X8121071Y-15088309D01*
X8292500Y-15145452D02*
X8311548Y-15154976D01*
X8349643Y-15154976D01*
X8368690Y-15145452D01*
X8378214Y-15126405D01*
X8378214Y-15116881D01*
X8368690Y-15097833D01*
X8349643Y-15088309D01*
X8321071Y-15088309D01*
X8302024Y-15078786D01*
X8292500Y-15059738D01*
X8292500Y-15050214D01*
X8302024Y-15031167D01*
X8321071Y-15021643D01*
X8349643Y-15021643D01*
X8368690Y-15031167D01*
X8444881Y-15231167D02*
X8454405Y-15221643D01*
X8473452Y-15193071D01*
X8482976Y-15174024D01*
X8492500Y-15145452D01*
X8502024Y-15097833D01*
X8502024Y-15059738D01*
X8492500Y-15012119D01*
X8482976Y-14983548D01*
X8473452Y-14964500D01*
X8454405Y-14935928D01*
X8444881Y-14926405D01*
X8806786Y-15231167D02*
X8797262Y-15221643D01*
X8778214Y-15193071D01*
X8768690Y-15174024D01*
X8759167Y-15145452D01*
X8749643Y-15097833D01*
X8749643Y-15059738D01*
X8759167Y-15012119D01*
X8768690Y-14983548D01*
X8778214Y-14964500D01*
X8797262Y-14935928D01*
X8806786Y-14926405D01*
X8882976Y-15021643D02*
X8882976Y-15154976D01*
X8882976Y-15040690D02*
X8892500Y-15031167D01*
X8911548Y-15021643D01*
X8940119Y-15021643D01*
X8959167Y-15031167D01*
X8968690Y-15050214D01*
X8968690Y-15154976D01*
X9092500Y-15154976D02*
X9073452Y-15145452D01*
X9063929Y-15135928D01*
X9054405Y-15116881D01*
X9054405Y-15059738D01*
X9063929Y-15040690D01*
X9073452Y-15031167D01*
X9092500Y-15021643D01*
X9121071Y-15021643D01*
X9140119Y-15031167D01*
X9149643Y-15040690D01*
X9159167Y-15059738D01*
X9159167Y-15116881D01*
X9149643Y-15135928D01*
X9140119Y-15145452D01*
X9121071Y-15154976D01*
X9092500Y-15154976D01*
X9216310Y-15021643D02*
X9292500Y-15021643D01*
X9244881Y-14954976D02*
X9244881Y-15126405D01*
X9254405Y-15145452D01*
X9273452Y-15154976D01*
X9292500Y-15154976D01*
X9511548Y-15021643D02*
X9511548Y-15221643D01*
X9511548Y-15031167D02*
X9530595Y-15021643D01*
X9568690Y-15021643D01*
X9587738Y-15031167D01*
X9597262Y-15040690D01*
X9606786Y-15059738D01*
X9606786Y-15116881D01*
X9597262Y-15135928D01*
X9587738Y-15145452D01*
X9568690Y-15154976D01*
X9530595Y-15154976D01*
X9511548Y-15145452D01*
X9721071Y-15154976D02*
X9702024Y-15145452D01*
X9692500Y-15126405D01*
X9692500Y-14954976D01*
X9882976Y-15154976D02*
X9882976Y-15050214D01*
X9873452Y-15031167D01*
X9854405Y-15021643D01*
X9816310Y-15021643D01*
X9797262Y-15031167D01*
X9882976Y-15145452D02*
X9863929Y-15154976D01*
X9816310Y-15154976D01*
X9797262Y-15145452D01*
X9787738Y-15126405D01*
X9787738Y-15107357D01*
X9797262Y-15088309D01*
X9816310Y-15078786D01*
X9863929Y-15078786D01*
X9882976Y-15069262D01*
X9949643Y-15021643D02*
X10025833Y-15021643D01*
X9978214Y-14954976D02*
X9978214Y-15126405D01*
X9987738Y-15145452D01*
X10006786Y-15154976D01*
X10025833Y-15154976D01*
X10168690Y-15145452D02*
X10149643Y-15154976D01*
X10111548Y-15154976D01*
X10092500Y-15145452D01*
X10082976Y-15126405D01*
X10082976Y-15050214D01*
X10092500Y-15031167D01*
X10111548Y-15021643D01*
X10149643Y-15021643D01*
X10168690Y-15031167D01*
X10178214Y-15050214D01*
X10178214Y-15069262D01*
X10082976Y-15088309D01*
X10349643Y-15154976D02*
X10349643Y-14954976D01*
X10349643Y-15145452D02*
X10330595Y-15154976D01*
X10292500Y-15154976D01*
X10273452Y-15145452D01*
X10263929Y-15135928D01*
X10254405Y-15116881D01*
X10254405Y-15059738D01*
X10263929Y-15040690D01*
X10273452Y-15031167D01*
X10292500Y-15021643D01*
X10330595Y-15021643D01*
X10349643Y-15031167D01*
X10425833Y-15231167D02*
X10435357Y-15221643D01*
X10454405Y-15193071D01*
X10463929Y-15174024D01*
X10473452Y-15145452D01*
X10482976Y-15097833D01*
X10482976Y-15059738D01*
X10473452Y-15012119D01*
X10463929Y-14983548D01*
X10454405Y-14964500D01*
X10435357Y-14935928D01*
X10425833Y-14926405D01*
X3482500Y-15359500D02*
G75*
G03*
X3482500Y-15359500I-100000J0D01*
G01*
X3730595Y-15269024D02*
X3740119Y-15259500D01*
X3759167Y-15249976D01*
X3806786Y-15249976D01*
X3825833Y-15259500D01*
X3835357Y-15269024D01*
X3844881Y-15288071D01*
X3844881Y-15307119D01*
X3835357Y-15335690D01*
X3721071Y-15449976D01*
X3844881Y-15449976D01*
X3930595Y-15430928D02*
X3940119Y-15440452D01*
X3930595Y-15449976D01*
X3921071Y-15440452D01*
X3930595Y-15430928D01*
X3930595Y-15449976D01*
X4016309Y-15269024D02*
X4025833Y-15259500D01*
X4044881Y-15249976D01*
X4092500Y-15249976D01*
X4111548Y-15259500D01*
X4121071Y-15269024D01*
X4130595Y-15288071D01*
X4130595Y-15307119D01*
X4121071Y-15335690D01*
X4006786Y-15449976D01*
X4130595Y-15449976D01*
X4254405Y-15249976D02*
X4273452Y-15249976D01*
X4292500Y-15259500D01*
X4302024Y-15269024D01*
X4311548Y-15288071D01*
X4321071Y-15326167D01*
X4321071Y-15373786D01*
X4311548Y-15411881D01*
X4302024Y-15430928D01*
X4292500Y-15440452D01*
X4273452Y-15449976D01*
X4254405Y-15449976D01*
X4235357Y-15440452D01*
X4225833Y-15430928D01*
X4216310Y-15411881D01*
X4206786Y-15373786D01*
X4206786Y-15326167D01*
X4216310Y-15288071D01*
X4225833Y-15269024D01*
X4235357Y-15259500D01*
X4254405Y-15249976D01*
X4444881Y-15249976D02*
X4463929Y-15249976D01*
X4482976Y-15259500D01*
X4492500Y-15269024D01*
X4502024Y-15288071D01*
X4511548Y-15326167D01*
X4511548Y-15373786D01*
X4502024Y-15411881D01*
X4492500Y-15430928D01*
X4482976Y-15440452D01*
X4463929Y-15449976D01*
X4444881Y-15449976D01*
X4425833Y-15440452D01*
X4416310Y-15430928D01*
X4406786Y-15411881D01*
X4397262Y-15373786D01*
X4397262Y-15326167D01*
X4406786Y-15288071D01*
X4416310Y-15269024D01*
X4425833Y-15259500D01*
X4444881Y-15249976D01*
X4597262Y-15449976D02*
X4597262Y-15316643D01*
X4597262Y-15335690D02*
X4606786Y-15326167D01*
X4625833Y-15316643D01*
X4654405Y-15316643D01*
X4673452Y-15326167D01*
X4682976Y-15345214D01*
X4682976Y-15449976D01*
X4682976Y-15345214D02*
X4692500Y-15326167D01*
X4711548Y-15316643D01*
X4740119Y-15316643D01*
X4759167Y-15326167D01*
X4768690Y-15345214D01*
X4768690Y-15449976D01*
X4863929Y-15449976D02*
X4863929Y-15316643D01*
X4863929Y-15335690D02*
X4873452Y-15326167D01*
X4892500Y-15316643D01*
X4921071Y-15316643D01*
X4940119Y-15326167D01*
X4949643Y-15345214D01*
X4949643Y-15449976D01*
X4949643Y-15345214D02*
X4959167Y-15326167D01*
X4978214Y-15316643D01*
X5006786Y-15316643D01*
X5025833Y-15326167D01*
X5035357Y-15345214D01*
X5035357Y-15449976D01*
X5425833Y-15240452D02*
X5254405Y-15497595D01*
X5682976Y-15249976D02*
X5702024Y-15249976D01*
X5721071Y-15259500D01*
X5730595Y-15269024D01*
X5740119Y-15288071D01*
X5749643Y-15326167D01*
X5749643Y-15373786D01*
X5740119Y-15411881D01*
X5730595Y-15430928D01*
X5721071Y-15440452D01*
X5702024Y-15449976D01*
X5682976Y-15449976D01*
X5663928Y-15440452D01*
X5654405Y-15430928D01*
X5644881Y-15411881D01*
X5635357Y-15373786D01*
X5635357Y-15326167D01*
X5644881Y-15288071D01*
X5654405Y-15269024D01*
X5663928Y-15259500D01*
X5682976Y-15249976D01*
X5835357Y-15430928D02*
X5844881Y-15440452D01*
X5835357Y-15449976D01*
X5825833Y-15440452D01*
X5835357Y-15430928D01*
X5835357Y-15449976D01*
X5968690Y-15249976D02*
X5987738Y-15249976D01*
X6006786Y-15259500D01*
X6016309Y-15269024D01*
X6025833Y-15288071D01*
X6035357Y-15326167D01*
X6035357Y-15373786D01*
X6025833Y-15411881D01*
X6016309Y-15430928D01*
X6006786Y-15440452D01*
X5987738Y-15449976D01*
X5968690Y-15449976D01*
X5949643Y-15440452D01*
X5940119Y-15430928D01*
X5930595Y-15411881D01*
X5921071Y-15373786D01*
X5921071Y-15326167D01*
X5930595Y-15288071D01*
X5940119Y-15269024D01*
X5949643Y-15259500D01*
X5968690Y-15249976D01*
X6149643Y-15335690D02*
X6130595Y-15326167D01*
X6121071Y-15316643D01*
X6111548Y-15297595D01*
X6111548Y-15288071D01*
X6121071Y-15269024D01*
X6130595Y-15259500D01*
X6149643Y-15249976D01*
X6187738Y-15249976D01*
X6206786Y-15259500D01*
X6216309Y-15269024D01*
X6225833Y-15288071D01*
X6225833Y-15297595D01*
X6216309Y-15316643D01*
X6206786Y-15326167D01*
X6187738Y-15335690D01*
X6149643Y-15335690D01*
X6130595Y-15345214D01*
X6121071Y-15354738D01*
X6111548Y-15373786D01*
X6111548Y-15411881D01*
X6121071Y-15430928D01*
X6130595Y-15440452D01*
X6149643Y-15449976D01*
X6187738Y-15449976D01*
X6206786Y-15440452D01*
X6216309Y-15430928D01*
X6225833Y-15411881D01*
X6225833Y-15373786D01*
X6216309Y-15354738D01*
X6206786Y-15345214D01*
X6187738Y-15335690D01*
X6397262Y-15249976D02*
X6359167Y-15249976D01*
X6340119Y-15259500D01*
X6330595Y-15269024D01*
X6311548Y-15297595D01*
X6302024Y-15335690D01*
X6302024Y-15411881D01*
X6311548Y-15430928D01*
X6321071Y-15440452D01*
X6340119Y-15449976D01*
X6378214Y-15449976D01*
X6397262Y-15440452D01*
X6406786Y-15430928D01*
X6416309Y-15411881D01*
X6416309Y-15364262D01*
X6406786Y-15345214D01*
X6397262Y-15335690D01*
X6378214Y-15326167D01*
X6340119Y-15326167D01*
X6321071Y-15335690D01*
X6311548Y-15345214D01*
X6302024Y-15364262D01*
X6587738Y-15249976D02*
X6549643Y-15249976D01*
X6530595Y-15259500D01*
X6521071Y-15269024D01*
X6502024Y-15297595D01*
X6492500Y-15335690D01*
X6492500Y-15411881D01*
X6502024Y-15430928D01*
X6511548Y-15440452D01*
X6530595Y-15449976D01*
X6568690Y-15449976D01*
X6587738Y-15440452D01*
X6597262Y-15430928D01*
X6606786Y-15411881D01*
X6606786Y-15364262D01*
X6597262Y-15345214D01*
X6587738Y-15335690D01*
X6568690Y-15326167D01*
X6530595Y-15326167D01*
X6511548Y-15335690D01*
X6502024Y-15345214D01*
X6492500Y-15364262D01*
X6682976Y-15249976D02*
X6682976Y-15288071D01*
X6759167Y-15249976D02*
X6759167Y-15288071D01*
X7054405Y-15526167D02*
X7044881Y-15516643D01*
X7025833Y-15488071D01*
X7016309Y-15469024D01*
X7006786Y-15440452D01*
X6997262Y-15392833D01*
X6997262Y-15354738D01*
X7006786Y-15307119D01*
X7016309Y-15278548D01*
X7025833Y-15259500D01*
X7044881Y-15230928D01*
X7054405Y-15221405D01*
X7111548Y-15249976D02*
X7244881Y-15249976D01*
X7159167Y-15449976D01*
X7473452Y-15449976D02*
X7473452Y-15249976D01*
X7559167Y-15449976D02*
X7559167Y-15345214D01*
X7549643Y-15326167D01*
X7530595Y-15316643D01*
X7502024Y-15316643D01*
X7482976Y-15326167D01*
X7473452Y-15335690D01*
X7682976Y-15449976D02*
X7663928Y-15440452D01*
X7654405Y-15430928D01*
X7644881Y-15411881D01*
X7644881Y-15354738D01*
X7654405Y-15335690D01*
X7663928Y-15326167D01*
X7682976Y-15316643D01*
X7711548Y-15316643D01*
X7730595Y-15326167D01*
X7740119Y-15335690D01*
X7749643Y-15354738D01*
X7749643Y-15411881D01*
X7740119Y-15430928D01*
X7730595Y-15440452D01*
X7711548Y-15449976D01*
X7682976Y-15449976D01*
X7863928Y-15449976D02*
X7844881Y-15440452D01*
X7835357Y-15421405D01*
X7835357Y-15249976D01*
X8016309Y-15440452D02*
X7997262Y-15449976D01*
X7959167Y-15449976D01*
X7940119Y-15440452D01*
X7930595Y-15421405D01*
X7930595Y-15345214D01*
X7940119Y-15326167D01*
X7959167Y-15316643D01*
X7997262Y-15316643D01*
X8016309Y-15326167D01*
X8025833Y-15345214D01*
X8025833Y-15364262D01*
X7930595Y-15383309D01*
X8102024Y-15440452D02*
X8121071Y-15449976D01*
X8159167Y-15449976D01*
X8178214Y-15440452D01*
X8187738Y-15421405D01*
X8187738Y-15411881D01*
X8178214Y-15392833D01*
X8159167Y-15383309D01*
X8130595Y-15383309D01*
X8111548Y-15373786D01*
X8102024Y-15354738D01*
X8102024Y-15345214D01*
X8111548Y-15326167D01*
X8130595Y-15316643D01*
X8159167Y-15316643D01*
X8178214Y-15326167D01*
X8254405Y-15526167D02*
X8263928Y-15516643D01*
X8282976Y-15488071D01*
X8292500Y-15469024D01*
X8302024Y-15440452D01*
X8311548Y-15392833D01*
X8311548Y-15354738D01*
X8302024Y-15307119D01*
X8292500Y-15278548D01*
X8282976Y-15259500D01*
X8263928Y-15230928D01*
X8254405Y-15221405D01*
X8616310Y-15526167D02*
X8606786Y-15516643D01*
X8587738Y-15488071D01*
X8578214Y-15469024D01*
X8568690Y-15440452D01*
X8559167Y-15392833D01*
X8559167Y-15354738D01*
X8568690Y-15307119D01*
X8578214Y-15278548D01*
X8587738Y-15259500D01*
X8606786Y-15230928D01*
X8616310Y-15221405D01*
X8692500Y-15316643D02*
X8692500Y-15449976D01*
X8692500Y-15335690D02*
X8702024Y-15326167D01*
X8721071Y-15316643D01*
X8749643Y-15316643D01*
X8768690Y-15326167D01*
X8778214Y-15345214D01*
X8778214Y-15449976D01*
X8902024Y-15449976D02*
X8882976Y-15440452D01*
X8873452Y-15430928D01*
X8863929Y-15411881D01*
X8863929Y-15354738D01*
X8873452Y-15335690D01*
X8882976Y-15326167D01*
X8902024Y-15316643D01*
X8930595Y-15316643D01*
X8949643Y-15326167D01*
X8959167Y-15335690D01*
X8968690Y-15354738D01*
X8968690Y-15411881D01*
X8959167Y-15430928D01*
X8949643Y-15440452D01*
X8930595Y-15449976D01*
X8902024Y-15449976D01*
X9025833Y-15316643D02*
X9102024Y-15316643D01*
X9054405Y-15249976D02*
X9054405Y-15421405D01*
X9063929Y-15440452D01*
X9082976Y-15449976D01*
X9102024Y-15449976D01*
X9321071Y-15316643D02*
X9321071Y-15516643D01*
X9321071Y-15326167D02*
X9340119Y-15316643D01*
X9378214Y-15316643D01*
X9397262Y-15326167D01*
X9406786Y-15335690D01*
X9416310Y-15354738D01*
X9416310Y-15411881D01*
X9406786Y-15430928D01*
X9397262Y-15440452D01*
X9378214Y-15449976D01*
X9340119Y-15449976D01*
X9321071Y-15440452D01*
X9530595Y-15449976D02*
X9511548Y-15440452D01*
X9502024Y-15421405D01*
X9502024Y-15249976D01*
X9692500Y-15449976D02*
X9692500Y-15345214D01*
X9682976Y-15326167D01*
X9663929Y-15316643D01*
X9625833Y-15316643D01*
X9606786Y-15326167D01*
X9692500Y-15440452D02*
X9673452Y-15449976D01*
X9625833Y-15449976D01*
X9606786Y-15440452D01*
X9597262Y-15421405D01*
X9597262Y-15402357D01*
X9606786Y-15383309D01*
X9625833Y-15373786D01*
X9673452Y-15373786D01*
X9692500Y-15364262D01*
X9759167Y-15316643D02*
X9835357Y-15316643D01*
X9787738Y-15249976D02*
X9787738Y-15421405D01*
X9797262Y-15440452D01*
X9816310Y-15449976D01*
X9835357Y-15449976D01*
X9978214Y-15440452D02*
X9959167Y-15449976D01*
X9921071Y-15449976D01*
X9902024Y-15440452D01*
X9892500Y-15421405D01*
X9892500Y-15345214D01*
X9902024Y-15326167D01*
X9921071Y-15316643D01*
X9959167Y-15316643D01*
X9978214Y-15326167D01*
X9987738Y-15345214D01*
X9987738Y-15364262D01*
X9892500Y-15383309D01*
X10159167Y-15449976D02*
X10159167Y-15249976D01*
X10159167Y-15440452D02*
X10140119Y-15449976D01*
X10102024Y-15449976D01*
X10082976Y-15440452D01*
X10073452Y-15430928D01*
X10063929Y-15411881D01*
X10063929Y-15354738D01*
X10073452Y-15335690D01*
X10082976Y-15326167D01*
X10102024Y-15316643D01*
X10140119Y-15316643D01*
X10159167Y-15326167D01*
X10235357Y-15526167D02*
X10244881Y-15516643D01*
X10263929Y-15488071D01*
X10273452Y-15469024D01*
X10282976Y-15440452D01*
X10292500Y-15392833D01*
X10292500Y-15354738D01*
X10282976Y-15307119D01*
X10273452Y-15278548D01*
X10263929Y-15259500D01*
X10244881Y-15230928D01*
X10235357Y-15221405D01*
X3382500Y-15579500D02*
X3382500Y-15779500D01*
X3282500Y-15679500D02*
X3482500Y-15679500D01*
X3721071Y-15569976D02*
X3844881Y-15569976D01*
X3778214Y-15646167D01*
X3806786Y-15646167D01*
X3825833Y-15655690D01*
X3835357Y-15665214D01*
X3844881Y-15684262D01*
X3844881Y-15731881D01*
X3835357Y-15750928D01*
X3825833Y-15760452D01*
X3806786Y-15769976D01*
X3749643Y-15769976D01*
X3730595Y-15760452D01*
X3721071Y-15750928D01*
X3930595Y-15750928D02*
X3940119Y-15760452D01*
X3930595Y-15769976D01*
X3921071Y-15760452D01*
X3930595Y-15750928D01*
X3930595Y-15769976D01*
X4063928Y-15569976D02*
X4082976Y-15569976D01*
X4102024Y-15579500D01*
X4111548Y-15589024D01*
X4121071Y-15608071D01*
X4130595Y-15646167D01*
X4130595Y-15693786D01*
X4121071Y-15731881D01*
X4111548Y-15750928D01*
X4102024Y-15760452D01*
X4082976Y-15769976D01*
X4063928Y-15769976D01*
X4044881Y-15760452D01*
X4035357Y-15750928D01*
X4025833Y-15731881D01*
X4016309Y-15693786D01*
X4016309Y-15646167D01*
X4025833Y-15608071D01*
X4035357Y-15589024D01*
X4044881Y-15579500D01*
X4063928Y-15569976D01*
X4302024Y-15636643D02*
X4302024Y-15769976D01*
X4254405Y-15560452D02*
X4206786Y-15703309D01*
X4330595Y-15703309D01*
X4435357Y-15655690D02*
X4416310Y-15646167D01*
X4406786Y-15636643D01*
X4397262Y-15617595D01*
X4397262Y-15608071D01*
X4406786Y-15589024D01*
X4416310Y-15579500D01*
X4435357Y-15569976D01*
X4473452Y-15569976D01*
X4492500Y-15579500D01*
X4502024Y-15589024D01*
X4511548Y-15608071D01*
X4511548Y-15617595D01*
X4502024Y-15636643D01*
X4492500Y-15646167D01*
X4473452Y-15655690D01*
X4435357Y-15655690D01*
X4416310Y-15665214D01*
X4406786Y-15674738D01*
X4397262Y-15693786D01*
X4397262Y-15731881D01*
X4406786Y-15750928D01*
X4416310Y-15760452D01*
X4435357Y-15769976D01*
X4473452Y-15769976D01*
X4492500Y-15760452D01*
X4502024Y-15750928D01*
X4511548Y-15731881D01*
X4511548Y-15693786D01*
X4502024Y-15674738D01*
X4492500Y-15665214D01*
X4473452Y-15655690D01*
X4597262Y-15769976D02*
X4597262Y-15636643D01*
X4597262Y-15655690D02*
X4606786Y-15646167D01*
X4625833Y-15636643D01*
X4654405Y-15636643D01*
X4673452Y-15646167D01*
X4682976Y-15665214D01*
X4682976Y-15769976D01*
X4682976Y-15665214D02*
X4692500Y-15646167D01*
X4711548Y-15636643D01*
X4740119Y-15636643D01*
X4759167Y-15646167D01*
X4768690Y-15665214D01*
X4768690Y-15769976D01*
X4863929Y-15769976D02*
X4863929Y-15636643D01*
X4863929Y-15655690D02*
X4873452Y-15646167D01*
X4892500Y-15636643D01*
X4921071Y-15636643D01*
X4940119Y-15646167D01*
X4949643Y-15665214D01*
X4949643Y-15769976D01*
X4949643Y-15665214D02*
X4959167Y-15646167D01*
X4978214Y-15636643D01*
X5006786Y-15636643D01*
X5025833Y-15646167D01*
X5035357Y-15665214D01*
X5035357Y-15769976D01*
X5425833Y-15560452D02*
X5254405Y-15817595D01*
X5682976Y-15569976D02*
X5702024Y-15569976D01*
X5721071Y-15579500D01*
X5730595Y-15589024D01*
X5740119Y-15608071D01*
X5749643Y-15646167D01*
X5749643Y-15693786D01*
X5740119Y-15731881D01*
X5730595Y-15750928D01*
X5721071Y-15760452D01*
X5702024Y-15769976D01*
X5682976Y-15769976D01*
X5663928Y-15760452D01*
X5654405Y-15750928D01*
X5644881Y-15731881D01*
X5635357Y-15693786D01*
X5635357Y-15646167D01*
X5644881Y-15608071D01*
X5654405Y-15589024D01*
X5663928Y-15579500D01*
X5682976Y-15569976D01*
X5835357Y-15750928D02*
X5844881Y-15760452D01*
X5835357Y-15769976D01*
X5825833Y-15760452D01*
X5835357Y-15750928D01*
X5835357Y-15769976D01*
X6035357Y-15769976D02*
X5921071Y-15769976D01*
X5978214Y-15769976D02*
X5978214Y-15569976D01*
X5959167Y-15598548D01*
X5940119Y-15617595D01*
X5921071Y-15627119D01*
X6111548Y-15589024D02*
X6121071Y-15579500D01*
X6140119Y-15569976D01*
X6187738Y-15569976D01*
X6206786Y-15579500D01*
X6216309Y-15589024D01*
X6225833Y-15608071D01*
X6225833Y-15627119D01*
X6216309Y-15655690D01*
X6102024Y-15769976D01*
X6225833Y-15769976D01*
X6349643Y-15569976D02*
X6368690Y-15569976D01*
X6387738Y-15579500D01*
X6397262Y-15589024D01*
X6406786Y-15608071D01*
X6416309Y-15646167D01*
X6416309Y-15693786D01*
X6406786Y-15731881D01*
X6397262Y-15750928D01*
X6387738Y-15760452D01*
X6368690Y-15769976D01*
X6349643Y-15769976D01*
X6330595Y-15760452D01*
X6321071Y-15750928D01*
X6311548Y-15731881D01*
X6302024Y-15693786D01*
X6302024Y-15646167D01*
X6311548Y-15608071D01*
X6321071Y-15589024D01*
X6330595Y-15579500D01*
X6349643Y-15569976D01*
X6540119Y-15569976D02*
X6559167Y-15569976D01*
X6578214Y-15579500D01*
X6587738Y-15589024D01*
X6597262Y-15608071D01*
X6606786Y-15646167D01*
X6606786Y-15693786D01*
X6597262Y-15731881D01*
X6587738Y-15750928D01*
X6578214Y-15760452D01*
X6559167Y-15769976D01*
X6540119Y-15769976D01*
X6521071Y-15760452D01*
X6511548Y-15750928D01*
X6502024Y-15731881D01*
X6492500Y-15693786D01*
X6492500Y-15646167D01*
X6502024Y-15608071D01*
X6511548Y-15589024D01*
X6521071Y-15579500D01*
X6540119Y-15569976D01*
X6682976Y-15569976D02*
X6682976Y-15608071D01*
X6759167Y-15569976D02*
X6759167Y-15608071D01*
X7054405Y-15846167D02*
X7044881Y-15836643D01*
X7025833Y-15808071D01*
X7016309Y-15789024D01*
X7006786Y-15760452D01*
X6997262Y-15712833D01*
X6997262Y-15674738D01*
X7006786Y-15627119D01*
X7016309Y-15598548D01*
X7025833Y-15579500D01*
X7044881Y-15550928D01*
X7054405Y-15541405D01*
X7121071Y-15589024D02*
X7130595Y-15579500D01*
X7149643Y-15569976D01*
X7197262Y-15569976D01*
X7216309Y-15579500D01*
X7225833Y-15589024D01*
X7235357Y-15608071D01*
X7235357Y-15627119D01*
X7225833Y-15655690D01*
X7111548Y-15769976D01*
X7235357Y-15769976D01*
X7473452Y-15769976D02*
X7473452Y-15569976D01*
X7559167Y-15769976D02*
X7559167Y-15665214D01*
X7549643Y-15646167D01*
X7530595Y-15636643D01*
X7502024Y-15636643D01*
X7482976Y-15646167D01*
X7473452Y-15655690D01*
X7682976Y-15769976D02*
X7663928Y-15760452D01*
X7654405Y-15750928D01*
X7644881Y-15731881D01*
X7644881Y-15674738D01*
X7654405Y-15655690D01*
X7663928Y-15646167D01*
X7682976Y-15636643D01*
X7711548Y-15636643D01*
X7730595Y-15646167D01*
X7740119Y-15655690D01*
X7749643Y-15674738D01*
X7749643Y-15731881D01*
X7740119Y-15750928D01*
X7730595Y-15760452D01*
X7711548Y-15769976D01*
X7682976Y-15769976D01*
X7863928Y-15769976D02*
X7844881Y-15760452D01*
X7835357Y-15741405D01*
X7835357Y-15569976D01*
X8016309Y-15760452D02*
X7997262Y-15769976D01*
X7959167Y-15769976D01*
X7940119Y-15760452D01*
X7930595Y-15741405D01*
X7930595Y-15665214D01*
X7940119Y-15646167D01*
X7959167Y-15636643D01*
X7997262Y-15636643D01*
X8016309Y-15646167D01*
X8025833Y-15665214D01*
X8025833Y-15684262D01*
X7930595Y-15703309D01*
X8102024Y-15760452D02*
X8121071Y-15769976D01*
X8159167Y-15769976D01*
X8178214Y-15760452D01*
X8187738Y-15741405D01*
X8187738Y-15731881D01*
X8178214Y-15712833D01*
X8159167Y-15703309D01*
X8130595Y-15703309D01*
X8111548Y-15693786D01*
X8102024Y-15674738D01*
X8102024Y-15665214D01*
X8111548Y-15646167D01*
X8130595Y-15636643D01*
X8159167Y-15636643D01*
X8178214Y-15646167D01*
X8254405Y-15846167D02*
X8263928Y-15836643D01*
X8282976Y-15808071D01*
X8292500Y-15789024D01*
X8302024Y-15760452D01*
X8311548Y-15712833D01*
X8311548Y-15674738D01*
X8302024Y-15627119D01*
X8292500Y-15598548D01*
X8282976Y-15579500D01*
X8263928Y-15550928D01*
X8254405Y-15541405D01*
X8616310Y-15846167D02*
X8606786Y-15836643D01*
X8587738Y-15808071D01*
X8578214Y-15789024D01*
X8568690Y-15760452D01*
X8559167Y-15712833D01*
X8559167Y-15674738D01*
X8568690Y-15627119D01*
X8578214Y-15598548D01*
X8587738Y-15579500D01*
X8606786Y-15550928D01*
X8616310Y-15541405D01*
X8692500Y-15636643D02*
X8692500Y-15769976D01*
X8692500Y-15655690D02*
X8702024Y-15646167D01*
X8721071Y-15636643D01*
X8749643Y-15636643D01*
X8768690Y-15646167D01*
X8778214Y-15665214D01*
X8778214Y-15769976D01*
X8902024Y-15769976D02*
X8882976Y-15760452D01*
X8873452Y-15750928D01*
X8863929Y-15731881D01*
X8863929Y-15674738D01*
X8873452Y-15655690D01*
X8882976Y-15646167D01*
X8902024Y-15636643D01*
X8930595Y-15636643D01*
X8949643Y-15646167D01*
X8959167Y-15655690D01*
X8968690Y-15674738D01*
X8968690Y-15731881D01*
X8959167Y-15750928D01*
X8949643Y-15760452D01*
X8930595Y-15769976D01*
X8902024Y-15769976D01*
X9025833Y-15636643D02*
X9102024Y-15636643D01*
X9054405Y-15569976D02*
X9054405Y-15741405D01*
X9063929Y-15760452D01*
X9082976Y-15769976D01*
X9102024Y-15769976D01*
X9321071Y-15636643D02*
X9321071Y-15836643D01*
X9321071Y-15646167D02*
X9340119Y-15636643D01*
X9378214Y-15636643D01*
X9397262Y-15646167D01*
X9406786Y-15655690D01*
X9416310Y-15674738D01*
X9416310Y-15731881D01*
X9406786Y-15750928D01*
X9397262Y-15760452D01*
X9378214Y-15769976D01*
X9340119Y-15769976D01*
X9321071Y-15760452D01*
X9530595Y-15769976D02*
X9511548Y-15760452D01*
X9502024Y-15741405D01*
X9502024Y-15569976D01*
X9692500Y-15769976D02*
X9692500Y-15665214D01*
X9682976Y-15646167D01*
X9663929Y-15636643D01*
X9625833Y-15636643D01*
X9606786Y-15646167D01*
X9692500Y-15760452D02*
X9673452Y-15769976D01*
X9625833Y-15769976D01*
X9606786Y-15760452D01*
X9597262Y-15741405D01*
X9597262Y-15722357D01*
X9606786Y-15703309D01*
X9625833Y-15693786D01*
X9673452Y-15693786D01*
X9692500Y-15684262D01*
X9759167Y-15636643D02*
X9835357Y-15636643D01*
X9787738Y-15569976D02*
X9787738Y-15741405D01*
X9797262Y-15760452D01*
X9816310Y-15769976D01*
X9835357Y-15769976D01*
X9978214Y-15760452D02*
X9959167Y-15769976D01*
X9921071Y-15769976D01*
X9902024Y-15760452D01*
X9892500Y-15741405D01*
X9892500Y-15665214D01*
X9902024Y-15646167D01*
X9921071Y-15636643D01*
X9959167Y-15636643D01*
X9978214Y-15646167D01*
X9987738Y-15665214D01*
X9987738Y-15684262D01*
X9892500Y-15703309D01*
X10159167Y-15769976D02*
X10159167Y-15569976D01*
X10159167Y-15760452D02*
X10140119Y-15769976D01*
X10102024Y-15769976D01*
X10082976Y-15760452D01*
X10073452Y-15750928D01*
X10063929Y-15731881D01*
X10063929Y-15674738D01*
X10073452Y-15655690D01*
X10082976Y-15646167D01*
X10102024Y-15636643D01*
X10140119Y-15636643D01*
X10159167Y-15646167D01*
X10235357Y-15846167D02*
X10244881Y-15836643D01*
X10263929Y-15808071D01*
X10273452Y-15789024D01*
X10282976Y-15760452D01*
X10292500Y-15712833D01*
X10292500Y-15674738D01*
X10282976Y-15627119D01*
X10273452Y-15598548D01*
X10263929Y-15579500D01*
X10244881Y-15550928D01*
X10235357Y-15541405D01*
X3453211Y-16070211D02*
X3453211Y-15928789D01*
X3311789Y-15928789D01*
X3311789Y-16070211D01*
X3453211Y-16070211D01*
X3721071Y-15889976D02*
X3844881Y-15889976D01*
X3778214Y-15966167D01*
X3806786Y-15966167D01*
X3825833Y-15975690D01*
X3835357Y-15985214D01*
X3844881Y-16004262D01*
X3844881Y-16051881D01*
X3835357Y-16070928D01*
X3825833Y-16080452D01*
X3806786Y-16089976D01*
X3749643Y-16089976D01*
X3730595Y-16080452D01*
X3721071Y-16070928D01*
X3930595Y-16070928D02*
X3940119Y-16080452D01*
X3930595Y-16089976D01*
X3921071Y-16080452D01*
X3930595Y-16070928D01*
X3930595Y-16089976D01*
X4035357Y-16089976D02*
X4073452Y-16089976D01*
X4092500Y-16080452D01*
X4102024Y-16070928D01*
X4121071Y-16042357D01*
X4130595Y-16004262D01*
X4130595Y-15928071D01*
X4121071Y-15909024D01*
X4111548Y-15899500D01*
X4092500Y-15889976D01*
X4054405Y-15889976D01*
X4035357Y-15899500D01*
X4025833Y-15909024D01*
X4016309Y-15928071D01*
X4016309Y-15975690D01*
X4025833Y-15994738D01*
X4035357Y-16004262D01*
X4054405Y-16013786D01*
X4092500Y-16013786D01*
X4111548Y-16004262D01*
X4121071Y-15994738D01*
X4130595Y-15975690D01*
X4244881Y-15975690D02*
X4225833Y-15966167D01*
X4216310Y-15956643D01*
X4206786Y-15937595D01*
X4206786Y-15928071D01*
X4216310Y-15909024D01*
X4225833Y-15899500D01*
X4244881Y-15889976D01*
X4282976Y-15889976D01*
X4302024Y-15899500D01*
X4311548Y-15909024D01*
X4321071Y-15928071D01*
X4321071Y-15937595D01*
X4311548Y-15956643D01*
X4302024Y-15966167D01*
X4282976Y-15975690D01*
X4244881Y-15975690D01*
X4225833Y-15985214D01*
X4216310Y-15994738D01*
X4206786Y-16013786D01*
X4206786Y-16051881D01*
X4216310Y-16070928D01*
X4225833Y-16080452D01*
X4244881Y-16089976D01*
X4282976Y-16089976D01*
X4302024Y-16080452D01*
X4311548Y-16070928D01*
X4321071Y-16051881D01*
X4321071Y-16013786D01*
X4311548Y-15994738D01*
X4302024Y-15985214D01*
X4282976Y-15975690D01*
X4435357Y-15975690D02*
X4416310Y-15966167D01*
X4406786Y-15956643D01*
X4397262Y-15937595D01*
X4397262Y-15928071D01*
X4406786Y-15909024D01*
X4416310Y-15899500D01*
X4435357Y-15889976D01*
X4473452Y-15889976D01*
X4492500Y-15899500D01*
X4502024Y-15909024D01*
X4511548Y-15928071D01*
X4511548Y-15937595D01*
X4502024Y-15956643D01*
X4492500Y-15966167D01*
X4473452Y-15975690D01*
X4435357Y-15975690D01*
X4416310Y-15985214D01*
X4406786Y-15994738D01*
X4397262Y-16013786D01*
X4397262Y-16051881D01*
X4406786Y-16070928D01*
X4416310Y-16080452D01*
X4435357Y-16089976D01*
X4473452Y-16089976D01*
X4492500Y-16080452D01*
X4502024Y-16070928D01*
X4511548Y-16051881D01*
X4511548Y-16013786D01*
X4502024Y-15994738D01*
X4492500Y-15985214D01*
X4473452Y-15975690D01*
X4597262Y-16089976D02*
X4597262Y-15956643D01*
X4597262Y-15975690D02*
X4606786Y-15966167D01*
X4625833Y-15956643D01*
X4654405Y-15956643D01*
X4673452Y-15966167D01*
X4682976Y-15985214D01*
X4682976Y-16089976D01*
X4682976Y-15985214D02*
X4692500Y-15966167D01*
X4711548Y-15956643D01*
X4740119Y-15956643D01*
X4759167Y-15966167D01*
X4768690Y-15985214D01*
X4768690Y-16089976D01*
X4863929Y-16089976D02*
X4863929Y-15956643D01*
X4863929Y-15975690D02*
X4873452Y-15966167D01*
X4892500Y-15956643D01*
X4921071Y-15956643D01*
X4940119Y-15966167D01*
X4949643Y-15985214D01*
X4949643Y-16089976D01*
X4949643Y-15985214D02*
X4959167Y-15966167D01*
X4978214Y-15956643D01*
X5006786Y-15956643D01*
X5025833Y-15966167D01*
X5035357Y-15985214D01*
X5035357Y-16089976D01*
X5425833Y-15880452D02*
X5254405Y-16137595D01*
X5682976Y-15889976D02*
X5702024Y-15889976D01*
X5721071Y-15899500D01*
X5730595Y-15909024D01*
X5740119Y-15928071D01*
X5749643Y-15966167D01*
X5749643Y-16013786D01*
X5740119Y-16051881D01*
X5730595Y-16070928D01*
X5721071Y-16080452D01*
X5702024Y-16089976D01*
X5682976Y-16089976D01*
X5663928Y-16080452D01*
X5654405Y-16070928D01*
X5644881Y-16051881D01*
X5635357Y-16013786D01*
X5635357Y-15966167D01*
X5644881Y-15928071D01*
X5654405Y-15909024D01*
X5663928Y-15899500D01*
X5682976Y-15889976D01*
X5835357Y-16070928D02*
X5844881Y-16080452D01*
X5835357Y-16089976D01*
X5825833Y-16080452D01*
X5835357Y-16070928D01*
X5835357Y-16089976D01*
X6035357Y-16089976D02*
X5921071Y-16089976D01*
X5978214Y-16089976D02*
X5978214Y-15889976D01*
X5959167Y-15918548D01*
X5940119Y-15937595D01*
X5921071Y-15947119D01*
X6216309Y-15889976D02*
X6121071Y-15889976D01*
X6111548Y-15985214D01*
X6121071Y-15975690D01*
X6140119Y-15966167D01*
X6187738Y-15966167D01*
X6206786Y-15975690D01*
X6216309Y-15985214D01*
X6225833Y-16004262D01*
X6225833Y-16051881D01*
X6216309Y-16070928D01*
X6206786Y-16080452D01*
X6187738Y-16089976D01*
X6140119Y-16089976D01*
X6121071Y-16080452D01*
X6111548Y-16070928D01*
X6292500Y-15889976D02*
X6425833Y-15889976D01*
X6340119Y-16089976D01*
X6540119Y-15889976D02*
X6559167Y-15889976D01*
X6578214Y-15899500D01*
X6587738Y-15909024D01*
X6597262Y-15928071D01*
X6606786Y-15966167D01*
X6606786Y-16013786D01*
X6597262Y-16051881D01*
X6587738Y-16070928D01*
X6578214Y-16080452D01*
X6559167Y-16089976D01*
X6540119Y-16089976D01*
X6521071Y-16080452D01*
X6511548Y-16070928D01*
X6502024Y-16051881D01*
X6492500Y-16013786D01*
X6492500Y-15966167D01*
X6502024Y-15928071D01*
X6511548Y-15909024D01*
X6521071Y-15899500D01*
X6540119Y-15889976D01*
X6682976Y-15889976D02*
X6682976Y-15928071D01*
X6759167Y-15889976D02*
X6759167Y-15928071D01*
X7054405Y-16166167D02*
X7044881Y-16156643D01*
X7025833Y-16128071D01*
X7016309Y-16109024D01*
X7006786Y-16080452D01*
X6997262Y-16032833D01*
X6997262Y-15994738D01*
X7006786Y-15947119D01*
X7016309Y-15918548D01*
X7025833Y-15899500D01*
X7044881Y-15870928D01*
X7054405Y-15861405D01*
X7111548Y-15889976D02*
X7235357Y-15889976D01*
X7168690Y-15966167D01*
X7197262Y-15966167D01*
X7216309Y-15975690D01*
X7225833Y-15985214D01*
X7235357Y-16004262D01*
X7235357Y-16051881D01*
X7225833Y-16070928D01*
X7216309Y-16080452D01*
X7197262Y-16089976D01*
X7140119Y-16089976D01*
X7121071Y-16080452D01*
X7111548Y-16070928D01*
X7406786Y-15889976D02*
X7368690Y-15889976D01*
X7349643Y-15899500D01*
X7340119Y-15909024D01*
X7321071Y-15937595D01*
X7311548Y-15975690D01*
X7311548Y-16051881D01*
X7321071Y-16070928D01*
X7330595Y-16080452D01*
X7349643Y-16089976D01*
X7387738Y-16089976D01*
X7406786Y-16080452D01*
X7416309Y-16070928D01*
X7425833Y-16051881D01*
X7425833Y-16004262D01*
X7416309Y-15985214D01*
X7406786Y-15975690D01*
X7387738Y-15966167D01*
X7349643Y-15966167D01*
X7330595Y-15975690D01*
X7321071Y-15985214D01*
X7311548Y-16004262D01*
X7663928Y-16089976D02*
X7663928Y-15889976D01*
X7749643Y-16089976D02*
X7749643Y-15985214D01*
X7740119Y-15966167D01*
X7721071Y-15956643D01*
X7692500Y-15956643D01*
X7673452Y-15966167D01*
X7663928Y-15975690D01*
X7873452Y-16089976D02*
X7854405Y-16080452D01*
X7844881Y-16070928D01*
X7835357Y-16051881D01*
X7835357Y-15994738D01*
X7844881Y-15975690D01*
X7854405Y-15966167D01*
X7873452Y-15956643D01*
X7902024Y-15956643D01*
X7921071Y-15966167D01*
X7930595Y-15975690D01*
X7940119Y-15994738D01*
X7940119Y-16051881D01*
X7930595Y-16070928D01*
X7921071Y-16080452D01*
X7902024Y-16089976D01*
X7873452Y-16089976D01*
X8054405Y-16089976D02*
X8035357Y-16080452D01*
X8025833Y-16061405D01*
X8025833Y-15889976D01*
X8206786Y-16080452D02*
X8187738Y-16089976D01*
X8149643Y-16089976D01*
X8130595Y-16080452D01*
X8121071Y-16061405D01*
X8121071Y-15985214D01*
X8130595Y-15966167D01*
X8149643Y-15956643D01*
X8187738Y-15956643D01*
X8206786Y-15966167D01*
X8216309Y-15985214D01*
X8216309Y-16004262D01*
X8121071Y-16023309D01*
X8292500Y-16080452D02*
X8311548Y-16089976D01*
X8349643Y-16089976D01*
X8368690Y-16080452D01*
X8378214Y-16061405D01*
X8378214Y-16051881D01*
X8368690Y-16032833D01*
X8349643Y-16023309D01*
X8321071Y-16023309D01*
X8302024Y-16013786D01*
X8292500Y-15994738D01*
X8292500Y-15985214D01*
X8302024Y-15966167D01*
X8321071Y-15956643D01*
X8349643Y-15956643D01*
X8368690Y-15966167D01*
X8444881Y-16166167D02*
X8454405Y-16156643D01*
X8473452Y-16128071D01*
X8482976Y-16109024D01*
X8492500Y-16080452D01*
X8502024Y-16032833D01*
X8502024Y-15994738D01*
X8492500Y-15947119D01*
X8482976Y-15918548D01*
X8473452Y-15899500D01*
X8454405Y-15870928D01*
X8444881Y-15861405D01*
X8806786Y-16166167D02*
X8797262Y-16156643D01*
X8778214Y-16128071D01*
X8768690Y-16109024D01*
X8759167Y-16080452D01*
X8749643Y-16032833D01*
X8749643Y-15994738D01*
X8759167Y-15947119D01*
X8768690Y-15918548D01*
X8778214Y-15899500D01*
X8797262Y-15870928D01*
X8806786Y-15861405D01*
X8882976Y-15956643D02*
X8882976Y-16089976D01*
X8882976Y-15975690D02*
X8892500Y-15966167D01*
X8911548Y-15956643D01*
X8940119Y-15956643D01*
X8959167Y-15966167D01*
X8968690Y-15985214D01*
X8968690Y-16089976D01*
X9092500Y-16089976D02*
X9073452Y-16080452D01*
X9063929Y-16070928D01*
X9054405Y-16051881D01*
X9054405Y-15994738D01*
X9063929Y-15975690D01*
X9073452Y-15966167D01*
X9092500Y-15956643D01*
X9121071Y-15956643D01*
X9140119Y-15966167D01*
X9149643Y-15975690D01*
X9159167Y-15994738D01*
X9159167Y-16051881D01*
X9149643Y-16070928D01*
X9140119Y-16080452D01*
X9121071Y-16089976D01*
X9092500Y-16089976D01*
X9216310Y-15956643D02*
X9292500Y-15956643D01*
X9244881Y-15889976D02*
X9244881Y-16061405D01*
X9254405Y-16080452D01*
X9273452Y-16089976D01*
X9292500Y-16089976D01*
X9511548Y-15956643D02*
X9511548Y-16156643D01*
X9511548Y-15966167D02*
X9530595Y-15956643D01*
X9568690Y-15956643D01*
X9587738Y-15966167D01*
X9597262Y-15975690D01*
X9606786Y-15994738D01*
X9606786Y-16051881D01*
X9597262Y-16070928D01*
X9587738Y-16080452D01*
X9568690Y-16089976D01*
X9530595Y-16089976D01*
X9511548Y-16080452D01*
X9721071Y-16089976D02*
X9702024Y-16080452D01*
X9692500Y-16061405D01*
X9692500Y-15889976D01*
X9882976Y-16089976D02*
X9882976Y-15985214D01*
X9873452Y-15966167D01*
X9854405Y-15956643D01*
X9816310Y-15956643D01*
X9797262Y-15966167D01*
X9882976Y-16080452D02*
X9863929Y-16089976D01*
X9816310Y-16089976D01*
X9797262Y-16080452D01*
X9787738Y-16061405D01*
X9787738Y-16042357D01*
X9797262Y-16023309D01*
X9816310Y-16013786D01*
X9863929Y-16013786D01*
X9882976Y-16004262D01*
X9949643Y-15956643D02*
X10025833Y-15956643D01*
X9978214Y-15889976D02*
X9978214Y-16061405D01*
X9987738Y-16080452D01*
X10006786Y-16089976D01*
X10025833Y-16089976D01*
X10168690Y-16080452D02*
X10149643Y-16089976D01*
X10111548Y-16089976D01*
X10092500Y-16080452D01*
X10082976Y-16061405D01*
X10082976Y-15985214D01*
X10092500Y-15966167D01*
X10111548Y-15956643D01*
X10149643Y-15956643D01*
X10168690Y-15966167D01*
X10178214Y-15985214D01*
X10178214Y-16004262D01*
X10082976Y-16023309D01*
X10349643Y-16089976D02*
X10349643Y-15889976D01*
X10349643Y-16080452D02*
X10330595Y-16089976D01*
X10292500Y-16089976D01*
X10273452Y-16080452D01*
X10263929Y-16070928D01*
X10254405Y-16051881D01*
X10254405Y-15994738D01*
X10263929Y-15975690D01*
X10273452Y-15966167D01*
X10292500Y-15956643D01*
X10330595Y-15956643D01*
X10349643Y-15966167D01*
X10425833Y-16166167D02*
X10435357Y-16156643D01*
X10454405Y-16128071D01*
X10463929Y-16109024D01*
X10473452Y-16080452D01*
X10482976Y-16032833D01*
X10482976Y-15994738D01*
X10473452Y-15947119D01*
X10463929Y-15918548D01*
X10454405Y-15899500D01*
X10435357Y-15870928D01*
X10425833Y-15861405D01*
M02*
