%TF.GenerationSoftware,KiCad,Pcbnew,(6.0.1)*%
%TF.CreationDate,2022-04-05T18:42:57+02:00*%
%TF.ProjectId,Keyboard Left Hand Side,4b657962-6f61-4726-9420-4c6566742048,rev?*%
%TF.SameCoordinates,Original*%
%TF.FileFunction,Copper,L1,Top*%
%TF.FilePolarity,Positive*%
%FSLAX46Y46*%
G04 Gerber Fmt 4.6, Leading zero omitted, Abs format (unit mm)*
G04 Created by KiCad (PCBNEW (6.0.1)) date 2022-04-05 18:42:57*
%MOMM*%
%LPD*%
G01*
G04 APERTURE LIST*
G04 Aperture macros list*
%AMRoundRect*
0 Rectangle with rounded corners*
0 $1 Rounding radius*
0 $2 $3 $4 $5 $6 $7 $8 $9 X,Y pos of 4 corners*
0 Add a 4 corners polygon primitive as box body*
4,1,4,$2,$3,$4,$5,$6,$7,$8,$9,$2,$3,0*
0 Add four circle primitives for the rounded corners*
1,1,$1+$1,$2,$3*
1,1,$1+$1,$4,$5*
1,1,$1+$1,$6,$7*
1,1,$1+$1,$8,$9*
0 Add four rect primitives between the rounded corners*
20,1,$1+$1,$2,$3,$4,$5,0*
20,1,$1+$1,$4,$5,$6,$7,0*
20,1,$1+$1,$6,$7,$8,$9,0*
20,1,$1+$1,$8,$9,$2,$3,0*%
%AMHorizOval*
0 Thick line with rounded ends*
0 $1 width*
0 $2 $3 position (X,Y) of the first rounded end (center of the circle)*
0 $4 $5 position (X,Y) of the second rounded end (center of the circle)*
0 Add line between two ends*
20,1,$1,$2,$3,$4,$5,0*
0 Add two circle primitives to create the rounded ends*
1,1,$1,$2,$3*
1,1,$1,$4,$5*%
G04 Aperture macros list end*
%TA.AperFunction,ComponentPad*%
%ADD10C,2.250000*%
%TD*%
%TA.AperFunction,ComponentPad*%
%ADD11HorizOval,2.250000X0.655001X0.730000X-0.655001X-0.730000X0*%
%TD*%
%TA.AperFunction,ComponentPad*%
%ADD12HorizOval,2.250000X0.020000X0.290000X-0.020000X-0.290000X0*%
%TD*%
%TA.AperFunction,SMDPad,CuDef*%
%ADD13RoundRect,0.100000X-0.217500X-0.100000X0.217500X-0.100000X0.217500X0.100000X-0.217500X0.100000X0*%
%TD*%
%TA.AperFunction,ComponentPad*%
%ADD14C,1.397000*%
%TD*%
%TA.AperFunction,SMDPad,CuDef*%
%ADD15RoundRect,0.155000X0.155000X-0.212500X0.155000X0.212500X-0.155000X0.212500X-0.155000X-0.212500X0*%
%TD*%
%TA.AperFunction,ComponentPad*%
%ADD16R,2.000000X2.000000*%
%TD*%
%TA.AperFunction,ComponentPad*%
%ADD17C,2.000000*%
%TD*%
%TA.AperFunction,ComponentPad*%
%ADD18R,3.000000X2.500000*%
%TD*%
%TA.AperFunction,SMDPad,CuDef*%
%ADD19RoundRect,0.100000X0.217500X0.100000X-0.217500X0.100000X-0.217500X-0.100000X0.217500X-0.100000X0*%
%TD*%
%TA.AperFunction,ComponentPad*%
%ADD20C,1.752600*%
%TD*%
%TA.AperFunction,ComponentPad*%
%ADD21C,2.800000*%
%TD*%
%TA.AperFunction,ViaPad*%
%ADD22C,0.800000*%
%TD*%
%TA.AperFunction,ViaPad*%
%ADD23C,1.200000*%
%TD*%
%TA.AperFunction,Conductor*%
%ADD24C,0.250000*%
%TD*%
%TA.AperFunction,Conductor*%
%ADD25C,0.600000*%
%TD*%
G04 APERTURE END LIST*
D10*
X87035000Y-47435000D03*
D11*
X86380001Y-48165000D03*
D10*
X92075000Y-46355000D03*
D12*
X92055000Y-46645000D03*
D11*
X48280001Y-67215000D03*
D10*
X48935000Y-66485000D03*
D12*
X53955000Y-65695000D03*
D10*
X53975000Y-65405000D03*
D11*
X86380001Y-86265000D03*
D10*
X87035000Y-85535000D03*
X92075000Y-84455000D03*
D12*
X92055000Y-84745000D03*
D11*
X105430001Y-48165000D03*
D10*
X106085000Y-47435000D03*
D12*
X111105000Y-46645000D03*
D10*
X111125000Y-46355000D03*
X67985000Y-123635000D03*
D11*
X67330001Y-124365000D03*
D10*
X73025000Y-122555000D03*
D12*
X73005000Y-122845000D03*
D11*
X105430001Y-105315000D03*
D10*
X106085000Y-104585000D03*
D12*
X111105000Y-103795000D03*
D10*
X111125000Y-103505000D03*
X125135000Y-66485000D03*
D11*
X124480001Y-67215000D03*
D12*
X130155000Y-65695000D03*
D10*
X130175000Y-65405000D03*
X144185000Y-47435000D03*
D11*
X143530001Y-48165000D03*
D10*
X149225000Y-46355000D03*
D12*
X149205000Y-46645000D03*
D10*
X48935000Y-104585000D03*
D11*
X48280001Y-105315000D03*
D10*
X53975000Y-103505000D03*
D12*
X53955000Y-103795000D03*
D10*
X106085000Y-85535000D03*
D11*
X105430001Y-86265000D03*
D10*
X111125000Y-84455000D03*
D12*
X111105000Y-84745000D03*
D11*
X48280001Y-124365000D03*
D10*
X48935000Y-123635000D03*
D12*
X53955000Y-122845000D03*
D10*
X53975000Y-122555000D03*
D11*
X105430001Y-124365000D03*
D10*
X106085000Y-123635000D03*
X111125000Y-122555000D03*
D12*
X111105000Y-122845000D03*
D13*
X38327500Y-54610000D03*
X39142500Y-54610000D03*
D10*
X163235000Y-85535000D03*
D11*
X162580001Y-86265000D03*
D10*
X168275000Y-84455000D03*
D12*
X168255000Y-84745000D03*
D11*
X143530001Y-67215000D03*
D10*
X144185000Y-66485000D03*
X149225000Y-65405000D03*
D12*
X149205000Y-65695000D03*
D14*
X193665000Y-83820000D03*
X191125000Y-83820000D03*
X188585000Y-83820000D03*
X186045000Y-83820000D03*
D10*
X67985000Y-104585000D03*
D11*
X67330001Y-105315000D03*
D12*
X73005000Y-103795000D03*
D10*
X73025000Y-103505000D03*
D11*
X67330001Y-67215000D03*
D10*
X67985000Y-66485000D03*
D12*
X73005000Y-65695000D03*
D10*
X73025000Y-65405000D03*
D11*
X67330001Y-48165000D03*
D10*
X67985000Y-47435000D03*
X73025000Y-46355000D03*
D12*
X73005000Y-46645000D03*
D10*
X125135000Y-47435000D03*
D11*
X124480001Y-48165000D03*
D10*
X130175000Y-46355000D03*
D12*
X130155000Y-46645000D03*
D10*
X144185000Y-85535000D03*
D11*
X143530001Y-86265000D03*
D10*
X149225000Y-84455000D03*
D12*
X149205000Y-84745000D03*
D10*
X125135000Y-85535000D03*
D11*
X124480001Y-86265000D03*
D12*
X130155000Y-84745000D03*
D10*
X130175000Y-84455000D03*
D11*
X124480001Y-105315000D03*
D10*
X125135000Y-104585000D03*
D12*
X130155000Y-103795000D03*
D10*
X130175000Y-103505000D03*
D11*
X67330001Y-86265000D03*
D10*
X67985000Y-85535000D03*
X73025000Y-84455000D03*
D12*
X73005000Y-84745000D03*
D11*
X105430001Y-67215000D03*
D10*
X106085000Y-66485000D03*
X111125000Y-65405000D03*
D12*
X111105000Y-65695000D03*
D10*
X163235000Y-47435000D03*
D11*
X162580001Y-48165000D03*
D12*
X168255000Y-46645000D03*
D10*
X168275000Y-46355000D03*
X144185000Y-104585000D03*
D11*
X143530001Y-105315000D03*
D12*
X149205000Y-103795000D03*
D10*
X149225000Y-103505000D03*
D15*
X40005000Y-49462500D03*
X40005000Y-48327500D03*
X40005000Y-52637500D03*
X40005000Y-51502500D03*
D11*
X143534401Y-124357200D03*
D10*
X144189400Y-123627200D03*
X149229400Y-122547200D03*
D12*
X149209400Y-122837200D03*
D13*
X38327500Y-46355000D03*
X39142500Y-46355000D03*
D10*
X87035000Y-66485000D03*
D11*
X86380001Y-67215000D03*
D12*
X92055000Y-65695000D03*
D10*
X92075000Y-65405000D03*
D16*
X43919800Y-48935000D03*
D17*
X43919800Y-53935000D03*
X43919800Y-51435000D03*
D18*
X51419800Y-45835000D03*
X51419800Y-57035000D03*
D19*
X41682500Y-46355000D03*
X40867500Y-46355000D03*
D11*
X86380001Y-124365000D03*
D10*
X87035000Y-123635000D03*
D12*
X92055000Y-122845000D03*
D10*
X92075000Y-122555000D03*
D11*
X162580001Y-124365000D03*
D10*
X163235000Y-123635000D03*
D12*
X168255000Y-122845000D03*
D10*
X168275000Y-122555000D03*
D19*
X41682500Y-54610000D03*
X40867500Y-54610000D03*
D17*
X186615000Y-89190000D03*
X193115000Y-89190000D03*
X186615000Y-93690000D03*
X193115000Y-93690000D03*
D11*
X124480001Y-124365000D03*
D10*
X125135000Y-123635000D03*
X130175000Y-122555000D03*
D12*
X130155000Y-122845000D03*
D10*
X163235000Y-66485000D03*
D11*
X162580001Y-67215000D03*
D10*
X168275000Y-65405000D03*
D12*
X168255000Y-65695000D03*
D20*
X182245000Y-45801750D03*
X182245000Y-48341750D03*
X182245000Y-50881750D03*
X182245000Y-53421750D03*
X182245000Y-55961750D03*
X182245000Y-58501750D03*
X182245000Y-61041750D03*
X182245000Y-63581750D03*
X182245000Y-66121750D03*
X182245000Y-68661750D03*
X182245000Y-71201750D03*
X182245000Y-73741750D03*
X197485000Y-73741750D03*
X197485000Y-71201750D03*
X197485000Y-68661750D03*
X197485000Y-66121750D03*
X197485000Y-63581750D03*
X197485000Y-61041750D03*
X197485000Y-58501750D03*
X197485000Y-55961750D03*
X197485000Y-53421750D03*
X197485000Y-50881750D03*
X197485000Y-48341750D03*
X197485000Y-45801750D03*
X184785000Y-68661750D03*
X187325000Y-68661750D03*
X189865000Y-68661750D03*
D10*
X48935000Y-85535000D03*
D11*
X48280001Y-86265000D03*
D10*
X53975000Y-84455000D03*
D12*
X53955000Y-84745000D03*
D10*
X87035000Y-104585000D03*
D11*
X86380001Y-105315000D03*
D10*
X92075000Y-103505000D03*
D12*
X92055000Y-103795000D03*
D11*
X162580001Y-105315000D03*
D10*
X163235000Y-104585000D03*
X168275000Y-103505000D03*
D12*
X168255000Y-103795000D03*
D21*
X189865000Y-134955000D03*
X189865000Y-97455000D03*
D22*
X41910000Y-52637500D03*
X43180000Y-46355000D03*
X179070000Y-64770000D03*
X177800000Y-64770000D03*
X176530000Y-64770000D03*
X175260000Y-64770000D03*
X117475000Y-60960000D03*
X117475000Y-58420000D03*
X175260000Y-59690000D03*
X44450000Y-116205000D03*
X44450000Y-59055000D03*
X108585000Y-118745000D03*
X108585000Y-116840000D03*
X147320000Y-120650000D03*
X147955000Y-115570000D03*
X146685000Y-114300000D03*
X99365000Y-116510000D03*
X102870000Y-114808000D03*
X149860000Y-120650000D03*
X99365000Y-118618000D03*
X102870000Y-118745000D03*
X180185000Y-117630000D03*
X65405000Y-60960000D03*
D23*
X145570000Y-60805000D03*
X145570000Y-58420000D03*
X179705000Y-52324000D03*
X103124000Y-59182000D03*
X176530000Y-57150000D03*
D22*
X55245000Y-59690000D03*
D23*
X102235000Y-62865000D03*
D22*
X41910000Y-49530000D03*
X41910000Y-57150000D03*
X178345489Y-58965489D03*
X187960000Y-80645000D03*
X172085000Y-118745000D03*
D23*
X175260000Y-56515000D03*
D24*
X40356250Y-52637500D02*
X41842500Y-52637500D01*
X41682500Y-46355000D02*
X43180000Y-46355000D01*
X177185909Y-58965489D02*
X176854601Y-58965489D01*
X177517217Y-58965489D02*
X177185909Y-58965489D01*
X178179834Y-58965489D02*
X177848525Y-58965489D01*
X176138926Y-58965489D02*
X175251117Y-58965489D01*
X191850886Y-93690000D02*
X191850345Y-93690000D01*
X191942135Y-93690000D02*
X191941284Y-93690000D01*
X190225541Y-93690000D02*
X190218239Y-93690000D01*
X191855678Y-93690000D02*
X191853653Y-93690000D01*
X188489517Y-93690000D02*
X188486055Y-93690000D01*
X191064748Y-93690000D02*
X191029070Y-93690000D01*
X190584901Y-93690000D02*
X190576799Y-93690000D01*
X187054381Y-93690000D02*
X187047457Y-93690000D01*
X191941284Y-93690000D02*
X191940433Y-93690000D01*
X191115450Y-93690000D02*
X191107938Y-93690000D01*
X189524419Y-93690000D02*
X189518391Y-93690000D01*
X190548163Y-93690000D02*
X190543831Y-93690000D01*
X190352409Y-93690000D02*
X190348288Y-93690000D01*
X191756966Y-93690000D02*
X191754385Y-93690000D01*
X191644676Y-93690000D02*
X191643145Y-93690000D01*
X191843352Y-93690000D02*
X191842339Y-93690000D01*
X190079058Y-93690000D02*
X190067943Y-93690000D01*
X189910255Y-93690000D02*
X189902720Y-93690000D01*
X189886142Y-93690000D02*
X189877098Y-93690000D01*
X186935380Y-93690000D02*
X186931053Y-93690000D01*
X190313753Y-93690000D02*
X190305369Y-93690000D01*
X186896868Y-93690000D02*
X186893406Y-93690000D01*
X190479539Y-93690000D02*
X190477373Y-93690000D01*
X188849777Y-93690000D02*
X188823025Y-93690000D01*
X188589795Y-93690000D02*
X188562101Y-93690000D01*
X191222947Y-93690000D02*
X191222018Y-93690000D01*
X190113722Y-93690000D02*
X190113346Y-93690000D01*
X188479746Y-93690000D02*
X188477514Y-93690000D01*
X189816058Y-93690000D02*
X189798726Y-93690000D01*
X191219799Y-93690000D02*
X191218147Y-93690000D01*
X189566619Y-93690000D02*
X189536476Y-93690000D01*
X191416436Y-93690000D02*
X191407302Y-93690000D01*
X191405563Y-93690000D02*
X191399906Y-93690000D01*
X190260107Y-93690000D02*
X190257141Y-93690000D01*
X188096378Y-93690000D02*
X188073762Y-93690000D01*
X191781136Y-93690000D02*
X191777147Y-93690000D01*
X190404414Y-93690000D02*
X190391981Y-93690000D01*
X189837911Y-93690000D02*
X189825854Y-93690000D01*
X191522125Y-93690000D02*
X191519017Y-93690000D01*
X191917641Y-93690000D02*
X191914297Y-93690000D01*
X189990325Y-93690000D02*
X189987688Y-93690000D01*
X190329954Y-93690000D02*
X190326045Y-93690000D01*
X190045149Y-93690000D02*
X190034601Y-93690000D01*
X186671854Y-93690000D02*
X186668392Y-93690000D01*
X189000496Y-93690000D02*
X188990132Y-93690000D01*
X190946901Y-93690000D02*
X190941718Y-93690000D01*
X187357288Y-93690000D02*
X187284590Y-93690000D01*
X191919701Y-93690000D02*
X191918924Y-93690000D01*
X189785916Y-93690000D02*
X189781394Y-93690000D01*
X191914297Y-93690000D02*
X191910953Y-93690000D01*
X189690208Y-93690000D02*
X189678151Y-93690000D01*
X191477335Y-93690000D02*
X191458825Y-93690000D01*
X191563808Y-93690000D02*
X191558674Y-93690000D01*
X190844369Y-93690000D02*
X190838716Y-93690000D01*
X191612979Y-93690000D02*
X191603795Y-93690000D01*
X190218239Y-93690000D02*
X190210937Y-93690000D01*
X191213448Y-93690000D02*
X191210866Y-93690000D01*
X191574557Y-93690000D02*
X191574157Y-93690000D01*
X186751474Y-93690000D02*
X186748012Y-93690000D01*
X190850022Y-93690000D02*
X190844369Y-93690000D01*
X191535500Y-93690000D02*
X191532392Y-93690000D01*
X191029070Y-93690000D02*
X190993392Y-93690000D01*
X190935001Y-93690000D02*
X190926749Y-93690000D01*
X191835651Y-93690000D02*
X191831530Y-93690000D01*
X187394069Y-93690000D02*
X187393204Y-93690000D01*
X190742309Y-93690000D02*
X190736185Y-93690000D01*
X186923265Y-93690000D02*
X186922400Y-93690000D01*
X191221089Y-93690000D02*
X191220160Y-93690000D01*
X191769403Y-93690000D02*
X191768229Y-93690000D01*
X187157802Y-93690000D02*
X187143089Y-93690000D01*
X189992962Y-93690000D02*
X189990325Y-93690000D01*
X188471284Y-93690000D02*
X188468437Y-93690000D01*
X191185866Y-93690000D02*
X191178352Y-93690000D01*
X188990132Y-93690000D02*
X188979768Y-93690000D01*
X188554235Y-93690000D02*
X188542272Y-93690000D01*
X191258612Y-93690000D02*
X191255798Y-93690000D01*
X188475783Y-93690000D02*
X188474553Y-93690000D01*
X191897429Y-93690000D02*
X191895551Y-93690000D01*
X188506712Y-93690000D02*
X188502943Y-93690000D01*
X188474553Y-93690000D02*
X188473323Y-93690000D01*
X191943141Y-93690000D02*
X191942568Y-93690000D01*
X189155019Y-93690000D02*
X189116118Y-93690000D01*
X191543130Y-93690000D02*
X191539079Y-93690000D01*
X190157431Y-93690000D02*
X190148009Y-93690000D01*
X189468655Y-93690000D02*
X189453583Y-93690000D01*
X191924562Y-93690000D02*
X191922773Y-93690000D01*
X186722482Y-93690000D02*
X186721616Y-93690000D01*
X190382551Y-93690000D02*
X190376123Y-93690000D01*
X191151926Y-93690000D02*
X191150758Y-93690000D01*
X188907991Y-93690000D02*
X188879355Y-93690000D01*
X191739714Y-93690000D02*
X191734550Y-93690000D01*
X191399906Y-93690000D02*
X191394249Y-93690000D01*
X189192842Y-93690000D02*
X189180594Y-93690000D01*
X191888509Y-93690000D02*
X191881467Y-93690000D01*
X189381238Y-93690000D02*
X189348080Y-93690000D01*
X189772350Y-93690000D02*
X189767828Y-93690000D01*
X189702265Y-93690000D02*
X189690208Y-93690000D01*
X191903998Y-93690000D02*
X191900713Y-93690000D01*
X190593003Y-93690000D02*
X190584901Y-93690000D01*
X191447755Y-93690000D02*
X191423831Y-93690000D01*
X190415965Y-93690000D02*
X190405296Y-93690000D01*
X189963199Y-93690000D02*
X189946995Y-93690000D01*
X188295315Y-93690000D02*
X188214693Y-93690000D01*
X186981685Y-93690000D02*
X186967834Y-93690000D01*
X191922773Y-93690000D02*
X191920984Y-93690000D01*
X189518391Y-93690000D02*
X189512363Y-93690000D01*
X191394249Y-93690000D02*
X191388592Y-93690000D01*
X186931053Y-93690000D02*
X186926726Y-93690000D01*
X191233273Y-93690000D02*
X191228110Y-93690000D01*
X191197598Y-93690000D02*
X191197134Y-93690000D01*
X186660169Y-93690000D02*
X186659304Y-93690000D01*
X189776872Y-93690000D02*
X189772350Y-93690000D01*
X191929697Y-93690000D02*
X191927937Y-93690000D01*
X191226587Y-93690000D02*
X191224470Y-93690000D01*
X191763071Y-93690000D02*
X191762838Y-93690000D01*
X191920478Y-93690000D02*
X191919701Y-93690000D01*
X187874824Y-93690000D02*
X187653270Y-93690000D01*
X191223876Y-93690000D02*
X191222947Y-93690000D01*
X188486055Y-93690000D02*
X188482593Y-93690000D01*
X190056263Y-93690000D02*
X190055697Y-93690000D01*
X186704739Y-93690000D02*
X186690892Y-93690000D01*
X191593527Y-93690000D02*
X191592443Y-93690000D01*
X188473323Y-93690000D02*
X188472093Y-93690000D01*
X189453583Y-93690000D02*
X189438511Y-93690000D01*
X186886482Y-93690000D02*
X186869173Y-93690000D01*
X187256895Y-93690000D02*
X187239586Y-93690000D01*
X191761780Y-93690000D02*
X191759431Y-93690000D01*
X191687576Y-93690000D02*
X191675437Y-93690000D01*
X189781394Y-93690000D02*
X189776872Y-93690000D01*
X186734165Y-93690000D02*
X186730704Y-93690000D01*
X191893321Y-93690000D02*
X191890739Y-93690000D01*
X190019863Y-93690000D02*
X190017694Y-93690000D01*
X190007281Y-93690000D02*
X190004644Y-93690000D01*
X190210937Y-93690000D02*
X190203635Y-93690000D01*
X190957267Y-93690000D02*
X190952084Y-93690000D01*
X191304015Y-93690000D02*
X191302841Y-93690000D01*
X191745816Y-93690000D02*
X191744408Y-93690000D01*
X187394934Y-93690000D02*
X187394069Y-93690000D01*
X186914178Y-93690000D02*
X186910716Y-93690000D01*
X190424950Y-93690000D02*
X190417650Y-93690000D01*
X191178352Y-93690000D02*
X191170838Y-93690000D01*
X190695115Y-93690000D02*
X190658377Y-93690000D01*
X190736185Y-93690000D02*
X190730061Y-93690000D01*
X191844365Y-93690000D02*
X191843352Y-93690000D01*
X186737626Y-93690000D02*
X186734165Y-93690000D01*
X190364349Y-93690000D02*
X190360510Y-93690000D01*
X191839772Y-93690000D02*
X191835651Y-93690000D01*
X191487096Y-93690000D02*
X191486083Y-93690000D01*
X191850345Y-93690000D02*
X191849804Y-93690000D01*
X191107938Y-93690000D02*
X191100426Y-93690000D01*
X191388592Y-93690000D02*
X191382935Y-93690000D01*
X191937815Y-93690000D02*
X191936979Y-93690000D01*
X191590146Y-93690000D02*
X191586637Y-93690000D01*
X187134002Y-93690000D02*
X187101115Y-93690000D01*
X191365141Y-93690000D02*
X191341689Y-93690000D01*
X190754557Y-93690000D02*
X190748433Y-93690000D01*
X191194900Y-93690000D02*
X191189969Y-93690000D01*
X190337220Y-93690000D02*
X190331073Y-93690000D01*
X187166889Y-93690000D02*
X187163428Y-93690000D01*
X190467948Y-93690000D02*
X190466345Y-93690000D01*
X190065306Y-93690000D02*
X190059466Y-93690000D01*
X186713826Y-93690000D02*
X186709499Y-93690000D01*
X188657800Y-93690000D02*
X188654031Y-93690000D01*
X191141732Y-93690000D02*
X191136104Y-93690000D01*
X188530637Y-93690000D02*
X188526868Y-93690000D01*
X190658377Y-93690000D02*
X190621639Y-93690000D01*
X189205090Y-93690000D02*
X189192842Y-93690000D01*
X191156278Y-93690000D02*
X191152987Y-93690000D01*
X190513308Y-93690000D02*
X190505208Y-93690000D01*
X190462332Y-93690000D02*
X190459765Y-93690000D01*
X188477013Y-93690000D02*
X188475783Y-93690000D01*
X188534406Y-93690000D02*
X188530637Y-93690000D01*
X191643145Y-93690000D02*
X191641614Y-93690000D01*
X188502616Y-93690000D02*
X188498192Y-93690000D01*
X190445484Y-93690000D02*
X190444119Y-93690000D01*
X188654031Y-93690000D02*
X188650262Y-93690000D01*
X191555566Y-93690000D02*
X191551374Y-93690000D01*
X191573274Y-93690000D02*
X191571108Y-93690000D01*
X191898719Y-93690000D02*
X191898016Y-93690000D01*
X190466026Y-93690000D02*
X190465062Y-93690000D01*
X190543831Y-93690000D02*
X190539499Y-93690000D01*
X186730704Y-93690000D02*
X186727242Y-93690000D01*
X191749690Y-93690000D02*
X191746638Y-93690000D01*
X188665338Y-93690000D02*
X188661569Y-93690000D01*
X191294277Y-93690000D02*
X191278323Y-93690000D01*
X191881143Y-93690000D02*
X191874748Y-93690000D01*
X191581574Y-93690000D02*
X191579007Y-93690000D01*
X191089628Y-93690000D02*
X191075545Y-93690000D01*
X188538175Y-93690000D02*
X188534406Y-93690000D01*
X188879355Y-93690000D02*
X188850719Y-93690000D01*
X191330882Y-93690000D02*
X191312579Y-93690000D01*
X190263073Y-93690000D02*
X190260107Y-93690000D01*
X191164614Y-93690000D02*
X191160154Y-93690000D01*
X191128590Y-93690000D02*
X191121077Y-93690000D01*
X190505208Y-93690000D02*
X190497108Y-93690000D01*
X189765756Y-93690000D02*
X189757090Y-93690000D01*
X186668392Y-93690000D02*
X186664930Y-93690000D01*
X186659304Y-93690000D02*
X186658439Y-93690000D01*
X190473603Y-93690000D02*
X190471436Y-93690000D01*
X190576799Y-93690000D02*
X190568697Y-93690000D01*
X189865040Y-93690000D02*
X189862026Y-93690000D01*
X190539499Y-93690000D02*
X190535167Y-93690000D01*
X189946995Y-93690000D02*
X189930791Y-93690000D01*
X191826903Y-93690000D02*
X191813527Y-93690000D01*
X191853653Y-93690000D02*
X191851628Y-93690000D01*
X190373085Y-93690000D02*
X190369105Y-93690000D01*
X191723753Y-93690000D02*
X191714834Y-93690000D01*
X188764808Y-93690000D02*
X188761039Y-93690000D01*
X189918923Y-93690000D02*
X189910633Y-93690000D01*
X189750496Y-93690000D02*
X189728642Y-93690000D01*
X189714322Y-93690000D02*
X189702265Y-93690000D01*
X191216030Y-93690000D02*
X191213448Y-93690000D01*
X186748012Y-93690000D02*
X186744550Y-93690000D01*
X191549242Y-93690000D02*
X191549171Y-93690000D01*
X190366692Y-93690000D02*
X190366410Y-93690000D01*
X187092461Y-93690000D02*
X187064766Y-93690000D01*
X189891795Y-93690000D02*
X189891041Y-93690000D01*
X186674882Y-93690000D02*
X186674017Y-93690000D01*
X191732672Y-93690000D02*
X191723753Y-93690000D01*
X186921102Y-93690000D02*
X186917640Y-93690000D01*
X188510481Y-93690000D02*
X188506712Y-93690000D01*
X188761039Y-93690000D02*
X188757270Y-93690000D01*
X189980529Y-93690000D02*
X189963574Y-93690000D01*
X190941718Y-93690000D02*
X190936535Y-93690000D01*
X188514250Y-93690000D02*
X188510481Y-93690000D01*
X190532870Y-93690000D02*
X190532609Y-93690000D01*
X191150758Y-93690000D02*
X191149590Y-93690000D01*
X191571108Y-93690000D02*
X191568942Y-93690000D01*
X191932747Y-93690000D02*
X191931926Y-93690000D01*
X191641614Y-93690000D02*
X191640083Y-93690000D01*
X189617864Y-93690000D02*
X189614849Y-93690000D01*
X189868054Y-93690000D02*
X189865040Y-93690000D01*
X186784794Y-93690000D02*
X186783928Y-93690000D01*
X191601770Y-93690000D02*
X191596636Y-93690000D01*
X190388979Y-93690000D02*
X190382551Y-93690000D01*
X190564364Y-93690000D02*
X190556263Y-93690000D01*
X188460898Y-93690000D02*
X188456821Y-93690000D01*
X186967834Y-93690000D02*
X186953987Y-93690000D01*
X190326045Y-93690000D02*
X190322136Y-93690000D01*
X190459765Y-93690000D02*
X190457198Y-93690000D01*
X187173811Y-93690000D02*
X187170350Y-93690000D01*
X191594611Y-93690000D02*
X191593527Y-93690000D01*
X191538608Y-93690000D02*
X191535500Y-93690000D01*
X188768577Y-93690000D02*
X188764808Y-93690000D01*
X191204993Y-93690000D02*
X191200527Y-93690000D01*
X190551271Y-93690000D02*
X190549387Y-93690000D01*
X191525233Y-93690000D02*
X191522125Y-93690000D01*
X186686132Y-93690000D02*
X186681805Y-93690000D01*
X189849968Y-93690000D02*
X189837911Y-93690000D01*
X190748433Y-93690000D02*
X190742309Y-93690000D01*
X186900330Y-93690000D02*
X186896868Y-93690000D01*
X189871068Y-93690000D02*
X189868054Y-93690000D01*
X186860951Y-93690000D02*
X186860086Y-93690000D01*
X191381315Y-93690000D02*
X191372418Y-93690000D01*
X191744408Y-93690000D02*
X191743000Y-93690000D01*
X187201507Y-93690000D02*
X187184197Y-93690000D01*
X188035335Y-93690000D02*
X187935866Y-93690000D01*
X191777147Y-93690000D02*
X191773158Y-93690000D01*
X189902720Y-93690000D02*
X189895185Y-93690000D01*
X191239366Y-93690000D02*
X191236088Y-93690000D01*
X187177272Y-93690000D02*
X187173811Y-93690000D01*
X190438184Y-93690000D02*
X190432249Y-93690000D01*
X190015575Y-93690000D02*
X190009167Y-93690000D01*
X190052918Y-93690000D02*
X190047927Y-93690000D01*
X191579007Y-93690000D02*
X191576440Y-93690000D01*
X191933568Y-93690000D02*
X191932747Y-93690000D01*
X191574957Y-93690000D02*
X191574557Y-93690000D01*
X190166853Y-93690000D02*
X190157431Y-93690000D01*
X191252041Y-93690000D02*
X191247342Y-93690000D01*
X190112970Y-93690000D02*
X190112594Y-93690000D01*
X186813787Y-93690000D02*
X186794747Y-93690000D01*
X190553155Y-93690000D02*
X190551271Y-93690000D01*
X191763304Y-93690000D02*
X191763071Y-93690000D01*
X191939993Y-93690000D02*
X191938262Y-93690000D01*
X190442294Y-93690000D02*
X190440009Y-93690000D01*
X187239586Y-93690000D02*
X187222277Y-93690000D01*
X191806131Y-93690000D02*
X191804716Y-93690000D01*
X190525591Y-93690000D02*
X190520999Y-93690000D01*
X191895551Y-93690000D02*
X191893673Y-93690000D01*
X188118994Y-93690000D02*
X188096378Y-93690000D01*
X191694293Y-93690000D02*
X191692998Y-93690000D01*
X186995531Y-93690000D02*
X186981685Y-93690000D01*
X190090173Y-93690000D02*
X190079058Y-93690000D01*
X191268939Y-93690000D02*
X191266125Y-93690000D01*
X188790056Y-93690000D02*
X188779506Y-93690000D01*
X190446849Y-93690000D02*
X190445484Y-93690000D01*
X190113346Y-93690000D02*
X190112970Y-93690000D01*
X187170350Y-93690000D02*
X187166889Y-93690000D01*
X191759431Y-93690000D02*
X191757082Y-93690000D01*
X189506334Y-93690000D02*
X189488248Y-93690000D01*
X191695588Y-93690000D02*
X191694293Y-93690000D01*
X190465062Y-93690000D02*
X190464098Y-93690000D01*
X191132818Y-93690000D02*
X191131875Y-93690000D01*
X190429623Y-93690000D02*
X190428941Y-93690000D01*
X191245348Y-93690000D02*
X191244638Y-93690000D01*
X190321300Y-93690000D02*
X190319063Y-93690000D01*
X188352012Y-93690000D02*
X188319240Y-93690000D01*
X186850134Y-93690000D02*
X186831095Y-93690000D01*
X190952084Y-93690000D02*
X190946901Y-93690000D01*
X191592443Y-93690000D02*
X191591359Y-93690000D01*
X188141610Y-93690000D02*
X188118994Y-93690000D01*
X186674017Y-93690000D02*
X186673152Y-93690000D01*
X190257141Y-93690000D02*
X190254175Y-93690000D01*
X187037071Y-93690000D02*
X187023224Y-93690000D01*
X191222018Y-93690000D02*
X191221089Y-93690000D01*
X191549313Y-93690000D02*
X191549242Y-93690000D01*
X186910716Y-93690000D02*
X186907254Y-93690000D01*
X191622163Y-93690000D02*
X191612979Y-93690000D01*
X188822083Y-93690000D02*
X188797215Y-93690000D01*
X187579274Y-93690000D02*
X187505711Y-93690000D01*
X190481705Y-93690000D02*
X190479539Y-93690000D01*
X190026123Y-93690000D02*
X190024053Y-93690000D01*
X189275688Y-93690000D02*
X189224540Y-93690000D01*
X191770577Y-93690000D02*
X191769403Y-93690000D01*
X190056829Y-93690000D02*
X190056263Y-93690000D01*
X187505711Y-93690000D02*
X187432148Y-93690000D01*
X188661569Y-93690000D02*
X188657800Y-93690000D01*
X186681805Y-93690000D02*
X186677478Y-93690000D01*
X190367256Y-93690000D02*
X190366974Y-93690000D01*
X191807546Y-93690000D02*
X191806131Y-93690000D01*
X189488248Y-93690000D02*
X189470162Y-93690000D01*
X191567117Y-93690000D02*
X191565633Y-93690000D01*
X190902470Y-93690000D02*
X190889035Y-93690000D01*
X187009377Y-93690000D02*
X186995531Y-93690000D01*
X190610429Y-93690000D02*
X190596111Y-93690000D01*
X189859765Y-93690000D02*
X189852229Y-93690000D01*
X190055697Y-93690000D02*
X190055131Y-93690000D01*
X186860086Y-93690000D02*
X186859221Y-93690000D01*
X186657574Y-93690000D02*
X186656709Y-93690000D01*
X190915905Y-93690000D02*
X190902470Y-93690000D01*
X188391013Y-93690000D02*
X188375936Y-93690000D01*
X190469551Y-93690000D02*
X190467948Y-93690000D01*
X189891041Y-93690000D02*
X189890287Y-93690000D01*
X186721616Y-93690000D02*
X186720750Y-93690000D01*
X189793262Y-93690000D02*
X189786857Y-93690000D01*
X188669107Y-93690000D02*
X188665338Y-93690000D01*
X188406090Y-93690000D02*
X188391013Y-93690000D01*
X187047457Y-93690000D02*
X187040533Y-93690000D01*
X186953987Y-93690000D02*
X186940140Y-93690000D01*
X191743000Y-93690000D02*
X191741592Y-93690000D01*
X191100426Y-93690000D02*
X191092914Y-93690000D01*
X191488109Y-93690000D02*
X191487096Y-93690000D01*
X190762637Y-93690000D02*
X190755209Y-93690000D01*
X190148009Y-93690000D02*
X190138587Y-93690000D01*
X190366974Y-93690000D02*
X190366692Y-93690000D01*
X190302154Y-93690000D02*
X190300199Y-93690000D01*
X191858516Y-93690000D02*
X191855949Y-93690000D01*
X186727242Y-93690000D02*
X186723780Y-93690000D01*
X190024053Y-93690000D02*
X190021983Y-93690000D01*
X186718153Y-93690000D02*
X186713826Y-93690000D01*
X188375936Y-93690000D02*
X188360859Y-93690000D01*
X191899422Y-93690000D02*
X191898719Y-93690000D01*
X190451642Y-93690000D02*
X190447992Y-93690000D01*
X191133761Y-93690000D02*
X191132818Y-93690000D01*
X191244638Y-93690000D02*
X191243928Y-93690000D01*
X188436244Y-93690000D02*
X188421167Y-93690000D01*
X186775706Y-93690000D02*
X186758397Y-93690000D01*
X190444119Y-93690000D02*
X190442754Y-93690000D01*
X190319063Y-93690000D02*
X190316826Y-93690000D01*
X190800233Y-93690000D02*
X190786680Y-93690000D01*
X190021983Y-93690000D02*
X190019913Y-93690000D01*
X189065441Y-93690000D02*
X189025599Y-93690000D01*
X191798853Y-93690000D02*
X191785712Y-93690000D01*
X191568601Y-93690000D02*
X191567117Y-93690000D01*
X188772346Y-93690000D02*
X188768577Y-93690000D01*
X191867971Y-93690000D02*
X191860812Y-93690000D01*
X191302841Y-93690000D02*
X191301667Y-93690000D01*
X190471154Y-93690000D02*
X190469551Y-93690000D01*
X190031446Y-93690000D02*
X190027207Y-93690000D01*
X190366410Y-93690000D02*
X190366128Y-93690000D01*
X190356530Y-93690000D02*
X190352409Y-93690000D01*
X189614849Y-93690000D02*
X189611834Y-93690000D01*
X191242644Y-93690000D02*
X191239366Y-93690000D01*
X188421167Y-93690000D02*
X188406090Y-93690000D01*
X191936979Y-93690000D02*
X191936143Y-93690000D01*
X190730061Y-93690000D02*
X190723937Y-93690000D01*
X190962450Y-93690000D02*
X190957267Y-93690000D01*
X190428941Y-93690000D02*
X190428259Y-93690000D01*
X188776115Y-93690000D02*
X188772346Y-93690000D01*
X190293075Y-93690000D02*
X190280782Y-93690000D01*
X190533131Y-93690000D02*
X190532870Y-93690000D01*
X186664930Y-93690000D02*
X186661468Y-93690000D01*
X191547181Y-93690000D02*
X191543130Y-93690000D01*
X191512329Y-93690000D02*
X191495845Y-93690000D01*
X190786680Y-93690000D02*
X190773127Y-93690000D01*
X191848521Y-93690000D02*
X191845413Y-93690000D01*
X190530183Y-93690000D02*
X190525591Y-93690000D01*
X189620879Y-93690000D02*
X189617864Y-93690000D01*
X189180594Y-93690000D02*
X189168346Y-93690000D01*
X188451321Y-93690000D02*
X188436244Y-93690000D01*
X190300199Y-93690000D02*
X190298244Y-93690000D01*
X187023224Y-93690000D02*
X187009377Y-93690000D01*
X191767409Y-93690000D02*
X191764595Y-93690000D01*
X190496024Y-93690000D02*
X190485756Y-93690000D01*
X191159569Y-93690000D02*
X191156278Y-93690000D01*
X190004644Y-93690000D02*
X190002007Y-93690000D01*
X191255798Y-93690000D02*
X191252984Y-93690000D01*
X189010860Y-93690000D02*
X189000496Y-93690000D01*
X191198062Y-93690000D02*
X191197598Y-93690000D01*
X191931457Y-93690000D02*
X191929697Y-93690000D01*
X191198526Y-93690000D02*
X191198062Y-93690000D01*
X186924130Y-93690000D02*
X186923265Y-93690000D01*
X186917640Y-93690000D02*
X186914178Y-93690000D01*
X191271753Y-93690000D02*
X191268939Y-93690000D01*
X189874083Y-93690000D02*
X189871068Y-93690000D01*
X189414396Y-93690000D02*
X189381238Y-93690000D01*
X191696883Y-93690000D02*
X191695588Y-93690000D01*
X188464975Y-93690000D02*
X188460898Y-93690000D01*
X191874748Y-93690000D02*
X191868353Y-93690000D01*
X188617489Y-93690000D02*
X188589795Y-93690000D01*
X186785660Y-93690000D02*
X186784794Y-93690000D01*
X191661944Y-93690000D02*
X191649922Y-93690000D01*
X191147360Y-93690000D02*
X191141732Y-93690000D01*
X191907283Y-93690000D02*
X191903998Y-93690000D01*
X47625000Y-121398690D02*
X47625000Y-106045000D01*
X47625000Y-83298690D02*
X47625000Y-67945000D01*
X47625000Y-102348690D02*
X47625000Y-86995000D01*
X48280000Y-84880000D02*
X48935000Y-85535000D01*
X186055000Y-40454012D02*
X186055000Y-66225987D01*
X48280000Y-103930000D02*
X48935000Y-104585000D01*
X189157866Y-67954616D02*
X189865000Y-68661750D01*
X184970987Y-39370000D02*
X51034741Y-39370000D01*
X187139012Y-67310000D02*
X187601625Y-67310000D01*
X48280000Y-122980000D02*
X48935000Y-123635000D01*
X48935000Y-41469741D02*
X48935000Y-66485000D01*
X48280000Y-122980000D02*
G75*
G02*
X47625000Y-121398690I1581303J1581307D01*
G01*
X48935000Y-41469741D02*
G75*
G02*
X49550000Y-39985000I2099738J1D01*
G01*
X48280000Y-103930000D02*
G75*
G02*
X47625000Y-102348690I1581303J1581307D01*
G01*
X186372500Y-66992500D02*
G75*
G02*
X186055000Y-66225987I766511J766512D01*
G01*
X186372500Y-66992500D02*
G75*
G03*
X187139012Y-67310000I766513J766513D01*
G01*
X187601625Y-67310000D02*
G75*
G02*
X189157866Y-67954616I0J-2200857D01*
G01*
X47625001Y-83298690D02*
G75*
G03*
X48280001Y-84879999I2236302J-3D01*
G01*
X51034741Y-39370000D02*
G75*
G03*
X49550000Y-39985000I-1J-2099738D01*
G01*
X185737500Y-39687500D02*
G75*
G02*
X186055000Y-40454012I-766513J-766513D01*
G01*
X184970987Y-39370001D02*
G75*
G02*
X185737499Y-39687501I1J-1084010D01*
G01*
X67330000Y-103930000D02*
X67985000Y-104585000D01*
X184335987Y-40005000D02*
X69000728Y-40005000D01*
X186216896Y-67553646D02*
X187325000Y-68661750D01*
X66675000Y-83298690D02*
X66675000Y-67945000D01*
X67985000Y-41020728D02*
X67985000Y-47435000D01*
X66675000Y-102348690D02*
X66675000Y-86995000D01*
X185420000Y-65629768D02*
X185420000Y-41089012D01*
X67330000Y-122980000D02*
X67985000Y-123635000D01*
X67330000Y-84880000D02*
X67985000Y-85535000D01*
X66675000Y-121398690D02*
X66675000Y-106045000D01*
X67330000Y-65830000D02*
X67985000Y-66485000D01*
X66675000Y-64248690D02*
X66675000Y-48895000D01*
X67330000Y-65830000D02*
G75*
G02*
X66675000Y-64248690I1581303J1581307D01*
G01*
X68282500Y-40302500D02*
G75*
G03*
X67985000Y-41020728I718215J-718223D01*
G01*
X66675001Y-121398690D02*
G75*
G03*
X67330001Y-122979999I2236302J-3D01*
G01*
X67330000Y-103930000D02*
G75*
G02*
X66675000Y-102348690I1581303J1581307D01*
G01*
X67330000Y-84880000D02*
G75*
G02*
X66675000Y-83298690I1581303J1581307D01*
G01*
X186216896Y-67553646D02*
G75*
G02*
X185420000Y-65629768I1923874J1923876D01*
G01*
X185102500Y-40322500D02*
G75*
G02*
X185420000Y-41089012I-766513J-766513D01*
G01*
X185102500Y-40322500D02*
G75*
G03*
X184335987Y-40005000I-766512J-766511D01*
G01*
X68282500Y-40302500D02*
G75*
G02*
X69000728Y-40005000I718223J-718215D01*
G01*
X86380000Y-84880000D02*
X87035000Y-85535000D01*
X86380000Y-122980000D02*
X87035000Y-123635000D01*
X85725000Y-83298690D02*
X85725000Y-67945000D01*
X86380000Y-103930000D02*
X87035000Y-104585000D01*
X85725000Y-64248690D02*
X85725000Y-48895000D01*
X86380000Y-65830000D02*
X87035000Y-66485000D01*
X183700987Y-40640000D02*
X88050728Y-40640000D01*
X85725000Y-121398690D02*
X85725000Y-106045000D01*
X85725000Y-102348690D02*
X85725000Y-86995000D01*
X184785000Y-41724012D02*
X184785000Y-68661750D01*
X87035000Y-41655728D02*
X87035000Y-47435000D01*
X184467500Y-40957500D02*
G75*
G03*
X183700987Y-40640000I-766512J-766511D01*
G01*
X86380000Y-103930000D02*
G75*
G02*
X85725000Y-102348690I1581303J1581307D01*
G01*
X87332500Y-40937500D02*
G75*
G03*
X87035000Y-41655728I718215J-718223D01*
G01*
X85725001Y-121398690D02*
G75*
G03*
X86380001Y-122979999I2236302J-3D01*
G01*
X85725001Y-64248690D02*
G75*
G03*
X86380001Y-65829999I2236302J-3D01*
G01*
X86380000Y-84880000D02*
G75*
G02*
X85725000Y-83298690I1581303J1581307D01*
G01*
X184467500Y-40957500D02*
G75*
G02*
X184785000Y-41724012I-766513J-766513D01*
G01*
X88050728Y-40640000D02*
G75*
G03*
X87332500Y-40937500I-5J-1015715D01*
G01*
X104775000Y-121398690D02*
X104775000Y-106045000D01*
X104775000Y-83298690D02*
X104775000Y-67945000D01*
X179777133Y-65477133D02*
X179070000Y-64770000D01*
X104775000Y-64248690D02*
X104775000Y-48895000D01*
X105430000Y-65830000D02*
X106085000Y-66485000D01*
X105430000Y-84880000D02*
X106085000Y-85535000D01*
X105430000Y-122980000D02*
X106085000Y-123635000D01*
X105430000Y-103930000D02*
X106085000Y-104585000D01*
X181333375Y-66121750D02*
X182245000Y-66121750D01*
X104775000Y-102348690D02*
X104775000Y-86995000D01*
X181333375Y-66121750D02*
G75*
G02*
X179777133Y-65477133I3J2200864D01*
G01*
X105430000Y-65830000D02*
G75*
G02*
X104775000Y-64248690I1581303J1581307D01*
G01*
X105430000Y-103930000D02*
G75*
G02*
X104775000Y-102348690I1581303J1581307D01*
G01*
X104775001Y-83298690D02*
G75*
G03*
X105430001Y-84879999I2236302J-3D01*
G01*
X104775001Y-121398690D02*
G75*
G03*
X105430001Y-122979999I2236302J-3D01*
G01*
X181968375Y-68661750D02*
X181563568Y-68661750D01*
X181496146Y-68466146D02*
X177800000Y-64770000D01*
X124480000Y-103930000D02*
X125135000Y-104585000D01*
X123825000Y-64248690D02*
X123825000Y-48895000D01*
X124480000Y-84880000D02*
X125135000Y-85535000D01*
X123825000Y-121398690D02*
X123825000Y-106045000D01*
X123825000Y-83298690D02*
X123825000Y-67945000D01*
X123825000Y-102348690D02*
X123825000Y-86995000D01*
X124480000Y-122980000D02*
X125135000Y-123635000D01*
X124480000Y-65830000D02*
X125135000Y-66485000D01*
X181968375Y-68661750D02*
G75*
G02*
X181968375Y-68661750I0J0D01*
G01*
X181968375Y-68661749D02*
G75*
G02*
X181496147Y-68466145I0J667831D01*
G01*
X124480000Y-122980000D02*
G75*
G02*
X123825000Y-121398690I1581303J1581307D01*
G01*
X124480000Y-84880000D02*
G75*
G02*
X123825000Y-83298690I1581303J1581307D01*
G01*
X123825001Y-64248690D02*
G75*
G03*
X124480001Y-65829999I2236302J-3D01*
G01*
X123825001Y-102348690D02*
G75*
G03*
X124480001Y-103929999I2236302J-3D01*
G01*
X178908103Y-67148103D02*
X176530000Y-64770000D01*
X143530000Y-84880000D02*
X144185000Y-85535000D01*
X142875000Y-102348690D02*
X142875000Y-86995000D01*
X143530000Y-122980000D02*
X144185000Y-123635000D01*
X142875000Y-83298690D02*
X142875000Y-67945000D01*
X142875000Y-64248690D02*
X142875000Y-48895000D01*
X143530000Y-65830000D02*
X144185000Y-66485000D01*
X142875000Y-121398690D02*
X142875000Y-106045000D01*
X143530000Y-103930000D02*
X144185000Y-104585000D01*
X179705000Y-69071981D02*
X179705000Y-69978181D01*
X180928568Y-71201750D02*
X182245000Y-71201750D01*
X142875001Y-64248690D02*
G75*
G03*
X143530001Y-65829999I2236302J-3D01*
G01*
X142875001Y-121398690D02*
G75*
G03*
X143530001Y-122979999I2236302J-3D01*
G01*
X180928568Y-71201749D02*
G75*
G02*
X180063376Y-70843374I2J1223571D01*
G01*
X178908103Y-67148103D02*
G75*
G02*
X179705000Y-69071981I-1923880J-1923880D01*
G01*
X143530000Y-84880000D02*
G75*
G02*
X142875000Y-83298690I1581303J1581307D01*
G01*
X142875001Y-102348690D02*
G75*
G03*
X143530001Y-103929999I2236302J-3D01*
G01*
X179705001Y-69978181D02*
G75*
G03*
X180063376Y-70843374I1223564J-2D01*
G01*
X161925000Y-102348690D02*
X161925000Y-86995000D01*
X162580000Y-65830000D02*
X163235000Y-66485000D01*
X162580000Y-84880000D02*
X163235000Y-85535000D01*
X161925000Y-64248690D02*
X161925000Y-48895000D01*
X162580000Y-122980000D02*
X163235000Y-123635000D01*
X180293568Y-73741750D02*
X182245000Y-73741750D01*
X161925000Y-121398690D02*
X161925000Y-106045000D01*
X162580000Y-103930000D02*
X163235000Y-104585000D01*
X175260000Y-64770000D02*
X178273103Y-67783103D01*
X161925000Y-83298690D02*
X161925000Y-67945000D01*
X179070000Y-72518181D02*
X179070000Y-69706981D01*
X179428375Y-73383375D02*
G75*
G03*
X180293568Y-73741750I865195J865197D01*
G01*
X161925001Y-121398690D02*
G75*
G03*
X162580001Y-122979999I2236302J-3D01*
G01*
X179428375Y-73383375D02*
G75*
G02*
X179070000Y-72518181I865190J865192D01*
G01*
X161925001Y-102348690D02*
G75*
G03*
X162580001Y-103929999I2236302J-3D01*
G01*
X162580000Y-84880000D02*
G75*
G02*
X161925000Y-83298690I1581303J1581307D01*
G01*
X161925001Y-64248690D02*
G75*
G03*
X162580001Y-65829999I2236302J-3D01*
G01*
X179070000Y-69706981D02*
G75*
G03*
X178273103Y-67783103I-2720777J-2D01*
G01*
X117475000Y-60960000D02*
X117475000Y-58420000D01*
X180278731Y-63581750D02*
X182245000Y-63581750D01*
X175260000Y-59690000D02*
X178354853Y-62784853D01*
X178354853Y-62784853D02*
G75*
G03*
X180278731Y-63581750I1923880J1923880D01*
G01*
X44450000Y-59055000D02*
X44450000Y-116205000D01*
X108585000Y-118745000D02*
X108585000Y-116840000D01*
X147637500Y-115887500D02*
X147955000Y-115570000D01*
X147320000Y-120650000D02*
X147320000Y-116654012D01*
X147637500Y-115887500D02*
G75*
G03*
X147320000Y-116654012I766502J-766508D01*
G01*
D25*
X102870000Y-114808000D02*
X102870000Y-118745000D01*
X149860000Y-115384012D02*
X149860000Y-120650000D01*
X146685000Y-114300000D02*
X148775987Y-114300000D01*
X99365000Y-118618000D02*
X99365000Y-116510000D01*
X148775987Y-114300001D02*
G75*
G02*
X149542499Y-114617501I1J-1084010D01*
G01*
X149542500Y-114617500D02*
G75*
G02*
X149860000Y-115384012I-766513J-766513D01*
G01*
D24*
X191224470Y-93690000D02*
X191223876Y-93690000D01*
X186893406Y-93690000D02*
X186886482Y-93690000D01*
X190471436Y-93690000D02*
X190471154Y-93690000D01*
X191064748Y-93690000D02*
X191075545Y-93690000D01*
X191341689Y-93690000D02*
X191330882Y-93690000D01*
X191407302Y-93690000D02*
X191405563Y-93690000D01*
X190621639Y-93690000D02*
X190610429Y-93690000D01*
X188352012Y-93690000D02*
X188360859Y-93690000D01*
X189767828Y-93690000D02*
X189765756Y-93690000D01*
X190007281Y-93690000D02*
X190009167Y-93690000D01*
X190026123Y-93690000D02*
X190027207Y-93690000D01*
X191278323Y-93690000D02*
X191271753Y-93690000D01*
X187037071Y-93690000D02*
X187040533Y-93690000D01*
X186783928Y-93690000D02*
X186775706Y-93690000D01*
X188471284Y-93690000D02*
X188472093Y-93690000D01*
X191855678Y-93690000D02*
X191855949Y-93690000D01*
X186813787Y-93690000D02*
X186831095Y-93690000D01*
X186658439Y-93690000D02*
X186657574Y-93690000D01*
X191858516Y-93690000D02*
X191860812Y-93690000D01*
X190477373Y-93690000D02*
X190473603Y-93690000D01*
X189816058Y-93690000D02*
X189825854Y-93690000D01*
X190293075Y-93690000D02*
X190298244Y-93690000D01*
X187357288Y-93690000D02*
X187393204Y-93690000D01*
X190457198Y-93690000D02*
X190451642Y-93690000D01*
X190112594Y-93690000D02*
X190090173Y-93690000D01*
X191218147Y-93690000D02*
X191216030Y-93690000D01*
X190593003Y-93690000D02*
X190596111Y-93690000D01*
X191910953Y-93690000D02*
X191907283Y-93690000D01*
X190754557Y-93690000D02*
X190755209Y-93690000D01*
X190263073Y-93690000D02*
X190280782Y-93690000D01*
X198912640Y-93690000D02*
X193115000Y-93690000D01*
X191200527Y-93690000D02*
X191198526Y-93690000D01*
X186794747Y-93690000D02*
X186785660Y-93690000D01*
X191867971Y-93690000D02*
X191868353Y-93690000D01*
X189728642Y-93690000D02*
X189714322Y-93690000D01*
X189155019Y-93690000D02*
X189168346Y-93690000D01*
X191551374Y-93690000D02*
X191549313Y-93690000D01*
X186850134Y-93690000D02*
X186859221Y-93690000D01*
X191917641Y-93690000D02*
X191918924Y-93690000D01*
X190329954Y-93690000D02*
X190331073Y-93690000D01*
X189785916Y-93690000D02*
X189786857Y-93690000D01*
X189678151Y-93690000D02*
X189620879Y-93690000D01*
X190034601Y-93690000D02*
X190031446Y-93690000D01*
X191477335Y-93690000D02*
X191486083Y-93690000D01*
X190404414Y-93690000D02*
X190405296Y-93690000D01*
X191488109Y-93690000D02*
X191495845Y-93690000D01*
X191831530Y-93690000D02*
X191826903Y-93690000D01*
X191920984Y-93690000D02*
X191920478Y-93690000D01*
X190360510Y-93690000D02*
X190356530Y-93690000D01*
X190225541Y-93690000D02*
X190254175Y-93690000D01*
X191897429Y-93690000D02*
X191898016Y-93690000D01*
X191519017Y-93690000D02*
X191512329Y-93690000D01*
X191416436Y-93690000D02*
X191423831Y-93690000D01*
X189348080Y-93690000D02*
X189275688Y-93690000D01*
X191294277Y-93690000D02*
X191301667Y-93690000D01*
X200152000Y-54675731D02*
X200152000Y-92450640D01*
X189025599Y-93690000D02*
X189010860Y-93690000D01*
X191850886Y-93690000D02*
X191851628Y-93690000D01*
X187201507Y-93690000D02*
X187222277Y-93690000D01*
X187054381Y-93690000D02*
X187064766Y-93690000D01*
X190364349Y-93690000D02*
X190366128Y-93690000D01*
X191160154Y-93690000D02*
X191159569Y-93690000D01*
X190695115Y-93690000D02*
X190723937Y-93690000D01*
X189468655Y-93690000D02*
X189470162Y-93690000D01*
X191933568Y-93690000D02*
X191936143Y-93690000D01*
X186690892Y-93690000D02*
X186686132Y-93690000D01*
X190045149Y-93690000D02*
X190047927Y-93690000D01*
X189992962Y-93690000D02*
X190002007Y-93690000D01*
X186674882Y-93690000D02*
X186677478Y-93690000D01*
X191539079Y-93690000D02*
X191538608Y-93690000D01*
X190462332Y-93690000D02*
X190464098Y-93690000D01*
X191563808Y-93690000D02*
X191565633Y-93690000D01*
X191219799Y-93690000D02*
X191220160Y-93690000D01*
X190369105Y-93690000D02*
X190367256Y-93690000D01*
X191596636Y-93690000D02*
X191594611Y-93690000D01*
X187394934Y-93690000D02*
X187432148Y-93690000D01*
X191243928Y-93690000D02*
X191242644Y-93690000D01*
X191365141Y-93690000D02*
X191372418Y-93690000D01*
X188468437Y-93690000D02*
X188464975Y-93690000D01*
X191228110Y-93690000D02*
X191226587Y-93690000D01*
X190532609Y-93690000D02*
X190530183Y-93690000D01*
X191844365Y-93690000D02*
X191845413Y-93690000D01*
X191881467Y-93690000D02*
X191881143Y-93690000D01*
X186926726Y-93690000D02*
X186924130Y-93690000D01*
X188526868Y-93690000D02*
X188514250Y-93690000D01*
X186751474Y-93690000D02*
X186758397Y-93690000D01*
X190548163Y-93690000D02*
X190549387Y-93690000D01*
X191151926Y-93690000D02*
X191152987Y-93690000D01*
X191754385Y-93690000D02*
X191749690Y-93690000D01*
X191233273Y-93690000D02*
X191236088Y-93690000D01*
X189963199Y-93690000D02*
X189963574Y-93690000D01*
X189524419Y-93690000D02*
X189536476Y-93690000D01*
X187143089Y-93690000D02*
X187134002Y-93690000D01*
X189566619Y-93690000D02*
X189611834Y-93690000D01*
X190438184Y-93690000D02*
X190440009Y-93690000D01*
X190926749Y-93690000D02*
X190915905Y-93690000D01*
X187184197Y-93690000D02*
X187177272Y-93690000D01*
X191849804Y-93690000D02*
X191848521Y-93690000D01*
X191644676Y-93690000D02*
X191649922Y-93690000D01*
X191943141Y-93690000D02*
X191943428Y-93690000D01*
X191687576Y-93690000D02*
X191692998Y-93690000D01*
X190466345Y-93690000D02*
X190466026Y-93690000D01*
X186722482Y-93690000D02*
X186723780Y-93690000D01*
X190305369Y-93690000D02*
X190302154Y-93690000D01*
X191893321Y-93690000D02*
X191893673Y-93690000D01*
X190535167Y-93690000D02*
X190533131Y-93690000D01*
X188757270Y-93690000D02*
X188669107Y-93690000D01*
X189205090Y-93690000D02*
X189224540Y-93690000D01*
X189877098Y-93690000D02*
X189874083Y-93690000D01*
X189910255Y-93690000D02*
X189910633Y-93690000D01*
X188073762Y-93690000D02*
X188035335Y-93690000D01*
X191603795Y-93690000D02*
X191601770Y-93690000D01*
X191568942Y-93690000D02*
X191568601Y-93690000D01*
X188979768Y-93690000D02*
X188907991Y-93690000D01*
X188790056Y-93690000D02*
X188797215Y-93690000D01*
X188650262Y-93690000D02*
X188617489Y-93690000D01*
X188562101Y-93690000D02*
X188554235Y-93690000D01*
X191149590Y-93690000D02*
X191147360Y-93690000D01*
X187157802Y-93690000D02*
X187163428Y-93690000D01*
X191304015Y-93690000D02*
X191312579Y-93690000D01*
X191804716Y-93690000D02*
X191798853Y-93690000D01*
X191558674Y-93690000D02*
X191555566Y-93690000D01*
X191924562Y-93690000D02*
X191927937Y-93690000D01*
X191756966Y-93690000D02*
X191757082Y-93690000D01*
X189116118Y-93690000D02*
X189065441Y-93690000D01*
X188489517Y-93690000D02*
X188498192Y-93690000D01*
X188295315Y-93690000D02*
X188319240Y-93690000D01*
X191128590Y-93690000D02*
X191131875Y-93690000D01*
X189891795Y-93690000D02*
X189895185Y-93690000D01*
X190052918Y-93690000D02*
X190055131Y-93690000D01*
X191745816Y-93690000D02*
X191746638Y-93690000D01*
X188502943Y-93690000D02*
X188502616Y-93690000D01*
X190850022Y-93690000D02*
X190889035Y-93690000D01*
X191768229Y-93690000D02*
X191767409Y-93690000D01*
X188779506Y-93690000D02*
X188776115Y-93690000D01*
X191931926Y-93690000D02*
X191931457Y-93690000D01*
X191136104Y-93690000D02*
X191133761Y-93690000D01*
X190481705Y-93690000D02*
X190485756Y-93690000D01*
X189438511Y-93690000D02*
X189414396Y-93690000D01*
X190348288Y-93690000D02*
X190337220Y-93690000D01*
X188477514Y-93690000D02*
X188477013Y-93690000D01*
X199355103Y-52751853D02*
X197485000Y-50881750D01*
X186720750Y-93690000D02*
X186718153Y-93690000D01*
X191675437Y-93690000D02*
X191661944Y-93690000D01*
X191252041Y-93690000D02*
X191252984Y-93690000D01*
X189886142Y-93690000D02*
X189890287Y-93690000D01*
X191576440Y-93690000D02*
X191574957Y-93690000D01*
X189930791Y-93690000D02*
X189918923Y-93690000D01*
X191210866Y-93690000D02*
X191204993Y-93690000D01*
X186656709Y-93690000D02*
X186656277Y-93690000D01*
X191781136Y-93690000D02*
X191785712Y-93690000D01*
X191942135Y-93690000D02*
X191942568Y-93690000D01*
X190067943Y-93690000D02*
X190065306Y-93690000D01*
X191900713Y-93690000D02*
X191899422Y-93690000D01*
X186737626Y-93690000D02*
X186744550Y-93690000D01*
X189987688Y-93690000D02*
X189980529Y-93690000D01*
X191115450Y-93690000D02*
X191121077Y-93690000D01*
X191185866Y-93690000D02*
X191189969Y-93690000D01*
X191247342Y-93690000D02*
X191245348Y-93690000D01*
X191549171Y-93690000D02*
X191547181Y-93690000D01*
X191590146Y-93690000D02*
X191591359Y-93690000D01*
X190059466Y-93690000D02*
X190056829Y-93690000D01*
X186704739Y-93690000D02*
X186709499Y-93690000D01*
X190017694Y-93690000D02*
X190015575Y-93690000D01*
X189798726Y-93690000D02*
X189793262Y-93690000D01*
X190838716Y-93690000D02*
X190800233Y-93690000D01*
X191382935Y-93690000D02*
X191381315Y-93690000D01*
X186935380Y-93690000D02*
X186940140Y-93690000D01*
X187653270Y-93690000D02*
X187579274Y-93690000D01*
X187874824Y-93690000D02*
X187935866Y-93690000D01*
X190203635Y-93690000D02*
X190166853Y-93690000D01*
X188479746Y-93690000D02*
X188482593Y-93690000D01*
X190376123Y-93690000D02*
X190373085Y-93690000D01*
X191813527Y-93690000D02*
X191807546Y-93690000D01*
X191940433Y-93690000D02*
X191939993Y-93690000D01*
X189849968Y-93690000D02*
X189852229Y-93690000D01*
X190762637Y-93690000D02*
X190773127Y-93690000D01*
X190019863Y-93690000D02*
X190019913Y-93690000D01*
X186869173Y-93690000D02*
X186860951Y-93690000D01*
X191197134Y-93690000D02*
X191194900Y-93690000D01*
X190415965Y-93690000D02*
X190417650Y-93690000D01*
X189512363Y-93690000D02*
X189506334Y-93690000D01*
X191888509Y-93690000D02*
X191890739Y-93690000D01*
X191714834Y-93690000D02*
X191696883Y-93690000D01*
X191734550Y-93690000D02*
X191732672Y-93690000D01*
X190935001Y-93690000D02*
X190936535Y-93690000D01*
X191089628Y-93690000D02*
X191092914Y-93690000D01*
X188456821Y-93690000D02*
X188451321Y-93690000D01*
X190313753Y-93690000D02*
X190316826Y-93690000D01*
X190424950Y-93690000D02*
X190428259Y-93690000D01*
X189862026Y-93690000D02*
X189859765Y-93690000D01*
X188823025Y-93690000D02*
X188822083Y-93690000D01*
X191458825Y-93690000D02*
X191447755Y-93690000D01*
X191532392Y-93690000D02*
X191525233Y-93690000D01*
X191170838Y-93690000D02*
X191164614Y-93690000D01*
X190432249Y-93690000D02*
X190429623Y-93690000D01*
X186660169Y-93690000D02*
X186661468Y-93690000D01*
X191574157Y-93690000D02*
X191573274Y-93690000D01*
X190556263Y-93690000D02*
X190553155Y-93690000D01*
X190497108Y-93690000D02*
X190496024Y-93690000D01*
X187101115Y-93690000D02*
X187092461Y-93690000D01*
X190442294Y-93690000D02*
X190442754Y-93690000D01*
X190446849Y-93690000D02*
X190447992Y-93690000D01*
X191586637Y-93690000D02*
X191581574Y-93690000D01*
X191762838Y-93690000D02*
X191761780Y-93690000D01*
X191773158Y-93690000D02*
X191770577Y-93690000D01*
X190322136Y-93690000D02*
X190321300Y-93690000D01*
X191640083Y-93690000D02*
X191622163Y-93690000D01*
X189757090Y-93690000D02*
X189750496Y-93690000D01*
X191937815Y-93690000D02*
X191938262Y-93690000D01*
X190568697Y-93690000D02*
X190564364Y-93690000D01*
X191842339Y-93690000D02*
X191839772Y-93690000D01*
X186671854Y-93690000D02*
X186673152Y-93690000D01*
X191258612Y-93690000D02*
X191266125Y-93690000D01*
X190113722Y-93690000D02*
X190138587Y-93690000D01*
X190993392Y-93690000D02*
X190962450Y-93690000D01*
X187284590Y-93690000D02*
X187256895Y-93690000D01*
X186922400Y-93690000D02*
X186921102Y-93690000D01*
X190513308Y-93690000D02*
X190520999Y-93690000D01*
X188849777Y-93690000D02*
X188850719Y-93690000D01*
X190391981Y-93690000D02*
X190388979Y-93690000D01*
X188214693Y-93690000D02*
X188141610Y-93690000D01*
X191739714Y-93690000D02*
X191741592Y-93690000D01*
X188542272Y-93690000D02*
X188538175Y-93690000D01*
X186900330Y-93690000D02*
X186907254Y-93690000D01*
X191763304Y-93690000D02*
X191764595Y-93690000D01*
X199355103Y-52751853D02*
G75*
G02*
X200152000Y-54675731I-1923880J-1923880D01*
G01*
X198912640Y-93689999D02*
G75*
G03*
X199788999Y-93326999I-3J1239367D01*
G01*
X200151999Y-92450640D02*
G75*
G02*
X199788999Y-93326999I-1239367J3D01*
G01*
X187960000Y-38549012D02*
X187960000Y-52198181D01*
D25*
X178908103Y-55406896D02*
X177389506Y-56925493D01*
D24*
X38327500Y-46355000D02*
X38327500Y-54610000D01*
D25*
X180375500Y-117630000D02*
X180185000Y-117630000D01*
X179705000Y-52324000D02*
X179705000Y-53483018D01*
X181610000Y-93174420D02*
X181610000Y-115847780D01*
X57413025Y-60960000D02*
X65405000Y-60960000D01*
X103124000Y-61347382D02*
X103124000Y-59182000D01*
D24*
X186875987Y-37465000D02*
X51289827Y-37465000D01*
X40780864Y-45720000D02*
X39184012Y-45720000D01*
X49365949Y-38261896D02*
X42704742Y-44923103D01*
X189183568Y-53421750D02*
X196635898Y-53421750D01*
D25*
X181087999Y-117107999D02*
X180700703Y-117495296D01*
X102235000Y-62865000D02*
X102679500Y-62420500D01*
D24*
X38417500Y-46037500D02*
X38100000Y-46355000D01*
D25*
X55880000Y-60325000D02*
X55245000Y-59690000D01*
X183344420Y-91440000D02*
X196967974Y-91440000D01*
X199136000Y-89271974D02*
X199136000Y-56199731D01*
X145570000Y-58420000D02*
X145570000Y-60805000D01*
X176847500Y-57150000D02*
X176530000Y-57150000D01*
X198339103Y-54275853D02*
X197485000Y-53421750D01*
D24*
X42704742Y-44923103D02*
G75*
G02*
X40780864Y-45720000I-1923880J1923880D01*
G01*
X187960000Y-38549012D02*
G75*
G03*
X187642500Y-37782500I-1084013J-1D01*
G01*
D25*
X198501000Y-90805000D02*
G75*
G03*
X199136000Y-89271974I-1533039J1533031D01*
G01*
D24*
X51289827Y-37465000D02*
G75*
G03*
X49365949Y-38261896I-2J-2720770D01*
G01*
D25*
X196967974Y-91439999D02*
G75*
G03*
X198500999Y-90804999I-5J2168038D01*
G01*
X177389506Y-56925493D02*
G75*
G02*
X176847500Y-57150000I-542010J542012D01*
G01*
X102679500Y-62420500D02*
G75*
G03*
X103124000Y-61347382I-1073122J1073120D01*
G01*
D24*
X187960001Y-52198181D02*
G75*
G03*
X188318376Y-53063374I1223564J-2D01*
G01*
D25*
X179705000Y-53483018D02*
G75*
G02*
X178908103Y-55406896I-2720777J2D01*
G01*
X182118000Y-91948000D02*
G75*
G02*
X183344420Y-91440000I1226415J-1226408D01*
G01*
X57413025Y-60960000D02*
G75*
G02*
X55880000Y-60325000I3J2168030D01*
G01*
X181610001Y-93174420D02*
G75*
G02*
X182118001Y-91948001I1734407J5D01*
G01*
D24*
X188318375Y-53063375D02*
G75*
G03*
X189183568Y-53421750I865195J865197D01*
G01*
X39184012Y-45720001D02*
G75*
G03*
X38417501Y-46037501I-4J-1084001D01*
G01*
D25*
X180700703Y-117495296D02*
G75*
G02*
X180375500Y-117630000I-325207J325211D01*
G01*
X199136000Y-56199731D02*
G75*
G03*
X198339103Y-54275853I-2720777J-2D01*
G01*
X181609999Y-115847780D02*
G75*
G02*
X181087998Y-117107998I-1782223J3D01*
G01*
D24*
X186875987Y-37465001D02*
G75*
G02*
X187642499Y-37782501I1J-1084010D01*
G01*
X187325000Y-54738181D02*
X187325000Y-39184012D01*
X40356250Y-48327500D02*
X40005000Y-48327500D01*
X42461571Y-45803427D02*
X41910000Y-46355000D01*
X47625507Y-40638056D02*
X49366667Y-38896896D01*
X188548568Y-55961750D02*
X197485000Y-55961750D01*
X42461571Y-45803427D02*
X42461573Y-45803424D01*
X42461573Y-45803424D02*
X47624492Y-40640507D01*
X40955871Y-48575871D02*
X41910000Y-49530000D01*
X51290545Y-38100000D02*
X186240987Y-38100000D01*
X42461573Y-45803427D02*
G75*
G03*
X42461573Y-45803427I0J0D01*
G01*
X186240987Y-38100001D02*
G75*
G02*
X187007499Y-38417501I1J-1084010D01*
G01*
X187683375Y-55603375D02*
G75*
G02*
X187325000Y-54738181I865190J865192D01*
G01*
X49366667Y-38896896D02*
G75*
G02*
X51290545Y-38100000I1923876J-1923874D01*
G01*
X42461573Y-45803427D02*
G75*
G03*
X42461573Y-45803425I-1116203397J1D01*
G01*
X42461571Y-45803427D02*
G75*
G02*
X42461573Y-45803427I1J0D01*
G01*
X40356250Y-48327500D02*
G75*
G02*
X40955871Y-48575871I1J-847989D01*
G01*
X42461573Y-45803427D02*
G75*
G03*
X42461573Y-45803424I-1116203397J1D01*
G01*
X187325000Y-39184012D02*
G75*
G03*
X187007500Y-38417500I-1084013J-1D01*
G01*
X47625000Y-40639282D02*
G75*
G02*
X47624492Y-40640507I-1742J5D01*
G01*
X187683375Y-55603375D02*
G75*
G03*
X188548568Y-55961750I865195J865197D01*
G01*
X47625001Y-40639282D02*
G75*
G02*
X47625508Y-40638057I1723J5D01*
G01*
X47175987Y-57150000D02*
X41910000Y-57150000D01*
X187913568Y-58501750D02*
X197485000Y-58501750D01*
X186690000Y-57278181D02*
X186690000Y-39819012D01*
X49367385Y-39531896D02*
X49056896Y-39842385D01*
X40356250Y-52637500D02*
X40180625Y-52637500D01*
X41682500Y-54462500D02*
X41682500Y-54610000D01*
X41578201Y-54210701D02*
X40129185Y-52761685D01*
X51291263Y-38735000D02*
X185605987Y-38735000D01*
X48260000Y-41766263D02*
X48260000Y-56065987D01*
X185605987Y-38735001D02*
G75*
G02*
X186372499Y-39052501I1J-1084010D01*
G01*
X186690001Y-57278181D02*
G75*
G03*
X187048376Y-58143374I1223564J-2D01*
G01*
X49056896Y-39842385D02*
G75*
G03*
X48260000Y-41766263I1923874J-1923876D01*
G01*
X40180625Y-52637500D02*
G75*
G03*
X40129186Y-52761684I-2J-72745D01*
G01*
X48260000Y-56065987D02*
G75*
G02*
X47942500Y-56832500I-1084022J4D01*
G01*
X41578201Y-54210701D02*
G75*
G02*
X41682500Y-54462500I-251803J-251801D01*
G01*
X187913568Y-58501749D02*
G75*
G02*
X187048376Y-58143374I2J1223571D01*
G01*
X186690000Y-39819012D02*
G75*
G03*
X186372500Y-39052500I-1084013J-1D01*
G01*
X47175987Y-57150000D02*
G75*
G03*
X47942500Y-56832500I-4J1084022D01*
G01*
X49367385Y-39531896D02*
G75*
G02*
X51291263Y-38735000I1923876J-1923874D01*
G01*
X184010060Y-89190000D02*
X193098203Y-89190000D01*
X41924547Y-50710489D02*
X42682982Y-50710489D01*
X43557544Y-51072744D02*
X43919800Y-51435000D01*
X182880000Y-54056750D02*
X182245000Y-53421750D01*
X183515000Y-88265000D02*
X183515000Y-88694939D01*
X183515000Y-55589775D02*
X183515000Y-87610926D01*
X40005000Y-51218750D02*
X40005000Y-49462500D01*
X40773141Y-51301858D02*
X40968505Y-51106494D01*
X186560820Y-89190000D02*
G75*
G02*
X186506642Y-89190000I-27089J1162931824D01*
G01*
X183515000Y-88694939D02*
G75*
G03*
X183660000Y-89045000I495061J0D01*
G01*
X40005000Y-51218750D02*
G75*
G03*
X40288750Y-51502500I283750J0D01*
G01*
X186560820Y-89190000D02*
G75*
G02*
X186506642Y-89190000I-27089J1162931824D01*
G01*
X182880000Y-54056750D02*
G75*
G02*
X183515000Y-55589775I-1533030J-1533028D01*
G01*
X183514999Y-87610926D02*
G75*
G02*
X183514999Y-88265000I-1257256823J-327037D01*
G01*
X183514999Y-87610926D02*
G75*
G02*
X183514999Y-88265000I-1257256823J-327037D01*
G01*
X40288750Y-51502499D02*
G75*
G03*
X40773140Y-51301857I-5J685042D01*
G01*
X40968505Y-51106494D02*
G75*
G02*
X41924547Y-50710489I956041J-956041D01*
G01*
X42682982Y-50710490D02*
G75*
G02*
X43557543Y-51072745I-1J-1236820D01*
G01*
X183660000Y-89045000D02*
G75*
G03*
X184010060Y-89190000I350064J350068D01*
G01*
X40436250Y-46355000D02*
X39142500Y-46355000D01*
X43252400Y-48935000D02*
X43919800Y-48935000D01*
X41172439Y-47522439D02*
X42113076Y-48463076D01*
X41172439Y-47522439D02*
G75*
G02*
X40867500Y-46786250I736192J736190D01*
G01*
X42113076Y-48463076D02*
G75*
G03*
X43252400Y-48935000I1139328J1139332D01*
G01*
X40436250Y-46355000D02*
G75*
G02*
X40867500Y-46786250I-1J-431251D01*
G01*
X40753750Y-54610000D02*
X39142500Y-54610000D01*
X40947933Y-54917933D02*
X41071250Y-55041250D01*
X43081723Y-54773076D02*
X43919800Y-53935000D01*
X41563146Y-55245000D02*
X41942400Y-55245000D01*
X40753750Y-54610000D02*
G75*
G02*
X40867500Y-54723750I0J-113750D01*
G01*
X41071250Y-55041250D02*
G75*
G03*
X41563146Y-55245000I491895J491893D01*
G01*
X41942400Y-55244999D02*
G75*
G03*
X43081722Y-54773075I-5J1611255D01*
G01*
X40867500Y-54723750D02*
G75*
G03*
X40947933Y-54917933I274607J-4D01*
G01*
X176854601Y-58965489D02*
X176138926Y-58965489D01*
D25*
X177288469Y-50881750D02*
X182245000Y-50881750D01*
D24*
X191286896Y-81441896D02*
X193665000Y-83820000D01*
D25*
X172466000Y-60272634D02*
X172466000Y-118094592D01*
D24*
X178345489Y-58965489D02*
X178179834Y-58965489D01*
X174151212Y-58309487D02*
X174151212Y-57623787D01*
X187960000Y-80645000D02*
X189363018Y-80645000D01*
D25*
X174151212Y-57623787D02*
X173828787Y-57946212D01*
D24*
X177517217Y-58965489D02*
X177848525Y-58965489D01*
X174807213Y-58965489D02*
X175251117Y-58965489D01*
D25*
X172275500Y-118554500D02*
X172085000Y-118745000D01*
X175260000Y-56515000D02*
X174151212Y-57623787D01*
X175260000Y-56515000D02*
X175260000Y-52910219D01*
X173147393Y-58627605D02*
X173828787Y-57946212D01*
D24*
X173990001Y-58012989D02*
G75*
G02*
X174151213Y-57623788I550406J4D01*
G01*
X189363018Y-80645000D02*
G75*
G02*
X191286896Y-81441896I2J-2720770D01*
G01*
X173828786Y-57946211D02*
G75*
G02*
X173990000Y-58012989I66777J-66778D01*
G01*
X174343350Y-58773350D02*
G75*
G02*
X174151212Y-58309487I463863J463862D01*
G01*
D25*
X177288469Y-50881750D02*
G75*
G03*
X175854125Y-51475875I-1J-2028465D01*
G01*
X172466001Y-60272634D02*
G75*
G02*
X173147394Y-58627606I2326420J1D01*
G01*
X175260000Y-52910219D02*
G75*
G02*
X175854125Y-51475875I2028465J1D01*
G01*
X172466000Y-118094592D02*
G75*
G02*
X172275500Y-118554500I-650418J4D01*
G01*
D24*
X174343350Y-58773350D02*
G75*
G03*
X174807213Y-58965489I463866J463868D01*
G01*
M02*
