%TF.GenerationSoftware,KiCad,Pcbnew,(6.0.1)*%
%TF.CreationDate,2022-04-05T18:42:57+02:00*%
%TF.ProjectId,Keyboard Left Hand Side,4b657962-6f61-4726-9420-4c6566742048,rev?*%
%TF.SameCoordinates,Original*%
%TF.FileFunction,Legend,Bot*%
%TF.FilePolarity,Positive*%
%FSLAX46Y46*%
G04 Gerber Fmt 4.6, Leading zero omitted, Abs format (unit mm)*
G04 Created by KiCad (PCBNEW (6.0.1)) date 2022-04-05 18:42:57*
%MOMM*%
%LPD*%
G01*
G04 APERTURE LIST*
G04 Aperture macros list*
%AMRoundRect*
0 Rectangle with rounded corners*
0 $1 Rounding radius*
0 $2 $3 $4 $5 $6 $7 $8 $9 X,Y pos of 4 corners*
0 Add a 4 corners polygon primitive as box body*
4,1,4,$2,$3,$4,$5,$6,$7,$8,$9,$2,$3,0*
0 Add four circle primitives for the rounded corners*
1,1,$1+$1,$2,$3*
1,1,$1+$1,$4,$5*
1,1,$1+$1,$6,$7*
1,1,$1+$1,$8,$9*
0 Add four rect primitives between the rounded corners*
20,1,$1+$1,$2,$3,$4,$5,0*
20,1,$1+$1,$4,$5,$6,$7,0*
20,1,$1+$1,$6,$7,$8,$9,0*
20,1,$1+$1,$8,$9,$2,$3,0*%
%AMHorizOval*
0 Thick line with rounded ends*
0 $1 width*
0 $2 $3 position (X,Y) of the first rounded end (center of the circle)*
0 $4 $5 position (X,Y) of the second rounded end (center of the circle)*
0 Add line between two ends*
20,1,$1,$2,$3,$4,$5,0*
0 Add two circle primitives to create the rounded ends*
1,1,$1,$2,$3*
1,1,$1,$4,$5*%
G04 Aperture macros list end*
%ADD10C,0.300000*%
%ADD11C,0.150000*%
%ADD12C,0.120000*%
%ADD13C,1.752600*%
%ADD14C,1.750000*%
%ADD15C,3.987800*%
%ADD16C,2.250000*%
%ADD17HorizOval,2.250000X0.655001X0.730000X-0.655001X-0.730000X0*%
%ADD18HorizOval,2.250000X0.020000X0.290000X-0.020000X-0.290000X0*%
%ADD19C,2.200000*%
%ADD20C,1.397000*%
%ADD21C,3.048000*%
%ADD22R,2.000000X2.000000*%
%ADD23C,2.000000*%
%ADD24R,3.000000X2.500000*%
%ADD25RoundRect,0.140000X-0.170000X0.140000X-0.170000X-0.140000X0.170000X-0.140000X0.170000X0.140000X0*%
%ADD26R,1.200000X0.900000*%
%ADD27C,2.800000*%
%ADD28R,1.500000X1.000000*%
G04 APERTURE END LIST*
D10*
X134563571Y-37913571D02*
X134563571Y-38985000D01*
X134635000Y-39199285D01*
X134777857Y-39342142D01*
X134992142Y-39413571D01*
X135135000Y-39413571D01*
X133135000Y-39413571D02*
X133849285Y-39413571D01*
X133849285Y-37913571D01*
X131777857Y-39270714D02*
X131849285Y-39342142D01*
X132063571Y-39413571D01*
X132206428Y-39413571D01*
X132420714Y-39342142D01*
X132563571Y-39199285D01*
X132635000Y-39056428D01*
X132706428Y-38770714D01*
X132706428Y-38556428D01*
X132635000Y-38270714D01*
X132563571Y-38127857D01*
X132420714Y-37985000D01*
X132206428Y-37913571D01*
X132063571Y-37913571D01*
X131849285Y-37985000D01*
X131777857Y-38056428D01*
X130706428Y-37913571D02*
X130706428Y-38985000D01*
X130777857Y-39199285D01*
X130920714Y-39342142D01*
X131135000Y-39413571D01*
X131277857Y-39413571D01*
X129277857Y-39413571D02*
X129992142Y-39413571D01*
X129992142Y-37913571D01*
X127920714Y-39270714D02*
X127992142Y-39342142D01*
X128206428Y-39413571D01*
X128349285Y-39413571D01*
X128563571Y-39342142D01*
X128706428Y-39199285D01*
X128777857Y-39056428D01*
X128849285Y-38770714D01*
X128849285Y-38556428D01*
X128777857Y-38270714D01*
X128706428Y-38127857D01*
X128563571Y-37985000D01*
X128349285Y-37913571D01*
X128206428Y-37913571D01*
X127992142Y-37985000D01*
X127920714Y-38056428D01*
X126849285Y-37913571D02*
X126849285Y-38985000D01*
X126920714Y-39199285D01*
X127063571Y-39342142D01*
X127277857Y-39413571D01*
X127420714Y-39413571D01*
X125420714Y-39413571D02*
X126135000Y-39413571D01*
X126135000Y-37913571D01*
X124063571Y-39270714D02*
X124135000Y-39342142D01*
X124349285Y-39413571D01*
X124492142Y-39413571D01*
X124706428Y-39342142D01*
X124849285Y-39199285D01*
X124920714Y-39056428D01*
X124992142Y-38770714D01*
X124992142Y-38556428D01*
X124920714Y-38270714D01*
X124849285Y-38127857D01*
X124706428Y-37985000D01*
X124492142Y-37913571D01*
X124349285Y-37913571D01*
X124135000Y-37985000D01*
X124063571Y-38056428D01*
X122992142Y-37913571D02*
X122992142Y-38985000D01*
X123063571Y-39199285D01*
X123206428Y-39342142D01*
X123420714Y-39413571D01*
X123563571Y-39413571D01*
X121563571Y-39413571D02*
X122277857Y-39413571D01*
X122277857Y-37913571D01*
X120206428Y-39270714D02*
X120277857Y-39342142D01*
X120492142Y-39413571D01*
X120635000Y-39413571D01*
X120849285Y-39342142D01*
X120992142Y-39199285D01*
X121063571Y-39056428D01*
X121135000Y-38770714D01*
X121135000Y-38556428D01*
X121063571Y-38270714D01*
X120992142Y-38127857D01*
X120849285Y-37985000D01*
X120635000Y-37913571D01*
X120492142Y-37913571D01*
X120277857Y-37985000D01*
X120206428Y-38056428D01*
D11*
X185127810Y-63133654D02*
X185051619Y-63133654D01*
X184975429Y-63171750D01*
X184937333Y-63209845D01*
X184899238Y-63286035D01*
X184861143Y-63438416D01*
X184861143Y-63628892D01*
X184899238Y-63781273D01*
X184937333Y-63857464D01*
X184975429Y-63895559D01*
X185051619Y-63933654D01*
X185127810Y-63933654D01*
X185204000Y-63895559D01*
X185242095Y-63857464D01*
X185280190Y-63781273D01*
X185318286Y-63628892D01*
X185318286Y-63438416D01*
X185280190Y-63286035D01*
X185242095Y-63209845D01*
X185204000Y-63171750D01*
X185127810Y-63133654D01*
X184556381Y-63209845D02*
X184518286Y-63171750D01*
X184442095Y-63133654D01*
X184251619Y-63133654D01*
X184175429Y-63171750D01*
X184137333Y-63209845D01*
X184099238Y-63286035D01*
X184099238Y-63362226D01*
X184137333Y-63476511D01*
X184594476Y-63933654D01*
X184099238Y-63933654D01*
X183413524Y-63400321D02*
X183413524Y-63933654D01*
X183604000Y-63095559D02*
X183794476Y-63666988D01*
X183299238Y-63666988D01*
X196202191Y-58063654D02*
X196126000Y-58063654D01*
X196049810Y-58101750D01*
X196011714Y-58139845D01*
X195973619Y-58216035D01*
X195935524Y-58368416D01*
X195935524Y-58558892D01*
X195973619Y-58711273D01*
X196011714Y-58787464D01*
X196049810Y-58825559D01*
X196126000Y-58863654D01*
X196202191Y-58863654D01*
X196278381Y-58825559D01*
X196316476Y-58787464D01*
X196354571Y-58711273D01*
X196392667Y-58558892D01*
X196392667Y-58368416D01*
X196354571Y-58216035D01*
X196316476Y-58139845D01*
X196278381Y-58101750D01*
X196202191Y-58063654D01*
X195630762Y-58139845D02*
X195592667Y-58101750D01*
X195516476Y-58063654D01*
X195326000Y-58063654D01*
X195249810Y-58101750D01*
X195211714Y-58139845D01*
X195173619Y-58216035D01*
X195173619Y-58292226D01*
X195211714Y-58406511D01*
X195668857Y-58863654D01*
X195173619Y-58863654D01*
X194792667Y-58863654D02*
X194640286Y-58863654D01*
X194564095Y-58825559D01*
X194526000Y-58787464D01*
X194449810Y-58673178D01*
X194411714Y-58520797D01*
X194411714Y-58216035D01*
X194449810Y-58139845D01*
X194487905Y-58101750D01*
X194564095Y-58063654D01*
X194716476Y-58063654D01*
X194792667Y-58101750D01*
X194830762Y-58139845D01*
X194868857Y-58216035D01*
X194868857Y-58406511D01*
X194830762Y-58482702D01*
X194792667Y-58520797D01*
X194716476Y-58558892D01*
X194564095Y-58558892D01*
X194487905Y-58520797D01*
X194449810Y-58482702D01*
X194411714Y-58406511D01*
X185127810Y-60633654D02*
X185051619Y-60633654D01*
X184975429Y-60671750D01*
X184937333Y-60709845D01*
X184899238Y-60786035D01*
X184861143Y-60938416D01*
X184861143Y-61128892D01*
X184899238Y-61281273D01*
X184937333Y-61357464D01*
X184975429Y-61395559D01*
X185051619Y-61433654D01*
X185127810Y-61433654D01*
X185204000Y-61395559D01*
X185242095Y-61357464D01*
X185280190Y-61281273D01*
X185318286Y-61128892D01*
X185318286Y-60938416D01*
X185280190Y-60786035D01*
X185242095Y-60709845D01*
X185204000Y-60671750D01*
X185127810Y-60633654D01*
X184556381Y-60709845D02*
X184518286Y-60671750D01*
X184442095Y-60633654D01*
X184251619Y-60633654D01*
X184175429Y-60671750D01*
X184137333Y-60709845D01*
X184099238Y-60786035D01*
X184099238Y-60862226D01*
X184137333Y-60976511D01*
X184594476Y-61433654D01*
X184099238Y-61433654D01*
X183794476Y-60709845D02*
X183756381Y-60671750D01*
X183680190Y-60633654D01*
X183489714Y-60633654D01*
X183413524Y-60671750D01*
X183375429Y-60709845D01*
X183337333Y-60786035D01*
X183337333Y-60862226D01*
X183375429Y-60976511D01*
X183832571Y-61433654D01*
X183337333Y-61433654D01*
X195935524Y-69023654D02*
X196392667Y-69023654D01*
X196164095Y-69023654D02*
X196164095Y-68223654D01*
X196240286Y-68337940D01*
X196316476Y-68414130D01*
X196392667Y-68452226D01*
X195173619Y-69023654D02*
X195630762Y-69023654D01*
X195402191Y-69023654D02*
X195402191Y-68223654D01*
X195478381Y-68337940D01*
X195554571Y-68414130D01*
X195630762Y-68452226D01*
X194411714Y-69023654D02*
X194868857Y-69023654D01*
X194640286Y-69023654D02*
X194640286Y-68223654D01*
X194716476Y-68337940D01*
X194792667Y-68414130D01*
X194868857Y-68452226D01*
X185127810Y-55523654D02*
X185051619Y-55523654D01*
X184975429Y-55561750D01*
X184937333Y-55599845D01*
X184899238Y-55676035D01*
X184861143Y-55828416D01*
X184861143Y-56018892D01*
X184899238Y-56171273D01*
X184937333Y-56247464D01*
X184975429Y-56285559D01*
X185051619Y-56323654D01*
X185127810Y-56323654D01*
X185204000Y-56285559D01*
X185242095Y-56247464D01*
X185280190Y-56171273D01*
X185318286Y-56018892D01*
X185318286Y-55828416D01*
X185280190Y-55676035D01*
X185242095Y-55599845D01*
X185204000Y-55561750D01*
X185127810Y-55523654D01*
X184099238Y-56323654D02*
X184556381Y-56323654D01*
X184327810Y-56323654D02*
X184327810Y-55523654D01*
X184404000Y-55637940D01*
X184480190Y-55714130D01*
X184556381Y-55752226D01*
X183832571Y-55523654D02*
X183299238Y-55523654D01*
X183642095Y-56323654D01*
X195935524Y-63943654D02*
X196392667Y-63943654D01*
X196164095Y-63943654D02*
X196164095Y-63143654D01*
X196240286Y-63257940D01*
X196316476Y-63334130D01*
X196392667Y-63372226D01*
X195173619Y-63943654D02*
X195630762Y-63943654D01*
X195402191Y-63943654D02*
X195402191Y-63143654D01*
X195478381Y-63257940D01*
X195554571Y-63334130D01*
X195630762Y-63372226D01*
X194449810Y-63143654D02*
X194830762Y-63143654D01*
X194868857Y-63524607D01*
X194830762Y-63486511D01*
X194754571Y-63448416D01*
X194564095Y-63448416D01*
X194487905Y-63486511D01*
X194449810Y-63524607D01*
X194411714Y-63600797D01*
X194411714Y-63791273D01*
X194449810Y-63867464D01*
X194487905Y-63905559D01*
X194564095Y-63943654D01*
X194754571Y-63943654D01*
X194830762Y-63905559D01*
X194868857Y-63867464D01*
X184861143Y-71563654D02*
X185318286Y-71563654D01*
X185089714Y-71563654D02*
X185089714Y-70763654D01*
X185165905Y-70877940D01*
X185242095Y-70954130D01*
X185318286Y-70992226D01*
X184365905Y-70763654D02*
X184289714Y-70763654D01*
X184213524Y-70801750D01*
X184175429Y-70839845D01*
X184137333Y-70916035D01*
X184099238Y-71068416D01*
X184099238Y-71258892D01*
X184137333Y-71411273D01*
X184175429Y-71487464D01*
X184213524Y-71525559D01*
X184289714Y-71563654D01*
X184365905Y-71563654D01*
X184442095Y-71525559D01*
X184480190Y-71487464D01*
X184518286Y-71411273D01*
X184556381Y-71258892D01*
X184556381Y-71068416D01*
X184518286Y-70916035D01*
X184480190Y-70839845D01*
X184442095Y-70801750D01*
X184365905Y-70763654D01*
X183413524Y-71030321D02*
X183413524Y-71563654D01*
X183604000Y-70725559D02*
X183794476Y-71296988D01*
X183299238Y-71296988D01*
X185127810Y-58133654D02*
X185051619Y-58133654D01*
X184975429Y-58171750D01*
X184937333Y-58209845D01*
X184899238Y-58286035D01*
X184861143Y-58438416D01*
X184861143Y-58628892D01*
X184899238Y-58781273D01*
X184937333Y-58857464D01*
X184975429Y-58895559D01*
X185051619Y-58933654D01*
X185127810Y-58933654D01*
X185204000Y-58895559D01*
X185242095Y-58857464D01*
X185280190Y-58781273D01*
X185318286Y-58628892D01*
X185318286Y-58438416D01*
X185280190Y-58286035D01*
X185242095Y-58209845D01*
X185204000Y-58171750D01*
X185127810Y-58133654D01*
X184556381Y-58209845D02*
X184518286Y-58171750D01*
X184442095Y-58133654D01*
X184251619Y-58133654D01*
X184175429Y-58171750D01*
X184137333Y-58209845D01*
X184099238Y-58286035D01*
X184099238Y-58362226D01*
X184137333Y-58476511D01*
X184594476Y-58933654D01*
X184099238Y-58933654D01*
X183604000Y-58133654D02*
X183527810Y-58133654D01*
X183451619Y-58171750D01*
X183413524Y-58209845D01*
X183375429Y-58286035D01*
X183337333Y-58438416D01*
X183337333Y-58628892D01*
X183375429Y-58781273D01*
X183413524Y-58857464D01*
X183451619Y-58895559D01*
X183527810Y-58933654D01*
X183604000Y-58933654D01*
X183680190Y-58895559D01*
X183718286Y-58857464D01*
X183756381Y-58781273D01*
X183794476Y-58628892D01*
X183794476Y-58438416D01*
X183756381Y-58286035D01*
X183718286Y-58209845D01*
X183680190Y-58171750D01*
X183604000Y-58133654D01*
X195929190Y-47941750D02*
X196005381Y-47903654D01*
X196119667Y-47903654D01*
X196233952Y-47941750D01*
X196310143Y-48017940D01*
X196348238Y-48094130D01*
X196386333Y-48246511D01*
X196386333Y-48360797D01*
X196348238Y-48513178D01*
X196310143Y-48589369D01*
X196233952Y-48665559D01*
X196119667Y-48703654D01*
X196043476Y-48703654D01*
X195929190Y-48665559D01*
X195891095Y-48627464D01*
X195891095Y-48360797D01*
X196043476Y-48360797D01*
X195548238Y-48703654D02*
X195548238Y-47903654D01*
X195091095Y-48703654D01*
X195091095Y-47903654D01*
X194710143Y-48703654D02*
X194710143Y-47903654D01*
X194519667Y-47903654D01*
X194405381Y-47941750D01*
X194329190Y-48017940D01*
X194291095Y-48094130D01*
X194253000Y-48246511D01*
X194253000Y-48360797D01*
X194291095Y-48513178D01*
X194329190Y-48589369D01*
X194405381Y-48665559D01*
X194519667Y-48703654D01*
X194710143Y-48703654D01*
X185013523Y-50481750D02*
X185089714Y-50443654D01*
X185204000Y-50443654D01*
X185318285Y-50481750D01*
X185394476Y-50557940D01*
X185432571Y-50634130D01*
X185470666Y-50786511D01*
X185470666Y-50900797D01*
X185432571Y-51053178D01*
X185394476Y-51129369D01*
X185318285Y-51205559D01*
X185204000Y-51243654D01*
X185127809Y-51243654D01*
X185013523Y-51205559D01*
X184975428Y-51167464D01*
X184975428Y-50900797D01*
X185127809Y-50900797D01*
X184632571Y-51243654D02*
X184632571Y-50443654D01*
X184175428Y-51243654D01*
X184175428Y-50443654D01*
X183794476Y-51243654D02*
X183794476Y-50443654D01*
X183604000Y-50443654D01*
X183489714Y-50481750D01*
X183413523Y-50557940D01*
X183375428Y-50634130D01*
X183337333Y-50786511D01*
X183337333Y-50900797D01*
X183375428Y-51053178D01*
X183413523Y-51129369D01*
X183489714Y-51205559D01*
X183604000Y-51243654D01*
X183794476Y-51243654D01*
X185127810Y-45363654D02*
X185051619Y-45363654D01*
X184975429Y-45401750D01*
X184937333Y-45439845D01*
X184899238Y-45516035D01*
X184861143Y-45668416D01*
X184861143Y-45858892D01*
X184899238Y-46011273D01*
X184937333Y-46087464D01*
X184975429Y-46125559D01*
X185051619Y-46163654D01*
X185127810Y-46163654D01*
X185204000Y-46125559D01*
X185242095Y-46087464D01*
X185280190Y-46011273D01*
X185318286Y-45858892D01*
X185318286Y-45668416D01*
X185280190Y-45516035D01*
X185242095Y-45439845D01*
X185204000Y-45401750D01*
X185127810Y-45363654D01*
X184365905Y-45363654D02*
X184289714Y-45363654D01*
X184213524Y-45401750D01*
X184175429Y-45439845D01*
X184137333Y-45516035D01*
X184099238Y-45668416D01*
X184099238Y-45858892D01*
X184137333Y-46011273D01*
X184175429Y-46087464D01*
X184213524Y-46125559D01*
X184289714Y-46163654D01*
X184365905Y-46163654D01*
X184442095Y-46125559D01*
X184480190Y-46087464D01*
X184518286Y-46011273D01*
X184556381Y-45858892D01*
X184556381Y-45668416D01*
X184518286Y-45516035D01*
X184480190Y-45439845D01*
X184442095Y-45401750D01*
X184365905Y-45363654D01*
X183413524Y-45363654D02*
X183565905Y-45363654D01*
X183642095Y-45401750D01*
X183680190Y-45439845D01*
X183756381Y-45554130D01*
X183794476Y-45706511D01*
X183794476Y-46011273D01*
X183756381Y-46087464D01*
X183718286Y-46125559D01*
X183642095Y-46163654D01*
X183489714Y-46163654D01*
X183413524Y-46125559D01*
X183375429Y-46087464D01*
X183337333Y-46011273D01*
X183337333Y-45820797D01*
X183375429Y-45744607D01*
X183413524Y-45706511D01*
X183489714Y-45668416D01*
X183642095Y-45668416D01*
X183718286Y-45706511D01*
X183756381Y-45744607D01*
X183794476Y-45820797D01*
X185013523Y-53021750D02*
X185089714Y-52983654D01*
X185204000Y-52983654D01*
X185318285Y-53021750D01*
X185394476Y-53097940D01*
X185432571Y-53174130D01*
X185470666Y-53326511D01*
X185470666Y-53440797D01*
X185432571Y-53593178D01*
X185394476Y-53669369D01*
X185318285Y-53745559D01*
X185204000Y-53783654D01*
X185127809Y-53783654D01*
X185013523Y-53745559D01*
X184975428Y-53707464D01*
X184975428Y-53440797D01*
X185127809Y-53440797D01*
X184632571Y-53783654D02*
X184632571Y-52983654D01*
X184175428Y-53783654D01*
X184175428Y-52983654D01*
X183794476Y-53783654D02*
X183794476Y-52983654D01*
X183604000Y-52983654D01*
X183489714Y-53021750D01*
X183413523Y-53097940D01*
X183375428Y-53174130D01*
X183337333Y-53326511D01*
X183337333Y-53440797D01*
X183375428Y-53593178D01*
X183413523Y-53669369D01*
X183489714Y-53745559D01*
X183604000Y-53783654D01*
X183794476Y-53783654D01*
X196202191Y-70763654D02*
X196126000Y-70763654D01*
X196049810Y-70801750D01*
X196011714Y-70839845D01*
X195973619Y-70916035D01*
X195935524Y-71068416D01*
X195935524Y-71258892D01*
X195973619Y-71411273D01*
X196011714Y-71487464D01*
X196049810Y-71525559D01*
X196126000Y-71563654D01*
X196202191Y-71563654D01*
X196278381Y-71525559D01*
X196316476Y-71487464D01*
X196354571Y-71411273D01*
X196392667Y-71258892D01*
X196392667Y-71068416D01*
X196354571Y-70916035D01*
X196316476Y-70839845D01*
X196278381Y-70801750D01*
X196202191Y-70763654D01*
X195173619Y-71563654D02*
X195630762Y-71563654D01*
X195402191Y-71563654D02*
X195402191Y-70763654D01*
X195478381Y-70877940D01*
X195554571Y-70954130D01*
X195630762Y-70992226D01*
X194678381Y-70763654D02*
X194602191Y-70763654D01*
X194526000Y-70801750D01*
X194487905Y-70839845D01*
X194449810Y-70916035D01*
X194411714Y-71068416D01*
X194411714Y-71258892D01*
X194449810Y-71411273D01*
X194487905Y-71487464D01*
X194526000Y-71525559D01*
X194602191Y-71563654D01*
X194678381Y-71563654D01*
X194754571Y-71525559D01*
X194792667Y-71487464D01*
X194830762Y-71411273D01*
X194868857Y-71258892D01*
X194868857Y-71068416D01*
X194830762Y-70916035D01*
X194792667Y-70839845D01*
X194754571Y-70801750D01*
X194678381Y-70763654D01*
X195891095Y-51243654D02*
X196157761Y-50862702D01*
X196348238Y-51243654D02*
X196348238Y-50443654D01*
X196043476Y-50443654D01*
X195967285Y-50481750D01*
X195929190Y-50519845D01*
X195891095Y-50596035D01*
X195891095Y-50710321D01*
X195929190Y-50786511D01*
X195967285Y-50824607D01*
X196043476Y-50862702D01*
X196348238Y-50862702D01*
X195586333Y-51205559D02*
X195472047Y-51243654D01*
X195281571Y-51243654D01*
X195205380Y-51205559D01*
X195167285Y-51167464D01*
X195129190Y-51091273D01*
X195129190Y-51015083D01*
X195167285Y-50938892D01*
X195205380Y-50900797D01*
X195281571Y-50862702D01*
X195433952Y-50824607D01*
X195510142Y-50786511D01*
X195548238Y-50748416D01*
X195586333Y-50672226D01*
X195586333Y-50596035D01*
X195548238Y-50519845D01*
X195510142Y-50481750D01*
X195433952Y-50443654D01*
X195243476Y-50443654D01*
X195129190Y-50481750D01*
X194900619Y-50443654D02*
X194443476Y-50443654D01*
X194672047Y-51243654D02*
X194672047Y-50443654D01*
X185127810Y-47833654D02*
X185051619Y-47833654D01*
X184975429Y-47871750D01*
X184937333Y-47909845D01*
X184899238Y-47986035D01*
X184861143Y-48138416D01*
X184861143Y-48328892D01*
X184899238Y-48481273D01*
X184937333Y-48557464D01*
X184975429Y-48595559D01*
X185051619Y-48633654D01*
X185127810Y-48633654D01*
X185204000Y-48595559D01*
X185242095Y-48557464D01*
X185280190Y-48481273D01*
X185318286Y-48328892D01*
X185318286Y-48138416D01*
X185280190Y-47986035D01*
X185242095Y-47909845D01*
X185204000Y-47871750D01*
X185127810Y-47833654D01*
X184365905Y-47833654D02*
X184289714Y-47833654D01*
X184213524Y-47871750D01*
X184175429Y-47909845D01*
X184137333Y-47986035D01*
X184099238Y-48138416D01*
X184099238Y-48328892D01*
X184137333Y-48481273D01*
X184175429Y-48557464D01*
X184213524Y-48595559D01*
X184289714Y-48633654D01*
X184365905Y-48633654D01*
X184442095Y-48595559D01*
X184480190Y-48557464D01*
X184518286Y-48481273D01*
X184556381Y-48328892D01*
X184556381Y-48138416D01*
X184518286Y-47986035D01*
X184480190Y-47909845D01*
X184442095Y-47871750D01*
X184365905Y-47833654D01*
X183642095Y-48176511D02*
X183718286Y-48138416D01*
X183756381Y-48100321D01*
X183794476Y-48024130D01*
X183794476Y-47986035D01*
X183756381Y-47909845D01*
X183718286Y-47871750D01*
X183642095Y-47833654D01*
X183489714Y-47833654D01*
X183413524Y-47871750D01*
X183375429Y-47909845D01*
X183337333Y-47986035D01*
X183337333Y-48024130D01*
X183375429Y-48100321D01*
X183413524Y-48138416D01*
X183489714Y-48176511D01*
X183642095Y-48176511D01*
X183718286Y-48214607D01*
X183756381Y-48252702D01*
X183794476Y-48328892D01*
X183794476Y-48481273D01*
X183756381Y-48557464D01*
X183718286Y-48595559D01*
X183642095Y-48633654D01*
X183489714Y-48633654D01*
X183413524Y-48595559D01*
X183375429Y-48557464D01*
X183337333Y-48481273D01*
X183337333Y-48328892D01*
X183375429Y-48252702D01*
X183413524Y-48214607D01*
X183489714Y-48176511D01*
X196202191Y-60603654D02*
X196126000Y-60603654D01*
X196049810Y-60641750D01*
X196011714Y-60679845D01*
X195973619Y-60756035D01*
X195935524Y-60908416D01*
X195935524Y-61098892D01*
X195973619Y-61251273D01*
X196011714Y-61327464D01*
X196049810Y-61365559D01*
X196126000Y-61403654D01*
X196202191Y-61403654D01*
X196278381Y-61365559D01*
X196316476Y-61327464D01*
X196354571Y-61251273D01*
X196392667Y-61098892D01*
X196392667Y-60908416D01*
X196354571Y-60756035D01*
X196316476Y-60679845D01*
X196278381Y-60641750D01*
X196202191Y-60603654D01*
X195440286Y-60603654D02*
X195364095Y-60603654D01*
X195287905Y-60641750D01*
X195249810Y-60679845D01*
X195211714Y-60756035D01*
X195173619Y-60908416D01*
X195173619Y-61098892D01*
X195211714Y-61251273D01*
X195249810Y-61327464D01*
X195287905Y-61365559D01*
X195364095Y-61403654D01*
X195440286Y-61403654D01*
X195516476Y-61365559D01*
X195554571Y-61327464D01*
X195592667Y-61251273D01*
X195630762Y-61098892D01*
X195630762Y-60908416D01*
X195592667Y-60756035D01*
X195554571Y-60679845D01*
X195516476Y-60641750D01*
X195440286Y-60603654D01*
X194868857Y-60679845D02*
X194830762Y-60641750D01*
X194754571Y-60603654D01*
X194564095Y-60603654D01*
X194487905Y-60641750D01*
X194449810Y-60679845D01*
X194411714Y-60756035D01*
X194411714Y-60832226D01*
X194449810Y-60946511D01*
X194906952Y-61403654D01*
X194411714Y-61403654D01*
X195935524Y-66483654D02*
X196392667Y-66483654D01*
X196164095Y-66483654D02*
X196164095Y-65683654D01*
X196240286Y-65797940D01*
X196316476Y-65874130D01*
X196392667Y-65912226D01*
X195173619Y-66483654D02*
X195630762Y-66483654D01*
X195402191Y-66483654D02*
X195402191Y-65683654D01*
X195478381Y-65797940D01*
X195554571Y-65874130D01*
X195630762Y-65912226D01*
X194906952Y-65683654D02*
X194411714Y-65683654D01*
X194678381Y-65988416D01*
X194564095Y-65988416D01*
X194487905Y-66026511D01*
X194449810Y-66064607D01*
X194411714Y-66140797D01*
X194411714Y-66331273D01*
X194449810Y-66407464D01*
X194487905Y-66445559D01*
X194564095Y-66483654D01*
X194792667Y-66483654D01*
X194868857Y-66445559D01*
X194906952Y-66407464D01*
X196202191Y-55523654D02*
X196126000Y-55523654D01*
X196049810Y-55561750D01*
X196011714Y-55599845D01*
X195973619Y-55676035D01*
X195935524Y-55828416D01*
X195935524Y-56018892D01*
X195973619Y-56171273D01*
X196011714Y-56247464D01*
X196049810Y-56285559D01*
X196126000Y-56323654D01*
X196202191Y-56323654D01*
X196278381Y-56285559D01*
X196316476Y-56247464D01*
X196354571Y-56171273D01*
X196392667Y-56018892D01*
X196392667Y-55828416D01*
X196354571Y-55676035D01*
X196316476Y-55599845D01*
X196278381Y-55561750D01*
X196202191Y-55523654D01*
X195668857Y-55523654D02*
X195173619Y-55523654D01*
X195440286Y-55828416D01*
X195326000Y-55828416D01*
X195249810Y-55866511D01*
X195211714Y-55904607D01*
X195173619Y-55980797D01*
X195173619Y-56171273D01*
X195211714Y-56247464D01*
X195249810Y-56285559D01*
X195326000Y-56323654D01*
X195554571Y-56323654D01*
X195630762Y-56285559D01*
X195668857Y-56247464D01*
X194411714Y-56323654D02*
X194868857Y-56323654D01*
X194640286Y-56323654D02*
X194640286Y-55523654D01*
X194716476Y-55637940D01*
X194792667Y-55714130D01*
X194868857Y-55752226D01*
X195891095Y-46163654D02*
X196157762Y-45782702D01*
X196348238Y-46163654D02*
X196348238Y-45363654D01*
X196043476Y-45363654D01*
X195967286Y-45401750D01*
X195929191Y-45439845D01*
X195891095Y-45516035D01*
X195891095Y-45630321D01*
X195929191Y-45706511D01*
X195967286Y-45744607D01*
X196043476Y-45782702D01*
X196348238Y-45782702D01*
X195586334Y-45935083D02*
X195205381Y-45935083D01*
X195662524Y-46163654D02*
X195395857Y-45363654D01*
X195129191Y-46163654D01*
X194938715Y-45363654D02*
X194748238Y-46163654D01*
X194595857Y-45592226D01*
X194443476Y-46163654D01*
X194253000Y-45363654D01*
X196468857Y-52983654D02*
X196202191Y-53783654D01*
X195935524Y-52983654D01*
X195211714Y-53707464D02*
X195249810Y-53745559D01*
X195364095Y-53783654D01*
X195440286Y-53783654D01*
X195554571Y-53745559D01*
X195630762Y-53669369D01*
X195668857Y-53593178D01*
X195706952Y-53440797D01*
X195706952Y-53326511D01*
X195668857Y-53174130D01*
X195630762Y-53097940D01*
X195554571Y-53021750D01*
X195440286Y-52983654D01*
X195364095Y-52983654D01*
X195249810Y-53021750D01*
X195211714Y-53059845D01*
X194411714Y-53707464D02*
X194449810Y-53745559D01*
X194564095Y-53783654D01*
X194640286Y-53783654D01*
X194754571Y-53745559D01*
X194830762Y-53669369D01*
X194868857Y-53593178D01*
X194906952Y-53440797D01*
X194906952Y-53326511D01*
X194868857Y-53174130D01*
X194830762Y-53097940D01*
X194754571Y-53021750D01*
X194640286Y-52983654D01*
X194564095Y-52983654D01*
X194449810Y-53021750D01*
X194411714Y-53059845D01*
X184861143Y-66483654D02*
X185318286Y-66483654D01*
X185089714Y-66483654D02*
X185089714Y-65683654D01*
X185165905Y-65797940D01*
X185242095Y-65874130D01*
X185318286Y-65912226D01*
X184365905Y-65683654D02*
X184289714Y-65683654D01*
X184213524Y-65721750D01*
X184175429Y-65759845D01*
X184137333Y-65836035D01*
X184099238Y-65988416D01*
X184099238Y-66178892D01*
X184137333Y-66331273D01*
X184175429Y-66407464D01*
X184213524Y-66445559D01*
X184289714Y-66483654D01*
X184365905Y-66483654D01*
X184442095Y-66445559D01*
X184480190Y-66407464D01*
X184518286Y-66331273D01*
X184556381Y-66178892D01*
X184556381Y-65988416D01*
X184518286Y-65836035D01*
X184480190Y-65759845D01*
X184442095Y-65721750D01*
X184365905Y-65683654D01*
X183604000Y-65683654D02*
X183527810Y-65683654D01*
X183451619Y-65721750D01*
X183413524Y-65759845D01*
X183375429Y-65836035D01*
X183337333Y-65988416D01*
X183337333Y-66178892D01*
X183375429Y-66331273D01*
X183413524Y-66407464D01*
X183451619Y-66445559D01*
X183527810Y-66483654D01*
X183604000Y-66483654D01*
X183680190Y-66445559D01*
X183718286Y-66407464D01*
X183756381Y-66331273D01*
X183794476Y-66178892D01*
X183794476Y-65988416D01*
X183756381Y-65836035D01*
X183718286Y-65759845D01*
X183680190Y-65721750D01*
X183604000Y-65683654D01*
X149057142Y-58888333D02*
X149104761Y-58840714D01*
X149152380Y-58697857D01*
X149152380Y-58602619D01*
X149104761Y-58459761D01*
X149009523Y-58364523D01*
X148914285Y-58316904D01*
X148723809Y-58269285D01*
X148580952Y-58269285D01*
X148390476Y-58316904D01*
X148295238Y-58364523D01*
X148200000Y-58459761D01*
X148152380Y-58602619D01*
X148152380Y-58697857D01*
X148200000Y-58840714D01*
X148247619Y-58888333D01*
X148152380Y-59221666D02*
X148152380Y-59840714D01*
X148533333Y-59507380D01*
X148533333Y-59650238D01*
X148580952Y-59745476D01*
X148628571Y-59793095D01*
X148723809Y-59840714D01*
X148961904Y-59840714D01*
X149057142Y-59793095D01*
X149104761Y-59745476D01*
X149152380Y-59650238D01*
X149152380Y-59364523D01*
X149104761Y-59269285D01*
X149057142Y-59221666D01*
X52537142Y-59523333D02*
X52584761Y-59475714D01*
X52632380Y-59332857D01*
X52632380Y-59237619D01*
X52584761Y-59094761D01*
X52489523Y-58999523D01*
X52394285Y-58951904D01*
X52203809Y-58904285D01*
X52060952Y-58904285D01*
X51870476Y-58951904D01*
X51775238Y-58999523D01*
X51680000Y-59094761D01*
X51632380Y-59237619D01*
X51632380Y-59332857D01*
X51680000Y-59475714D01*
X51727619Y-59523333D01*
X52632380Y-60475714D02*
X52632380Y-59904285D01*
X52632380Y-60190000D02*
X51632380Y-60190000D01*
X51775238Y-60094761D01*
X51870476Y-59999523D01*
X51918095Y-59904285D01*
X100797142Y-59523333D02*
X100844761Y-59475714D01*
X100892380Y-59332857D01*
X100892380Y-59237619D01*
X100844761Y-59094761D01*
X100749523Y-58999523D01*
X100654285Y-58951904D01*
X100463809Y-58904285D01*
X100320952Y-58904285D01*
X100130476Y-58951904D01*
X100035238Y-58999523D01*
X99940000Y-59094761D01*
X99892380Y-59237619D01*
X99892380Y-59332857D01*
X99940000Y-59475714D01*
X99987619Y-59523333D01*
X99987619Y-59904285D02*
X99940000Y-59951904D01*
X99892380Y-60047142D01*
X99892380Y-60285238D01*
X99940000Y-60380476D01*
X99987619Y-60428095D01*
X100082857Y-60475714D01*
X100178095Y-60475714D01*
X100320952Y-60428095D01*
X100892380Y-59856666D01*
X100892380Y-60475714D01*
X176712380Y-126554761D02*
X175712380Y-126554761D01*
X175712380Y-126792857D01*
X175760000Y-126935714D01*
X175855238Y-127030952D01*
X175950476Y-127078571D01*
X176140952Y-127126190D01*
X176283809Y-127126190D01*
X176474285Y-127078571D01*
X176569523Y-127030952D01*
X176664761Y-126935714D01*
X176712380Y-126792857D01*
X176712380Y-126554761D01*
X176807619Y-127316666D02*
X176807619Y-128078571D01*
X175712380Y-128221428D02*
X175712380Y-128840476D01*
X176093333Y-128507142D01*
X176093333Y-128650000D01*
X176140952Y-128745238D01*
X176188571Y-128792857D01*
X176283809Y-128840476D01*
X176521904Y-128840476D01*
X176617142Y-128792857D01*
X176664761Y-128745238D01*
X176712380Y-128650000D01*
X176712380Y-128364285D01*
X176664761Y-128269047D01*
X176617142Y-128221428D01*
X175712380Y-129173809D02*
X175712380Y-129792857D01*
X176093333Y-129459523D01*
X176093333Y-129602380D01*
X176140952Y-129697619D01*
X176188571Y-129745238D01*
X176283809Y-129792857D01*
X176521904Y-129792857D01*
X176617142Y-129745238D01*
X176664761Y-129697619D01*
X176712380Y-129602380D01*
X176712380Y-129316666D01*
X176664761Y-129221428D01*
X176617142Y-129173809D01*
X62412380Y-88439761D02*
X61412380Y-88439761D01*
X61412380Y-88677857D01*
X61460000Y-88820714D01*
X61555238Y-88915952D01*
X61650476Y-88963571D01*
X61840952Y-89011190D01*
X61983809Y-89011190D01*
X62174285Y-88963571D01*
X62269523Y-88915952D01*
X62364761Y-88820714D01*
X62412380Y-88677857D01*
X62412380Y-88439761D01*
X62507619Y-89201666D02*
X62507619Y-89963571D01*
X62412380Y-90725476D02*
X62412380Y-90154047D01*
X62412380Y-90439761D02*
X61412380Y-90439761D01*
X61555238Y-90344523D01*
X61650476Y-90249285D01*
X61698095Y-90154047D01*
X61412380Y-91058809D02*
X61412380Y-91677857D01*
X61793333Y-91344523D01*
X61793333Y-91487380D01*
X61840952Y-91582619D01*
X61888571Y-91630238D01*
X61983809Y-91677857D01*
X62221904Y-91677857D01*
X62317142Y-91630238D01*
X62364761Y-91582619D01*
X62412380Y-91487380D01*
X62412380Y-91201666D01*
X62364761Y-91106428D01*
X62317142Y-91058809D01*
X109323095Y-63642380D02*
X109323095Y-62642380D01*
X109085000Y-62642380D01*
X108942142Y-62690000D01*
X108846904Y-62785238D01*
X108799285Y-62880476D01*
X108751666Y-63070952D01*
X108751666Y-63213809D01*
X108799285Y-63404285D01*
X108846904Y-63499523D01*
X108942142Y-63594761D01*
X109085000Y-63642380D01*
X109323095Y-63642380D01*
X108370714Y-62737619D02*
X108323095Y-62690000D01*
X108227857Y-62642380D01*
X107989761Y-62642380D01*
X107894523Y-62690000D01*
X107846904Y-62737619D01*
X107799285Y-62832857D01*
X107799285Y-62928095D01*
X107846904Y-63070952D01*
X108418333Y-63642380D01*
X107799285Y-63642380D01*
X104149285Y-61742380D02*
X104720714Y-61742380D01*
X104435000Y-61742380D02*
X104435000Y-60742380D01*
X104530238Y-60885238D01*
X104625476Y-60980476D01*
X104720714Y-61028095D01*
X157662380Y-50815952D02*
X156662380Y-50815952D01*
X156662380Y-51054047D01*
X156710000Y-51196904D01*
X156805238Y-51292142D01*
X156900476Y-51339761D01*
X157090952Y-51387380D01*
X157233809Y-51387380D01*
X157424285Y-51339761D01*
X157519523Y-51292142D01*
X157614761Y-51196904D01*
X157662380Y-51054047D01*
X157662380Y-50815952D01*
X157757619Y-51577857D02*
X157757619Y-52339761D01*
X156995714Y-53006428D02*
X157662380Y-53006428D01*
X156614761Y-52768333D02*
X157329047Y-52530238D01*
X157329047Y-53149285D01*
X176702380Y-88424761D02*
X175702380Y-88424761D01*
X175702380Y-88662857D01*
X175750000Y-88805714D01*
X175845238Y-88900952D01*
X175940476Y-88948571D01*
X176130952Y-88996190D01*
X176273809Y-88996190D01*
X176464285Y-88948571D01*
X176559523Y-88900952D01*
X176654761Y-88805714D01*
X176702380Y-88662857D01*
X176702380Y-88424761D01*
X176797619Y-89186666D02*
X176797619Y-89948571D01*
X176702380Y-90710476D02*
X176702380Y-90139047D01*
X176702380Y-90424761D02*
X175702380Y-90424761D01*
X175845238Y-90329523D01*
X175940476Y-90234285D01*
X175988095Y-90139047D01*
X176702380Y-91186666D02*
X176702380Y-91377142D01*
X176654761Y-91472380D01*
X176607142Y-91520000D01*
X176464285Y-91615238D01*
X176273809Y-91662857D01*
X175892857Y-91662857D01*
X175797619Y-91615238D01*
X175750000Y-91567619D01*
X175702380Y-91472380D01*
X175702380Y-91281904D01*
X175750000Y-91186666D01*
X175797619Y-91139047D01*
X175892857Y-91091428D01*
X176130952Y-91091428D01*
X176226190Y-91139047D01*
X176273809Y-91186666D01*
X176321428Y-91281904D01*
X176321428Y-91472380D01*
X176273809Y-91567619D01*
X176226190Y-91615238D01*
X176130952Y-91662857D01*
X100512380Y-107489761D02*
X99512380Y-107489761D01*
X99512380Y-107727857D01*
X99560000Y-107870714D01*
X99655238Y-107965952D01*
X99750476Y-108013571D01*
X99940952Y-108061190D01*
X100083809Y-108061190D01*
X100274285Y-108013571D01*
X100369523Y-107965952D01*
X100464761Y-107870714D01*
X100512380Y-107727857D01*
X100512380Y-107489761D01*
X100607619Y-108251666D02*
X100607619Y-109013571D01*
X99607619Y-109204047D02*
X99560000Y-109251666D01*
X99512380Y-109346904D01*
X99512380Y-109585000D01*
X99560000Y-109680238D01*
X99607619Y-109727857D01*
X99702857Y-109775476D01*
X99798095Y-109775476D01*
X99940952Y-109727857D01*
X100512380Y-109156428D01*
X100512380Y-109775476D01*
X99607619Y-110156428D02*
X99560000Y-110204047D01*
X99512380Y-110299285D01*
X99512380Y-110537380D01*
X99560000Y-110632619D01*
X99607619Y-110680238D01*
X99702857Y-110727857D01*
X99798095Y-110727857D01*
X99940952Y-110680238D01*
X100512380Y-110108809D01*
X100512380Y-110727857D01*
X119562380Y-50815952D02*
X118562380Y-50815952D01*
X118562380Y-51054047D01*
X118610000Y-51196904D01*
X118705238Y-51292142D01*
X118800476Y-51339761D01*
X118990952Y-51387380D01*
X119133809Y-51387380D01*
X119324285Y-51339761D01*
X119419523Y-51292142D01*
X119514761Y-51196904D01*
X119562380Y-51054047D01*
X119562380Y-50815952D01*
X119657619Y-51577857D02*
X119657619Y-52339761D01*
X118657619Y-52530238D02*
X118610000Y-52577857D01*
X118562380Y-52673095D01*
X118562380Y-52911190D01*
X118610000Y-53006428D01*
X118657619Y-53054047D01*
X118752857Y-53101666D01*
X118848095Y-53101666D01*
X118990952Y-53054047D01*
X119562380Y-52482619D01*
X119562380Y-53101666D01*
X157662380Y-107489761D02*
X156662380Y-107489761D01*
X156662380Y-107727857D01*
X156710000Y-107870714D01*
X156805238Y-107965952D01*
X156900476Y-108013571D01*
X157090952Y-108061190D01*
X157233809Y-108061190D01*
X157424285Y-108013571D01*
X157519523Y-107965952D01*
X157614761Y-107870714D01*
X157662380Y-107727857D01*
X157662380Y-107489761D01*
X157757619Y-108251666D02*
X157757619Y-109013571D01*
X156757619Y-109204047D02*
X156710000Y-109251666D01*
X156662380Y-109346904D01*
X156662380Y-109585000D01*
X156710000Y-109680238D01*
X156757619Y-109727857D01*
X156852857Y-109775476D01*
X156948095Y-109775476D01*
X157090952Y-109727857D01*
X157662380Y-109156428D01*
X157662380Y-109775476D01*
X156662380Y-110680238D02*
X156662380Y-110204047D01*
X157138571Y-110156428D01*
X157090952Y-110204047D01*
X157043333Y-110299285D01*
X157043333Y-110537380D01*
X157090952Y-110632619D01*
X157138571Y-110680238D01*
X157233809Y-110727857D01*
X157471904Y-110727857D01*
X157567142Y-110680238D01*
X157614761Y-110632619D01*
X157662380Y-110537380D01*
X157662380Y-110299285D01*
X157614761Y-110204047D01*
X157567142Y-110156428D01*
X62412380Y-69870952D02*
X61412380Y-69870952D01*
X61412380Y-70109047D01*
X61460000Y-70251904D01*
X61555238Y-70347142D01*
X61650476Y-70394761D01*
X61840952Y-70442380D01*
X61983809Y-70442380D01*
X62174285Y-70394761D01*
X62269523Y-70347142D01*
X62364761Y-70251904D01*
X62412380Y-70109047D01*
X62412380Y-69870952D01*
X62507619Y-70632857D02*
X62507619Y-71394761D01*
X61412380Y-72061428D02*
X61412380Y-71870952D01*
X61460000Y-71775714D01*
X61507619Y-71728095D01*
X61650476Y-71632857D01*
X61840952Y-71585238D01*
X62221904Y-71585238D01*
X62317142Y-71632857D01*
X62364761Y-71680476D01*
X62412380Y-71775714D01*
X62412380Y-71966190D01*
X62364761Y-72061428D01*
X62317142Y-72109047D01*
X62221904Y-72156666D01*
X61983809Y-72156666D01*
X61888571Y-72109047D01*
X61840952Y-72061428D01*
X61793333Y-71966190D01*
X61793333Y-71775714D01*
X61840952Y-71680476D01*
X61888571Y-71632857D01*
X61983809Y-71585238D01*
X119562380Y-88439761D02*
X118562380Y-88439761D01*
X118562380Y-88677857D01*
X118610000Y-88820714D01*
X118705238Y-88915952D01*
X118800476Y-88963571D01*
X118990952Y-89011190D01*
X119133809Y-89011190D01*
X119324285Y-88963571D01*
X119419523Y-88915952D01*
X119514761Y-88820714D01*
X119562380Y-88677857D01*
X119562380Y-88439761D01*
X119657619Y-89201666D02*
X119657619Y-89963571D01*
X119562380Y-90725476D02*
X119562380Y-90154047D01*
X119562380Y-90439761D02*
X118562380Y-90439761D01*
X118705238Y-90344523D01*
X118800476Y-90249285D01*
X118848095Y-90154047D01*
X118562380Y-91582619D02*
X118562380Y-91392142D01*
X118610000Y-91296904D01*
X118657619Y-91249285D01*
X118800476Y-91154047D01*
X118990952Y-91106428D01*
X119371904Y-91106428D01*
X119467142Y-91154047D01*
X119514761Y-91201666D01*
X119562380Y-91296904D01*
X119562380Y-91487380D01*
X119514761Y-91582619D01*
X119467142Y-91630238D01*
X119371904Y-91677857D01*
X119133809Y-91677857D01*
X119038571Y-91630238D01*
X118990952Y-91582619D01*
X118943333Y-91487380D01*
X118943333Y-91296904D01*
X118990952Y-91201666D01*
X119038571Y-91154047D01*
X119133809Y-91106428D01*
X100532380Y-69870952D02*
X99532380Y-69870952D01*
X99532380Y-70109047D01*
X99580000Y-70251904D01*
X99675238Y-70347142D01*
X99770476Y-70394761D01*
X99960952Y-70442380D01*
X100103809Y-70442380D01*
X100294285Y-70394761D01*
X100389523Y-70347142D01*
X100484761Y-70251904D01*
X100532380Y-70109047D01*
X100532380Y-69870952D01*
X100627619Y-70632857D02*
X100627619Y-71394761D01*
X99960952Y-71775714D02*
X99913333Y-71680476D01*
X99865714Y-71632857D01*
X99770476Y-71585238D01*
X99722857Y-71585238D01*
X99627619Y-71632857D01*
X99580000Y-71680476D01*
X99532380Y-71775714D01*
X99532380Y-71966190D01*
X99580000Y-72061428D01*
X99627619Y-72109047D01*
X99722857Y-72156666D01*
X99770476Y-72156666D01*
X99865714Y-72109047D01*
X99913333Y-72061428D01*
X99960952Y-71966190D01*
X99960952Y-71775714D01*
X100008571Y-71680476D01*
X100056190Y-71632857D01*
X100151428Y-71585238D01*
X100341904Y-71585238D01*
X100437142Y-71632857D01*
X100484761Y-71680476D01*
X100532380Y-71775714D01*
X100532380Y-71966190D01*
X100484761Y-72061428D01*
X100437142Y-72109047D01*
X100341904Y-72156666D01*
X100151428Y-72156666D01*
X100056190Y-72109047D01*
X100008571Y-72061428D01*
X99960952Y-71966190D01*
X156948095Y-63007380D02*
X156948095Y-62007380D01*
X156710000Y-62007380D01*
X156567142Y-62055000D01*
X156471904Y-62150238D01*
X156424285Y-62245476D01*
X156376666Y-62435952D01*
X156376666Y-62578809D01*
X156424285Y-62769285D01*
X156471904Y-62864523D01*
X156567142Y-62959761D01*
X156710000Y-63007380D01*
X156948095Y-63007380D01*
X155424285Y-63007380D02*
X155995714Y-63007380D01*
X155710000Y-63007380D02*
X155710000Y-62007380D01*
X155805238Y-62150238D01*
X155900476Y-62245476D01*
X155995714Y-62293095D01*
X151774285Y-61107380D02*
X152345714Y-61107380D01*
X152060000Y-61107380D02*
X152060000Y-60107380D01*
X152155238Y-60250238D01*
X152250476Y-60345476D01*
X152345714Y-60393095D01*
X62412380Y-126539761D02*
X61412380Y-126539761D01*
X61412380Y-126777857D01*
X61460000Y-126920714D01*
X61555238Y-127015952D01*
X61650476Y-127063571D01*
X61840952Y-127111190D01*
X61983809Y-127111190D01*
X62174285Y-127063571D01*
X62269523Y-127015952D01*
X62364761Y-126920714D01*
X62412380Y-126777857D01*
X62412380Y-126539761D01*
X62507619Y-127301666D02*
X62507619Y-128063571D01*
X61507619Y-128254047D02*
X61460000Y-128301666D01*
X61412380Y-128396904D01*
X61412380Y-128635000D01*
X61460000Y-128730238D01*
X61507619Y-128777857D01*
X61602857Y-128825476D01*
X61698095Y-128825476D01*
X61840952Y-128777857D01*
X62412380Y-128206428D01*
X62412380Y-128825476D01*
X61412380Y-129158809D02*
X61412380Y-129825476D01*
X62412380Y-129396904D01*
X119562380Y-69865952D02*
X118562380Y-69865952D01*
X118562380Y-70104047D01*
X118610000Y-70246904D01*
X118705238Y-70342142D01*
X118800476Y-70389761D01*
X118990952Y-70437380D01*
X119133809Y-70437380D01*
X119324285Y-70389761D01*
X119419523Y-70342142D01*
X119514761Y-70246904D01*
X119562380Y-70104047D01*
X119562380Y-69865952D01*
X119657619Y-70627857D02*
X119657619Y-71389761D01*
X119562380Y-71675476D02*
X119562380Y-71865952D01*
X119514761Y-71961190D01*
X119467142Y-72008809D01*
X119324285Y-72104047D01*
X119133809Y-72151666D01*
X118752857Y-72151666D01*
X118657619Y-72104047D01*
X118610000Y-72056428D01*
X118562380Y-71961190D01*
X118562380Y-71770714D01*
X118610000Y-71675476D01*
X118657619Y-71627857D01*
X118752857Y-71580238D01*
X118990952Y-71580238D01*
X119086190Y-71627857D01*
X119133809Y-71675476D01*
X119181428Y-71770714D01*
X119181428Y-71961190D01*
X119133809Y-72056428D01*
X119086190Y-72104047D01*
X118990952Y-72151666D01*
X109323095Y-115062380D02*
X109323095Y-114062380D01*
X109085000Y-114062380D01*
X108942142Y-114110000D01*
X108846904Y-114205238D01*
X108799285Y-114300476D01*
X108751666Y-114490952D01*
X108751666Y-114633809D01*
X108799285Y-114824285D01*
X108846904Y-114919523D01*
X108942142Y-115014761D01*
X109085000Y-115062380D01*
X109323095Y-115062380D01*
X107846904Y-114062380D02*
X108323095Y-114062380D01*
X108370714Y-114538571D01*
X108323095Y-114490952D01*
X108227857Y-114443333D01*
X107989761Y-114443333D01*
X107894523Y-114490952D01*
X107846904Y-114538571D01*
X107799285Y-114633809D01*
X107799285Y-114871904D01*
X107846904Y-114967142D01*
X107894523Y-115014761D01*
X107989761Y-115062380D01*
X108227857Y-115062380D01*
X108323095Y-115014761D01*
X108370714Y-114967142D01*
X112449285Y-116962380D02*
X113020714Y-116962380D01*
X112735000Y-116962380D02*
X112735000Y-115962380D01*
X112830238Y-116105238D01*
X112925476Y-116200476D01*
X113020714Y-116248095D01*
X157672380Y-126544761D02*
X156672380Y-126544761D01*
X156672380Y-126782857D01*
X156720000Y-126925714D01*
X156815238Y-127020952D01*
X156910476Y-127068571D01*
X157100952Y-127116190D01*
X157243809Y-127116190D01*
X157434285Y-127068571D01*
X157529523Y-127020952D01*
X157624761Y-126925714D01*
X157672380Y-126782857D01*
X157672380Y-126544761D01*
X157767619Y-127306666D02*
X157767619Y-128068571D01*
X156672380Y-128211428D02*
X156672380Y-128830476D01*
X157053333Y-128497142D01*
X157053333Y-128640000D01*
X157100952Y-128735238D01*
X157148571Y-128782857D01*
X157243809Y-128830476D01*
X157481904Y-128830476D01*
X157577142Y-128782857D01*
X157624761Y-128735238D01*
X157672380Y-128640000D01*
X157672380Y-128354285D01*
X157624761Y-128259047D01*
X157577142Y-128211428D01*
X156767619Y-129211428D02*
X156720000Y-129259047D01*
X156672380Y-129354285D01*
X156672380Y-129592380D01*
X156720000Y-129687619D01*
X156767619Y-129735238D01*
X156862857Y-129782857D01*
X156958095Y-129782857D01*
X157100952Y-129735238D01*
X157672380Y-129163809D01*
X157672380Y-129782857D01*
X138612380Y-69389761D02*
X137612380Y-69389761D01*
X137612380Y-69627857D01*
X137660000Y-69770714D01*
X137755238Y-69865952D01*
X137850476Y-69913571D01*
X138040952Y-69961190D01*
X138183809Y-69961190D01*
X138374285Y-69913571D01*
X138469523Y-69865952D01*
X138564761Y-69770714D01*
X138612380Y-69627857D01*
X138612380Y-69389761D01*
X138707619Y-70151666D02*
X138707619Y-70913571D01*
X138612380Y-71675476D02*
X138612380Y-71104047D01*
X138612380Y-71389761D02*
X137612380Y-71389761D01*
X137755238Y-71294523D01*
X137850476Y-71199285D01*
X137898095Y-71104047D01*
X137612380Y-72294523D02*
X137612380Y-72389761D01*
X137660000Y-72485000D01*
X137707619Y-72532619D01*
X137802857Y-72580238D01*
X137993333Y-72627857D01*
X138231428Y-72627857D01*
X138421904Y-72580238D01*
X138517142Y-72532619D01*
X138564761Y-72485000D01*
X138612380Y-72389761D01*
X138612380Y-72294523D01*
X138564761Y-72199285D01*
X138517142Y-72151666D01*
X138421904Y-72104047D01*
X138231428Y-72056428D01*
X137993333Y-72056428D01*
X137802857Y-72104047D01*
X137707619Y-72151666D01*
X137660000Y-72199285D01*
X137612380Y-72294523D01*
X81462380Y-88439761D02*
X80462380Y-88439761D01*
X80462380Y-88677857D01*
X80510000Y-88820714D01*
X80605238Y-88915952D01*
X80700476Y-88963571D01*
X80890952Y-89011190D01*
X81033809Y-89011190D01*
X81224285Y-88963571D01*
X81319523Y-88915952D01*
X81414761Y-88820714D01*
X81462380Y-88677857D01*
X81462380Y-88439761D01*
X81557619Y-89201666D02*
X81557619Y-89963571D01*
X81462380Y-90725476D02*
X81462380Y-90154047D01*
X81462380Y-90439761D02*
X80462380Y-90439761D01*
X80605238Y-90344523D01*
X80700476Y-90249285D01*
X80748095Y-90154047D01*
X80795714Y-91582619D02*
X81462380Y-91582619D01*
X80414761Y-91344523D02*
X81129047Y-91106428D01*
X81129047Y-91725476D01*
X138612380Y-126544761D02*
X137612380Y-126544761D01*
X137612380Y-126782857D01*
X137660000Y-126925714D01*
X137755238Y-127020952D01*
X137850476Y-127068571D01*
X138040952Y-127116190D01*
X138183809Y-127116190D01*
X138374285Y-127068571D01*
X138469523Y-127020952D01*
X138564761Y-126925714D01*
X138612380Y-126782857D01*
X138612380Y-126544761D01*
X138707619Y-127306666D02*
X138707619Y-128068571D01*
X137612380Y-128211428D02*
X137612380Y-128830476D01*
X137993333Y-128497142D01*
X137993333Y-128640000D01*
X138040952Y-128735238D01*
X138088571Y-128782857D01*
X138183809Y-128830476D01*
X138421904Y-128830476D01*
X138517142Y-128782857D01*
X138564761Y-128735238D01*
X138612380Y-128640000D01*
X138612380Y-128354285D01*
X138564761Y-128259047D01*
X138517142Y-128211428D01*
X138612380Y-129782857D02*
X138612380Y-129211428D01*
X138612380Y-129497142D02*
X137612380Y-129497142D01*
X137755238Y-129401904D01*
X137850476Y-129306666D01*
X137898095Y-129211428D01*
X138612380Y-88439761D02*
X137612380Y-88439761D01*
X137612380Y-88677857D01*
X137660000Y-88820714D01*
X137755238Y-88915952D01*
X137850476Y-88963571D01*
X138040952Y-89011190D01*
X138183809Y-89011190D01*
X138374285Y-88963571D01*
X138469523Y-88915952D01*
X138564761Y-88820714D01*
X138612380Y-88677857D01*
X138612380Y-88439761D01*
X138707619Y-89201666D02*
X138707619Y-89963571D01*
X138612380Y-90725476D02*
X138612380Y-90154047D01*
X138612380Y-90439761D02*
X137612380Y-90439761D01*
X137755238Y-90344523D01*
X137850476Y-90249285D01*
X137898095Y-90154047D01*
X137612380Y-91058809D02*
X137612380Y-91725476D01*
X138612380Y-91296904D01*
X62412380Y-107489761D02*
X61412380Y-107489761D01*
X61412380Y-107727857D01*
X61460000Y-107870714D01*
X61555238Y-107965952D01*
X61650476Y-108013571D01*
X61840952Y-108061190D01*
X61983809Y-108061190D01*
X62174285Y-108013571D01*
X62269523Y-107965952D01*
X62364761Y-107870714D01*
X62412380Y-107727857D01*
X62412380Y-107489761D01*
X62507619Y-108251666D02*
X62507619Y-109013571D01*
X61507619Y-109204047D02*
X61460000Y-109251666D01*
X61412380Y-109346904D01*
X61412380Y-109585000D01*
X61460000Y-109680238D01*
X61507619Y-109727857D01*
X61602857Y-109775476D01*
X61698095Y-109775476D01*
X61840952Y-109727857D01*
X62412380Y-109156428D01*
X62412380Y-109775476D01*
X61412380Y-110394523D02*
X61412380Y-110489761D01*
X61460000Y-110585000D01*
X61507619Y-110632619D01*
X61602857Y-110680238D01*
X61793333Y-110727857D01*
X62031428Y-110727857D01*
X62221904Y-110680238D01*
X62317142Y-110632619D01*
X62364761Y-110585000D01*
X62412380Y-110489761D01*
X62412380Y-110394523D01*
X62364761Y-110299285D01*
X62317142Y-110251666D01*
X62221904Y-110204047D01*
X62031428Y-110156428D01*
X61793333Y-110156428D01*
X61602857Y-110204047D01*
X61507619Y-110251666D01*
X61460000Y-110299285D01*
X61412380Y-110394523D01*
X100502380Y-50820952D02*
X99502380Y-50820952D01*
X99502380Y-51059047D01*
X99550000Y-51201904D01*
X99645238Y-51297142D01*
X99740476Y-51344761D01*
X99930952Y-51392380D01*
X100073809Y-51392380D01*
X100264285Y-51344761D01*
X100359523Y-51297142D01*
X100454761Y-51201904D01*
X100502380Y-51059047D01*
X100502380Y-50820952D01*
X100597619Y-51582857D02*
X100597619Y-52344761D01*
X100502380Y-53106666D02*
X100502380Y-52535238D01*
X100502380Y-52820952D02*
X99502380Y-52820952D01*
X99645238Y-52725714D01*
X99740476Y-52630476D01*
X99788095Y-52535238D01*
X81462380Y-126539761D02*
X80462380Y-126539761D01*
X80462380Y-126777857D01*
X80510000Y-126920714D01*
X80605238Y-127015952D01*
X80700476Y-127063571D01*
X80890952Y-127111190D01*
X81033809Y-127111190D01*
X81224285Y-127063571D01*
X81319523Y-127015952D01*
X81414761Y-126920714D01*
X81462380Y-126777857D01*
X81462380Y-126539761D01*
X81557619Y-127301666D02*
X81557619Y-128063571D01*
X80557619Y-128254047D02*
X80510000Y-128301666D01*
X80462380Y-128396904D01*
X80462380Y-128635000D01*
X80510000Y-128730238D01*
X80557619Y-128777857D01*
X80652857Y-128825476D01*
X80748095Y-128825476D01*
X80890952Y-128777857D01*
X81462380Y-128206428D01*
X81462380Y-128825476D01*
X80890952Y-129396904D02*
X80843333Y-129301666D01*
X80795714Y-129254047D01*
X80700476Y-129206428D01*
X80652857Y-129206428D01*
X80557619Y-129254047D01*
X80510000Y-129301666D01*
X80462380Y-129396904D01*
X80462380Y-129587380D01*
X80510000Y-129682619D01*
X80557619Y-129730238D01*
X80652857Y-129777857D01*
X80700476Y-129777857D01*
X80795714Y-129730238D01*
X80843333Y-129682619D01*
X80890952Y-129587380D01*
X80890952Y-129396904D01*
X80938571Y-129301666D01*
X80986190Y-129254047D01*
X81081428Y-129206428D01*
X81271904Y-129206428D01*
X81367142Y-129254047D01*
X81414761Y-129301666D01*
X81462380Y-129396904D01*
X81462380Y-129587380D01*
X81414761Y-129682619D01*
X81367142Y-129730238D01*
X81271904Y-129777857D01*
X81081428Y-129777857D01*
X80986190Y-129730238D01*
X80938571Y-129682619D01*
X80890952Y-129587380D01*
X81462380Y-50815952D02*
X80462380Y-50815952D01*
X80462380Y-51054047D01*
X80510000Y-51196904D01*
X80605238Y-51292142D01*
X80700476Y-51339761D01*
X80890952Y-51387380D01*
X81033809Y-51387380D01*
X81224285Y-51339761D01*
X81319523Y-51292142D01*
X81414761Y-51196904D01*
X81462380Y-51054047D01*
X81462380Y-50815952D01*
X81557619Y-51577857D02*
X81557619Y-52339761D01*
X80462380Y-52768333D02*
X80462380Y-52863571D01*
X80510000Y-52958809D01*
X80557619Y-53006428D01*
X80652857Y-53054047D01*
X80843333Y-53101666D01*
X81081428Y-53101666D01*
X81271904Y-53054047D01*
X81367142Y-53006428D01*
X81414761Y-52958809D01*
X81462380Y-52863571D01*
X81462380Y-52768333D01*
X81414761Y-52673095D01*
X81367142Y-52625476D01*
X81271904Y-52577857D01*
X81081428Y-52530238D01*
X80843333Y-52530238D01*
X80652857Y-52577857D01*
X80557619Y-52625476D01*
X80510000Y-52673095D01*
X80462380Y-52768333D01*
X148422142Y-117943333D02*
X148469761Y-117895714D01*
X148517380Y-117752857D01*
X148517380Y-117657619D01*
X148469761Y-117514761D01*
X148374523Y-117419523D01*
X148279285Y-117371904D01*
X148088809Y-117324285D01*
X147945952Y-117324285D01*
X147755476Y-117371904D01*
X147660238Y-117419523D01*
X147565000Y-117514761D01*
X147517380Y-117657619D01*
X147517380Y-117752857D01*
X147565000Y-117895714D01*
X147612619Y-117943333D01*
X147517380Y-118800476D02*
X147517380Y-118610000D01*
X147565000Y-118514761D01*
X147612619Y-118467142D01*
X147755476Y-118371904D01*
X147945952Y-118324285D01*
X148326904Y-118324285D01*
X148422142Y-118371904D01*
X148469761Y-118419523D01*
X148517380Y-118514761D01*
X148517380Y-118705238D01*
X148469761Y-118800476D01*
X148422142Y-118848095D01*
X148326904Y-118895714D01*
X148088809Y-118895714D01*
X147993571Y-118848095D01*
X147945952Y-118800476D01*
X147898333Y-118705238D01*
X147898333Y-118514761D01*
X147945952Y-118419523D01*
X147993571Y-118371904D01*
X148088809Y-118324285D01*
X61698095Y-115062380D02*
X61698095Y-114062380D01*
X61460000Y-114062380D01*
X61317142Y-114110000D01*
X61221904Y-114205238D01*
X61174285Y-114300476D01*
X61126666Y-114490952D01*
X61126666Y-114633809D01*
X61174285Y-114824285D01*
X61221904Y-114919523D01*
X61317142Y-115014761D01*
X61460000Y-115062380D01*
X61698095Y-115062380D01*
X60269523Y-114395714D02*
X60269523Y-115062380D01*
X60507619Y-114014761D02*
X60745714Y-114729047D01*
X60126666Y-114729047D01*
X64824285Y-116962380D02*
X65395714Y-116962380D01*
X65110000Y-116962380D02*
X65110000Y-115962380D01*
X65205238Y-116105238D01*
X65300476Y-116200476D01*
X65395714Y-116248095D01*
X81462380Y-69865952D02*
X80462380Y-69865952D01*
X80462380Y-70104047D01*
X80510000Y-70246904D01*
X80605238Y-70342142D01*
X80700476Y-70389761D01*
X80890952Y-70437380D01*
X81033809Y-70437380D01*
X81224285Y-70389761D01*
X81319523Y-70342142D01*
X81414761Y-70246904D01*
X81462380Y-70104047D01*
X81462380Y-69865952D01*
X81557619Y-70627857D02*
X81557619Y-71389761D01*
X80462380Y-71532619D02*
X80462380Y-72199285D01*
X81462380Y-71770714D01*
X138612380Y-107489761D02*
X137612380Y-107489761D01*
X137612380Y-107727857D01*
X137660000Y-107870714D01*
X137755238Y-107965952D01*
X137850476Y-108013571D01*
X138040952Y-108061190D01*
X138183809Y-108061190D01*
X138374285Y-108013571D01*
X138469523Y-107965952D01*
X138564761Y-107870714D01*
X138612380Y-107727857D01*
X138612380Y-107489761D01*
X138707619Y-108251666D02*
X138707619Y-109013571D01*
X137707619Y-109204047D02*
X137660000Y-109251666D01*
X137612380Y-109346904D01*
X137612380Y-109585000D01*
X137660000Y-109680238D01*
X137707619Y-109727857D01*
X137802857Y-109775476D01*
X137898095Y-109775476D01*
X138040952Y-109727857D01*
X138612380Y-109156428D01*
X138612380Y-109775476D01*
X137945714Y-110632619D02*
X138612380Y-110632619D01*
X137564761Y-110394523D02*
X138279047Y-110156428D01*
X138279047Y-110775476D01*
X100512380Y-88424761D02*
X99512380Y-88424761D01*
X99512380Y-88662857D01*
X99560000Y-88805714D01*
X99655238Y-88900952D01*
X99750476Y-88948571D01*
X99940952Y-88996190D01*
X100083809Y-88996190D01*
X100274285Y-88948571D01*
X100369523Y-88900952D01*
X100464761Y-88805714D01*
X100512380Y-88662857D01*
X100512380Y-88424761D01*
X100607619Y-89186666D02*
X100607619Y-89948571D01*
X100512380Y-90710476D02*
X100512380Y-90139047D01*
X100512380Y-90424761D02*
X99512380Y-90424761D01*
X99655238Y-90329523D01*
X99750476Y-90234285D01*
X99798095Y-90139047D01*
X99512380Y-91615238D02*
X99512380Y-91139047D01*
X99988571Y-91091428D01*
X99940952Y-91139047D01*
X99893333Y-91234285D01*
X99893333Y-91472380D01*
X99940952Y-91567619D01*
X99988571Y-91615238D01*
X100083809Y-91662857D01*
X100321904Y-91662857D01*
X100417142Y-91615238D01*
X100464761Y-91567619D01*
X100512380Y-91472380D01*
X100512380Y-91234285D01*
X100464761Y-91139047D01*
X100417142Y-91091428D01*
X157662380Y-88444761D02*
X156662380Y-88444761D01*
X156662380Y-88682857D01*
X156710000Y-88825714D01*
X156805238Y-88920952D01*
X156900476Y-88968571D01*
X157090952Y-89016190D01*
X157233809Y-89016190D01*
X157424285Y-88968571D01*
X157519523Y-88920952D01*
X157614761Y-88825714D01*
X157662380Y-88682857D01*
X157662380Y-88444761D01*
X157757619Y-89206666D02*
X157757619Y-89968571D01*
X157662380Y-90730476D02*
X157662380Y-90159047D01*
X157662380Y-90444761D02*
X156662380Y-90444761D01*
X156805238Y-90349523D01*
X156900476Y-90254285D01*
X156948095Y-90159047D01*
X157090952Y-91301904D02*
X157043333Y-91206666D01*
X156995714Y-91159047D01*
X156900476Y-91111428D01*
X156852857Y-91111428D01*
X156757619Y-91159047D01*
X156710000Y-91206666D01*
X156662380Y-91301904D01*
X156662380Y-91492380D01*
X156710000Y-91587619D01*
X156757619Y-91635238D01*
X156852857Y-91682857D01*
X156900476Y-91682857D01*
X156995714Y-91635238D01*
X157043333Y-91587619D01*
X157090952Y-91492380D01*
X157090952Y-91301904D01*
X157138571Y-91206666D01*
X157186190Y-91159047D01*
X157281428Y-91111428D01*
X157471904Y-91111428D01*
X157567142Y-91159047D01*
X157614761Y-91206666D01*
X157662380Y-91301904D01*
X157662380Y-91492380D01*
X157614761Y-91587619D01*
X157567142Y-91635238D01*
X157471904Y-91682857D01*
X157281428Y-91682857D01*
X157186190Y-91635238D01*
X157138571Y-91587619D01*
X157090952Y-91492380D01*
X176702380Y-107494761D02*
X175702380Y-107494761D01*
X175702380Y-107732857D01*
X175750000Y-107875714D01*
X175845238Y-107970952D01*
X175940476Y-108018571D01*
X176130952Y-108066190D01*
X176273809Y-108066190D01*
X176464285Y-108018571D01*
X176559523Y-107970952D01*
X176654761Y-107875714D01*
X176702380Y-107732857D01*
X176702380Y-107494761D01*
X176797619Y-108256666D02*
X176797619Y-109018571D01*
X175797619Y-109209047D02*
X175750000Y-109256666D01*
X175702380Y-109351904D01*
X175702380Y-109590000D01*
X175750000Y-109685238D01*
X175797619Y-109732857D01*
X175892857Y-109780476D01*
X175988095Y-109780476D01*
X176130952Y-109732857D01*
X176702380Y-109161428D01*
X176702380Y-109780476D01*
X175702380Y-110637619D02*
X175702380Y-110447142D01*
X175750000Y-110351904D01*
X175797619Y-110304285D01*
X175940476Y-110209047D01*
X176130952Y-110161428D01*
X176511904Y-110161428D01*
X176607142Y-110209047D01*
X176654761Y-110256666D01*
X176702380Y-110351904D01*
X176702380Y-110542380D01*
X176654761Y-110637619D01*
X176607142Y-110685238D01*
X176511904Y-110732857D01*
X176273809Y-110732857D01*
X176178571Y-110685238D01*
X176130952Y-110637619D01*
X176083333Y-110542380D01*
X176083333Y-110351904D01*
X176130952Y-110256666D01*
X176178571Y-110209047D01*
X176273809Y-110161428D01*
X138612380Y-50815952D02*
X137612380Y-50815952D01*
X137612380Y-51054047D01*
X137660000Y-51196904D01*
X137755238Y-51292142D01*
X137850476Y-51339761D01*
X138040952Y-51387380D01*
X138183809Y-51387380D01*
X138374285Y-51339761D01*
X138469523Y-51292142D01*
X138564761Y-51196904D01*
X138612380Y-51054047D01*
X138612380Y-50815952D01*
X138707619Y-51577857D02*
X138707619Y-52339761D01*
X137612380Y-52482619D02*
X137612380Y-53101666D01*
X137993333Y-52768333D01*
X137993333Y-52911190D01*
X138040952Y-53006428D01*
X138088571Y-53054047D01*
X138183809Y-53101666D01*
X138421904Y-53101666D01*
X138517142Y-53054047D01*
X138564761Y-53006428D01*
X138612380Y-52911190D01*
X138612380Y-52625476D01*
X138564761Y-52530238D01*
X138517142Y-52482619D01*
X156948095Y-115062380D02*
X156948095Y-114062380D01*
X156710000Y-114062380D01*
X156567142Y-114110000D01*
X156471904Y-114205238D01*
X156424285Y-114300476D01*
X156376666Y-114490952D01*
X156376666Y-114633809D01*
X156424285Y-114824285D01*
X156471904Y-114919523D01*
X156567142Y-115014761D01*
X156710000Y-115062380D01*
X156948095Y-115062380D01*
X155519523Y-114062380D02*
X155710000Y-114062380D01*
X155805238Y-114110000D01*
X155852857Y-114157619D01*
X155948095Y-114300476D01*
X155995714Y-114490952D01*
X155995714Y-114871904D01*
X155948095Y-114967142D01*
X155900476Y-115014761D01*
X155805238Y-115062380D01*
X155614761Y-115062380D01*
X155519523Y-115014761D01*
X155471904Y-114967142D01*
X155424285Y-114871904D01*
X155424285Y-114633809D01*
X155471904Y-114538571D01*
X155519523Y-114490952D01*
X155614761Y-114443333D01*
X155805238Y-114443333D01*
X155900476Y-114490952D01*
X155948095Y-114538571D01*
X155995714Y-114633809D01*
X160074285Y-116962380D02*
X160645714Y-116962380D01*
X160360000Y-116962380D02*
X160360000Y-115962380D01*
X160455238Y-116105238D01*
X160550476Y-116200476D01*
X160645714Y-116248095D01*
X176722380Y-69394761D02*
X175722380Y-69394761D01*
X175722380Y-69632857D01*
X175770000Y-69775714D01*
X175865238Y-69870952D01*
X175960476Y-69918571D01*
X176150952Y-69966190D01*
X176293809Y-69966190D01*
X176484285Y-69918571D01*
X176579523Y-69870952D01*
X176674761Y-69775714D01*
X176722380Y-69632857D01*
X176722380Y-69394761D01*
X176817619Y-70156666D02*
X176817619Y-70918571D01*
X176722380Y-71680476D02*
X176722380Y-71109047D01*
X176722380Y-71394761D02*
X175722380Y-71394761D01*
X175865238Y-71299523D01*
X175960476Y-71204285D01*
X176008095Y-71109047D01*
X175817619Y-72061428D02*
X175770000Y-72109047D01*
X175722380Y-72204285D01*
X175722380Y-72442380D01*
X175770000Y-72537619D01*
X175817619Y-72585238D01*
X175912857Y-72632857D01*
X176008095Y-72632857D01*
X176150952Y-72585238D01*
X176722380Y-72013809D01*
X176722380Y-72632857D01*
X100162142Y-117943333D02*
X100209761Y-117895714D01*
X100257380Y-117752857D01*
X100257380Y-117657619D01*
X100209761Y-117514761D01*
X100114523Y-117419523D01*
X100019285Y-117371904D01*
X99828809Y-117324285D01*
X99685952Y-117324285D01*
X99495476Y-117371904D01*
X99400238Y-117419523D01*
X99305000Y-117514761D01*
X99257380Y-117657619D01*
X99257380Y-117752857D01*
X99305000Y-117895714D01*
X99352619Y-117943333D01*
X99257380Y-118848095D02*
X99257380Y-118371904D01*
X99733571Y-118324285D01*
X99685952Y-118371904D01*
X99638333Y-118467142D01*
X99638333Y-118705238D01*
X99685952Y-118800476D01*
X99733571Y-118848095D01*
X99828809Y-118895714D01*
X100066904Y-118895714D01*
X100162142Y-118848095D01*
X100209761Y-118800476D01*
X100257380Y-118705238D01*
X100257380Y-118467142D01*
X100209761Y-118371904D01*
X100162142Y-118324285D01*
X61698095Y-63642380D02*
X61698095Y-62642380D01*
X61460000Y-62642380D01*
X61317142Y-62690000D01*
X61221904Y-62785238D01*
X61174285Y-62880476D01*
X61126666Y-63070952D01*
X61126666Y-63213809D01*
X61174285Y-63404285D01*
X61221904Y-63499523D01*
X61317142Y-63594761D01*
X61460000Y-63642380D01*
X61698095Y-63642380D01*
X60793333Y-62642380D02*
X60174285Y-62642380D01*
X60507619Y-63023333D01*
X60364761Y-63023333D01*
X60269523Y-63070952D01*
X60221904Y-63118571D01*
X60174285Y-63213809D01*
X60174285Y-63451904D01*
X60221904Y-63547142D01*
X60269523Y-63594761D01*
X60364761Y-63642380D01*
X60650476Y-63642380D01*
X60745714Y-63594761D01*
X60793333Y-63547142D01*
X56524285Y-61742380D02*
X57095714Y-61742380D01*
X56810000Y-61742380D02*
X56810000Y-60742380D01*
X56905238Y-60885238D01*
X57000476Y-60980476D01*
X57095714Y-61028095D01*
X119562380Y-107489761D02*
X118562380Y-107489761D01*
X118562380Y-107727857D01*
X118610000Y-107870714D01*
X118705238Y-107965952D01*
X118800476Y-108013571D01*
X118990952Y-108061190D01*
X119133809Y-108061190D01*
X119324285Y-108013571D01*
X119419523Y-107965952D01*
X119514761Y-107870714D01*
X119562380Y-107727857D01*
X119562380Y-107489761D01*
X119657619Y-108251666D02*
X119657619Y-109013571D01*
X118657619Y-109204047D02*
X118610000Y-109251666D01*
X118562380Y-109346904D01*
X118562380Y-109585000D01*
X118610000Y-109680238D01*
X118657619Y-109727857D01*
X118752857Y-109775476D01*
X118848095Y-109775476D01*
X118990952Y-109727857D01*
X119562380Y-109156428D01*
X119562380Y-109775476D01*
X118562380Y-110108809D02*
X118562380Y-110727857D01*
X118943333Y-110394523D01*
X118943333Y-110537380D01*
X118990952Y-110632619D01*
X119038571Y-110680238D01*
X119133809Y-110727857D01*
X119371904Y-110727857D01*
X119467142Y-110680238D01*
X119514761Y-110632619D01*
X119562380Y-110537380D01*
X119562380Y-110251666D01*
X119514761Y-110156428D01*
X119467142Y-110108809D01*
X176712380Y-50815952D02*
X175712380Y-50815952D01*
X175712380Y-51054047D01*
X175760000Y-51196904D01*
X175855238Y-51292142D01*
X175950476Y-51339761D01*
X176140952Y-51387380D01*
X176283809Y-51387380D01*
X176474285Y-51339761D01*
X176569523Y-51292142D01*
X176664761Y-51196904D01*
X176712380Y-51054047D01*
X176712380Y-50815952D01*
X176807619Y-51577857D02*
X176807619Y-52339761D01*
X175712380Y-53054047D02*
X175712380Y-52577857D01*
X176188571Y-52530238D01*
X176140952Y-52577857D01*
X176093333Y-52673095D01*
X176093333Y-52911190D01*
X176140952Y-53006428D01*
X176188571Y-53054047D01*
X176283809Y-53101666D01*
X176521904Y-53101666D01*
X176617142Y-53054047D01*
X176664761Y-53006428D01*
X176712380Y-52911190D01*
X176712380Y-52673095D01*
X176664761Y-52577857D01*
X176617142Y-52530238D01*
X157662380Y-69389761D02*
X156662380Y-69389761D01*
X156662380Y-69627857D01*
X156710000Y-69770714D01*
X156805238Y-69865952D01*
X156900476Y-69913571D01*
X157090952Y-69961190D01*
X157233809Y-69961190D01*
X157424285Y-69913571D01*
X157519523Y-69865952D01*
X157614761Y-69770714D01*
X157662380Y-69627857D01*
X157662380Y-69389761D01*
X157757619Y-70151666D02*
X157757619Y-70913571D01*
X157662380Y-71675476D02*
X157662380Y-71104047D01*
X157662380Y-71389761D02*
X156662380Y-71389761D01*
X156805238Y-71294523D01*
X156900476Y-71199285D01*
X156948095Y-71104047D01*
X157662380Y-72627857D02*
X157662380Y-72056428D01*
X157662380Y-72342142D02*
X156662380Y-72342142D01*
X156805238Y-72246904D01*
X156900476Y-72151666D01*
X156948095Y-72056428D01*
X52537142Y-117943333D02*
X52584761Y-117895714D01*
X52632380Y-117752857D01*
X52632380Y-117657619D01*
X52584761Y-117514761D01*
X52489523Y-117419523D01*
X52394285Y-117371904D01*
X52203809Y-117324285D01*
X52060952Y-117324285D01*
X51870476Y-117371904D01*
X51775238Y-117419523D01*
X51680000Y-117514761D01*
X51632380Y-117657619D01*
X51632380Y-117752857D01*
X51680000Y-117895714D01*
X51727619Y-117943333D01*
X51965714Y-118800476D02*
X52632380Y-118800476D01*
X51584761Y-118562380D02*
X52299047Y-118324285D01*
X52299047Y-118943333D01*
X81462380Y-107489761D02*
X80462380Y-107489761D01*
X80462380Y-107727857D01*
X80510000Y-107870714D01*
X80605238Y-107965952D01*
X80700476Y-108013571D01*
X80890952Y-108061190D01*
X81033809Y-108061190D01*
X81224285Y-108013571D01*
X81319523Y-107965952D01*
X81414761Y-107870714D01*
X81462380Y-107727857D01*
X81462380Y-107489761D01*
X81557619Y-108251666D02*
X81557619Y-109013571D01*
X80557619Y-109204047D02*
X80510000Y-109251666D01*
X80462380Y-109346904D01*
X80462380Y-109585000D01*
X80510000Y-109680238D01*
X80557619Y-109727857D01*
X80652857Y-109775476D01*
X80748095Y-109775476D01*
X80890952Y-109727857D01*
X81462380Y-109156428D01*
X81462380Y-109775476D01*
X81462380Y-110727857D02*
X81462380Y-110156428D01*
X81462380Y-110442142D02*
X80462380Y-110442142D01*
X80605238Y-110346904D01*
X80700476Y-110251666D01*
X80748095Y-110156428D01*
X100512380Y-126539761D02*
X99512380Y-126539761D01*
X99512380Y-126777857D01*
X99560000Y-126920714D01*
X99655238Y-127015952D01*
X99750476Y-127063571D01*
X99940952Y-127111190D01*
X100083809Y-127111190D01*
X100274285Y-127063571D01*
X100369523Y-127015952D01*
X100464761Y-126920714D01*
X100512380Y-126777857D01*
X100512380Y-126539761D01*
X100607619Y-127301666D02*
X100607619Y-128063571D01*
X99607619Y-128254047D02*
X99560000Y-128301666D01*
X99512380Y-128396904D01*
X99512380Y-128635000D01*
X99560000Y-128730238D01*
X99607619Y-128777857D01*
X99702857Y-128825476D01*
X99798095Y-128825476D01*
X99940952Y-128777857D01*
X100512380Y-128206428D01*
X100512380Y-128825476D01*
X100512380Y-129301666D02*
X100512380Y-129492142D01*
X100464761Y-129587380D01*
X100417142Y-129635000D01*
X100274285Y-129730238D01*
X100083809Y-129777857D01*
X99702857Y-129777857D01*
X99607619Y-129730238D01*
X99560000Y-129682619D01*
X99512380Y-129587380D01*
X99512380Y-129396904D01*
X99560000Y-129301666D01*
X99607619Y-129254047D01*
X99702857Y-129206428D01*
X99940952Y-129206428D01*
X100036190Y-129254047D01*
X100083809Y-129301666D01*
X100131428Y-129396904D01*
X100131428Y-129587380D01*
X100083809Y-129682619D01*
X100036190Y-129730238D01*
X99940952Y-129777857D01*
X119562380Y-126539761D02*
X118562380Y-126539761D01*
X118562380Y-126777857D01*
X118610000Y-126920714D01*
X118705238Y-127015952D01*
X118800476Y-127063571D01*
X118990952Y-127111190D01*
X119133809Y-127111190D01*
X119324285Y-127063571D01*
X119419523Y-127015952D01*
X119514761Y-126920714D01*
X119562380Y-126777857D01*
X119562380Y-126539761D01*
X119657619Y-127301666D02*
X119657619Y-128063571D01*
X118562380Y-128206428D02*
X118562380Y-128825476D01*
X118943333Y-128492142D01*
X118943333Y-128635000D01*
X118990952Y-128730238D01*
X119038571Y-128777857D01*
X119133809Y-128825476D01*
X119371904Y-128825476D01*
X119467142Y-128777857D01*
X119514761Y-128730238D01*
X119562380Y-128635000D01*
X119562380Y-128349285D01*
X119514761Y-128254047D01*
X119467142Y-128206428D01*
X118562380Y-129444523D02*
X118562380Y-129539761D01*
X118610000Y-129635000D01*
X118657619Y-129682619D01*
X118752857Y-129730238D01*
X118943333Y-129777857D01*
X119181428Y-129777857D01*
X119371904Y-129730238D01*
X119467142Y-129682619D01*
X119514761Y-129635000D01*
X119562380Y-129539761D01*
X119562380Y-129444523D01*
X119514761Y-129349285D01*
X119467142Y-129301666D01*
X119371904Y-129254047D01*
X119181428Y-129206428D01*
X118943333Y-129206428D01*
X118752857Y-129254047D01*
X118657619Y-129301666D01*
X118610000Y-129349285D01*
X118562380Y-129444523D01*
D12*
X149500000Y-58947164D02*
X149500000Y-59162836D01*
X150220000Y-58947164D02*
X150220000Y-59162836D01*
X53700000Y-59582164D02*
X53700000Y-59797836D01*
X52980000Y-59582164D02*
X52980000Y-59797836D01*
X101960000Y-59582164D02*
X101960000Y-59797836D01*
X101240000Y-59582164D02*
X101240000Y-59797836D01*
X173260000Y-130400000D02*
X173260000Y-126500000D01*
X175260000Y-130400000D02*
X175260000Y-126500000D01*
X175260000Y-130400000D02*
X173260000Y-130400000D01*
X60960000Y-92285000D02*
X60960000Y-88385000D01*
X58960000Y-92285000D02*
X58960000Y-88385000D01*
X60960000Y-92285000D02*
X58960000Y-92285000D01*
X104935000Y-62440000D02*
X112235000Y-62440000D01*
X112235000Y-56940000D02*
X112235000Y-58090000D01*
X104935000Y-56940000D02*
X112235000Y-56940000D01*
X156210000Y-54185000D02*
X156210000Y-50285000D01*
X154210000Y-54185000D02*
X154210000Y-50285000D01*
X156210000Y-54185000D02*
X154210000Y-54185000D01*
X175250000Y-92270000D02*
X173250000Y-92270000D01*
X173250000Y-92270000D02*
X173250000Y-88370000D01*
X175250000Y-92270000D02*
X175250000Y-88370000D01*
X97060000Y-111335000D02*
X97060000Y-107435000D01*
X99060000Y-111335000D02*
X99060000Y-107435000D01*
X99060000Y-111335000D02*
X97060000Y-111335000D01*
X118110000Y-54185000D02*
X118110000Y-50285000D01*
X116110000Y-54185000D02*
X116110000Y-50285000D01*
X118110000Y-54185000D02*
X116110000Y-54185000D01*
X154210000Y-111335000D02*
X154210000Y-107435000D01*
X156210000Y-111335000D02*
X156210000Y-107435000D01*
X156210000Y-111335000D02*
X154210000Y-111335000D01*
X58960000Y-73240000D02*
X58960000Y-69340000D01*
X60960000Y-73240000D02*
X60960000Y-69340000D01*
X60960000Y-73240000D02*
X58960000Y-73240000D01*
X118110000Y-92285000D02*
X116110000Y-92285000D01*
X116110000Y-92285000D02*
X116110000Y-88385000D01*
X118110000Y-92285000D02*
X118110000Y-88385000D01*
X99080000Y-73240000D02*
X99080000Y-69340000D01*
X97080000Y-73240000D02*
X97080000Y-69340000D01*
X99080000Y-73240000D02*
X97080000Y-73240000D01*
X159860000Y-56305000D02*
X159860000Y-57455000D01*
X152560000Y-56305000D02*
X159860000Y-56305000D01*
X152560000Y-61805000D02*
X159860000Y-61805000D01*
X60960000Y-130385000D02*
X58960000Y-130385000D01*
X58960000Y-130385000D02*
X58960000Y-126485000D01*
X60960000Y-130385000D02*
X60960000Y-126485000D01*
X118110000Y-73235000D02*
X116110000Y-73235000D01*
X118110000Y-73235000D02*
X118110000Y-69335000D01*
X116110000Y-73235000D02*
X116110000Y-69335000D01*
X104935000Y-120860000D02*
X104935000Y-119710000D01*
X112235000Y-120860000D02*
X104935000Y-120860000D01*
X112235000Y-115360000D02*
X104935000Y-115360000D01*
G36*
X195330862Y-140588357D02*
G01*
X195351061Y-140673540D01*
X195375331Y-140771132D01*
X195386168Y-140815673D01*
X195401927Y-140883200D01*
X195420360Y-140963959D01*
X195439720Y-141050173D01*
X195458262Y-141134065D01*
X195474241Y-141207857D01*
X195485910Y-141263773D01*
X195495547Y-141311187D01*
X195512675Y-141393988D01*
X195531610Y-141484229D01*
X195550830Y-141574742D01*
X195568808Y-141658363D01*
X195584022Y-141727925D01*
X195594946Y-141776264D01*
X195600661Y-141802130D01*
X195613223Y-141866330D01*
X195623686Y-141928403D01*
X195627858Y-141955673D01*
X195639030Y-142025527D01*
X195649822Y-142089672D01*
X195655320Y-142128196D01*
X195661790Y-142197406D01*
X195664718Y-142263545D01*
X195663775Y-142297156D01*
X195646420Y-142382735D01*
X195607722Y-142449708D01*
X195548192Y-142497047D01*
X195542033Y-142500234D01*
X195471226Y-142522332D01*
X195402556Y-142515768D01*
X195334224Y-142480403D01*
X195314056Y-142464354D01*
X195279308Y-142429377D01*
X195259242Y-142398818D01*
X195242834Y-142363861D01*
X195218426Y-142323233D01*
X195202532Y-142294555D01*
X195181376Y-142245856D01*
X195161674Y-142191098D01*
X195145329Y-142140783D01*
X195119659Y-142063408D01*
X195092580Y-141983281D01*
X195066179Y-141906461D01*
X195042544Y-141839004D01*
X195023760Y-141786970D01*
X195011915Y-141756414D01*
X195011561Y-141755593D01*
X194980971Y-141683876D01*
X194957074Y-141625625D01*
X194934622Y-141568052D01*
X194928154Y-141551293D01*
X194907938Y-141500551D01*
X194890724Y-141459381D01*
X194882736Y-141441110D01*
X194862157Y-141394045D01*
X194840041Y-141343465D01*
X194827952Y-141315663D01*
X194809099Y-141271705D01*
X194796710Y-141242039D01*
X194795539Y-141239157D01*
X194775031Y-141192650D01*
X194744119Y-141126920D01*
X194705740Y-141047841D01*
X194662829Y-140961285D01*
X194618323Y-140873125D01*
X194575159Y-140789235D01*
X194536271Y-140715487D01*
X194504596Y-140657753D01*
X194471983Y-140599650D01*
X194444845Y-140550144D01*
X194426498Y-140515341D01*
X194419757Y-140500457D01*
X194419672Y-140499986D01*
X194411166Y-140482997D01*
X194390745Y-140446763D01*
X194361263Y-140396256D01*
X194325576Y-140336449D01*
X194321652Y-140329929D01*
X194286456Y-140270702D01*
X194257774Y-140221145D01*
X194238466Y-140186279D01*
X194231394Y-140171126D01*
X194231088Y-140169830D01*
X194220332Y-140150919D01*
X194197294Y-140116352D01*
X194166192Y-140072511D01*
X194160197Y-140064217D01*
X194130145Y-140020769D01*
X194108989Y-139987053D01*
X194100989Y-139969783D01*
X194100770Y-139967987D01*
X194090115Y-139946501D01*
X194068388Y-139916129D01*
X194052596Y-139894872D01*
X194022335Y-139849553D01*
X193992319Y-139800339D01*
X193973201Y-139768457D01*
X193942054Y-139720306D01*
X193916249Y-139684550D01*
X193911975Y-139679175D01*
X193891838Y-139651809D01*
X193883648Y-139636966D01*
X193881905Y-139633381D01*
X193867396Y-139609756D01*
X193840086Y-139567277D01*
X193802276Y-139509474D01*
X193756267Y-139439874D01*
X193704361Y-139362009D01*
X193680072Y-139325671D01*
X193630005Y-139250480D01*
X193586535Y-139184812D01*
X193552054Y-139132299D01*
X193528953Y-139096575D01*
X193519621Y-139081272D01*
X193513023Y-139069764D01*
X193493309Y-139038578D01*
X193464763Y-138994686D01*
X193431487Y-138944257D01*
X193397579Y-138893460D01*
X193367142Y-138848467D01*
X193344273Y-138815446D01*
X193333075Y-138800567D01*
X193330064Y-138796859D01*
X193313044Y-138773088D01*
X193284180Y-138731430D01*
X193246390Y-138676191D01*
X193202591Y-138611676D01*
X193155701Y-138542188D01*
X193108636Y-138472032D01*
X193064313Y-138405513D01*
X193025651Y-138346935D01*
X193013943Y-138329130D01*
X192982783Y-138282253D01*
X192958469Y-138246411D01*
X192945479Y-138228234D01*
X192934046Y-138212031D01*
X192907158Y-138171416D01*
X192865238Y-138106836D01*
X192808160Y-138018098D01*
X192735800Y-137905010D01*
X192713905Y-137869608D01*
X192688337Y-137826152D01*
X192687884Y-137825358D01*
X192666984Y-137797750D01*
X192648205Y-137786306D01*
X192635873Y-137789659D01*
X192601131Y-137803576D01*
X192551361Y-137825805D01*
X192492816Y-137853637D01*
X192426107Y-137886046D01*
X192364719Y-137914998D01*
X192314568Y-137936988D01*
X192267716Y-137955284D01*
X192216226Y-137973154D01*
X192152159Y-137993865D01*
X192035813Y-138029537D01*
X191912573Y-138063237D01*
X191809913Y-138085920D01*
X191724720Y-138098348D01*
X191678538Y-138103681D01*
X191624868Y-138111817D01*
X191587070Y-138119773D01*
X191570922Y-138123153D01*
X191532447Y-138128034D01*
X191474272Y-138133059D01*
X191394543Y-138138345D01*
X191291406Y-138144012D01*
X191163007Y-138150179D01*
X191007493Y-138156966D01*
X190988138Y-138157594D01*
X190909792Y-138157552D01*
X190820069Y-138154430D01*
X190725694Y-138148764D01*
X190633394Y-138141092D01*
X190549894Y-138131949D01*
X190481921Y-138121872D01*
X190436201Y-138111397D01*
X190420221Y-138106583D01*
X190370370Y-138095154D01*
X190330200Y-138090584D01*
X190296305Y-138087132D01*
X190262212Y-138076591D01*
X190247338Y-138070532D01*
X190207140Y-138059028D01*
X190158116Y-138048512D01*
X190055681Y-138027458D01*
X189969805Y-138004173D01*
X189908743Y-137980527D01*
X189871312Y-137966757D01*
X189831286Y-137960179D01*
X189797645Y-137955081D01*
X189756391Y-137939776D01*
X189745185Y-137934381D01*
X189704762Y-137917501D01*
X189649356Y-137896293D01*
X189587527Y-137874086D01*
X189559212Y-137864097D01*
X189498612Y-137841719D01*
X189447992Y-137821739D01*
X189416102Y-137807553D01*
X189415865Y-137807431D01*
X189382571Y-137792507D01*
X189359922Y-137786306D01*
X189359244Y-137786270D01*
X189337907Y-137779387D01*
X189299215Y-137762907D01*
X189251037Y-137740165D01*
X189196418Y-137715675D01*
X189153707Y-137705456D01*
X189126324Y-137715256D01*
X189109800Y-137746911D01*
X189099660Y-137802254D01*
X189095840Y-137829462D01*
X189085752Y-137886052D01*
X189075146Y-137931115D01*
X189072061Y-137942169D01*
X189060947Y-137984496D01*
X189045383Y-138045730D01*
X189026992Y-138119455D01*
X189007393Y-138199255D01*
X188997804Y-138238274D01*
X188979109Y-138312443D01*
X188962603Y-138375515D01*
X188949795Y-138421791D01*
X188942193Y-138445576D01*
X188938743Y-138454681D01*
X188927015Y-138493230D01*
X188915376Y-138539757D01*
X188903556Y-138590779D01*
X188885230Y-138663612D01*
X188868276Y-138724154D01*
X188854864Y-138764344D01*
X188853210Y-138768779D01*
X188842778Y-138801586D01*
X188828367Y-138851373D01*
X188812576Y-138909238D01*
X188809410Y-138921117D01*
X188792865Y-138981282D01*
X188777647Y-139033864D01*
X188766703Y-139068622D01*
X188752890Y-139113530D01*
X188740313Y-139162803D01*
X188739100Y-139168138D01*
X188728576Y-139210498D01*
X188713412Y-139267871D01*
X188696457Y-139329432D01*
X188694040Y-139338069D01*
X188676683Y-139402767D01*
X188661316Y-139464143D01*
X188651022Y-139509953D01*
X188647053Y-139527831D01*
X188635257Y-139566742D01*
X188623851Y-139588921D01*
X188614712Y-139606497D01*
X188609400Y-139640231D01*
X188603443Y-139676815D01*
X188587666Y-139718681D01*
X188572605Y-139755573D01*
X188566021Y-139788458D01*
X188562611Y-139811723D01*
X188548994Y-139848382D01*
X188548587Y-139849148D01*
X188533660Y-139886278D01*
X188521437Y-139930744D01*
X188509561Y-139978545D01*
X188495050Y-140024926D01*
X188487244Y-140047872D01*
X188471788Y-140095382D01*
X188467276Y-140109507D01*
X188450991Y-140160485D01*
X188426570Y-140237803D01*
X188400241Y-140321959D01*
X188375483Y-140401352D01*
X188347839Y-140489464D01*
X188326074Y-140557899D01*
X188308669Y-140611297D01*
X188294103Y-140654297D01*
X188280858Y-140691539D01*
X188267416Y-140727664D01*
X188262770Y-140740304D01*
X188247625Y-140783038D01*
X188226435Y-140843967D01*
X188201340Y-140916918D01*
X188174478Y-140995718D01*
X188146708Y-141077005D01*
X188107759Y-141188833D01*
X188074190Y-141282429D01*
X188046864Y-141355451D01*
X188026643Y-141405556D01*
X188014391Y-141430402D01*
X188014273Y-141430572D01*
X188004280Y-141454404D01*
X187994429Y-141490981D01*
X187981432Y-141528459D01*
X187963777Y-141554335D01*
X187953342Y-141566720D01*
X187942975Y-141599024D01*
X187941007Y-141611560D01*
X187925741Y-141651597D01*
X187898607Y-141705287D01*
X187863500Y-141766324D01*
X187824318Y-141828402D01*
X187784957Y-141885214D01*
X187749313Y-141930455D01*
X187721283Y-141957819D01*
X187645828Y-142003714D01*
X187568715Y-142035070D01*
X187501223Y-142046203D01*
X187473955Y-142045505D01*
X187412001Y-142034631D01*
X187364027Y-142006912D01*
X187320412Y-141957635D01*
X187301793Y-141927453D01*
X187280003Y-141861337D01*
X187277022Y-141781731D01*
X187292373Y-141683967D01*
X187302038Y-141640847D01*
X187314414Y-141585309D01*
X187329355Y-141517899D01*
X187348687Y-141430402D01*
X187352940Y-141411251D01*
X187367007Y-141348969D01*
X187379982Y-141292752D01*
X187380157Y-141292002D01*
X187389902Y-141241859D01*
X187401223Y-141170683D01*
X187413097Y-141086146D01*
X187424501Y-140995921D01*
X187434412Y-140907678D01*
X187441808Y-140829090D01*
X187449761Y-140728396D01*
X187468048Y-140461874D01*
X187480213Y-140218154D01*
X187482544Y-140131679D01*
X187914942Y-140131679D01*
X187916371Y-140164152D01*
X187919551Y-140177065D01*
X187926258Y-140169098D01*
X187931435Y-140142688D01*
X187932001Y-140109507D01*
X187926992Y-140081888D01*
X187922045Y-140072739D01*
X187917101Y-140080336D01*
X187915014Y-140115485D01*
X187914942Y-140131679D01*
X187482544Y-140131679D01*
X187486278Y-139993163D01*
X187486262Y-139782828D01*
X187480186Y-139583076D01*
X187468070Y-139389833D01*
X187449935Y-139199027D01*
X187445806Y-139163431D01*
X187436936Y-139095180D01*
X187428108Y-139036160D01*
X187420734Y-138996175D01*
X187419862Y-138992207D01*
X187411043Y-138935207D01*
X187407219Y-138878799D01*
X187407069Y-138871254D01*
X187402122Y-138820387D01*
X187392463Y-138777373D01*
X187390578Y-138771613D01*
X187382084Y-138740336D01*
X187371424Y-138693070D01*
X187357954Y-138626665D01*
X187341026Y-138537972D01*
X187319997Y-138423842D01*
X187316973Y-138408626D01*
X187304040Y-138352736D01*
X187284773Y-138276467D01*
X187260652Y-138185101D01*
X187233156Y-138083923D01*
X187203763Y-137978216D01*
X187173952Y-137873264D01*
X187145202Y-137774351D01*
X187118991Y-137686760D01*
X187096799Y-137615775D01*
X187080103Y-137566680D01*
X187074069Y-137550143D01*
X187052957Y-137490218D01*
X187029056Y-137420183D01*
X187005493Y-137349392D01*
X186985395Y-137287198D01*
X186971887Y-137242952D01*
X186969151Y-137233582D01*
X186952895Y-137182040D01*
X186931293Y-137117625D01*
X186907196Y-137048426D01*
X186883459Y-136982531D01*
X186862934Y-136928032D01*
X186848474Y-136893015D01*
X186847315Y-136890484D01*
X186833131Y-136853087D01*
X186827287Y-136825365D01*
X186821418Y-136798331D01*
X186806699Y-136762352D01*
X186805161Y-136759214D01*
X186789267Y-136722744D01*
X186768467Y-136670489D01*
X186752798Y-136628580D01*
X187534652Y-136628580D01*
X187539437Y-136668436D01*
X187549658Y-136714452D01*
X187564145Y-136758394D01*
X187574991Y-136789068D01*
X187592451Y-136844410D01*
X187614087Y-136916930D01*
X187638209Y-137000955D01*
X187663129Y-137090813D01*
X187671634Y-137121603D01*
X187687501Y-137177331D01*
X187700552Y-137221218D01*
X187701810Y-137225343D01*
X187715664Y-137276877D01*
X187727554Y-137329888D01*
X187735700Y-137369764D01*
X187748250Y-137428372D01*
X187761738Y-137489272D01*
X187775675Y-137554628D01*
X187791239Y-137633488D01*
X187804585Y-137706614D01*
X187805085Y-137709518D01*
X187817156Y-137778106D01*
X187829708Y-137847186D01*
X187840100Y-137902222D01*
X187873570Y-138090829D01*
X187907754Y-138340019D01*
X187932304Y-138600781D01*
X187947500Y-138877148D01*
X187953623Y-139173152D01*
X187950955Y-139492825D01*
X187950074Y-139533331D01*
X187947395Y-139641253D01*
X187944498Y-139738987D01*
X187941524Y-139822776D01*
X187938616Y-139888862D01*
X187935915Y-139933488D01*
X187933564Y-139952897D01*
X187930439Y-139974439D01*
X187934443Y-140010468D01*
X187936513Y-140018155D01*
X187947700Y-140041730D01*
X187961178Y-140039908D01*
X187978142Y-140011696D01*
X187999787Y-139956101D01*
X188008108Y-139932588D01*
X188028818Y-139874922D01*
X188055533Y-139801207D01*
X188085704Y-139718463D01*
X188116784Y-139633710D01*
X188134313Y-139585988D01*
X188165898Y-139499672D01*
X188195504Y-139418388D01*
X188220444Y-139349521D01*
X188238032Y-139300453D01*
X188263472Y-139230823D01*
X188307859Y-139115282D01*
X188359133Y-138987024D01*
X188414069Y-138853951D01*
X188469440Y-138723962D01*
X188522021Y-138604960D01*
X188524869Y-138598655D01*
X188548584Y-138545963D01*
X188568416Y-138501583D01*
X188580322Y-138474555D01*
X188581748Y-138471248D01*
X188603050Y-138423034D01*
X188628891Y-138366117D01*
X188655992Y-138307527D01*
X188681075Y-138254293D01*
X188700862Y-138213444D01*
X188712076Y-138192011D01*
X188718652Y-138180668D01*
X188734142Y-138148542D01*
X188734662Y-138147231D01*
X188746826Y-138118122D01*
X188763422Y-138079929D01*
X188783043Y-138034846D01*
X188803927Y-137985747D01*
X188809684Y-137972112D01*
X188830563Y-137923691D01*
X188852770Y-137873243D01*
X188867722Y-137838086D01*
X188891736Y-137777735D01*
X188914155Y-137717691D01*
X188946476Y-137627343D01*
X188912010Y-137598370D01*
X188892414Y-137582891D01*
X188851113Y-137552564D01*
X188805097Y-137520590D01*
X188779916Y-137503654D01*
X193086728Y-137503654D01*
X193087415Y-137508116D01*
X193092893Y-137521618D01*
X193105033Y-137543734D01*
X193125247Y-137576628D01*
X193154953Y-137622468D01*
X193158201Y-137627343D01*
X193195565Y-137683419D01*
X193248498Y-137761648D01*
X193315167Y-137859322D01*
X193396988Y-137978605D01*
X193449290Y-138054969D01*
X193505937Y-138138065D01*
X193559775Y-138217381D01*
X193603979Y-138282884D01*
X193633555Y-138326629D01*
X193671602Y-138382085D01*
X193703186Y-138427214D01*
X193723516Y-138455112D01*
X193725768Y-138458053D01*
X193745246Y-138485924D01*
X193753243Y-138501950D01*
X193755706Y-138507769D01*
X193770764Y-138533722D01*
X193796476Y-138574777D01*
X193829312Y-138625214D01*
X193837799Y-138638067D01*
X193883249Y-138707620D01*
X193930500Y-138780866D01*
X193970584Y-138843922D01*
X193979014Y-138857331D01*
X194011747Y-138909293D01*
X194039683Y-138953485D01*
X194057521Y-138981518D01*
X194064010Y-138991743D01*
X194086632Y-139027936D01*
X194117436Y-139077636D01*
X194151703Y-139133234D01*
X194163747Y-139152826D01*
X194203249Y-139217015D01*
X194241193Y-139278586D01*
X194270778Y-139326499D01*
X194292034Y-139361373D01*
X194314805Y-139400047D01*
X194327677Y-139423614D01*
X194331957Y-139431931D01*
X194350160Y-139463777D01*
X194374205Y-139503305D01*
X194376911Y-139507737D01*
X194397836Y-139544926D01*
X194428697Y-139602702D01*
X194467177Y-139676486D01*
X194510962Y-139761702D01*
X194557735Y-139853773D01*
X194605181Y-139948122D01*
X194650984Y-140040171D01*
X194692830Y-140125345D01*
X194728402Y-140199066D01*
X194755384Y-140256757D01*
X194771594Y-140292397D01*
X194807758Y-140372266D01*
X194833890Y-140430792D01*
X194851532Y-140471602D01*
X194862225Y-140498324D01*
X194867511Y-140514587D01*
X194868930Y-140524016D01*
X194874557Y-140536705D01*
X194889693Y-140537071D01*
X194899578Y-140521189D01*
X194900258Y-140503224D01*
X194895437Y-140460491D01*
X194883766Y-140430630D01*
X194876826Y-140410569D01*
X194869040Y-140370122D01*
X194862308Y-140318489D01*
X194855413Y-140268413D01*
X194846953Y-140230202D01*
X194838814Y-140212586D01*
X194829506Y-140194517D01*
X194825462Y-140161076D01*
X194823426Y-140133560D01*
X194815920Y-140083176D01*
X194804787Y-140027903D01*
X194799782Y-140005913D01*
X194785503Y-139941904D01*
X194769064Y-139866959D01*
X194753107Y-139793094D01*
X194744826Y-139754748D01*
X194730309Y-139689056D01*
X194717662Y-139633618D01*
X194708929Y-139597487D01*
X194702249Y-139571590D01*
X194685673Y-139506518D01*
X194667040Y-139432655D01*
X194649443Y-139362287D01*
X194635976Y-139307698D01*
X194634838Y-139303008D01*
X194628731Y-139277293D01*
X194621284Y-139244896D01*
X194611530Y-139201492D01*
X194598506Y-139142753D01*
X194581243Y-139064353D01*
X194558776Y-138961965D01*
X194556975Y-138953811D01*
X194544851Y-138901962D01*
X194534513Y-138862493D01*
X194528032Y-138843395D01*
X194525686Y-138838223D01*
X194517025Y-138809813D01*
X194507219Y-138768934D01*
X194506169Y-138764121D01*
X194494983Y-138716359D01*
X194479615Y-138654434D01*
X194463063Y-138590470D01*
X194460581Y-138581070D01*
X194444174Y-138517676D01*
X194429477Y-138458971D01*
X194419412Y-138416597D01*
X194402909Y-138343563D01*
X194381122Y-138250878D01*
X194364213Y-138184523D01*
X194351842Y-138143193D01*
X194343668Y-138125581D01*
X194336042Y-138104947D01*
X194332821Y-138069962D01*
X194332819Y-138069278D01*
X194328016Y-138022996D01*
X194316739Y-137974573D01*
X194313604Y-137964241D01*
X194300168Y-137912509D01*
X194288737Y-137858753D01*
X194285357Y-137840824D01*
X194273042Y-137780069D01*
X194260131Y-137721104D01*
X194252145Y-137686364D01*
X194237301Y-137621612D01*
X194222930Y-137558742D01*
X194214246Y-137516026D01*
X194205716Y-137460772D01*
X194202416Y-137419632D01*
X194198538Y-137374345D01*
X194188280Y-137328428D01*
X194185020Y-137317172D01*
X194175291Y-137274081D01*
X194163479Y-137213020D01*
X194150872Y-137141468D01*
X194138758Y-137066906D01*
X194128425Y-136996814D01*
X194121162Y-136938673D01*
X194120791Y-136935202D01*
X194116514Y-136895547D01*
X194110014Y-136835638D01*
X194102108Y-136762987D01*
X194093612Y-136685108D01*
X194092967Y-136679207D01*
X194084164Y-136598057D01*
X194075758Y-136519730D01*
X194068676Y-136452886D01*
X194063840Y-136406186D01*
X194059193Y-136369925D01*
X194052204Y-136336083D01*
X194045611Y-136323116D01*
X194040662Y-136327867D01*
X194024477Y-136353357D01*
X194001040Y-136395917D01*
X193973563Y-136449898D01*
X193958132Y-136481265D01*
X193934157Y-136529482D01*
X193914346Y-136567624D01*
X193894754Y-136602595D01*
X193871437Y-136641302D01*
X193840453Y-136690648D01*
X193797857Y-136757540D01*
X193785935Y-136776074D01*
X193651709Y-136963866D01*
X193503006Y-137134262D01*
X193335021Y-137292290D01*
X193142953Y-137442976D01*
X193125340Y-137456720D01*
X193097647Y-137483931D01*
X193086728Y-137503654D01*
X188779916Y-137503654D01*
X188759776Y-137490109D01*
X188677607Y-137435054D01*
X188593721Y-137379077D01*
X188512412Y-137325023D01*
X188437977Y-137275740D01*
X188374710Y-137234076D01*
X188326907Y-137202878D01*
X188298862Y-137184994D01*
X188284360Y-137175626D01*
X188239517Y-137143530D01*
X188195133Y-137108420D01*
X188175558Y-137091979D01*
X188141451Y-137063495D01*
X188119660Y-137045512D01*
X188119212Y-137045155D01*
X188099173Y-137030788D01*
X188060615Y-137004294D01*
X188008904Y-136969329D01*
X187949409Y-136929549D01*
X187944043Y-136925968D01*
X187887161Y-136886415D01*
X187840772Y-136851348D01*
X187809528Y-136824458D01*
X187798080Y-136809437D01*
X187795623Y-136801847D01*
X187776196Y-136777699D01*
X187743745Y-136749868D01*
X187728264Y-136738216D01*
X187694902Y-136711516D01*
X187674920Y-136693223D01*
X187662171Y-136680487D01*
X187630361Y-136654067D01*
X187593639Y-136627277D01*
X187560989Y-136606514D01*
X187541395Y-136598171D01*
X187536472Y-136603118D01*
X187534652Y-136628580D01*
X186752798Y-136628580D01*
X186746846Y-136612661D01*
X186744167Y-136605267D01*
X186722642Y-136547095D01*
X186702804Y-136495368D01*
X186688647Y-136460522D01*
X186676831Y-136432918D01*
X186656119Y-136383638D01*
X186633920Y-136330117D01*
X186624649Y-136308180D01*
X186599899Y-136251980D01*
X186568232Y-136181936D01*
X186532767Y-136104767D01*
X186496622Y-136027191D01*
X186462917Y-135955926D01*
X186434771Y-135897693D01*
X186415304Y-135859210D01*
X186399328Y-135821609D01*
X186385849Y-135775749D01*
X186371701Y-135728836D01*
X186351575Y-135681568D01*
X186340669Y-135653370D01*
X186330598Y-135595374D01*
X186327401Y-135514044D01*
X186327401Y-135393465D01*
X186211486Y-135255363D01*
X186166466Y-135201833D01*
X186116921Y-135143146D01*
X186074040Y-135092575D01*
X186043789Y-135057174D01*
X186033015Y-135044540D01*
X185993465Y-134996858D01*
X185945216Y-134937324D01*
X185892123Y-134870844D01*
X185838043Y-134802320D01*
X185786830Y-134736657D01*
X185742341Y-134678758D01*
X185708431Y-134633529D01*
X185688957Y-134605872D01*
X185687001Y-134602829D01*
X185663398Y-134569595D01*
X185644288Y-134547915D01*
X185636717Y-134540188D01*
X185613612Y-134511756D01*
X185586131Y-134474036D01*
X185578891Y-134463688D01*
X185546805Y-134418884D01*
X185506458Y-134363583D01*
X185464853Y-134307407D01*
X185434350Y-134265896D01*
X185389774Y-134203700D01*
X185341779Y-134135476D01*
X185294446Y-134067126D01*
X185251856Y-134004551D01*
X185218088Y-133953654D01*
X185197224Y-133920336D01*
X185193744Y-133914555D01*
X185172981Y-133882952D01*
X185146511Y-133845177D01*
X185139154Y-133834922D01*
X185113392Y-133797923D01*
X185095798Y-133771059D01*
X185093428Y-133767152D01*
X185074488Y-133736308D01*
X185045686Y-133689709D01*
X185011527Y-133634612D01*
X184976512Y-133578272D01*
X184945143Y-133527944D01*
X184921925Y-133490883D01*
X184918058Y-133484685D01*
X184896484Y-133449403D01*
X184864791Y-133396970D01*
X184826601Y-133333392D01*
X184785537Y-133264680D01*
X184774115Y-133245547D01*
X184732807Y-133176805D01*
X184694864Y-133114311D01*
X184664084Y-133064296D01*
X184644265Y-133032989D01*
X184635900Y-133020013D01*
X184617671Y-132989391D01*
X184610402Y-132973243D01*
X184609317Y-132969918D01*
X184597479Y-132946688D01*
X184575367Y-132907340D01*
X184546444Y-132858107D01*
X184546154Y-132857622D01*
X184505923Y-132788961D01*
X184461927Y-132711728D01*
X184423639Y-132642552D01*
X184379966Y-132562411D01*
X184338684Y-132487960D01*
X184294343Y-132409488D01*
X184241086Y-132316540D01*
X184230764Y-132298204D01*
X184198786Y-132238659D01*
X184160355Y-132164462D01*
X184119508Y-132083648D01*
X184080277Y-132004252D01*
X184046700Y-131934310D01*
X184022809Y-131881857D01*
X184022791Y-131881814D01*
X184009745Y-131835912D01*
X183999922Y-131772267D01*
X183994224Y-131702005D01*
X183993556Y-131636255D01*
X183998818Y-131586145D01*
X183999236Y-131584316D01*
X184018798Y-131539244D01*
X184049713Y-131505762D01*
X184085091Y-131489152D01*
X184118043Y-131494700D01*
X184138874Y-131504942D01*
X184170136Y-131512376D01*
X184203894Y-131521460D01*
X184251886Y-131546068D01*
X184306850Y-131581651D01*
X184361766Y-131623662D01*
X184409614Y-131667552D01*
X184436774Y-131697137D01*
X184491726Y-131762881D01*
X184555114Y-131844387D01*
X184622677Y-131936110D01*
X184690152Y-132032505D01*
X184704884Y-132053993D01*
X184736843Y-132099906D01*
X184762541Y-132135981D01*
X184767860Y-132143366D01*
X184793308Y-132179584D01*
X184827277Y-132228730D01*
X184863924Y-132282366D01*
X184897156Y-132330926D01*
X184936838Y-132387957D01*
X184982413Y-132452439D01*
X185036703Y-132528342D01*
X185102536Y-132619635D01*
X185182735Y-132730288D01*
X185201345Y-132755979D01*
X185247550Y-132820151D01*
X185291592Y-132881783D01*
X185326006Y-132930444D01*
X185355619Y-132971663D01*
X185383844Y-133008906D01*
X185402076Y-133030592D01*
X185412766Y-133042884D01*
X185421811Y-133060307D01*
X185421904Y-133061161D01*
X185432298Y-133079117D01*
X185454663Y-133106363D01*
X185456996Y-133108971D01*
X185483016Y-133140830D01*
X185517768Y-133186444D01*
X185554402Y-133236852D01*
X185554786Y-133237393D01*
X185595497Y-133293721D01*
X185637989Y-133350757D01*
X185673124Y-133396236D01*
X185711606Y-133444809D01*
X185753142Y-133498024D01*
X185802277Y-133561753D01*
X185863915Y-133642324D01*
X185927965Y-133725639D01*
X186006093Y-133825561D01*
X186073836Y-133910208D01*
X186091616Y-133932259D01*
X186129568Y-133980261D01*
X186160773Y-134020828D01*
X186167777Y-134030046D01*
X186204003Y-134075760D01*
X186240952Y-134120142D01*
X186248813Y-134129370D01*
X186287580Y-134176801D01*
X186322440Y-134221902D01*
X186325156Y-134225538D01*
X186355118Y-134263636D01*
X186395326Y-134312566D01*
X186437868Y-134362678D01*
X186442132Y-134367612D01*
X186486364Y-134419127D01*
X186528901Y-134469179D01*
X186561073Y-134507572D01*
X186644669Y-134606768D01*
X186786998Y-134768829D01*
X186945405Y-134942165D01*
X187115995Y-135122610D01*
X187294874Y-135306003D01*
X187478150Y-135488179D01*
X187526279Y-135535094D01*
X187708424Y-135709556D01*
X187884521Y-135873381D01*
X188052012Y-136024294D01*
X188208336Y-136160019D01*
X188350936Y-136278280D01*
X188477252Y-136376800D01*
X188486893Y-136384162D01*
X188524051Y-136413711D01*
X188564188Y-136446819D01*
X188573796Y-136454830D01*
X188653614Y-136517201D01*
X188757947Y-136592798D01*
X188885986Y-136681048D01*
X189036928Y-136781381D01*
X189091731Y-136817339D01*
X189147430Y-136854019D01*
X189191668Y-136883296D01*
X189218046Y-136900945D01*
X189223034Y-136904214D01*
X189262473Y-136926835D01*
X189321608Y-136957732D01*
X189394699Y-136994168D01*
X189476009Y-137033404D01*
X189559797Y-137072703D01*
X189640325Y-137109328D01*
X189711854Y-137140540D01*
X189768645Y-137163603D01*
X189791305Y-137172309D01*
X189850080Y-137195634D01*
X189899344Y-137216189D01*
X189930264Y-137230328D01*
X189962639Y-137243760D01*
X189992797Y-137250197D01*
X190014190Y-137253924D01*
X190048519Y-137267906D01*
X190071427Y-137278751D01*
X190126605Y-137298767D01*
X190195408Y-137318943D01*
X190268531Y-137336385D01*
X190274888Y-137337749D01*
X190325791Y-137350391D01*
X190369957Y-137363743D01*
X190408698Y-137376045D01*
X190528219Y-137402863D01*
X190669876Y-137421545D01*
X190829531Y-137432000D01*
X191003045Y-137434138D01*
X191186276Y-137427869D01*
X191375087Y-137413104D01*
X191565336Y-137389752D01*
X191645506Y-137375152D01*
X191793361Y-137336387D01*
X191950371Y-137282650D01*
X192109118Y-137217108D01*
X192262190Y-137142928D01*
X192402169Y-137063276D01*
X192521640Y-136981321D01*
X192547492Y-136961662D01*
X192590943Y-136929417D01*
X192623829Y-136905959D01*
X192739193Y-136818909D01*
X192872603Y-136699429D01*
X193000616Y-136565944D01*
X193116180Y-136425876D01*
X193212244Y-136286648D01*
X193227315Y-136261190D01*
X193259198Y-136203066D01*
X193294801Y-136134064D01*
X193331669Y-136059401D01*
X193367343Y-135984297D01*
X193399367Y-135913971D01*
X193425283Y-135853641D01*
X193442634Y-135808527D01*
X193448964Y-135783848D01*
X193449745Y-135776166D01*
X193462107Y-135749814D01*
X193463581Y-135748074D01*
X193476714Y-135722887D01*
X193490017Y-135685336D01*
X193499654Y-135654971D01*
X193517244Y-135602830D01*
X193539758Y-135537988D01*
X193564605Y-135467995D01*
X193596428Y-135375494D01*
X193632888Y-135260182D01*
X193665503Y-135147184D01*
X193691932Y-135044684D01*
X193709830Y-134960864D01*
X193714796Y-134933719D01*
X193725327Y-134877470D01*
X193738404Y-134808574D01*
X193752279Y-134736278D01*
X193759664Y-134695510D01*
X193774525Y-134600082D01*
X193787645Y-134499672D01*
X193796839Y-134410265D01*
X193801806Y-134354922D01*
X193809718Y-134278975D01*
X193817867Y-134211992D01*
X193825108Y-134163944D01*
X193830125Y-134129599D01*
X193837239Y-134053553D01*
X193843319Y-133952921D01*
X193848262Y-133830380D01*
X193851971Y-133688609D01*
X193854343Y-133530285D01*
X193855279Y-133358085D01*
X193855274Y-133341918D01*
X193854733Y-133256576D01*
X193853419Y-133156426D01*
X193851439Y-133045117D01*
X193848901Y-132926298D01*
X193845913Y-132803615D01*
X193842583Y-132680719D01*
X193839018Y-132561258D01*
X193835326Y-132448879D01*
X193831615Y-132347232D01*
X193827993Y-132259966D01*
X193824567Y-132190728D01*
X193821446Y-132143167D01*
X193818736Y-132120932D01*
X193817673Y-132115805D01*
X193813646Y-132084692D01*
X193808298Y-132032671D01*
X193802199Y-131965542D01*
X193795920Y-131889101D01*
X193793955Y-131864165D01*
X193787545Y-131785791D01*
X193781489Y-131715794D01*
X193776390Y-131661014D01*
X193772855Y-131628291D01*
X193771571Y-131618284D01*
X193765437Y-131566375D01*
X193759644Y-131512376D01*
X193748682Y-131404311D01*
X193727082Y-131198747D01*
X193707039Y-131018343D01*
X193688644Y-130863848D01*
X193671987Y-130736012D01*
X193657161Y-130635585D01*
X193644255Y-130563317D01*
X193632350Y-130504606D01*
X193616643Y-130425591D01*
X193602546Y-130353220D01*
X193590380Y-130290528D01*
X193576700Y-130221263D01*
X193565322Y-130164857D01*
X193559304Y-130135119D01*
X193540457Y-130031773D01*
X193530343Y-129952924D01*
X193529070Y-129896027D01*
X193536745Y-129858538D01*
X193553476Y-129837910D01*
X193579369Y-129831600D01*
X193587379Y-129832160D01*
X193614916Y-129846238D01*
X193637944Y-129881995D01*
X193659069Y-129943076D01*
X193672752Y-129988829D01*
X193692881Y-130051724D01*
X193713937Y-130114144D01*
X193740102Y-130190414D01*
X193783389Y-130321309D01*
X193824875Y-130452262D01*
X193862925Y-130577819D01*
X193895902Y-130692529D01*
X193922169Y-130790938D01*
X193940091Y-130867595D01*
X193949531Y-130912161D01*
X193963746Y-130977240D01*
X193978140Y-131041469D01*
X193990194Y-131096151D01*
X194003913Y-131162028D01*
X194014193Y-131215342D01*
X194018178Y-131236466D01*
X194030221Y-131292467D01*
X194041943Y-131338502D01*
X194044567Y-131347730D01*
X194054566Y-131385787D01*
X194068086Y-131440933D01*
X194085792Y-131515974D01*
X194108349Y-131613715D01*
X194136423Y-131736962D01*
X194144862Y-131774143D01*
X194159178Y-131837114D01*
X194171097Y-131889434D01*
X194175960Y-131912484D01*
X194186828Y-131973881D01*
X194195372Y-132034329D01*
X194199503Y-132064689D01*
X194208542Y-132114687D01*
X194217703Y-132149911D01*
X194218215Y-132151388D01*
X194226703Y-132185157D01*
X194236385Y-132236461D01*
X194245264Y-132294806D01*
X194254059Y-132357115D01*
X194264218Y-132423476D01*
X194273049Y-132475924D01*
X194274070Y-132481693D01*
X194281257Y-132527799D01*
X194290473Y-132593347D01*
X194300640Y-132670451D01*
X194310680Y-132751223D01*
X194312971Y-132770050D01*
X194322937Y-132847450D01*
X194332711Y-132917036D01*
X194341274Y-132971813D01*
X194347608Y-133004789D01*
X194353939Y-133036077D01*
X194362380Y-133091015D01*
X194369268Y-133149683D01*
X194374201Y-133199277D01*
X194381424Y-133270019D01*
X194389808Y-133350851D01*
X194398369Y-133432227D01*
X194408416Y-133534360D01*
X194418618Y-133662837D01*
X194426303Y-133796381D01*
X194431740Y-133940961D01*
X194435199Y-134102546D01*
X194436948Y-134287105D01*
X194437019Y-134312183D01*
X194436023Y-134430527D01*
X194433060Y-134550484D01*
X194428402Y-134667684D01*
X194422317Y-134777756D01*
X194415078Y-134876331D01*
X194406954Y-134959038D01*
X194398216Y-135021506D01*
X194389136Y-135059366D01*
X194387203Y-135065128D01*
X194379437Y-135105501D01*
X194376289Y-135152764D01*
X194376199Y-135160006D01*
X194371880Y-135211967D01*
X194363076Y-135256869D01*
X194357558Y-135276828D01*
X194345382Y-135324131D01*
X194330118Y-135385765D01*
X194313826Y-135453505D01*
X194304475Y-135492172D01*
X194284308Y-135571696D01*
X194264056Y-135647404D01*
X194246944Y-135707070D01*
X194228856Y-135766851D01*
X194206811Y-135841730D01*
X194192137Y-135896020D01*
X194183979Y-135934034D01*
X194181478Y-135960084D01*
X194183779Y-135978480D01*
X194190024Y-135993535D01*
X194195543Y-136007443D01*
X194207151Y-136048378D01*
X194220380Y-136105229D01*
X194233309Y-136170159D01*
X194239898Y-136205130D01*
X194254431Y-136276840D01*
X194268731Y-136341389D01*
X194280480Y-136388074D01*
X194301009Y-136461273D01*
X194325352Y-136550135D01*
X194347398Y-136632721D01*
X194365232Y-136701842D01*
X194376941Y-136750311D01*
X194388102Y-136798861D01*
X194404855Y-136868351D01*
X194426039Y-136953033D01*
X194452721Y-137057163D01*
X194485969Y-137184994D01*
X194497362Y-137229588D01*
X194513518Y-137294654D01*
X194529066Y-137358867D01*
X194542608Y-137413825D01*
X194558934Y-137476481D01*
X194572631Y-137525496D01*
X194576140Y-137537615D01*
X194590079Y-137589054D01*
X194606737Y-137653926D01*
X194623236Y-137721104D01*
X194629925Y-137748681D01*
X194644730Y-137807183D01*
X194657359Y-137853851D01*
X194665630Y-137880487D01*
X194671755Y-137899815D01*
X194683788Y-137943218D01*
X194699119Y-138001914D01*
X194715866Y-138068850D01*
X194717113Y-138073937D01*
X194753574Y-138220133D01*
X194793325Y-138375306D01*
X194833148Y-138527039D01*
X194869827Y-138662918D01*
X194872848Y-138673942D01*
X194889447Y-138735614D01*
X194903938Y-138791103D01*
X194913475Y-138829546D01*
X194914677Y-138834648D01*
X194925136Y-138876983D01*
X194939837Y-138934462D01*
X194955997Y-138996175D01*
X194958492Y-139005620D01*
X194974788Y-139069000D01*
X194989222Y-139127687D01*
X194998923Y-139170048D01*
X195001985Y-139183928D01*
X195014125Y-139234672D01*
X195030967Y-139301777D01*
X195050364Y-139376977D01*
X195070170Y-139452009D01*
X195088238Y-139518608D01*
X195102420Y-139568508D01*
X195112270Y-139605479D01*
X195125502Y-139661128D01*
X195138478Y-139720647D01*
X195149605Y-139774198D01*
X195165333Y-139848602D01*
X195180018Y-139915774D01*
X195196261Y-139987518D01*
X195216661Y-140075639D01*
X195222850Y-140102580D01*
X195238730Y-140174701D01*
X195252714Y-140242070D01*
X195262342Y-140292980D01*
X195268517Y-140324954D01*
X195279631Y-140369760D01*
X195289789Y-140397832D01*
X195296645Y-140413809D01*
X195303614Y-140449409D01*
X195306277Y-140471370D01*
X195312454Y-140503224D01*
X195315634Y-140519620D01*
X195330862Y-140588357D01*
G37*
G36*
X181675133Y-123001207D02*
G01*
X181768378Y-123035862D01*
X181805156Y-123054172D01*
X181859099Y-123080570D01*
X181915365Y-123107754D01*
X181965991Y-123132711D01*
X182026369Y-123163856D01*
X182074749Y-123190236D01*
X182096981Y-123202756D01*
X182155914Y-123234817D01*
X182212398Y-123264342D01*
X182240303Y-123278933D01*
X182287097Y-123305062D01*
X182321069Y-123326070D01*
X182353705Y-123345109D01*
X182393517Y-123361989D01*
X182405720Y-123366630D01*
X182444825Y-123387115D01*
X182486930Y-123414603D01*
X182506386Y-123428285D01*
X182538242Y-123448352D01*
X182556043Y-123456243D01*
X182563948Y-123458676D01*
X182591700Y-123472898D01*
X182629258Y-123495606D01*
X182645597Y-123505983D01*
X182697066Y-123537662D01*
X182742527Y-123564430D01*
X182795018Y-123595188D01*
X182874427Y-123645338D01*
X182964716Y-123706503D01*
X183071576Y-123782453D01*
X183119924Y-123817141D01*
X183187838Y-123865170D01*
X183250604Y-123908848D01*
X183299107Y-123941791D01*
X183313825Y-123951665D01*
X183371627Y-123991574D01*
X183437365Y-124038210D01*
X183499488Y-124083412D01*
X183523911Y-124101381D01*
X183580174Y-124142155D01*
X183630442Y-124177814D01*
X183666116Y-124202227D01*
X183672396Y-124206384D01*
X183713521Y-124234408D01*
X183766234Y-124271173D01*
X183820727Y-124309854D01*
X183832047Y-124317968D01*
X183934858Y-124391459D01*
X184014993Y-124448322D01*
X184073090Y-124489010D01*
X184109788Y-124513973D01*
X184111754Y-124515275D01*
X184141577Y-124535682D01*
X184185291Y-124566260D01*
X184234170Y-124600910D01*
X184263206Y-124621572D01*
X184324637Y-124665080D01*
X184393568Y-124713712D01*
X184459842Y-124760293D01*
X184498874Y-124787745D01*
X184567579Y-124836371D01*
X184632617Y-124882732D01*
X184683935Y-124919677D01*
X184688072Y-124922680D01*
X184736353Y-124957421D01*
X184778781Y-124987470D01*
X184806592Y-125006614D01*
X184817050Y-125013706D01*
X184855641Y-125042008D01*
X184908223Y-125083306D01*
X184978706Y-125140641D01*
X184991256Y-125150589D01*
X185022239Y-125171967D01*
X185041317Y-125180487D01*
X185049093Y-125173893D01*
X185068423Y-125146223D01*
X185094729Y-125101939D01*
X185124644Y-125046460D01*
X185142667Y-125012089D01*
X185177750Y-124947694D01*
X185210403Y-124890602D01*
X185235373Y-124850126D01*
X185250616Y-124826697D01*
X185269528Y-124795400D01*
X185276916Y-124779726D01*
X185277857Y-124777085D01*
X185289664Y-124754703D01*
X185312879Y-124713899D01*
X185344813Y-124659345D01*
X185382780Y-124595712D01*
X185395490Y-124574556D01*
X185433233Y-124511307D01*
X185465050Y-124457368D01*
X185487913Y-124417899D01*
X185498793Y-124398057D01*
X185499000Y-124397619D01*
X185512236Y-124374428D01*
X185536379Y-124335632D01*
X185566359Y-124289386D01*
X185599196Y-124238992D01*
X185642745Y-124170869D01*
X185681995Y-124108268D01*
X185713736Y-124057915D01*
X185770899Y-123973872D01*
X185818356Y-123914532D01*
X185857222Y-123878580D01*
X185888611Y-123864702D01*
X185913700Y-123865297D01*
X185932934Y-123876763D01*
X185945673Y-123902858D01*
X185952899Y-123947140D01*
X185955591Y-124013169D01*
X185954732Y-124104504D01*
X185950676Y-124289386D01*
X185910546Y-124293999D01*
X185889756Y-124294531D01*
X185867813Y-124283111D01*
X185849533Y-124250530D01*
X185845054Y-124240788D01*
X185833139Y-124221883D01*
X185828083Y-124225744D01*
X185823810Y-124241690D01*
X185808668Y-124279742D01*
X185785192Y-124332086D01*
X185756122Y-124392373D01*
X185734812Y-124435491D01*
X185701869Y-124503308D01*
X185673029Y-124563982D01*
X185652775Y-124608154D01*
X185647115Y-124620907D01*
X185623100Y-124674179D01*
X185593554Y-124738877D01*
X185563601Y-124803762D01*
X185555546Y-124821103D01*
X185513960Y-124910844D01*
X185482421Y-124979380D01*
X185458973Y-125031016D01*
X185441658Y-125070053D01*
X185428520Y-125100795D01*
X185412316Y-125139637D01*
X185395294Y-125180487D01*
X185388802Y-125196018D01*
X185370716Y-125239034D01*
X185350300Y-125287378D01*
X185339553Y-125314197D01*
X185325774Y-125354471D01*
X185320385Y-125379386D01*
X185331317Y-125403297D01*
X185361837Y-125439249D01*
X185407527Y-125482422D01*
X185463969Y-125528234D01*
X185474732Y-125536492D01*
X185514298Y-125567713D01*
X185564655Y-125608223D01*
X185617537Y-125651394D01*
X185629167Y-125660963D01*
X185692566Y-125713051D01*
X185758768Y-125767347D01*
X185815190Y-125813530D01*
X185818298Y-125816073D01*
X185872154Y-125860919D01*
X185925721Y-125906719D01*
X185967835Y-125943935D01*
X185991703Y-125965513D01*
X186032209Y-126001543D01*
X186062880Y-126028120D01*
X186080844Y-126043335D01*
X186137409Y-126092013D01*
X186202115Y-126148532D01*
X186269949Y-126208432D01*
X186335897Y-126267248D01*
X186394946Y-126320518D01*
X186442084Y-126363781D01*
X186472296Y-126392572D01*
X186510718Y-126431558D01*
X186572425Y-126495765D01*
X186640143Y-126567634D01*
X186709512Y-126642416D01*
X186776170Y-126715366D01*
X186835755Y-126781737D01*
X186883906Y-126836781D01*
X186916261Y-126875753D01*
X186917434Y-126877249D01*
X186949546Y-126917734D01*
X186974535Y-126948392D01*
X186987080Y-126962689D01*
X187004801Y-126983094D01*
X187031235Y-127030351D01*
X187051212Y-127084699D01*
X187059118Y-127132876D01*
X187057650Y-127161677D01*
X187045452Y-127197431D01*
X187016014Y-127218704D01*
X186963519Y-127231493D01*
X186927354Y-127234024D01*
X186889250Y-127222819D01*
X186873657Y-127194145D01*
X186881579Y-127149015D01*
X186888522Y-127127398D01*
X186887585Y-127106410D01*
X186872200Y-127084313D01*
X186838472Y-127052372D01*
X186814741Y-127030959D01*
X186782511Y-127001672D01*
X186763330Y-126983971D01*
X186723837Y-126949845D01*
X186655572Y-126897670D01*
X186569337Y-126836610D01*
X186469285Y-126769336D01*
X186359573Y-126698521D01*
X186244354Y-126626837D01*
X186127783Y-126556958D01*
X186014016Y-126491556D01*
X185907207Y-126433302D01*
X185898049Y-126428438D01*
X185847452Y-126400438D01*
X185806350Y-126375919D01*
X185782906Y-126359715D01*
X185767779Y-126348178D01*
X185749211Y-126339643D01*
X185747633Y-126339360D01*
X185726649Y-126330058D01*
X185689028Y-126310260D01*
X185641681Y-126283567D01*
X185568612Y-126242005D01*
X185473879Y-126189516D01*
X185369110Y-126132587D01*
X185262427Y-126075670D01*
X185247676Y-126067814D01*
X185198012Y-126040875D01*
X185147855Y-126013145D01*
X185125718Y-126001561D01*
X185085211Y-125984228D01*
X185057499Y-125977407D01*
X185053724Y-125978095D01*
X185038897Y-125989884D01*
X185018369Y-126018209D01*
X184990644Y-126065564D01*
X184954225Y-126134446D01*
X184907615Y-126227350D01*
X184905831Y-126230962D01*
X184866704Y-126309924D01*
X184831401Y-126380657D01*
X184802161Y-126438715D01*
X184781221Y-126479654D01*
X184770820Y-126499027D01*
X184763498Y-126511168D01*
X184742952Y-126545734D01*
X184714113Y-126594532D01*
X184680766Y-126651166D01*
X184662650Y-126681494D01*
X184620596Y-126749089D01*
X184579168Y-126812526D01*
X184545170Y-126861263D01*
X184514561Y-126902892D01*
X184484547Y-126944212D01*
X184464997Y-126971707D01*
X184436723Y-127011536D01*
X184365899Y-127103299D01*
X184291656Y-127189932D01*
X184218581Y-127266508D01*
X184151262Y-127328100D01*
X184094287Y-127369781D01*
X184065101Y-127385155D01*
X183994322Y-127406313D01*
X183928011Y-127405451D01*
X183871039Y-127383994D01*
X183828274Y-127343367D01*
X183804586Y-127284995D01*
X183802471Y-127263076D01*
X183808770Y-127200695D01*
X183828022Y-127130006D01*
X183857006Y-127061276D01*
X183892499Y-127004775D01*
X183910342Y-126982220D01*
X183949661Y-126931289D01*
X183987356Y-126881214D01*
X184009824Y-126851242D01*
X184036482Y-126816772D01*
X184052746Y-126797127D01*
X184069620Y-126776694D01*
X184092722Y-126745348D01*
X184105059Y-126728075D01*
X184134718Y-126687744D01*
X184167680Y-126643922D01*
X184178494Y-126629600D01*
X184236336Y-126549867D01*
X184301108Y-126456400D01*
X184368784Y-126355374D01*
X184435339Y-126252961D01*
X184496749Y-126155336D01*
X184548989Y-126068671D01*
X184588035Y-125999141D01*
X184589420Y-125996521D01*
X184620840Y-125938234D01*
X184652097Y-125882037D01*
X184676618Y-125839757D01*
X184711640Y-125781799D01*
X184671888Y-125749270D01*
X184668351Y-125746439D01*
X184636027Y-125725350D01*
X184611543Y-125716669D01*
X184596277Y-125713234D01*
X184568074Y-125696462D01*
X184551881Y-125685297D01*
X184513625Y-125662676D01*
X184460991Y-125633540D01*
X184400305Y-125601470D01*
X184349729Y-125575239D01*
X184295647Y-125546942D01*
X184254888Y-125525331D01*
X184233676Y-125513687D01*
X184209212Y-125500215D01*
X184173171Y-125481896D01*
X184157523Y-125474198D01*
X184107191Y-125448951D01*
X184042964Y-125416330D01*
X183972800Y-125380415D01*
X183904653Y-125345287D01*
X183846481Y-125315026D01*
X183806238Y-125293712D01*
X183792041Y-125286064D01*
X183750090Y-125263753D01*
X183719301Y-125247770D01*
X183619984Y-125197226D01*
X183526555Y-125148676D01*
X183445604Y-125105571D01*
X183381657Y-125070323D01*
X183339241Y-125045341D01*
X183317472Y-125031990D01*
X183284874Y-125013762D01*
X183267572Y-125006614D01*
X183263470Y-125005576D01*
X183239776Y-124993585D01*
X183205704Y-124972482D01*
X183189564Y-124961953D01*
X183139462Y-124930399D01*
X183089010Y-124899804D01*
X183065486Y-124885866D01*
X183026768Y-124862784D01*
X183002073Y-124847877D01*
X182997635Y-124845206D01*
X182970063Y-124829019D01*
X182924360Y-124802438D01*
X182865691Y-124768459D01*
X182799221Y-124730083D01*
X182780297Y-124719156D01*
X182711229Y-124678988D01*
X182648552Y-124642124D01*
X182598521Y-124612259D01*
X182567390Y-124593088D01*
X182501681Y-124551154D01*
X182442074Y-124514092D01*
X182386432Y-124481005D01*
X182327318Y-124447591D01*
X182257296Y-124409548D01*
X182168930Y-124362574D01*
X182129502Y-124341287D01*
X182068050Y-124307140D01*
X182009546Y-124273742D01*
X181965216Y-124248463D01*
X181903101Y-124214187D01*
X181850162Y-124186133D01*
X181822691Y-124171940D01*
X181772789Y-124145605D01*
X181734247Y-124124605D01*
X181731120Y-124122847D01*
X181694664Y-124102438D01*
X181644093Y-124074213D01*
X181589352Y-124043724D01*
X181581803Y-124039521D01*
X181466082Y-123974153D01*
X181372909Y-123919021D01*
X181299085Y-123871576D01*
X181241411Y-123829271D01*
X181196688Y-123789558D01*
X181161719Y-123749890D01*
X181133305Y-123707719D01*
X181108247Y-123660497D01*
X181093666Y-123628294D01*
X181078375Y-123581746D01*
X181070988Y-123530897D01*
X181069067Y-123463488D01*
X181071110Y-123412011D01*
X181091837Y-123306510D01*
X181136824Y-123212730D01*
X181208429Y-123124940D01*
X181223242Y-123110353D01*
X181290455Y-123055928D01*
X181363735Y-123018571D01*
X181454325Y-122992214D01*
X181476815Y-122988040D01*
X181573965Y-122984713D01*
X181675133Y-123001207D01*
G37*
G36*
X190526197Y-123868339D02*
G01*
X190564310Y-123877630D01*
X190610711Y-123894559D01*
X190668850Y-123920340D01*
X190742174Y-123956187D01*
X190834132Y-124003315D01*
X190948173Y-124062938D01*
X190991198Y-124086613D01*
X191032776Y-124111773D01*
X191057984Y-124129802D01*
X191075363Y-124142874D01*
X191097019Y-124151737D01*
X191107861Y-124155472D01*
X191137504Y-124172512D01*
X191175570Y-124198677D01*
X191200386Y-124216724D01*
X191238395Y-124243522D01*
X191263659Y-124260257D01*
X191269260Y-124263768D01*
X191298525Y-124283170D01*
X191341832Y-124312650D01*
X191392014Y-124347344D01*
X191406234Y-124357216D01*
X191460295Y-124394251D01*
X191508821Y-124426805D01*
X191542738Y-124448770D01*
X191544958Y-124450157D01*
X191590273Y-124480883D01*
X191634180Y-124513973D01*
X191658049Y-124532501D01*
X191704589Y-124566665D01*
X191753520Y-124600910D01*
X191785301Y-124622855D01*
X191840605Y-124661761D01*
X191904429Y-124707214D01*
X191968406Y-124753281D01*
X192021909Y-124791981D01*
X192074677Y-124830003D01*
X192115954Y-124859589D01*
X192139764Y-124876441D01*
X192156293Y-124888779D01*
X192192176Y-124916694D01*
X192240514Y-124954863D01*
X192295853Y-124998926D01*
X192352742Y-125044525D01*
X192405727Y-125087301D01*
X192449354Y-125122895D01*
X192478171Y-125146948D01*
X192493204Y-125159581D01*
X192526752Y-125187276D01*
X192566979Y-125220142D01*
X192586222Y-125235892D01*
X192635246Y-125276482D01*
X192692929Y-125324655D01*
X192750460Y-125373068D01*
X192783615Y-125400892D01*
X192836228Y-125444282D01*
X192881104Y-125480407D01*
X192911107Y-125503473D01*
X192939511Y-125524609D01*
X192984709Y-125558925D01*
X193040337Y-125601565D01*
X193100159Y-125647772D01*
X193105498Y-125651901D01*
X193161679Y-125694059D01*
X193210438Y-125728434D01*
X193246708Y-125751584D01*
X193265423Y-125760065D01*
X193274461Y-125756877D01*
X193304520Y-125736128D01*
X193349863Y-125698460D01*
X193407655Y-125646664D01*
X193475059Y-125583531D01*
X193549241Y-125511854D01*
X193627363Y-125434425D01*
X193706590Y-125354036D01*
X193784086Y-125273478D01*
X193857015Y-125195543D01*
X193922541Y-125123024D01*
X193977829Y-125058712D01*
X193993133Y-125040289D01*
X194039963Y-124984011D01*
X194079706Y-124936385D01*
X194108561Y-124901963D01*
X194122724Y-124885298D01*
X194125680Y-124881936D01*
X194163945Y-124835755D01*
X194205365Y-124782076D01*
X194242576Y-124730710D01*
X194268212Y-124691469D01*
X194271176Y-124686607D01*
X194302794Y-124654252D01*
X194336568Y-124644166D01*
X194365586Y-124654227D01*
X194382936Y-124682315D01*
X194381707Y-124726306D01*
X194375136Y-124748260D01*
X194353895Y-124803319D01*
X194326753Y-124862441D01*
X194299776Y-124911884D01*
X194293975Y-124921241D01*
X194271916Y-124956982D01*
X194246180Y-124998820D01*
X194235891Y-125015571D01*
X194211898Y-125054601D01*
X194195467Y-125081285D01*
X194186986Y-125094947D01*
X194124080Y-125192372D01*
X194054584Y-125294321D01*
X193982782Y-125394909D01*
X193912956Y-125488251D01*
X193849389Y-125568463D01*
X193796364Y-125629660D01*
X193770438Y-125658220D01*
X193729462Y-125705728D01*
X193697423Y-125745576D01*
X193687330Y-125758804D01*
X193663703Y-125788344D01*
X193649869Y-125803534D01*
X193639930Y-125812278D01*
X193612428Y-125842561D01*
X193582436Y-125881166D01*
X193555311Y-125920530D01*
X193536410Y-125953088D01*
X193531088Y-125971275D01*
X193531265Y-125971701D01*
X193546665Y-125990035D01*
X193578622Y-126019002D01*
X193620457Y-126052529D01*
X193740874Y-126148035D01*
X193879716Y-126265893D01*
X194036564Y-126405753D01*
X194211215Y-126567426D01*
X194403465Y-126750724D01*
X194613112Y-126955460D01*
X194839951Y-127181444D01*
X194928784Y-127270832D01*
X195036678Y-127379701D01*
X195138490Y-127482760D01*
X195232164Y-127577909D01*
X195315643Y-127663049D01*
X195386869Y-127736082D01*
X195443786Y-127794909D01*
X195484337Y-127837431D01*
X195506466Y-127861549D01*
X195540872Y-127901380D01*
X195572974Y-127938238D01*
X195593402Y-127961336D01*
X195682586Y-128062082D01*
X195791662Y-128192353D01*
X195887885Y-128315684D01*
X195970268Y-128430415D01*
X196037823Y-128534883D01*
X196089565Y-128627429D01*
X196124505Y-128706390D01*
X196141657Y-128770106D01*
X196140032Y-128816915D01*
X196118645Y-128845157D01*
X196106334Y-128851992D01*
X196084759Y-128858964D01*
X196059959Y-128855114D01*
X196020376Y-128839812D01*
X195989467Y-128824170D01*
X195973580Y-128802595D01*
X195970128Y-128765110D01*
X195969591Y-128751801D01*
X195962599Y-128718609D01*
X195945324Y-128682476D01*
X195915003Y-128639235D01*
X195868875Y-128584717D01*
X195804175Y-128514755D01*
X195788379Y-128498322D01*
X195724727Y-128435313D01*
X195651722Y-128366774D01*
X195576695Y-128299336D01*
X195506978Y-128239631D01*
X195449902Y-128194292D01*
X195433031Y-128181452D01*
X195387154Y-128144986D01*
X195341833Y-128107356D01*
X195318706Y-128087724D01*
X195286508Y-128060823D01*
X195267675Y-128045670D01*
X195264223Y-128043048D01*
X195240708Y-128024721D01*
X195202884Y-127994950D01*
X195157107Y-127958733D01*
X195144733Y-127948954D01*
X195096530Y-127911431D01*
X195055264Y-127880139D01*
X195028762Y-127861035D01*
X195007097Y-127846051D01*
X194965202Y-127816393D01*
X194910355Y-127777203D01*
X194848136Y-127732499D01*
X194784122Y-127686300D01*
X194723892Y-127642624D01*
X194673025Y-127605488D01*
X194637099Y-127578912D01*
X194615495Y-127562768D01*
X194570437Y-127529245D01*
X194514792Y-127487954D01*
X194455981Y-127444404D01*
X194410462Y-127410690D01*
X194362994Y-127375422D01*
X194328075Y-127349349D01*
X194311086Y-127336479D01*
X194295716Y-127324899D01*
X194262906Y-127300778D01*
X194221444Y-127270632D01*
X194185381Y-127244513D01*
X194142589Y-127213458D01*
X194112773Y-127191748D01*
X194109504Y-127189359D01*
X194079846Y-127167869D01*
X194048072Y-127145251D01*
X194011437Y-127119629D01*
X193967195Y-127089129D01*
X193912600Y-127051877D01*
X193844908Y-127006000D01*
X193761372Y-126949622D01*
X193659248Y-126880870D01*
X193535789Y-126797869D01*
X193535326Y-126797559D01*
X193433689Y-126729456D01*
X193338906Y-126666324D01*
X193253836Y-126610039D01*
X193181340Y-126562477D01*
X193124275Y-126525513D01*
X193085502Y-126501024D01*
X193067880Y-126490885D01*
X193058559Y-126489512D01*
X193044874Y-126493691D01*
X193025930Y-126505826D01*
X192999707Y-126527853D01*
X192964181Y-126561710D01*
X192917330Y-126609334D01*
X192857133Y-126672661D01*
X192781566Y-126753629D01*
X192688608Y-126854175D01*
X192657900Y-126887239D01*
X192564129Y-126986112D01*
X192457097Y-127096532D01*
X192342640Y-127212614D01*
X192226591Y-127328468D01*
X192114784Y-127438207D01*
X192013054Y-127535943D01*
X191928305Y-127610750D01*
X191842966Y-127671520D01*
X191767554Y-127707207D01*
X191700525Y-127718291D01*
X191640335Y-127705250D01*
X191585443Y-127668564D01*
X191569259Y-127653261D01*
X191545805Y-127624454D01*
X191535899Y-127592848D01*
X191534112Y-127545415D01*
X191534820Y-127526418D01*
X191542746Y-127474006D01*
X191557262Y-127437629D01*
X191571497Y-127409728D01*
X191579826Y-127371823D01*
X191580914Y-127365054D01*
X191595318Y-127338180D01*
X191627571Y-127297595D01*
X191679090Y-127241618D01*
X191751292Y-127168573D01*
X191768961Y-127151124D01*
X191843854Y-127077764D01*
X191926953Y-126997149D01*
X192014644Y-126912717D01*
X192103310Y-126827907D01*
X192189335Y-126746159D01*
X192269103Y-126670912D01*
X192338997Y-126605605D01*
X192395403Y-126553679D01*
X192434703Y-126518571D01*
X192466214Y-126490890D01*
X192517936Y-126444051D01*
X192570125Y-126395430D01*
X192618379Y-126349259D01*
X192658297Y-126309773D01*
X192685475Y-126281202D01*
X192695513Y-126267781D01*
X192686267Y-126256871D01*
X192660442Y-126234525D01*
X192625630Y-126206918D01*
X192589484Y-126179925D01*
X192559654Y-126159421D01*
X192543791Y-126151280D01*
X192542480Y-126150912D01*
X192523886Y-126139943D01*
X192489515Y-126116810D01*
X192445611Y-126085683D01*
X192440188Y-126081758D01*
X192392561Y-126047370D01*
X192351733Y-126018033D01*
X192326032Y-125999730D01*
X192323577Y-125998001D01*
X192292303Y-125975714D01*
X192245977Y-125942451D01*
X192192066Y-125903598D01*
X192138038Y-125864546D01*
X192091360Y-125830683D01*
X192059501Y-125807397D01*
X192029706Y-125785938D01*
X191992316Y-125760065D01*
X191990535Y-125758867D01*
X191961134Y-125738495D01*
X191917807Y-125707866D01*
X191869257Y-125673129D01*
X191843687Y-125654736D01*
X191783574Y-125611692D01*
X191728962Y-125572994D01*
X191673945Y-125534532D01*
X191612620Y-125492194D01*
X191539082Y-125441870D01*
X191447426Y-125379449D01*
X191436449Y-125371983D01*
X191358016Y-125318639D01*
X191298137Y-125277942D01*
X191251986Y-125246641D01*
X191214736Y-125221485D01*
X191181560Y-125199222D01*
X191147631Y-125176600D01*
X191108122Y-125150369D01*
X191058206Y-125117277D01*
X191033782Y-125101083D01*
X190970288Y-125058884D01*
X190921562Y-125026166D01*
X190880469Y-124997994D01*
X190839874Y-124969434D01*
X190792641Y-124935551D01*
X190731635Y-124891409D01*
X190686626Y-124858911D01*
X190636703Y-124823152D01*
X190598529Y-124796139D01*
X190577945Y-124782028D01*
X190480544Y-124719493D01*
X190377895Y-124651647D01*
X190296007Y-124593911D01*
X190232560Y-124543664D01*
X190185234Y-124498288D01*
X190151710Y-124455164D01*
X190129669Y-124411672D01*
X190116790Y-124365192D01*
X190110753Y-124313107D01*
X190109240Y-124252796D01*
X190109443Y-124215113D01*
X190111845Y-124164483D01*
X190118825Y-124127745D01*
X190132687Y-124095210D01*
X190155734Y-124057188D01*
X190165259Y-124043202D01*
X190234454Y-123969183D01*
X190321368Y-123911656D01*
X190417890Y-123876220D01*
X190427104Y-123874153D01*
X190461042Y-123867815D01*
X190492924Y-123865472D01*
X190526197Y-123868339D01*
G37*
X156220000Y-130390000D02*
X154220000Y-130390000D01*
X156220000Y-130390000D02*
X156220000Y-126490000D01*
X154220000Y-130390000D02*
X154220000Y-126490000D01*
X137160000Y-73235000D02*
X135160000Y-73235000D01*
X135160000Y-73235000D02*
X135160000Y-69335000D01*
X137160000Y-73235000D02*
X137160000Y-69335000D01*
X80010000Y-92285000D02*
X80010000Y-88385000D01*
X80010000Y-92285000D02*
X78010000Y-92285000D01*
X78010000Y-92285000D02*
X78010000Y-88385000D01*
X137160000Y-130390000D02*
X137160000Y-126490000D01*
X135160000Y-130390000D02*
X135160000Y-126490000D01*
X137160000Y-130390000D02*
X135160000Y-130390000D01*
X137160000Y-92285000D02*
X137160000Y-88385000D01*
X137160000Y-92285000D02*
X135160000Y-92285000D01*
X135160000Y-92285000D02*
X135160000Y-88385000D01*
X60960000Y-111335000D02*
X58960000Y-111335000D01*
X60960000Y-111335000D02*
X60960000Y-107435000D01*
X58960000Y-111335000D02*
X58960000Y-107435000D01*
X99050000Y-54190000D02*
X99050000Y-50290000D01*
X99050000Y-54190000D02*
X97050000Y-54190000D01*
X97050000Y-54190000D02*
X97050000Y-50290000D01*
X78010000Y-130385000D02*
X78010000Y-126485000D01*
X80010000Y-130385000D02*
X78010000Y-130385000D01*
X80010000Y-130385000D02*
X80010000Y-126485000D01*
X80010000Y-54185000D02*
X80010000Y-50285000D01*
X78010000Y-54185000D02*
X78010000Y-50285000D01*
X80010000Y-54185000D02*
X78010000Y-54185000D01*
X148865000Y-118002164D02*
X148865000Y-118217836D01*
X149585000Y-118002164D02*
X149585000Y-118217836D01*
X64610000Y-115360000D02*
X57310000Y-115360000D01*
X64610000Y-120860000D02*
X57310000Y-120860000D01*
X57310000Y-120860000D02*
X57310000Y-119710000D01*
X80010000Y-73235000D02*
X78010000Y-73235000D01*
X78010000Y-73235000D02*
X78010000Y-69335000D01*
X80010000Y-73235000D02*
X80010000Y-69335000D01*
X137160000Y-111335000D02*
X135160000Y-111335000D01*
X135160000Y-111335000D02*
X135160000Y-107435000D01*
X137160000Y-111335000D02*
X137160000Y-107435000D01*
X99060000Y-92270000D02*
X97060000Y-92270000D01*
X99060000Y-92270000D02*
X99060000Y-88370000D01*
X97060000Y-92270000D02*
X97060000Y-88370000D01*
X154210000Y-92290000D02*
X154210000Y-88390000D01*
X156210000Y-92290000D02*
X156210000Y-88390000D01*
X156210000Y-92290000D02*
X154210000Y-92290000D01*
X175250000Y-111340000D02*
X175250000Y-107440000D01*
X173250000Y-111340000D02*
X173250000Y-107440000D01*
X175250000Y-111340000D02*
X173250000Y-111340000D01*
X137160000Y-54185000D02*
X137160000Y-50285000D01*
X135160000Y-54185000D02*
X135160000Y-50285000D01*
X137160000Y-54185000D02*
X135160000Y-54185000D01*
X152560000Y-120860000D02*
X152560000Y-119710000D01*
X159860000Y-115360000D02*
X152560000Y-115360000D01*
X159860000Y-120860000D02*
X152560000Y-120860000D01*
X175270000Y-73240000D02*
X175270000Y-69340000D01*
X175270000Y-73240000D02*
X173270000Y-73240000D01*
X173270000Y-73240000D02*
X173270000Y-69340000D01*
X100605000Y-118002164D02*
X100605000Y-118217836D01*
X101325000Y-118002164D02*
X101325000Y-118217836D01*
X57310000Y-62440000D02*
X64610000Y-62440000D01*
X64610000Y-56940000D02*
X64610000Y-58090000D01*
X57310000Y-56940000D02*
X64610000Y-56940000D01*
X118110000Y-111335000D02*
X116110000Y-111335000D01*
X118110000Y-111335000D02*
X118110000Y-107435000D01*
X116110000Y-111335000D02*
X116110000Y-107435000D01*
G36*
X194762542Y-121605501D02*
G01*
X194762542Y-120717221D01*
X195650822Y-120717221D01*
X200092221Y-120717221D01*
X200092221Y-116275823D01*
X195650822Y-116275823D01*
X195650822Y-120717221D01*
X194762542Y-120717221D01*
X194762542Y-115387543D01*
X200980501Y-115387543D01*
X200980501Y-121605501D01*
X194762542Y-121605501D01*
G37*
G36*
X200980501Y-109145577D02*
G01*
X200092221Y-109145577D01*
X200092221Y-107369017D01*
X199203941Y-107369017D01*
X199203941Y-106480737D01*
X200980501Y-106480737D01*
X200980501Y-109145577D01*
G37*
G36*
X200980501Y-114499263D02*
G01*
X200092221Y-114499263D01*
X200092221Y-112722703D01*
X199203941Y-112722703D01*
X199203941Y-110946144D01*
X200980501Y-110946144D01*
X200980501Y-114499263D01*
G37*
G36*
X192985983Y-109145577D02*
G01*
X192097703Y-109145577D01*
X192097703Y-108257297D01*
X192985983Y-108257297D01*
X192985983Y-109145577D01*
G37*
G36*
X189408856Y-112722703D02*
G01*
X188520576Y-112722703D01*
X188520576Y-110946144D01*
X189408856Y-110946144D01*
X189408856Y-112722703D01*
G37*
G36*
X195650822Y-107369017D02*
G01*
X194762542Y-107369017D01*
X194762542Y-106480737D01*
X195650822Y-106480737D01*
X195650822Y-107369017D01*
G37*
G36*
X184967457Y-107369017D02*
G01*
X184079177Y-107369017D01*
X184079177Y-106480737D01*
X184967457Y-106480737D01*
X184967457Y-107369017D01*
G37*
G36*
X188520576Y-100262779D02*
G01*
X187632297Y-100262779D01*
X187632297Y-99374499D01*
X188520576Y-99374499D01*
X188520576Y-100262779D01*
G37*
G36*
X192985983Y-102039339D02*
G01*
X192097703Y-102039339D01*
X192097703Y-101151059D01*
X192985983Y-101151059D01*
X192985983Y-102039339D01*
G37*
G36*
X193874263Y-115387543D02*
G01*
X192985983Y-115387543D01*
X192985983Y-114499263D01*
X193874263Y-114499263D01*
X193874263Y-115387543D01*
G37*
G36*
X184079177Y-118940662D02*
G01*
X184079177Y-119828942D01*
X184967457Y-119828942D01*
X184967457Y-120717221D01*
X186744017Y-120717221D01*
X186744017Y-121605501D01*
X184079177Y-121605501D01*
X184079177Y-120717221D01*
X182302618Y-120717221D01*
X182302618Y-118940662D01*
X184079177Y-118940662D01*
G37*
G36*
X182302618Y-120717221D02*
G01*
X182302618Y-121605501D01*
X181414338Y-121605501D01*
X181414338Y-120717221D01*
X182302618Y-120717221D01*
G37*
G36*
X180526058Y-114499263D02*
G01*
X180526058Y-115387543D01*
X179637779Y-115387543D01*
X179637779Y-117164102D01*
X180526058Y-117164102D01*
X180526058Y-118940662D01*
X181414338Y-118940662D01*
X181414338Y-117164102D01*
X182302618Y-117164102D01*
X183190898Y-117164102D01*
X185855737Y-117164102D01*
X185855737Y-114499263D01*
X183190898Y-114499263D01*
X183190898Y-117164102D01*
X182302618Y-117164102D01*
X182302618Y-116275823D01*
X181414338Y-116275823D01*
X181414338Y-115387543D01*
X182302618Y-115387543D01*
X182302618Y-113610983D01*
X183190898Y-113610983D01*
X183190898Y-111834424D01*
X184079177Y-111834424D01*
X184079177Y-113610983D01*
X184967457Y-113610983D01*
X185855737Y-113610983D01*
X186744017Y-113610983D01*
X186744017Y-117164102D01*
X187632297Y-117164102D01*
X187632297Y-116275823D01*
X188520576Y-116275823D01*
X188520576Y-113610983D01*
X186744017Y-113610983D01*
X186744017Y-112722703D01*
X185855737Y-112722703D01*
X185855737Y-113610983D01*
X184967457Y-113610983D01*
X184967457Y-112722703D01*
X185855737Y-112722703D01*
X185855737Y-110033857D01*
X187632297Y-110033857D01*
X187632297Y-112722703D01*
X188520576Y-112722703D01*
X188520576Y-113610983D01*
X190321143Y-113610983D01*
X190321143Y-114499263D01*
X189408856Y-114499263D01*
X189408856Y-117164102D01*
X188520576Y-117164102D01*
X188520576Y-118052382D01*
X185855737Y-118052382D01*
X185855737Y-118940662D01*
X184079177Y-118940662D01*
X184079177Y-118052382D01*
X182302618Y-118052382D01*
X182302618Y-118940662D01*
X181414338Y-118940662D01*
X181414338Y-120717221D01*
X179637779Y-120717221D01*
X179637779Y-121605501D01*
X178749499Y-121605501D01*
X178749499Y-118052382D01*
X179637779Y-118052382D01*
X179637779Y-117164102D01*
X178749499Y-117164102D01*
X178749499Y-115387543D01*
X179637779Y-115387543D01*
X179637779Y-113610983D01*
X180526058Y-113610983D01*
X180526058Y-112722703D01*
X179637779Y-112722703D01*
X179637779Y-113610983D01*
X178749499Y-113610983D01*
X178749499Y-111834424D01*
X179637779Y-111834424D01*
X179637779Y-110946144D01*
X178749499Y-110946144D01*
X178749499Y-109145577D01*
X179637779Y-109145577D01*
X181414338Y-109145577D01*
X181414338Y-108257297D01*
X179637779Y-108257297D01*
X179637779Y-109145577D01*
X178749499Y-109145577D01*
X178749499Y-108257297D01*
X179637779Y-108257297D01*
X179637779Y-107369017D01*
X184079177Y-107369017D01*
X184079177Y-109145577D01*
X183190898Y-109145577D01*
X183190898Y-110033857D01*
X184967457Y-110033857D01*
X184967457Y-109145577D01*
X185855737Y-109145577D01*
X185855737Y-110033857D01*
X184967457Y-110033857D01*
X184967457Y-110946144D01*
X183190898Y-110946144D01*
X183190898Y-110033857D01*
X179637779Y-110033857D01*
X179637779Y-110946144D01*
X180526058Y-110946144D01*
X180526058Y-111834424D01*
X182302618Y-111834424D01*
X182302618Y-112722703D01*
X181414338Y-112722703D01*
X181414338Y-114499263D01*
X180526058Y-114499263D01*
G37*
G36*
X178749499Y-105592458D02*
G01*
X178749499Y-104704178D01*
X179637779Y-104704178D01*
X184079177Y-104704178D01*
X184079177Y-100262779D01*
X179637779Y-100262779D01*
X179637779Y-104704178D01*
X178749499Y-104704178D01*
X178749499Y-99374499D01*
X184967457Y-99374499D01*
X184967457Y-105592458D01*
X178749499Y-105592458D01*
G37*
G36*
X194762542Y-105592458D02*
G01*
X194762542Y-104704178D01*
X195650822Y-104704178D01*
X200092221Y-104704178D01*
X200092221Y-100262779D01*
X195650822Y-100262779D01*
X195650822Y-104704178D01*
X194762542Y-104704178D01*
X194762542Y-99374499D01*
X200980501Y-99374499D01*
X200980501Y-105592458D01*
X194762542Y-105592458D01*
G37*
G36*
X193874263Y-121605501D02*
G01*
X192097703Y-121605501D01*
X192097703Y-119828942D01*
X193874263Y-119828942D01*
X193874263Y-121605501D01*
G37*
G36*
X192097703Y-114499263D02*
G01*
X191209423Y-114499263D01*
X191209423Y-112722703D01*
X192097703Y-112722703D01*
X192097703Y-114499263D01*
G37*
G36*
X192985983Y-116275823D02*
G01*
X192097703Y-116275823D01*
X192097703Y-115387543D01*
X192985983Y-115387543D01*
X192985983Y-116275823D01*
G37*
G36*
X199203941Y-119828942D02*
G01*
X196539102Y-119828942D01*
X196539102Y-117164102D01*
X199203941Y-117164102D01*
X199203941Y-119828942D01*
G37*
G36*
X183190898Y-111834424D02*
G01*
X182302618Y-111834424D01*
X182302618Y-110946144D01*
X183190898Y-110946144D01*
X183190898Y-111834424D01*
G37*
G36*
X184967457Y-116275823D02*
G01*
X184079177Y-116275823D01*
X184079177Y-115387543D01*
X184967457Y-115387543D01*
X184967457Y-116275823D01*
G37*
G36*
X179637779Y-107369017D02*
G01*
X178749499Y-107369017D01*
X178749499Y-106480737D01*
X179637779Y-106480737D01*
X179637779Y-107369017D01*
G37*
G36*
X191209423Y-103815898D02*
G01*
X191209423Y-104704178D01*
X190321143Y-104704178D01*
X190321143Y-105592458D01*
X191209423Y-105592458D01*
X191209423Y-106480737D01*
X188520576Y-106480737D01*
X188520576Y-107369017D01*
X187632297Y-107369017D01*
X187632297Y-108257297D01*
X189408856Y-108257297D01*
X189408856Y-109145577D01*
X190321143Y-109145577D01*
X190321143Y-107369017D01*
X192097703Y-107369017D01*
X192097703Y-105592458D01*
X192985983Y-105592458D01*
X192985983Y-104704178D01*
X192097703Y-104704178D01*
X192097703Y-103815898D01*
X192985983Y-103815898D01*
X192985983Y-104704178D01*
X193874263Y-104704178D01*
X193874263Y-106480737D01*
X192985983Y-106480737D01*
X192985983Y-107369017D01*
X192097703Y-107369017D01*
X192097703Y-108257297D01*
X191209423Y-108257297D01*
X191209423Y-110033857D01*
X190321143Y-110033857D01*
X190321143Y-110946144D01*
X191209423Y-110946144D01*
X191209423Y-110033857D01*
X192985983Y-110033857D01*
X192985983Y-110946144D01*
X192097703Y-110946144D01*
X192097703Y-111834424D01*
X193874263Y-111834424D01*
X193874263Y-112722703D01*
X194762542Y-112722703D01*
X194762542Y-113610983D01*
X196539102Y-113610983D01*
X196539102Y-111834424D01*
X195650822Y-111834424D01*
X195650822Y-110946144D01*
X194762542Y-110946144D01*
X194762542Y-110033857D01*
X193874263Y-110033857D01*
X193874263Y-108257297D01*
X192985983Y-108257297D01*
X192985983Y-107369017D01*
X194762542Y-107369017D01*
X194762542Y-108257297D01*
X195650822Y-108257297D01*
X195650822Y-109145577D01*
X194762542Y-109145577D01*
X194762542Y-110033857D01*
X196539102Y-110033857D01*
X196539102Y-106480737D01*
X198315661Y-106480737D01*
X198315661Y-107369017D01*
X197427382Y-107369017D01*
X197427382Y-109145577D01*
X198315661Y-109145577D01*
X198315661Y-110033857D01*
X196539102Y-110033857D01*
X196539102Y-111834424D01*
X197427382Y-111834424D01*
X197427382Y-110946144D01*
X198315661Y-110946144D01*
X198315661Y-112722703D01*
X197427382Y-112722703D01*
X197427382Y-113610983D01*
X198315661Y-113610983D01*
X198315661Y-114499263D01*
X194762542Y-114499263D01*
X194762542Y-113610983D01*
X192985983Y-113610983D01*
X192985983Y-112722703D01*
X192097703Y-112722703D01*
X192097703Y-111834424D01*
X190321143Y-111834424D01*
X190321143Y-110946144D01*
X189408856Y-110946144D01*
X189408856Y-109145577D01*
X185855737Y-109145577D01*
X185855737Y-108257297D01*
X186744017Y-108257297D01*
X186744017Y-107369017D01*
X185855737Y-107369017D01*
X185855737Y-104704178D01*
X186744017Y-104704178D01*
X186744017Y-106480737D01*
X188520576Y-106480737D01*
X188520576Y-105592458D01*
X189408856Y-105592458D01*
X189408856Y-103815898D01*
X187632297Y-103815898D01*
X187632297Y-102927618D01*
X188520576Y-102927618D01*
X188520576Y-102039339D01*
X189408856Y-102039339D01*
X190321143Y-102039339D01*
X190321143Y-101151059D01*
X189408856Y-101151059D01*
X189408856Y-102039339D01*
X188520576Y-102039339D01*
X187632297Y-102039339D01*
X187632297Y-102927618D01*
X185855737Y-102927618D01*
X185855737Y-102039339D01*
X187632297Y-102039339D01*
X187632297Y-101151059D01*
X188520576Y-101151059D01*
X188520576Y-100262779D01*
X190321143Y-100262779D01*
X190321143Y-99374499D01*
X193874263Y-99374499D01*
X193874263Y-100262779D01*
X191209423Y-100262779D01*
X191209423Y-102039339D01*
X192097703Y-102039339D01*
X192097703Y-103815898D01*
X191209423Y-103815898D01*
G37*
G36*
X199203941Y-110033857D02*
G01*
X199203941Y-110946144D01*
X198315661Y-110946144D01*
X198315661Y-110033857D01*
X199203941Y-110033857D01*
G37*
G36*
X199203941Y-107369017D02*
G01*
X199203941Y-109145577D01*
X198315661Y-109145577D01*
X198315661Y-107369017D01*
X199203941Y-107369017D01*
G37*
G36*
X187632297Y-119828942D02*
G01*
X188520576Y-119828942D01*
X188520576Y-120717221D01*
X186744017Y-120717221D01*
X186744017Y-118940662D01*
X187632297Y-118940662D01*
X187632297Y-119828942D01*
G37*
G36*
X191209423Y-117164102D02*
G01*
X192097703Y-117164102D01*
X192097703Y-118052382D01*
X192985983Y-118052382D01*
X192985983Y-117164102D01*
X193874263Y-117164102D01*
X193874263Y-118940662D01*
X192097703Y-118940662D01*
X192097703Y-118052382D01*
X191209423Y-118052382D01*
X191209423Y-118940662D01*
X192097703Y-118940662D01*
X192097703Y-119828942D01*
X191209423Y-119828942D01*
X191209423Y-121605501D01*
X190321143Y-121605501D01*
X190321143Y-119828942D01*
X189408856Y-119828942D01*
X189408856Y-118940662D01*
X190321143Y-118940662D01*
X190321143Y-118052382D01*
X189408856Y-118052382D01*
X189408856Y-117164102D01*
X190321143Y-117164102D01*
X190321143Y-115387543D01*
X191209423Y-115387543D01*
X191209423Y-117164102D01*
G37*
G36*
X186744017Y-101151059D02*
G01*
X185855737Y-101151059D01*
X185855737Y-100262779D01*
X186744017Y-100262779D01*
X186744017Y-101151059D01*
G37*
G36*
X199203941Y-103815898D02*
G01*
X196539102Y-103815898D01*
X196539102Y-101151059D01*
X199203941Y-101151059D01*
X199203941Y-103815898D01*
G37*
G36*
X188520576Y-105592458D02*
G01*
X187632297Y-105592458D01*
X187632297Y-104704178D01*
X188520576Y-104704178D01*
X188520576Y-105592458D01*
G37*
G36*
X195650822Y-112722703D02*
G01*
X194762542Y-112722703D01*
X194762542Y-111834424D01*
X195650822Y-111834424D01*
X195650822Y-112722703D01*
G37*
G36*
X192097703Y-105592458D02*
G01*
X191209423Y-105592458D01*
X191209423Y-104704178D01*
X192097703Y-104704178D01*
X192097703Y-105592458D01*
G37*
G36*
X183190898Y-103815898D02*
G01*
X180526058Y-103815898D01*
X180526058Y-101151059D01*
X183190898Y-101151059D01*
X183190898Y-103815898D01*
G37*
X175260000Y-54185000D02*
X175260000Y-50285000D01*
X173260000Y-54185000D02*
X173260000Y-50285000D01*
X175260000Y-54185000D02*
X173260000Y-54185000D01*
X154210000Y-73235000D02*
X154210000Y-69335000D01*
X156210000Y-73235000D02*
X154210000Y-73235000D01*
X156210000Y-73235000D02*
X156210000Y-69335000D01*
X53700000Y-118002164D02*
X53700000Y-118217836D01*
X52980000Y-118002164D02*
X52980000Y-118217836D01*
X78010000Y-111335000D02*
X78010000Y-107435000D01*
X80010000Y-111335000D02*
X80010000Y-107435000D01*
X80010000Y-111335000D02*
X78010000Y-111335000D01*
X97060000Y-130385000D02*
X97060000Y-126485000D01*
X99060000Y-130385000D02*
X99060000Y-126485000D01*
X99060000Y-130385000D02*
X97060000Y-130385000D01*
X118110000Y-130385000D02*
X118110000Y-126485000D01*
X118110000Y-130385000D02*
X116110000Y-130385000D01*
X116110000Y-130385000D02*
X116110000Y-126485000D01*
D13*
X182245000Y-45801750D03*
X182245000Y-48341750D03*
X182245000Y-50881750D03*
X182245000Y-53421750D03*
X182245000Y-55961750D03*
X182245000Y-58501750D03*
X182245000Y-61041750D03*
X182245000Y-63581750D03*
X182245000Y-66121750D03*
X182245000Y-68661750D03*
X182245000Y-71201750D03*
X182245000Y-73741750D03*
X197485000Y-73741750D03*
X197485000Y-71201750D03*
X197485000Y-68661750D03*
X197485000Y-66121750D03*
X197485000Y-63581750D03*
X197485000Y-61041750D03*
X197485000Y-58501750D03*
X197485000Y-55961750D03*
X197485000Y-53421750D03*
X197485000Y-50881750D03*
X197485000Y-48341750D03*
X197485000Y-45801750D03*
X184785000Y-68661750D03*
X187325000Y-68661750D03*
X189865000Y-68661750D03*
%LPC*%
D14*
X84455000Y-51435000D03*
D15*
X89535000Y-51435000D03*
D14*
X94615000Y-51435000D03*
D16*
X87035000Y-47435000D03*
D17*
X86380001Y-48165000D03*
D16*
X92075000Y-46355000D03*
D18*
X92055000Y-46645000D03*
D14*
X46355000Y-70485000D03*
D15*
X51435000Y-70485000D03*
D14*
X56515000Y-70485000D03*
D17*
X48280001Y-67215000D03*
D16*
X48935000Y-66485000D03*
D18*
X53955000Y-65695000D03*
D16*
X53975000Y-65405000D03*
D15*
X89535000Y-89535000D03*
D14*
X94615000Y-89535000D03*
X84455000Y-89535000D03*
D17*
X86380001Y-86265000D03*
D16*
X87035000Y-85535000D03*
X92075000Y-84455000D03*
D18*
X92055000Y-84745000D03*
D14*
X103505000Y-51435000D03*
D15*
X108585000Y-51435000D03*
D14*
X113665000Y-51435000D03*
D17*
X105430001Y-48165000D03*
D16*
X106085000Y-47435000D03*
D18*
X111105000Y-46645000D03*
D16*
X111125000Y-46355000D03*
D14*
X75565000Y-127635000D03*
D15*
X70485000Y-127635000D03*
D14*
X65405000Y-127635000D03*
D16*
X67985000Y-123635000D03*
D17*
X67330001Y-124365000D03*
D16*
X73025000Y-122555000D03*
D18*
X73005000Y-122845000D03*
D15*
X108585000Y-108585000D03*
D14*
X113665000Y-108585000D03*
X103505000Y-108585000D03*
D17*
X105430001Y-105315000D03*
D16*
X106085000Y-104585000D03*
D18*
X111105000Y-103795000D03*
D16*
X111125000Y-103505000D03*
D14*
X132715000Y-70485000D03*
X122555000Y-70485000D03*
D15*
X127635000Y-70485000D03*
D16*
X125135000Y-66485000D03*
D17*
X124480001Y-67215000D03*
D18*
X130155000Y-65695000D03*
D16*
X130175000Y-65405000D03*
D14*
X141605000Y-51435000D03*
X151765000Y-51435000D03*
D15*
X146685000Y-51435000D03*
D16*
X144185000Y-47435000D03*
D17*
X143530001Y-48165000D03*
D16*
X149225000Y-46355000D03*
D18*
X149205000Y-46645000D03*
D15*
X51435000Y-108585000D03*
D14*
X46355000Y-108585000D03*
X56515000Y-108585000D03*
D16*
X48935000Y-104585000D03*
D17*
X48280001Y-105315000D03*
D16*
X53975000Y-103505000D03*
D18*
X53955000Y-103795000D03*
D14*
X103505000Y-89535000D03*
X113665000Y-89535000D03*
D15*
X108585000Y-89535000D03*
D16*
X106085000Y-85535000D03*
D17*
X105430001Y-86265000D03*
D16*
X111125000Y-84455000D03*
D18*
X111105000Y-84745000D03*
D14*
X46355000Y-127635000D03*
D15*
X51435000Y-127635000D03*
D14*
X56515000Y-127635000D03*
D17*
X48280001Y-124365000D03*
D16*
X48935000Y-123635000D03*
D18*
X53955000Y-122845000D03*
D16*
X53975000Y-122555000D03*
D14*
X113665000Y-127635000D03*
X103505000Y-127635000D03*
D15*
X108585000Y-127635000D03*
D17*
X105430001Y-124365000D03*
D16*
X106085000Y-123635000D03*
X111125000Y-122555000D03*
D18*
X111105000Y-122845000D03*
D15*
X165735000Y-89535000D03*
D14*
X170815000Y-89535000D03*
X160655000Y-89535000D03*
D16*
X163235000Y-85535000D03*
D17*
X162580001Y-86265000D03*
D16*
X168275000Y-84455000D03*
D18*
X168255000Y-84745000D03*
D19*
X137160000Y-99060000D03*
X40005000Y-139065000D03*
D15*
X146685000Y-70485000D03*
D14*
X141605000Y-70485000D03*
X151765000Y-70485000D03*
D17*
X143530001Y-67215000D03*
D16*
X144185000Y-66485000D03*
X149225000Y-65405000D03*
D18*
X149205000Y-65695000D03*
D20*
X193665000Y-83820000D03*
X191125000Y-83820000D03*
X188585000Y-83820000D03*
X186045000Y-83820000D03*
D15*
X70485000Y-108585000D03*
D14*
X75565000Y-108585000D03*
X65405000Y-108585000D03*
D16*
X67985000Y-104585000D03*
D17*
X67330001Y-105315000D03*
D18*
X73005000Y-103795000D03*
D16*
X73025000Y-103505000D03*
D15*
X70485000Y-70485000D03*
D14*
X75565000Y-70485000D03*
X65405000Y-70485000D03*
D17*
X67330001Y-67215000D03*
D16*
X67985000Y-66485000D03*
D18*
X73005000Y-65695000D03*
D16*
X73025000Y-65405000D03*
D15*
X70485000Y-51435000D03*
D14*
X65405000Y-51435000D03*
X75565000Y-51435000D03*
D17*
X67330001Y-48165000D03*
D16*
X67985000Y-47435000D03*
X73025000Y-46355000D03*
D18*
X73005000Y-46645000D03*
D14*
X122555000Y-51435000D03*
D15*
X127635000Y-51435000D03*
D14*
X132715000Y-51435000D03*
D16*
X125135000Y-47435000D03*
D17*
X124480001Y-48165000D03*
D16*
X130175000Y-46355000D03*
D18*
X130155000Y-46645000D03*
D19*
X80010000Y-80010000D03*
D14*
X151765000Y-89535000D03*
X141605000Y-89535000D03*
D15*
X146685000Y-89535000D03*
D16*
X144185000Y-85535000D03*
D17*
X143530001Y-86265000D03*
D16*
X149225000Y-84455000D03*
D18*
X149205000Y-84745000D03*
D14*
X132715000Y-89535000D03*
D15*
X127635000Y-89535000D03*
D14*
X122555000Y-89535000D03*
D16*
X125135000Y-85535000D03*
D17*
X124480001Y-86265000D03*
D18*
X130155000Y-84745000D03*
D16*
X130175000Y-84455000D03*
D14*
X132715000Y-108585000D03*
X122555000Y-108585000D03*
D15*
X127635000Y-108585000D03*
D17*
X124480001Y-105315000D03*
D16*
X125135000Y-104585000D03*
D18*
X130155000Y-103795000D03*
D16*
X130175000Y-103505000D03*
D15*
X70485000Y-89535000D03*
D14*
X75565000Y-89535000D03*
X65405000Y-89535000D03*
D17*
X67330001Y-86265000D03*
D16*
X67985000Y-85535000D03*
X73025000Y-84455000D03*
D18*
X73005000Y-84745000D03*
D15*
X108585000Y-70485000D03*
D14*
X103505000Y-70485000D03*
X113665000Y-70485000D03*
D17*
X105430001Y-67215000D03*
D16*
X106085000Y-66485000D03*
X111125000Y-65405000D03*
D18*
X111105000Y-65695000D03*
D19*
X198755000Y-139065000D03*
X40005000Y-40005000D03*
D14*
X170815000Y-51435000D03*
D15*
X165735000Y-51435000D03*
D14*
X160655000Y-51435000D03*
D16*
X163235000Y-47435000D03*
D17*
X162580001Y-48165000D03*
D18*
X168255000Y-46645000D03*
D16*
X168275000Y-46355000D03*
D14*
X151765000Y-108585000D03*
X141605000Y-108585000D03*
D15*
X146685000Y-108585000D03*
D16*
X144185000Y-104585000D03*
D17*
X143530001Y-105315000D03*
D18*
X149205000Y-103795000D03*
D16*
X149225000Y-103505000D03*
D14*
X141609400Y-127627200D03*
D15*
X127639400Y-135882200D03*
D14*
X151769400Y-127627200D03*
D15*
X165739400Y-135882200D03*
D21*
X127639400Y-120642200D03*
D15*
X146689400Y-127627200D03*
D21*
X165739400Y-120642200D03*
D17*
X143534401Y-124357200D03*
D16*
X144189400Y-123627200D03*
X149229400Y-122547200D03*
D18*
X149209400Y-122837200D03*
D15*
X89535000Y-70485000D03*
D14*
X84455000Y-70485000D03*
X94615000Y-70485000D03*
D16*
X87035000Y-66485000D03*
D17*
X86380001Y-67215000D03*
D18*
X92055000Y-65695000D03*
D16*
X92075000Y-65405000D03*
D22*
X43919800Y-48935000D03*
D23*
X43919800Y-53935000D03*
X43919800Y-51435000D03*
D24*
X51419800Y-45835000D03*
X51419800Y-57035000D03*
D19*
X198755000Y-40005000D03*
D15*
X89535000Y-127635000D03*
D14*
X94615000Y-127635000D03*
X84455000Y-127635000D03*
D17*
X86380001Y-124365000D03*
D16*
X87035000Y-123635000D03*
D18*
X92055000Y-122845000D03*
D16*
X92075000Y-122555000D03*
D15*
X165735000Y-127635000D03*
D14*
X160655000Y-127635000D03*
X170815000Y-127635000D03*
D17*
X162580001Y-124365000D03*
D16*
X163235000Y-123635000D03*
D18*
X168255000Y-122845000D03*
D16*
X168275000Y-122555000D03*
D23*
X186615000Y-89190000D03*
X193115000Y-89190000D03*
X186615000Y-93690000D03*
X193115000Y-93690000D03*
D15*
X127635000Y-127635000D03*
D14*
X132715000Y-127635000D03*
X122555000Y-127635000D03*
D17*
X124480001Y-124365000D03*
D16*
X125135000Y-123635000D03*
X130175000Y-122555000D03*
D18*
X130155000Y-122845000D03*
D14*
X160655000Y-70485000D03*
X170815000Y-70485000D03*
D15*
X165735000Y-70485000D03*
D16*
X163235000Y-66485000D03*
D17*
X162580001Y-67215000D03*
D16*
X168275000Y-65405000D03*
D18*
X168255000Y-65695000D03*
D19*
X80010000Y-99060000D03*
D13*
X182245000Y-45801750D03*
X182245000Y-48341750D03*
X182245000Y-50881750D03*
X182245000Y-53421750D03*
X182245000Y-55961750D03*
X182245000Y-58501750D03*
X182245000Y-61041750D03*
X182245000Y-63581750D03*
X182245000Y-66121750D03*
X182245000Y-68661750D03*
X182245000Y-71201750D03*
X182245000Y-73741750D03*
X197485000Y-73741750D03*
X197485000Y-71201750D03*
X197485000Y-68661750D03*
X197485000Y-66121750D03*
X197485000Y-63581750D03*
X197485000Y-61041750D03*
X197485000Y-58501750D03*
X197485000Y-55961750D03*
X197485000Y-53421750D03*
X197485000Y-50881750D03*
X197485000Y-48341750D03*
X197485000Y-45801750D03*
X184785000Y-68661750D03*
X187325000Y-68661750D03*
X189865000Y-68661750D03*
D14*
X46355000Y-89535000D03*
X56515000Y-89535000D03*
D15*
X51435000Y-89535000D03*
D16*
X48935000Y-85535000D03*
D17*
X48280001Y-86265000D03*
D16*
X53975000Y-84455000D03*
D18*
X53955000Y-84745000D03*
D15*
X89535000Y-108585000D03*
D14*
X84455000Y-108585000D03*
X94615000Y-108585000D03*
D16*
X87035000Y-104585000D03*
D17*
X86380001Y-105315000D03*
D16*
X92075000Y-103505000D03*
D18*
X92055000Y-103795000D03*
D14*
X160655000Y-108585000D03*
X170815000Y-108585000D03*
D15*
X165735000Y-108585000D03*
D17*
X162580001Y-105315000D03*
D16*
X163235000Y-104585000D03*
X168275000Y-103505000D03*
D18*
X168255000Y-103795000D03*
D25*
X149860000Y-58575000D03*
X149860000Y-59535000D03*
X53340000Y-59210000D03*
X53340000Y-60170000D03*
X101600000Y-59210000D03*
X101600000Y-60170000D03*
D26*
X174260000Y-129800000D03*
X174260000Y-126500000D03*
X59960000Y-91685000D03*
X59960000Y-88385000D03*
D27*
X189865000Y-134955000D03*
X189865000Y-97455000D03*
D28*
X106135000Y-61290000D03*
X106135000Y-58090000D03*
X111035000Y-58090000D03*
X111035000Y-61290000D03*
D26*
X155210000Y-53585000D03*
X155210000Y-50285000D03*
X174250000Y-91670000D03*
X174250000Y-88370000D03*
X98060000Y-110735000D03*
X98060000Y-107435000D03*
X117110000Y-53585000D03*
X117110000Y-50285000D03*
X155210000Y-110735000D03*
X155210000Y-107435000D03*
X59960000Y-72640000D03*
X59960000Y-69340000D03*
X117110000Y-91685000D03*
X117110000Y-88385000D03*
X98080000Y-72640000D03*
X98080000Y-69340000D03*
D28*
X153760000Y-60655000D03*
X153760000Y-57455000D03*
X158660000Y-57455000D03*
X158660000Y-60655000D03*
D26*
X59960000Y-129785000D03*
X59960000Y-126485000D03*
X117110000Y-72635000D03*
X117110000Y-69335000D03*
D28*
X111035000Y-116510000D03*
X111035000Y-119710000D03*
X106135000Y-119710000D03*
X106135000Y-116510000D03*
D26*
X155220000Y-129790000D03*
X155220000Y-126490000D03*
X136160000Y-72635000D03*
X136160000Y-69335000D03*
X79010000Y-91685000D03*
X79010000Y-88385000D03*
X136160000Y-129790000D03*
X136160000Y-126490000D03*
X136160000Y-91685000D03*
X136160000Y-88385000D03*
X59960000Y-110735000D03*
X59960000Y-107435000D03*
X98050000Y-53590000D03*
X98050000Y-50290000D03*
X79010000Y-129785000D03*
X79010000Y-126485000D03*
X79010000Y-53585000D03*
X79010000Y-50285000D03*
D25*
X149225000Y-117630000D03*
X149225000Y-118590000D03*
D28*
X63410000Y-116510000D03*
X63410000Y-119710000D03*
X58510000Y-119710000D03*
X58510000Y-116510000D03*
D26*
X79010000Y-72635000D03*
X79010000Y-69335000D03*
X136160000Y-110735000D03*
X136160000Y-107435000D03*
X98060000Y-91670000D03*
X98060000Y-88370000D03*
X155210000Y-91690000D03*
X155210000Y-88390000D03*
X174250000Y-110740000D03*
X174250000Y-107440000D03*
X136160000Y-53585000D03*
X136160000Y-50285000D03*
D28*
X158660000Y-116510000D03*
X158660000Y-119710000D03*
X153760000Y-119710000D03*
X153760000Y-116510000D03*
D26*
X174270000Y-72640000D03*
X174270000Y-69340000D03*
D25*
X100965000Y-117630000D03*
X100965000Y-118590000D03*
D28*
X58510000Y-61290000D03*
X58510000Y-58090000D03*
X63410000Y-58090000D03*
X63410000Y-61290000D03*
D26*
X117110000Y-110735000D03*
X117110000Y-107435000D03*
X174260000Y-53585000D03*
X174260000Y-50285000D03*
X155210000Y-72635000D03*
X155210000Y-69335000D03*
D25*
X53340000Y-117630000D03*
X53340000Y-118590000D03*
D26*
X79010000Y-110735000D03*
X79010000Y-107435000D03*
X98060000Y-129785000D03*
X98060000Y-126485000D03*
X117110000Y-129785000D03*
X117110000Y-126485000D03*
M02*
