G04 #@! TF.GenerationSoftware,KiCad,Pcbnew,(6.0.1)*
G04 #@! TF.CreationDate,2022-02-23T16:18:42+00:00*
G04 #@! TF.ProjectId,Keyboard Right Hand Side,4b657962-6f61-4726-9420-526967687420,rev?*
G04 #@! TF.SameCoordinates,Original*
G04 #@! TF.FileFunction,Soldermask,Bot*
G04 #@! TF.FilePolarity,Negative*
%FSLAX46Y46*%
G04 Gerber Fmt 4.6, Leading zero omitted, Abs format (unit mm)*
G04 Created by KiCad (PCBNEW (6.0.1)) date 2022-02-23 16:18:42*
%MOMM*%
%LPD*%
G01*
G04 APERTURE LIST*
G04 Aperture macros list*
%AMRoundRect*
0 Rectangle with rounded corners*
0 $1 Rounding radius*
0 $2 $3 $4 $5 $6 $7 $8 $9 X,Y pos of 4 corners*
0 Add a 4 corners polygon primitive as box body*
4,1,4,$2,$3,$4,$5,$6,$7,$8,$9,$2,$3,0*
0 Add four circle primitives for the rounded corners*
1,1,$1+$1,$2,$3*
1,1,$1+$1,$4,$5*
1,1,$1+$1,$6,$7*
1,1,$1+$1,$8,$9*
0 Add four rect primitives between the rounded corners*
20,1,$1+$1,$2,$3,$4,$5,0*
20,1,$1+$1,$4,$5,$6,$7,0*
20,1,$1+$1,$6,$7,$8,$9,0*
20,1,$1+$1,$8,$9,$2,$3,0*%
%AMHorizOval*
0 Thick line with rounded ends*
0 $1 width*
0 $2 $3 position (X,Y) of the first rounded end (center of the circle)*
0 $4 $5 position (X,Y) of the second rounded end (center of the circle)*
0 Add line between two ends*
20,1,$1,$2,$3,$4,$5,0*
0 Add two circle primitives to create the rounded ends*
1,1,$1,$2,$3*
1,1,$1,$4,$5*%
G04 Aperture macros list end*
G04 #@! TA.AperFunction,Profile*
%ADD10C,0.200000*%
G04 #@! TD*
%ADD11C,2.200000*%
%ADD12C,3.987800*%
%ADD13C,1.750000*%
%ADD14C,2.250000*%
%ADD15HorizOval,2.250000X0.655001X0.730000X-0.655001X-0.730000X0*%
%ADD16HorizOval,2.250000X0.020000X0.290000X-0.020000X-0.290000X0*%
%ADD17C,3.048000*%
%ADD18C,2.000000*%
%ADD19C,1.500000*%
%ADD20R,2.000000X2.000000*%
%ADD21R,3.200000X2.000000*%
%ADD22C,1.397000*%
%ADD23C,1.752600*%
%ADD24C,2.800000*%
%ADD25R,1.200000X0.900000*%
%ADD26RoundRect,0.140000X-0.140000X-0.170000X0.140000X-0.170000X0.140000X0.170000X-0.140000X0.170000X0*%
%ADD27R,1.500000X1.000000*%
%ADD28RoundRect,0.140000X0.170000X-0.140000X0.170000X0.140000X-0.170000X0.140000X-0.170000X-0.140000X0*%
G04 APERTURE END LIST*
D10*
X264793323Y-41276677D02*
G75*
G03*
X260983323Y-37466677I-3809999J1D01*
G01*
X260983323Y-146683323D02*
G75*
G03*
X264793323Y-142873323I1J3809999D01*
G01*
X80646677Y-37466677D02*
X260983323Y-37466677D01*
X76836677Y-142873323D02*
X76836677Y-41276677D01*
X260983323Y-146683323D02*
X80646677Y-146683323D01*
X80646677Y-37466677D02*
G75*
G03*
X76836677Y-41276677I-1J-3809999D01*
G01*
X76836677Y-142873323D02*
G75*
G03*
X80646677Y-146683323I3809999J-1D01*
G01*
X264793323Y-41276677D02*
X264793323Y-142873323D01*
D11*
X259715000Y-42545000D03*
X81915000Y-42545000D03*
X81915000Y-141605000D03*
X259715000Y-141605000D03*
X219710000Y-101600000D03*
X143510000Y-101600000D03*
X219710000Y-82550000D03*
X143510000Y-82550000D03*
D12*
X172057300Y-92083000D03*
D13*
X177137300Y-92083000D03*
X166977300Y-92083000D03*
D14*
X169557300Y-88083000D03*
D15*
X168902301Y-88813000D03*
D16*
X174577300Y-87293000D03*
D14*
X174597300Y-87003000D03*
D12*
X191107300Y-130183000D03*
D13*
X186027300Y-130183000D03*
X196187300Y-130183000D03*
D15*
X187952301Y-126913000D03*
D14*
X188607300Y-126183000D03*
D16*
X193627300Y-125393000D03*
D14*
X193647300Y-125103000D03*
D12*
X191107300Y-73033000D03*
D13*
X186027300Y-73033000D03*
X196187300Y-73033000D03*
D15*
X187952301Y-69763000D03*
D14*
X188607300Y-69033000D03*
D16*
X193627300Y-68243000D03*
D14*
X193647300Y-67953000D03*
D13*
X128877300Y-111133000D03*
D12*
X133957300Y-111133000D03*
D13*
X139037300Y-111133000D03*
D14*
X131457300Y-107133000D03*
D15*
X130802301Y-107863000D03*
D14*
X136497300Y-106053000D03*
D16*
X136477300Y-106343000D03*
D13*
X128877300Y-92083000D03*
X139037300Y-92083000D03*
D12*
X133957300Y-92083000D03*
D15*
X130802301Y-88813000D03*
D14*
X131457300Y-88083000D03*
D16*
X136477300Y-87293000D03*
D14*
X136497300Y-87003000D03*
D13*
X215237300Y-92083000D03*
X205077300Y-92083000D03*
D12*
X210157300Y-92083000D03*
D14*
X207657300Y-88083000D03*
D15*
X207002301Y-88813000D03*
D16*
X212677300Y-87293000D03*
D14*
X212697300Y-87003000D03*
D13*
X119987300Y-53983000D03*
D12*
X114907300Y-53983000D03*
D13*
X109827300Y-53983000D03*
D15*
X111752301Y-50713000D03*
D14*
X112407300Y-49983000D03*
D16*
X117427300Y-49193000D03*
D14*
X117447300Y-48903000D03*
D13*
X234287300Y-111133000D03*
X224127300Y-111133000D03*
D12*
X229207300Y-111133000D03*
D14*
X226707300Y-107133000D03*
D15*
X226052301Y-107863000D03*
D14*
X231747300Y-106053000D03*
D16*
X231727300Y-106343000D03*
D13*
X177137300Y-53983000D03*
X166977300Y-53983000D03*
D12*
X172057300Y-53983000D03*
D15*
X168902301Y-50713000D03*
D14*
X169557300Y-49983000D03*
D16*
X174577300Y-49193000D03*
D14*
X174597300Y-48903000D03*
D13*
X224127300Y-92083000D03*
X234287300Y-92083000D03*
D12*
X229207300Y-92083000D03*
D15*
X226052301Y-88813000D03*
D14*
X226707300Y-88083000D03*
D16*
X231727300Y-87293000D03*
D14*
X231747300Y-87003000D03*
D13*
X158087300Y-73033000D03*
D12*
X153007300Y-73033000D03*
D13*
X147927300Y-73033000D03*
D14*
X150507300Y-69033000D03*
D15*
X149852301Y-69763000D03*
D16*
X155527300Y-68243000D03*
D14*
X155547300Y-67953000D03*
D13*
X166977300Y-73033000D03*
D12*
X172057300Y-73033000D03*
D13*
X177137300Y-73033000D03*
D15*
X168902301Y-69763000D03*
D14*
X169557300Y-69033000D03*
X174597300Y-67953000D03*
D16*
X174577300Y-68243000D03*
D13*
X119987300Y-130183000D03*
D12*
X114907300Y-130183000D03*
D13*
X109827300Y-130183000D03*
D14*
X112407300Y-126183000D03*
D15*
X111752301Y-126913000D03*
D16*
X117427300Y-125393000D03*
D14*
X117447300Y-125103000D03*
D12*
X133957300Y-130183000D03*
D17*
X114907300Y-123198000D03*
D12*
X153007300Y-138438000D03*
D13*
X139037300Y-130183000D03*
X128877300Y-130183000D03*
D12*
X114907300Y-138438000D03*
D17*
X153007300Y-123198000D03*
D15*
X130802301Y-126913000D03*
D14*
X131457300Y-126183000D03*
D16*
X136477300Y-125393000D03*
D14*
X136497300Y-125103000D03*
D13*
X253337300Y-130183000D03*
D12*
X248257300Y-130183000D03*
D13*
X243177300Y-130183000D03*
D14*
X245757300Y-126183000D03*
D15*
X245102301Y-126913000D03*
D16*
X250777300Y-125393000D03*
D14*
X250797300Y-125103000D03*
D18*
X87630000Y-91730000D03*
X94130000Y-91730000D03*
X87630000Y-96230000D03*
X94130000Y-96230000D03*
D12*
X191107300Y-111133000D03*
D13*
X186027300Y-111133000D03*
X196187300Y-111133000D03*
D14*
X188607300Y-107133000D03*
D15*
X187952301Y-107863000D03*
D16*
X193627300Y-106343000D03*
D14*
X193647300Y-106053000D03*
D13*
X158087300Y-53983000D03*
X147927300Y-53983000D03*
D12*
X153007300Y-53983000D03*
D14*
X150507300Y-49983000D03*
D15*
X149852301Y-50713000D03*
D16*
X155527300Y-49193000D03*
D14*
X155547300Y-48903000D03*
D12*
X133957300Y-73033000D03*
D13*
X139037300Y-73033000D03*
X128877300Y-73033000D03*
D14*
X131457300Y-69033000D03*
D15*
X130802301Y-69763000D03*
D16*
X136477300Y-68243000D03*
D14*
X136497300Y-67953000D03*
D12*
X191107300Y-92083000D03*
D13*
X196187300Y-92083000D03*
X186027300Y-92083000D03*
D15*
X187952301Y-88813000D03*
D14*
X188607300Y-88083000D03*
D16*
X193627300Y-87293000D03*
D14*
X193647300Y-87003000D03*
D13*
X234287300Y-73033000D03*
X224127300Y-73033000D03*
D12*
X229207300Y-73033000D03*
D14*
X226707300Y-69033000D03*
D15*
X226052301Y-69763000D03*
D14*
X231747300Y-67953000D03*
D16*
X231727300Y-68243000D03*
D13*
X243177300Y-73033000D03*
X253337300Y-73033000D03*
D12*
X248257300Y-73033000D03*
D15*
X245102301Y-69763000D03*
D14*
X245757300Y-69033000D03*
D16*
X250777300Y-68243000D03*
D14*
X250797300Y-67953000D03*
D13*
X166977300Y-111133000D03*
X177137300Y-111133000D03*
D12*
X172057300Y-111133000D03*
D15*
X168902301Y-107863000D03*
D14*
X169557300Y-107133000D03*
D16*
X174577300Y-106343000D03*
D14*
X174597300Y-106053000D03*
D13*
X205077300Y-73033000D03*
D12*
X210157300Y-73033000D03*
D13*
X215237300Y-73033000D03*
D14*
X207657300Y-69033000D03*
D15*
X207002301Y-69763000D03*
D16*
X212677300Y-68243000D03*
D14*
X212697300Y-67953000D03*
D12*
X172057300Y-130183000D03*
D13*
X166977300Y-130183000D03*
X177137300Y-130183000D03*
D15*
X168902301Y-126913000D03*
D14*
X169557300Y-126183000D03*
X174597300Y-125103000D03*
D16*
X174577300Y-125393000D03*
D13*
X147927300Y-130183000D03*
D12*
X153007300Y-130183000D03*
D13*
X158087300Y-130183000D03*
D15*
X149852301Y-126913000D03*
D14*
X150507300Y-126183000D03*
D16*
X155527300Y-125393000D03*
D14*
X155547300Y-125103000D03*
D13*
X128877300Y-53983000D03*
X139037300Y-53983000D03*
D12*
X133957300Y-53983000D03*
D14*
X131457300Y-49983000D03*
D15*
X130802301Y-50713000D03*
D14*
X136497300Y-48903000D03*
D16*
X136477300Y-49193000D03*
D19*
X241275000Y-51470000D03*
X241275000Y-56470000D03*
D20*
X255775000Y-56470000D03*
D18*
X255775000Y-51470000D03*
X255775000Y-53970000D03*
D21*
X248275000Y-48370000D03*
X248275000Y-59570000D03*
D12*
X248272300Y-101603000D03*
D17*
X255257300Y-113541000D03*
D12*
X240017300Y-89665000D03*
X240017300Y-113541000D03*
D17*
X255257300Y-89665000D03*
D13*
X243192300Y-101603000D03*
X253352300Y-101603000D03*
D14*
X245772300Y-97603000D03*
D15*
X245117301Y-98333000D03*
D16*
X250792300Y-96813000D03*
D14*
X250812300Y-96523000D03*
D13*
X224127300Y-53983000D03*
D12*
X229207300Y-53983000D03*
D13*
X234287300Y-53983000D03*
D14*
X226707300Y-49983000D03*
D15*
X226052301Y-50713000D03*
D14*
X231747300Y-48903000D03*
D16*
X231727300Y-49193000D03*
D12*
X248242300Y-111133000D03*
D13*
X253322300Y-111133000D03*
X243162300Y-111133000D03*
D15*
X245087301Y-107863000D03*
D14*
X245742300Y-107133000D03*
D16*
X250762300Y-106343000D03*
D14*
X250782300Y-106053000D03*
D13*
X119987300Y-73033000D03*
D12*
X114907300Y-73033000D03*
D13*
X109827300Y-73033000D03*
D15*
X111752301Y-69763000D03*
D14*
X112407300Y-69033000D03*
X117447300Y-67953000D03*
D16*
X117427300Y-68243000D03*
D13*
X215237300Y-53983000D03*
X205077300Y-53983000D03*
D12*
X210157300Y-53983000D03*
D14*
X207657300Y-49983000D03*
D15*
X207002301Y-50713000D03*
D14*
X212697300Y-48903000D03*
D16*
X212677300Y-49193000D03*
D12*
X153007300Y-111133000D03*
D13*
X147927300Y-111133000D03*
X158087300Y-111133000D03*
D15*
X149852301Y-107863000D03*
D14*
X150507300Y-107133000D03*
X155547300Y-106053000D03*
D16*
X155527300Y-106343000D03*
D13*
X234287300Y-130183000D03*
X224127300Y-130183000D03*
D12*
X229207300Y-130183000D03*
D14*
X226707300Y-126183000D03*
D15*
X226052301Y-126913000D03*
D14*
X231747300Y-125103000D03*
D16*
X231727300Y-125393000D03*
D22*
X94605000Y-86360000D03*
X92065000Y-86360000D03*
X89525000Y-86360000D03*
X86985000Y-86360000D03*
D13*
X215237300Y-130183000D03*
D12*
X210157300Y-130183000D03*
D13*
X205077300Y-130183000D03*
D14*
X207657300Y-126183000D03*
D15*
X207002301Y-126913000D03*
D16*
X212677300Y-125393000D03*
D14*
X212697300Y-125103000D03*
D12*
X210157300Y-111133000D03*
D13*
X205077300Y-111133000D03*
X215237300Y-111133000D03*
D14*
X207657300Y-107133000D03*
D15*
X207002301Y-107863000D03*
D14*
X212697300Y-106053000D03*
D16*
X212677300Y-106343000D03*
D23*
X83157300Y-48234750D03*
X83157300Y-50774750D03*
X83157300Y-53314750D03*
X83157300Y-55854750D03*
X83157300Y-58394750D03*
X83157300Y-60934750D03*
X83157300Y-63474750D03*
X83157300Y-66014750D03*
X83157300Y-68554750D03*
X83157300Y-71094750D03*
X83157300Y-73634750D03*
X83157300Y-76174750D03*
X98397300Y-76174750D03*
X98397300Y-73634750D03*
X98397300Y-71094750D03*
X98397300Y-68554750D03*
X98397300Y-66014750D03*
X98397300Y-63474750D03*
X98397300Y-60934750D03*
X98397300Y-58394750D03*
X98397300Y-55854750D03*
X98397300Y-53314750D03*
X98397300Y-50774750D03*
X98397300Y-48234750D03*
X85697300Y-71094750D03*
X88237300Y-71094750D03*
X90777300Y-71094750D03*
D12*
X114907300Y-111133000D03*
D13*
X119987300Y-111133000D03*
X109827300Y-111133000D03*
D15*
X111752301Y-107863000D03*
D14*
X112407300Y-107133000D03*
D16*
X117427300Y-106343000D03*
D14*
X117447300Y-106053000D03*
D24*
X90805000Y-137495000D03*
X90805000Y-99995000D03*
D12*
X153007300Y-92083000D03*
D13*
X158087300Y-92083000D03*
X147927300Y-92083000D03*
D15*
X149852301Y-88813000D03*
D14*
X150507300Y-88083000D03*
X155547300Y-87003000D03*
D16*
X155527300Y-87293000D03*
D12*
X114907300Y-92083000D03*
D13*
X109827300Y-92083000D03*
X119987300Y-92083000D03*
D14*
X112407300Y-88083000D03*
D15*
X111752301Y-88813000D03*
D16*
X117427300Y-87293000D03*
D14*
X117447300Y-87003000D03*
D13*
X186027300Y-53983000D03*
X196187300Y-53983000D03*
D12*
X191107300Y-53983000D03*
D14*
X188607300Y-49983000D03*
D15*
X187952301Y-50713000D03*
D16*
X193627300Y-49193000D03*
D14*
X193647300Y-48903000D03*
D12*
X248212300Y-92083000D03*
D13*
X253292300Y-92083000D03*
X243132300Y-92083000D03*
D15*
X245057301Y-88813000D03*
D14*
X245712300Y-88083000D03*
D16*
X250732300Y-87293000D03*
D14*
X250752300Y-87003000D03*
D25*
X237732300Y-74724800D03*
X237732300Y-71424800D03*
X199632300Y-55674800D03*
X199632300Y-52374800D03*
X199632300Y-112648000D03*
X199632300Y-109348000D03*
D26*
X113820000Y-120015000D03*
X114780000Y-120015000D03*
D27*
X174535000Y-61900000D03*
X174535000Y-65100000D03*
X169635000Y-65100000D03*
X169635000Y-61900000D03*
D25*
X180582300Y-55674800D03*
X180582300Y-52374800D03*
X256782300Y-96138000D03*
X256782300Y-92838000D03*
X161532300Y-112648000D03*
X161532300Y-109348000D03*
D27*
X241210000Y-119050000D03*
X241210000Y-122250000D03*
X236310000Y-122250000D03*
X236310000Y-119050000D03*
D25*
X161532300Y-55674800D03*
X161532300Y-52374800D03*
D28*
X166370000Y-63980000D03*
X166370000Y-63020000D03*
D25*
X237732300Y-55674800D03*
X237732300Y-52374800D03*
D28*
X233200000Y-63980000D03*
X233200000Y-63020000D03*
D27*
X174535000Y-119050000D03*
X174535000Y-122250000D03*
X169635000Y-122250000D03*
X169635000Y-119050000D03*
D25*
X180582300Y-131698000D03*
X180582300Y-128398000D03*
X123432300Y-55674800D03*
X123432300Y-52374800D03*
X256782300Y-103250000D03*
X256782300Y-99950000D03*
X161532300Y-131698000D03*
X161532300Y-128398000D03*
X256782300Y-110108000D03*
X256782300Y-106808000D03*
X199632300Y-74724800D03*
X199632300Y-71424800D03*
X161532300Y-74724800D03*
X161532300Y-71424800D03*
X218682300Y-112648000D03*
X218682300Y-109348000D03*
X180582300Y-112648000D03*
X180582300Y-109348000D03*
X142482300Y-131698000D03*
X142482300Y-128398000D03*
X142482300Y-93774800D03*
X142482300Y-90474800D03*
X256782300Y-131698000D03*
X256782300Y-128398000D03*
X199632300Y-131698000D03*
X199632300Y-128398000D03*
X123432300Y-112648000D03*
X123432300Y-109348000D03*
X199632300Y-93774800D03*
X199632300Y-90474800D03*
X180582300Y-74724800D03*
X180582300Y-71424800D03*
X237732300Y-131698000D03*
X237732300Y-128398000D03*
X237732300Y-110108000D03*
X237732300Y-106808000D03*
X123432300Y-74724800D03*
X123432300Y-71424800D03*
X218682300Y-131698000D03*
X218682300Y-128398000D03*
D28*
X103505000Y-63980000D03*
X103505000Y-63020000D03*
D25*
X142482300Y-112648000D03*
X142482300Y-109348000D03*
X142482300Y-55674800D03*
X142482300Y-52374800D03*
X218682300Y-93774800D03*
X218682300Y-90474800D03*
X123432300Y-93774800D03*
X123432300Y-90474800D03*
X218682300Y-74724800D03*
X218682300Y-71424800D03*
D27*
X111670000Y-61900000D03*
X111670000Y-65100000D03*
X106770000Y-65100000D03*
X106770000Y-61900000D03*
X241210000Y-61900000D03*
X241210000Y-65100000D03*
X236310000Y-65100000D03*
X236310000Y-61900000D03*
D25*
X180582300Y-93774800D03*
X180582300Y-90474800D03*
X161532300Y-93774800D03*
X161532300Y-90474800D03*
X256782300Y-74724800D03*
X256782300Y-71424800D03*
X237732300Y-96138000D03*
X237732300Y-92838000D03*
D27*
X111670000Y-119050000D03*
X111670000Y-122250000D03*
X106770000Y-122250000D03*
X106770000Y-119050000D03*
D25*
X123432300Y-131698000D03*
X123432300Y-128398000D03*
D28*
X167005000Y-121130000D03*
X167005000Y-120170000D03*
D25*
X142482300Y-74724800D03*
X142482300Y-71424800D03*
X218682300Y-55674800D03*
X218682300Y-52374800D03*
D28*
X233045000Y-121130000D03*
X233045000Y-120170000D03*
M02*
