G04 #@! TF.GenerationSoftware,KiCad,Pcbnew,(6.0.1)*
G04 #@! TF.CreationDate,2022-04-05T13:54:26+01:00*
G04 #@! TF.ProjectId,Keyboard Right Hand Side,4b657962-6f61-4726-9420-526967687420,rev?*
G04 #@! TF.SameCoordinates,Original*
G04 #@! TF.FileFunction,Soldermask,Top*
G04 #@! TF.FilePolarity,Negative*
%FSLAX46Y46*%
G04 Gerber Fmt 4.6, Leading zero omitted, Abs format (unit mm)*
G04 Created by KiCad (PCBNEW (6.0.1)) date 2022-04-05 13:54:26*
%MOMM*%
%LPD*%
G01*
G04 APERTURE LIST*
G04 Aperture macros list*
%AMRoundRect*
0 Rectangle with rounded corners*
0 $1 Rounding radius*
0 $2 $3 $4 $5 $6 $7 $8 $9 X,Y pos of 4 corners*
0 Add a 4 corners polygon primitive as box body*
4,1,4,$2,$3,$4,$5,$6,$7,$8,$9,$2,$3,0*
0 Add four circle primitives for the rounded corners*
1,1,$1+$1,$2,$3*
1,1,$1+$1,$4,$5*
1,1,$1+$1,$6,$7*
1,1,$1+$1,$8,$9*
0 Add four rect primitives between the rounded corners*
20,1,$1+$1,$2,$3,$4,$5,0*
20,1,$1+$1,$4,$5,$6,$7,0*
20,1,$1+$1,$6,$7,$8,$9,0*
20,1,$1+$1,$8,$9,$2,$3,0*%
G04 Aperture macros list end*
G04 #@! TA.AperFunction,Profile*
%ADD10C,0.200000*%
G04 #@! TD*
%ADD11C,1.750000*%
%ADD12C,3.987800*%
%ADD13RoundRect,0.100000X0.217500X0.100000X-0.217500X0.100000X-0.217500X-0.100000X0.217500X-0.100000X0*%
%ADD14RoundRect,0.155000X-0.155000X0.212500X-0.155000X-0.212500X0.155000X-0.212500X0.155000X0.212500X0*%
%ADD15RoundRect,0.100000X-0.100000X0.217500X-0.100000X-0.217500X0.100000X-0.217500X0.100000X0.217500X0*%
%ADD16C,2.200000*%
%ADD17C,3.048000*%
%ADD18C,2.000000*%
%ADD19RoundRect,0.100000X0.100000X-0.217500X0.100000X0.217500X-0.100000X0.217500X-0.100000X-0.217500X0*%
%ADD20C,1.500000*%
%ADD21R,2.000000X2.000000*%
%ADD22R,3.200000X2.000000*%
%ADD23C,1.397000*%
%ADD24C,1.752600*%
%ADD25C,2.800000*%
G04 APERTURE END LIST*
D10*
X264793323Y-41276677D02*
G75*
G03*
X260983323Y-37466677I-3809999J1D01*
G01*
X260983323Y-146683323D02*
G75*
G03*
X264793323Y-142873323I1J3809999D01*
G01*
X80646677Y-37466677D02*
X260983323Y-37466677D01*
X76836677Y-142873323D02*
X76836677Y-41276677D01*
X260983323Y-146683323D02*
X80646677Y-146683323D01*
X80646677Y-37466677D02*
G75*
G03*
X76836677Y-41276677I-1J-3809999D01*
G01*
X76836677Y-142873323D02*
G75*
G03*
X80646677Y-146683323I3809999J-1D01*
G01*
X264793323Y-41276677D02*
X264793323Y-142873323D01*
D11*
X224127300Y-53983000D03*
D12*
X229207300Y-53983000D03*
D11*
X234287300Y-53983000D03*
D12*
X172057300Y-92083000D03*
D11*
X177137300Y-92083000D03*
X166977300Y-92083000D03*
D13*
X259285000Y-50165000D03*
X258470000Y-50165000D03*
D12*
X191107300Y-130183000D03*
D11*
X186027300Y-130183000D03*
X196187300Y-130183000D03*
D14*
X262255000Y-52137500D03*
X262255000Y-53272500D03*
D12*
X191107300Y-73033000D03*
D11*
X186027300Y-73033000D03*
X196187300Y-73033000D03*
X128877300Y-111133000D03*
D12*
X133957300Y-111133000D03*
D11*
X139037300Y-111133000D03*
D15*
X259080000Y-54837500D03*
X259080000Y-55652500D03*
D16*
X81915000Y-42545000D03*
D11*
X128877300Y-92083000D03*
X139037300Y-92083000D03*
D12*
X133957300Y-92083000D03*
D11*
X215237300Y-92083000D03*
X205077300Y-92083000D03*
D12*
X210157300Y-92083000D03*
D16*
X259715000Y-141605000D03*
D11*
X119987300Y-53983000D03*
D12*
X114907300Y-53983000D03*
D11*
X109827300Y-53983000D03*
D13*
X259487500Y-57785000D03*
X258672500Y-57785000D03*
D11*
X234287300Y-111133000D03*
X224127300Y-111133000D03*
D12*
X229207300Y-111133000D03*
D11*
X177137300Y-53983000D03*
X166977300Y-53983000D03*
D12*
X172057300Y-53983000D03*
D11*
X224127300Y-92083000D03*
X234287300Y-92083000D03*
D12*
X229207300Y-92083000D03*
D11*
X158087300Y-73033000D03*
D12*
X153007300Y-73033000D03*
D11*
X147927300Y-73033000D03*
D16*
X143510000Y-101600000D03*
D11*
X166977300Y-73033000D03*
D12*
X172057300Y-73033000D03*
D11*
X177137300Y-73033000D03*
X119987300Y-130183000D03*
D12*
X114907300Y-130183000D03*
D11*
X109827300Y-130183000D03*
D16*
X219710000Y-82550000D03*
D14*
X262255000Y-54677500D03*
X262255000Y-55812500D03*
D12*
X133957300Y-130183000D03*
D17*
X114907300Y-123198000D03*
D12*
X153007300Y-138438000D03*
D11*
X139037300Y-130183000D03*
X128877300Y-130183000D03*
D12*
X114907300Y-138438000D03*
D17*
X153007300Y-123198000D03*
D11*
X253337300Y-130183000D03*
D12*
X248257300Y-130183000D03*
D11*
X243177300Y-130183000D03*
D18*
X87630000Y-91730000D03*
X94130000Y-91730000D03*
X87630000Y-96230000D03*
X94130000Y-96230000D03*
D12*
X191107300Y-111133000D03*
D11*
X186027300Y-111133000D03*
X196187300Y-111133000D03*
X158087300Y-53983000D03*
X147927300Y-53983000D03*
D12*
X153007300Y-53983000D03*
D16*
X143510000Y-82550000D03*
D12*
X133957300Y-73033000D03*
D11*
X139037300Y-73033000D03*
X128877300Y-73033000D03*
D12*
X191107300Y-92083000D03*
D11*
X196187300Y-92083000D03*
X186027300Y-92083000D03*
X234287300Y-73033000D03*
X224127300Y-73033000D03*
D12*
X229207300Y-73033000D03*
D11*
X243177300Y-73033000D03*
X253337300Y-73033000D03*
D12*
X248257300Y-73033000D03*
D11*
X166977300Y-111133000D03*
X177137300Y-111133000D03*
D12*
X172057300Y-111133000D03*
D16*
X259715000Y-42545000D03*
D11*
X205077300Y-73033000D03*
D12*
X210157300Y-73033000D03*
D11*
X215237300Y-73033000D03*
D12*
X172057300Y-130183000D03*
D11*
X166977300Y-130183000D03*
X177137300Y-130183000D03*
X147927300Y-130183000D03*
D12*
X153007300Y-130183000D03*
D11*
X158087300Y-130183000D03*
D19*
X259080000Y-53112500D03*
X259080000Y-52297500D03*
D11*
X128877300Y-53983000D03*
X139037300Y-53983000D03*
D12*
X133957300Y-53983000D03*
D20*
X241275000Y-51470000D03*
X241275000Y-56470000D03*
D21*
X255775000Y-56470000D03*
D18*
X255775000Y-51470000D03*
X255775000Y-53970000D03*
D22*
X248275000Y-48370000D03*
X248275000Y-59570000D03*
D12*
X248272300Y-101603000D03*
D17*
X255257300Y-113541000D03*
D12*
X240017300Y-89665000D03*
X240017300Y-113541000D03*
D17*
X255257300Y-89665000D03*
D11*
X243192300Y-101603000D03*
X253352300Y-101603000D03*
D12*
X248242300Y-111133000D03*
D11*
X253322300Y-111133000D03*
X243162300Y-111133000D03*
X119987300Y-73033000D03*
D12*
X114907300Y-73033000D03*
D11*
X109827300Y-73033000D03*
X215237300Y-53983000D03*
X205077300Y-53983000D03*
D12*
X210157300Y-53983000D03*
X153007300Y-111133000D03*
D11*
X147927300Y-111133000D03*
X158087300Y-111133000D03*
X234287300Y-130183000D03*
X224127300Y-130183000D03*
D12*
X229207300Y-130183000D03*
D23*
X94605000Y-86360000D03*
X92065000Y-86360000D03*
X89525000Y-86360000D03*
X86985000Y-86360000D03*
D16*
X81915000Y-141605000D03*
D11*
X215237300Y-130183000D03*
D12*
X210157300Y-130183000D03*
D11*
X205077300Y-130183000D03*
D12*
X210157300Y-111133000D03*
D11*
X205077300Y-111133000D03*
X215237300Y-111133000D03*
D24*
X83157300Y-48234750D03*
X83157300Y-50774750D03*
X83157300Y-53314750D03*
X83157300Y-55854750D03*
X83157300Y-58394750D03*
X83157300Y-60934750D03*
X83157300Y-63474750D03*
X83157300Y-66014750D03*
X83157300Y-68554750D03*
X83157300Y-71094750D03*
X83157300Y-73634750D03*
X83157300Y-76174750D03*
X98397300Y-76174750D03*
X98397300Y-73634750D03*
X98397300Y-71094750D03*
X98397300Y-68554750D03*
X98397300Y-66014750D03*
X98397300Y-63474750D03*
X98397300Y-60934750D03*
X98397300Y-58394750D03*
X98397300Y-55854750D03*
X98397300Y-53314750D03*
X98397300Y-50774750D03*
X98397300Y-48234750D03*
X85697300Y-71094750D03*
X88237300Y-71094750D03*
X90777300Y-71094750D03*
D16*
X219710000Y-101600000D03*
D12*
X114907300Y-111133000D03*
D11*
X119987300Y-111133000D03*
X109827300Y-111133000D03*
D25*
X90805000Y-137495000D03*
X90805000Y-99995000D03*
D12*
X153007300Y-92083000D03*
D11*
X158087300Y-92083000D03*
X147927300Y-92083000D03*
D12*
X114907300Y-92083000D03*
D11*
X109827300Y-92083000D03*
X119987300Y-92083000D03*
X186027300Y-53983000D03*
X196187300Y-53983000D03*
D12*
X191107300Y-53983000D03*
X248212300Y-92083000D03*
D11*
X253292300Y-92083000D03*
X243132300Y-92083000D03*
M02*
